/* XPM */
static char *right11708704599[] = {
/* columns rows colors chars-per-pixel */
"64 64 185 2 ",
"   c #00281F",
".  c #032E25",
"X  c #0C2E26",
"o  c #012F28",
"O  c #0D2E28",
"+  c #112E27",
"@  c #1C2923",
"#  c #122F28",
"$  c #172721",
"%  c #023027",
"&  c #0D3026",
"*  c #013029",
"=  c #0A3029",
"-  c #133027",
";  c #193126",
":  c #113028",
">  c #282822",
",  c #322320",
"<  c #392824",
"1  c #7F1C1E",
"2  c #49221F",
"3  c #5D211F",
"4  c #492523",
"5  c #5C2423",
"6  c #512625",
"7  c #5D3A38",
"8  c #652423",
"9  c #712523",
"0  c #002B7C",
"q  c #00327F",
"w  c #9C1E0E",
"e  c #811C1D",
"r  c #9D1C12",
"t  c #A61D0B",
"y  c #AD1D0A",
"u  c #B01E0D",
"i  c #A31C13",
"p  c #AB1C16",
"a  c #AE1D19",
"s  c #B41D16",
"d  c #B21A19",
"f  c #BA1A1A",
"g  c #B6171A",
"h  c #9D200E",
"j  c #92200E",
"k  c #942312",
"l  c #9C2312",
"z  c #A4210F",
"x  c #AD220F",
"c  c #B1220F",
"v  c #A22312",
"b  c #AC2210",
"n  c #AF271C",
"m  c #B12311",
"M  c #B42419",
"N  c #B82619",
"B  c #B31920",
"V  c #AB2523",
"C  c #BD2B21",
"Z  c #B73329",
"A  c #BA3B33",
"S  c #B5393A",
"D  c #C4191E",
"F  c #CC1B1E",
"G  c #D0191F",
"H  c #EC0D15",
"J  c #EC0F18",
"K  c #EC141C",
"L  c #EC181F",
"P  c #CE2D19",
"I  c #D82B17",
"U  c #D2241C",
"Y  c #D9241C",
"T  c #DD2E1B",
"R  c #D12918",
"E  c #CD311C",
"W  c #D2301C",
"Q  c #DE301C",
"!  c #E82D17",
"~  c #E52E1A",
"^  c #EC2F1A",
"/  c #E72914",
"(  c #F22F1A",
")  c #E2301C",
"_  c #ED301B",
"`  c #F2301B",
"'  c #F8301B",
"]  c #CA1920",
"[  c #D61B21",
"{  c #DB1921",
"}  c #ED1720",
"|  c #E41A23",
" . c #ED1C24",
".. c #EF1E28",
"X. c #F31C24",
"o. c #F81A23",
"O. c #FA1F28",
"+. c #C62420",
"@. c #C7252A",
"#. c #C02B22",
"$. c #D42B2C",
"%. c #DE3428",
"&. c #E42027",
"*. c #ED2027",
"=. c #ED222A",
"-. c #E4292C",
";. c #F32129",
":. c #F9252E",
">. c #EA332D",
",. c #ED2C34",
"<. c #F12D35",
"1. c #F22F38",
"2. c #EE343B",
"3. c #E4393D",
"4. c #E53336",
"5. c #F2323B",
"6. c #FB343C",
"7. c #C13A40",
"8. c #EE3941",
"9. c #F63A42",
"0. c #9A4C4D",
"q. c #A7494A",
"w. c #D84643",
"e. c #E74748",
"r. c #F04147",
"t. c #F2424A",
"y. c #F1484E",
"u. c #EE4950",
"i. c #F44C53",
"p. c #FE4C53",
"a. c #E95458",
"s. c #F3545A",
"d. c #F2585E",
"f. c #F25357",
"g. c #F95D61",
"h. c #F5686D",
"j. c #F66F73",
"k. c #F6777B",
"l. c #003381",
"z. c #033B85",
"x. c #083F88",
"c. c #083D86",
"v. c #0C428A",
"b. c #174A8E",
"n. c #235495",
"m. c #3E69A2",
"M. c #597EAF",
"N. c #4B72A7",
"B. c #F57D82",
"V. c #698AB6",
"C. c #6E8EB9",
"Z. c #6588B6",
"A. c #7894BD",
"S. c #F88588",
"D. c #F68E92",
"F. c #F79599",
"G. c #F69195",
"H. c #F79DA1",
"J. c #F9ADB0",
"K. c #F9B5B8",
"L. c #9EB4D0",
"P. c #90A9CA",
"I. c #A4BCD7",
"U. c #B8C6DB",
"Y. c #ADCEE6",
"T. c #C7CFDF",
"R. c #FAC2C4",
"E. c #FBC7C9",
"W. c #FBCBCD",
"Q. c #FCD5D7",
"!. c #FDDBDC",
"~. c #FCD7D8",
"^. c #C1CFE1",
"/. c #CCDDEC",
"(. c #D2DCE9",
"). c #FCDFE0",
"_. c #C6E0F1",
"`. c #DFEEF7",
"'. c #DCF0FA",
"]. c #FCE8E9",
"[. c #EEF2F7",
"{. c #FEF4F3",
"}. c #F5FAFC",
"|. c #FFFEFE",
" X c #E6ECF3",
/* pixels */
"o o o o o o o o o o o o o o o o o o o o o o o o o o o o . * * o o o . o o o o o * * . . * o o o o o o o o o o o o o . % o o o o ",
"+ O O + + + + O O + o * ; - + + O + + O O + + + = = - # X X X     X X O O + + + % = : : + O + + O + O + O + + + o o # + O + O + ",
"v v v v v v v l i k X O W T b l v v v v v v v k .   P T n Z A A @.A Z n b w w w = # W Q v v v v v v v v v v v l O O W Q b v v v ",
"x m b b b b b b m b X & ~ ( m b m b b b b y y b 7 0.f.d.s.i.i.i.p.f.f.s.a.a.w.Z @   Q _ m b b m u m b b b b m v O + ) ( b b b b ",
"b z b b b b b b x l X O Q ^ b b b b b t t C w.a.p.6.=. . .L L K K K K L ..,.8.i.a.q.%./ x v b b b b x b v x b v X O Q _ b b b b ",
"b m m b b b b b b z X O Q ^ m b m c t C e.i.5.*.L L  . . . . . ..... . . . .L K X.6.u.u.#.u b b b b m b b b b v X O Q ^ m b b b ",
"^ ^ ^ ^ b b b b c v X O ) ` _ _ / ~ e.i.1.L K  . . . . . . . . . . . . . . . ... .L L ,.i.e.! ! _ ^ ^ ! m x c v X O ) ` _ _ _ _ ",
") ) ) T v l v v v l O : W ) Q I >.u.2.L  . . . . . . . . . . . . . . . . . . . . . . .L L 5.y.>.I Q >.I v l v l X & W ) Q ) Q ) ",
"# + + & & X & & O X o o # = $ S t.X.L .. . . . . . . . . . . . . . . . . . . . . . . . .*.K *.t.S > = # = X X X . % # & & & : & ",
". * O + X = & = X & O + X @ $.6.L  . . . . . . . . . . . . . . . . . . . . . . . . . . . . . .L 9.S @ & O = X O O O X X O X X O ",
"% # W T v l v v v v v l h 3.8.|  . . . . . . . . . . . . . . . . . . . . . . . . . . . . . . . .L 6.3.R v v v v z l v v v v v v ",
". - ) ( m b b x b b b u 4.1.L =. . . . . . . . . . . . . . . . . . . . . . . . . . . . . . . . . .L <.2.u b b b x x x c x x x x ",
"* - ) ^ x x v b z b t $.1.L  . . . . . . . .L  . . . . . . . . . . . . . . . . . . . . .L X. . . . .L ,.$.t b b v b b b b z b b ",
"o : Q ^ c x c m m z +.5. . . . . . . . . . . . . . . . . . . . . . . . . . . . . . . . . . . . . . ... .1.+.b b b b b b b b b b ",
"o - ) ( ! ^ ^ ^ _ ~ ,. . . . . . . . . . . . . . . . . . . . . . .L  . . . . . . . . . . . . . . . . . ...,.T _ _ _ ^ ! c x b b ",
"o # W ) Q -.Q Q I -.=. . . . . . . . . . . . . . . . . . . . . . . . . . . . . . . . . . . . . . . . . . .=.-.I ) Q Q T b v v l ",
"o o O + + O + * 8 :.*. . . . . . . . . . . . . . . . . . . . . . . . . . . . . . . . . . . . . . . . . . . .:.8 % - O O X X X X ",
"+ + O O X O X + @.;. . . . . . . . . . . . . . ..... .*. . . ... . . . . . . . . . . . . . ..... .*... . .L ;.@.. * + & O O O X ",
"v v v v v v l s ;. . . . . . . . . . . . . .*.L H H H H K  . . . . . . . . . . . . . . . .L H H H H K  ... . .:.6 o W Q v v v l ",
"b b x b b b b [ ;.L  . . . . . . . . . .*. .H ,.h.D.F.B.y.K L  . . . . . . . . . . . . .H 2.j.D.F.k.r.J L ..L O.V X ) ( c b c x ",
"b b b b b b b {  . . . . . . . . . . . .L L D.{.|.|.|.|.|.E.8.K .. . . . . . . . . .L *.H.|.|.|.|.|.|.K.2.K *. .&.< W ^ b b b v ",
"b b b b b b f =. . . . . . . .L  . . . .*.R.|.|.|.|.|.|.}.|.|.d.H *. . . . . . ...L ,.Q.|.|.|.|.|.}.|.|.{.r.K  .X.9 W _ m m b m ",
"_ _ ^ ! m z F ;. . . . . . . . . . ...J J.|.{.|.|.|.|.|.|.|.|.{.8.K  . . . . . . . .R.|.|.|.|.|.|.|.|.|.|.].,.| ;.V W ' _ _ _ _ ",
"Q Q ) Q b l [ .. . . . . .X. . . ...K d.|.|.|.|.|.|.|.^.C.V.U.|.K.J .. . . . ...H j.|.|.|.|.|.|.|.U.Z.C.T.|.F.H ;.[ P ) Q ) ) ) ",
": + : + o > |  . . . . . . . . . .*.H J.|.|.|.|.|.|.P.l.q l.q P.|.8.K  . . . . .L W.|.|.|.|.|.|.A.0 l.q q U.{.;. .| > = : & : & ",
"* o & + . < X... . . . . . . . . . . .].|.|.|.|.|. Xv.x.v.v.c.z.'.j.H *. . . .L <.{.|.|.|.|.|./.z.v.v.v.z.b.}.s.K ..< % & & X O ",
". # W T v p  . . . . . . . . . ...L ,.].|.|.|.|.|.U.z.v.x.x.v.q Y.S.H *. . .*.K 8.|.|.|.|.|.|.L.l.v.z.v.v.l./.h.H  .p l v v v v ",
"* - ) ( x s  . . . . . . . . . . .L =.].|.|.|.|.|.(.z.v.v.v.v.q _.k.H ;. . . .L 2.{.|.|.|.|.|.U.l.v.v.v.v.x.`.d.H  .s x x x x x ",
". - ) ^ b a  . . . . . . . . . . ...K R.|.|.|.|.|.|.M.0 z.z.0 N.|.u.J .. . . . ...!.|.|.|.|.|.|.m.0 x.l.0 V.|.2.L ..s z b b b z ",
"* - ) ^ b s  . . . . . . . . . . ...J k.|.|.|.|.|.|.}.A.n.n.V.}.!. . . . . . .*.H F.|.|.|.|.|.|.[.Z.n.n.A.|.R.K  .X.s z b b b b ",
"o - ) ( _ Y |  . . . . . . . . . . . .*.!.|.|.|.|.|.|.|.}.}.|.|.h.H *. . . . . .L ,.{.|.|.|.|.|.|.|.}.}.|.|.u.K *. .U _ c x b b ",
"o - W ) Q U  ... . . . . . . . . . .*.J r.{.|.|.|.|.|.}.|.|.|.F.J  . . . . . . .*.J s.|.|.|.|.|.|.|.|.|.|.B.H  . . .U Q b l v v ",
"o o O + o 5 X. . . .*.L  . . . . . . .*.J r.Q.|.|.|.|.|.|.|.S.J  . . . . . . . . .*.H f.].|.|.|.|.|.|.{.j.K  . . .o.8 . X X X X ",
"+ + O + o 5 o. . . . . . . . . . . . . .*.K  .h.K.Q.!.R.G.2.H  .*. . . . . . . . . .*.J *.k.K.Q.!.R.S.,.H  . . . .o.8 % : O X X ",
"l v v v l a  . . . . . . . . . . . . . . . . .H H  . .L H L .. . . . . . . . . . . . .*.L H J  . .K H  . . . . . . .U Q b v v v ",
"b b b x u s  . . . . . . . . . . . . . . . . ..... . . .*. . . . . . . . . . . . . . .X. .*.*. . . ... . . . . . .| Y _ m b b b ",
"b b b b z m .. . . . . . . . . . . . . . . . . . . . . .X. . . . . . . . .L  . . . . .*. . . .*. . . . . . . . . . .Y _ b b b b ",
"m b b b x s  . . . . . . . . . . . . . . . . . . . . . .}  . . . . . . . . . . . . . .L  . . .L  . . . . . . . . .| Y ) m b b b ",
"^ ^ ^ ^ x s  . .L X. . . . . . . . . . . . . . . . . . . . . . . .X. . . . . . . . . . . . . . . . . . . . . . . . .Y ` ^ _ _ _ ",
"Q ) ) T z p  . .*. . . . . . . . . . . . . . . . . . . . . . . . . . . . . . . . . . . . . . . . . . . . . . . . . .U Q ) ) Q Q ",
"- + + + * 5 o. . . .L  . . . .X. . . . . . . . . . . . . . . . . . . . . . . . . . . . . . . . . . . . . . . . . .o.8 % : & & - ",
"o o & + * 5 X. . . . . . . . . . . . . . . . . . . . . . . . . . . . . . . . . . . . . . . . . . . . . . . . . .| o.8 % O X X X ",
"o # W ~ h a  . . . . . . . . . . . . . . . . . . . . . . . . . . . . . .*.X. . . . . . . . . . . . . . . . . . . . .d z v v h v ",
"o - ) ( x s  . . . . . . . . . . . . . . . . . . . . . . . . . . . . . .L  . . . . .L  . . . . . . . . . . . . . . .s z m x x x ",
"* - ) ^ x d  .*. . . . . . . . . . . . . . . . . . . . . . . . . . . . . . . . . . . . . . . . . . . . . . . . . . .s z b b b b ",
"o - T ^ b s  . . . . . . . . . . . . . . . . . . . . . . . . . . . . .*. . . . . . . . . . .X. . . . . . . . . . .X.s z b b b b ",
"o - ) ` ! U  . . . . . . . .X. . . . .L  . . . . . . . . . . . . . . .L  . . . . . . . . . . . . . . . . . . . .X. .Y _ c x b z ",
"o - W ) Q U  . . . . . . . . . . . . . . . . . . . . . . . . . . . . . . . . . . . . . . . . . . . . . . . . . . . .U Q v l v v ",
"o o O + % 5 o. . . . . . . . . . . . . . . . . . . . . . . . . . . . . . . . . . . . . . . . . . . . .L  . . . . .o.8 . O X X X ",
"+ + O + * 5 o. . . . . . . . . . . . . . . . . . . . . . . . . . . . . . . . . . . . . . . . . . . . . . . . . . .o.8 % O O O O ",
"v v v v h d  . . . . . . . . . . . . . . . . . . . . . . . . . . . . . . . . . . . . . . . . . . . . . . . . . . .| U Q b v l v ",
"b m b b x s  . . . . . . . . . . . . . . . . . . . . . . . . . . . . . . . . . . . . . . . . . . . . . . . . . . . .Y ^ m b x x ",
"b b b b b s  . . . . . . . . . . . . . . . . . . . . . . . . . . . . . . . . . . . . . . . . . . . . . . . . . ...| Y ) b b b b ",
"b b b m z a  . . . . . . . . . . . . . . . . . . . . . . . . .X.X. . . . . . . . . . . . . . . .X. . . . . . . . . .Y _ m b b b ",
"^ ^ ^ ^ b s .. . . . . . . .X.| {  . . . . . . . . . . . .o. .{ G  .X. . . . . . . . . . . ... .G  .X. . . . . . . .Y ` _ _ ^ ^ ",
"Q ) ) T v p  . . . . . . .X.] b N a { X. . . . . . . . .X.G d N N d G X. . .L  . . . . . .o.G p N s F X. . . . . .| U Q Q Q ) ) ",
"- : & + o 4 X. . . . . .X.e . + ; & , [ X. . . . . ...X.{ , = ; ; & > F o. . . . . . . .X.[ , = ; & $ B X. . . . .o.5 % : & - & ",
". . O : * 4 }  . . . . .e . O X o = . 3  . . . . . . . .3 . O o . & % 2 { X. . . . . . .} 2 % O o o X > ] .. . . .X.4 % O O X X ",
"* # W T v r |  . . . .d j v z l X + W P d  . . . . .X.f j v v l X + W W i | .. . . . . .p k z l X + W W r [ X. . .| i v b v z l ",
". - ) ( m z F X. . .d w b x x z X : ) ( w f X.X. .X.] w c b x b = & ) ( t d  . . .X. .a w p c v X + ~ ( b r { X.X.{ z c b x x x ",
"* : ) _ b b i { | d r b b b b l X : Q ^ b w g { | D r z b b b l X # Q ^ m r p { | { p w b b b v X # ) ^ b v i { | d z b b b b z ",
". # Q ^ m m b r r z b b b b b v X : ) ^ m b i t i w x c b b b l o & ~ ^ m m i r r r i m b b b v o + ) ^ m m b r r z b b b b b b ",
"o - Q ( ! ) ^ ) ) ^ ^ ~ b b b v o - Q ( ) _ _ ) ) _ ^ ~ m b b v X # Q ( ) ! _ ) ~ _ _ ~ b b b v X # Q ( ^ ~ ~ _ ! _ ^ ~ b z b b ",
"o - Q ` _ ` _ ( _ _ ^ ^ m b b v X # Q ` _ _ ^ _ _ _ _ _ b b m l X # ) ` _ ` _ _ _ _ ^ _ b b m v o O Q ` _ _ _ _ _ _ _ _ b b b b "
};
