/* XPM */
static char *right21708704600[] = {
/* columns rows colors chars-per-pixel */
"64 64 188 2 ",
"   c #06261F",
".  c #032D25",
"X  c #0C2E26",
"o  c #002F28",
"O  c #0D2E28",
"+  c #0F2520",
"@  c #112E27",
"#  c #1C2A23",
"$  c #122F28",
"%  c #152521",
"&  c #013027",
"*  c #0E3026",
"=  c #013029",
"-  c #0D3128",
";  c #133027",
":  c #123128",
">  c #2B2A25",
",  c #392824",
"<  c #4D1D1D",
"1  c #591B1B",
"2  c #6C1C1D",
"3  c #75191C",
"4  c #44211F",
"5  c #5D2423",
"6  c #512625",
"7  c #51302E",
"8  c #652423",
"9  c #752525",
"0  c #002B7C",
"q  c #00327F",
"w  c #8F1B0E",
"e  c #9C1E0D",
"r  c #941D0E",
"t  c #881B14",
"y  c #9A1B11",
"u  c #93161B",
"i  c #A61D0B",
"p  c #AD1D0A",
"a  c #B01E0D",
"s  c #A31C13",
"d  c #AC1C16",
"f  c #A71819",
"g  c #B41D16",
"h  c #BB171C",
"j  c #B31B1A",
"k  c #BA1A1B",
"l  c #B81A19",
"z  c #92200E",
"x  c #8E2210",
"c  c #942311",
"v  c #9C2311",
"b  c #A5220F",
"n  c #AD220F",
"m  c #B1220F",
"M  c #A22312",
"N  c #AC2210",
"B  c #AF2D1F",
"V  c #B12311",
"C  c #BC1A20",
"Z  c #AB2523",
"A  c #BD2B21",
"S  c #B73329",
"D  c #BA3B33",
"F  c #B5393A",
"G  c #C41A1D",
"H  c #CB191E",
"J  c #D3181F",
"K  c #EC0D15",
"L  c #EC0F18",
"P  c #EC141C",
"I  c #EC181F",
"U  c #CA2918",
"Y  c #D82B17",
"T  c #D2241C",
"R  c #D9241C",
"E  c #D32B18",
"W  c #DD2E1B",
"Q  c #D22B17",
"!  c #CD311C",
"~  c #D2301C",
"^  c #DE301C",
"/  c #E82D17",
"(  c #E52E1A",
")  c #EB2F1A",
"_  c #E52719",
"`  c #F12F1A",
"'  c #E2301C",
"]  c #ED301B",
"[  c #F2301C",
"{  c #F8301B",
"}  c #CD1820",
"|  c #D51B22",
" . c #DD1A21",
".. c #ED1720",
"X. c #E41B23",
"o. c #ED1C24",
"O. c #EF1E28",
"+. c #F31C25",
"@. c #F81A23",
"#. c #FA1F28",
"$. c #C62420",
"%. c #C7252A",
"&. c #C02B22",
"*. c #D42B2C",
"=. c #DE3428",
"-. c #E42027",
";. c #ED2027",
":. c #ED222A",
">. c #E4292C",
",. c #F32129",
"<. c #F9252E",
"1. c #EA332D",
"2. c #ED2C34",
"3. c #F12D35",
"4. c #F22F38",
"5. c #EE343B",
"6. c #E4393D",
"7. c #E53336",
"8. c #F2323B",
"9. c #FB343C",
"0. c #C13A40",
"q. c #EE3941",
"w. c #F63A42",
"e. c #9A4C4D",
"r. c #A7494A",
"t. c #D84643",
"y. c #E74748",
"u. c #F04147",
"i. c #F2424A",
"p. c #F1484E",
"a. c #EE4950",
"s. c #F44C53",
"d. c #FE4C53",
"f. c #E95458",
"g. c #F3545A",
"h. c #F2585E",
"j. c #F25357",
"k. c #F95D61",
"l. c #F5686D",
"z. c #F66F73",
"x. c #F6777B",
"c. c #003381",
"v. c #033B85",
"b. c #083F88",
"n. c #083D86",
"m. c #0C428A",
"M. c #174A8E",
"N. c #235495",
"B. c #3E69A2",
"V. c #597EAF",
"C. c #4B72A7",
"Z. c #F57D82",
"A. c #698AB6",
"S. c #6E8EB9",
"D. c #6588B6",
"F. c #7894BD",
"G. c #F88588",
"H. c #F68E92",
"J. c #F79599",
"K. c #F69195",
"L. c #F79DA1",
"P. c #F9ADB0",
"I. c #F9B5B8",
"U. c #9EB4D0",
"Y. c #90A9CA",
"T. c #A4BCD7",
"R. c #B8C6DB",
"E. c #ADCEE6",
"W. c #C7CFDF",
"Q. c #FAC2C4",
"!. c #FBC7C9",
"~. c #FBCBCD",
"^. c #FCD5D7",
"/. c #FDDBDC",
"(. c #FCD7D8",
"). c #C1CFE1",
"_. c #CCDDEC",
"`. c #D2DCE9",
"'. c #FCDFE0",
"]. c #C6E0F1",
"[. c #DFEEF7",
"{. c #DCF0FA",
"}. c #FCE8E9",
"|. c #EEF2F7",
" X c #FEF4F3",
".X c #F5FAFC",
"XX c #FFFEFE",
"oX c #E6ECF3",
/* pixels */
"o o o o o o o o o o o o o o o o o o o o o o o o o o o o o = = = = = = = = o o o & o o . = = o o o o o o o o o o o o o o o o o o ",
"@ O O @ @ @ @ @ O @ o o ; ; $ $ @ @ @ O O @ O @ - = ; ; X . +     X + X * - : @ & = $ ; @ @ @ @ @ O O @ @ @ @ @ o o $ : @ @ O @ ",
"M M M M M M M v s c X - E W N M M M M M M M M c . . E W A S D D D D S A M e i w = : ! ^ M M M M v b M M M M M v O O E ^ N M M M ",
"n V N N N N N N V N X O ' ` m n N N n n N p p N 7 e.j.h.g.s.s.s.s.s.s.g.j.f.t.S #   ( [ V V n N n g N N N N V M O @ ' ` N N N N ",
"n N N N N N N N n v O * ^ ] N N N N N b i A t.f.d.w.2.o.I P P P P P P o.;.3.w.s.f.r.=./ n N N N n b N N N N N M X @ ^ ] N N N N ",
"N N N V N N N N n b X O ^ ] V N N V p A y.s.w.o.I I o.o.o.o.o.o.o.o.o.o.o.o.P P +.w.a.a.A p N V V N V N N N N M X O ^ ) V N N N ",
") ) ) ) N N N N m N X O ' [ ] ] / _ y.s.4.....o.+.o.o.o.o.o.o.o.o.o.o.o.o.o.o.o.o.P ..2.s.y.( / ] ] ] ) N N V M X O ' [ ) ] ] ] ",
"' ^ ' W M v M M M c O ; ~ ' ^ Y 1.a.4.X...o.o.o.o.o.o.o.o.o.o.o.o.o.o.o.o.o.o.o.o.o.o...P 5.a.1.Y ^ ' ^ M v M c X O ~ ' ^ ' ^ ' ",
"; @ O - - X X X X X o o $ - # F w.;.I o.o.o.o.o.o.o.o.o.o.o.o.o.o.o.o.o.o.o.o.o.o.o.o.o.o.I o.i.F # - O X X X X & o @ * * * * ; ",
"o o O O X X X O X - O @ X # F 9.I o.o.o.o.o.o.o.o.o.o.o.o.o.o.o.o.o.o.o.o.o.o.o.o.o.o.o.o.o.o.I 9.0.# X X - X X @ X X O O X X X ",
"o $ ~ ( M v M M v M M v s 6.9.I o.o.o.o.o.o.o.o.o.o.o.o.o.o.o.o.o.o.o.o.o.o.o.o.o.o.o.o.o.o.o.o.I 8.6.E M M M M b v M M M M v M ",
". ; ' ` V N N N N N N a 7.4.I o.o.o.o.o.o.o.o.o.o.o.o.o.o.o.o.o.o.o.o.o.o.o.o.o.o.o.o.o.o.o.o.o.o.I 3.5.N N N N n n n n n m n n ",
"& ; ' ) N N N N N N i *.3...;.o.o.o.o.o.o.o.o.o.o.o.o.o.o.o.o.o.o.o.o.o.o.o.o.o.o.o.o.o.o.o.o.o.o.o.o.3.*.i N N N N N N N N N N ",
"& ; ( ) V N N N N n $.8...o.o.o.o.o.o.o.o.o.o.o.o.o.o.o.o.o.o.o.o.o.o.o.o.o.o.o.o.o.o.o.o.o.o.o.o.o.o.o.4.$.N N N N N N N N M N ",
"o ; ' ` ) ) ) ) ] W 7.o.o.o.o.o.o.o.o.o.o.o.o.o.o.o.o.o.o.o.o.o.o.o.o.o.o.o.o.o.o.+.o.o.o.o.o.o.o.o.o.o.O.2.W ] ) ) ) ( V a n n ",
"o : ~ ' ^ ^ ' ' Y >.:...o.o.o.o.o.o.o.o.o.o.+.o.o.o.o.o.o.o.o.o.o.o.o.o.o.o.o.o.o.o.o.o.o.o.o.o.o.o.o.o.o.:.>.Y ^ ^ ^ ^ N v M v ",
"o o O @ O O @ o 8 <.o.o.o.o.o.o.o.o.o.o.o.o.o.o.o.o.o.o.o.o.o.o.o.o.o.o.o.o.o.o.o.o.o.o.o.o.o.o.o.o.o.o.o.o.<.8 = ; O * X X X X ",
"@ @ O O O O O @ %.,.o.o.o.o.o.o.o.o.o.o.o.o.o.o.o.o.;.;.O.o.o.o.o.o.o.o.o.o.o.o.o.o.o.o.o.o.o.o.o.;.o.o.o.o.,.%.o = @ * O O O X ",
"v M M M M M v g ,.o.o.o.o.o.o.o.o.o.o.o.o.o.;.I K K K K P o.o.o.o.o.o.o.o.o.o.o.o.o.o.o.;.I K K K K P ;.o.o.o.<.6 . ~ ' N M M v ",
"N V N N V N b | ;.o.o.o.o.o.o.o.o.o.o.o.;.o.K 3.l.H.J.Z.p.P I o.o.o.o.o.o.o.o.o.o.o.o.o.K 8.z.H.J.x.u.L I o.I ,.Z X ' ` N N V N ",
"N N N N n N s -.+.o.o.o.o.o.o.o.o.o.o.o.I o.H. XXXXXXXXXXX!.q.P o.o.o.o.o.o.o.o.o.o.I ;.L.XXXXXXXXXXXXI.8.P ;.o.-.> ~ ] n N N N ",
"N N N N N N k ;.o.o.o.o.o.o.o.o.o.o.o.o.;.Q.XXXXXXXXXXXX.XXXXXh.L o.o.o.o.o.o.o.o.o.2.^.XXXXXXXXXXXX.XXX Xu.P ;.#.9 ~ ] V N N N ",
") ) ] ) V b T o.I o.o.o.o.o.o.o.o.o.o.P P.XX XXXXXXXXXXXXXXXXX Xq.I ;.o.o.o.o.o.o.o.!.XXXXXXXXXXXXXXXXXXXX}.2...#.Z ~ { ) ] ] ] ",
"^ ^ ^ W N v | +.o.o.o.o.o.o.o.o.o.o.P h.XXXXXXXXXXXXXX).S.A.R.XXI.P o.o.o.o.o.o.K z.XXXXXXXXXXXXXXR.D.S.W.XXJ.K +.| Q ' ^ ' ^ ^ ",
"; @ @ : = > X.+.o.o.o.o.o.o.o.o.o.o.P P.XXXXXXXXXXXXY.c.q c.q Y.XXq.P o.o.o.o.o.I ~.XXXXXXXXXXXXF.q c.q c.T. X:.o.X.> - * * * * ",
"= o O @ = , o.o.o.o.o.o.o.o.o.o.o.o.o.}.XXXXXXXXXXoXm.b.m.m.n.v.{.z.K ;.o.o.o.o.3. XXXXXXXXXXX_.c.m.m.m.v.M..Xg.P o., & * X X O ",
"o ; ~ W M d o.o.o.o.o.o.o.o.o.o.o.o.,.}.XXXXXXXXXXR.v.m.b.b.m.q E.G.K ;.o.o.o.I q.XXXXXXXXXXXXU.c.m.m.v.m.c._.l.K o.d v M M M M ",
"o ; ' ` N g o.o.o.o.o.o.o.o.o.o.o.o.:.}.XXXXXXXXXX`.v.m.m.m.m.q ].x.K +.o.o.o.I 5. XXXXXXXXXXXR.c.m.m.m.m.m.[.h.K O.g N N n n n ",
"o ; ^ ) N j o.o.o.o.o.o.o.o.o.o.o.o.P Q.XXXXXXXXXXXXV.0 v.v.0 C.XXp.P o.o.o.o.o.o./.XXXXXXXXXXXXC.0 c.v.0 A.XX5.I o.g b N N n N ",
". ; ' ` n g o.o.o.o.o.o.o.o.o.o.o.;.P x.XXXXXXXXXXXX.XF.N.N.A..X/.o.o.o.o.o.o.o.L J.XXXXXXXXXXXX|.D.N.N.F.XXQ.P o.o.g n N N N N ",
"= ; ' ` ] T o.o.o.o.o.o.o.o.o.o.o.o.o.o./.XXXXXXXXXXXXXX.X.XXXXXl.K ;.o.o.o.o.o.o.2. XXXXXXXXXXXXXXX.X.XXXXXa.P ;.o.R ( m n N N ",
"= ; ~ ' ^ T ..o.o.o.o.o.o.o.o.o.o.o.;.P i. XXXXXXXXXXX.XXXXXXXJ.P o.o.o.o.o.o.o.o.L h.XXXXXX XXXXXXXXXXXXXZ.K O.o.o.T ^ N v v v ",
"o o @ $ = 5 @.X.o.o.o.o.o.o.o.o.o.o.o.;.P u.^.XXXXXXXXXXXXXXG.P o.o.o.o.o.o.o.o.o.;.K j.}.XXXXXXXXXXXX Xz.L o.o.o.@.8 & O X X X ",
"O @ O O o 5 @.o.o.o.o.o.o.o.o.o.o.o.o.o.o.P o.l.I.^./.Q.H.5.K o.o.o.o.o.o.o.o.o.o.o.;.L ;.x.I.^./.Q.G.2.P o.o.o.o.@.8 = ; X X X ",
"M M M M v d o.o.o.o.o.o.o.o.o.o.o.o.o.o.o.o.o.L L o.o.I K I o.o.o.o.o.o.o.o.o.o.o.o.o.;.I L L o.o.P K I o.o.o.o.o.X.T ^ N M M v ",
"N N N V N g o.o.o.o.o.o.o.o.o.o.o.o.o.o.o.o.o.o.o.o.o.o.;.o.o.o.o.o.o.o.o.o.o.o.o.o.o.o.o.;.;.o.o.o.;.o.o.o.o.o.o...R ] N N V N ",
"N N N N N g o.o.o.o.o.I o.o.o.o.o.o.o.o.o.o.o.o.o.o.o.o.o.o.o.o.o.o.o.o.o.o.o.o.o.o.o.o.o.o.o.+.o.o.o.o.o.o.o.o.o.X.R ] N N N N ",
"N V N N N V o.o.o.o.o.o.o.o.o.o.o.o.o.o.o.o.o.o.o.o.o.o.o.o.o.o.o.o.o.o.o.o.o.o.o.o.o.o.o.o.o.I o.o.o.o.o.o.o.o.o.o.R ' V N N N ",
") ) ) ) n g o.+.o.o.o.o.o.o.o.o.o.o.o.o.o.o.o.o.o.o.o.o.o.o.o.o.o.o.o.o.o.o.o.o.o.o.o.o.o.o.o.o.o.o.o.o.o.o.o.o.o.o.R [ ) ] ] ] ",
"' ^ ' W M d o.o.o.o.o.o.o.o.o.+.+.o.o.o.o.o.o.o.o.o.o.o.o.o.o.o.o.o.o.o.o.o.o.o.o.o.o.o.o.o.o.o.o.o.o.o.o.o.o.o.o.o.T ^ ' ^ ' ' ",
"$ @ @ @ & 5 @.o.o.o.o.o.o.o.o.o.o.o.o.o.o.o.o.o.o.o.o.I +.o.o.o.o.o.+.o.o.o.o.o.o.o.+.o.o.o.o.o.o.o.o.o.o.o.o.o.o.@.8 & @ ; * * ",
"o o * @ & 5 @.X.o.o.o.o.o.o.I o.o.o.o.o.o.o.o.o.o.o.o.o.o.o.o.o.o.o.o.o.o.o.o.o.o.o.o.I o.o.o.o.o.o.o.o.o.o.o.o.X.@.5 & @ X X X ",
"o $ ~ W M d o.o.o.o.o.o.o.o.o.o.o.o.o.o.o.o.o.o.o.o.o.o.o.o.o.o.I o.o.o.o.o.o.o.o.o.o.o.o.o.o.o.o.o.o.o.o.o.o.o.o.o.j v M M b v ",
"o ; ] ` n g o.o.o.o.o.o.o.o.o.o.o.o.o.o.o.o.o.o.o.o.o.o.o.o.o.o.o.o.o.o.o.o.o.o.o.o.o.o.o.o.o.o.o.o.o.o.o.o.o.o.o.o.l n m n n n ",
"& ; ' ) N g o.o.o.o.o.o.o.o.o.+.o.o.o.o.o.o.o.o.o.o.o.o.o.o.o.o.o.o.o.o.o.o.o.o.o.o.o.o.o.o.o.o.o.o.o.o.o.o.o.o.o.o.g b N N N N ",
"& ; ' ) N V o.o.o.o.o.o.o.o.o.I o.o.o.o.o.o.o.o.o.o.o.o.o.o.o.o.o.o.o.o.o.o.o.o.o.o.o.o.o.o.o.o.o.o.o.o.o.o.o.o.o.o.g n N n N N ",
"o ; ' ` ] R o.o.o.o.o.o.o.o.o.o.o.o.o.o.o.o.o.o.o.o.o.o.o.o.o.o.o.o.o.o.o.o.o.o.o.o.o.o.o.o.o.o.o.o.o.o.o...o.o.o.o.R ( m n N N ",
"o ; *.' ^ $...o.o.o.o.o.o.o.o.o.o.o.o.o.o.o.o.o.o.o.o.o.o.o.o.o.o.o.o.o.o.o.o.o.o.o.o.o.o.o.o.o.o.o.o.o.o.o.o.o.o.o.T ^ N v v v ",
"o o O $ = 5 @.o.o.o.o.o.o.o.o.o.o.o.o.o.o.o.o.o.o.o.o.o.o.o.o.o.o.o.o.o.o.o.o.o.o.o.o.o.o.o.o.o.o.o.o.o.o.o.o.o.o.@.8 & O X X X ",
"@ O O @ o 5 @.o.o.o.o.o.o.o.o.o.o.o.o.o.o.o.o.o.o.o.o.o.o.o.o.o.o.o.o.o.o.o.o.o.o.o.o.o.o.o.o.o.o.o.o.o.o.o.o.o.o.@.8 & ; X X X ",
"M M b M v d o.o.o.o.o.o.o.o.o.o.o.o.o.o.o.o.o.o.o.o.o.o.o.o.o.o.o.o.o.o.o.o.o.o.o.o.o.o.o.o.o.o.o.o.o.o.o.o.o.o.o.X.T ^ N M M v ",
"n N n n n l o.o.o.o.o.o.o.o.o.o.o.o.o.o.o.o.o.o.o.o.o.o.o.o.o.o.o.o.o.o.o.o.o.o.o.o.o.o.o.o.o.o.o.o.o.o.o.o.o.o.o...R ] N N V N ",
"N N N N b g o.o.o.o.o.o.o.o.o.o.o.o.o.o.o.o.o.o.o.o.o.o.o.o.o.o.o.o.o.o.o.o.o.o.o.o.o.o.o.o...o.o.o.o.o.o.o.o.o.o...R ( N N N N ",
"N N N V b l o.o.o.o.o.o.o.o.o.o.o.o.o.o.o.o.o.o.o.o.o.o.o.o.o.o.o.o.o.o.o.o.o.o.o.o.o.o.o.o.o.o.o.o.o.o.o.o.o.o.o.o.R ) V N N N ",
") ] ) ) n G #.o.o.o.o.o.o.o.o.o.o.o.o.o.+.o.o.o.o.o.o.o.o.+.o.o.o...o.+.#...o.o.o.o.o.o.o.o.o.o.o.o.o.o.+...o.o.o.X._ ) ) ] ] ] ",
"' ^ ' ^ M V +.o.o.o.o.o.o.o.o...+.} j j h ..+.o.o.o.o.o.o.o.o.o.o.+.H l G o.+.o.o.o.o.o.o.o.o.o.o.o.@. .J +.+.o.+.@.=.^ ' ' ^ ' ",
"$ @ O @ = 4 ..o.o.o.o.o.o.o.o.+.f + o - . <  .+.o.o.o.o.o.o.o.o.o.t   .   4  .+.o.o.o.o.o.o.o.o.o.I 2 % # 4 C X.| 9 O @ @ - * * ",
"o o * * - & 2 +.o.o.o.o.o.o.+.k . = @ @ O . 1 X.o.o.o.o.o.o...o.u . * ; ; & 4  .+.o.o.o.o.o.o.o.X.1 . - - = # > ; = X X X X X O ",
"o @ ~ ' M M x h o.o.o.o.o.o. .t X : ~ W N M x s o.o.X.o.o.o.+.h + @ ~ W M M c y X.+.o.o.o.o.o.+.3 . ~ ( M M v v M M M M M M M M ",
"& ; ' [ V N V e H +.o.o.+.o.d v O @ ' ` N n V r j #.o.o.o.+.J t . @ >.` m n m b f o.o...o.o.o.h . @ ' ` V N m N V V N V n n N N ",
". ; ' ) N N N N y H o.+.o.j i v X @ ^ ) N N N N w h +.+.o. .u c O ; ' ) N N N N e j o.@.o.#.J t X @ W ) N N N N N N b n N N N N ",
"& ; ' ) V N N N n y d h s y N M X : ^ ) V N N V n r f } } r b N . @ ' ) V N V N V v f | X.G y v X @ ' ) V N N N N N N n N N N N ",
"o ; ' ` ( ) ) ) ) ' W E N N N M o ; ^ ` ' ) ) ( ) ] Y U e N V M X : ^ ) ( ) ] ' ) ] Y U s e N M X : ' ` ( ) ) ) ] ( ' ( m b N N ",
"o @ ^ [ ] ] ] ) ] [ [ ) N N V M X @ ^ [ ] ] ] ] ] ) [ ) V N N v X : ^ [ ] [ ] ] ] ] [ ] V N N M . : W [ ] ] ] ] ] ] ] ] V s N N "
};
