/* XPM */
static char *b48eda3b6c9a4942e362a96bb28424b6VdQ2pjkiD3KiI6sJ[] = {
/* columns rows colors chars-per-pixel */
"64 64 214 2 ",
"   c #152C1E",
".  c #19331D",
"X  c #253D1C",
"o  c #022325",
"O  c #032F27",
"+  c #0C2E27",
"@  c #022529",
"#  c #012F28",
"$  c #0D2E28",
"%  c #0C2427",
"&  c #132324",
"*  c #112E27",
"=  c #122C28",
"-  c #0E3026",
";  c #013228",
":  c #083128",
">  c #123127",
",  c #103128",
"<  c #243E22",
"1  c #7C370B",
"2  c #2F4A17",
"3  c #334314",
"4  c #34441B",
"5  c #384816",
"6  c #2F511C",
"7  c #3C541B",
"8  c #404A12",
"9  c #4D5B15",
"0  c #485817",
"q  c #535914",
"w  c #5E640C",
"e  c #6B7A0F",
"r  c #666F13",
"t  c #6A7511",
"y  c #415726",
"u  c #486025",
"i  c #596B24",
"p  c #6E7E2A",
"a  c #677C26",
"s  c #8B190E",
"d  c #89170F",
"f  c #9D150E",
"g  c #9E1D0C",
"h  c #8F1614",
"j  c #9D1611",
"k  c #9C1B13",
"l  c #931712",
"z  c #AA140C",
"x  c #A31C0D",
"c  c #A5170B",
"v  c #A41511",
"b  c #AA1511",
"n  c #A21D12",
"m  c #AC1B11",
"M  c #B11E11",
"N  c #88260C",
"B  c #9C230E",
"V  c #93200E",
"C  c #843B09",
"Z  c #8A350B",
"A  c #9A370C",
"S  c #972214",
"D  c #9A2413",
"F  c #AE220F",
"G  c #AC2C0C",
"H  c #A6280B",
"J  c #B1230F",
"K  c #B3280F",
"L  c #A4390D",
"P  c #AD370E",
"I  c #B2330A",
"U  c #A22312",
"Y  c #AC2210",
"T  c #AA2E14",
"R  c #B12310",
"E  c #BC251A",
"W  c #B72A17",
"Q  c #AB3C13",
"!  c #CD241A",
"~  c #C52C19",
"^  c #DC231B",
"/  c #DD2E1B",
"(  c #D6291B",
")  c #CD3719",
"_  c #D1301C",
"`  c #DE301C",
"'  c #DD3A16",
"]  c #E4251B",
"[  c #EC251B",
"{  c #E52E1A",
"}  c #EB2F1A",
"|  c #EA2216",
" . c #F12E1A",
".. c #E2311C",
"X. c #ED301B",
"o. c #E83715",
"O. c #F3311B",
"+. c #874708",
"@. c #9B440C",
"#. c #865107",
"$. c #AC4A0B",
"%. c #A5480B",
"&. c #B54209",
"*. c #B04B0E",
"=. c #AA5E08",
"-. c #BA5A0B",
";. c #BE5213",
":. c #916405",
">. c #946E03",
",. c #987603",
"<. c #A66707",
"1. c #B46C09",
"2. c #B06309",
"3. c #AE7A06",
"4. c #AB7707",
"5. c #BD7E07",
"6. c #B27304",
"7. c #C25B0E",
"8. c #CE4712",
"9. c #C15C11",
"0. c #CD5611",
"q. c #D84C16",
"w. c #E34710",
"e. c #E85B16",
"r. c #F24317",
"t. c #C5650F",
"y. c #C6780D",
"u. c #CA7A1C",
"i. c #D66D1C",
"p. c #ED6415",
"a. c #E67A10",
"s. c #F67718",
"d. c #7F810A",
"f. c #868409",
"g. c #9E9E05",
"h. c #8B8A11",
"j. c #A88203",
"k. c #AB9B03",
"l. c #B29F02",
"z. c #B69604",
"x. c #B78219",
"c. c #98A11F",
"v. c #A3A80C",
"b. c #B7A601",
"n. c #97A128",
"m. c #B4B92A",
"M. c #DB9B1D",
"N. c #ED8614",
"B. c #C6A304",
"V. c #D5AA0B",
"C. c #CABE00",
"Z. c #D1B203",
"A. c #DCB21C",
"S. c #F5BF0D",
"D. c #E1A011",
"F. c #E9BA1C",
"G. c #D89124",
"H. c #E58725",
"J. c #E29428",
"K. c #EE9925",
"L. c #DBA62B",
"P. c #DFB925",
"I. c #E9AA2D",
"U. c #EDB121",
"Y. c #CBC301",
"T. c #C5C003",
"R. c #D4CA00",
"E. c #D9C703",
"W. c #DBD500",
"Q. c #DBD600",
"!. c #E3CF02",
"~. c #E3D301",
"^. c #E4DB00",
"/. c #EBDD01",
"(. c #EBD906",
"). c #EBD51A",
"_. c #F3D115",
"`. c #EBE200",
"'. c #ECE900",
"]. c #E6E000",
"[. c #F2E600",
"{. c #F3EC00",
"}. c #FDEF00",
"|. c #F4EA08",
" X c #F5F300",
".X c #FFF200",
"XX c #FFFB00",
"oX c #FFF40E",
"OX c #FFFD0B",
"+X c #EAE216",
"@X c #F6E312",
"#X c #F7EB1D",
"$X c #FFF611",
"%X c #FFFB14",
"&X c #FFFE1C",
"*X c #DFDB22",
"=X c #D3D037",
"-X c #E9C833",
";X c #E2DD36",
":X c #F3DD37",
">X c #EDC62E",
",X c #F3E921",
"<X c #FFFF23",
"1X c #FFFF2B",
"2X c #FFF627",
"3X c #EFE437",
"4X c #F9EC34",
"5X c #F7EA37",
"6X c #FFFE34",
"7X c #FFF73A",
"8X c #FFFE3D",
"9X c #EDE427",
"0X c #EDE640",
"qX c #FFF741",
/* pixels */
"# # # # # # # # # # # # # # # # # # # # # # # # # # # # # # # # # # # # # # # # # # # # # # ; # # # # # # # # # # # # # # # # # ",
"* * * * * * * * * * O O > > * * * * * * * * * * O O * > * * * * * * * * * * * * O O * > * * * * * * * * * * * * O O * > * * * * ",
"U U U U U U U U U D + $ _ / U U U U U U U U U D + $ _ ` U U U U U U U U U U U D + $ _ ` U n U U U U U U U U U D + $ _ ` U U U U ",
"Y Y Y Y Y Y Y Y J U + $ .. .R F Y b G G Y Y J U + $ .. .R Y Y Y Y Y Y Y Y Y J U + $ .. .K G v R F Y Y Y Y Y J U + $ .. .R Y Y Y ",
"Y Y Y Y Y Y Y Y Y U + $ / X.Y v U y.(.=.v Y Y U + $ ` X.Y Y Y Y Y Y Y Y Y Y Y U + $ ` ] 9.+X6.B v Y Y Y Y Y Y U + $ ` X.Y Y Y Y ",
"Y Y Y Y Y Y Y Y Y U + $ ` } b -.(.XXOXB.j Y Y U + $ ` } R Y Y Y Y Y Y Y Y Y Y U + $ ` | I.<X.X/.<.j R R Y Y Y U + $ ` } R Y Y Y ",
"} } } } R F Y Y J U + , ] o.D.%XXX}..X`.A m J U + $ ..O.} } } } } } } } R F J U + - ] r.5X.X}.XX Xz.W ] R F J U + $ ..O.} } } } ",
"` ` ../ U D U U U D - @ 8._.%X.X.X.X.XXX3.l U D + * _ ..` ......` ` ../ U D U D + > ! H.1X}..X.X.XXXC.Q k U U D + * _ ..` ......",
"* * $ $ + + + + + - @ 7 +X%X}..X.X.X.XXXY.* + $ # # * > - - - > * * $ $ + + + + # # * =XOX.X.X.X.X}.XXW.5 @ - + # # * > - - - - ",
"# # $ $ $ $ $ $ - @ 7 ,X%X}..X.X.X.X.X.X.X9 @ - $ $ + + + + + + # # $ $ $ $ $ $ > @ u 6X.X.X.X.X.X.X}.XX~.3 @ - $ $ + + + + + + ",
"# * _ / U U U U k %.,X%X}..X.X.X.X.X.X.XXXB.l U U U U U U U U D + * _ / U U U U U f L.&X}..X.X.X.X.X.X}.XXW.1 k U U U U U U U U ",
"# > .. .R F F m G ).&X}..X.X.X.X.X.X.X.X.X`.A m F F F F F Y J U + > .. .R F Y F m I 5XoX.X.X.X.X.X.X.X.X}.XXC.N M F F F F F F F ",
"# > ` } Y Y Y c A.<X}..X.X.X.X.X.X.X.X.X.XXX3.v Y Y Y Y Y Y Y U + > ` } Y Y Y Y c u.1X}..X.X.X.X.X.X.X.X.X.XXXk.s Y Y Y Y Y Y Y ",
"# > ` } R Y b y.6X}..X.X.X.X.X.X.X.X.X.X.XXXE.B R Y Y Y Y Y Y U + > ` } R Y Y Y F -X%X.X.X.X.X.X.X.X.X.X.X.X.X X:.v R Y Y Y Y Y ",
"# > .. .X.[ w.4X$X.X.X.X.X.X.X.X.X.X.X.X.X.X X7.[ X.} } R Y J U + > .. .X.X.X.[ e.7X.X.X.X.X.X.X.X.X.X.X.X.X.X.XW.L  .{ R F Y Y ",
"# > _ ..` ^ U.1X}..X.X.X.X.X.X.X.X.X.X.X.X.XXXB.! ....` U D U S + > _ ..` ` ..^ I.&X}..X.X.X.X.X.X.X.X.X.X.X.X.XXXz.E ..U D U U ",
"# # $ > @ 0 7X.X.X.X.X.X.X.X.X.X.X.X.X.X.X.X.X/.X $ - $ + + + + # # $ * $ , + < 3XoX.X.X.X.X.X.X.X.X.X.X.X.X.X.X.X[.8 @ - + + + ",
"* * $ , o m.<X}..X.X.X.X.X.X.X.X.X.X.X.X.X.X.XXXe @ > - $ $ $ $ * * $ $ $ , o p 1X}..X.X.X.X.X.X.X.X.X.X.X.X.X.X.XXXg.o , $ $ $ ",
"U U U k $.7X.X.X.X.X.X.X.X.X.X.X.X.X.X.X.X.X.XXXT.* _ ` U U U U U U U U U U g -X%X.X.X.X.X.X.X.X.X.X.X.X.X.X.X.X.X.X^.@.n U U U ",
"Y Y Y z M.6X}..X.X.X.X.X.X.X.X.X.X.X.X.X.X.X.X.X}.q ( O.R Y Y Y Y Y Y Y Y b ;.7X.X.X.X.X.X.X.X.X.X.X.X.X.X.X.X.X.X.XXXj.j R Y Y ",
"Y Y Y G :X%X.X.X.X.X.X.X.X.X.X.X.X.X.X.X.X.X.X.XXXk.! X.Y Y Y Y Y F F Y Y c L.<X}..X.X.X.X.X.X.X.X.X.X.X.X.X.X.X.X.XXXY.N Y Y Y ",
"Y R m 9.8X.X.X.X.X.X.X.X.X.X.X.X.X.X.X.X.X.X.X.X.X^.) } R Y Y Y Y Y Y Y m I 5XoX.X.X.X.X.X.X.X.X.X.X.X.X.X.X.X.X.X.X.X'.+.m R Y ",
"} X.| K.6X}..X.X.X.X.X.X.X.X.X.X.X.X.X.X.X.X.X.X.XXXy.[ X.} } } } } } X.z u.&X}..X.X.X.X.X.X.X.X.X.X.X.X.X.X.X.X.X.X.XXX3.^ O.} ",
"` ../ -X<X.X.X.X.X.X.X.X.X.X.X.X.X.X.X.X.X.X.X.X.XXXE.~ ........` ` ..` x >XOX.X.X.X.X.X.X.X.X.X.X.X.X.X.X.X.X.X.X.X.XXXb.E ..` ",
"> $ X 0XoX.X.X.X.X.X.X.X.X.X.X.X.X.X.X.X.X.X.X.X.X.X.X0 @ > - > * > > @ y 2X.X.X.X.X.X.X.X.X.X.X.X.X.X.X.X.X.X.X.X.X.XXXR.. $ > ",
"; @ 7 qX.X.X.X.X.X.X.X.X.X.X.X.X.X.X.X.X.X.X.X.X.X}.XXv.o - + + # # > o c.OX}..X.X.X.X.X.X.X.X.X.X.X.X.X.X.X.X.X.X.X.X.X`.3 @ - ",
"; & i.8X.X.X.X.X.X.X.X.X.X.X.X.X.X.X.X.X.X.X.X.X.X.X.X{.A n U D + > _ ' @X.X.X.X.X.X.X.X.X.X.X.X.X.X.X.X.X.X.X.X.X.X.X.X{.#.k U ",
"; & H.8X}..X.X.X.X.X.X.X.X.X.X.X.X.X.X.X.X.X.X.X.X.X}.XX5.v K U + > ] s.OX.X.X.X.X.X.X.X.X.X.X.X.X.X.X.X.X.X.X.X.X.X.X.X X:.v K ",
"; & J.6X}..X.X.X.X.X.X.X.X.X.X.X.X.X.X.X.X.X.X.X.X.X.XXX~.B R U + > / S.XX.X.X.X.X.X.X.X.X.X.X.X.X.X.X.X.X.X.X.X.X.X.X.X.X>.j Y ",
"; & J.6X}..X.X.X.X.X.X.X.X.X.X.X.X.X.X.X.X.X.X.X.X.X.X.XXX2.b U : = q..X.X.X.X.X.X.X.X.X.X.X.X.X.X.X.X.X.X.X.X.X.X.X.X.XXX,.j Y ",
"; & J.6X}..X.X.X.X.X.X.X.X.X.X.X.X.X.X.X.X.X.X.X.X.X.X}.XXZ.f Y : % M.<X}..X.X.X.X.X.X.X.X.X.X.X.X.X.X.X.X.X.X.X.X.X.X.XXX,.f R ",
"; & G.6X}..X.X.X.X.X.X.X.X.X.X.X.X.X.X.X.X.X.X.X.X.X.X.X.X[.Z S + . 3X%X.X.X.X.X.X.X.X.X.X.X.X.X.X.X.X.X.X.X.X.X.X.X.X.X.X>.l U ",
"; o p 8X}..X.X.X.X.X.X.X.X.X.X.X.X.X.X.X.X.X.X.X.X.X.X.X}.XXd.o @ a 6X}..X.X.X.X.X.X.X.X.X.X.X.X.X.X.X.X.X.X.X.X.X.X.X.X.Xw @ - ",
"> o i 8X.X.X.X.X.X.X.X.X.X.X.X.X.X.X.X.X.X.X.X.X.X.X.X.X.XXXR.  . ;X%X.X.X.X.X.X.X.X.X.X.X.X.X.X.X.X.X.X.X.X.X.X.X.X.X.X}.9 @ > ",
"U k *.qX.X.X.X.X.X.X.X.X.X.X.X.X.X.X.X.X.X.X.X.X.X.X.X.X.X.XXX>.x.6X}..X.X.X.X.X.X.X.X.X.X.X.X.X.X.X.X.X.X.X.X.X.X.X.X.X].C n U ",
"Y m I 5XoX.X.X.X.X.X.X.X.X.X.X.X.X.X.X.X.X.X.X.X.X.X.X.X.X.X.X^.9X$X.X.X.X.X.X.X.X.X.X.X.X.X.X.X.X.X.X.X.X.X.X.X.X.X.XXXR.N R F ",
"Y Y x -X<X}..X.X.X.X.X.X.X.X.X.X.X.X.X.X.X.X.X.X.X.X.X.X.X.X.X.X.X.X.X.X.X.X.X.X.X.X.X.X.X.X.X.X.X.X.X.X.X.X.X.X.X.X.XXXb.s Y Y ",
"Y R z G.6X}..X.X.X.X.X.X.X.X.X.X.X.X.X.X.X.X.X.X.X.X.X.X.X.X.X.X.X.X.X.X.X.X.X.X.X.X.X.X.X.X.X.X.X.X.X.X.X.X.X.X.X.X.XXX,.j R Y ",
"} X.[ p.8X.X.X.X.X.X.X.X.X.X.X.X.X.X.X.X.X.X.X.X.X.X.X.X.X.X.X.X.X.X.X.X.X.X.X.X.X.X.X.X.X.X.X.X.X.X.X.X.X.X.X.X.X.X.X'.%.[ X.} ",
"` ` { ' :X%X.X.X.X.X.X.X.X.X.X.X.X.X.X.X.X.X.X.X.X.X.X.X.X.X.X.X.X.X.X.X.X.X.X.X.X.X.X.X.X.X.X.X.X.X.X.X.X.X.X.X.X.XXXY.T ..` ..",
"* > > o n.1X}..X.X.X.X.X.X.X.X.X.X.X.X.X.X.X.X.X.X.X.X.X.X.X.X.X.X.X.X.X.X.X.X.X.X.X.X.X.X.X.X.X.X.X.X.X.X.X.X.X.X.XXXf.o > - - ",
"# # > @ 0 7X.X.X.X.X.X.X.X.X.X.X.X.X.X.X.X.X.X.X.X.X.X.X.X.X.X.X.X.X.X.X.X.X.X.X.X.X.X.X.X.X.X.X.X.X.X.X.X.X.X.X.X.X`.5 @ - + + ",
"# * _ ` g P.<X}..X.X.X.X.X.X.X.X.X.X.X.X.X.X.X.X.X.X.X.X.X.X.X.X.X.X.X.X.X.X.X.X.X.X.X.X.X.X.X.X.X.X.X.X.X.X.X.X.XXXl.d U U U U ",
"# > ..O.m -.7X.X.X.X.X.X.X.X.X.X.X.X.X.X.X.X.X.X.X.X.X.X.X.X.X.X.X.X.X.X.X.X.X.X.X.X.X.X.X.X.X.X.X.X.X.X.X.X.X.X.X'.+.m F F F F ",
"# > ` } Y c A.1X}..X.X.X.X.X.X.X.X.X.X.X.X.X.X.X.X.X.X.X.X.X.X.X.X.X.X.X.X.X.X.X.X.X.X.X.X.X.X.X.X.X.X.X.X.X.X.XXXk.s Y Y Y Y Y ",
"# > ` } R m &.4XoX.X.X.X.X.X.X.X.X.X.X.X.X.X.X.X.X.X.X.X.X.X.X.X.X.X.X.X.X.X.X.X.X.X.X.X.X.X.X.X.X.X.X.X.X.X.X.XW.C M Y Y Y Y Y ",
"# > .. .} X.| N.6X}..X.X.X.X.X.X.X.X.X.X.X.X.X.X.X.X.X.X.X.X.X.X.X.X.X.X.X.X.X.X.X.X.X.X.X.X.X.X.X.X.X.X.X.X.X X<.^ O.{ R F Y Y ",
"# > _ ..` ` ..( F.<X}..X.X.X.X.X.X.X.X.X.X.X.X.X.X.X.X.X.X.X.X.X.X.X.X.X.X.X.X.X.X.X.X.X.X.X.X.X.X.X.X.X.X.XXXb.R ..` ` U D U U ",
"# # $ * $ $ , $ X *X&X}..X.X.X.X.X.X.X.X.X.X.X.X.X.X.X.X.X.X.X.X.X.X.X.X.X.X.X.X.X.X.X.X.X.X.X.X.X.X.X.X.XXXY.. * > $ $ + + + + ",
"* * $ $ $ $ $ > @ 6 ,X%X}..X.X.X.X.X.X.X.X.X.X.X.X.X.X.X.X.X.X.X.X.X.X.X.X.X.X.X.X.X.X.X.X.X.X.X.X.X.X.XXXQ.3 @ ; # * - $ $ $ $ ",
"U U U U U U U D - % 0.#X%X}..X.X.X.X.X.X.X.X.X.X.X.X.X.X.X.X.X.X.X.X.X.X.X.X.X.X.X.X.X.X.X.X.X.X.X.X}.XXQ.+.k D + * _ ` U U U U ",
"Y Y Y Y Y Y J U + > ^ e.#X%X}..X.X.X.X.X.X.X.X.X.X.X.X.X.X.X.X.X.X.X.X.X.X.X.X.X.X.X.X.X.X.X.X.X.X}.XXW.+.v K U + $ .. .R Y Y Y ",
"Y Y Y Y Y Y Y U + $ ` [ &.).%X}..X.X.X.X.X.X.X.X.X.X.X.X.X.X.X.X.X.X.X.X.X.X.X.X.X.X.X.X.X.X.X.X.XXXY.C v Y F U + $ ` X.Y Y Y Y ",
"Y Y Y Y Y Y Y U + $ ` X.m G V.%XoX}..X.X.X.X.X.X.X.X.X.X.X.X.X.X.X.X.X.X.X.X.X.X.X.X.X.X.X.X.X.X Xl.N m Y Y Y U + $ ` } R Y Y Y ",
"} } } } R F J U + $ ..O.X.} ] a.@XOX.X}..X.X.X.X.X.X.X.X.X.X.X.X.X.X.X.X.X.X.X.X.X.X.X.X.X.XXXQ.1.!  .X.R F J U + $ ..O.} } } } ",
"` ` ../ U D U D + > _ ..` ....^ 8.V.oXOX.X}..X.X.X.X.X.X.X.X.X.X.X.X.X.X.X.X.X.X.X.X.X.XXX[.z.Q ( ..../ U D U D + * _ ..` ......",
"* * $ $ + + + + # # * > - - - > = % 6 v.|.OXXX.X}.}..X.X.X.X.X.X.X.X.X.X.X.X.X.X.XXXXX`.g.2 o = > > * $ + + + + # # * > - - - - ",
"# # $ $ $ $ $ $ $ $ + + + + + + ; ; @ o 4 h.E. XXXXXXX.X.X.X.X.X.X.X.X.X.XXXXXXX{.Y.f.4 o @ - : # # $ $ $ $ $ $ $ $ + + + + + + ",
"# * _ / U U U U U U U U U U U D + * _ ..k h B $.5.Z.!.[. XXXXXXXXXXX X{.`.E.B.3.@.V h k U U U D + * _ / U D U U U U U U U U U U ",
"# > .. .R F Y F F F F F F Y J U + > .. .R K Y m v v U L $.=.1.6.t r t.0.L B j v m R K J F Y J U + > .. .R F Y F F F F F F F F F ",
"# > ` } Y Y Y Y Y Y Y Y Y Y Y D + > ` } Y Y Y Y Y Y Y m m v b j @ @ ] [ m Y Y Y Y Y Y Y Y Y Y D + > ` } Y Y Y Y Y Y Y Y Y Y Y Y ",
"# > ..} R Y R Y Y Y Y Y Y Y Y U + > ..} R Y R Y Y Y Y Y Y Y F U - > ..X.R Y Y Y Y Y Y Y Y Y Y U + > ..} R Y R Y Y Y Y Y Y Y Y Y ",
"# > `  .{ } } } } { } { R Y Y U + > `  .{ } } } } { } { R Y Y U + > `  .{ } } } } { } { R Y Y U + > `  .{ } } } } { } { R Y Y Y ",
"# > ..O.X.X.X.X.X.X.X.X.R Y Y U + > ` O.X.X.X.X.X.X.X.X.R Y Y U + > ` O.X.X.X.X.X.X.X.X.R Y Y U + > ` O.X.X.X.X.X.X.X.X.R Y Y Y "
};
