/* XPM */
static char *_cc2c8b8eb36411bd1f8aa59c420cc83Lk3SzOKho7OciJdA[] = {
/* columns rows colors chars-per-pixel */
"64 64 218 2 ",
"   c #0C2A1F",
".  c #1D3B1F",
"X  c #263D19",
"o  c #001E27",
"O  c #032425",
"+  c #0B2524",
"@  c #032E26",
"#  c #0C2E27",
"$  c #012329",
"%  c #012F29",
"&  c #0D2D28",
"*  c #0D2429",
"=  c #112E27",
"-  c #122C29",
";  c #0E3026",
":  c #023128",
">  c #0D3028",
",  c #123027",
"<  c #123229",
"1  c #1A3C22",
"2  c #7B310D",
"3  c #29431D",
"4  c #344919",
"5  c #2D4824",
"6  c #535A0E",
"7  c #454D14",
"8  c #445417",
"9  c #45531B",
"0  c #535815",
"q  c #596A19",
"w  c #60650C",
"e  c #6A7515",
"r  c #6C790C",
"t  c #4D6B29",
"y  c #697B28",
"u  c #9B1B0F",
"i  c #98190F",
"p  c #8D0711",
"a  c #8B1B10",
"s  c #9E1610",
"d  c #911C11",
"f  c #9C1A13",
"g  c #961613",
"h  c #A9140D",
"j  c #A11C0E",
"k  c #AA1A0C",
"l  c #A4150B",
"z  c #A51511",
"x  c #AB1611",
"c  c #A31B12",
"v  c #AC1B11",
"b  c #B11C12",
"n  c #88280D",
"m  c #98270D",
"M  c #8A3C0A",
"N  c #89320A",
"B  c #98340C",
"V  c #9B2413",
"C  c #972413",
"Z  c #A0260D",
"A  c #AD220F",
"S  c #A52B0B",
"D  c #AC2007",
"F  c #B1230F",
"G  c #A8320A",
"H  c #A22312",
"J  c #AC2210",
"K  c #B12410",
"L  c #BD2F12",
"P  c #BA3113",
"I  c #B13610",
"U  c #CD271A",
"Y  c #C72919",
"T  c #D4241D",
"R  c #DC251B",
"E  c #DD2E1B",
"W  c #D82416",
"Q  c #C73C15",
"!  c #C63018",
"~  c #DD3A14",
"^  c #D1301C",
"/  c #DE311C",
"(  c #EC251C",
")  c #E42E1B",
"_  c #EB2E1B",
"`  c #E62916",
"'  c #F22F1A",
"]  c #E33314",
"[  c #E93216",
"{  c #E2311C",
"}  c #ED301B",
"|  c #F3311B",
" . c #F23B16",
".. c #DF2620",
"X. c #884309",
"o. c #974A06",
"O. c #9C540A",
"+. c #A94F09",
"@. c #B44708",
"#. c #A7570A",
"$. c #B35709",
"%. c #A64410",
"&. c #BA4F14",
"*. c #BD5013",
"=. c #966807",
"-. c #947104",
";. c #9B7804",
":. c #AF7007",
">. c #B77A06",
",. c #BB6516",
"<. c #AD6907",
"1. c #DB4814",
"2. c #C45210",
"3. c #D25517",
"4. c #E04E0F",
"5. c #E94915",
"6. c #E75912",
"7. c #C2660E",
"8. c #DB600F",
"9. c #C2710B",
"0. c #D3740F",
"q. c #F1681E",
"w. c #E4780F",
"e. c #E47E25",
"r. c #7D810A",
"t. c #6D8214",
"y. c #7F8813",
"u. c #8C8B07",
"i. c #9D8203",
"p. c #989808",
"a. c #8C9513",
"s. c #B48904",
"d. c #A89901",
"f. c #BA9803",
"g. c #A98504",
"h. c #9CA310",
"j. c #ACA604",
"k. c #B8AE00",
"l. c #B6A907",
"z. c #BBB300",
"x. c #B9BC19",
"c. c #9CA224",
"v. c #9FA531",
"b. c #AFB22C",
"n. c #C48F06",
"m. c #CC820B",
"M. c #C88709",
"N. c #C79407",
"B. c #CF8810",
"V. c #D08616",
"C. c #E89B12",
"Z. c #C1BA01",
"A. c #CDB502",
"S. c #D2BB01",
"D. c #D3B303",
"F. c #D2A805",
"G. c #E0B219",
"H. c #F1B315",
"J. c #EBA50C",
"K. c #D18B24",
"L. c #DB9E28",
"P. c #DDAB24",
"I. c #F6A02A",
"U. c #E4B62D",
"Y. c #C7C200",
"T. c #CAC400",
"R. c #CFCB04",
"E. c #D5CB00",
"W. c #DBCB01",
"Q. c #DCC004",
"!. c #D6D400",
"~. c #DAD500",
"^. c #DDDB00",
"/. c #E6C90A",
"(. c #E3D302",
"). c #E4DB00",
"_. c #EED901",
"`. c #EBD414",
"'. c #EAD61B",
"]. c #F6D71A",
"[. c #E3E100",
"{. c #EEE301",
"}. c #EFEC00",
"|. c #EDE00F",
" X c #F2E500",
".X c #F4EC00",
"XX c #FDEF00",
"oX c #F9EE0A",
"OX c #F6F100",
"+X c #FFF200",
"@X c #FEF900",
"#X c #FFFB01",
"$X c #FFF20C",
"%X c #FFFC0C",
"&X c #F4ED1F",
"*X c #FFF413",
"=X c #FFFD13",
"-X c #FFFD1C",
";X c #FFF618",
":X c #C6C620",
">X c #F7D82B",
",X c #E9C832",
"<X c #F2DB34",
"1X c #FBDA36",
"2X c #EFCB2A",
"3X c #F6E82B",
"4X c #FFFC24",
"5X c #FFFE2B",
"6X c #FBF42A",
"7X c #F6E439",
"8X c #FBF235",
"9X c #FFFD34",
"0X c #FFFE3B",
"qX c #FAF13A",
"wX c #EBE538",
"eX c #F5EC42",
"rX c #FEF343",
"tX c #FEFD42",
/* pixels */
"% % % % % % % % % % % % % % % % % % % % % % % % % % % % % % % % % % % % % % % % % % % % % % % % % % % % % % % % % % % % % % % % ",
"= = = = = = = = = = @ @ , , = = = = = = = = = = @ @ = , = = = = = = = = = = = = @ @ , , = = = = = = = = = = = = @ @ = , = = = = ",
"H H H H H H H H H C # & ^ E H H H H H H H H H C # # ^ / H H H H H H H H H H H C # # ^ ) H H H H H H H H H H H C # # ^ / H H H H ",
"J J J J J J J J F H # & { ' K A J J J J h A F H # # { ' K J J J J J J J J J F H # # { [ x v F J J J J J J J F H # # { ' K J J J ",
"J J J J J J J J J H # & / _ J A J J z A 9./.+.f > # / } J J J J J J J J J J J H > + 1./.:.m z J J J J J J J J H # # / } J J J J ",
"J J J J J J J J J H # & / _ K K b v 7.`.=X#Xs.g > # / _ K J J J J J J J J J J H > + e.5X#X(.:.Z v K K J J J J H # # / _ K J J J ",
"_ _ _ _ K A J J F H # & ) | _ ` w./.=X%XXX#XS.d # > { | _ _ _ _ _ _ _ _ K A F H > + U.=XXX#X#X_.m.U ( } K A F H # # { | _ _ _ _ ",
"/ / { E H V H H H C # , ^ R ~ H.%X#XXX+X+X+X{.M + , ^ { / { { { / / { E H V H C + 1 7X+X+X+X+X#X#XD.Q T H V H C # = ^ { / { { { ",
"= = # # # # # # # # : : $ 9 '.=XXX+X+X+X+X+X#Xe $ : = , > > > , = = # # # # # > O t 5X+X+X+X+X+X+X#X).0 $ > # # % % = , > > > > ",
"% % # # # # # # # # = + t.&X%XXX+X+X+X+X+X+X#Xj.O , # # # # # # % % # # # # # > O v.-XXX+X+X+X+X+XXX#X Xr O & # # # # # # # # # ",
"% = ^ E H H H H H H f n.4X$XXX+X+X+X+X+X+X+X+X).B c H H H H H C # = ^ E H H H H Z <X%X+X+X+X+X+X+X+X+X+X+Xi.a H H H H H H H H H ",
"% , { ' K A J A J h M.4X$X+X+X+X+X+X+X+X+X+X+XOX#.x A A A J F H # , { ' K A J k *.9X+X+X+X+X+X+X+X+X+X+X+XOX;.u K A A A A A A A ",
"% , / _ J J J J z 9.5X$X+X+X+X+X+X+X+X+X+X+X+X#Xf.s J J J J J H # , / _ J J J l K.4XXX+X+X+X+X+X+X+X+X+X+X+X}.=.s J J J J J J J ",
"% , / _ K J J v @.6X;X+X+X+X+X+X+X+X+X+X+X+X+X#XW.m K J J J J H # , / _ K J J k ,X=X+X+X+X+X+X+X+X+X+X+X+X+X+X^.X.v K J J J J J ",
"% , { ' _ } _ ] '.4XXX+X+X+X+X+X+X+X+X+X+X+X+X+X}.2.( } K J F H # , { ' _ } ( 5.8X+X+X+X+X+X+X+X+X+X+X+X+X+X+X#XZ.P ' ) K A J J ",
"% , ^ { / { R C.9XXX+X+X+X+X+X+X+X+X+X+X+X+X+X+X#XM.T / H V H C # , ^ { / { R e.5XXX+X+X+X+X+X+X+X+X+X+X+X+X+X+XOXg.U / H V H H ",
"% % & = , $ 8 6X*X+X+X+X+X+X+X+X+X+X+X+X+X+X+X+X#XZ.+ > # # # # % % & = & < O b.=XXX+X+X+X+X+X+X+X+X+X+X+X+X+X+X+X).7 O > # # # ",
"= = & & > O x.5XXX+X+X+X+X+X+X+X+X+X+X+X+X+X+X+X+X{.3 + > & & & = = & & # + 1 wX+X+X+X+X+X+X+X+X+X+X+X+X+X+X+X+X+X+Xd.+ > & & & ",
"H H H H f $.9X$X+X+X+X+X+X+X+X+X+X+X+X+X+X+X+X+X+X@X9.T H H H H H H H H H s ,.9X+X+X+X+X+X+X+X+X+X+X+X+X+X+X+X+X+X+X[.O.c H H H ",
"J J J J k G.9XXX+X+X+X+X+X+X+X+X+X+X+X+X+X+X+X+X+X#XF.R K J J J J J J J J h L.-XXX+X+X+X+X+X+X+X+X+X+X+X+X+X+X+X+X+X+Xd.u K J J ",
"J J J c @.8X*X+X+X+X+X+X+X+X+X+X+X+X+X+X+X+X+X+X+X+X).Q K H J J J J J J J A <X%X+X+X+X+X+X+X+X+X+X+X+X+X+X+X+X+X+X+X+X~.M v J J ",
"J J K x B.0XXX+X+X+X+X+X+X+X+X+X+X+X+X+X+X+X+X+X+X+XOX7.b J J J J J J K v &.9X+X+X+X+X+X+X+X+X+X+X+X+X+X+X+X+X+X+X+X+XOX;.c K J ",
"_ _ } ` 2X5X+X+X+X+X+X+X+X+X+X+X+X+X+X+X+X+X+X+X+X+X#XN.` | _ _ _ _ _ } h K.4XXX+X+X+X+X+X+X+X+X+X+X+X+X+X+X+X+X+X+X+X#Xk.Y ' } ",
"/ { ) 4.qX*X+X+X+X+X+X+X+X+X+X+X+X+X+X+X+X+X+X+X+XXX#XW.! { { { / / { / j ,X=X+X+X+X+X+X+X+X+X+X+X+X+X+X+X+X+X+X+X+X+X+X!.%.) { ",
"= , $ e tX+X+X+X+X+X+X+X+X+X+X+X+X+X+X+X+X+X+X+X+X+X+XXX8 O , , = , , O 5 6X+X+X+X+X+X+X+X+X+X+X+X+X+X+X+X+X+X+X+X+X+X+X.Xw O , ",
"% : O c.0XXX+X+X+X+X+X+X+X+X+X+X+X+X+X+X+X+X+X+X+X+X+X#Xr.$ > # % % , O y -XXX+X+X+X+X+X+X+X+X+X+X+X+X+X+X+X+X+X+X+X+X+X+Xu.O > ",
"% , U 2X5X+X+X+X+X+X+X+X+X+X+X+X+X+X+X+X+X+X+X+X+X+X+X#XA.d H C # , ^ W U.%XXX+X+X+X+X+X+X+X+X+X+X+X+X+X+X+X+X+X+X+X+X+X#Xj.n H ",
": - ] 1X4X+X+X+X+X+X+X+X+X+X+X+X+X+X+X+X+X+X+X+X+X+X+X+X).B b H # , )  .7X+X+X+X+X+X+X+X+X+X+X+X+X+X+X+X+X+X+X+X+X+X+X+X#XZ.n K ",
": - 1.7X;X+X+X+X+X+X+X+X+X+X+X+X+X+X+X+X+X+X+X+X+X+X+X+X#X<.z H # , R q.5X+X+X+X+X+X+X+X+X+X+X+X+X+X+X+X+X+X+X+X+X+X+X+X#XR.N v ",
": - 1.rX*X+X+X+X+X+X+X+X+X+X+X+X+X+X+X+X+X+X+X+X+X+X+X+X#Xf.u H # < R I.-XXX+X+X+X+X+X+X+X+X+X+X+X+X+X+X+X+X+X+X+X+X+X+X+X!.M v ",
": - 4.rX$X+X+X+X+X+X+X+X+X+X+X+X+X+X+X+X+X+X+X+X+X+X+X+X#XE.m H # = { >X#X+X+X+X+X+X+X+X+X+X+X+X+X+X+X+X+X+X+X+X+X+X+X+X+X~.M v ",
": - 3.rX$X+X+X+X+X+X+X+X+X+X+X+X+X+X+X+X+X+X+X+X+X+X+X+X+XOXO.d > - 3.$X+X+X+X+X+X+X+X+X+X+X+X+X+X+X+X+X+X+X+X+X+X+X+X+X+X~.X.c ",
": $ 4 rX*X+X+X+X+X+X+X+X+X+X+X+X+X+X+X+X+X+X+X+X+X+X+X+XXX#Xu.o : $ y.#XXX+X+X+X+X+X+X+X+X+X+X+X+X+X+X+X+X+X+X+X+X+X+X+X+X(.4 $ ",
"= + 3 eX;X+X+X+X+X+X+X+X+X+X+X+X+X+X+X+X+X+X+X+X+X+X+X+X+X#XT.  < + :X#X+X+X+X+X+X+X+X+X+X+X+X+X+X+X+X+X+X+X+X+X+X+X+X+X+XW.X O ",
"H V S 7X-X+X+X+X+X+X+X+X+X+X+X+X+X+X+X+X+X+X+X+X+X+X+X+X+X+X+X=.p ,.0X+X+X+X+X+X+X+X+X+X+X+X+X+X+X+X+X+X+X+X+X+X+X+X+X+X+XY.n c ",
"J J D ,X5X+X+X+X+X+X+X+X+X+X+X+X+X+X+X+X+X+X+X+X+X+X+X+X+X+X#XE.o.>X-X+X+X+X+X+X+X+X+X+X+X+X+X+X+X+X+X+X+X+X+X+X+X+X+X+X#Xk.m K ",
"J J l P.9X+X+X+X+X+X+X+X+X+X+X+X+X+X+X+X+X+X+X+X+X+X+X+X+X+X+X.XR.8X+X+X+X+X+X+X+X+X+X+X+X+X+X+X+X+X+X+X+X+X+X+X+X+X+X+X+Xd.i J ",
"J K h V.tXXX+X+X+X+X+X+X+X+X+X+X+X+X+X+X+X+X+X+X+X+X+X+X+X+X+X+X+X$X+X+X+X+X+X+X+X+X+X+X+X+X+X+X+X+X+X+X+X+X+X+X+X+X+X+XOX-.c K ",
"_ } ( 6.tX$X+X+X+X+X+X+X+X+X+X+X+X+X+X+X+X+X+X+X+X+X+X+X+X+X+X+X+X+X+X+X+X+X+X+X+X+X+X+X+X+X+X+X+X+X+X+X+X+X+X+X+X+X+X+X[.#.( } ",
"/ / ) ~ <X4X+X+X+X+X+X+X+X+X+X+X+X+X+X+X+X+X+X+X+X+X+X+X+X+X+X+X+X+X+X+X+X+X+X+X+X+X+X+X+X+X+X+X+X+X+X+X+X+X+X+X+X+X+X+XY.I ) / ",
"= , , O b.9XXX+X+X+X+X+X+X+X+X+X+X+X+X+X+X+X+X+X+X+X+X+X+X+X+X+X+X+X+X+X+X+X+X+X+X+X+X+X+X+X+X+X+X+X+X+X+X+X+X+X+X+X+X+Xp.+ , , ",
"% % , $ q 0X$X+X+X+X+X+X+X+X+X+X+X+X+X+X+X+X+X+X+X+X+X+X+X+X+X+X+X+X+X+X+X+X+X+X+X+X+X+X+X+X+X+X+X+X+X+X+X+X+X+X+X+X+X X6 $ > # ",
"% = ^ E S >X4X+X+X+X+X+X+X+X+X+X+X+X+X+X+X+X+X+X+X+X+X+X+X+X+X+X+X+X+X+X+X+X+X+X+X+X+X+X+X+X+X+X+X+X+X+X+X+X+X+X+X+X+XZ.n H H H ",
"% , { | x m.0XXX+X+X+X+X+X+X+X+X+X+X+X+X+X+X+X+X+X+X+X+X+X+X+X+X+X+X+X+X+X+X+X+X+X+X+X+X+X+X+X+X+X+X+X+X+X+X+X+X+X+X.X-.j F A A ",
"% , / } v G 3X4X+X+X+X+X+X+X+X+X+X+X+X+X+X+X+X+X+X+X+X+X+X+X+X+X+X+X+X+X+X+X+X+X+X+X+X+X+X+X+X+X+X+X+X+X+X+X+X+X+X+XT.N v J J J ",
"% , / _ K x m.9XXX+X+X+X+X+X+X+X+X+X+X+X+X+X+X+X+X+X+X+X+X+X+X+X+X+X+X+X+X+X+X+X+X+X+X+X+X+X+X+X+X+X+X+X+X+X+X+X+X.X-.c J J J J ",
"% , { ' } _ [ ].5X+X+X+X+X+X+X+X+X+X+X+X+X+X+X+X+X+X+X+X+X+X+X+X+X+X+X+X+X+X+X+X+X+X+X+X+X+X+X+X+X+X+X+X+X+X+X+X+Xz.L _ F A J J ",
"% , ^ { / / ..8.6X*X+X+X+X+X+X+X+X+X+X+X+X+X+X+X+X+X+X+X+X+X+X+X+X+X+X+X+X+X+X+X+X+X+X+X+X+X+X+X+X+X+X+X+X+X+X+X).O.R / H V H H ",
"% % & = & & < $ a.5X$X+X+X+X+X+X+X+X+X+X+X+X+X+X+X+X+X+X+X+X+X+X+X+X+X+X+X+X+X+X+X+X+X+X+X+X+X+X+X+X+X+X+X+X+X+Xr.+ < # # # # # ",
"= = & & & & # # @ x.5X+X+X+X+X+X+X+X+X+X+X+X+X+X+X+X+X+X+X+X+X+X+X+X+X+X+X+X+X+X+X+X+X+X+X+X+X+X+X+X+X+X+X+X+Xj.  % , > # & & & ",
"H H H H H H H C O . `.4X+X+X+X+X+X+X+X+X+X+X+X+X+X+X+X+X+X+X+X+X+X+X+X+X+X+X+X+X+X+X+X+X+X+X+X+X+X+X+X+X+X+XZ.2 + , ^ / H H H H ",
"J J J J J J F H > * 1.].-XXX+X+X+X+X+X+X+X+X+X+X+X+X+X+X+X+X+X+X+X+X+X+X+X+X+X+X+X+X+X+X+X+X+X+X+X+X+X+X+XY.M c > # { ' K J J J ",
"J J J J J J J H # , R 5.`.-XXX+X+X+X+X+X+X+X+X+X+X+X+X+X+X+X+X+X+X+X+X+X+X+X+X+X+X+X+X+X+X+X+X+X+X+X+X#XY.M v H # # / } J J J J ",
"J J J J J J J H # # / ( I /.-X$X+X+X+X+X+X+X+X+X+X+X+X+X+X+X+X+X+X+X+X+X+X+X+X+X+X+X+X+X+X+X+X+X+X+X+Xz.N c J V # # / _ K J J J ",
"_ _ _ _ K A F H # # ) | ( [ J.=X$XXX+X+X+X+X+X+X+X+X+X+X+X+X+X+X+X+X+X+X+X+X+X+X+X+X+X+X+X+X+X+X+X.Xf.L b A F H # # { | _ _ _ _ ",
"/ / { E H V H C # = ^ { { ) R 0.|.%X$XXX+X+X+X+X+X+X+X+X+X+X+X+X+X+X+X+X+X+X+X+X+X+X+X+X+X+X+X#X~.=.Y ) H V H C # = ^ { / { { { ",
"= = # # # # # # % % = , # > , * 3 h.oX%X+XXX+X+X+X+X+X+X+X+X+X+X+X+X+X+X+X+X+X+X+X+X+X+X+X#X Xp.X * , > # # # # % % = , > > > > ",
"% % # # # # # # # # # # # # # > $ $ 9 l.oX#X#X+XXX+X+X+X+X+X+X+X+X+X+X+X+X+X+X+X+X+X#X#X{.j.7 O $ : # # # # # # # # # # # # # # ",
"% = ^ E H H H H H H H H H H H C # , Y T @.N.(.@X#X#X+X+X+X+XXX+X+X+X+X+X+X+X+X#X#XOXE.s.o.d f C # = ^ E H V H H H H H H H H H H ",
"% , { ' K A J A A A A A A J F H # , { | v z S $.n.Q.{.OX#X#X#X#X#X#X#X#X#XOX).S.s.O.m s v K F H # , { ' K A J A A A A A A A A A ",
"% , / _ J J J J J J J J J J J V # , / _ J J J z z j G +.<.>.n.N.p.p.N.m.<.O.B u s c J J J J J H # , / _ J J J J J J J J J J J J ",
"% , { _ K J K J J J J J J J J H # , { _ K J K K K K b v z z z g $ $ T ( x v b K K K J J J J J H # , { _ K J K J J J J J J J J J ",
"% , / ' ) _ _ _ _ ) _ ) K J J H # , / ' ) _ _ _ _ ) } { K J F H > , { | } } { ) ) ) _ ) K J J H # , / ' ) _ _ _ _ ) _ ) K J J J ",
"% , / | } } } } } } } } K J J H # , / | } } } } } } } } K J J H # , / | } } } } } } } } K J J H # , / | } } } } } } } } K J J J "
};
