/* XPM */
static char *_8e6373342d14439840cb0cde80dec61Yp7VckqlGedG6vcI[] = {
/* columns rows colors chars-per-pixel */
"64 63 222 2 ",
"   c None",
".  c #1B3A1F",
"X  c #052E27",
"o  c #0D2E26",
"O  c #022F28",
"+  c #0A2F28",
"@  c #122E27",
"#  c #1B2D26",
"$  c #0F3027",
"%  c #073028",
"&  c #073325",
"*  c #133423",
"=  c #1A3924",
"-  c #242D24",
";  c #292D23",
":  c #342C22",
">  c #3A2C21",
",  c #263026",
"<  c #2F3D22",
"1  c #303025",
"2  c #3C3024",
"3  c #4B2A1E",
"4  c #5C281C",
"5  c #562A1E",
"6  c #49371C",
"7  c #573E18",
"8  c #6C2719",
"9  c #67281A",
"0  c #7A2517",
"q  c #7B2618",
"w  c #742917",
"e  c #6B3414",
"r  c #432F24",
"t  c #4C2F23",
"y  c #592F23",
"u  c #5F3022",
"i  c #553023",
"p  c #443224",
"a  c #772C22",
"s  c #653023",
"d  c #6C3023",
"f  c #6E2F22",
"g  c #2A471E",
"h  c #364B19",
"j  c #1F4625",
"k  c #244422",
"l  c #3D5E26",
"z  c #485816",
"x  c #504F14",
"c  c #6D5319",
"v  c #5A6312",
"b  c #7A770B",
"n  c #65761B",
"m  c #767A12",
"M  c #686817",
"N  c #466327",
"B  c #687E28",
"V  c #AA1F0F",
"C  c #A01F0F",
"Z  c #A51F10",
"A  c #AA1F10",
"S  c #B21F10",
"D  c #9D2C0D",
"F  c #9A280F",
"G  c #812516",
"H  c #8D2414",
"J  c #8D2E1F",
"K  c #922414",
"L  c #9A2312",
"P  c #982E1D",
"I  c #983315",
"U  c #993C0B",
"Y  c #A4230F",
"T  c #AC230F",
"R  c #A32E0E",
"E  c #AF2D0F",
"W  c #B0220F",
"Q  c #A2320E",
"!  c #AA370E",
"~  c #B53B0E",
"^  c #A32311",
"/  c #AB2210",
"(  c #AC2E1E",
")  c #B32411",
"_  c #BB2512",
"`  c #BA2E18",
"'  c #AC301F",
"]  c #A93719",
"[  c #BC301D",
"{  c #B4351A",
"}  c #933020",
"|  c #9A3020",
" . c #8A3020",
".. c #A92E20",
"X. c #C22614",
"o. c #CC2915",
"O. c #C02D1A",
"+. c #C52814",
"@. c #D42A17",
"#. c #D92B17",
"$. c #D62C18",
"%. c #DB2C18",
"&. c #C1301E",
"*. c #CC301D",
"=. c #D6301D",
"-. c #DB301D",
";. c #D43915",
":. c #E32D19",
">. c #EC2F1B",
",. c #F12E1B",
"<. c #E2301C",
"1. c #ED301C",
"2. c #E83918",
"3. c #F1301C",
"4. c #9B450B",
"5. c #9C5A07",
"6. c #985908",
"7. c #864312",
"8. c #A5440C",
"9. c #B4470D",
"0. c #A7560A",
"q. c #B8560C",
"w. c #A94714",
"e. c #B74411",
"r. c #BB4817",
"t. c #B85A15",
"y. c #9D6408",
"u. c #8D7A0C",
"i. c #A87605",
"p. c #B67607",
"a. c #AF6A10",
"s. c #9E6B22",
"d. c #D74414",
"f. c #CA5213",
"g. c #EA4D19",
"h. c #C5670D",
"j. c #C36116",
"k. c #C66D17",
"l. c #DA6617",
"z. c #CF7814",
"x. c #ED6E1C",
"c. c #79830E",
"v. c #858808",
"b. c #9C9704",
"n. c #949012",
"m. c #A98503",
"M. c #B88607",
"N. c #AC9602",
"B. c #B59803",
"V. c #BC9718",
"C. c #AAA203",
"Z. c #A1A309",
"A. c #B4AB00",
"S. c #BCB300",
"D. c #B1B11B",
"F. c #8C8F26",
"G. c #96A22E",
"H. c #B9B82D",
"J. c #C6890B",
"K. c #C59605",
"L. c #D29907",
"P. c #D1871C",
"I. c #D3901B",
"U. c #EA880F",
"Y. c #C7AB03",
"T. c #D7A608",
"R. c #C4B601",
"E. c #C3BA01",
"W. c #C9BC01",
"Q. c #C9B906",
"!. c #D7B806",
"~. c #DBA616",
"^. c #ECAA14",
"/. c #E3BD14",
"(. c #D29522",
"). c #DDA927",
"_. c #D0B42D",
"`. c #E3AF2C",
"'. c #CBC405",
"]. c #DDC402",
"[. c #D9CD01",
"{. c #D3C800",
"}. c #DDD302",
"|. c #D5CB1B",
" X c #E4D401",
".X c #E5DA00",
"XX c #EBDD01",
"oX c #E9D501",
"OX c #E5C218",
"+X c #E9D71A",
"@X c #EFD00D",
"#X c #EEE200",
"$X c #F2E501",
"%X c #F5EA00",
"&X c #FAEE01",
"*X c #F5EA0A",
"=X c #FFF200",
"-X c #FFF40C",
";X c #F3E31D",
":X c #F7E716",
">X c #FFF412",
",X c #FEF41B",
"<X c #E6E11E",
"1X c #C8C732",
"2X c #DED533",
"3X c #ECC92D",
"4X c #F5C72A",
"5X c #EFD72C",
"6X c #EDD538",
"7X c #F5DE36",
"8X c #F2DB2F",
"9X c #FBEE2A",
"0X c #F6E929",
"qX c #FFF523",
"wX c #FDF42A",
"eX c #EAE231",
"rX c #F7E938",
"tX c #FEF635",
"yX c #FDF43C",
"uX c #F5EA45",
"iX c #FAF048",
"pX c #FDF443",
/* pixels */
"O O O O O O O O O O O O O O O O O O O O O O O O O O O O O O O O O O O O O O O O O O O O O O O O O O O O O O O O O O O O O O O   ",
"# # # # # # # # # @ O o , - # # # # # # # # # o O @ - # # # # # # # # # # # # + X # - # # # # # # # # # # # @ O o , - # # # #   ",
"L L L L L L L L L w X r =.O.L L L L L L L L L 3 k u.f.) L L L L L L L L L L K # @ t.a.U K L L L L L L L L L 8 O r =.O.L L L L   ",
"/ / / / / / / / / G X t 1.#.T / / / / / A T q.V.|.*Xz.X./ / / / / / / / / / ^ - @ (.*X].M.8.Y / / / / / / T 0 O t 1.@./ / / /   ",
"/ / / / / / / / / G X t 1.$./ / / / A / q.~.:X-X=X=XL._ / / / / / / / / / / L - * _.>X=X=XoXK.8.Y / / / / / 0 O t 1.@./ / / /   ",
") ) ) ) / / / / / G X t 1.$.) ) ) E h.T.;X>X=X=X=X=X!.` ) ) ) ) ) ) ) / / / L # j 2X=X=X=X=X=X XL.q./ / / / 0 O t 1.$.) ) ) )   ",
">.>.>.:.) / / / W G X t 1.1.>.>.g.^.*X=X=X=X=X=X=X=X Xd.>.>.>.>.>.>.>._ / / ^ # l 0X=X=X=X=X=X=X=XXXJ.Q / W q O t 1.1.>.>.>.>.  ",
"&.&.&.` H H H H H 9 X > [ &.O.l.@X-X=X=X=X=X=X=X=X=X#Xt.[ &.&.&.&.&.[ L H H G # B qX=X=X=X=X=X=X=X=X%XY.4.H 9 O r [ &.&.&.&.&.  ",
"@ @ o o + + + + + + O X o @ M +X-X=X=X=X=X=X=X=X=X=X&Xm o $ $ @ @ o o o + + + O G.,X=X=X=X=X=X=X=X=X=X=XW.z + O X @ $ $ $ $ $   ",
"O + : : ; ; ; ; ; ; ; ; - n <X-X=X=X=X=X=X=X=X=X=X=X=Xb.- - - o X - : ; - ; - 1 1X-X=X=X=X=X=X=X=X=X=X=X=X'.z - ; - - - - - -   ",
"O - *.$./ ^ ^ ^ ^ ^ ^ R J.;X-X=X=X=X=X=X=X=X=X=X=X=X=X!.D ^ ^ : X ' <.) ^ ^ ^ ~ 8X=X=X=X=X=X=X=X=X=X=X=X=X=X].y.L ^ ^ ^ ^ ^ ^   ",
"O , -.:.) / / / / / T J.qX-X=X=X=X=X=X=X=X=X=X=X=X=X=X X! / / : % ' >._ / / A t.9X=X=X=X=X=X=X=X=X=X=X=X=X=X=X{.5.Y / / / / /   ",
"O , =.:./ / / / / / h.;X>X=X=X=X=X=X=X=X=X=X=X=X=X=X=X$X0.A / : % ' >._ / / V z.qX=X=X=X=X=X=X=X=X=X=X=X=X=X=X&XW.4./ / / / /   ",
"O , =.:._ _ _ _ _ f.+X,X=X=X=X=X=X=X=X=X=X=X=X=X=X=X=X&Xp.Z / : % ' >.o._ _ _ ).,X=X=X=X=X=X=X=X=X=X=X=X=X=X=X=X%XB.Q / / / /   ",
"% , -.3.1.1.1.>.2.^.wX=X=X=X=X=X=X=X=X=X=X=X=X=X=X=X=X=XK.Y / : % ' 3.1.1.>.2.4X-X=X=X=X=X=X=X=X=X=X=X=X=X=X=X=X=X.Xi.Y / / /   ",
"% # | ' ' ' ' ..z.9X>X=X=X=X=X=X=X=X=X=X=X=X=X=X=X=X=X=XQ.w 0 - % a ' ' ' ..r.8X=X=X=X=X=X=X=X=X=X=X=X=X=X=X=X=X=X=XW.7.0 0 0   ",
"O O X X X X X k |.qX=X=X=X=X=X=X=X=X=X=X=X=X=X=X=X=X=X=X}.g O O O X X X X O N 9X=X=X=X=X=X=X=X=X=X=X=X=X=X=X=X=X=X=X$Xv.$ O X   ",
"> > > > > > : u.wX-X=X=X=X=X=X=X=X=X=X=X=X=X=X=X=X=X=X=X$XM : > > > > > > : F.qX=X=X=X=X=X=X=X=X=X=X=X=X=X=X=X=X=X=X=X'.x : >   ",
"/ / / / / / ! OXwX=X=X=X=X=X=X=X=X=X=X=X=X=X=X=X=X=X=X=X&Xp.Z / / / / / / T ).>X=X=X=X=X=X=X=X=X=X=X=X=X=X=X=X=X=X=X=X#Xm.F /   ",
"/ / / / / A h.rX>X=X=X=X=X=X=X=X=X=X=X=X=X=X=X=X=X=X=X=X=XK.Y / / / / / / E 3X-X=X=X=X=X=X=X=X=X=X=X=X=X=X=X=X=X=X=X=X=XR.U A   ",
"/ / / / / T ~.tX=X=X=X=X=X=X=X=X=X=X=X=X=X=X=X=X=X=X=X=X=X!.R / / / / / / e.0X=X=X=X=X=X=X=X=X=X=X=X=X=X=X=X=X=X=X=X=X=X.Xy.C   ",
"X.X.+._ / ~ 5XqX=X=X=X=X=X=X=X=X=X=X=X=X=X=X=X=X=X=X=X=X=XoX9.X.X.X.X.) V j.9X=X=X=X=X=X=X=X=X=X=X=X=X=X=X=X=X=X=X=X=X=X%XN.Q   ",
"3.3.3.:.S h.rX>X=X=X=X=X=X=X=X=X=X=X=X=X=X=X=X=X=X=X=X=X=X$Xh.>.,.3.>._ V P.qX=X=X=X=X=X=X=X=X=X=X=X=X=X=X=X=X=X=X=X=X=X=XR.0.  ",
"} } } J 8 V.yX=X=X=X=X=X=X=X=X=X=X=X=X=X=X=X=X=X=X=X=X=X=X=XM.J } } } w 9 _.>X=X=X=X=X=X=X=X=X=X=X=X=X=X=X=X=X=X=X=X=X=X=X[.u.  ",
"O O O O & H.tX=X=X=X=X=X=X=X=X=X=X=X=X=X=X=X=X=X=X=X=X=X=X=XZ.& O O O O * 1X-X=X=X=X=X=X=X=X=X=X=X=X=X=X=X=X=X=X=X=X=X=X=XXXb.  ",
"O @ y u 7 2XwX=X=X=X=X=X=X=X=X=X=X=X=X=X=X=X=X=X=X=X=X=X=X=X'.= X t s 3 c eX=X=X=X=X=X=X=X=X=X=X=X=X=X=X=X=X=X=X=X=X=X=X=X$XN.  ",
"O , -.:.e.rX,X=X=X=X=X=X=X=X=X=X=X=X=X=X=X=X=X=X=X=X=X=X=X=XoXh X ' ,._ j.9X=X=X=X=X=X=X=X=X=X=X=X=X=X=X=X=X=X=X=X=X=X=X=X%XA.  ",
"O , -.:.f.uX>X=X=X=X=X=X=X=X=X=X=X=X=X=X=X=X=X=X=X=X=X=X=X=X$Xv X ' >._ P.qX=X=X=X=X=X=X=X=X=X=X=X=X=X=X=X=X=X=X=X=X=X=X=X&XS.  ",
"O , -.:.j.iX>X=X=X=X=X=X=X=X=X=X=X=X=X=X=X=X=X=X=X=X=X=X=X=X%Xc.+ ' >._ ).>X=X=X=X=X=X=X=X=X=X=X=X=X=X=X=X=X=X=X=X=X=X=X=X=XR.  ",
"O , =.:.l.iX-X=X=X=X=X=X=X=X=X=X=X=X=X=X=X=X=X=X=X=X=X=X=X=X&Xb.* ' >.;.3X-X=X=X=X=X=X=X=X=X=X=X=X=X=X=X=X=X=X=X=X=X=X=X=X=XE.  ",
"O , -.,.x.iX-X=X=X=X=X=X=X=X=X=X=X=X=X=X=X=X=X=X=X=X=X=X=X=X=XE.. ( ,.g.;X=X=X=X=X=X=X=X=X=X=X=X=X=X=X=X=X=X=X=X=X=X=X=X=X=XE.  ",
"O @ d a s.iX>X=X=X=X=X=X=X=X=X=X=X=X=X=X=X=X=X=X=X=X=X=X=X=X=X Xh i a a.&X=X=X=X=X=X=X=X=X=X=X=X=X=X=X=X=X=X=X=X=X=X=X=X=X=XE.  ",
"O O O O N uX>X=X=X=X=X=X=X=X=X=X=X=X=X=X=X=X=X=X=X=X=X=X=X=X=X%XM O O F.>X=X=X=X=X=X=X=X=X=X=X=X=X=X=X=X=X=X=X=X=X=X=X=X=X&XS.  ",
"4 4 4 4 c uX,X=X=X=X=X=X=X=X=X=X=X=X=X=X=X=X=X=X=X=X=X=X=X=X=X=XE.7 M eX-X=X=X=X=X=X=X=X=X=X=X=X=X=X=X=X=X=X=X=X=X=X=X=X=X&XA.  ",
"/ / / / ~ 6XqX=X=X=X=X=X=X=X=X=X=X=X=X=X=X=X=X=X=X=X=X=X=X=X=X=X$XB.|.qX=X=X=X=X=X=X=X=X=X=X=X=X=X=X=X=X=X=X=X=X=X=X=X=X=X$XC.  ",
"/ / / / E `.tX=X=X=X=X=X=X=X=X=X=X=X=X=X=X=X=X=X=X=X=X=X=X=X=X=X=XXX0X-X=X=X=X=X=X=X=X=X=X=X=X=X=X=X=X=X=X=X=X=X=X=X=X=X=XXXb.  ",
"/ / / / T (.pX=X=X=X=X=X=X=X=X=X=X=X=X=X=X=X=X=X=X=X=X=X=X=X=X=X=X=X=X=X=X=X=X=X=X=X=X=X=X=X=X=X=X=X=X=X=X=X=X=X=X=X=X=X=X[.u.  ",
"@.@.@.o.A k.pX-X=X=X=X=X=X=X=X=X=X=X=X=X=X=X=X=X=X=X=X=X=X=X=X=X=X=X=X=X=X=X=X=X=X=X=X=X=X=X=X=X=X=X=X=X=X=X=X=X=X=X=X=X=XW.6.  ",
"1.1.3.:.) e.7XqX=X=X=X=X=X=X=X=X=X=X=X=X=X=X=X=X=X=X=X=X=X=X=X=X=X=X=X=X=X=X=X=X=X=X=X=X=X=X=X=X=X=X=X=X=X=X=X=X=X=X=X=X%XB.~   ",
"u u u y 3 6 H.tX=X=X=X=X=X=X=X=X=X=X=X=X=X=X=X=X=X=X=X=X=X=X=X=X=X=X=X=X=X=X=X=X=X=X=X=X=X=X=X=X=X=X=X=X=X=X=X=X=X=X=X=X.Xb 5   ",
"O O O O O O B yX-X=X=X=X=X=X=X=X=X=X=X=X=X=X=X=X=X=X=X=X=X=X=X=X=X=X=X=X=X=X=X=X=X=X=X=X=X=X=X=X=X=X=X=X=X=X=X=X=X=X=X=XW.h O   ",
"O #  .J w 8 7.6XqX=X=X=X=X=X=X=X=X=X=X=X=X=X=X=X=X=X=X=X=X=X=X=X=X=X=X=X=X=X=X=X=X=X=X=X=X=X=X=X=X=X=X=X=X=X=X=X=X=X=X$XN.w 8   ",
"O , -.:.) T T I.yX-X=X=X=X=X=X=X=X=X=X=X=X=X=X=X=X=X=X=X=X=X=X=X=X=X=X=X=X=X=X=X=X=X=X=X=X=X=X=X=X=X=X=X=X=X=X=X=X=X=X{.6.T T   ",
"O , -.:.) / / e.5XqX=X=X=X=X=X=X=X=X=X=X=X=X=X=X=X=X=X=X=X=X=X=X=X=X=X=X=X=X=X=X=X=X=X=X=X=X=X=X=X=X=X=X=X=X=X=X=X=X$XN.D / /   ",
"O , -.:.) / / T P.tX-X=X=X=X=X=X=X=X=X=X=X=X=X=X=X=X=X=X=X=X=X=X=X=X=X=X=X=X=X=X=X=X=X=X=X=X=X=X=X=X=X=X=X=X=X=X=X=X{.6.^ / /   ",
"O , =.>.#.#.#.#.d.4XwX=X=X=X=X=X=X=X=X=X=X=X=X=X=X=X=X=X=X=X=X=X=X=X=X=X=X=X=X=X=X=X=X=X=X=X=X=X=X=X=X=X=X=X=X=X=X#Xm.D / / /   ",
"O , =.1.1.1.1.1.>.x.0X,X=X=X=X=X=X=X=X=X=X=X=X=X=X=X=X=X=X=X=X=X=X=X=X=X=X=X=X=X=X=X=X=X=X=X=X=X=X=X=X=X=X=X=X=X&XY.8.^ ^ ^ ^   ",
"O o > r r r r r r p F.9X-X=X=X=X=X=X=X=X=X=X=X=X=X=X=X=X=X=X=X=X=X=X=X=X=X=X=X=X=X=X=X=X=X=X=X=X=X=X=X=X=X=X=X=X{.v : : : : :   ",
"+ + X X X X X X O O = D.qX-X=X=X=X=X=X=X=X=X=X=X=X=X=X=X=X=X=X=X=X=X=X=X=X=X=X=X=X=X=X=X=X=X=X=X=X=X=X=X=X=X=X Xb * X X X X X   ",
"G G G G G G G 9 X : ( r./.qX=X=X=X=X=X=X=X=X=X=X=X=X=X=X=X=X=X=X=X=X=X=X=X=X=X=X=X=X=X=X=X=X=X=X=X=X=X=X=X=X.Xv.6 ( P G G G G   ",
"/ / / / / / W G X r 1.#.9.OX,X=X=X=X=X=X=X=X=X=X=X=X=X=X=X=X=X=X=X=X=X=X=X=X=X=X=X=X=X=X=X=X=X=X=X=X=X=X=XXXn.. t 1.#./ / / /   ",
"/ / / / / / / G X r <.$./ 9.!.,X-X=X=X=X=X=X=X=X=X=X=X=X=X=X=X=X=X=X=X=X=X=X=X=X=X=X=X=X=X=X=X=X=X=X=X=X.Xm.e O t 1.@./ / / /   ",
"/ / / / / / / G X r <.$./ / ~ T.:X-X=X=X=X=X=X=X=X=X=X=X=X=X=X=X=X=X=X=X=X=X=X=X=X=X=X=X=X=X=X=X=X=X&X[.i.D 0 O t 1.$./ / / /   ",
":.:.:.#.) / / G X r <.>.:.:.:.2.U.:X-X=X=X=X=X=X=X=X=X=X=X=X=X=X=X=X=X=X=X=X=X=X=X=X=X=X=X=X=X=X=X$XR.5.Y / 0 O t 1.>.:.:.:.:.  ",
"<.<.<.$.^ ^ ^ 0 X > -.<.<.<.<.:.-.l.!.*X-X=X=X=X=X=X=X=X=X=X=X=X=X=X=X=X=X=X=X=X=X=X=X=X=X=X=X&X}.B.w.L ^ ^ w O t -.<.<.<.<.<.  ",
"1 1 1 ; - - - # O o 1 1 1 1 1 1 : : < n '.*X=X=X=X=X=X=X=X=X=X=X=X=X=X=X=X=X=X=X=X=X=X=X=X=X.XC.z , ; - - - # O @ 1 1 1 1 1 1   ",
"O O @ @ o o o o @ o o o o o o + O + @ @ k m Q.$X=X=X=X=X=X=X=X=X=X=X=X=X=X=X=X=X=X=X=X%X XC.v * X @ @ o o o o @ o o o o o o o   ",
"O - ' [ K H H H H H H H H H K 4 O i &.( H H D q.K.].XX&X=X=X=X=X=X=X=X=X=X=X=X=X$X XY.i.4.F w + ; [ ` K H H H H H H H H H H H   ",
"O , -.:.) / / / / / / / / / W 8 O s 3.@.T / / A / ! 9.p.K.T.].[.}.oXoX X].!.Y.M.a.8.D Y / / K o 1 <.:.) / / / / / / / / / / /   ",
"O , -.:.) / / / / / / / / / / 8 O s 3.o./ / / / / / A A / Y R 6 g w.d.~ Q R Y Y Z / / / / / H o 1 -.%./ / / / / / / / / / / /   ",
"O , =.:.) ) ) ) ) ) ) ) / / / 8 O s 3.@.) ) ) ) ) ) ) / / / / : X ( >.X.) ) ) ) ) ) ) / / T H o 1 -.:.) ) ) ) ) ) ) / / / / /   ",
"O , =.>.:.:.:.:.:.:.:.@./ / / 8 O s 1.>.:.:.:.:.:.:.:.X./ / / : % ' >.:.:.:.:.:.:.:.%.) / T H o 1 -.>.:.:.:.:.:.:.:.o./ / / /   ",
"O , =.1.1.1.1.1.1.1.1.$./ / / 8 O s 1.1.1.1.1.1.1.1.1.+./ / / : % ' 3.1.1.1.1.1.1.1.:.) / / H o 1 -.1.1.1.1.1.1.1.1.@./ / / /   "
};
