/* XPM */
static char *_c06ca445f0f470be731b773e2228d84Ul9bjzEXdLvxGPq6[] = {
/* columns rows colors chars-per-pixel */
"64 64 218 2 ",
"   c #13251F",
".  c #122F1F",
"X  c #233B1E",
"o  c #031D26",
"O  c #042425",
"+  c #082722",
"@  c #022D26",
"#  c #0C2E27",
"$  c #012429",
"%  c #012F29",
"&  c #0C2E28",
"*  c #0E2428",
"=  c #112423",
"-  c #112E27",
";  c #102E28",
":  c #0D3126",
">  c #013129",
",  c #0B3128",
"<  c #033125",
"1  c #123126",
"2  c #1A3421",
"3  c #123128",
"4  c #213C23",
"5  c #7B0A0F",
"6  c #23401D",
"7  c #35511B",
"8  c #1E4424",
"9  c #274223",
"0  c #3E5424",
"q  c #495818",
"w  c #5B6B15",
"e  c #5C741F",
"r  c #6E750F",
"t  c #666B15",
"y  c #667A1A",
"u  c #425726",
"i  c #576827",
"p  c #636F23",
"a  c #727E2B",
"s  c #9D160D",
"d  c #9B1C0F",
"f  c #8B0B10",
"g  c #931512",
"h  c #9A1612",
"j  c #941B13",
"k  c #9E1C12",
"l  c #891313",
"z  c #A4140D",
"x  c #AA150C",
"c  c #AB1C0C",
"v  c #A41611",
"b  c #AA1611",
"n  c #A41C12",
"m  c #AC1A11",
"M  c #B11E11",
"N  c #98240F",
"B  c #932B0E",
"V  c #96260E",
"C  c #98370D",
"Z  c #9B2413",
"A  c #972414",
"S  c #AE220F",
"D  c #A8280F",
"F  c #B1220F",
"G  c #B02D0B",
"H  c #A3340D",
"J  c #B43B0D",
"K  c #A22312",
"L  c #AC2210",
"P  c #B12410",
"I  c #B82816",
"U  c #CE251C",
"Y  c #CF2D1A",
"T  c #DD2517",
"R  c #DD2C15",
"E  c #D5241C",
"W  c #DC251C",
"Q  c #DD2F1B",
"!  c #D22E1D",
"~  c #C23915",
"^  c #D1301C",
"/  c #DE311C",
"(  c #D23516",
")  c #EB2315",
"_  c #E5221B",
"`  c #EC251C",
"'  c #E52E1A",
"]  c #EB2E1B",
"[  c #F12E1A",
"{  c #F4221B",
"}  c #E2311C",
"|  c #ED311B",
" . c #E83916",
".. c #F2301B",
"X. c #9D4B09",
"o. c #A1480A",
"O. c #B74E0C",
"+. c #AC540B",
"@. c #A95A09",
"#. c #B35D0A",
"$. c #B8560D",
"%. c #AC4212",
"&. c #BF5415",
"*. c #AB6707",
"=. c #BB660C",
"-. c #B46C09",
";. c #AD7506",
":. c #B67707",
">. c #C2590D",
",. c #C64D10",
"<. c #DA4C15",
"1. c #C65516",
"2. c #D45A19",
"3. c #ED4119",
"4. c #EB551B",
"5. c #C57E09",
"6. c #C7760C",
"7. c #CD6B13",
"8. c #E86915",
"9. c #E8781A",
"0. c #F47111",
"q. c #CC7921",
"w. c #CB7C28",
"e. c #D66124",
"r. c #E36E22",
"t. c #8E8F0A",
"y. c #908F12",
"u. c #8A9A18",
"i. c #B78805",
"p. c #BE9B03",
"a. c #BE9704",
"s. c #99A710",
"d. c #AAAA08",
"f. c #B6B105",
"g. c #BFBE11",
"h. c #B0AA10",
"j. c #91962E",
"k. c #879335",
"l. c #B1AF31",
"z. c #ACB42C",
"x. c #C48C06",
"c. c #C79706",
"v. c #C9841F",
"b. c #DE8314",
"n. c #D0861F",
"m. c #D08E09",
"M. c #CDAB05",
"N. c #C8A603",
"B. c #C7B803",
"V. c #D9B704",
"C. c #DAAA10",
"Z. c #F3BD0E",
"A. c #D6912B",
"S. c #E3822B",
"D. c #E8972D",
"F. c #E49B38",
"G. c #DFB139",
"H. c #DEA629",
"J. c #F2A32D",
"K. c #E7AF3E",
"L. c #E6B030",
"P. c #F3BA32",
"I. c #F2B227",
"U. c #CBC405",
"Y. c #D6C501",
"T. c #D4CB01",
"R. c #DACC02",
"E. c #DCC701",
"W. c #DDD100",
"Q. c #DBD805",
"!. c #F3CE02",
"~. c #E4D601",
"^. c #EAD403",
"/. c #E5DC01",
"(. c #E9DD00",
"). c #F7DA07",
"_. c #EBD016",
"`. c #E7C31E",
"'. c #ECE201",
"]. c #EDE800",
"[. c #F3E401",
"{. c #F2EC00",
"}. c #FDEE00",
"|. c #FAE602",
" X c #F6F200",
".X c #FFF501",
"XX c #FFF200",
"oX c #FFF900",
"OX c #FFFD00",
"+X c #FFFB00",
"@X c #FDF609",
"#X c #FFFA0C",
"$X c #F7E41B",
"%X c #FDEE1B",
"&X c #FFFD13",
"*X c #FEFE1C",
"=X c #FFF410",
"-X c #D0CD36",
";X c #DAD837",
":X c #C1C435",
">X c #F8DE2C",
",X c #EAC937",
"<X c #F6CC3A",
"1X c #E1DE37",
"2X c #FCDD35",
"3X c #E8E02D",
"4X c #FFFE23",
"5X c #FFFF2B",
"6X c #FEF628",
"7X c #EAE337",
"8X c #F4E737",
"9X c #FFFE30",
"0X c #FFFA3C",
"qX c #FEF533",
"wX c #E9BC40",
"eX c #C5C542",
"rX c #E5C042",
"tX c #F7EB44",
/* pixels */
"% % % % % % % % % % % % % % % % % % % % % % > % % % % % % % % % % % % % % % % % % % % % % % % % % % % % % % % % % % % % % % % % ",
"- - - - - - - - - - @ @ 1 1 - - - - - - - - ; - @ @ 1 1 - - - - - - - - - - - - @ @ - 1 - - - - - - - - - - - - @ @ - 1 - - - - ",
"K K K K K K K K K A # & ^ Q K K K K K K K K K A : 1 ! Q K K K K K K K K K K K A # # ^ / K K K K K K K K K K K A # # ^ / K K K K ",
"L L L L L L L L F K # & } [ P S L L L L L L P n $ O /  .P L L L L L L S z b M K : 1 } ..P L L L L L L L L L F K # # } [ P L L L ",
"L L L L L L L L L K # & / ] L L L L L L L v z H y h.).6.b L L L L L v 6.M.*.H j $ & / | L L L L L L L L L L L K # # / | L L L L ",
"L L L L L L L L L K # & / ] P L P P P m c $.C.$X&X#XOX5.b L L L L P x H.*X X'.M.w 2 E [ P L L L L L L L L L L K # # / ] P L L L ",
"] ] ] ] P S L L F K # & ' ..| ..] _ ` 8.`.4X&X.X}.}.oXc._ | ] ] ] | ) P.&X}..XOX.XT.5.( _ ] ..| ] ] ] ] P S F K # # } ..] ] ] ] ",
"/ / } Q K Z K K K A # 1 ^ } Q E  .0.Z.4X&XXX}.XXXXXXOXM.U } } } / } R <X#XXXXXXXXXoXoXW.6.Y E / } } } Q K Z K A # - ^ } / } } } ",
"- - # # # # # # # # % > 3 O 1 y.|.OXOXXX}.XXXXXXXXXXoXB.+ 1 1 1 1 # 2 7X@XXXXXXXXXXXXXoX XR.t 1 $ & 1 : # # # # % % - 1 : : : : ",
"% % # # # # # # # # 1 # $ y /.OX.X}.XXXXXXXXXXXXXXXXoXR.2 # # # > % 9 8X.XXXXXXXXXXXXXXXXXoXOXQ.s.8 o - : # # # # # # # # # # # ",
"% - ^ Q K K K K K K k K C.OX.X}.XXXXXXXXXXXXXXXXXXXX.X(.C n K A : = 2.9XXXXXXXXXXXXXXXXXXXXXXX.XOX'.b./ n K K K K K K K K K K K ",
"% 1 } [ P S L S L b J !.OX}.XXXXXXXXXXXXXXXXXXXXXXXXXX{.o.m F K : = r.5XXXXXXXXXXXXXXXXXXXXXXXXX}..XOX).>.b F S S S S S S S S S ",
"% 1 / ] L L L L v >.|.OX}.XXXXXXXXXXXXXXXXXXXXXXXXXXXX X@.v L K : = S.4X}.XXXXXXXXXXXXXXXXXXXXXXXXXX}.oX X:.n L L L L L L L L L ",
"% 1 / ] P L P m O.6XoX}.XXXXXXXXXXXXXXXXXXXXXXXXXXXXXXoX*.v L K : = D.*X}.XXXXXXXXXXXXXXXXXXXXXXXXXXXX}.XXoX;.b P L L L L L L L ",
"% 1 } [ ] | ]  .>X&X}.XXXXXXXXXXXXXXXXXXXXXXXXXXXXXXXXOXi.v F K , = L.&X}.XXXXXXXXXXXXXXXXXXXXXXXXXXXXXXXX.X].>.` | ] ] P S L L ",
"% 1 ^ } / / T I.4X}.XXXXXXXXXXXXXXXXXXXXXXXXXXXXXXXXXXOXp.g K A # + ,X&XXXXXXXXXXXXXXXXXXXXXXXXXXXXXXXXXXXXXoXR.~ ' } / K Z K K ",
"% % & & 3 $ p 9X}.XXXXXXXXXXXXXXXXXXXXXXXXXXXXXXXXXXXXoXf.O , # % < ;X#XXXXXXXXXXXXXXXXXXXXXXXXXXXXXXXXXXXXXXXoXt.O 1 # # # # # ",
"- - & # # 1 ;X#XXXXXXXXXXXXXXXXXXXXXXXXXXXXXXXXXXXXXXXoXU.# & : * 4 7X.XXXXXXXXXXXXXXXXXXXXXXXXXXXXXXXXXXXXXXX.X[.7 @ 1 # & & & ",
"K K K K s v.5X}.XXXXXXXXXXXXXXXXXXXXXXXXXXXXXXXXXXXXXX.X~.B K K k %.qXXXXXXXXXXXXXXXXXXXXXXXXXXXXXXXXXXXXXXXXXXXoXf.I } K K K K ",
"L L L m G 8X@XXXXXXXXXXXXXXXXXXXXXXXXXXXXXXXXXXXXXXXXX.X'.C m L x &.9XXXXXXXXXXXXXXXXXXXXXXXXXXXXXXXXXXXXXXXXXXXXX{.,.` P L L L ",
"L L L z q.9X}.XXXXXXXXXXXXXXXXXXXXXXXXXXXXXXXXXXXXXXXXXX{.o.b L z 7.5X}.XXXXXXXXXXXXXXXXXXXXXXXXXXXXXXXXXXXXXXXXXXoXc.E P K L L ",
"L L P c ,X&XXXXXXXXXXXXXXXXXXXXXXXXXXXXXXXXXXXXXXXXXXXXX.X*.b P x n.4X}.XXXXXXXXXXXXXXXXXXXXXXXXXXXXXXXXXXXXXXXXXX.X/.~ P L L L ",
"] | ` 4.0XXXXXXXXXXXXXXXXXXXXXXXXXXXXXXXXXXXXXXXXXXXXXXXoX5._ | ) J.*X}.XXXXXXXXXXXXXXXXXXXXXXXXXXXXXXXXXXXXXXXXXXXXoX6._ | ] ] ",
"/ } T D.5X}.XXXXXXXXXXXXXXXXXXXXXXXXXXXXXXXXXXXXXXXXXXXXOXc.E } T P.&X}.XXXXXXXXXXXXXXXXXXXXXXXXXXXXXXXXXXXXXXXXXXXXoXM.U } } } ",
"1 3 + eX&XXXXXXXXXXXXXXXXXXXXXXXXXXXXXXXXXXXXXXXXXXXXXXXOXd.O 3 # -X#XXXXXXXXXXXXXXXXXXXXXXXXXXXXXXXXXXXXXXXXXXXXXXX.X/.X # 1 : ",
"> % 9 tX.XXXXXXXXXXXXXXXXXXXXXXXXXXXXXXXXXXXXXXXXXXXXXXXoXB.+ # < 1X@XXXXXXXXXXXXXXXXXXXXXXXXXXXXXXXXXXXXXXXXXXXXXXXXXXXq $ : # ",
"> = e.0XXXXXXXXXXXXXXXXXXXXXXXXXXXXXXXXXXXXXXXXXXXXXXXXXoXR.V j 9 8X.XXXXXXXXXXXXXXXXXXXXXXXXXXXXXXXXXXXXXXXXXXXXXXXXXoX;.h K K ",
"> = S.9X}.XXXXXXXXXXXXXXXXXXXXXXXXXXXXXXXXXXXXXXXXXXXXXX.X/.H h 0 qXXXXXXXXXXXXXXXXXXXXXXXXXXXXXXXXXXXXXXXXXXXXXXXXXXXOXp.s P S ",
"> = F.4X}.XXXXXXXXXXXXXXXXXXXXXXXXXXXXXXXXXXXXXXXXXXXXXX.X].o.g i 5XXXXXXXXXXXXXXXXXXXXXXXXXXXXXXXXXXXXXXXXXXXXXXXXXXXoXB.d L L ",
">   K.*X}.XXXXXXXXXXXXXXXXXXXXXXXXXXXXXXXXXXXXXXXXXXXXXXXX X@.f a 5X}.XXXXXXXXXXXXXXXXXXXXXXXXXXXXXXXXXXXXXXXXXXXXXXXXoXY.N L L ",
">   wX&X}.XXXXXXXXXXXXXXXXXXXXXXXXXXXXXXXXXXXXXXXXXXXXXXXXoX-.f j.4X}.XXXXXXXXXXXXXXXXXXXXXXXXXXXXXXXXXXXXXXXXXXXXXXXXoXW.N P S ",
"> = rX&X}.XXXXXXXXXXXXXXXXXXXXXXXXXXXXXXXXXXXXXXXXXXXXXX}.OXi.5 l.*X}.XXXXXXXXXXXXXXXXXXXXXXXXXXXXXXXXXXXXXXXXXXXXXXXXoXW.B K K ",
"> O eX&X}.XXXXXXXXXXXXXXXXXXXXXXXXXXXXXXXXXXXXXXXXXXXXXX}.OXd.o :X&X}.XXXXXXXXXXXXXXXXXXXXXXXXXXXXXXXXXXXXXXXXXXXXXXXX.XW.2 @ # ",
"3 + eX&X}.XXXXXXXXXXXXXXXXXXXXXXXXXXXXXXXXXXXXXXXXXXXXXXXXOXU.+ ;X#XXXXXXXXXXXXXXXXXXXXXXXXXXXXXXXXXXXXXXXXXXXXXXXXXXXoXW.2 # # ",
"K s G.*X}.XXXXXXXXXXXXXXXXXXXXXXXXXXXXXXXXXXXXXXXXXXXXXXXXoX^.C $X.XXXXXXXXXXXXXXXXXXXXXXXXXXXXXXXXXXXXXXXXXXXXXXXXXXXoXY.V K K ",
"P x F.4X}.XXXXXXXXXXXXXXXXXXXXXXXXXXXXXXXXXXXXXXXXXXXXXXXX.X[.+.|..XXXXXXXXXXXXXXXXXXXXXXXXXXXXXXXXXXXXXXXXXXXXXXXXXXXoXB.d P L ",
"L z w.9X}.XXXXXXXXXXXXXXXXXXXXXXXXXXXXXXXXXXXXXXXXXXXXXXXXXXXXx.|..XXXXXXXXXXXXXXXXXXXXXXXXXXXXXXXXXXXXXXXXXXXXXXXXXXXOXp.h L L ",
"L c 1.0XXXXXXXXXXXXXXXXXXXXXXXXXXXXXXXXXXXXXXXXXXXXXXXXXXXXX.X[.}.XXXXXXXXXXXXXXXXXXXXXXXXXXXXXXXXXXXXXXXXXXXXXXXXXXXXoX;.v P L ",
"| ] 3.tX.XXXXXXXXXXXXXXXXXXXXXXXXXXXXXXXXXXXXXXXXXXXXXXXXXXXXX.XXXXXXXXXXXXXXXXXXXXXXXXXXXXXXXXXXXXXXXXXXXXXXXXXXXXXXX X>.` | ] ",
"/ } R <X&XXXXXXXXXXXXXXXXXXXXXXXXXXXXXXXXXXXXXXXXXXXXXXXXXXXXXXXXXXXXXXXXXXXXXXXXXXXXXXXXXXXXXXXXXXXXXXXXXXXXXXXXXXX.X/.~ ' } } ",
"- 1 O k.5X}.XXXXXXXXXXXXXXXXXXXXXXXXXXXXXXXXXXXXXXXXXXXXXXXXXXXXXXXXXXXXXXXXXXXXXXXXXXXXXXXXXXXXXXXXXXXXXXXXXXXXXXXXoXf.+ 1 1 : ",
"% < $ u 0XXXXXXXXXXXXXXXXXXXXXXXXXXXXXXXXXXXXXXXXXXXXXXXXXXXXXXXXXXXXXXXXXXXXXXXXXXXXXXXXXXXXXXXXXXXXXXXXXXXXXXXXXXXoXr $ : # # ",
"% 1 ^ R ,X&XXXXXXXXXXXXXXXXXXXXXXXXXXXXXXXXXXXXXXXXXXXXXXXXXXXXXXXXXXXXXXXXXXXXXXXXXXXXXXXXXXXXXXXXXXXXXXXXXXXXXXX.X/.C n K K K ",
"% 1 } ) q.9X}.XXXXXXXXXXXXXXXXXXXXXXXXXXXXXXXXXXXXXXXXXXXXXXXXXXXXXXXXXXXXXXXXXXXXXXXXXXXXXXXXXXXXXXXXXXXXXXXXXXXXOXc.s F S S S ",
"% 1 / ] G 8X@XXXXXXXXXXXXXXXXXXXXXXXXXXXXXXXXXXXXXXXXXXXXXXXXXXXXXXXXXXXXXXXXXXXXXXXXXXXXXXXXXXXXXXXXXXXXXXXXXXXXX{.X.b L L L L ",
"% 1 / | x n.5X}.XXXXXXXXXXXXXXXXXXXXXXXXXXXXXXXXXXXXXXXXXXXXXXXXXXXXXXXXXXXXXXXXXXXXXXXXXXXXXXXXXXXXXXXXXXXXXXXXOXN.d P K L L L ",
"% 1 } ..]  .2X#XXXXXXXXXXXXXXXXXXXXXXXXXXXXXXXXXXXXXXXXXXXXXXXXXXXXXXXXXXXXXXXXXXXXXXXXXXXXXXXXXXXXXXXXXXXXXXX.X].,.] | P S L L ",
"% 1 ^ } / W 9.9X}.XXXXXXXXXXXXXXXXXXXXXXXXXXXXXXXXXXXXXXXXXXXXXXXXXXXXXXXXXXXXXXXXXXXXXXXXXXXXXXXXXXXXXXXXXXXXoXx.U } Q K Z K K ",
"% % & ; & 3 + z.*X}.XXXXXXXXXXXXXXXXXXXXXXXXXXXXXXXXXXXXXXXXXXXXXXXXXXXXXXXXXXXXXXXXXXXXXXXXXXXXXXXXXXXXXXXXoXT.2 ; # # # # # # ",
"- - & & & # @ X 3X#X}.XXXXXXXXXXXXXXXXXXXXXXXXXXXXXXXXXXXXXXXXXXXXXXXXXXXXXXXXXXXXXXXXXXXXXXXXXXXXXXXXXXXX.X{.q $ < # : # & & & ",
"K K K K K K L l q 6X@XXXXXXXXXXXXXXXXXXXXXXXXXXXXXXXXXXXXXXXXXXXXXXXXXXXXXXXXXXXXXXXXXXXXXXXXXXXXXXXXXXXXXoX;.l : # ^ / K K K K ",
"L L L L L L F K O e 4XXXXXXXXXXXXXXXXXXXXXXXXXXXXXXXXXXXXXXXXXXXXXXXXXXXXXXXXXXXXXXXXXXXXXXXXXXXXXXXXXXXoXi.s K # # } [ P L L L ",
"L L L L L L L K , O b.4XXXXXXXXXXXXXXXXXXXXXXXXXXXXXXXXXXXXXXXXXXXXXXXXXXXXXXXXXXXXXXXXXXXXXXXXXXXXXXXOXp.d P K # # / | L L L L ",
"L L L L L L L K # 1 W 9.*X@X}.XXXXXXXXXXXXXXXXXXXXXXXXXXXXXXXXXXXXXXXXXXXXXXXXXXXXXXXXXXXXXXXXXXXXXXoXa.d L S K # # / ] P L L L ",
"] ] ] ] P S F K # : } { 8.%X#X}.XXXXXXXXXXXXXXXXXXXXXXXXXXXXXXXXXXXXXXXXXXXXXXXXXXXXXXXXXXXXXX}..X Xm.E P S F K # # } ..] ] ] ] ",
"/ / } Q K Z K A # - ^ } W <._.&XXX}.XXXXXXXXXXXXXXXXXXXXXXXXXXXXXXXXXXXXXXXXXXXXXXXXXXXXXXXXXXOX/.=.E } K Z K A # - ^ } / } } } ",
"- - # # # # # # % % - 1 1 * 1 u.=X#XXXXXXXXXXXXXXXXXXXXXXXXXXXXXXXXXXXXXXXXXXXXXXXXXXXXXXXoX.Xd.X * 1 : # # # # % % - 1 : : : : ",
"% % # # # # # # # # # # # : # O 7 g.#X#XXX}.XXXXXXXXXXXXXXXXXXXXXXXXXXXXXXXXXXXXXXXXXXoXoXT.t O % > # # # # # # # # # # # # # # ",
"% - ^ Q K K K K K K K K K K K A $ + 8.Z.@X#XoXXX}.XXXXXXXXXXXXXXXXXXXXXXXXXX}.XX.XOX XE.-.N j A : - ^ Q K K K K K K K K K K K K ",
"% 1 } [ P S L S S S S S S L F K : 1 W ` O.m.^..XOXOXoX.XXXXXXXXXXXXXXX.X.XOXOX.X(.N.@.K v L F K # 1 } [ P S L S S S S S S S S S ",
"% 1 / ] L L L L L L L L L L L Z # 1 / | m v D $.x.V.^.[. XoXoXoXoX.X X{.~.V.x.#.H v v L L L L K # 1 / ] L K L L L L L L L L L L ",
"% 1 } ] P L P L L L L L L L L K # 1 } ] P L P m b m D J O.#.=.-.w w 2.<.G n b b M P P L L L L K # 1 } ] P L P L L L L L L L L L ",
"% 1 } [ ' ] ] ] ] ' ] ' P L L K # 1 / [ ' ' | | | | ] _ m v b h $ O W [ ] | | | | ' ] ' P L L K # 1 / [ ' ] ] ] ] ' ] ' P L L L ",
"% 1 } ..| | | | | | | | P L L K # 1 / ..| | | | | | | | P L S K : 1 / ..| | | | | | | | P L L K # 1 / ..| | | | | | | | P L L L "
};
