/* XPM */
static char *f373f5db722b4573dea96ddfe5d05eb2drxtM2lhBLwcc7wH[] = {
/* columns rows colors chars-per-pixel */
"64 64 215 2 ",
"   c #12221F",
".  c #1E371F",
"X  c #2A3F1B",
"o  c #032425",
"O  c #0A2527",
"+  c #032F27",
"@  c #0C2E27",
"#  c #012329",
"$  c #012F29",
"%  c #0D2E28",
"&  c #0A2628",
"*  c #112E27",
"=  c #112D28",
"-  c #0E3026",
";  c #023129",
":  c #0F3128",
">  c #123126",
",  c #113228",
"<  c #183721",
"1  c #223C22",
"2  c #33471D",
"3  c #1C4126",
"4  c #2B4E29",
"5  c #274023",
"6  c #3E5621",
"7  c #344C28",
"8  c #515615",
"9  c #4C5617",
"0  c #506D1B",
"q  c #6F790F",
"w  c #677418",
"e  c #717A13",
"r  c #415725",
"t  c #486023",
"y  c #6E7F33",
"u  c #8A1C0F",
"i  c #9D1D0A",
"p  c #931B13",
"a  c #9F1E12",
"s  c #971612",
"d  c #AA160D",
"f  c #A51C0D",
"g  c #A6140F",
"h  c #A41511",
"j  c #AA1611",
"k  c #A51B12",
"l  c #AC1B10",
"z  c #B01F11",
"x  c #9B240E",
"c  c #98390D",
"v  c #922213",
"b  c #9B2413",
"n  c #A5210F",
"m  c #AE220F",
"M  c #AC2B0F",
"N  c #B1220F",
"B  c #B22C0C",
"V  c #A5350D",
"C  c #A22312",
"Z  c #AC2210",
"A  c #B12410",
"S  c #AA3A12",
"D  c #CF251C",
"F  c #C3271F",
"G  c #D12E17",
"H  c #D3241D",
"J  c #DD251C",
"K  c #DC2E1B",
"L  c #DA2D16",
"P  c #D1301C",
"I  c #DE311C",
"U  c #DB3A17",
"Y  c #CE3616",
"T  c #EB2116",
"R  c #EB231C",
"E  c #E52D1A",
"W  c #EB2E1A",
"Q  c #E42218",
"!  c #F12E1B",
"~  c #F1271B",
"^  c #E2311C",
"/  c #ED301B",
"(  c #EE3013",
")  c #F2311B",
"_  c #F13716",
"`  c #9A440A",
"'  c #A44E09",
"]  c #B6450D",
"[  c #A45E08",
"{  c #A75809",
"}  c #BD4C14",
"|  c #B95B10",
" . c #BA5A0A",
".. c #AA6B07",
"X. c #AC6708",
"o. c #B16109",
"O. c #BD670C",
"+. c #AF7C06",
"@. c #B57E05",
"#. c #C65111",
"$. c #D95415",
"%. c #C45A0B",
"&. c #E94418",
"*. c #E95915",
"=. c #C8630C",
"-. c #C37B09",
";. c #C46116",
":. c #D46A11",
">. c #C77510",
",. c #EE6515",
"<. c #E45F22",
"1. c #CE7E20",
"2. c #E76720",
"3. c #F07F20",
"4. c #7B8511",
"5. c #7F9414",
"6. c #878A09",
"7. c #8E930B",
"8. c #939609",
"9. c #969913",
"0. c #B68C03",
"q. c #BA8A05",
"w. c #BC9400",
"e. c #BE9A00",
"r. c #A7A508",
"t. c #B6AD02",
"y. c #A7B10E",
"u. c #B1B41E",
"i. c #858A22",
"p. c #BFB925",
"a. c #BAB72E",
"s. c #BAB525",
"d. c #BFBD34",
"f. c #A9AC33",
"g. c #C38407",
"h. c #C88409",
"j. c #D08408",
"k. c #C79B06",
"l. c #CE8317",
"z. c #D89B10",
"x. c #F2880E",
"c. c #F68010",
"v. c #F49B0B",
"b. c #C4A102",
"n. c #C9A603",
"m. c #DAA20C",
"M. c #CCB501",
"N. c #C8BC07",
"B. c #D6BE01",
"V. c #DDB904",
"C. c #CAB91F",
"Z. c #F4BF18",
"A. c #E6A40E",
"S. c #F19D2E",
"D. c #F38B30",
"F. c #CBB526",
"G. c #CDB429",
"H. c #D5B72E",
"J. c #DAB82E",
"K. c #D4B82E",
"L. c #DCBE32",
"P. c #D5B930",
"I. c #E2AC3A",
"U. c #E6BF34",
"Y. c #D5C401",
"T. c #DAC201",
"R. c #D2C901",
"E. c #DDCB01",
"W. c #DED200",
"Q. c #CCC608",
"!. c #E7C906",
"~. c #E3D300",
"^. c #E7DB00",
"/. c #EADD00",
"(. c #EAD703",
"). c #E1DD14",
"_. c #F8D91B",
"`. c #FCC606",
"'. c #ECE301",
"]. c #EFEA00",
"[. c #F3E201",
"{. c #FBE501",
"}. c #F4EE00",
"|. c #FDEF00",
" X c #F8EB0B",
".X c #F6F200",
"XX c #FFF200",
"oX c #FFFE00",
"OX c #FFFA06",
"+X c #FFFE06",
"@X c #FFFB01",
"#X c #FFFC0C",
"$X c #FFFD14",
"%X c #FFF71B",
"&X c #FFFD1B",
"*X c #FCF615",
"=X c #CACE26",
"-X c #CECB38",
";X c #DFC132",
":X c #F2D721",
">X c #E4C633",
",X c #F3CE34",
"<X c #F4DA38",
"1X c #FFFF24",
"2X c #FFFE2D",
"3X c #FBE330",
"4X c #FFFE35",
"5X c #FFF93D",
"6X c #FEF732",
"7X c #F6E621",
"8X c #ECCB42",
"9X c #EDDE45",
"0X c #E4E141",
"qX c #F7E943",
"wX c #FEF541",
/* pixels */
"$ $ $ $ $ $ $ $ $ $ $ $ $ $ $ $ $ $ $ $ $ $ $ $ $ $ $ $ $ $ $ $ ; ; ; ; $ $ $ $ $ $ $ $ $ $ $ $ $ $ $ $ $ $ $ $ $ $ $ $ $ $ $ $ ",
"* * * * * * * * * * + + > , * * * * * * * * * * + + * , * * * * * * * * * * * * + + * , * * * * * * * * * * * * + + * , * * * * ",
"C C C C C C C C C b @ % P K C C C C C C C C C b @ % P I C C C C C C C C C C C b @ % P I C C C C C C C C C C C b @ % P I C C C C ",
"Z Z Z Z Z Z Z Z N C @ % ^ ! A m Z Z Z Z Z Z N C - , E ~ j g l f h h j l A Z N C @ % ^ ! A Z Z Z Z Z Z Z Z Z N C @ % ^ ! A Z Z Z ",
"Z Z Z Z Z Z Z Z Z C @ % I W Z Z Z Z Z Z Z Z Z a # o U *.>.z.o.k.k.@.{ V x h l C - , I / Z Z Z Z Z Z Z Z Z Z Z C @ % I / Z Z Z Z ",
"Z Z Z Z Z Z Z Z Z C @ % I W A Z A A A A l h d V w u._.*X$X+X@.<X+X@X.X'.Y.q.' v # + K / A Z Z Z Z Z Z Z Z Z Z C @ % I W A Z Z Z ",
"W W W W A m Z Z N C @ % E ) / ) W R R E ] =.m.7X&X#XOXXX|..X-.,XOX|.XX@X@XoX}.Y.q 2 U R W ) / W W W W W A m N C @ % ^ ) W W W W ",
"I I ^ K C b C C C b % , P ^ K H &.,.c.`.XXoXoXOX|.|.XXXXXX@Xg.,XOXXXXXXXXXXXXX@X@XXX{.x.^ D K ^ ^ ^ ^ K C b C b @ * P ^ I ^ ^ ^ ",
"* * % % @ @ @ @ @ @ $ ; * # 1 r.{.@XoX@XXX|.|.XXXXXXXXXXXX@X6.-XOXXXXXXXXXXXXXXXXXXX@XoX[.9.5 # & , , % @ @ @ @ $ $ * , - - - - ",
"$ $ % % % % % % % % , & % 5.'.oX@XXX|.XXXXXXXXXXXXXXXXXXXX@X6.-X+XXXXXXXXXXXXXXXXXXXXX|.@XoX'.y.0 $ & , % % - % % % @ @ @ @ @ @ ",
"$ * P K C C C C C C s S !.oX@X|.XXXXXXXXXXXXXXXXXXXXXXXXXX@X0.>X#XXXXXXXXXXXXXXXXXXXXXXXXX|.@XoXoXQ.$.J C C C C C C C C C C C C ",
"$ > ^ ! A m Z m Z h %.{.oX|.XXXXXXXXXXXXXXXXXXXXXXXXXXXXXXoXw.>X#XXXXXXXXXXXXXXXXXXXXXXXXXXXXX|.|.@X@Xv.z l m m m m m m m m m m ",
"$ > I W Z Z Z Z f j.@X@X|.XXXXXXXXXXXXXXXXXXXXXXXXXXXXXXXXoXw.>X#XXXXXXXXXXXXXXXXXXXXXXXXXXXXXXXXXXXXXoXV.V l Z Z Z Z Z Z Z Z Z ",
"$ > I W A Z A d l.&XXXXXXXXXXXXXXXXXXXXXXXXXXXXXXXXXXXXXXXoXe.;X#XXXXXXXXXXXXXXXXXXXXXXXXXXXXXXXXXXXXX|.oXY.x A Z Z Z Z Z Z Z Z ",
"$ > ^ ! W / R ,.2XXXXXXXXXXXXXXXXXXXXXXXXXXXXXXXXXXXXXXX|.oXk.L.#XXXXXXXXXXXXXXXXXXXXXXXXXXXXXXXXXXXXXXX|.oXn.H ) W W W A m Z Z ",
"$ > P ^ I K U 3X#XXXXXXXXXXXXXXXXXXXXXXXXXXXXXXXXXXXXXXXXXoXb.L.#XXXXXXXXXXXXXXXXXXXXXXXXXXXXXXXXXXXXXXXXXXX.X-.H ^ ^ I C b C C ",
"$ $ % * , o f.1X|.XXXXXXXXXXXXXXXXXXXXXXXXXXXXXXXXXXXXXXXXoXr.d.#XXXXXXXXXXXXXXXXXXXXXXXXXXXXXXXXXXXXXXXXXXX@X/.2 & , % @ @ @ @ ",
"* * % - # t 4XXXXXXXXXXXXXXXXXXXXXXXXXXXXXXXXXXXXXXXXXXXXXoXt.d.#XXXXXXXXXXXXXXXXXXXXXXXXXXXXXXXXXXXXXXXXXXXXX@Xr.o , , % % % % ",
"C C C C i >X$X|.XXXXXXXXXXXXXXXXXXXXXXXXXXXXXXXXXXXXXXXXXXoXn.P.$XXXXXXXXXXXXXXXXXXXXXXXXXXXXXXXXXXXXXXXXXXXXXXX|.8 F ^ C C C C ",
"Z Z Z d ;.4X|.XXXXXXXXXXXXXXXXXXXXXXXXXXXXXXXXXXXXXXXXXXXXoXM.H.$XXXXXXXXXXXXXXXXXXXXXXXXXXXXXXXXXXXXXXXXXXXXXXX@Xt.D ) A Z Z Z ",
"Z Z Z f U.&X|.XXXXXXXXXXXXXXXXXXXXXXXXXXXXXXXXXXXXXXXXXXXXoXM.H.$XXXXXXXXXXXXXXXXXXXXXXXXXXXXXXXXXXXXXXXXXXXXXXXXX].#.W Z Z Z Z ",
"Z A l } 5XXXXXXXXXXXXXXXXXXXXXXXXXXXXXXXXXXXXXXXXXXXXXXXXX@XB.K.$XXXXXXXXXXXXXXXXXXXXXXXXXXXXXXXXXXXXXXXXXXXXXXXXX@Xk.J A Z Z Z ",
"W / T S.1X|.XXXXXXXXXXXXXXXXXXXXXXXXXXXXXXXXXXXXXXXXXXXXXX@XT.J.$XXXXXXXXXXXXXXXXXXXXXXXXXXXXXXXXXXXXXXXXXXXXXXXXX@XW.Y ! / W W ",
"I ^ U <X#XXXXXXXXXXXXXXXXXXXXXXXXXXXXXXXXXXXXXXXXXXXXXXXXX@XT.J.$XXXXXXXXXXXXXXXXXXXXXXXXXXXXXXXXXXXXXXXXXXXXXXXXXXX.XO.J ^ I ^ ",
"> O r 5XXXXXXXXXXXXXXXXXXXXXXXXXXXXXXXXXXXXXXXXXXXXXXXXXXX@XR.a.$XXXXXXXXXXXXXXXXXXXXXXXXXXXXXXXXXXXXXXXXXXXXXXXXXXX@X8.o , - - ",
"; o y 4X|.XXXXXXXXXXXXXXXXXXXXXXXXXXXXXXXXXXXXXXXXXXXXXXXX@XR.a.$XXXXXXXXXXXXXXXXXXXXXXXXXXXXXXXXXXXXXXXXXXXXXXXXXXX@XN.@ @ @ @ ",
";   I.&X|.XXXXXXXXXXXXXXXXXXXXXXXXXXXXXXXXXXXXXXXXXXXXXXXX@XE.G.$XXXXXXXXXXXXXXXXXXXXXXXXXXXXXXXXXXXXXXXXXXXXXXXXXXX@X^.c k C C ",
"; * 8X$XXXXXXXXXXXXXXXXXXXXXXXXXXXXXXXXXXXXXXXXXXXXXXXXXXX@X~.G.&XXXXXXXXXXXXXXXXXXXXXXXXXXXXXXXXXXXXXXXXXXXXXXXXXXXXX}.' l m m ",
"$ < 9XOXXXXXXXXXXXXXXXXXXXXXXXXXXXXXXXXXXXXXXXXXXXXXXXXXXX@X~.G.%XXXXXXXXXXXXXXXXXXXXXXXXXXXXXXXXXXXXXXXXXXXXXXXXXXXXX@XX.h Z Z ",
"$ 3 qX@XXXXXXXXXXXXXXXXXXXXXXXXXXXXXXXXXXXXXXXXXXXXXXXXXXX@X~.F.%XXXXXXXXXXXXXXXXXXXXXXXXXXXXXXXXXXXXXXXXXXXXXXXXXXXXX@X+.h Z Z ",
"$ 4 wXXXXXXXXXXXXXXXXXXXXXXXXXXXXXXXXXXXXXXXXXXXXXXXXXXXXX@X^.F.%XXXXXXXXXXXXXXXXXXXXXXXXXXXXXXXXXXXXXXXXXXXXXXXXXXXXXoX0.h A Z ",
"o 4 wXXXXXXXXXXXXXXXXXXXXXXXXXXXXXXXXXXXXXXXXXXXXXXXXXXXXX@X^.F.%XXXXXXXXXXXXXXXXXXXXXXXXXXXXXXXXXXXXXXXXXXXXXXXXXXXXXoX0.s C C ",
"# 4 wXXXXXXXXXXXXXXXXXXXXXXXXXXXXXXXXXXXXXXXXXXXXXXXXXXXXX@X/.p.%XXXXXXXXXXXXXXXXXXXXXXXXXXXXXXXXXXXXXXXXXXXXXXXXXXXXXoX7.# - % ",
"O 7 wXXXXXXXXXXXXXXXXXXXXXXXXXXXXXXXXXXXXXXXXXXXXXXXXXXXXX@X'.p.%XXXXXXXXXXXXXXXXXXXXXXXXXXXXXXXXXXXXXXXXXXXXXXXXXXXXXoX7.# , % ",
"a S qXXXXXXXXXXXXXXXXXXXXXXXXXXXXXXXXXXXXXXXXXXXXXXXXXXXXX@X[.C.%XXXXXXXXXXXXXXXXXXXXXXXXXXXXXXXXXXXXXXXXXXXXXXXXXXXXX@X+.s C C ",
"l B qXOXXXXXXXXXXXXXXXXXXXXXXXXXXXXXXXXXXXXXXXXXXXXXXXXXXX@X'.N.OXXXXXXXXXXXXXXXXXXXXXXXXXXXXXXXXXXXXXXXXXXXXXXXXXXXXX@X..h A Z ",
"Z f 8X#XXXXXXXXXXXXXXXXXXXXXXXXXXXXXXXXXXXXXXXXXXXXXXXXXXX@X'.M.@XXXXXXXXXXXXXXXXXXXXXXXXXXXXXXXXXXXXXXXXXXXXXXXXXXXXX.X' h Z C ",
"A d I.&XXXXXXXXXXXXXXXXXXXXXXXXXXXXXXXXXXXXXXXXXXXXXXXXXXXXX|.^.@XXXXXXXXXXXXXXXXXXXXXXXXXXXXXXXXXXXXXXXXXXXXXXXXXXX@X'.c l Z Z ",
"/ T D.2X|.XXXXXXXXXXXXXXXXXXXXXXXXXXXXXXXXXXXXXXXXXXXXXXXXXXXX@XXXXXXXXXXXXXXXXXXXXXXXXXXXXXXXXXXXXXXXXXXXXXXXXXXXXX@XE.G ! W W ",
"^ J <.5XXXXXXXXXXXXXXXXXXXXXXXXXXXXXXXXXXXXXXXXXXXXXXXXXXXXXXXXXXXXXXXXXXXXXXXXXXXXXXXXXXXXXXXXXXXXXXXXXXXXXXXXXXXXXoXn.D ^ ^ ^ ",
"> * < 0XOXXXXXXXXXXXXXXXXXXXXXXXXXXXXXXXXXXXXXXXXXXXXXXXXXXXXXXXXXXXXXXXXXXXXXXXXXXXXXXXXXXXXXXXXXXXXXXXXXXXXXXXXXXX@Xw # , - - ",
"$ ; o f.&X|.XXXXXXXXXXXXXXXXXXXXXXXXXXXXXXXXXXXXXXXXXXXXXXXXXXXXXXXXXXXXXXXXXXXXXXXXXXXXXXXXXXXXXXXXXXXXXXXXXXXXXX@X/.X + % @ @ ",
"$ > D 2.4XXXXXXXXXXXXXXXXXXXXXXXXXXXXXXXXXXXXXXXXXXXXXXXXXXXXXXXXXXXXXXXXXXXXXXXXXXXXXXXXXXXXXXXXXXXXXXXXXXXXXXXXXoXn.p C C C C ",
"$ * ^ ( <X#XXXXXXXXXXXXXXXXXXXXXXXXXXXXXXXXXXXXXXXXXXXXXXXXXXXXXXXXXXXXXXXXXXXXXXXXXXXXXXXXXXXXXXXXXXXXXXXXXXXXXXX.X[ j m m m m ",
"$ > ^ Q 1.2X|.XXXXXXXXXXXXXXXXXXXXXXXXXXXXXXXXXXXXXXXXXXXXXXXXXXXXXXXXXXXXXXXXXXXXXXXXXXXXXXXXXXXXXXXXXXXXXXXXXX@XY.x m Z Z Z Z ",
"$ > I W B <X#XXXXXXXXXXXXXXXXXXXXXXXXXXXXXXXXXXXXXXXXXXXXXXXXXXXXXXXXXXXXXXXXXXXXXXXXXXXXXXXXXXXXXXXXXXXXXXXXXXX.X..j A Z Z Z Z ",
"$ > ^ ) T 3.2X|.XXXXXXXXXXXXXXXXXXXXXXXXXXXXXXXXXXXXXXXXXXXXXXXXXXXXXXXXXXXXXXXXXXXXXXXXXXXXXXXXXXXXXXXXXXXXXX@XT.G ! E A m Z Z ",
"$ , P ^ I L ,X$X|.XXXXXXXXXXXXXXXXXXXXXXXXXXXXXXXXXXXXXXXXXXXXXXXXXXXXXXXXXXXXXXXXXXXXXXXXXXXXXXXXXXXXXXXXXXXX}.| J ^ K C b C C ",
"$ $ % * , & 6 6XXXXXXXXXXXXXXXXXXXXXXXXXXXXXXXXXXXXXXXXXXXXXXXXXXXXXXXXXXXXXXXXXXXXXXXXXXXXXXXXXXXXXXXXXXX|.oX8.O > % % @ @ @ @ ",
"* * % % % : o i.1X|.XXXXXXXXXXXXXXXXXXXXXXXXXXXXXXXXXXXXXXXXXXXXXXXXXXXXXXXXXXXXXXXXXXXXXXXXXXXXXXXXXXXX|.@XR.. $ ; * - % % % % ",
"C C C C C C C u s.&X|.XXXXXXXXXXXXXXXXXXXXXXXXXXXXXXXXXXXXXXXXXXXXXXXXXXXXXXXXXXXXXXXXXXXXXXXXXXXXXXXXXX@X'.` p - % P I C C C C ",
"Z Z Z Z Z Z N b < =X$X|.XXXXXXXXXXXXXXXXXXXXXXXXXXXXXXXXXXXXXXXXXXXXXXXXXXXXXXXXXXXXXXXXXXXXXXXXXXXXXX@X}.[ j C @ % ^ ) A Z Z Z ",
"Z Z Z Z Z Z Z C $ < :X$X|.XXXXXXXXXXXXXXXXXXXXXXXXXXXXXXXXXXXXXXXXXXXXXXXXXXXXXXXXXXXXXXXXXXXXXXXXXX@X.X..h N b @ % I / Z Z Z Z ",
"Z Z Z Z Z Z Z C - & U _.$X|.XXXXXXXXXXXXXXXXXXXXXXXXXXXXXXXXXXXXXXXXXXXXXXXXXXXXXXXXXXXXXXXXXXXX|.@X}...h Z Z C @ % I W A Z Z Z ",
"W W W W A m N C @ , E _ Z.$XXXXXXXXXXXXXXXXXXXXXXXXXXXXXXXXXXXXXXXXXXXXXXXXXXXXXXXXXXXXXXXXXXX|.@X'.=.J A m N C @ % ^ ) W W W W ",
"I I ^ K C b C b @ * P E L z.$XOX|.XXXXXXXXXXXXXXXXXXXXXXXXXXXXXXXXXXXXXXXXXXXXXXXXXXXXXXXXXXXXoXT.} J I C b C b @ * P ^ I ^ ^ ^ ",
"* * % % @ @ @ @ $ $ * , , O 0 ).#XXX|.XXXXXXXXXXXXXXXXXXXXXXXXXXXXXXXXXXXXXXXXXXXXXXXX|.XX@X|.7.< = , % @ @ @ @ $ $ * , - - - - ",
"$ $ % % % % % % % % @ @ @ - # 1 9. X+X@X|.XXXXXXXXXXXXXXXXXXXXXXXXXXXXXXXXXXXXXXXX|.XX@X@XN.9 o $ ; % % % % % % % % @ @ @ @ @ @ ",
"$ * P K C C C C C C C C C C C v # 2 A. X+X@XXX|.XXXXXXXXXXXXXXXXXXXXXXXXXXXX|.XX@XoX.XB.o.p p b @ * P K C C C C C C C C C C C C ",
"$ > ^ ! A m Z m m m m m m Z N C - & J &.h.!.XXoXoX@XXXXXXX|.XX|.XXXXXXXX@X@XoX@X^.n.{ f h Z N C @ , ^ ! A m Z m m m m m m m m m ",
"$ > I W Z Z Z Z Z Z Z Z Z Z Z b @ , ^ W j n ] h.V.(.}.@XoXoXoXoXoX@X@X}./.T.k.o.V h h Z Z Z Z C @ , I W Z Z Z Z Z Z Z Z Z Z Z Z ",
"$ > ^ W A Z A Z Z Z Z Z Z Z Z C @ , ^ / A Z l j l M ]  .O.-.g.g.4.e :.$.S n h j z A A Z Z Z Z C @ , ^ W A Z A Z Z Z Z Z Z Z Z Z ",
"$ > ^ ! E W W W W E W E A Z Z C @ , I ! E / / / / W E Q j h j s # # J ~ E W / / / E W E A Z Z C @ , I ! E W W W W E W E A Z Z Z ",
"$ > ^ ) / / / / / / / / A Z Z C @ , I ) / / / / / / ) / A Z m b - > I ) / / / / / / / / A Z Z C @ , I ) / / / / / / / / A Z Z Z "
};
