/* XPM */
static char *_1708600641[] = {
/* columns rows colors chars-per-pixel */
"64 64 111 2 ",
"   c None",
".  c #DF7115",
"X  c #DB741E",
"o  c #E36E0E",
"O  c #E47315",
"+  c #E4751A",
"@  c #E5781E",
"#  c #DD7722",
"$  c #DC7825",
"%  c #DB7A2A",
"&  c #D77D32",
"*  c #DB7E32",
"=  c #E17721",
"-  c #E57B24",
";  c #E87E26",
":  c #E37E29",
">  c #E87F28",
",  c #D78036",
"<  c #DC853D",
"1  c #E6812C",
"2  c #E8822C",
"3  c #E58433",
"4  c #E98633",
"5  c #EB8836",
"6  c #E2863A",
"7  c #E3893E",
"8  c #EB8B3B",
"9  c #BE9A7D",
"0  c #CF8446",
"q  c #CF8649",
"w  c #D18343",
"e  c #DA8742",
"r  c #DF8A43",
"t  c #D28748",
"y  c #D5894A",
"u  c #DD8E4D",
"i  c #CD8A53",
"p  c #CA8E5D",
"a  c #D38C52",
"s  c #DF9150",
"d  c #DF975B",
"f  c #DF985D",
"g  c #E18B44",
"h  c #EB8E42",
"j  c #E18E49",
"k  c #EC9145",
"l  c #E0904C",
"z  c #EE954B",
"x  c #EF984F",
"c  c #E09353",
"v  c #EA9752",
"b  c #EE9952",
"n  c #E0995E",
"m  c #EB9D5B",
"M  c #F09B55",
"N  c #F19E59",
"B  c #F1A05D",
"V  c #CB9467",
"C  c #C49269",
"Z  c #D29562",
"A  c #DC9B66",
"S  c #D29A6C",
"D  c #DF9F69",
"F  c #C39672",
"G  c #C19876",
"H  c #C89A75",
"J  c #C69E7D",
"K  c #E09C64",
"L  c #DFA26F",
"P  c #CBA17F",
"I  c #DFA575",
"U  c #DFA77A",
"Y  c #DFA97B",
"T  c #E6A167",
"R  c #EDA263",
"E  c #E1A26E",
"W  c #ECA66B",
"Q  c #EDA86D",
"!  c #F3A565",
"~  c #F3A768",
"^  c #F4A96C",
"/  c #EBA972",
"(  c #EFAE79",
")  c #F5AE73",
"_  c #F5B177",
"`  c #F6B37C",
"'  c #BD9E85",
"]  c #BCA18B",
"[  c #BBA593",
"{  c #BBA897",
"}  c #BBAA9B",
"|  c #B7AEA7",
" . c #BAAEA4",
".. c #B7AFA9",
"X. c #B8AFA8",
"o. c #B7B2AD",
"O. c #B8B1AB",
"+. c #C19F82",
"@. c #C1A084",
"#. c #C8A589",
"$. c #C3A993",
"%. c #E6AE80",
"&. c #EBB183",
"*. c #F7B781",
"=. c #F8B782",
"-. c #F7B884",
";. c #F8B985",
":. c #F9BE8D",
">. c #FABF90",
",. c #FAC08F",
"<. c #FAC090",
/* pixels */
"                                                                                                                                ",
"                                                                                                                                ",
"                                                              b m x h 8 4 3 3 4 5 8 z m                                         ",
"                                                      v z 8 5 2 - > 1 4 4 4 5 4 2 ; - = 8 R                                     ",
"                                                z h 5 = @ ; 4 8 z m ~ ) ` -.=.` ~ b 5 @ 1 h z                                   ",
"                                            z 8 4 = = 2 8 M ! _ =.;.:.:.:.<.,.:.=.) k 2 > 4 7                                   ",
"                                      ! h 3 ; - > 8 x ! _ =.:.:.<.<.,.,.,.,.,.,.,.` x 1 > 1 7                                   ",
"                                Q m 8 @ = - 4 k N ) -.:.:.>.:.:.,.,.,.,.,.,.,.,.<.` b 4 1 % 7                                   ",
"                            v k 4 1 - 1 8 x ! _ -.:.<.<.,.,.,.,.,.<.<.<.,.,.,.,.<.` b 2 : : 6                                   ",
"                      m 8 1 > - - 4 k ! ) ` ;.:.,.,.,.,.,.,.,.,.,.,.<.,.,.,.,.,.<.` x 4 1 : <                                   ",
"                / v 4 - - 1 5 k B ^ ` ;.:.,.,.,.,.,.,.,.<.<.,.,.,.,.,.,.,.,.,.:.:._ x 1 : : 6                                   ",
"              v 8 1 @ > k b ~ ` -.:.,.,.:.,.,.,.,.,.<.<.<.<.,.,.,.<.<.<.,.,.,.,.:._ z 2 : : 6                                   ",
"          z k 1 + 2 8 M ^ =.:.:.,.,.,.,.<.<.<.,.,.,.,.<.<.<.,.,.,.<.<.<.,.,.,.,.;._ z 2 - 1 6                                   ",
"          : @ = 2 k ^ ` :.,.,.,.,.,.,.,.,.,.,.,.,.,.,.,.,.,.,.,.,.,.,.,.,.,.,.:.;.) k 1 - , 7                                   ",
"        / > O ; 8 ! *.:.:.<.,.<.<.,.,.,.<.<.<.<.,.,.,.<.<.<.,.,.,.<.<.<.,.,.,.:.=.) k > 1 , 7                                   ",
"        / 2 o ; k ! -.:.,.<.<.<.<.,.,.,.<.<.:.:.-.` ` :.,.,.,.,.,.<.<.<.,.,.,.:.=.^ k ; > 3 g                                   ",
"          : O @ 2 x ^ *.:.:.>.>.>.>.:.;.*.` ^ B M b ! ` ,.,.,.,.,.,.,.,.,.,.,.,.` ^ k ; : < g                                   ",
"          e * # + > h M ^ ` *.-.*.` ) ! M h 2 @ - 4 z _ :.,.,.,.,.<.<.,.,.,.,.;.` ^ 8 ; : 3 g                                   ",
"            S e $ = @ ; 5 h x b b z 8 2 = O O o + 2 z ) ,.,.,.,.,.<.,.,.,.,.,.;.` ! h = : 6 g                                   ",
"              #.V t & $ # = - - = = = # $ $ X O @ 2 z ) :.,.,.,.,.,.,.,.,.,.,.,._ ! 8 = 1 7 j                                   ",
"                  $.@.F p i t w 0 q p C C C 0 $ : 4 z ) ,.<.,.,.,.,.,.,.,.,.,.;._ B 8 = 3 u s                                   ",
"                         .} [ [ [ [  . .{ +.i & = 3 z ) :.,.,.,.,.<.<.<.,.,.,.;.) B 5 ; 3 l d                                   ",
"                                          #.y % : 4 z ) ,.,.,.,.,.,.<.,.,.,.,.;.^ B 5 @ 3 s f                                   ",
"                                            u % : 4 z _ :.,.,.,.,.,.,.,.,.,.,.;.) B 5 @ 6 n A                                   ",
"                                            u - : 4 z ) :.<.<.,.,.<.<.<.,.,.,.;.) N 5 @ 6 f D                                   ",
"                                            j : : 5 z ) ,.<.,.,.,.<.<.<.,.,.<.=.^ M 4 @ 6 f D                                   ",
"                                            r : : 4 x ) :.,.,.,.,.,.,.,.,.,.,.;.^ M 2 @ 6 n K                                   ",
"                                            j : : 4 z ) ,.<.,.,.,.<.<.<.,.,.,.;.^ b 2 @ g A E                                   ",
"                                            j : : 4 z ) :.<.,.,.,.<.<.<.,.,.,.-.^ M 2 @ g D I                                   ",
"                                            j $ : 4 z ) :.<.,.,.,.<.<.<.,.,.,.-.^ b 2 @ 7 I Y                                   ",
"                                            j : : 4 z ) :.<.<.,.,.<.<.<.,.,.,.=.^ x 2 + g D                                     ",
"                                            j : : 4 x ) ,.<.<.<.<.<.,.<.,.,.,.-.! z 2 + g L                                     ",
"                                            r : > 4 z ) :.<.>.>.<.<.<.<.<.<.>.*.! z 2 + 7 E                                     ",
"                                            j : > 4 z ) ,.<.,.,.<.<.<.<.<.,.,.*.! z 2 + g E                                     ",
"                                            j : : 5 z _ :.<.,.,.,.<.,.<.,.<.,.*.! z 2 + g U                                     ",
"                                            j $ : 4 z ) ,.<.>.<.<.<.<.<.>.>.:.*.! k 2 + 7 Y                                     ",
"                                            j : : 4 z ) <.<.<.<.<.<.>.<.<.<.,.*.! z 2 + g Y                                     ",
"                                            j : : 4 z ) :.<.<.,.,.<.<.<.,.,.,.=.! z 2 + 7 U                                     ",
"                                            j : : 4 x ) ,.<.>.>.>.<.<.<.<.>.<.*.! z 1 + g U                                     ",
"                                            j % > 4 z ) :.<.<.<.<.<.<.<.<.<.<.*.! k 2 + g U                                     ",
"                                            j : : 4 z ) :.<.,.,.,.<.<.<.,.,.,.*.! z 2 + g U                                     ",
"                                            r : : 4 x ) :.<.<.<.<.<.,.<.<.<.>.*.! z 2 + 7 U                                     ",
"                                            j : : 4 z ) :.<.>.>.<.<.<.<.<.>.>.*.! z ; + g U                                     ",
"                                            j % > 4 z ) ,.<.<.,.,.<.<.<.<.,.,.=.! z 2 + g Y                                     ",
"                                            j : : 4 x ) :.<.<.<.<.<.,.<.<.<.<.=.! z 2 O 7 /                                     ",
"                                            j : > 4 z ) ,.<.>.>.>.<.<.<.<.>.:.*.! z 2 + e %.                                    ",
"                                            j : > 4 z ) ,.<.<.<.<.<.>.<.<.,.,.*.! z 2 + e /                                     ",
"                                            j # - 4 z _ :.<.<.<.,.<.<.<.<.,.,.*.! x ; O 6 K I                                   ",
"                          ( W B v h h g 6 3 : O @ 2 x ) :.<.<.>.>.<.<.<.>.>.>.*.! x 2 O : : 3 3 5 7 8 k b                       ",
"                W z - @ ; 2 1 4 4 2 : 2 > > ; ; 4 h M _ :.<.<.<.<.<.>.<.<.<.,.;.) N h 2 > 2 2 4 2 2 1 1 ; ; 1 z Q               ",
"            R k 3 - = ; 4 8 h x x M M N N N ! B ! ^ ` :.,.<.,.,.,.<.<.<.,.,.,.:.;.` ` ) ) ^ ^ ~ ! B b z 8 2 - ; 4 z             ",
"          8 4 ; @ 2 z M ~ ) ` ` *.=.=.;.:.:.:.:.:.:.:.:.<.<.>.>.>.<.<.<.<.>.>.<.<.>.<.>.>.>.,.:.:.:.-.` ^ N 8 2 + 3 v           ",
"        Q : O - 8 b ) =.:.:.>.<.<.<.<.<.<.<.<.<.>.>.<.<.<.<.<.<.<.<.<.<.<.<.<.<.<.<.<.<.<.<.<.<.,.<.<.>.:.` ^ h - > 5 h         ",
"      &.T 5 + 4 M ~ :.,.:.>.<.<.<.<.,.,.<.<.<.,.:.>.<.<.<.<.,.<.,.<.<.<.,.,.,.<.<.<.<.<.,.,.<.<.<.<.<.<.:.:._ z 1 > : 6         ",
"      %.T 3 + 2 x ! ;.,.:.:.<.<.<.<.<.<.<.,.<.<.<.<.<.<.<.<.<.<.<.<.,.<.<.<.<.<.<.<.<.<.<.<.,.,.<.<.<.<.:.*.) k > > 1 6         ",
"        E 1 O = 4 x ~ ` ;.:.:.:.:.:.:.>.<.<.<.,.<.<.<.<.<.<.<.<.<.<.<.<.<.<.<.<.<.<.<.<.<.<.<.,.:.:.:.;.` ! b 4 @ % e s         ",
"          e % # + = 5 k M ! ! ^ ^ ^ ) ) ) _ _ _ _ _ _ _ _ _ _ _ _ _ _ _ _ _ _ _ _ _ _ _ _ _ _ _ ) ) ~ m x 5 - @ = < A           ",
"            S y * % X @ = ; 2 2 2 4 5 8 8 8 8 8 8 8 8 8 8 8 8 8 8 8 8 8 8 8 8 8 8 8 8 8 8 8 8 8 4 4 2 - = # $ , y Z             ",
"                J V i w & % $ $ # $ $ $ $ $ $ # - X # # # # # # = # # # # # = # # # # # = # # $ : $ $ % * t p H $.              ",
"                     .} [ ] ' +.9 9 9 G C C C C C C C C C C C C C C C C C C C C C C C C C C C C C G J ] [ }                     ",
"                                    o.o.O.| X.X.X.X.X.X.| | | | | | | | X.X.X.X.....| |  .X.X.X.o.                              ",
"                                                                                                                                ",
"                                                                                                                                ",
"                                                                                                                                "
};
