/* XPM */
static char *_1708600641[] = {
/* columns rows colors chars-per-pixel */
"64 64 119 2 ",
"   c None",
".  c #DE761E",
"X  c #E16F10",
"o  c #E37314",
"O  c #E2761C",
"+  c #E5791E",
"@  c #DE7722",
"#  c #DC7826",
"$  c #D77B2D",
"%  c #DA7B2B",
"&  c #D57D34",
"*  c #D97E32",
"=  c #D47F39",
"-  c #E17721",
";  c #E67C23",
":  c #E87E27",
">  c #E67F29",
",  c #E87F28",
"<  c #DB8135",
"1  c #D3813D",
"2  c #DD8338",
"3  c #E7812C",
"4  c #E8822D",
"5  c #E68432",
"6  c #E98532",
"7  c #EA8836",
"8  c #E28639",
"9  c #E4893C",
"0  c #EB8B3C",
"q  c #BF9877",
"w  c #BE9B7D",
"e  c #CF8446",
"r  c #CF8649",
"t  c #CD884F",
"y  c #D18343",
"u  c #DD8842",
"i  c #D08648",
"p  c #D5894A",
"a  c #DB8C4B",
"s  c #CB8B55",
"d  c #CA8D5A",
"f  c #D68F54",
"g  c #D08F59",
"h  c #CE905E",
"j  c #D69056",
"k  c #DF9252",
"l  c #D2915C",
"z  c #E68C43",
"x  c #EB8E41",
"c  c #EC9145",
"v  c #E5914C",
"b  c #EC944B",
"n  c #EF984F",
"m  c #E59553",
"M  c #EA9752",
"N  c #E79957",
"B  c #EE9A53",
"V  c #E09558",
"C  c #E3995C",
"Z  c #EB9C5B",
"A  c #F09C56",
"S  c #F09E5A",
"D  c #F1A15E",
"F  c #C69164",
"G  c #CB9263",
"H  c #C5946B",
"J  c #C9966C",
"K  c #CE986B",
"L  c #D39663",
"P  c #DC9B65",
"I  c #C39772",
"U  c #C49974",
"Y  c #C39D7C",
"T  c #EC9F60",
"R  c #CDA27E",
"E  c #D3A37A",
"W  c #ECA264",
"Q  c #EDA66A",
"!  c #EEA86F",
"~  c #F2A565",
"^  c #F3A768",
"/  c #F4AA6D",
"(  c #E2A674",
")  c #E4A875",
"_  c #ECAB75",
"`  c #E5AB7A",
"'  c #ECAE7A",
"]  c #F5AE73",
"[  c #EFB079",
"{  c #F5B077",
"}  c #F6B37C",
"|  c #BD9E83",
" . c #BFA086",
".. c #BCA28D",
"X. c #BBA593",
"o. c #BEA896",
"O. c #B7A79A",
"+. c #B7A99D",
"@. c #BAAB9D",
"#. c #B6ADA5",
"$. c #BAADA2",
"%. c #B4AFAB",
"&. c #B5B1AE",
"*. c #C19E82",
"=. c #C2A287",
"-. c #CAA485",
";. c #C3A58C",
":. c #DBAB82",
">. c #C2AA95",
",. c #C1AD9C",
"<. c #E1AE82",
"1. c #F7B681",
"2. c #F8B782",
"3. c #F7B884",
"4. c #F8B986",
"5. c #F9BE8D",
"6. c #F9BF90",
"7. c #FAC08F",
"8. c #FAC090",
/* pixels */
"                                                                                                                                ",
"                                                          b b b b M M b b                                                       ",
"                                              0 N b x 7 6 3 , 4 , , , > 3 4 6 6 0 b A x                                         ",
"                                        M x ; O ; > 4 6 0 0 x x c c c c x x 0 6 4 : ; + + 6 b T                                 ",
"                                  Z x : ; : 4 0 b A ~ ^ { } 2.4.4.4.4.4.4.} } / ~ S n 0 4 : ; ; 0 M Q                           ",
"                            _ b 6 : , 4 x S ^ { } 4.5.4.5.5.8.8.8.8.8.8.7.5.5.4.5.4.2.} / D c 6 : ; 4 c !                       ",
"                        N 0 : ; 4 7 A ] } 4.4.8.8.8.8.8.8.8.8.8.8.8.8.8.8.8.8.8.8.8.7.7.5.4.} ] Z 0 4 : > b W                   ",
"                    Z 0 3 : 3 0 A / } 5.8.5.8.8.8.8.8.7.8.8.8.8.7.8.7.8.8.8.8.8.8.7.7.7.8.8.8.7.2.] S 0 : : 7 Z                 ",
"                  x 3 ; ; 0 D ] 2.4.8.8.8.8.8.8.6.8.8.8.6.6.6.6.8.8.8.8.7.7.7.8.8.8.8.8.8.8.8.8.8.5.2./ A 4 + 5 M               ",
"            ] b 5 ; 3 0 A / 2.7.8.8.8.8.8.8.8.8.8.8.8.8.6.6.5.5.5.4.5.8.5.7.8.8.8.8.8.8.8.8.8.8.8.8.8.5.} D 0 + > 0             ",
"          Q c : ; 7 A / 2.7.7.7.8.8.8.8.8.8.8.8.7.5.5.4.} ] ] ^ ~ ~ ~ / { } 4.5.5.8.7.7.8.8.8.8.7.8.8.8.7.2.~ 0 + o b           ",
"        Z 7 + 4 c ~ } 4.7.8.8.8.8.8.8.8.8.8.8.7.4.} ^ S n 0 6 4 3 4 6 6 0 b B ~ } 4.5.7.8.8.8.8.8.8.8.8.7.5.} Z 6 ; v W         ",
"        ; + 4 n ] 4.6.8.7.8.8.8.8.8.8.8.5.4.} ^ A c 6 > - # % % % % % % # @ - 6 x S ] 1.5.7.8.8.6.8.8.8.6.6.4.] b : 3 z         ",
"      N o ; x / 4.5.8.8.8.7.7.8.8.8.8.4.{ ~ b 4 O O # & y s F U | w q H d e = # O : 0 D } 5.8.8.7.8.8.8.7.7.8.5.D 5 > 5         ",
"      Z O : n } 5.8.8.8.8.8.8.8.8.4.} ~ c 4 O @ & e F q ..@.#.%.%.&.&.#.+.X.q d = @ O 7 Z } 8.8.7.8.8.8.8.8.8.5.~ 0 : 5 '       ",
"      C O ; c / 4.5.8.8.8.8.5.4.} ^ b 4 + @ % e I  .$.                        o.U i @ ; 0 / 4.8.6.8.8.8.6.6.8.5./ c > 5 `       ",
"        - O : c ~ } 3.4.4.4.] ~ c 4 ; @ = t I ;.                                ,.L % - 6 ^ 4.5.8.8.8.8.8.8.8.5./ b : * )       ",
"        j < O - 4 x b S S b 0 > ; @ * s I X.                                      l % - 0 ] 5.8.7.7.8.8.7.7.8.5./ x > 4 )       ",
"          K p * . O + ; ; + O # = s H X.                                          V ; : c { 8.8.6.8.8.8.8.6.7.5.~ 0 : * (       ",
"            ;.H d e e 1 1 y t F U o.                                            C 9 O 7 ~ } 8.8.8.8.8.8.8.8.5.2.S 6 ; 5         ",
"                  @.X... .X.#.                                                  9 - ; b } 4.8.8.7.8.8.8.7.7.5.} b : > 8         ",
"                                                                              b ; ; 0 ~ 5.8.8.8.8.8.7.8.8.8.2./ c ; 2 a         ",
"                                                                            3 + : 0 ~ 2.5.8.8.8.6.8.8.8.6.5.} A 4 O u P         ",
"                                                                        M 3 + 4 b / 2.5.8.8.8.7.7.8.8.8.5.4.^ 0 + O a           ",
"                                                                    Q 0 ; ; 6 A { 4.8.8.8.8.8.8.8.8.8.8.4./ b ; - <             ",
"                                                                W b 4 ; 4 b ~ 2.4.8.8.8.8.8.8.6.6.6.8.5.} n , O < L             ",
"                                                          ' x > : : 6 c ~ } 4.6.8.8.8.8.8.8.8.8.8.5.4.{ A 4 O = j               ",
"                                                      ! M 6 > : 5 b ~ } 4.6.8.8.8.8.8.8.8.8.8.8.5.4.] b , - * l                 ",
"                                                  Z 0 7 4 ; 0 b Q { 4.5.7.8.6.8.8.8.8.8.8.8.8.4.} ~ c : O < l                   ",
"                                              b 0 4 , 4 0 Z ] 2.5.7.8.8.8.8.8.8.8.8.8.8.6.5.2./ n 4 + - 1 G                     ",
"                                          c 7 3 ; 4 x S { 4.8.8.8.8.8.8.8.8.8.8.8.8.8.5.4.] S 0 + . * t Y                       ",
"                                    W N 0 ; ; 6 b ~ } 4.5.8.8.8.8.8.8.8.8.8.6.8.8.5.4.] D 0 , O # y J ;.                        ",
"                                  b 0 : : 7 b ~ } 4.5.7.8.8.6.6.8.7.8.6.6.8.5.4.2.] S x > - # * d =.                            ",
"                              x 3 + : 0 B / 2.5.8.6.8.8.7.8.8.8.8.8.8.8.5.4.{ ^ b 6 ; O % y d =.                                ",
"                          M 4 : ; 7 M ] 1.5.6.6.8.8.8.6.6.6.6.8.8.8.5.1.] D b 4 ; . % y F *.@.                                  ",
"                      ! x 3 + 6 n ^ } 5.7.8.8.8.8.8.6.8.8.8.5.5.5.} ] B 0 3 + @ & e F =.@.                                      ",
"                    b 4 + 3 b ~ } 4.7.8.8.6.8.8.8.6.6.8.5.5.3.} ~ b 4 - @ % 1 d U X.                                            ",
"                  x > + 6 M { 2.7.7.8.8.8.8.8.6.6.8.6.6.2.] S x 4 ; @ & e F Y $.                                                ",
"                c - : 7 D { 5.8.8.8.8.8.8.8.8.8.8.5.4.} S 0 , + . = s H =.$.                                                    ",
"              b 5 : 0 ~ } 5.7.8.6.8.7.8.8.8.8.5.4.] D x 4 O % 1 s I o.                                                          ",
"            T 4 ; c ~ 4.7.8.8.8.8.8.8.8.8.5.5.} ~ c : O # 1 d *.@.                                                              ",
"          b 6 - 6 ~ } 7.8.8.6.8.8.8.6.6.8.5.} Z 6 - . & s *.@.                                                                  ",
"          9 + 3 b } 5.6.8.7.7.8.6.8.7.7.4./ b 4 @ % i U o.                                                                      ",
"        N 6 + x ^ 4.8.6.8.8.8.8.6.8.5.4.~ c ; @ 2 d ;.                                                                          ",
"        4 - 3 A } 5.5.8.8.6.6.8.7.7.4.] b : O & J >.                                                                            ",
"        o O 6 ~ 4.5.8.6.8.8.8.8.6.7.{ A 3 O & g                                                                                 ",
"        o + 0 / 4.8.8.6.8.7.7.8.6.5.~ 4 O # g -.                                                                                ",
"      M o ; b { 5.5.8.8.8.6.6.8.5.4.A O O % l E :.` _ _ Q W T T D Z Z M b b b x b c b c b c b M Z Q {                           ",
"      C O 3 n { 7.8.8.7.8.8.8.8.4.{ b o X O % 8 8 8 8 7 6 6 6 6 4 6 4 > : : ; : : , 4 6 6 , : , 4 6 0 z c c Z                   ",
"      C + 4 A } 7.7.8.6.8.7.7.8.4.~ x ; + : , 6 6 6 7 0 0 x x 0 x c c b c c b b b n M A A b b b x 0 6 4 3 4 5 0 x               ",
"    <.C - 4 A } 8.8.8.8.8.8.8.8.5.] ~ A A S D ~ / / ] ] } } 2.} } 4.5.5.5.5.5.5.5.5.5.5.5.5.5.5.2.{ ^ D M 0 5 ; ; 3 0           ",
"    :.C ; 4 S } 8.6.8.8.8.6.6.8.5.4.4.5.4.5.5.5.5.5.5.6.6.8.5.6.5.6.8.8.8.8.6.8.6.5.6.6.6.6.8.6.5.7.7.5.4.{ ~ b 6 ; 3 z         ",
"      C - 4 A } 7.7.8.6.8.7.7.8.6.8.8.8.8.6.8.8.6.8.6.8.8.8.6.6.8.8.8.6.6.8.8.8.6.6.8.8.8.8.8.8.7.8.6.8.7.5.4.2.~ c ; > W       ",
"      k O 3 b { 5.7.8.6.8.8.8.8.6.8.8.8.8.6.8.8.8.8.6.8.8.8.8.6.8.8.8.6.8.8.8.8.6.8.8.8.8.8.8.8.8.8.6.8.8.8.8.5.2./ 4 ; z Z     ",
"      m o + 0 / 4.5.8.8.8.6.6.8.8.8.6.6.8.8.8.6.6.8.8.8.6.6.8.8.6.6.8.8.6.8.6.8.8.8.6.6.8.8.8.7.8.8.8.8.8.6.8.8.4.] 6 O z m     ",
"        O O 4 S } 5.8.8.5.8.8.8.8.8.8.8.8.5.8.5.5.6.5.5.5.5.6.5.5.5.6.5.6.5.5.6.5.5.5.5.5.5.5.7.7.8.8.8.8.8.5.5.} S > - v       ",
"        a % O 6 M / } 4.4.4.5.5.5.4.5.4.4.4.2.} } } { { { ] { { } ] ] { { ] } ] ] } ] ] } } } 2.2.4.4.4.4.4.} / b 4 - < P       ",
"        E a # O ; 0 c b M S D D ~ S Z S A B b b c x 0 0 0 0 0 0 0 0 0 0 0 0 0 0 0 0 0 0 0 x x b M S D D D A b 0 : + 2 j         ",
"          R l y % O O + + ; : : ; : : : ; O O O O O @ @ - @ # @ @ @ @ @ @ @ @ @ @ @ @ @ @ O O O + ; ; : : ; + O # 1 G           ",
"              Y G t i 1 1 = = = & & = 1 1 y y i i s s d s d d d d s s d d s d s d s d d s t t i 1 1 = & = 1 y p F R             ",
"                  &.#.#.+...| | | | | ..X.O.#.%.%.&.&.&.&.&.&.&.&.&.&.&.&.&.&.&.&.&.&.&.&.&.&.#.+.X. . .| X.+.#.                ",
"                                                                                                                                ",
"                                                                                                                                ",
"                                                                                                                                "
};
