/* XPM */
static char *_1708600641[] = {
/* columns rows colors chars-per-pixel */
"64 64 112 2 ",
"   c None",
".  c #DE751E",
"X  c #E37214",
"o  c #E3761C",
"O  c #E5791F",
"+  c #DC7722",
"@  c #DD7925",
"#  c #D77B2E",
"$  c #DA7B2B",
"%  c #D67D34",
"&  c #DA7E32",
"*  c #D27F3A",
"=  c #E57B23",
"-  c #E87E26",
";  c #E57E29",
":  c #E87F28",
">  c #DC8135",
",  c #D4813C",
"<  c #DC853B",
"1  c #E6812C",
"2  c #E8822D",
"3  c #E58433",
"4  c #E98633",
"5  c #EA8837",
"6  c #E3863A",
"7  c #E5893C",
"8  c #EA8B3C",
"9  c #BF9A7C",
"0  c #CF8445",
"q  c #CD864B",
"w  c #CD884F",
"e  c #D28443",
"r  c #D88743",
"t  c #DC8843",
"y  c #D58A4C",
"u  c #DA8C4C",
"i  c #DF904F",
"p  c #CC8A53",
"a  c #C98D5A",
"s  c #D28E56",
"d  c #DD9050",
"f  c #D3925D",
"g  c #DD965B",
"h  c #DD985E",
"j  c #E38C43",
"k  c #EA8E41",
"l  c #EC9145",
"z  c #E4934E",
"x  c #EC944B",
"c  c #E39554",
"v  c #EA9651",
"b  c #E79855",
"n  c #EE9953",
"m  c #E3995B",
"M  c #EB9E5D",
"N  c #F09C56",
"B  c #F09E59",
"V  c #F1A15E",
"C  c #C78F61",
"Z  c #C69165",
"A  c #CA9263",
"S  c #C5946C",
"D  c #CB966A",
"F  c #D59966",
"G  c #D0996A",
"H  c #C29773",
"J  c #C39975",
"K  c #CA9A72",
"L  c #C19B7A",
"P  c #CB9E78",
"I  c #E69D60",
"U  c #EC9F60",
"Y  c #DBA374",
"T  c #E7A064",
"R  c #ECA264",
"E  c #EDA56A",
"W  c #F2A463",
"Q  c #F3A768",
"!  c #F4AA6C",
"~  c #EDAB73",
"^  c #EBAD7A",
"/  c #F5AD73",
"(  c #EFB17D",
")  c #F5B077",
"_  c #F6B37C",
"`  c #BE9E84",
"'  c #BDA28D",
"]  c #BBA694",
"[  c #BFA997",
"{  c #B8A798",
"}  c #BAAA9C",
"|  c #B7ADA5",
" . c #B9ACA1",
".. c #B6AFA9",
"X. c #B9B0A7",
"o. c #B6B1AD",
"O. c #B8B0AA",
"+. c #C09F83",
"@. c #C0A085",
"#. c #C9A281",
"$. c #C4A58B",
"%. c #C6A88F",
"&. c #C0A894",
"*. c #E5AE80",
"=. c #EEB789",
"-. c #F7B681",
";. c #F7B884",
":. c #F8B986",
">. c #F9BE8D",
",. c #F9BF90",
"<. c #F9C08F",
"1. c #FAC090",
/* pixels */
"                                                    R v l k k l l b U /                                                         ",
"                                              8 l l j 5 4 4 4 4 4 7 k x x l k ;                                                 ",
"                                    n x l 4 O O = - 4 5 8 8 8 8 8 5 5 4 2 - = o O = 4 x n                                       ",
"                              R b k ; O = 2 8 x N W Q ! / / / / / / / Q W N N l k 4 2 = = : k n                                 ",
"                          8 8 ; - - 2 k N Q / ;.:.:.>.>.>.>.>.>.>.>.>.>.:.:.:.;._ / Q N 8 4 - - 3 x E                           ",
"                    E l = O = 4 x V / :.:.>.>.>.1.1.1.1.1.,.1.1.1.1.1.1.1.1.1.>.>.>.>.:._ / N k 2 = = x M                       ",
"                  l 4 = = 8 N ! _ :.>.1.1.1.1.1.1.1.1.1.1.1.1.1.1.<.1.1.1.<.1.1.1.1.1.1.1.>.:./ N 8 2 = 8 U                     ",
"              E k = - 5 N / ;.>.,.1.1.1.1.1.,.,.1.1.1.,.,.1.1.1.,.,.1.1.1.,.,.1.1.1.1.1.1.1.1.>.:.! N 2 = 4 M                   ",
"            E 8 ; 2 x ! ;.>.<.<.1.1.1.1.1.1.1.1.1.1.,.,.1.>.>.>.>.>.>.1.>.,.,.1.1.1.1.1.1.1.1.<.>.>._ Q 8 O 2 x                 ",
"          =.M = 2 x / >.<.<.<.<.1.1.1.1.1.1.<.>.>.:.:.;.) / ! ! / / ) _ ;.:.>.>.>.1.1.1.1.1.<.<.1.1.>.:.Q 8 = : U               ",
"          ^ b = 4 V _ ,.1.,.1.1.1.1.1.1.1.>.>.;./ N n k 8 5 4 4 4 8 8 l x n W / ;.>.<.>.1.1.1.1.1.1.<.>._ V 4 = 7 k             ",
"          *.b = 2 n _ >.,.1.1.1.1.1.>.:._ ! N l 4 ; = @ = $ # # # ; $ = @ = ; 4 l B / >.<.1.1.1.1.1.<.>.>./ x 2 o 2             ",
"            m $ = 4 N ) >.>.1.1.:.;.! V l 4 = + @ % e q p C Z S C a a p w * & + X : l ! ;.>.1.<.<.1.1.<.>.:.V 5 o 7 ^           ",
"              u = o 4 x V ! / ! W n 8 = o + & e a L ' { | o.o.o.o.o...| { ` S w % o = l Q :.>.1.1.1.1.1.>.>.! l = 7 T           ",
"                y $ + = 2 4 5 4 ; = + $ * p J '  .                          O.] Z % + : N _ >.1.1.1.1.1.1.>./ N - 3 c           ",
"                  K w , # $ @ @ $ * w S $.}                                     %.y $ = l / :.<.<.1.1.1.1.>.) N 2 ; 7           ",
"                    [ @.J S Z S J +.]                                             u & O k ! :.1.1.1.1.1.,.>._ V 2 1 7           ",
"                            | X.                                                  < ; - x / :.1.,.1.1.1.,.>._ N 1 1 j           ",
"                                                                                c ; = 5 V ;.>.1.1.1.1.1.1.>./ n = 3 d           ",
"                                                                            n 7 ; = 4 V _ >.<.<.<.1.1.<.>.>.! x = > h           ",
"                                                                  R x 7 8 3 = = ; l W ;.>.<.1.,.1.1.1.1.<.:.W 4 o 6 Y           ",
"                                                  ( R k - X o 2 4 5 2 1 - 2 8 n Q / ;.>.1.1.1.1.1.1.1.>.:./ l = o >             ",
"                                            n 7 8 8 4 2 = O - : 2 5 l x N Q / ;.>.1.>.,.1.1.1.1.<.1.1.<.) N 2 o & u             ",
"                                      E n 7 2 = = 2 5 8 l N N W Q / _ ;.:.>.1.1.1.1.1.1.1.1.1.1.1.1.>._ B 2 o = f               ",
"                                    n k = = 5 l N Q / ) ;.;.:.:.>.1.>.1.1.,.1.1.1.1.,.,.1.1.1.,.>.;.! n 5 o $ s                 ",
"                                  E 2 o 4 n / ;.>.>.1.>.1.1.,.,.<.<.1.1.1.1.1.1.1.1.<.<.1.>.:.;.! N 7 = + & f                   ",
"                                  k ; : n _ >.,.1.1.1.1.1.1.1.1.1.1.1.<.1.1.1.1.<.1.1.<.>.:./ N 5 = o + , D                     ",
"                                  6 ; 4 W ;.>.,.1.1.1.,.,.1.1.1.,.,.1.1.1.,.,.1.1.1.,.,.>./ n 4 X X . e D                       ",
"                                  j ; 2 N / >.>.1.1.1.1.1.1.,.1.1.1.1.1.1.1.1.1.,.1.1.1.>.:./ n 2 O o = e                       ",
"                                  g $ o 8 N / _ :.>.>.>.,.1.1.1.1.,.1.>.1.,.,.1.1.1.,.,.1.,.:._ Q x 4 = = 3 b                   ",
"                                    > = o ; 8 x N Q Q / ;.;.:.:.>.>.>.>.<.<.1.1.,.1.1.1.1.,.1.>.:._ Q x 4 O 4 z                 ",
"                                      s , & @ = = ; : 2 2 4 8 k N W / _ :.>.>.,.,.1.1.1.1.,.1.1.1.>.:._ N 5 = = k               ",
"                                        P S a q * * % & + + . o O 1 4 k n Q _ :.<.<.>.1.1.1.1.,.,.1.1.>._ W 8 = = k             ",
"                                            } ] ` 9 9 S C a p q * # + o = 2 l V ) ;.>.1.1.1.1.1.1.1.1.1.>._ V 8 O 3 R           ",
"                                                      o...|  .] ` S a 0 % @ = 1 l V ) >.>.,.1.<.1.,.1.1.<.>._ n 2 2 7           ",
"                                                                    ..{ 9 a , + o 2 x / >.>.1.1.1.1.1.1.1.<.>./ l = ; M         ",
"                                                                          } L p # . 1 n / >.<.<.,.1.1.1.,.1.1.;.V 4 = b ^       ",
"                                                                              $.A % o 4 V _ <.<.1.,.,.1.1.1.1.:./ 8 o k m       ",
"                                                                                %.y > O 8 Q _ <.1.1.,.1.1.1.1.>.;.l o 6 c       ",
"                                                                                  G r o 2 N _ <.,.1.1.1.,.,.1.1.>.x o 2 j       ",
"                                                                                    s X 1 x / <.<.1.,.1.1.1.1.1.:.n = ; 6       ",
"                V l 2 = = 4 v /                                                     u X O l / :.>.1.,.1.<.1.1.1.>.n = $ 6       ",
"            M 4 = = - = = - = 2 k b                                                   X = l / :.1.1.1.1.,.,.1.1.:.x o ; j       ",
"        ^ l 3 = 4 l n N N n k - = 2 v                                               c X - x / >.,.1.1.1.1.1.,.>.;.l o 3 d       ",
"        8 = - l W _ ;.:.:.;.) V 8 - 3 l ~                                         c 7 O 8 V _ <.1.,.,.1.<.1.1.:./ 7 o t F       ",
"      = X O 8 ! :.,.>.1.<.1.>.:.! x : = l R                                     v 3 = 2 n ) >.1.1.1.1.1.,.,.<._ N 2 o u Y       ",
"      7 X 2 N _ >.>.1.1.<.,.1.>.:.) x - = 3 b                               b k 3 = 2 n / >.>.,.1.1.1.1.,.,.:.! 8 = ; g         ",
"      4 X 1 n ) >.<.,.,.1.<.1.,.>.>.! N 2 = 2 k l                       l l 2 = 2 8 N _ >.>.<.<.<.,.,.1.,.>.) n ; ; 6           ",
"      3 o = 8 Q :.<.1.1.1.1.1.1.1.>.,._ Q x 8 1 O o = : 3 8 l l k 2 = O O = 4 l M / :.>.1.1.1.1.1.1.1.1.:._ N 4 o > f           ",
"        < o = x / >.1.1.,.,.1.1.1.,.>.>.>.;./ V x 8 5 4 4 2 1 = 2 2 4 5 8 n Q _ :.>.,.,.1.1.1.,.,.1.<.,._ W 8 O + r             ",
"        F & o ; n ) >.1.1.<.1.,.1.1.<.1.,.>.>.:.;.) / / ! Q Q Q Q ! ! ) _ ;.>.>.<.<.<.<.1.,.1.<.<.,.>._ N 8 = @ r G             ",
"          s & o ; x ! :.>.1.1.,.1.1.<.1.,.,.1.1.>.>.>.>.>.>.:.>.>.>.>.>.<.<.1.1.,.1.<.1.1.,.<.<.,.:./ n 4 o $ e P               ",
"            f & = = k W _ >.>.1.1.1.,.1.1.1.,.,.1.1.1.1.,.1.1.1.>.,.1.1.1.1.,.1.1.1.,.,.<.1.,.>._ W l = o & s #.                ",
"              D * o O 2 x Q ;.>.<.1.1.1.1.1.1.,.1.,.1.1.1.1.,.1.1.1.1.,.1.1.1.1.,.1.1.>.<.>.:.Q x 3 O . % D %.                  ",
"                P p % @ = 2 l V / _ :.>.>.,.>.,.1.,.1.1.1.1.,.1.1.1.1.,.1.1.<.1.1.>.>.:.) Q x 4 o @ & s K                       ",
"                  [ J p * @ o 2 8 x V Q / ;.>.,.,.,.>.1.,.1.1.1.1.,.1.>.>.<.>.:.;./ Q N k 2 O + , q S &.                        ",
"                      ] P a , $ + o - 4 8 l n Q ! / ) _ _ :.:.,.>.:.;.-._ ! W n x 8 4 = o @ % w S %.                            ",
"                          } +.Z w e % # $ = = ; 4 5 7 k l x x x x l l k 7 5 1 ; = @ $ % 0 a L ]                                 ",
"                                ..} +.Z p e * & # # # + @ + . . o + + + + $ % * 0 w A ` }                                       ",
"                                      O. .] ` L K Z Z C a p p w p p a a C S 9 ` ]  .                                            ",
"                                                  O...|  .} { { { } }  .| O.                                                    ",
"                                                                                                                                ",
"                                                                                                                                ",
"                                                                                                                                "
};
