/* XPM */
static char *_1708600641[] = {
/* columns rows colors chars-per-pixel */
"64 64 102 2 ",
"   c None",
".  c #DF761F",
"X  c #E46F0E",
"o  c #E4700F",
"O  c #E27113",
"+  c #E3761C",
"@  c #E6791E",
"#  c #DD7620",
"$  c #DD7925",
"%  c #D77B2E",
"&  c #DC7C2C",
"*  c #D57D33",
"=  c #DB7F33",
"-  c #E07721",
";  c #E57C24",
":  c #E87D25",
">  c #E57E29",
",  c #E87F28",
"<  c #DF8031",
"1  c #D3813D",
"2  c #DF873E",
"3  c #E4802D",
"4  c #E8822C",
"5  c #E48332",
"6  c #E98634",
"7  c #EA8837",
"8  c #E58739",
"9  c #E78839",
"0  c #EB8C3D",
"q  c #CD8447",
"w  c #CD864C",
"e  c #D48543",
"r  c #D88641",
"t  c #D28648",
"y  c #D28A4E",
"u  c #DC8E4C",
"i  c #CB8B55",
"p  c #C78F5F",
"a  c #CA8D59",
"s  c #D68F52",
"d  c #D08F58",
"f  c #CF925E",
"g  c #D59055",
"h  c #DD9255",
"j  c #D6955F",
"k  c #E18C44",
"l  c #EA8E42",
"z  c #ED9144",
"x  c #EC944B",
"c  c #E09251",
"v  c #EA9751",
"b  c #EE9952",
"n  c #E29759",
"m  c #EB9D5C",
"M  c #F09C56",
"N  c #F19F5C",
"B  c #F1A15E",
"V  c #C79063",
"C  c #CE9464",
"Z  c #C5956D",
"A  c #C9976D",
"S  c #CC986E",
"D  c #D39460",
"F  c #C59772",
"G  c #C19977",
"H  c #CC9B73",
"J  c #C39B7A",
"K  c #CA9E79",
"L  c #D8A072",
"P  c #D1A179",
"I  c #ECA265",
"U  c #ECA56A",
"Y  c #F2A463",
"T  c #F3A768",
"R  c #F3A96C",
"E  c #E5A774",
"W  c #E6A975",
"Q  c #EAAE7C",
"!  c #F5AE73",
"~  c #EDB17F",
"^  c #F6B076",
"/  c #F6B37C",
"(  c #BF9E82",
")  c #BBA593",
"_  c #BBAB9D",
"`  c #B7ACA3",
"'  c #BDAEA2",
"]  c #B6AEA8",
"[  c #B5B0AC",
"{  c #B5B3B2",
"}  c #C2A085",
"|  c #C1A48B",
" . c #C2A894",
".. c #EAB081",
"X. c #F7B681",
"o. c #F8B783",
"O. c #F7B883",
"+. c #F8B985",
"@. c #F9BE8D",
"#. c #FABF90",
"$. c #F9C08F",
"%. c #FAC090",
/* pixels */
"                                                                                                                                ",
"                                                                                6 x v x z                                       ",
"                                                                        x 9 ; @ @ @ ; : ; @ 4 x m                               ",
"                                                                    I 0 ; ; 6 0 x b M m x 0 4 @ 5 x                             ",
"                                                                  m 6 @ 4 b T ^ X.+.+.+.X.! M 6 @ l U                           ",
"                                                                v ; , z T X.@.#.$.%.%.%.%.@./ B 4 5 l                           ",
"                                                              x 4 , x ! +.@.@.%.$.$.%.%.%.%.@.! 0 ; 9                           ",
"                                                            v 4 ; z ! +.%.#.%.%.#.#.%.%.#.#.%.^ 0 : 5                           ",
"                                                          v 4 : l ! +.@.%.%.%.%.%.%.%.%.%.%.%./ 0 > 5                           ",
"                                                        v 6 @ 0 T @.%.%.$.$.%.%.$.$.%.%.$.%.%./ l - 5                           ",
"                                                      I 6 @ 0 Y +.@.%.%.%.%.%.$.%.%.%.%.%.%.%./ 0 ; 5                           ",
"                                                      6 , 9 Y / @.%.%.%.#.#.$.$.#.#.%.%.%.#.%./ l ; 5                           ",
"                                                  m 8 ; 6 Y o.@.$.%.%.%.$.$.$.$.$.$.%.%.$.$.%.o.l : >                           ",
"                                                I l ; 4 M o.$.$.$.%.%.%.%.$.$.$.$.%.%.%.%.$.%./ 0 , 5                           ",
"                                                5 ; 4 b / @.%.%.%.#.%.%.@.@.@.@.#.%.%.%.#.#.%./ l ; =                           ",
"                                              6 : 4 b ^ @.$.%.%.%.%.%.@./ Y ! +.@.%.%.%.%.%.%./ l ; 3                           ",
"                                            v ; 4 x ^ @.@.@.%.%.$.%.@.o.Y z Y +.@.$.%.%.$.$.%./ 0 ; 5                           ",
"                                          v 4 ; x ! @.@.@.$.%.%.%.$.+.Y 0 5 N o.@.%.%.%.%.#.%.o.0 ; 5                           ",
"                                        l 4 ; l R @.$.%.%.%.%.%.$.+.T 0 @ , N +.%.%.%.%.%.%.%./ l > >                           ",
"                                      v ; @ 0 R +.$.%.%.$.%.%.%.@.! z @ o , N o.@.%.%.%.$.$.%./ 0 - 5                           ",
"                                    m 6 ; 9 Y +.@.%.%.%.$.$.$.$./ b : X X , N o.@.%.%.%.%.%.%./ l ; =                           ",
"                                  U l ; 6 Y o.@.#.%.%.%.%.$.@.o.M , + X O : N o.%.#.%.%.%.#.%./ l ; 5                           ",
"                                U 9 ; 4 Y +.$.$.$.%.%.%.$.@.o.B 5 . % % # , N +.@.%.%.%.%.$.%./ 0 ; >                           ",
"                                5 ; 4 M / @.%.$.$.%.%.%.@.+.T 9 - % a q & , N +.$.%.%.%.%.%.%./ 0 , =                           ",
"                              v @ 4 x / @.@.%.#.#.%.%.#.+.! z @ & a ( a % > N o.$.#.%.%.#.#.%.o.0 ; 5                           ",
"                            x 4 4 b ^ @.$.%.%.%.%.%.%.@.! z ; $ e | ' g = 4 N +.@.%.%.%.%.%.%./ 0 , =                           ",
"                          x 4 : b ^ +.$.$.%.%.$.$.$.@./ M ; # e K     g = 4 N +.$.$.%.%.$.$.%./ 0 ; >                           ",
"                        x ; ; l R @.%.$.%.%.%.%.$.@.o.B 5 . r S       u > , N +.@.%.%.%.%.#.%./ l ; 5                           ",
"                      v 4 ; 0 R +.%.%.%.%.%.$.$.@.o.Y 6 - = C         u 5 > m +.%.%.%.%.%.%.%./ l ; >                           ",
"                    m 9 ; 0 T +.$.%.%.$.$.%.$.$.+.Y 0 @ % f           u 5 4 B +.@.%.%.%.%.%.%./ 0 , 5                           ",
"                  I 6 ; 6 Y X.@.%.%.%.$.%.%.%.@.R l @ $ s             k 5 4 N +.$.%.%.%.%.%.%./ 0 ; =                           ",
"                  5 ; 6 B X.@.%.%.%.%.%.%.%.@.^ z ; - y K             k 5 4 N o.@.#.%.%.#.#.%./ l ; 5                           ",
"              8 , @ 6 B o.@.%.$.$.$.$.$.$.@.^ x ; # e H               k 5 4 N o.$.$.%.%.%.$.%.o.0 ; 3                           ",
"            v 4 @ 0 B / $.%.%.$.$.$.$.$.@.^ M 4 O # e D L E Q ~ X.Q W k ; , N o.@.$.%.%.$.$.%./ 0 ; > n W                       ",
"          m 6 4 0 Y o.@.#.%.%.#.@.%.$.$.o.Y 6 + O + $ > 4 5 5 6 5 5 5 ; + 4 Y o.#.#.%.%.#.#.%./ l ; + > , 5 5 7 l v             ",
"        I 5 ; 0 ! +.@.$.%.%.%.%.%.%.$.$.o.T b x l x z x x x x x x x x z x b ! @.@.%.%.%.%.%.%.+.Y x 9 9 7 7 4 , , 4 9 U         ",
"      x 6 @ 0 T @.$.$.$.$.%.%.$.%.%.%.@.@.X.^ / / / / / / / / / / / / / / o.+.%.$.$.%.%.$.$.%.@.o./ ! ! R T Y N x 6 ; 9 b       ",
"      4 @ 4 B o.@.$.%.%.%.%.%.%.%.%.%.%.%.%.%.%.#.#.%.#.%.%.@.%.$.%.%.%.%.%.%.%.$.%.%.%.%.#.%.%.$.@.%.%.%.%.@.@./ B 4 @ 9       ",
"      5 + z ! @.%.%.%.%.%.%.%.%.%.%.%.%.%.%.%.%.%.%.%.%.%.%.%.%.%.%.%.%.%.%.%.%.%.%.%.%.%.%.%.%.$.%.%.#.%.%.%.%.$./ z @ 5 ..    ",
"    E 8 : M / $.%.%.%.$.$.%.%.$.$.%.%.%.$.%.%.$.$.%.%.%.%.%.%.%.$.$.%.%.%.%.%.%.$.$.%.%.$.$.%.%.%.%.%.%.%.%.%.%.$./ M ; 9 E     ",
"    E 9 @ x ! @.%.%.%.%.%.%.%.%.%.%.#.#.%.#.%.%.%.%.%.%.%.%.@.#.%.%.%.%.%.%.%.%.%.%.%.%.%.%.%.%.%.%.%.%.$.#.#.@.%./ b ; 5 E     ",
"      5 + ; x R / o.+.@.@.@.@.@.@.$.@.@.@.#.@.#.@.@.#.@.#.#.@.@.@.#.#.@.#.%.#.%.#.#.%.%.%.%.%.%.#.#.#.%.#.@.@.@.o.T 6 + 5       ",
"      j 2 $ + 4 z N Y R ! ! ^ / / / / / / / / / / / / / / / / / / / / / / X.+.%.$.$.%.%.%.$.%.$.O./ / ^ / ^ ! T M 6 @ & u       ",
"        K i * $ + - > 4 6 0 l l z z z z z z z z z z z z z z z z l z l z x b ! +.$.$.%.%.$.$.%.+.Y x z z l l 6 > @ - = g         ",
"           .J V w 1 * $ + + + + + + + + + + + + + + + + + + + + + + + O @ 6 Y +.@.#.%.%.%.#.%.o.x ; + + + + + $ * y A           ",
"              ' ) ( G Z V p a a i i i i d i i i i i i i i i i i i i i * . , N +.@.%.%.%.%.%.%./ 0 + . 1 i a p Z J |             ",
"                          { [ ` ` ` ` ` ` ` ' ` ` ` ` ` ` ` ` ` ` ' ) i $ > N o.$.$.%.%.$.$.%./ z ; * Z ) [ {                   ",
"                                                                      a & 4 N +.#.%.%.%.%.%.%./ z > * K                         ",
"                                                                      g & 4 B o.@.%.%.%.%.%.%.o.x 3 % P                         ",
"                                                                      u 3 4 N o.$.$.%.%.$.$.$./ x 3 <                           ",
"                                                                      k 5 4 B o.@.%.%.$.%.%.%.o.x 3 3                           ",
"                                                                      r 5 3 B o.@.%.%.%.#.%.%./ x 3 5                           ",
"                                                                      k 5 > m o.$.%.%.%.%.$.%.o.z 4 <                           ",
"                                                                      k 5 > M o.@.%.%.%.$.$.%./ 0 > 3                           ",
"                                                                      k 5 > M / @.%.%.%.%.#.%./ 0 ; <                           ",
"                                                                      c 8 , x ! @.%.%.%.%.%.$./ 0 > <                           ",
"                                                                        k ; 0 R @.@.@.%.$.$.@.R 9 > 5                           ",
"                                                                        h + 4 M o.@.$.$.%.@.o.B 4 4 r                           ",
"                                                                          & + 6 M ! / X.o.^ N 9 + < h                           ",
"                                                                          s = - ; 9 x b x 0 , + $ u                             ",
"                                                                            C e $ # - . . . $ 1 C                               ",
"                                                                              | F p y q q a Z }                                 ",
"                                                                                  _ ) ) ) _                                     ",
"                                                                                                                                "
};
