/* XPM */
static char *_1708600641[] = {
/* columns rows colors chars-per-pixel */
"64 64 109 2 ",
"   c None",
".  c #DF761F",
"X  c #E36F0D",
"o  c #E07013",
"O  c #E3771C",
"+  c #E5791E",
"@  c #DD7722",
"#  c #DD7925",
"$  c #D77C2F",
"%  c #DB7C2C",
"&  c #D67D32",
"*  c #D97D31",
"=  c #E17720",
"-  c #E57B23",
";  c #E87F27",
":  c #E57E29",
">  c #E87F28",
",  c #DA8136",
"<  c #D6833D",
"1  c #DB843D",
"2  c #E6802C",
"3  c #E8812C",
"4  c #E68433",
"5  c #E98532",
"6  c #EA8837",
"7  c #E68738",
"8  c #E6893C",
"9  c #EA8B3C",
"0  c #BE9A7B",
"q  c #CF8446",
"w  c #CE874C",
"e  c #D28444",
"r  c #D98641",
"t  c #D78845",
"y  c #D28748",
"u  c #D48A4C",
"i  c #D88948",
"p  c #CA8B55",
"a  c #CC8D5A",
"s  c #D48D53",
"d  c #CC905E",
"f  c #D79054",
"g  c #D5925A",
"h  c #E68E43",
"j  c #EB8E42",
"k  c #ED9145",
"l  c #E7924C",
"z  c #EC944B",
"x  c #E39656",
"c  c #E99752",
"v  c #EC9A55",
"b  c #E29759",
"n  c #E59A5A",
"m  c #EA9C5B",
"M  c #F09B55",
"N  c #F09E5A",
"B  c #F1A15E",
"V  c #C68F61",
"C  c #CC9364",
"Z  c #CE9668",
"A  c #D39664",
"S  c #D49867",
"D  c #D39B6D",
"F  c #DF9F68",
"G  c #C29670",
"H  c #C59975",
"J  c #CD9C74",
"K  c #CC9E79",
"L  c #D39E73",
"P  c #E99F61",
"I  c #CEA17B",
"U  c #D1A179",
"Y  c #DFA778",
"T  c #EDA365",
"R  c #E7A46C",
"E  c #EBA66C",
"W  c #EEA86D",
"Q  c #F2A463",
"!  c #F3A768",
"~  c #F3A96C",
"^  c #E4A571",
"/  c #EDAA72",
"(  c #EAAD7A",
")  c #F5AE73",
"_  c #EBB07F",
"`  c #F5B076",
"'  c #F6B47C",
"]  c #BF9E82",
"[  c #B6A596",
"{  c #BAA696",
"}  c #BEA896",
"|  c #B6A79C",
" . c #B6A89C",
".. c #BAAA9C",
"X. c #B7ABA1",
"o. c #B9AEA5",
"O. c #B8AFA8",
"+. c #C6A284",
"@. c #C5A68C",
"#. c #C8A78A",
"$. c #C3A893",
"%. c #F7B681",
"&. c #F8B782",
"*. c #F7B884",
"=. c #F8B985",
"-. c #F9BD8C",
";. c #FABF90",
":. c #FAC08F",
">. c #FAC090",
/* pixels */
"                                                                                                                                ",
"                  W T T T T T T T T T T T ~ )                                                                                   ",
"            m z k 9 9 9 9 6 9 8 9 9 9 6 9 9 h l k l l z z z z c c v v v v v v v v v v v v m v m v v v v v v z l l               ",
"        T z 5 ; 2 5 6 6 6 6 6 5 5 5 5 5 6 5 6 5 5 3 3 3 3 2 2 3 5 3 2 3 2 3 2 2 3 > 3 > 3 3 > > : 3 3 2 3 3 3 3 3 6 l m         ",
"      m 9 - 3 z Q ) ' *.*.' ' ) ` ` ) ` ` ` ` ` ~ ~ Q Q Q Q Q Q Q N N M M M M M M M M M M M M M M M M M M M z k 9 3 - 2 c       ",
"      : + 3 N ' -.-.:.:.;.;.>.-.:.-.-.:.-.:.-.:.-.-.-.-.-.-.-.-.=.-.=.=.=.=.-.=.=.-.=.-.=.=.-.=.-.=.-.=.=.=.=.%.' Q 9 + - T     ",
"    _ 4 - z ) -.:.>.:.:.:.:.>.:.:.:.:.:.:.:.>.:.:.:.:.>.:.:.:.>.>.>.>.>.>.>.>.>.>.>.>.>.>.>.>.>.;.>.>.>.>.>.>.>.:.&.B 5 + m     ",
"    R 7 ; M ' >.:.:.:.:.:.:.:.:.:.:.:.:.:.:.:.:.:.:.:.:.:.:.:.:.>.>.>.>.>.>.>.>.>.>.>.>.>.>.>.>.>.>.>.>.>.>.>.>.:.-.Q 6 + m     ",
"    ^ 4 - M ' :.>.>.>.>.>.>.>.:.>.>.>.:.:.>.:.>.:.>.>.>.:.:.>.:.>.:.>.>.>.>.>.>.>.>.>.>.>.:.:.>.>.>.>.>.>.>.>.>.:.=.M > O n     ",
"      : O 6 ! &.-.-.:.-.:.:.:.:.>.>.:.:.:.:.:.:.:.:.:.:.:.:.:.:.>.>.>.>.;.>.>.>.>.;.>.>.>.;.>.>.>.>.>.>.>.;.>.>.-.~ 6 O *       ",
"      1 - - 6 M ! ) ' ' ' ' ' %.' ' ' ' ' &.&.=.=.=.=.=.=.=.=.=.=.=.-.-.=.=.-.-.-.-.-.;.>.>.>.>.>.>.>.>.>.>.>.=.) k ; % f       ",
"        s $ @ = 3 6 6 k z z z z z z z z z z M z N M M M M M M N B B Q B Q Q B B Q ~ %.-.>.:.:.>.>.>.>.>.>.-.=.~ k - % i         ",
"        #.C y & $ $ # # : # @ = O @ O = = = @ : - - - + + + + + ; ; ; ; ; > ; 3 5 M ' -.-.>.>.>.>.>.>.>.;.=.~ j - O t K         ",
"            } ] 0 V a p p w q e e e e q q q e e & & * % $ $ $ $ $ $ $ $ # o X O 6 ! -.>.>.>.>.>.>.>.>.-.*.! 9 - @ e J           ",
"                  X.O.o.o.X.X.X.X.X.X.X.X.X.X.X. . . . . . . . . .| [ 0 w . O 6 ! =.-.>.>.:.>.>.>.>.-.%.N 6 O % p +.            ",
"                                                                    } C & O 6 m ' -.>.>.>.>.>.>.>.-.%.N 6 O * a #.              ",
"                                                                    A 1 O 5 B %.-.>.>.>.>.>.>.>.-.' B 6 + # d $.                ",
"                                                                  ^ 1 - 3 Q %.-.>.>.>.>.>.>.>.-.=.Q 3 O * d                     ",
"                                                                  h - > M ' >.>.>.>.>.>.>.:.-.%.Q 6 O & d                       ",
"                                                                c - > z ` =.>.>.>.;.>.>.>.-.%.Q 6 = * a @.                      ",
"                                                              m 7 - z ~ -.;.>.>.>.>.>.>.-.%.B 5 O % a                           ",
"                                                            / 7 - 9 ~ =.-.>.>.>.>.:.>.-.-.! 6 O % s                             ",
"                                                            h ; 3 Q *.;.>.>.>.>.>.>.>.-.) k O # u @.                            ",
"                                                          v ; ; k ' -.;.;.;.>.>.>.;.-.' c 2 @ t K                               ",
"                                                          - + j ) =.>.>.:.:.>.>.>.-.' N 3 - < K                                 ",
"                                                        l O 5 Q =.:.>.>.>.:.:.>.;.=.~ 6 O * Z                                   ",
"                                                      l 7 ; v ` -.;.>.>.;.;.>.>.-.) k + @ t                                     ",
"                                                    / 7 ; j ~ -.:.>.>.>.>.>.>.-.%.z - @ i I                                     ",
"                                                    l : 3 Q =.>.>.>.>.>.>.:.:.&.B 3 = < J                                       ",
"                                                  P : ; k %.-.>.>.>.>.>.>.;.=.) h - * A                                         ",
"                                                  h + 6 Q -.-.>.:.>.>.>.>.-.' M ; % u                                           ",
"                                                7 + ; v %.:.>.>.:.:.>.>.-.=.! 6 O r K                                           ",
"                                                5 + 9 ! -.:.>.>.:.>.>.>.-.' z - # s                                             ",
"                                              l 2 3 M ' :.:.:.:.>.>.>.>.=.N 3 O t D                                             ",
"                                              4 ; 9 ) -.:.:.:.:.:.:.>.-.) 6 - * D                                               ",
"                                            m ; 3 B &.:.:.:.>.>.:.:.-.' M ; % s                                                 ",
"                                            7 - k ' -.:.:.:.>.:.>.;.=.! 6 : 1 K                                                 ",
"                                          l + 3 B -.:.:.:.:.:.:.>.-.) z - * g                                                   ",
"                                        z 7 - z ` -.:.:.:.:.>.>.-.%.N 3 O i                                                     ",
"                                        : + 3 Q *.:.:.:.:.:.>.>.-.~ 9 O % A                                                     ",
"                                      m - - z ' :.:.:.:.:.:.:.:.' z ; # s                                                       ",
"                                      8 : 6 ! =.:.:.:.:.:.:.:.=.~ 3 O , U                                                       ",
"                                    m : 3 z ' -.:.>.>.>.:.:.:.' z + $ g                                                         ",
"                                  E l - 9 ~ -.:.:.:.:.:.:.:.*.B 6 + t U                                                         ",
"                                  k 3 - N =.-.>.:.:.:.:.:.:.` z - $ g                                                           ",
"                                ( 7 + 9 ~ :.>.>.:.:.:.:.:.=.B 5 = i L                                                           ",
"                                h : 3 M ' :.>.:.:.:.:.:.:.` z - = A                                                             ",
"                                = - j ) -.:.:.:.:.:.:.:.=.! 6 = ,                                                               ",
"                              v + 3 N *.-.>.>.:.:.>.>.:.' v - % s                                                               ",
"                              8 ; k ) -.>.>.>.:.:.:.>.-.~ 6 O , U                                                               ",
"                            l ; 5 N =.-.>.:.:.:.:.:.>.=.v - : i                                                                 ",
"                          R 8 - z ` :.:.>.>.>.:.:.-.-.~ 9 O t D                                                                 ",
"                          h 2 : ! =.>.:.:.>.:.>.:.-.' M 3 = g                                                                   ",
"                          2 ; 6 ` :.:.:.:.:.:.:.>.*.~ 9 - , D                                                                   ",
"                        R : ; v &.>.:.:.:.:.:.:.:.' z - % g                                                                     ",
"                        x - 5 ! =.>.>.:.:.>.:.:.*.Q 5 O ,                                                                       ",
"                        x - 2 Q =.:.>.:.:.:.:.-.~ j + * s                                                                       ",
"                        F : - k ) -.:.:.>.-.-.` z - # u                                                                         ",
"                          1 = ; z ! ' *.%.` ! z ; @ t U                                                                         ",
"                          A < . - 5 j z z k 5 + # r K                                                                           ",
"                            L e & # # - - = @ % u K                                                                             ",
"                                H a w e q w a H }                                                                               ",
"                                  O...{ { ..O.                                                                                  ",
"                                                                                                                                "
};
