/* XPM */
static char *_1708600642[] = {
/* columns rows colors chars-per-pixel */
"64 64 123 2 ",
"   c None",
".  c #DE751E",
"X  c #E36E0C",
"o  c #E37315",
"O  c #E3761C",
"+  c #E5781E",
"@  c #DB7724",
"#  c #DD7925",
"$  c #D77A2D",
"%  c #DB7B2B",
"&  c #D57D34",
"*  c #DA7E32",
"=  c #D47F39",
"-  c #E07721",
";  c #E57B23",
":  c #E87E27",
">  c #E67F29",
",  c #E87F28",
"<  c #DC8135",
"1  c #D3813D",
"2  c #DB833B",
"3  c #E7812C",
"4  c #E8822C",
"5  c #E58433",
"6  c #E98633",
"7  c #EA8837",
"8  c #E2863A",
"9  c #E5893C",
"0  c #EB8B3C",
"q  c #BE9C7F",
"w  c #CF8446",
"e  c #CD864B",
"r  c #CC884F",
"t  c #D28443",
"y  c #DD8740",
"u  c #DC8A44",
"i  c #D1894E",
"p  c #DD8E4C",
"a  c #CB8A54",
"s  c #C78F5F",
"d  c #CB8D5A",
"f  c #D38D53",
"g  c #D59056",
"h  c #DB9255",
"j  c #D3925B",
"k  c #DC9458",
"l  c #DE995E",
"z  c #E38B42",
"x  c #EB8E41",
"c  c #E08F4A",
"v  c #EC9145",
"b  c #E5924D",
"n  c #ED944B",
"m  c #EF984F",
"M  c #E29554",
"N  c #EA9651",
"B  c #E79957",
"V  c #EE9953",
"C  c #E0965A",
"Z  c #E59B5E",
"A  c #EB9C5B",
"S  c #F09C56",
"D  c #F09E59",
"F  c #F1A15D",
"G  c #C78F61",
"H  c #C88F60",
"J  c #C69165",
"K  c #CC9364",
"L  c #C5946B",
"P  c #C9956A",
"I  c #D39561",
"U  c #DC9A62",
"Y  c #D49D6E",
"T  c #DD9F6B",
"R  c #C39772",
"E  c #C29875",
"W  c #CB9B74",
"Q  c #C29C7D",
"!  c #CB9F7A",
"~  c #E39C63",
"^  c #E89F63",
"/  c #CEA07B",
"(  c #DDA271",
")  c #DCA97F",
"_  c #EAA063",
"`  c #E6A269",
"'  c #ECA76E",
"]  c #EEA86E",
"[  c #F2A464",
"{  c #F3A768",
"}  c #F3A96B",
"|  c #E2A673",
" . c #EDAD76",
".. c #EBAE7A",
"X. c #F5AE73",
"o. c #F5B077",
"O. c #F6B37C",
"+. c #BE9D82",
"@. c #BCA28B",
"#. c #BAA594",
"$. c #B7A79A",
"%. c #B7A99C",
"&. c #BAA99C",
"*. c #B6ABA1",
"=. c #BAADA4",
"-. c #B6AFA9",
";. c #B8AFA8",
":. c #B6B0AC",
">. c #B8B0AA",
",. c #C19E81",
"<. c #C2A185",
"1. c #C3A58B",
"2. c #C2A790",
"3. c #C1A994",
"4. c #E5B388",
"5. c #F7B781",
"6. c #F8B782",
"7. c #F7B884",
"8. c #F8B985",
"9. c #F9BE8C",
"0. c #FABF90",
"q. c #F9C08F",
"w. c #FAC090",
/* pixels */
"                                                   .n z 4 O X X X X X + 4 7 V }                                                 ",
"                                              0 v x 7 4 : ; + o o o o : : 4 7 x n v v                                           ",
"                                      N n 5 > + : 4 6 7 0 v v v v v v n x 0 7 : 4 + : 4 v A N                                   ",
"                                B N 6 : : 6 0 n S [ X.X.O.O.6.5.O.6.O.O.O.O.X.{ F m v 6 3 4 4 6                                 ",
"                            n 5 ; + 4 0 S X.O.8.8.9.9.9.q.9.q.9.9.q.9.q.9.9.9.9.9.8.6.o.F n 4 ; : n ]                           ",
"                          0 ; ; 4 v F o.8.9.w.w.w.w.w.w.w.w.w.w.w.w.w.w.0.9.w.w.q.q.q.q.8.O.{ n 3 ; 5 A                         ",
"                      n 5 ; : v [ O.8.9.w.w.q.q.w.q.q.q.q.q.q.w.q.q.q.q.q.q.w.w.q.q.q.q.q.q.8.o.D 7 : : v                       ",
"                    4 + + 7 V o.8.9.q.q.q.q.q.q.w.q.w.w.q.q.q.9.9.q.q.q.w.q.q.q.q.q.q.q.q.q.q.q.O.} n ; > 9                     ",
"                  n : ; 0 [ O.9.w.w.w.q.q.w.w.q.w.0.9.9.8.8.5.O.O.O.5.8.8.9.9.w.w.w.w.w.w.w.w.q.q.8.} x : 3 _                   ",
"                N 3 : x } 6.q.w.w.w.q.q.q.w.w.9.8.X.[ V n v x x x v v n S [ o.8.9.9.q.q.q.w.q.q.q.q.6.} 7 - x A                 ",
"              N 5 ; v } 8.9.q.q.q.q.q.w.q.9.O.[ n 7 3 ; ; # # # # # # - - 4 7 m } O.9.w.q.q.q.q.q.q.q.5.m : : 9                 ",
"              > ; 6 [ 8.w.w.q.q.w.w.q.q.8.} S 7 ; @ $ 1 w r a d d a a w 1 $ . - 0 [ 5.9.w.w.w.q.q.q.w.9.[ 0 + 5 ..              ",
"            ^ ; : V O.q.w.w.q.q.w.w.q.8.X.v : O $ a J +.#.#.%.*.*.*.%.#.q J 1 @ + v } 9.q.w.w.q.q.w.w.9.O.S + 5 Z               ",
"          n z ; 7 [ 6.q.w.q.q.q.q.q.9.X.n : . & J #.;.                    =.R t O 4 V O.q.q.q.q.q.q.w.9.O.[ 4 : 8               ",
"          + O ; n o.9.9.w.q.q.q.q.w.9.F 3 O & L 3.                            K # O 0 o.w.w.q.q.q.w.w.q.6.} 7 + +               ",
"          X o 4 S O.9.w.w.w.q.q.q.9.9.m O @ u 1.                              Y * # 4 } w.w.w.q.q.w.w.q.9.} 0 + o               ",
"          O o 4 A 6.9.q.q.q.q.q.q.9.6.n o % f                                   2 . : X.w.q.q.q.q.q.q.9.9.} x + X               ",
"          ; o 7 F 8.q.q.q.q.q.q.q.9.O.v O < h                                   < - : } w.q.q.q.q.q.q.q.8.} 0 + o               ",
"          ; o 6 F 8.q.w.q.q.q.q.w.9.6.n O % u                                 M ; ; 7 X.w.w.w.q.q.w.w.9.7.{ 0 + O               ",
"          + o 4 V 5.9.q.q.q.q.q.q.q.9.S : O 8 ^                             z 5 O 3 S O.w.w.q.q.q.w.w.w.6.[ 6 - ;               ",
"          - o ; n O.8.q.q.q.q.q.q.q.9.O.S 4 ; > 0 B                     A 3 O + 6 V X.9.q.q.q.q.q.q.q.9.O.D : : y               ",
"          u < + 7 } 8.w.w.w.q.q.w.w.w.8.O.D 0 : ; 3 7 v A O.7..._ n 5 7 4 ; 4 v F O.9.q.w.w.w.q.q.w.0.9.} x O < U               ",
"            p . : n O.w.w.w.q.q.w.w.q.q.9.5.X.D 0 4 ; : 5 0 x 0 5 : ; 4 7 n [ X.8.9.9.w.w.w.w.q.q.q.9.6.m : O 2                 ",
"            Y % . 3 F O.q.q.q.q.q.q.q.q.w.q.9.8.X.[ V n 7 6 4 6 0 v V [ X.O.8.9.w.q.q.q.q.q.q.q.9.9.o.S 4 + 2 j                 ",
"              j < O 7 F O.9.q.q.w.w.q.q.q.w.w.q.q.9.9.8.o.} { } o.6.q.q.9.q.q.q.w.w.q.q.w.w.w.9.O.{ n : - * I                   ",
"                f % - 7 F o.8.w.w.w.w.q.q.w.w.q.q.q.w.9.q.q.9.9.q.q.q.q.q.q.q.q.w.w.q.q.9.9.O.} n 6 ; @ 2 K                     ",
"                / f % ; 3 n } 6.9.q.q.q.q.q.q.q.q.q.w.w.q.q.q.q.q.q.q.q.q.q.q.q.q.q.q.q.9.o.S 7 + o . 1 P                       ",
"                    a * o o 7 [ 5.q.q.q.q.q.q.q.q.q.w.q.q.q.q.q.q.q.q.q.q.q.q.q.q.q.q.9.O.{ v : o o # f !                       ",
"                    I 1 o o 4 F O.9.w.q.q.w.w.q.q.w.q.w.q.q.q.q.q.q.q.q.w.q.q.w.w.w.q.q.9.8.} S 7 : O # u (                     ",
"                  U < O + 6 S o.9.w.q.q.q.q.q.q.q.q.q.q.q.q.9.q.9.q.q.q.q.q.q.q.q.q.q.q.q.q.9.6.X.D 0 : ; 5 _                   ",
"              ..n > - 6 m } 5.9.q.q.q.q.q.q.q.q.q.q.q.9.9.6.O.O.6.8.9.q.q.9.q.q.q.q.q.q.q.q.q.q.9.8.X.A 7 ; : n  .              ",
"              v 3 ; v [ O.9.q.q.q.q.q.q.q.w.w.q.q.9.6.o.[ m v 0 n S } o.6.9.q.w.w.w.q.q.w.w.w.q.q.w.q.6.{ x ; : 8               ",
"            n : ; 7 } 8.q.q.q.q.w.w.q.q.w.9.9.9.O.[ n 0 3 ; O o O : 4 0 n _ o.9.9.9.w.w.q.w.q.q.q.w.w.q.8.} n 4 + v             ",
"          z > ; 0 ] 8.q.q.q.q.q.q.q.q.w.9.8.X.D 0 4 ; @ % 1 w r w & # # ; > 0 m } O.9.9.q.q.q.q.q.q.q.q.w.8.X.v : 6 c           ",
"        ' 7 + 0 [ 5.9.q.q.q.q.q.w.w.q.8.X.D 0 : - % = a J +.$.*.#.Q J a 1 $ O + 6 n { 7.9.0.0.q.q.w.w.q.w.9.8.[ 7 ; 5  .        ",
"        N 5 > V o.9.q.w.q.q.q.q.w.q.8.} v 4 O @ t s ,.#.:.          :.$.+.J t $ @ ; 7 D 6.9.w.q.q.w.w.q.9.0.9.O.S : 3 A         ",
"        5 > 7 } 8.9.q.q.w.q.q.q.q.8.{ 0 + @ 1 s ,.;.                      ;.@.P t % O 7 A O.9.0.q.q.q.q.q.q.q.9.X.6 ; 6         ",
"      ^ : 4 n O.q.q.q.q.w.w.q.q.8.} 7 ; @ e W &.                                1.d & O 6 F O.9.q.w.w.q.q.q.w.w.O.n ; + x       ",
"    ..B ; 7 [ 5.w.q.q.w.q.w.w.q.o.S 3 # t W                                       1.d O ; x X.8.q.w.w.q.q.w.w.w.8.S 4 o b       ",
"    ` b + 0 X.9.q.q.q.q.q.q.q.8.{ x O * I                                           W # + 6 [ 7.9.w.q.q.q.q.q.w.8.[ 7 O M 4.    ",
"    Z c O v O.9.w.q.q.q.q.q.q.5.F 6 o *                                               * # : F 5.9.q.q.q.q.q.q.w.8.} 0 + b |     ",
"    M 9 O v O.9.w.q.q.q.w.q.9.5.S 4 o >                                               < ; : D 5.9.w.w.q.q.w.w.w.9.X.v O z ~     ",
"    b < O n 8.w.q.q.q.q.w.q.9.O.m : X -                                               % ; 4 F 6.9.w.w.q.q.q.w.w.9.o.v + 9 C     ",
"    p 5 O n 8.q.q.q.q.q.w.q.9.O.S : o +                                               O O 6 [ 8.9.w.q.q.q.q.q.q.9.X.v + u U     ",
"    b 8 O v 6.9.q.q.w.w.w.w.9.5.F 6 o 5                                               o O 0 { 8.q.w.w.w.q.w.w.w.8.{ 0 O c T     ",
"    l u O v o.9.q.q.q.q.w.w.w.8.} v + 3 M                                           b + : n X.9.q.w.w.q.q.q.w.w.8.[ 7 O p )     ",
"    T c O 7 } 6.q.q.q.q.w.w.q.q.O.[ 0 3 : 9                                       c 6 ; 0 } 6.q.q.q.q.q.q.q.w.w.5.n ; O p       ",
"      M - 4 S O.q.q.q.w.w.w.q.q.q.8.[ x - ; 5 n A                             N v 5 ; 0 F 8.9.q.q.w.w.q.q.q.w.8.X.6 O 5 k       ",
"      l % ; 7 } 8.9.q.w.w.w.q.q.w.9.8.} n 6 : ; 4 x N A A A       V V A A N 0 : + : 0 { O.q.w.q.q.w.w.q.q.q.9.O.S : ; f         ",
"        u > > V X.8.q.w.q.q.q.q.q.q.w.9.O.} S x 6 4 , , 4 4 4 4 3 3 4 4 3 : 4 6 v F o.8.w.q.q.q.q.q.q.q.9.9.O.S 6 - < Y         ",
"        Y 2 O 3 V X.9.w.w.q.q.q.q.w.q.q.q.9.9.6.O.{ D S n x x x x x v v n S { o.6.9.q.q.w.w.q.q.q.q.w.q.9.O.S 6 + * j           ",
"          f * O 4 V X.9.0.w.q.q.w.w.q.q.q.w.q.q.9.9.8.8.8.6.6.5.6.6.6.6.8.9.9.9.q.q.q.q.w.w.q.q.q.w.9.9.X.S 4 - @ g             ",
"            I % . : n } 6.9.9.9.q.q.q.q.q.q.q.q.9.w.w.w.w.w.w.w.w.w.w.w.w.w.q.q.q.q.q.q.q.q.q.q.9.9.6.} v : O % i               ",
"              K 1 # ; 7 V } 5.9.9.q.q.q.q.q.q.q.w.w.q.q.q.q.q.w.q.q.q.q.q.q.q.q.q.q.q.q.q.q.q.8.O.} n 5 ; # t K 1.              ",
"                ! a % . ; 7 n } O.8.9.q.w.w.q.q.q.w.w.w.q.w.w.w.w.w.q.w.q.q.q.w.w.w.q.q.9.6.o.[ n 6 ; O & a !                   ",
"                  2.J t # O ; 4 x S [ o.8.9.9.9.9.9.w.0.9.q.9.w.w.9.q.9.q.q.9.9.9.8.6.X.F n 0 4 O . % w P 3.                    ",
"                      <.P r 1 # # ; 3 7 x n A [ } o.o.O.O.O.O.O.O.O.O.O.X.X.} F V n 0 5 : - @ $ t a R 1.                        ",
"                          &.Q d w 1 & @ . + ; > 4 7 7 0 v v v v v v x 0 7 5 3 : ; - . @ & w a P <.=.                            ",
"                              ;.#.,.L d r t = & $ $ # % # - - - # # % # # $ $ & 1 w a J E @.$.                                  ",
"                                      ;.#.#.+.+.R J J s d a r r w a J H G J q +.@.#.$.;.                                        ",
"                                                  :.:.:.:.-.-.-.-.-.:.:.:.                                                      ",
"                                                                                                                                ",
"                                                                                                                                ",
"                                                                                                                                "
};
