/* XPM */
static char *left51708526649[] = {
/* columns rows colors chars-per-pixel */
"64 64 212 2 ",
"   c #1B361F",
".  c #1E3E1F",
"X  c #022225",
"o  c #042D25",
"O  c #0C2E27",
"+  c #022429",
"@  c #012F28",
"#  c #0D2E28",
"$  c #0D2626",
"%  c #112E27",
"&  c #112F28",
"*  c #033225",
"=  c #0E3026",
"-  c #0E3128",
";  c #123127",
":  c #113229",
">  c #1A3922",
",  c #3A491A",
"<  c #3A581A",
"1  c #284722",
"2  c #334A22",
"3  c #424C18",
"4  c #47581A",
"5  c #57631E",
"6  c #797C0D",
"7  c #6A7E1C",
"8  c #757D14",
"9  c #727E18",
"0  c #445825",
"q  c #5F792D",
"w  c #506729",
"e  c #647623",
"r  c #80090E",
"t  c #83120C",
"y  c #9B1B0F",
"u  c #9E160F",
"i  c #870911",
"p  c #8C1C14",
"a  c #931513",
"s  c #9D1610",
"d  c #941C12",
"f  c #9E1D13",
"g  c #A6150F",
"h  c #A8170A",
"j  c #A51611",
"k  c #AA1710",
"l  c #A31B11",
"z  c #AD1C10",
"x  c #B01F10",
"c  c #8D260D",
"v  c #9A250E",
"b  c #9A2C0E",
"n  c #9A350D",
"m  c #9C3B0C",
"M  c #95360D",
"N  c #9B2313",
"B  c #9E2913",
"V  c #902310",
"C  c #AE220F",
"Z  c #A8290E",
"A  c #B1230F",
"S  c #A6350E",
"D  c #A83A0D",
"F  c #B1340B",
"G  c #A22311",
"H  c #AC2210",
"J  c #A62912",
"K  c #AA2811",
"L  c #B12310",
"P  c #CE251C",
"I  c #CA2A1E",
"U  c #DC241B",
"Y  c #D42A1D",
"T  c #DD2E1B",
"R  c #D8261A",
"E  c #D1311C",
"W  c #DE301C",
"Q  c #DA3919",
"!  c #DC3615",
"~  c #CB3716",
"^  c #EB2315",
"/  c #E4241A",
"(  c #EA241B",
")  c #E42D1C",
"_  c #EC2F1B",
"`  c #E52615",
"'  c #F12F1A",
"]  c #EA3917",
"[  c #E2311C",
"{  c #ED311B",
"}  c #EB3714",
"|  c #F2311B",
" . c #F13818",
".. c #9D410B",
"X. c #A25609",
"o. c #AE5F09",
"O. c #A55909",
"+. c #BC4713",
"@. c #BC5311",
"#. c #B75A10",
"$. c #AE510B",
"%. c #A96707",
"&. c #B56609",
"*. c #B27606",
"=. c #BB681C",
"-. c #C94415",
";. c #DE4B17",
":. c #CB5410",
">. c #DA5817",
",. c #E9481A",
"<. c #E95E14",
"1. c #C76B0D",
"2. c #CE751F",
"3. c #C57C09",
"4. c #F07A18",
"5. c #EE5520",
"6. c #C17F22",
"7. c #EE6824",
"8. c #ED7329",
"9. c #758114",
"0. c #7A8E30",
"q. c #7A822A",
"w. c #818B0C",
"e. c #969D10",
"r. c #B78904",
"t. c #BE9903",
"y. c #AC8506",
"u. c #8FA011",
"i. c #9CA11B",
"p. c #B5AC09",
"a. c #BDBA05",
"s. c #A3A408",
"d. c #9A9A2F",
"f. c #98A633",
"g. c #B5AE34",
"h. c #AEB23D",
"j. c #AEB32E",
"k. c #C48109",
"l. c #C48C06",
"z. c #C99F02",
"x. c #D59C07",
"c. c #C68612",
"v. c #EA8210",
"b. c #F08D1B",
"n. c #CCA304",
"m. c #C7AD03",
"M. c #CAAE02",
"N. c #C4A403",
"B. c #D5AA04",
"V. c #CDB402",
"C. c #D5BC02",
"Z. c #E4AF0F",
"A. c #DE9E2C",
"S. c #D2932E",
"D. c #F2862D",
"F. c #ED9D36",
"G. c #EF8F28",
"H. c #D2AF2E",
"J. c #DDAA39",
"K. c #E3B72B",
"L. c #F3A135",
"P. c #F8BC38",
"I. c #ECA82A",
"U. c #C9C303",
"Y. c #C5C103",
"T. c #D6C501",
"R. c #DCCE01",
"E. c #DDD200",
"W. c #CECB13",
"Q. c #D8D218",
"!. c #E4CA02",
"~. c #EBC807",
"^. c #E1D600",
"/. c #E4DC01",
"(. c #EADD01",
"). c #E7D806",
"_. c #F1DE01",
"`. c #F4DA09",
"'. c #ECD31B",
"]. c #F0C90F",
"[. c #EBE300",
"{. c #EFEA00",
"}. c #F2E500",
"|. c #F3EC00",
" X c #FDEF00",
".X c #FFE502",
"XX c #F5F400",
"oX c #FFF200",
"OX c #FFFB00",
"+X c #FFF70A",
"@X c #FFFC0B",
"#X c #FFFE14",
"$X c #FFFE1B",
"%X c #FFF614",
"&X c #CCC735",
"*X c #D2D32F",
"=X c #F4DD22",
"-X c #E0DF37",
";X c #FCD135",
":X c #EDC538",
">X c #F3E529",
",X c #FFFF23",
"<X c #FFFE2C",
"1X c #F8E637",
"2X c #FFF332",
"3X c #FFFC33",
"4X c #FEF53D",
"5X c #FFFC3A",
"6X c #AFB440",
"7X c #F8CE41",
"8X c #FBDE43",
"9X c #FCEA42",
/* pixels */
"@ @ @ @ @ @ @ @ @ @ @ @ @ @ @ @ @ @ @ @ @ @ @ @ @ @ @ @ @ @ @ @ @ @ @ @ @ @ @ @ @ @ @ @ @ @ @ @ @ @ @ @ @ @ @ @ @ @ @ @ @ @ @ @ ",
"% # # & % % & # % % @ @ ; ; & & # & & # & % # % * @ & ; % % % # # & % % # % % % * o ; ; & % # % % # % & # & % & o @ % ; % # # % ",
"G G G G G G G N G V # # Y T H G G G G G G G l N O = E [ H N v N G N G G G G G N O # E W G G G G G G G G G G G N # ; E T G G G G ",
"C A H C H H C z A H O # [ ' A C L H H H H H A G = ; { ' L z x z x x x x A L A G O = ) _ L C H A x C H H z H L G # = [ ' A H C C ",
"H H H H H H H H C G O # W _ C C H H H H H H H B + X P Y v n m m m M b V y s j f = = W { H H C Z C H H H H H H G O ; W { H H H H ",
"H H L H H H H H C G O # W { H C L H H K H l j c 4 8 N.C.R./.[.[.[.[.^.T.m.r.%.M + X T | H C H A H H H H H H H G O # T _ L L H H ",
"_ _ _ _ H H H H C G # ; [ | { { _ | _ U v X.t.E. XOXOXOXoXoXOXoXoXoXoXOXOXOXOX[.a.6 +.U ( { | { _ _ _ _ H H L G o # [ ' _ { { _ ",
"W [ [ T G N G G G N # % E [ W [ W P ~ 3.T.oXOXoXoX XoX XoXoXoXoXoXoXoXoXoX XoXoXOXOX[.n.:.P Y [ T W W T G N G N # ; E [ W [ W [ ",
"% % ; # * # # # # O o * % = ; + % %.E.XXOXXXoXoXoXoXoXoXoXoXoXoXoXoXoXoXoXoXoXoXoXoXoXOX{.p., + ; ; # # O O O O @ @ % # ; # = = ",
"@ * # % # # = # O O O O = # X < Y.OXXXXXoXOXoXoXoXoXoXoXoXoXoXoXoXoXoXoXoXoXoXoXoXoXoXoXoXOX}.w.o + ; # = O O # % # O O O O O O ",
"@ & E W G G G G G G N G f d y. XOX XoXoXoXoXoXoXoXoXoXoXoXoXoXoXoXoXoXoXoXoXoXoXoXoXoXoXoXoXoXOXU.3 I [ G N G G G N G G G G G v ",
"@ ; ) ' L H H H C C A x Z V.OXoXoXoXoXoXoXoXoXoXoXoXoXoXoXoXoXoXoXoXoXoXoXoXoXoXoXoXoXoXoXoXoXoXOX[.1./ L C H C C C A C C C C A ",
"@ ; ) _ H H H H C Z z x T.OXoXoXoXoXoXoXoXoXoXoXoXoXoXoXoXoXoXoXoXoXoXoXoXoXoXoXoXoXoXoXoXoXoXoXoXoXXXr.l C C H H H H H C H G C ",
"@ ; [ _ L H H H H C k x.OX XoXoXoXoXoXoXoXoXoXoXoXoXoXoXoXoXoXoXoXoXoXoXoXoXoXoXoXoXoXoXoXoXoXoXoXoXoXoXy.l H H H H H H H z H C ",
"* ; [ ' _ _ { _ { ( <.OXoXoXoXoXoXoXoXoXoXoXoXoXoXoXoXoXoXoXoXoXoXoXoXoXoXoXoXoXoXoXoXoXoXoXoXoXoXoXoXoXoXk.U | { _ _ ) A x H H ",
"@ ; Y [ W T W [ W R ].OX XoXoXoXoXoXoXoXoXoXoXoXoXoXoXoXoXoXoXoXoXoXoXoXoXoXoXoXoXoXoXoXoXoXoXoXoXoXoXoXoXXX1.Y [ W W T H v G N ",
"@ @ # % - # : ; + 9.OX XoXoXoXoXoXoXoXoXoXoXoXoXoXoXoXoXoXoXoXoXoXoXoXoXoXoXoXoXoXoXoXoXoXoXoXoXoXoXoXoX XoX[., # : # # O O O O ",
"# % # # # # # O * /.OXoXoXoXoXoXoXoXoXoXoXoXoXoXoXoXoXoXoXoXoXoXoXoXoXoXoXoXoXoXoXoXoXoXoXoXoXoXoXoXoXoXoX XOXU.@ @ ; & = # # # ",
"G G G G G G J p 4 OX XoXoXoXoXoXoXoXoXoXoXoXoXoXoXoXoXoXoXoXoXoXoXoXoXoXoXoXoXoXoXoXoXoXoXoXoXoXoXoXoXoXoXoXoXOXw.+ Q T H G N G ",
"C H C H H H A a p.OX XoXoXoXoXoXoXoXoXoXoXoXoXoXoXoXoXoXoXoXoXoXoXoXoXoXoXoXoXoXoXoXoXoXoXoXoXoXoXoXoXoXoXoXoXoX}., R | H H C C ",
"H H H H H H l ..oXoXoXoXoXoXoXoXoXoXoXoXoXoXoXoXoXoXoXoXoXoXoXoXoXoXoXoXoXoXoXoXoXoXoXoXoXoXoXoXoXoXoXoXoXoXoXoXOXp.P { H H H H ",
"H H H H z H y M.OX XoXoXoXoXoXoXoXoXoXoXoXoXoXoXoXoXoXoXoXoXoXoXoXoXoXoXoXoXoXoXoXoXoXoXoXoXoXoXoXoXoXoXoXoXoXoXoX|.>.( L H H H ",
"_ _ { _ L k O.oXoXoXoXoXoXoXoXoXoXoXoXoXoXoXoXoXoXoXoXoXoXoXoXoXoXoXoXoXoXoXoXoXoXoXoXoXoXoXoXoXoXoXoXoXoXoXoXoXoXOXB.( { { { { ",
"[ W [ W J V V.OXoXoXoXoXoXoXoXoXoXoXoXoXoXoXoXoXoXoXoXoXoXoXoXoXoXoXoXoXoXoXoXoXoXoXoXoXoXoXoXoXoXoXoXoXoXoXoXoXoXoX[.-.) [ W [ ",
"; % = ; + 4 oXoXoXoXoXoXoXoXoXoXoXoXoXoXoXoXoXoXoXoXoXoXoXoXoXoXoXoXoXoXoXoXoXoXoXoXoXoXoXoXoXoXoXoXoXoXoXoXoXoXoXoXOX8 + ; = = ",
"@ @ = ; + s.OXoXoXoXoXoXoXoXoXoXoXoXoXoXoXoXoXoXoXoXoXoXoXoXoXoXoXoXoXoXoXoXoXoXoXoXoXoXoXoXoXoXoXoXoXoXoXoXoXoXoXoXOXa.+ = O = ",
"o ; E T n /.oXoXoXoXoXoXoXoXoXoXoXoXoXoXoXoXoXoXoXoXoXoXoXoXoXoXoXoXoXoXoXoXoXoXoXoXoXoXoXoXoXoXoXoXoXoXoXoXoXoXoXoXoX[.m l G v ",
"@ & [ ( &.OXoXoXoXoXoXoXoXoXoXoXoXoXoXoXoXoXoXoXoXoXoXoXoXoXoXoXoXoXoXoXoXoXoXoXoXoXoXoXoXoXoXoXoXoXoXoXoXoXoXoXoXoXoXOX&.k C A ",
"@ ; [ U z.OX.X XoXoXoXoXoXoXoXoXoXoXoXoXoXoXoXoXoXoXoXoXoXoXoXoXoXoXoXoXoXoXoXoXoXoXoXoXoXoXoXoXoXoXoXoXoXoXoXoXoXoXoXOXl.j H H ",
"@ ; W ! ).,X$X+X@X+XoX X X X XoXoXoXoXoXoXoXoXoXoXoXoXoXoXoXoXoXoXoXoXoXoXoXoXoXoXoXoXoXoXoXoXoXoXoXoXoXoXoXoXoXoXoXoXOXB.l H C ",
"@ & _  .4.G.L.;X;X1X2X3X<X<X$X#X#X@X+XoX X X|.oX X XoXoXoXoXoXoXoXoXoXoXoXoXoXoXoXoXoXoXoXoXoXoXoXoXoXoXoXoXoXoXoXoX XOX!.G H H ",
"@ ; E ) U U T U T ! ;.>.=.6.S.H.&X*X1X2X<X<X,X$X#X@X+XoXoXoX X X XoXoXoXoXoXoXoXoXoXoXoXoXoXoXoXoXoXoXoXoXoXoXoXoXoXoXoX(.b G G ",
"@ @ # # - - - : % % O $ X X X X @ @ > 1 0 q 0.f.6X&X-X1X3X<X,X$X$X@XoXoXOXoXoXoXoXoXoXoXoXoXoXoXoXoXoXoXoXoXoXoXoXoXoXoX[.1 + O ",
"& % # # # # # # @ @ ; ; ; = ; - & # - o + X X X o * > 2 0 w q.d.g.&X'.`.(.oXoXoXoXoXoXoXoXoXoXoXoXoXoXoXoXoXoXoXoXoXoXOX}.2 o # ",
"G N G G G G H V O % E W J G G G G G G G J J K B = = Y U a i i r t c m o.B.|.oXoXoXoXoXoXoXoXoXoXoXoXoXoXoXoXoXoXoXoXoXoX}.D l G ",
"H A L H H H A N O ; [ | A C L H C x z k j l g d O   ~ :.o.*.r.n.!._. XoXOXoXoXoXoXoXoXoXoXoXoXoXoXoXoXoXoXoXoXoXoXoXoXoX}.D z C ",
"H H H H Z H H H o + U ( l u s y v n m X.%.y.t.m.U.E.[.{.oXOXOXOXOXOXoXoXoXoXoXoXoXoXoXoXoXoXoXoXoXoXoXoXoXoXoXoXoXoXoXoX}.S k H ",
"H L H z j s f V   2 :.1.*.r.N.C.R./.[.oXOXOXOXOXOXOXoXoXoXoXoXoXoXoXoXoXoXoXoXoXoXoXoXoXoXoXoXoXoXoXoXoXoXoXoXoXoXoXoXOX).Z L H ",
"{ { _ ;.r.t.V.T./.[.{.XXOXOXOXOXOXOXoXoX XoXoX XoXoXoXoXoXoXoXoXoXoXoXoXoXoXoXoXoXoXoXoXoXoXoXoXoXoXoXoXoXoXoXoXoXoXoXOXZ._ { _ ",
"W W / >.@XOXOXOXoXoXOXoXoX XoXoX XoXoXoXoXoXoXoXoXoXoXoXoXoXoXoXoXoXoXoXoXoXoXoXoXoXoXoXoXoXoXoXoXoXoXoXoXoXoXoXoXoXoXOXZ.R [ [ ",
"; ; = ; Q.OX X XoXoXoXoXoXoXoXoXoXoXoXoXoXoXoXoXoXoXoXoXoXoXoXoXoXoXoXoXoXoXoXoXoXoXoXoXoXoXoXoXoXoXoXoXoXoXoXoXoXoX XOX9.+ : - ",
"@ * = X i.@X XoXoXoXoXoXoXoXoXoXoXoXoXoXoXoXoXoXoXoXoXoXoXoXoXoXoXoXoXoXoXoXoXoXoXoXoXoXoXoXoXoXoXoXoXoXoXoXoXoXoXoXoXoX4 + = # ",
"@ & E R #.$XoXoXoXoXoXoXoXoXoXoXoXoXoXoXoXoXoXoXoXoXoXoXoXoXoXoXoXoXoXoXoXoXoXoXoXoXoXoXoXoXoXoXoXoXoXoXoXoXoXoXoXoXoX`.B G N G ",
"@ & { | C '.@X XoXoXoXoXoXoXoXoXoXoXoXoXoXoXoXoXoXoXoXoXoXoXoXoXoXoXoXoXoXoXoXoXoXoXoXoXoXoXoXoXoXoXoXoXoXoXoXoXoXoXOXn.g A C C ",
"@ & W { g 3.,X XoXoXoXoXoXoXoXoXoXoXoXoXoXoXoXoXoXoXoXoXoXoXoXoXoXoXoXoXoXoXoXoXoXoXoXoXoXoXoXoXoXoXoXoXoXoXoXoXoXoXOX$.k H J C ",
"@ : W { x F >X+XoXoXoXoXoXoXoXoXoXoXoXoXoXoXoXoXoXoXoXoXoXoXoXoXoXoXoXoXoXoXoXoXoXoXoXoXoXoXoXoXoXoXoXoXoXoXoXoXoXOX~.Z C H C G ",
"@ ; [ ' _ ( b.$XoXoXoXoXoXoXoXoXoXoXoXoXoXoXoXoXoXoXoXoXoXoXoXoXoXoXoXoXoXoXoXoXoXoXoXoXoXoXoXoXoXoXoXoXoXoXoXoX X@X4.` A x C H ",
"@ ; E ) T ) ! `.oX XoXoXoXoXoXoXoXoXoXoXoXoXoXoXoXoXoXoXoXoXoXoXoXoXoXoXoXoXoXoXoXoXoXoXoXoXoXoXoXoXoXoXoXoXoXoXOX`.Q T J N G G ",
"@ @ & & # ; + e.OXoXoXoXoXoXoXoXoXoXoXoXoXoXoXoXoXoXoXoXoXoXoXoXoXoXoXoXoXoXoXoXoXoXoXoXoXoXoXoXoXoXoXoXoXoXoX X@X9 + ; O O O O ",
"% % # # # & + 0 OXoXoXoXoXoXoXoXoXoXoXoXoXoXoXoXoXoXoXoXoXoXoXoXoXoXoXoXoXoXoXoXoXoXoXoXoXoXoXoXoXoXoXoXoXoXoX@XW.@ # ; O # O # ",
"N G G N G G G p p.OXoXoXoXoXoXoXoXoXoXoXoXoXoXoXoXoXoXoXoXoXoXoXoXoXoXoXoXoXoXoXoXoXoXoXoXoXoXoXoXoXoXoXoXoXoX#X< + E W H G N G ",
"A C C A H H L f 2 OXoXoXoXoXoXoXoXoXoXoXoXoXoXoXoXoXoXoXoXoXoXoXoXoXoXoXoXoXoXoXoXoXoXoXoXoXoXoXoXoXoXoXoX X#Xc.X = [ | H H C C ",
"C H H H H H L G + u.OX|.oXoXoXoXoXoXoXoXoXoXoXoXoXoXoXoXoXoXoXoXoXoXoXoXoXoXoXoXoXoXoXoXoXoXoXoXoXoXoXoX X#XZ.N # = W { H H H H ",
"H H L H H H H N # & ~.OX XoXoXoXoXoXoXoXoXoXoXoXoXoXoXoXoXoXoXoXoXoXoXoXoXoXoXoXoXoXoXoXoXoXoXoXoXoXoX X#X'.K N = # W _ L H H H ",
"_ _ _ _ H H L G = # ,..XoX XoXoXoXoXoXoXoXoXoXoXoXoXoXoXoXoXoXoXoXoXoXoXoXoXoXoXoXoXoXoXoXoXoXoXoXoX X#X=XF z G O O ) | _ { { _ ",
"W [ [ T G N G N # # I <.OXoXoXoXoXoXoXoXoXoXoXoXoXoXoXoXoXoXoXoXoXoXoXoXoXoXoXoXoXoXoXoXoXoXoXoXoX X$X=XD f G N O = E [ W [ W [ ",
"; % # # O O O # @ @ ; + 7 <X+X XoXoXoXoXoXoXoXoXoXoXoXoXoXoXoXoXoXoXoXoXoXoXoXoXoXoXoXoXoXoXoXoXoX,X*X. + = O O @ @ % # ; = O = ",
"@ @ = ; = O O = # # O = X 5 1X$X X XoXoXoXoXoXoXoXoXoXoXoXoXoXoXoXoXoXoXoXoXoXoXoXoXoXoXoXoX XOX<Xi.% o = O = # # # O O O O O O ",
"@ % E T G N G G G G G G J d S K.3X+X XoXoXoXoXoXoXoXoXoXoXoXoXoXoXoXoXoXoXoXoXoXoXoXoXoX XoX,X1Xe X E W G G G G G G G G G G G G ",
"o ; ) ' L H H C C C C C C C h y e -X<X@X XoXoXoXoXoXoXoXoXoXoXoXoXoXoXoXoXoXoXoXoXoX XoX,X5XA.D X ; [ ' L C H C C C C C C C C C ",
"* ; ) _ H H H H H H H H C C C G + > G.;X3X#XoXoX XoXoXoXoXoXoXoXoXoXoXoXoXoXoXoX X+X,X5XK.@.h f = = W _ H H C H H H H C C C C l ",
"@ ; [ _ L C C H H C H C C G L v - & U } 6.:X4X3X$XOXoX X X.X XoXoX X X XoXoX@X,X5X1XA.+.k l L G = = [ _ L C H H C H H C C G C C ",
"@ ; W _ _ ) ) _ [ _ _ ) H H C G @ ; W ' ^ ` ,.D.P.9X9X5X<X,X,X,X,X,X<X3X4X9X7XL.7.] ` U L C H G # & W ' _ ) ) _ [ ) _ ) C H H H ",
"@ : ) | { { { { { { { { H H z G # : W | { ' ( ( ^ ] 5.8.S.S.J.J.6Xh.F.D.7.,._ ^ ( _ { { H H L G @ : T | { { { { | { | [ H H H H "
};
