/* XPM */
static char *output_onlinepngtools1708260263[] = {
/* columns rows colors chars-per-pixel */
"64 64 147 2 ",
"   c #050101",
".  c #0A0201",
"X  c #000906",
"o  c #010D0B",
"O  c #1F0602",
"+  c #0F1408",
"@  c #0E190A",
"#  c #141400",
"$  c #101408",
"%  c #011A16",
"&  c #021B19",
"*  c #200603",
"=  c #280705",
"-  c #2D0905",
";  c #360B06",
":  c #3A1604",
">  c #3B1A04",
",  c #022316",
"<  c #02221C",
"1  c #08221C",
"2  c #1A2711",
"3  c #02301D",
"4  c #292A0E",
"5  c #362A01",
"6  c #3B2901",
"7  c #21310D",
"8  c #2D3B0C",
"9  c #393900",
"0  c #032420",
"q  c #022D24",
"w  c #0D2D22",
"e  c #022F29",
"r  c #082E2D",
"t  c #122F22",
"y  c #033223",
"u  c #02312A",
"i  c #003132",
"p  c #480E06",
"a  c #4A0F09",
"s  c #4B1008",
"d  c #5B1307",
"f  c #5C1209",
"g  c #631D06",
"h  c #641409",
"j  c #6C150A",
"k  c #75170B",
"l  c #79160E",
"z  c #721B08",
"x  c #7C190D",
"c  c #4D2601",
"v  c #502700",
"b  c #592B05",
"n  c #5D3304",
"m  c #622107",
"M  c #732508",
"N  c #6F3102",
"B  c #703102",
"V  c #743900",
"C  c #464500",
"Z  c #534506",
"A  c #5B4200",
"S  c #5B5600",
"D  c #6D4303",
"F  c #765C03",
"G  c #785904",
"H  c #696E05",
"J  c #7D6D02",
"K  c #821A0D",
"L  c #8B1D0B",
"P  c #941E0E",
"I  c #9C1F0F",
"U  c #801714",
"Y  c #881810",
"T  c #951E11",
"R  c #9B1D12",
"E  c #AB1D0C",
"W  c #A41F12",
"Q  c #AC1F13",
"!  c #B31C1C",
"~  c #812E0B",
"^  c #9F200C",
"/  c #833C01",
"(  c #A7200D",
")  c #A8230D",
"_  c #A72312",
"`  c #AB2210",
"'  c #BA2616",
"]  c #B02319",
"[  c #BF2B1B",
"{  c #CB2918",
"}  c #D12816",
"|  c #D62B19",
" . c #DA2B18",
".. c #DB311F",
"X. c #EB2C1D",
"o. c #F42D14",
"O. c #F32E1A",
"+. c #ED311B",
"@. c #F03017",
"#. c #FB3318",
"$. c #E12924",
"%. c #EF2B25",
"&. c #F02C26",
"*. c #9E5600",
"=. c #B05600",
"-. c #926500",
";. c #926D00",
":. c #897903",
">. c #B36C00",
",. c #C56000",
"<. c #CE6500",
"1. c #F47700",
"2. c #928300",
"3. c #939300",
"4. c #AE8200",
"5. c #B28400",
"6. c #B38E00",
"7. c #AAA200",
"8. c #B2AF00",
"9. c #B9B800",
"0. c #D78700",
"q. c #D19C00",
"w. c #E38700",
"e. c #F68B00",
"r. c #FF9100",
"t. c #FF9A00",
"y. c #D7A100",
"u. c #D8A900",
"i. c #EAA700",
"p. c #EAAE00",
"a. c orange",
"s. c #FCAD00",
"d. c #F5B600",
"f. c #FFB200",
"g. c #FFBE00",
"h. c #DFC500",
"j. c #D0CB00",
"k. c #E0C600",
"l. c #EAC400",
"z. c #FFC600",
"x. c #FECE00",
"c. c #FFD100",
"v. c #FFDA00",
"b. c #F4E600",
"n. c #FFED00",
"m. c #FFF100",
"M. c #FFFA00",
/* pixels */
"e e e e u u e e e e u e e e e e e e e e e e e e e e e e e e e e e e e e e e e e e e e e e e e e e e e e u e e u e e e e e e e e ",
"3 3 3 3 3 3 3 3 3 3 w e q e 3 3 3 y 3 3 3 3 3 u q y q e e 3 3 3 3 3 3 3 3 3 3 u e e y e q 3 3 3 3 3 3 3 3 3 3 u 3 e q e e 3 3 3 ",
"` ) ) ` ` ` ` ` ) ` q e O.+.E ) ` ` ` ` ) ` ` ) e e &.X.Q ` ` ` E ` ` ` ` ` ) ( u e %.+.E ` ` ` ` ` ) E ` ` ` ) e e %.+.Q ` ) Q ",
"` ` ` ` ` ` ` ` ) ) 3 e @.+.Q ` ` ` ` ` ) ` ` ) e e &.+.` ` ` ` ` ` ` ` ` ` ) ) r e %.+.Q ` ` ` ` ` ` ` ` ` ) ) r e %.+.E ` ` ) ",
"` ` ` ` ` ` ` ` ` ` 3 e @.+.E ` ` ` ` _ ` ` ) ) u e %.X.) ` ` ` ` ` ` ` ` ) ` ) e u %.+.` ` ) ) ` ` ` ` ` ` ` ) e u &.X.Q ) ` ` ",
"( E ` ` ` ` ` ` ` ) y e @.+._ ) E ) ( ` ` ` ` ) r e %.+.] E ( E ( ( ( ] ` ` ` ) r e %.X.] ( E ( ( ( ` ` ` ` ` ) r e &.+.] E ( ( ",
"+.+.X.+.` ` ` ` ` ` y e @.+.X.+.+.+.+.+.` ` ` ) r u %.+.+.+.+.+.+.+.+.@.` ` ` ) u u &.+.X.+.X.+.+.X.+.+.` ` ` ) e e &.+.+.X.+.+.",
"O.O.O.o.` ) ) ` ) ) r e #.O.O.O.O.O.O.o.) ) _ ! 3 u ..O.O.O.O.O.O.O.O.o.) ) ) ! 3 e ..O.O.O.O.O.O.O.O.o.) ` ) ! y e ..O.O.O.O.O.",
"u u e u e e r r r e w e i e e u u u u u e e e y r e t u e u y u u u u u r i e y r e t e u u u u e u u u e e u y r e t u u u u u ",
"e e e e e e e u e e e e e e e e u u e q e e e e e e e e e e e e e e e e e e e e e e e e e e e e e e e e e u e u e e e e e e e q ",
"e y &.%.Q Q ` ` Q Q Q Q Q Q Q Q u y &.X.Q Q Q Q Q Q Q Q Q Q Q Q u u %.X.Q Q ` ` Q Q Q Q Q Q Q Q e y &.%.Q Q ` ` Q Q Q Q Q Q Q Q ",
"e u +.+.` _ ` ` ` ` ` ` ` ` ` ) u r +.+.` ` ` ` Q ) ` ` ` ` ` ` e u +.+.` ` ` ` ` ` ` ) ` ` ` ` e u +.+.` ` ` ` ) ` ` ` ` ` ) ) ",
"e r +.+.` ` ` ` ` ` ` ) ` ` ` ` y r +.+.` ` ` ) ) ` ` ` ` ` ) ` e u +.+.` ` ` ` ` ` ` ` ` ` ` ` e r +.+.` ` ` ` ` ` ` ) ` ` ` ` ",
"e u +.+.) ) ` ` ` ` ` ) ` ` ` ` u r +.+.` ` ` ) ` ` ` ` ` ` Q ` u r +.+.` ` ` ) ` ` ` ` ` ` ` ) e u +.+.` ` ` ` ` ` ` ) ` ` ` ` ",
"u r +.+.+.+.+.+.+.+.+.+.E ` ` ` u u +.+.+.+.+.+.+.+.+.+.E ) ` ) y r +.+.+.+.+.+.+.+.+.+.E ` ` ` u r +.+.+.+.+.+.+.+.+.+.E ` ` ` ",
"u r +.+.+.+.+.+.+.+.+.X.Q ` ` ` u r +.+.+.+.+.+.+.X.+.+.Q ` ` Q e r +.+.+.+.+.+.+.+.+.+.` ` ` ` u r +.+.+.+.+.+.+.@.+.X.Q ` ` ` ",
"u u e e e e e e e e e e e e e e e e e e e e e e e e e e e e q e e e e e e e u u e e e e e e e u u u e e e e e u e e e e e e e e ",
"3 3 3 3 3 3 3 u y e e e e 3 3 3 3 3 3 3 3 3 3 u y e q e e 3 3 3 3 3 3 3 3 3 3 u y e q e e 3 3 3 3 3 3 3 3 3 3 u y e q e e 3 3 3 ",
") ` ` ` ) Q ) ) u e &.+.E ` ` ` ) ` ` ` ` ` ) ( r e $. .I I I I I I ^ I I ^ ( ) e e %.+.E ` ` ` ` ` ) ) ` ` ` ) e e &.+.Q ` ) ) ",
") ` ` ` ` ) ) ) r e &.X.Q E ` ` ` ` ` ` ` ) ) ) i 0 U h p p p p p p p p p h P ) e e &.X.Q ` ` ` ` ` ` ) ` ` ) ) e e &.X.Q ` ` E ",
"` ` ` ` ` ` ` ) e e %.+.Q ` ) ) ` ` ` ` ` ` ` ( e 1 : # # # # # # # # # # > K ^ r e %.X.E ` ` ` ` ` ` ` ` ` ` ) r e &.+.E ` ` ` ",
"( E ) ] ` ` ) ) r e %.+.` E ) ( ) ) ) ` ` ` ` L % 8 :.3.3.3.3.3.3.3.3.3.3.J b h q e &.+.] ( ( ( E E ( ] ` ` ` ) e e %.+.] ) ( E ",
"+.+.O.+.` ` ` ) u e &.+.+.+.+.X.X.+.X.+.` ` ( z + S j.M.M.M.M.M.M.M.M.M.M.9.C > 1 e %.X.+.+.X.+.+.+.+.+.` ` ` ) e e &.+.X.+.+.+.",
"O.O.O.o.) ) ) ! y e ..O.O.O.O.O.O.O.O.O.) L f b G 6.l.v.v.v.v.v.v.v.v.v.v.h.7.J 7 % [ O.O.O.O.O.O.O.O.o.) ) ) ! y e ..O.O.O.O.O.",
"u u u u r i e y r e t e u u u u u u u u e 1 $ A q.g.z.g.g.g.g.g.g.g.g.z.g.x.n.9.C @ 1 u u u u e u u u u e r u y r e t u u u u u ",
"e e e e u e e e e e e e e e e e e e u < % 4 F 5.p.g.g.g.g.g.z.g.g.g.g.g.g.z.c.k.7.H 7 & q q e e q e e e e e e u e e e e e e e q ",
"e u %.X.Q Q ` ` Q Q Q Q Q Q Q Q e u $.R - A q.g.g.g.g.g.g.g.g.g.g.g.g.g.g.g.g.x.n.9.C : K W Q Q e y &.%.Q Q ` ` Q Q Q Q Q Q Q Q ",
"e u +.+.` ` ` ` ` ` ` ) ` ` ` ` e q x M / >.i.g.g.g.g.g.g.g.g.g.g.g.g.g.g.g.g.z.c.h.7.J b h P ) u u +.+.` ` ` ` ` ` ` ` ` ) ` ) ",
"e u +.+.` ` ` ` ` ` ` ` ` ` ` ` e 1 - c <.r.f.g.g.g.g.g.g.g.g.g.g.g.g.g.g.g.g.g.g.x.m.9.9 ; K ` e r +.+.` ` ` ` ` ` ` ` ` ` ` ` ",
"u r +.+.` ` ` ) ` ` ` ) ` ` ` ` e < - v <.r.f.g.g.g.g.g.g.g.g.g.g.g.g.g.g.g.g.g.g.c.m.9.9 - L ` e u +.+.) ) ` ` ` ` ` ) ` ` ` ` ",
"y r +.+.+.+.+.+.+.+.+.+.) ` ` ` e 0 - v <.r.s.g.g.g.g.g.g.g.g.g.g.g.g.g.g.g.g.g.g.c.n.9.9 - K ` u r +.+.+.+.+.+.+.+.+.+.E ` ` ` ",
"e r +.+.+.+.+.+.X.+.+.+.E ` ` ` e 0 - c <.r.f.g.g.g.g.g.g.g.g.g.g.g.g.z.g.g.g.g.g.c.m.9.9 - K ) u r +.+.+.+.+.+.+.+.+.X.Q ` ` ` ",
"e e e e e e u u e e e e e e e e u & X c <.r.f.g.g.g.g.g.g.g.g.g.g.g.g.g.g.g.g.g.g.c.m.9.9 o 0 e e e e e e e e e e e u e e e e e ",
"3 3 3 3 3 3 3 y q e y e e 3 3 3 3 , X v <.r.f.g.g.g.g.g.g.g.g.g.g.g.g.g.g.g.g.g.g.c.m.9.9 o , 3 3 3 3 3 3 3 3 u y e q e q 3 3 3 ",
") ) ` ` ) ` ` ) u e %.X.Q ) ` ` ) k * v <.r.f.g.g.g.g.g.g.g.g.g.g.g.g.g.g.g.g.g.g.c.m.9.9 - K ` ` ` ) ` ` ` ` ) e e &.@.Q ` ) ` ",
"` ` ` ` ` ` ` ) e e %.+.Q E ` ) ) l * v <.r.f.g.g.g.g.g.g.g.g.g.g.g.g.g.g.g.g.g.g.c.m.9.9 - K ) ` ` ` ` ` ` ` ) r e &.X.E ` ` ` ",
"` ` ` ` ` ` ` ) r e %.+.` ` ` _ ` k * v <.r.f.g.z.g.g.g.g.g.g.g.g.g.g.g.g.g.g.g.g.x.n.9.9 ; K ) ` ` ) ) ` ` ` ) u e &.X.Q ) ` ` ",
"E ( ` ` ` ` ` ) r u %.X.] E E ( E k O v <.r.s.g.g.g.g.g.g.g.g.g.g.g.g.g.g.g.g.g.g.x.m.9.9 - K ( ) E ) ] ` ` ` ) r e &.+.] E ( ( ",
"+.+.X.+.` ` ` ) e e %.+.+.+.+.X.X.Q ; b ,.e.s.g.g.g.g.g.g.g.g.g.g.g.g.g.g.g.g.z.g.x.b.8.9 a ' X.X.+.+.+.` ` ` ) e e %.+.+.+.+.X.",
"O.O.O.@.) ) ) ! 3 u ..O.O.O.O.O.O.} I M N *.w.a.f.g.g.g.g.g.g.g.g.g.g.g.g.g.g.g.g.u.2.F ~ W  .O.O.O.O.o.) ) ) ! y e ..O.O.O.O.O.",
"u u u u e e e y r e t u u e u u u u e < X c =.r.s.g.g.g.g.g.g.g.g.g.g.g.g.g.g.d.d.4.5 o 0 u u u u u u u e e u y r e t u u u u u ",
"e e e u e e e e e r e e e e e e e e e q & 4 n *.w.a.f.g.g.z.g.g.g.g.g.g.g.g.g.y.;.Z 2 < q e e e e e e e e e e u e e e e e e e q ",
"e u &.X.Q Q Q Q Q Q Q ` Q Q Q Q q u &.X.Q l = v ,.e.s.g.g.f.g.g.f.g.g.g.g.f.d.5.6 ; Y _ Q Q Q Q e y &.%.Q Q ` ` Q Q Q Q Q Q Q Q ",
"e u +.@.` ` ` ` ` ` ` ` ) ) ` ` u u +.@.` T j g N *.w.t.t.t.t.t.t.t.t.t.t.0.-.D m k R ` ` ` ` ` e u +.+.` ` ` ` ) ` ` ` ` ` ) ) ",
"u u +.+.` ` ` ` ` ` ` ` ` ` ` ` u r +.+.` ` ` l = v ,.1.1.1.1.1.1.1.1.1.1.=.6 ; L ` ` ` ` ` ` ` e r +.+.` ` ` ` ` ` ) ` ` ` ` ` ",
"u u +.+.` ` ` ` ) ) ` ` ` ` ` ` u u +.+.` ` ) P j m B V V V V V V V V V V N d k I ` ` ) ` ` ` ` e u +.+.` ` ` ` ` ` ` ) ` ` ` ` ",
"u r +.X.+.+.+.+.+.+.+.+.) ) ` ` u r +.X.+.+.+.+.+._ ; .   . .       . . . s ' +.+.+.+.+.E ` ` ` u r +.+.+.+.+.+.+.+.+.+.E ` ` ` ",
"u r +.+.+.+.+.+.+.+.+.+.Q ` ` ` y r +.+.+.+.+.+.X.{ T K f f f f % % x U x _ | +.+.+.+.+.` ` ` ` u r +.+.+.+.+.+.+.@.+.X.Q ` ` ` ",
"u u e e u u e e e e e e e e e e e e e e e e e e e e e e e e e e e e e e e e u u u q e e e e e e u u e e u e e u e e u e e e e e ",
"3 3 3 3 3 3 3 u 3 e q e e 3 3 3 3 y 3 3 3 3 3 u y e q e e 3 3 3 3 3 3 3 3 3 3 u y u q e e 3 3 3 3 3 3 3 3 3 3 u y q q e q 3 3 3 ",
"` ` ) ) ` ` ) ) e e &.+.E ` ) ` ` ` ` ` ) ` ` ) u q &.X.Q ) ` ` E ` ` ` ) ) ` ) e e &.X.Q ) ` ` ` ` ) ) ` ` ` ) e u %.+.Q ` ) ) ",
") ` ` ) ` ` ` ) u e &.X.Q ` ` ` ` ` ` ` ) ` ` ) e e &.+.Q ` ` ` ` ` ` ` ` ) ) ) e e &.X.Q ` ` ` ` ` ` ` ` ` ` ) r e %.X.E ` ) Q ",
"Q ` ` ` ` ` ` ) e e &.+.Q ) ` ` ` ` ` ` ` ` ` ) r e &.+.E ) ` ` ` ` ` ` ` ` ` ) r e &.X.E ` ` ` ` ` ` ` ` ` ` ) e e &.+.Q ` ` ` ",
") E ` ` ` ` ` ) r e &.X.] E ( ( ( ( ( ` ` ` ` ) e e &.+.] ) ( ( ) E _ ` ` ` ` ) e e &.@.] ( ( ( ( E ` ` ` ` ` ) r e &.+.] E ( ( ",
"O.+.X.+.` ` ` ) u e &.+.+.+.+.X.+.+.+.@.` ` ` ) u e &.X.X.+.+.O.+.@.X.+.` ` ) ) r e &.+.+.+.+.X.+.X.+.+.` ` ` ) e e &.+.X.+.+.+.",
"O.O.O.o.) ) ` ! y e ..O.O.O.O.O.O.O.@.O.) ) ( ! y u ..O.O.O.O.O.O.O.O.@.) ) ) ! y e ..O.O.O.O.O.O.O.O.o.) ) ) ! y e ..O.O.O.O.O.",
"u u u u e e u y r e t u u u u y u y u u e e e y r e t e u u u u u u u u e e e y r e t e u u e u y u u u r e u 3 r e t u u u u y ",
"e e e e e e e r e e e e e e e e e e e e e e e e e e e e e e e e e e e u e e e e u r e e e e e e e e e e e e u e e e e e e e e e ",
"e y &.%.Q Q ` ` Q Q Q Q Q Q Q Q u u &.+.Q Q Q Q Q Q Q Q Q Q ` Q e u &.X.Q Q Q Q Q Q Q ` Q Q Q Q e y %.%.Q Q ] Q Q Q Q Q Q Q Q Q ",
"e u +.+.` ` ` ` ) ` ` ` ` ` ` ) u u +.+.` ` ` ` ) Q ` ` ) ) ` ` e u +.@.` ` ` ` ` ` ` ` ) ) ` ` e u +.+.` ` ` ` ` ` ` ` ` ` ) ) ",
"e r +.+.` ` ` ` ` ` ` ) ` ` ` ` u r +.+.` ` ` ) ` ` ` ` ` ` ` ` u u +.+.` ` ` ` ` ` ` ` ` ) ` ` e r +.+.` ` ` ` ` ` ` ) ` ` ` ` ",
"e u +.+.) ) ` ` ` ` ` ) ` ` ` ` u r +.+.` ` ` ) ` ` ` ` ` ` ` ` u u +.+.` ` ` ` ` ) ` ` ` ` ` ` e u +.+.` ) ) ` ` ` ` ) ` ` ` ` ",
"u r +.+.+.+.+.+.+.+.+.+.E ` ` ` e r +.+.+.+.+.+.+.+.+.+.E ` ` ` u r +.X.+.+.+.+.+.+.+.+.E ` ` ` u r +.+.+.+.+.+.+.+.+.+.E ` ` ` ",
"u r +.+.+.+.+.+.+.+.+.X.Q ` ` ` u u +.+.+.+.+.+.+.X.+.+.` ` ` ) u r +.+.+.+.+.+.+.+.+.+.` ` ` ` u r +.+.+.+.+.+.+.+.+.X.Q ` ` ` "
};
