/* XPM */
static char *output_onlinepngtools__1_1708260263[] = {
/* columns rows colors chars-per-pixel */
"64 64 144 2 ",
"   c #000A07",
".  c #010B09",
"X  c #1E0603",
"o  c #021512",
"O  c #021F1D",
"+  c #270704",
"@  c #280804",
"#  c #340A05",
"$  c #012316",
"%  c #0F2A15",
"&  c #02231E",
"*  c #0D2219",
"=  c #162214",
"-  c #112A1A",
";  c #02301D",
":  c #292609",
">  c #2F2D09",
",  c #362205",
"<  c #3E2606",
"1  c #2F3909",
"2  c #363600",
"3  c #303B07",
"4  c #032623",
"5  c #012F23",
"6  c #0D2D22",
"7  c #022F29",
"8  c #082E2D",
"9  c #122F22",
"0  c #033223",
"q  c #02312A",
"w  c #003132",
"e  c #400D06",
"r  c #440E08",
"t  c #4E1007",
"y  c #4C1E03",
"u  c #551E03",
"i  c #59130A",
"p  c #6A1C07",
"a  c #6B1B08",
"s  c #73160B",
"d  c #7D170C",
"f  c #7D190B",
"g  c #6E1411",
"h  c #432100",
"j  c #422E00",
"k  c #4A2E03",
"l  c #5A2503",
"z  c #522800",
"x  c #443400",
"c  c #4A3003",
"v  c #423E00",
"b  c #553504",
"n  c #5A3403",
"m  c #583D05",
"M  c #6B2108",
"N  c #722209",
"B  c #3E4506",
"V  c #444400",
"C  c #694E00",
"Z  c #7E4300",
"A  c #7E4E00",
"S  c #6A5900",
"D  c #6A6700",
"F  c #7E6D00",
"G  c #851A0C",
"H  c #8C1C0C",
"J  c #9C1F0F",
"K  c #841514",
"L  c #821911",
"P  c #911A11",
"I  c #AB1D0C",
"U  c #A21D13",
"Y  c #AC1F13",
"T  c #B31C1C",
"R  c #832E0F",
"E  c #9F2012",
"W  c #A7200D",
"Q  c #A8230D",
"!  c #A72412",
"~  c #AB2210",
"^  c #B22415",
"/  c #B92515",
"(  c #BA2815",
")  c #B02319",
"_  c #B22819",
"`  c #C8241F",
"'  c #DF2912",
"]  c #DF271D",
"[  c #DB2B19",
"{  c #DB311F",
"}  c #EB2C1D",
"|  c #F42D14",
" . c #F32E1A",
".. c #ED311B",
"X. c #F03017",
"o. c #FB3318",
"O. c #E22923",
"+. c #EF2B25",
"@. c #F02C26",
"#. c #954501",
"$. c #9E5002",
"%. c #A65001",
"&. c #886903",
"*. c #A77801",
"=. c #C25F00",
"-. c #C16E00",
";. c #D26700",
":. c #C77300",
">. c #D57B00",
",. c #DC7C00",
"<. c #968C01",
"1. c #9A8C03",
"2. c #9FA102",
"3. c #B5B500",
"4. c #C18700",
"5. c #C49200",
"6. c #CE9600",
"7. c #C29F00",
"8. c #D59900",
"9. c #FF8E00",
"0. c #FF9200",
"q. c #FF9D00",
"w. c #D6A400",
"e. c #C4B600",
"r. c #C2B800",
"t. c #C8BC00",
"y. c #ECA500",
"u. c #F4AB00",
"i. c #FFAE00",
"p. c #ECB000",
"a. c #EDBB00",
"s. c #FFB200",
"d. c #FFBE00",
"f. c #C3C300",
"g. c #CEC400",
"h. c #DCCB00",
"j. c #EDCA00",
"k. c #F4C200",
"l. c #FFC300",
"z. c #FFCE00",
"x. c #FFD100",
"c. c #FFE400",
"v. c #FFEE00",
"b. c #FFF100",
/* pixels */
"7 7 7 7 q q 7 7 7 7 q 7 7 7 7 7 7 7 7 7 7 7 7 7 7 7 7 7 7 7 7 7 7 7 7 7 7 7 7 7 7 7 7 7 7 7 7 7 7 7 7 7 7 7 0 7 7 7 7 7 7 q 7 7 ",
"; ; ; ; ; ; ; ; ; ; 6 7 5 7 ; ; ; 0 ; ; ; ; ; 0 7 7 5 7 8 ; ; ; ; ; ; ; ; ; ; 0 5 q 5 7 4 ; ; ; ; ; ; ; ; ; ; q 0 7 7 7 4 ; ; ; ",
"~ Q Q ~ ~ ~ ~ ~ Q ~ 5 7 X...I Q ~ ~ ~ ~ Q ~ ~ Q q 7 @.} Y Q ~ ~ I ~ ~ ~ ~ ~ ~ W 8 7 +...~ ~ ~ ~ ~ ~ Q ~ ~ ~ ~ W 8 7 +...Y ~ Q ~ ",
"~ ~ ~ ~ ~ ~ ~ ~ Q ~ ; 7 X.} Y ~ ~ ~ ~ ~ Q ~ ~ Q 7 5 @...~ ~ ~ ~ Q ~ ~ ~ ~ ~ ~ Q 7 q +.} ~ ~ ~ ~ ~ ~ ~ ~ ~ ~ ~ Q 7 7 +...I ~ ~ ~ ",
"~ ~ ~ ~ ~ ~ ~ ~ ~ Q ; 7 X...Y Q ~ ~ ~ ~ ~ ~ ! Q 8 7 +...~ ~ ~ ~ ~ ~ ~ ~ ~ ~ ~ Q 8 7 +...~ ~ Q ~ ~ Q ! Q ~ ~ ~ Q 8 7 +...Y Q ~ ~ ",
"W I ~ ~ ~ ~ ~ ~ ~ Q 5 7 X...~ I I Q W ~ ~ ~ ~ Q 7 7 +.} ) I W W W W ~ ~ ~ ~ Q Q 7 7 +...) W I W I I W ) ~ ~ ~ Q q 7 +...) W W I ",
"....} ..~ ~ ~ ~ ~ ~ 0 7 ................~ ~ ~ Q 8 q +.........} ........~ ~ ~ Q q q +...} ..} ..........~ ~ ~ Q 8 7 +.} ........",
" . . .| ~ Q Q Q Q Q 8 7 o. . . . . ...| Q W Q T 0 0 {  . . . . . . . .| Q Q Q T 0 7 {  . . . . . . . .| Q Q Q T 0 7 {  . . . . .",
"0 q q q 8 8 8 8 8 8 6 7 w 7 0 q q q 0 q 8 8 8 ; 8 7 9 q q 0 q q q q 0 q 8 8 7 ; 8 7 9 q q q 0 q 0 q 0 q 8 7 8 0 8 7 9 q q 0 q 0 ",
"7 7 7 0 0 7 7 8 7 7 7 7 7 7 7 7 7 q 7 7 7 7 7 7 7 7 7 7 7 7 7 7 7 7 7 7 7 7 7 7 q 7 7 7 7 7 7 7 7 7 7 7 7 7 q q 7 7 7 7 7 7 7 7 ",
"7 0 +.+.Y Y ~ ~ Y Y Y Y Y Y Y Y 7 0 @...Y Y Y Y Y Y Y Y Y Y Y Y 7 0 +.+.Y Y ) ~ Y Y Y Y Y Y Y Y 7 0 +.+.Y Y ~ ~ Y Y Y Y Y Y Y Y ",
"7 w } ..~ ! ~ ~ ~ ~ ~ ~ ~ ~ ~ ~ q q ....~ ~ ~ ~ Q Y ~ ~ ~ ~ ~ ~ 7 q ....~ ~ ~ ~ ~ ~ ~ Q ~ ~ ~ ~ 7 w ....~ ~ ~ ~ Q ~ ~ ~ ~ ~ ~ ~ ",
"7 q ....~ ~ ~ Q ~ Q ~ Q ~ ~ ~ ~ q 8 ....~ ~ ~ Q Q ~ ~ ~ Y Q ^ ~ q q ....~ ~ ~ ~ ~ ~ Q ~ ~ ~ ~ ~ 7 q ....~ ~ ~ ~ ~ ~ ~ ~ ~ ~ ~ ~ ",
"7 8 ....~ Q ~ ~ ~ ~ ~ Q ~ ~ ~ ~ q 8 ....~ ~ ~ Q ~ ~ Q Y ~ ~ I Q 7 w ....~ ~ Q Q ~ ~ ~ ~ ~ ~ ~ ~ 7 8 ....~ Q Q ~ ~ ~ Q ~ ~ ~ ~ ~ ",
"q 8 ....................I ~ ~ ~ 7 8 ....................I Q ~ Q 7 8 ....................I ~ ~ ~ q 8 ....................I ~ ~ ~ ",
"q 8 ..................} Y ~ ~ ~ 7 q ....................Y ~ ~ Y 7 8 ....................~ ~ ~ ~ q 8 ..................} Y ~ ~ ~ ",
"0 7 7 7 7 7 7 7 7 7 7 7 7 7 7 7 7 7 7 7 7 7 7 7 7 7 7 7 7 7 7 7 7 7 7 7 7 7 q 0 7 7 7 7 7 7 7 7 q 0 7 7 7 7 7 7 7 7 7 7 7 7 7 7 ",
"; ; ; ; ; ; ; 0 5 7 5 7 7 ; ; ; ; ; ; ; ; ; ; 0 5 7 5 7 4 ; ; ; ; ; ; ; ; ; ; q 5 7 7 7 4 ; ; ; ; ; ; ; ; ; ; 0 q 7 5 7 7 ; ; ; ",
"~ ~ ~ ~ ~ ~ ~ W 8 q +.} I Q ~ ~ Q ~ ~ ~ ~ ~ ~ Q 8 7 ` / G G G G G G G H G H W Q 7 7 +...~ ~ ~ ~ ~ ~ ~ ~ ~ ~ ~ Q 7 7 @...Y ~ Q I ",
"~ ~ ~ ~ ~ ~ ~ Q 7 q +...Y Q ~ ~ Y Q ~ ~ ~ ~ Q Q 8 4 g r # # # @ # # # @ # t H Q 7 7 +...Y ~ ~ ~ ~ ~ ~ ~ ~ ~ ~ Q 7 7 @.} I ~ ~ ~ ",
"~ ~ ~ Q ~ ~ ~ Q 8 7 +...~ ~ ~ ~ ~ ~ ~ ~ ~ ~ ~ U 7 % b 2 2 2 2 2 2 2 2 2 2 c N H 7 7 @.} Y Q ~ ~ ~ ~ ~ ~ ~ ~ ~ Q 8 7 +...~ ~ ~ ~ ",
"W I Q ^ ~ ~ ~ Q 7 7 +...) W W W W W ~ ~ ~ ~ Q H o 1 1.3.3.3.3.3.3.3.3.3.3.<.b t 4 7 @...) W W W W I ! ~ ~ ~ ~ Q 8 7 +...) I W W ",
"........~ ~ ~ Q q q +...} ..} ...... ...~ Q Q f . v r.b.b.b.b.b.b.b.v.v.b.g.D k - 4 O.......} ..........~ ~ ~ Q q 7 @...} ......",
" . ...| Q Q Q T 0 7 {  . . . . . . . .| Q Q Q K . x 7.x.x.x.x.x.x.x.x.x.x.j.t.<.3 o _  . . . . . . . .| Q Q Q T 0 7 {  . . . . .",
"q q 0 q 8 8 8 ; 8 7 9 0 q q 7 0 q q 0 q q 7 4 % : C 6.d.d.d.d.d.d.d.d.d.d.z.c.3.V . * q 0 q q 7 0 q 0 q 8 7 8 0 8 7 9 q q 0 7 q ",
"7 7 7 7 7 7 7 7 7 7 7 7 7 7 7 7 7 7 7 7 q & o > &.6.p.d.d.d.d.d.d.d.d.d.d.l.z.7.x . & q 7 7 7 7 7 7 7 7 7 7 q q 7 7 7 7 7 7 7 7 ",
"7 0 +.+.Y Y ) ~ Y Y Y Y Y Y Y Y q q +.] P s t m 6.d.d.d.d.d.d.d.d.d.d.d.d.d.d.8.S k N P U Y Y Y 7 0 +.+.Y Y ~ ~ Y Y Y Y Y Y Y Y ",
"7 q ....~ ~ Q ~ ~ ~ ~ ~ ~ ~ ~ ~ 7 8 ..( i u #.:.y.d.d.d.d.d.d.d.d.d.d.d.d.d.d.a.e.<.b t H ~ ~ ~ 7 w ....~ ~ ~ ~ Q ~ ~ ~ ~ ~ ~ Q ",
"7 q ....Q ~ ~ ~ ~ ~ ~ ~ ~ ~ ~ ~ 7 q ..~ @ h =.9.i.d.d.d.d.d.d.d.d.d.d.d.d.d.d.z.v.f.V + f ~ ~ ~ 7 q ....~ ~ ~ ~ ~ ~ ~ Q ~ ~ ~ ~ ",
"q w ....~ ~ ~ Q ~ ~ ~ ~ ~ ~ ~ ~ q 8 .._ @ h -.0.i.d.d.d.d.d.d.d.d.d.d.d.d.d.d.z.v.f.V + f ~ ~ ~ 7 8 ....Q Q ~ ~ ~ ~ ~ Q ~ ~ ~ ~ ",
"7 8 ....................I ~ ! ~ q 8 ..~ # h ;.0.i.d.d.d.d.d.d.d.d.d.d.d.d.d.d.z.v.f.V # d Q ~ ~ q 8 ....................I ~ ~ ~ ",
"7 8 ....................~ ~ Q ~ 7 8 ..~ # h %.0.i.d.d.d.d.d.d.d.d.d.d.d.d.d.l.z.v.f.V # G ~ ~ Q q 8 ..................} Y ~ ~ ~ ",
"7 7 7 7 7 7 7 0 7 7 7 7 7 7 7 7 7 7 7 & . h =.9.i.d.d.d.d.d.d.d.d.d.d.d.d.d.d.z.v.f.V . 4 7 7 7 7 7 7 7 q 7 7 7 7 7 7 7 7 q 7 7 ",
"; ; ; ; ; ; ; q 5 7 7 7 4 ; ; ; ; ; ; $ . h =.9.i.d.d.d.d.d.d.d.d.d.d.d.d.d.d.z.v.f.V . O ; ; ; ; ; ; ; ; ; ; 0 7 0 5 7 4 0 ; ; ",
"Q ~ ~ ~ ~ ~ ~ Q 7 7 +...~ ~ ~ ~ Q ~ ~ f + h =.9.i.d.d.d.d.d.d.d.d.d.d.d.d.d.d.z.v.f.V # d ~ ~ ~ ~ ~ Q ~ ~ ~ ~ Q 7 7 +...Y ~ Q Q ",
"~ ~ ~ ~ ~ ~ Q Q 7 7 +...Y ~ ~ ~ Q ~ ~ f @ h =.9.i.d.d.d.d.d.d.d.d.d.d.d.d.d.d.z.b.g.V # d ~ ~ ~ ~ ~ ~ ~ ~ ~ ~ Q 8 7 +...I ~ ~ ~ ",
"Q ~ ~ ~ ~ ~ ~ Q 8 7 +...~ ~ ~ ! ~ ~ ~ f @ h =.9.i.d.d.d.d.d.d.d.d.d.d.d.d.d.d.z.v.f.V # d ~ ~ ~ ~ ~ ~ ~ ~ ~ ~ Q 8 7 +...Y ~ ~ ~ ",
"I W ~ ~ ~ ~ ~ Q q 7 @.} ) I I W I W W L @ h =.9.i.d.d.d.d.d.d.d.d.d.d.d.d.d.d.z.v.f.V # d W W W W I ! ~ ~ ~ ~ Q q 7 +...) I W W ",
"........~ ~ Q Q 7 7 @.........} ......( e y %.>.q.s.d.d.d.d.d.d.d.d.d.d.d.d.d.k.h.2.m i ( ..} ......} ..~ ~ ~ Q 8 7 +...} ......",
" . . .| Q Q Q T 0 7 {  . . . . . . . .' f p l Z >.q.s.d.d.d.d.d.d.d.d.d.d.d.d.w.F B R / ]  . . . . . .| Q Q Q T 0 7 {  . . . . .",
"q q 0 q 8 8 8 ; 8 7 9 7 q 0 q q q q 0 q 8 4 . , $.,.u.d.d.d.d.d.d.d.d.d.d.d.d.5.2 . * q 7 q q 0 0 q q q 8 7 8 0 8 7 9 q 0 q q 0 ",
"7 7 7 7 7 7 0 q 7 7 7 7 7 7 7 7 7 7 7 7 7 7 & = < A 8.d.d.d.d.d.d.d.d.d.d.d.d.5.c . & 7 7 7 7 7 7 7 7 7 7 7 q q 7 7 7 7 7 7 7 7 ",
"7 0 @.+.Y Y Y Y Y Y Y Y Y Y Y Y 7 0 +.+.Y Y Y d @ j 4.s.s.s.s.s.s.s.s.s.s.u.y.*.z # G Y Y Y Y ! 7 0 +.} Y Y ~ ~ Y Y Y Y Y Y Y Y ",
"7 q ....! ~ ~ ~ ~ ~ Q ^ ~ ~ ~ ~ 7 q ....~ ~ ! f @ h -.0.0.0.0.0.0.0.0.0.0.>.A n M G J ~ ~ ~ ~ ~ 7 w ....~ ~ ~ ~ Q ~ ~ ~ ~ ~ ~ ~ ",
"q 8 ....~ ~ ~ ~ ~ ~ ~ Q ~ ~ ~ ~ q 8 ....~ ~ ~ G # z %.;.;.;.;.;.;.;.;.;.;.%.z # H ! ~ ~ ~ ~ ~ ~ 7 q ....~ ~ ~ ~ ~ ~ ~ ~ ~ ~ ~ ~ ",
"q q ....~ ~ ~ ~ ~ Q ~ ~ ~ ~ ~ ~ q 8 ....~ ~ ~ J G a l z z z z z z z z z z l p f J ~ ~ ~ ~ ~ ~ ~ 7 8 ....Q Q ~ ~ ~ ~ ~ Q ~ ~ ~ ~ ",
"0 8 ..} ................I ~ Q Q 0 w ..} ..........( i @ X X X X     @ @ @ i ( ..........I ~ ~ ~ q 8 ....................I ~ ~ ~ ",
"q 8 ......} ............~ ~ ^ Q q 8 ..............[ ) J s s s s O & U E E ^ [ ..........~ ~ ~ ~ q 8 ..................} Y ~ ~ ~ ",
"q q 0 7 q 7 7 q 7 7 7 7 7 0 7 7 7 7 7 7 7 7 7 7 7 7 7 7 7 7 7 7 7 7 7 7 7 7 q 0 7 7 7 7 7 7 7 q q 7 0 7 q 7 0 7 7 7 7 7 7 7 7 7 ",
"; ; ; ; ; ; ; 0 0 7 0 7 4 0 ; ; ; 0 ; ; ; ; ; 0 q 7 ; 7 7 ; ; ; ; ; ; ; ; ; ; q 5 7 7 7 4 ; ; ; ; ; ; ; ; ; ; q 0 7 5 7 4 0 ; ; ",
"~ ~ ~ ~ ~ ~ Q Q 7 7 +.} Y ~ ~ ~ ~ ~ ~ ~ Q ~ ~ Q 7 7 +.} I ~ ~ ~ Q Q ~ ~ Q ~ ~ Q 7 7 +...~ ~ ~ ~ ~ ~ ~ ~ ~ ~ ~ Q 7 7 +...Y ~ Q ~ ",
"~ ~ ~ ~ ~ ~ ~ Q 8 7 +...I ~ ~ ~ ~ ~ ~ ~ Q ~ ~ Q 8 7 @...Y ~ ~ ~ Q Y ~ ~ ~ ~ ~ Q 7 7 +...Y ~ ~ ~ Q ~ ~ ~ ~ ~ ~ Q 8 7 +...I ~ ~ ~ ",
"~ ~ ~ ~ ~ ~ ~ Q 8 7 +...Y ~ ~ ~ ~ ~ ~ ~ ~ ~ ~ Q 7 7 +...~ ~ ! Q ~ ~ ~ ~ ~ ~ ~ Q 8 7 +...I ~ ~ ~ ~ ~ ~ ~ ~ ~ ~ Q 8 7 +...~ ~ ~ ~ ",
"W W ~ ~ ~ ~ ~ Q 8 7 +...) W W W W W W ~ ~ ~ ! Q 8 7 +...) I I ! I Q Y ~ ~ ~ ~ Q q 7 @.} ) W W W W I ~ ~ ~ ~ ~ Q q 7 +...) I W W ",
"....} ..~ ~ ~ Q q 7 +.....} ............~ ~ ~ Q q 7 +.} ......} ........~ ~ Q Q 7 7 @.........} ..} ....~ ~ ~ Q 8 7 +...} ......",
" . . .| Q Q ~ T 0 7 {  . . . . . . . .| Q Q Q T 0 0 {  . . . . . . . .| Q Q Q T 0 7 {  . . . . . . . .| ~ Q Q T 0 7 {  . . . . .",
"q 0 q q 8 8 q 0 8 7 9 q 7 0 q q q 0 q q 8 8 8 ; 8 7 9 q q 0 q q q q 0 q 8 7 8 ; 8 7 9 7 0 q 7 q 0 q 0 q 8 7 q 0 8 7 9 q q 0 q 0 ",
"7 7 7 0 0 7 7 8 7 7 7 7 7 7 7 7 7 7 7 7 7 7 7 7 7 7 7 7 7 7 7 7 7 7 7 7 7 7 q q 7 q 7 7 7 7 7 7 7 7 7 7 7 7 q 8 7 7 7 7 7 7 7 7 ",
"7 0 +.+.Y Y ~ ~ Y Y Y Y Y Y Y Y q 0 @...Y Y Y Y Y Y Y Y Y Y Y Y 7 0 +.+.Y Y Y Y Y T Y ~ Y Y Y Y 7 0 +.+.Y Y ~ ~ Y Y Y Y Y Y Y Y ",
"7 q } ..~ ! ~ ~ Q Q ~ ~ ~ Q ~ ~ q q ....Q ~ ~ ~ Q ~ ~ ~ ~ ~ ~ ~ 7 q ....~ ~ ~ ~ ~ ~ ~ Q Q ~ ~ ~ 7 w ....~ ~ ~ ~ Q ~ ~ ~ ~ ~ ~ ~ ",
"7 8 ....~ ~ ~ Q ~ Q ~ ~ ~ ~ ~ ~ q 8 ....~ ~ ~ Q Y ~ ~ ~ Q ~ ~ ~ q q ....~ ~ ~ ~ ~ ~ ~ ~ ~ ~ ~ ~ 7 q ....~ ~ ~ ~ ~ ~ ~ ~ ~ ~ ~ ~ ",
"7 w ....~ Q ~ ~ ~ ~ ~ Q ~ ~ ~ ~ q 8 ....~ ~ ~ Q Q ~ ~ ~ ~ ~ ~ ~ q q ....~ ~ ~ ~ ~ Q ~ ~ ~ ~ ~ ~ 7 8 ....Q Q ~ ~ ~ ~ ~ Q ~ ~ ~ ~ ",
"q 8 ....................I ~ ~ ~ 7 8 ..} ................I ~ ~ ~ 7 8 ..} ................I ~ ~ ~ q 8 ....................I ~ ~ ~ ",
"q 8 ..................} Y ~ ~ ~ q q ....................~ ~ ~ Q q 8 ....................~ ~ ~ Q q 8 ..................} Y ~ ~ ~ "
};
