/* XPM */
static char *output_onlinepngtools__2_1708260264[] = {
/* columns rows colors chars-per-pixel */
"64 64 200 2 ",
"   c #010505",
".  c #000A07",
"X  c #02090A",
"o  c #000E08",
"O  c #010C0A",
"+  c #120301",
"@  c #190503",
"#  c #01100E",
"$  c #011B0F",
"%  c #011C18",
"&  c #041E1C",
"*  c #250704",
"=  c #2B0804",
"-  c #360B05",
";  c #350A06",
":  c #3B0B07",
">  c #3D0C05",
",  c #3C0D06",
"<  c #18300F",
"1  c #012215",
"2  c #012617",
"3  c #01241A",
"4  c #01221D",
"5  c #01241E",
"6  c #0C2519",
"7  c #012D1B",
"8  c #02301D",
"9  c #01351F",
"0  c #252500",
"q  c #2E2E0B",
"w  c #3E2303",
"e  c #3E2E00",
"r  c #373B04",
"t  c #3E3E00",
"y  c #052022",
"u  c #022721",
"i  c #012F23",
"p  c #022E24",
"a  c #0A2F24",
"s  c #042A28",
"d  c #042B2B",
"f  c #022F28",
"g  c #072A2E",
"h  c #032E2C",
"j  c #042F2C",
"k  c #082E2D",
"l  c #122F22",
"z  c #023021",
"x  c #013520",
"c  c #013226",
"v  c #063024",
"b  c #003128",
"n  c #003328",
"m  c #00312C",
"M  c #07322E",
"N  c #003132",
"B  c #560F08",
"V  c #5D0E0E",
"C  c #441D01",
"Z  c #411B04",
"A  c #4A1D07",
"S  c #501009",
"D  c #591208",
"F  c #5A1208",
"G  c #671B07",
"H  c #671C07",
"J  c #68140A",
"K  c #6B1A0C",
"L  c #77150B",
"P  c #77170B",
"I  c #761909",
"U  c #7A180B",
"Y  c #781C0A",
"T  c #791D0D",
"R  c #781513",
"E  c #412204",
"W  c #482300",
"Q  c #4C2101",
"!  c #452B02",
"~  c #4C2D04",
"^  c #562704",
"/  c #552F04",
"(  c #473500",
")  c #4D3102",
"_  c #573104",
"`  c #672307",
"'  c #652B02",
"]  c #6F2C04",
"[  c #633100",
"{  c #643C03",
"}  c #643E02",
"|  c #6A3907",
" . c #584800",
".. c #584F00",
"X. c #654D05",
"o. c #605700",
"O. c #81170F",
"+. c #81190C",
"@. c #861B0C",
"#. c #8C1C0D",
"$. c #911C0E",
"%. c #961F0C",
"&. c #981B0F",
"*. c #9B1F0E",
"=. c #871810",
"-. c #921716",
";. c #901D11",
":. c #9A1C12",
">. c #9B1C12",
",. c #AB1D0C",
"<. c #A61E13",
"1. c #AB1F10",
"2. c #AC1F10",
"3. c #AC1F14",
"4. c #B31C1C",
"5. c #97200C",
"6. c #9D2811",
"7. c #A1220D",
"8. c #A7200D",
"9. c #A8230D",
"0. c #A9230E",
"q. c #A72412",
"w. c #AB2210",
"e. c #A82413",
"r. c #A92214",
"t. c #AE2416",
"y. c #B32415",
"u. c #B12614",
"i. c #BA2815",
"p. c #B02319",
"a. c #B4211B",
"s. c #BB221D",
"d. c #C32817",
"f. c #C72C1C",
"g. c #D72B19",
"h. c #DB311F",
"j. c #E32E1B",
"k. c #EB2E1A",
"l. c #EB2A1F",
"z. c #F42D14",
"x. c #F32E1A",
"c. c #EC331A",
"v. c #ED331A",
"b. c #ED301C",
"n. c #F03017",
"m. c #FB3318",
"M. c #D42721",
"N. c #EF2B25",
"B. c #F02C26",
"V. c #8D5700",
"C. c #885B00",
"Z. c #885E01",
"A. c #8D5E00",
"S. c #AE5301",
"D. c #AF5701",
"F. c #B45700",
"G. c #916302",
"H. c #877800",
"J. c #897C02",
"K. c #BC6E00",
"L. c #AC7D01",
"P. c #C76100",
"I. c #E36F00",
"U. c #8D8202",
"Y. c #B48301",
"T. c #B98F00",
"R. c #BC8C00",
"E. c #BC9300",
"W. c #A4A400",
"Q. c #ACA800",
"!. c #B8A900",
"~. c #BDBD00",
"^. c #D68200",
"/. c #DC8500",
"(. c #C69300",
"). c #C69500",
"_. c #CE9700",
"`. c #DC9E00",
"'. c #E98400",
"]. c #FF8F00",
"[. c #FF9600",
"{. c #D6A600",
"}. c #C5BC00",
"|. c #EAA500",
" X c #E9AC00",
".X c #EAAC00",
"XX c #F8AC00",
"oX c #FFAF00",
"OX c #E6B600",
"+X c #E7BD00",
"@X c #F7B300",
"#X c #FFB700",
"$X c #FFBE00",
"%X c #CEC500",
"&X c #F7C700",
"*X c #FFCF00",
"=X c #E8D800",
"-X c #FFD500",
";X c #FFEF00",
":X c #FFF600",
/* pixels */
"f f f f f f f f f f f f f f f f b f f b f f b f f f f f c f f b f f b f f f f f f f f f f f b f f f f f b b b b b j f f f b b f ",
"8 8 8 8 8 8 8 8 8 8 a f p f 8 7 8 8 7 8 8 8 8 b v f p f g 8 7 8 8 7 8 8 8 8 8 b a f p f h 7 z 7 8 8 8 8 8 8 7 b a p a b g 7 i 7 ",
"w.w.w.w.w.w.w.w.w.w.z f n.b.w.w.w.w.w.w.w.w.w.0.j f N.k.1.w.w.w.w.w.w.w.w.w.w.0.j f B.b.1.w.w.w.w.w.w.w.w.w.w.9.M f N.k.w.w.w.w.",
"w.w.w.w.w.w.w.w.w.w.z f n.k.2.w.w.w.w.w.w.w.w.0.j f B.b.1.w.w.w.w.w.w.w.w.w.w.0.j f B.b.1.w.w.w.w.w.w.w.w.w.w.9.j f N.k.2.w.w.w.",
"w.w.w.w.w.w.w.w.w.w.p f n.b.2.w.w.w.w.w.w.w.0.0.j f N.b.1.w.w.w.w.w.w.w.w.w.w.0.j f N.b.1.w.w.w.w.w.w.w.w.w.w.9.h f N.b.1.w.w.w.",
"8.8.8.t.w.w.w.w.w.w.8 f n.b.r.0.,.0.8.t.w.w.w.8.j f N.b.p.8.8.8.8.,.0.t.w.w.w.0.j f N.k.p.8.,.0.,.w.8.t.w.w.w.9.M b N.b.p.,.8.8.",
"b.b.b.v.w.w.w.w.w.w.p b n.b.k.b.b.b.b.v.w.w.w.0.j f N.b.b.b.b.b.b.b.b.v.w.0.w.0.h b N.b.b.b.k.b.b.b.b.c.w.w.w.8.h f N.b.b.b.b.b.",
"x.x.x.z.0.0.0.0.0.0.k b m.x.x.x.x.x.x.z.0.0.0.4.x f h.x.x.x.x.x.x.x.x.z.0.0.0.4.x f h.x.x.x.x.x.x.x.x.z.9.0.0.4.x f h.x.x.x.x.x.",
"b b b m h h h h j j l p N f f b b b b m h h h x g f l b b b b b b b b m h g b x g f l b f b b b b b b b h h f z g f l b b b b b ",
"f b b p f f f f f f f f f f f f f f f f f f f f f f f f f f f f b f f f f f f f f f f f f f f f f f b c f f f f f f f f f f f f ",
"f c N.N.3.3.t.3.3.3.3.3.3.3.3.3.f b N.N.3.3.3.3.3.3.3.3.3.3.3.3.p c B.N.3.3.3.t.3.3.3.3.3.3.3.t.f c N.N.3.3.t.3.3.3.3.3.3.3.3.3.",
"f M k.b.w.w.w.w.w.w.w.w.w.w.w.w.p M c.v.w.w.w.w.w.w.w.w.w.w.w.w.b M k.v.w.w.w.w.w.w.w.w.w.w.w.w.f M b.b.w.w.w.w.w.w.w.w.w.w.w.w.",
"f M k.v.w.w.w.w.w.w.w.w.w.w.w.w.f M b.v.w.w.w.w.w.w.w.w.w.w.w.w.f M b.c.w.w.w.w.w.w.w.w.w.w.w.w.f M k.v.w.w.w.w.w.w.w.w.w.w.w.w.",
"f M k.v.w.w.w.w.w.w.w.w.w.w.w.w.f M b.v.w.w.w.w.w.w.w.w.w.w.w.w.f M b.v.w.w.w.w.w.w.w.w.w.w.w.w.f M k.v.w.w.w.w.w.w.w.w.w.w.w.w.",
"b M b.k.c.c.c.c.c.c.v.c.,.w.w.w.f M b.k.v.c.v.v.v.v.v.v.,.w.w.w.f M k.k.c.c.c.c.v.b.v.v.,.w.w.w.b M b.k.c.c.c.c.c.c.v.v.,.w.w.w.",
"b M b.b.b.b.b.b.b.b.b.k.1.w.w.w.f M b.b.b.b.b.b.b.b.b.b.2.w.w.w.f M b.b.b.b.b.b.k.k.b.b.w.w.w.w.b M b.b.b.b.b.b.b.b.b.k.1.w.w.w.",
"j p b b f b k v f f f f f f f f f f f f f f f f b f f f f f b f f c j b b b b c f f f f f f f f j c p b b b b b j p f f f p b f ",
"v 7 8 8 7 7 8 b v f i f j 7 8 7 8 8 8 8 8 8 8 b p f p f j 7 7 7 7 8 7 7 7 8 7 n p f p f g 8 8 8 7 a 7 7 8 8 8 b a b p f g 8 8 7 ",
"w.w.w.w.w.w.w.w.j f N.b.1.w.w.w.w.w.w.w.w.w.w.0.h f N.j.>.$.$.$.;.>.$.5.w.w.w.0.N a N.b.w.w.w.w.w.w.w.w.w.w.w.9.j f B.b.w.w.w.w.",
"w.w.w.w.w.w.0.0.j f N.b.1.w.w.w.w.w.w.w.w.w.w.0.h f N.d.B > > > > , > F ;.w.0.0.h p N.k.1.w.w.w.w.w.w.w.w.w.w.9.j f B.k.1.w.w.w.",
"w.w.w.w.w.w.w.0.j f N.b.1.w.w.w.w.w.w.w.w.w.w.0.M p M.6.w 0 0 0 0 0 0 E Y %.w.8.h b B.k.2.w.w.w.w.w.w.w.w.w.w.9.j f N.b.1.w.w.w.",
"8.8.0.t.w.w.0.0.j f N.b.p.8.8.8.8.,.0.t.w.w.0.8.h u R | U.W.W.W.W.W.W.J./ F #.w.N v B.k.t.w.,.8.,.w.8.t.w.w.w.9.j b N.b.p.,.,.q.",
"b.b.b.v.w.w.w.0.j f N.b.b.b.b.b.b.b.b.v.w.w.w.7.s 6 A o.%X:X:X:X:X:X:X}...Z Y %.j f B.k.b.b.b.b.b.b.b.c.w.w.w.0.j f N.b.b.b.b.b.",
"x.x.x.z.0.0.0.4.x f h.x.x.x.x.x.x.x.x.z.0.0.0.-.$ q G.E.+X-X-X-X-X-X-X+XT.Z.^ V 7 j h.x.x.x.x.x.x.x.x.z.w.9.0.4.x f h.x.x.x.x.k.",
"b b b m h h h 9 g f l b b b b b b b b m j h h 3 X ( (.$X$X$X$X$X$X$X$X$X$XR.e o y f l b b b b b c c b b h h f z g f l b b b b b ",
"f f f f f f f f f f f f f f f f b b f f f f f 4 X ( (.$X$X$X$X$X$X$X$X$X$XT.e X 4 f f f f f f f f j b b b f f f f f f f f f f f ",
"f c B.l.3.3.3.3.3.3.3.3.3.3.3.3.c c B.N.3.<.>.L Z  ._.$X$X$X$X$X$X$X$X$X$X). .w T >.<.t.3.3.3.3.f c B.B.3.3.t.3.3.3.3.3.3.3.3.3.",
"f M b.v.w.w.w.w.w.w.w.w.w.w.w.w.f M k.v.w.#.B ^ 6.K.|.$X$X$X$X$X$X$X$X$X$XOX!.J._ F #.w.w.w.w.w.f M b.k.w.w.w.w.w.w.w.w.w.w.w.w.",
"f M b.v.w.w.w.w.w.w.w.w.w.w.w.w.f M b.v.w.U * W K.].oX$X$X$X$X$X$X$X$X$X$X*X;X~.t = +.w.w.w.w.w.f M k.k.w.w.w.w.w.w.w.w.w.w.w.w.",
"f M b.v.w.w.w.w.w.w.w.w.w.w.w.w.f M b.v.w.U * W P.].oX$X$X$X$X$X$X$X$X$X$X*X;X~.t = +.w.w.w.w.w.f M b.b.w.w.w.w.w.w.w.w.w.w.w.w.",
"f M b.k.v.v.v.c.v.v.c.c.,.w.w.w.f M k.k.v.e.; W P.].oX$X$X$X$X$X$X$X$X$X$X*X;X~.t , u.b.,.w.w.w.b M b.v.c.c.c.c.c.c.v.c.,.w.w.w.",
"f M b.b.b.b.b.b.b.b.b.b.1.w.w.w.f M b.b.b.r.; W P.].oX$X$X$X$X$X$X$X$X$X$X*X;X~.t , y.x.2.w.0.0.j M b.k.b.b.b.b.b.b.b.k.2.w.w.w.",
"f a j b b b b b f f j j f f f f b p j b c 4 X W P.].oX$X$X$X$X$X$X$X$X$X$X*X;X~.t O u f f f f f f f f f b b b b b j f f f b b f ",
"8 8 8 8 7 8 7 b p p i b g 8 8 8 7 8 8 8 7 1 o W P.].oX$X$X$X$X$X$X$X$X$X$X*X;X~.t O 3 f g 7 8 8 8 8 8 8 8 8 7 n a p a b g 7 i 7 ",
"w.w.w.w.w.w.w.0.M f N.k.0.w.w.w.w.w.w.w.w.U * W P.].oX$X$X$X$X$X$X$X$X$X$X*X;X~.t O a.b.2.w.w.w.w.w.w.w.w.w.w.9.M f N.k.w.w.0.w.",
"w.w.w.w.w.w.0.0.j f N.k.1.w.w.w.w.w.w.w.w.U * W P.].oX$X$X$X$X$X$X$X$X$X$X*X;X~.t O a.b.2.w.w.w.w.w.w.w.w.w.w.9.j f N.k.2.w.w.w.",
"w.w.w.w.w.w.w.0.h f N.k.1.w.w.w.w.w.w.w.w.U * W P.].oX$X$X$X$X$X$X$X$X$X$X*X;X~.t O a.b.1.w.w.w.w.w.w.w.w.w.w.9.j b N.b.2.w.w.w.",
"8.,.8.t.w.w.w.8.j f B.b.p.0.,.8.w.,.8.u.w.U * W P.].oX$X$X$X$X$X$X$X$X$X$X*X;X~.t O a.k.p.0.,.w.8.8.8.t.w.w.w.9.m b N.b.p.,.8.,.",
"b.b.b.v.w.w.w.0.j f B.k.b.b.b.k.b.b.b.v.w.U - Q D.'.XX$X$X$X$X$X$X$X$X$X$X&X=XQ.r # s.b.k.b.k.k.b.b.b.b.w.w.w.8.j f N.b.b.b.b.b.",
"x.x.x.z.0.0.0.4.x j h.x.x.x.x.x.x.x.x.z.w.5.P K ~ V.`.$X$X$X$X$X$X$X$X$X$X{.H.X.< 4 f.x.x.x.x.x.x.x.x.z.0.0.0.4.x f h.x.x.x.x.x.",
"b b b m j h h 9 g f l f b b b b b b b m j h h 2 X ( ).$X$X$X$X$X$X$X$X$X$XR.e o y f l f b b b b b b b h j j j i g f l b b b b b ",
"b b f p f f f f f f f f f f f f f b f p f f f 4 X ( (.$X$X$X$X$X$X$X$X$X$XR.e X u f f f f f f f f f f p f f b f f f f f f f f f ",
"j b B.B.3.3.3.3.3.3.3.t.3.3.3.3.f b B.B.3.3.3.O.- ) Y..X@X#X#X#X#X#X#X@X.XL.! , =.3.3.3.3.3.3.r.f c B.B.3.3.t.r.3.3.3.3.3.3.3.3.",
"p M b.v.w.w.w.w.w.w.w.w.w.w.w.w.f M b.v.w.w.w.*.U ` { A./.[.[.[.[.[.[.^.Z.{ ` U *.w.w.w.w.w.w.w.f M k.v.w.w.w.w.w.w.w.w.w.w.w.w.",
"b M b.v.w.w.w.w.w.w.w.w.w.w.w.w.b M b.c.w.w.w.w.w.T : W F.I.I.I.I.I.I.S.Z , =.w.w.w.w.w.w.w.w.w.f M k.v.w.w.w.w.w.w.w.w.w.w.w.w.",
"f M b.v.w.w.w.w.w.w.w.w.w.w.w.w.f M b.c.w.w.w.w.w.:.P H ' [ [ [ [ [ [ ] G P 5.w.w.w.w.w.w.w.w.w.f M b.c.w.w.w.w.w.w.w.w.w.w.w.w.",
"f M b.k.v.v.v.v.c.c.c.v.,.w.w.w.f M b.k.v.v.v.v.v.v.v.y.- + + +     @ B i.c.c.v.c.v.c.c.,.w.w.w.b M b.k.c.c.c.c.v.c.v.v.,.w.w.w.",
"f M b.b.b.b.b.k.b.b.b.k.2.w.w.w.f M b.b.b.b.k.k.k.k.v.g.L J J J % & ;.r.g.v.k.k.k.k.b.b.w.w.w.w.f M b.b.b.b.b.b.b.b.k.k.2.w.w.w.",
"f b j f b b b b b j f f f b b j f f f f f f b b b f f f b b b b f f f f f b f b f f f f f b f b f v b f b b b b b j f f f p b b ",
"7 8 8 8 8 8 7 b a a p b g 7 8 7 8 8 8 8 8 8 8 b p b p f g 7 7 7 8 8 8 8 8 8 7 b p f p f g z 7 8 7 v z 7 8 8 7 b v a a b g 7 p 7 ",
"w.w.w.w.w.w.0.8.M f N.k.w.w.w.w.w.w.w.w.w.w.w.0.j f B.x.1.w.w.w.w.w.w.w.w.w.w.0.M f N.k.0.w.w.w.w.w.w.w.w.w.w.9.h f B.k.w.w.w.w.",
"w.w.w.w.w.w.w.0.h f N.k.2.w.w.w.w.w.w.w.w.w.w.8.j f B.k.1.w.w.w.w.w.w.w.w.w.0.0.j f B.k.1.w.w.w.w.w.w.w.w.w.w.9.m f B.k.w.w.w.w.",
"w.w.w.w.w.w.w.0.h f N.b.1.w.w.w.w.w.w.w.w.w.0.8.j f B.k.w.w.q.w.w.w.w.w.w.w.w.0.j f B.k.1.w.w.w.w.w.w.w.w.w.w.9.h b N.b.2.w.w.w.",
",.0.8.t.w.w.0.0.m b N.b.p.,.8.8.,.0.8.t.w.w.w.0.j f B.b.t.,.,.w.0.,.8.t.w.w.w.0.j f B.k.p.w.,.8.,.0.8.t.w.w.w.9.N b N.b.p.,.8.,.",
"b.b.b.c.w.w.w.8.j f N.b.b.b.b.b.b.b.b.v.w.w.w.0.j f B.k.b.b.b.b.b.b.b.v.w.w.w.w.j f B.k.b.b.b.k.b.b.b.v.w.w.w.0.j j N.b.b.b.b.b.",
"x.x.x.z.0.0.0.4.x f h.x.x.x.x.x.x.x.x.z.0.0.0.4.x f h.x.x.x.x.x.x.x.x.z.0.0.0.4.x b h.x.x.x.x.x.x.x.x.z.8.0.0.4.x a h.x.x.x.x.x.",
"b b b m j j h z g f l b b b b b b b b m j h h x g f l b b b b b b b b m h h h x g f l f b b b b b b b m h j j 7 g f l b b b b b ",
"f f f p f f b f f f f f f f f f f b f f f f f f f f f f f f f f f f f p f f f f f f f f f f f f j b b p f f b f f f f f f f f f ",
"f c B.N.3.3.t.3.3.3.3.3.3.3.3.3.p b N.N.3.3.3.3.3.3.3.3.3.3.3.3.f c B.N.3.3.3.3.3.3.3.t.3.3.3.3.p c B.N.3.3.t.r.3.3.3.3.3.3.3.3.",
"f M k.v.w.w.w.w.w.w.w.w.w.w.w.w.c M k.v.w.w.w.w.w.w.w.w.w.w.w.w.f M b.v.w.w.w.w.w.w.w.w.w.w.w.w.b M k.b.w.w.w.w.w.w.w.w.w.w.w.w.",
"f M k.v.w.w.w.w.w.w.w.w.w.w.w.w.f M b.v.w.w.w.w.w.w.w.w.w.w.w.w.f M b.v.w.w.w.w.w.w.w.w.w.w.w.w.j M k.v.w.w.w.w.w.w.w.w.w.w.w.w.",
"f M b.c.w.w.w.w.w.w.w.w.w.w.w.w.f M b.v.w.w.w.w.w.w.w.w.w.w.w.w.f M b.v.w.w.w.w.w.w.w.w.w.w.w.w.p M b.v.w.w.w.w.w.w.w.w.w.w.w.w.",
"b M b.k.c.c.c.c.c.c.v.c.,.w.w.w.f M b.k.c.c.c.c.c.c.v.v.,.w.w.w.f M b.k.c.c.v.v.c.c.c.v.,.w.w.w.b M b.k.c.c.c.c.v.c.v.v.,.w.w.w.",
"f M b.b.b.b.b.b.b.b.b.k.2.w.w.w.f M b.b.b.b.b.b.b.b.b.b.1.w.w.w.f M b.b.b.b.b.b.b.b.b.x.2.w.w.w.f M b.b.b.b.b.b.b.b.k.k.1.w.w.w."
};
