/* XPM */
static char *output_onlinepngtools__6_1708260265[] = {
/* columns rows colors chars-per-pixel */
"64 64 86 1 ",
"  c black",
". c #000202",
"X c #070100",
"o c #000A06",
"O c #000A08",
"+ c #000D08",
"@ c #010D0B",
"# c #020E0D",
"$ c #02100E",
"% c #011915",
"& c #230703",
"* c #240704",
"= c #2A0804",
"- c #330906",
"; c #320A06",
": c #012215",
"> c #022517",
", c #01221C",
"< c #02251F",
"1 c #02301D",
"2 c #01351F",
"3 c #012F23",
"4 c #022E24",
"5 c #0A2F24",
"6 c #042B2B",
"7 c #012D29",
"8 c #022F28",
"9 c #072A2E",
"0 c #032E2C",
"q c #042F2C",
"w c #082E2D",
"e c #122F22",
"r c #023021",
"t c #013520",
"y c #013226",
"u c #063024",
"i c #003128",
"p c #003328",
"a c #00312C",
"s c #07322E",
"d c #003132",
"f c #480E06",
"g c #450D08",
"h c #5C1209",
"j c #5D1209",
"k c #6D150A",
"l c #771709",
"z c #7A160E",
"x c #7A180B",
"c c #831A0A",
"v c #861A0C",
"b c #8E1C0D",
"n c #941D0E",
"m c #951E0E",
"M c #9C1F0F",
"N c #AB1D0C",
"B c #AB1F10",
"V c #AC1F10",
"C c #AC1F14",
"Z c #B31C1C",
"A c #A0200F",
"S c #A7200D",
"D c #A8230D",
"F c #A9230E",
"G c #A72412",
"H c #AB2210",
"J c #AC2112",
"K c #AE2416",
"L c #B92615",
"P c #BE2414",
"I c #BC2616",
"U c #B02319",
"Y c #BB221D",
"T c #D62B19",
"R c #DB311F",
"E c #EB2E1A",
"W c #EB2A1F",
"Q c #F42D14",
"! c #F32E1A",
"~ c #EC331A",
"^ c #ED331A",
"/ c #ED301C",
"( c #F03017",
") c #FB3318",
"_ c #EF2B25",
"` c #F02C26",
/* pixels */
"8888888888888888888888iii888488888888888888888888888ii8i88888888",
"11111111115848111111111p584891111111111iy85861111111111i58486111",
"HHHHHHHHHHr8(/BHHHHHHHHS08`EBHHHHHHHHHHFq8_/BHHHHHHHHHHDs8`EVFJF",
"HHHHHHHHHHr8(EVHHHHHHHHSs8`^HHHHHHHHHHHFq8_/BHHHHHHHHHHDq8_EVJFJ",
"HHHHHHHHJFr8(/VJSFHHFJFS08`EVJHHHHHHHHHFq8_/FSHHHHFFHHHD08`/VHHH",
"SSSKHHHHFJr8(/GFBBSKJFJF08`/UFNFSSSKHHFFq8_/UBBFBBSKHHSFs8_/UFNB",
"///^HHHHJFr8(/E/!^^^FJHF0i`EEE//////HHHFq8_/E/E//W/~HHHS08`/E^//",
"!!!QFFFFFFw8)!!!!!!QFFFZriR!!!!!!^!QFFFZt8R!!!!!(!!QFFFZt8R!!!!E",
"iiia000qqqe8d8iiiiiaqq0t98eiii88iiiaqqqr98eiiiiiiiii000t98eiiiii",
"88ii888i888848888i88888888888888i8888q88i8888888888y888888888888",
"8y``CCHJCCCCCCCCiy__CCCCCCCCCCCCiy`WJVJJCCCCCCCC8y__CCJJCCCCCCCC",
"8s/EHHHHJFJFHHHH4s~~HHHHHHHHHHHH8sE^JFJJJFJJHHHH8s//HHHHHHHHHHHH",
"8sE^HHHHHHHHHHHH8s//HHHHHHHHHHHH8s/^JJJFFJHHHHHH8sE^HHHHFJFJHHHH",
"8s!^HHHHHHHHHHHH8s//HHHHHHHHHHHH8sE^JFFJJFHJHHHH8s/^HFHHJFJJHHHH",
"is/E~~^^^^//NHHH5s/~~~^^//^^NHHH8sEW^^^^^^^^NHHHis/E^/^^^^^^NHHH",
"8d////////EEBHHHyd////////EEBHHH8s^!^///^E//HHHH8s///////^EEBHHH",
"88y88888888888888888888888888888888588ii888488888888iiii88888888",
"1111111i584861111111111iy85861111111111i483y91111111111i58366111",
"JJFHJFJFq8`/BHHHHHHHHHHFq8_/BGAMABFJJFFFs4_/HHHHJFJJHHJDq8`^VFJF",
"JFJHFJFFq8`/BHHHHHHHHHHSq8_/BbhffhmJFJFD08__BHHHFJFJHHHDq8`EVJFJ",
"JFFJJFJFq8`/FSHHHHHHHHHSq8_/Fx&..=vFFJFF08`EBHHHJFHHHHDD08_/VJFJ",
"FNFUFJFFq8_EUBBHSSDKHHHDq8_/Ul&..-vJJFJF0i`/USSSNFSKHHJDai_/UNBF",
"!E(^JFFF0i_/E/E///!/HHHDq8_!EV-..gI^JJJFq8`E///////^HJHDq8_/////",
"!!!QFFFZt8R!!!!!!^^QDDDZtiR!!J-..gPQDDDZt8R!!!!!!!!QFSDZt8R!!!!Q",
"iiiaqqqr98eiiiiiiiia000t98eii,O..#<iq00t98eiiiiiiiii000t98eiiiii",
"ii888888y88888888888888888888,O..+,y88888088888888i4888888888888",
"4y``CCCJCCCCCCCCyy``CCJJCCCCJz&..+Y`CCCCJCCJCCCC8i__CCJCCCCCCVCC",
"isE^FJJFHHHHHHHH8sE^HHHHHHHHVx&..@L^HHHHHHJHHHHH8s/^HHHHJFJFJJFJ",
"8s/^JJFJHHHHHHHH8s/^JJHHHHHHHx&..$L~HHHHHHHHJFJF8s/^HHHHHHHHJFJF",
"8s/^JFJJHHHHHHHH8s/^JHHHHHHHHx&..$L/HHHHHJHHFJFJ8s/^HFHHHHHJFJFJ",
"8sEE^^^^^^^^NHHH8sEE^^^^//~~Nx&..@L_^^^^^^^^NJJF8s/E/~~/^^^^NHJF",
"8sE/^///E///HHHH8sE!^E//////Hz&..#L///EE/E!^VFFJ8s////^///!^HJFJ",
"8888888888888888888888ii88885,o..o<88888588888888888888i88888888",
"1111111i484891111111111py8489:o..+>11118y84861111111111i58586111",
"JFJFJFFF0i_/BHHHJFJFJFHDq8_/Sz&..-vFFJJFq8_/BHHHHHHHJFFFs8`EBHHH",
"HJFJFJFFq8_/BHHHFJFJFJHS08_/Nx&..-vFJFFFq8_/BHHHHHHHFJFF88`EBHHH",
"HFJFJFJFq8`^BHHHJFJFHHHFq8_/Cx*..-vHFJFFq8_/BHHHHHDFJFFFq8`/BHHH",
"FNFKFJFFq8`EUSSSFNFKHHHSq8_/Ul*..-cHJFFFq8_/USSSBBSKFJJFa4`/UBBB",
"//E(JFJFq8`E//////E^HHHFq8_/EJ-..gJ/FJJFq8_//////W^^JJFFq8`E/E//",
"!!!QFFFZt8R!!!!!!!!QFFFZt8R!!H-..gTQFDFZt8R!!!!!E!!QDDFZt8R!!!E(",
"iiiaqq0r98eiiiiiiiiaq00298eii,O..$<iqqqr98eiiiiiiiii000t98eiiiii",
"8i848888888888888884888888888,O..o4i8888y8888888888y888888888888",
"8i`_CCCCCCJJCCCC8y``CCCCJCJHCz*..oZWJCCJCVCCCCCC8i__CCHCCCCCCCCC",
"8s^^HHHHHHHHHHHH8s/^HHHHHHHHHx*..#I^JFJJJJFJHHHH8s//HHHHJHHHHHHH",
"8s^^HHHHHHHHHHHH8s/^HHHHHHHHJx&..#L~SHJFJJHHHHHH8s/^HHHHHHHHHHHH",
"8s/~HHHHHHHHHHHH8s/^HHHHHHHHFx*..#JEJDFJJFHHHHHH8s/^HFHHHHHHHHHH",
"8s/E~/^/~~~/NHHH8s/E^^^^^~/!Nx=X.@TW^^^^^^^^NHHH8s/E/~/^^^^^NHHH",
"8s/////^////BHHH8s/////E///EVmkh%4TEE^E/^///BHHH8s////^////EBHHH",
"8888iiii88888888y88888i8888888888888888y888888888888y88i88888y88",
"1111111i584861111111111i585881111111111y484891111111111i58489111",
"HHHHHHHDq8`/VFJFFJFJJFJF08_ENJFJJFJFJFJFs8_EFHHHHHHHFJFSq8`/BHHH",
"HHHHHHHDq8`EVJFJJFJFFJFFa8_/JFJFHJFJFJFFq8`EBHHHHHHHJFJFq8_EBHHH",
"HHHHHHHDq8_/VHHHJJFJFFJDq8`EJJJJHFJFJFJFq8`EBHHHHHHHHHHFq8`EBFHH",
"SSSKHHHSq8_/UFNBFFVJJJDFq8`/UFNFFNNKFJFFq8`EUSSSSSSKHHFFqi`EUBNB",
"///^HHHSq8`/E^//^EE^FJJFq8`E^EEE////JFJFq8`E///////^HHHFq8`^/_E/",
"!!!QFFFZt8R!!!!E!!!QFFFZt8R!!!!!!!(QFFFZtiR!!!!!!!!QFFFZt8R^Q!!^",
"iiii000t98eiiiiiiiiaqqq198eiiiiiii8a000t98eiiiiiiiii000t98eiiiii",
"88848888888888888888888888888888ii85888888888888888y888888888888",
"8i__CCJCCCCCCCCC8y``CCCCCCVCCCVC8i``CCCCCCCJCCCC8i__CCJJCJCCCCCC",
"is/^HHHHHHHHHHHH8sE^JFJFJJJFJJJF8s^^HHHHHHHHHHHH8s//HHHHJJHHHHHH",
"8s/^HHHHHHHHHHHH8sE^HHHHFJFJFJFJys~~HHHHHHHHHHHH8s/^HHHHFJFJHHHH",
"8s/^HFHHHHHHHHHHis^^HHHHJFJFJFJF4s^/HHHHHHHHHHHH8s/^HJHHJFJJHHHH",
"8s/E~~~/^/^^NHHHis/_^^^^~/^^NVHH8s/_~/^/^/^^NHHH8s/E^^^^^^^^NHHH",
"8s///////^//BHHHii////E^^//!GHHH8sE^^//E////BHHH8s//////E^EEBHHH"
};
