/* XPM */
static char *left21708704599[] = {
/* columns rows colors chars-per-pixel */
"64 64 188 2 ",
"   c #06261F",
".  c #032C24",
"X  c #0C2E26",
"o  c #002F28",
"O  c #0D2E28",
"+  c #0F2520",
"@  c #112E27",
"#  c #1C2A23",
"$  c #122F28",
"%  c #152521",
"&  c #023027",
"*  c #0E3026",
"=  c #013029",
"-  c #0D3128",
";  c #133027",
":  c #123128",
">  c #2B2A25",
",  c #392824",
"<  c #4D1D1D",
"1  c #591B1B",
"2  c #6C1C1D",
"3  c #75191C",
"4  c #44211F",
"5  c #5D2422",
"6  c #512625",
"7  c #50302E",
"8  c #642423",
"9  c #742525",
"0  c #002B7C",
"q  c #00327F",
"w  c #8F1B0E",
"e  c #9C1E0D",
"r  c #941D0E",
"t  c #881B14",
"y  c #9A1B11",
"u  c #93161B",
"i  c #A61D0B",
"p  c #AD1D0A",
"a  c #B01E0D",
"s  c #A31C13",
"d  c #AC1C16",
"f  c #A71819",
"g  c #B51D16",
"h  c #BB171C",
"j  c #B31B1A",
"k  c #BB1B1B",
"l  c #B81A19",
"z  c #92200E",
"x  c #8E2210",
"c  c #942311",
"v  c #9C2312",
"b  c #A5220F",
"n  c #AD220F",
"m  c #B1220F",
"M  c #A22312",
"N  c #AC2210",
"B  c #AF2D1F",
"V  c #B12311",
"C  c #BC1A20",
"Z  c #AB2523",
"A  c #BD2B21",
"S  c #B73329",
"D  c #BA3B33",
"F  c #B5393A",
"G  c #C41A1D",
"H  c #CB191E",
"J  c #D3181F",
"K  c #EC0D15",
"L  c #EC0F18",
"P  c #EC141C",
"I  c #EC181F",
"U  c #CA2918",
"Y  c #D82B17",
"T  c #D2241D",
"R  c #D9241C",
"E  c #D32B18",
"W  c #DD2E1B",
"Q  c #D22B17",
"!  c #CD311C",
"~  c #D2301C",
"^  c #DE301C",
"/  c #E82D17",
"(  c #E52E1A",
")  c #EB2F1A",
"_  c #E42719",
"`  c #F12F1A",
"'  c #E2301C",
"]  c #ED301B",
"[  c #F2301C",
"{  c #F8301B",
"}  c #CD1820",
"|  c #D51B22",
" . c #DD1A21",
".. c #ED1720",
"X. c #E41B23",
"o. c #ED1C24",
"O. c #EF1E28",
"+. c #F31C25",
"@. c #F81A23",
"#. c #F61F28",
"$. c #C62420",
"%. c #C7252A",
"&. c #C02B22",
"*. c #D42B2D",
"=. c #DE3428",
"-. c #E42027",
";. c #ED2027",
":. c #ED222A",
">. c #E4292C",
",. c #F32129",
"<. c #F9252E",
"1. c #EA342D",
"2. c #ED2C34",
"3. c #F12D35",
"4. c #F22F38",
"5. c #EE343B",
"6. c #E4393D",
"7. c #E53336",
"8. c #F2323B",
"9. c #FB343C",
"0. c #C13B40",
"q. c #EE3941",
"w. c #F63A42",
"e. c #9A4C4D",
"r. c #A7494A",
"t. c #D84643",
"y. c #E74748",
"u. c #F04147",
"i. c #F2424A",
"p. c #F1484E",
"a. c #EE4950",
"s. c #F44C53",
"d. c #FE4C53",
"f. c #E95458",
"g. c #F3545A",
"h. c #F2585E",
"j. c #F25357",
"k. c #F95D61",
"l. c #F5686D",
"z. c #F66F73",
"x. c #F6777B",
"c. c #003381",
"v. c #033B85",
"b. c #083F88",
"n. c #083D86",
"m. c #0C428A",
"M. c #174A8E",
"N. c #235495",
"B. c #3E69A2",
"V. c #597EAF",
"C. c #4B72A7",
"Z. c #F57D82",
"A. c #698AB6",
"S. c #6E8EB9",
"D. c #6588B6",
"F. c #7894BD",
"G. c #F88588",
"H. c #F68E92",
"J. c #F79599",
"K. c #F69195",
"L. c #F79DA1",
"P. c #F9ADB0",
"I. c #F9B5B8",
"U. c #9EB4D0",
"Y. c #90A9CA",
"T. c #A4BCD7",
"R. c #B8C6DB",
"E. c #ADCEE6",
"W. c #C7CFDF",
"Q. c #FAC2C4",
"!. c #FBC7C9",
"~. c #FBCBCD",
"^. c #FCD5D7",
"/. c #FDDBDC",
"(. c #FCD7D8",
"). c #C1CFE1",
"_. c #CCDDEC",
"`. c #D2DCE9",
"'. c #FCDFE0",
"]. c #C6E0F1",
"[. c #DFEEF7",
"{. c #DCF0FA",
"}. c #FCE8E9",
"|. c #EEF2F7",
" X c #FEF4F3",
".X c #F5FAFC",
"XX c #FFFEFE",
"oX c #E6ECF3",
/* pixels */
"o o o o o o o o o o o o o o o o & o o o o o o o o o o o o o o = = = o o o o o o = & o o o o o o o o o o o o o o o o o o o o o o ",
"@ O O @ @ @ @ O @ @ o o ; ; $ $ @ @ @ O O @ @ $ - o ; ; @ X       X X @ O @ @ @ = = $ ; @ $ O @ @ O @ @ O @ @ @ o o $ $ @ @ O @ ",
"M M M M M M M v s v X O E ( N v M M b M M M N c .   E W B S D D &.D S Z M i e r & : ~ ^ b M M M M M M M M M N c O O ~ ^ M M b M ",
"n V N N N N N N V M X O ' ` m n N N N m N i p M 7 e.g.h.g.s.s.s.g.d.g.g.j.f.t.S #   ( ] V N n V a N N N N N V M O @ ' ` m N N n ",
"n N N N N N N N n v O O ^ ] N N N M N b i A t.f.d.w.2.o.P P P P P I I I o.3.w.s.f.r.=./ n N N N N N n N N M N M X O ^ ] N N N N ",
"N N V N N N N N n b X * ^ ] N N V m p A y.s.8.o.I o.o.o.o.o.o.;.o.o.o.o.o.X.P P +.w.a.a.A p N V N N N m N n V M X O ^ ) V V N N ",
") ) ) ) N N N N m N O O ' { ] ] / _ u.s.8.I I o.o.o.o.o.o.o.o.o.o.o.o.o.o.o.o.o.o.P ..2.s.y.( / ] ] ) / V n m M o @ ' { ] ] ] ] ",
"' ^ ' W M v M M M c O * ~ ' ^ Y 1.a.5.I X.o.o.o.+.o.o.o.o.o.o.o.o.o.o.o.o.o.o.o.o.o.o...P 5.a.1.Y ^ 1.Y M v M c X @ ~ ' ^ ' ^ ^ ",
"$ @ O O X X X X X X o o $ - # F i.;.I o.o.o.o.o.o.o.o.o.o.o.o.o.o.o.o.o.o.o.o.o.o.o.o.o.o.I ;.i.F ; - O X X X X o o @ ; * * * * ",
"o & O : - - X X X - O @ X # F 9.I +.o.o.o.o.o.o.o.o.+.I o.o.o.o.o.o.o.o.o.o.o.o.o.o.o.o.o.o.o.I w.%.# X X - X O @ X X O X X X O ",
"o $ ~ W M v M M v M M v s 6.9.I o.o.o.o.o.o.o.o.o.o.o.o.o.o.o.o.o.o.o.o.o.o.o.o.o.o.o.o.o.o.o.+.o.9.6.Q M M M M b v M M M M M M ",
"o ; ( ` V N N N N N N a 7.4.I o.o.o.o.o.o.o.o.o.o.o.o.o.o.o.o.o.o.o.o.o.o.o.o.o.o.o.o.o.o.o.o.I o.P 4.5.N N N N n n n n n n n n ",
"o ; ' ) N N N N M N i *.4.I o.o.o.o.o.o.o.o.o.o.o.o.o.o.o.o.o.o.o.o.o.o.o.o.o.o.o.o.o.o.o.o.o.o.o.o.X.8.*.i N N N N N N n N b N ",
"o ; ' ) V N N N N N U 8.I o.o.o.o.o.I o.o.o.o.o.o.o.o.o.o.o.o.o.o.o.o.o.o.o.o.o.o.o.o.o.o.o.o.o.o.o.o.+.4.$.N N N N N N N N N N ",
"& ; ' ` ) ) ) ) ) R 2.;.o.o.o.o.o.o.o.o.o.o.o.o.o.o.o.o.o.o.o.o.o.o.o.o.+.o.o.o.o.o.o.o.o.o.o.o.o.o.o.o.O.2.W ] ] ) ) ( m n N N ",
"& ; E ' ^ ^ ' ' W >.:.o.o.o.o.o.o.o.o.o.o.o.o.o.o.o.o.o.o.o.o.o.o.o.o.o.o.o.o.o.o.o.o.o.o.o.o.o.o.o.o.o.o.:.>.Y ^ ^ ^ W N v M v ",
"& o O @ O O @ & 8 <.o.o.o.o.o.o.o.o.o.o.o.o.o.o.o.o.o.o.o.o.o.o.o.o.o.o.o.o.o.o.o.o.o.o.o.o.o.o.o.o.o.o.o.X.<.8 - ; O * X X X X ",
"@ @ O O O O O @ %.,.o.o.o.o.;.o.:.o.o.o.o.o.o.o.o.o.o.o.o.o.o.o.o.o.o.o.o.:.o.o.o.o.o.o.o.o.o.o.o.o.o.o.o.o.,.%.o & @ * O O X X ",
"M M M M v M v j ,.o.o.;.;.I K L L L P o.o.o.o.o.+.o.o.o.o.o.o.o.o.o.o.P K K K K o.o.o.o.o.o.o.o.o.o.o.o.o.o.X.<.6 o E ' N M M M ",
"N N N N N n n | ,.o.;.I P q.x.J.K.z.5.L o.o.o.o.o.o.o.o.o.o.o.o.o.I P p.Z.J.H.l.3.K o.o.o.o.o.o.o.o.o.o.o.+.I #.Z X ' [ N N N n ",
"N N N n N N N -.o.o.P 5.I.XXXXXXXXXXXXJ.:.I o.o.o.o.o.o.o.o.o.o.P q.!.XXXXXXXXXX XH.o.I o.o.o.o.o.o.o.o.o.o.o.+.*., ~ ] N N M N ",
"N N N m N b k O.o.P i.}.XXXX.XXXXXXXXXXX^.2.I o.o.o.o.o.o.o.:.L h.XXXXXXXXXXXXXXXXXXQ.o.o.o.o.o.o.o.o.o.o.o.o.o.@.9 ! [ V N V N ",
"] ] ] ' m b H ,.I 2.}.XXXXXXXXXXXXXXXXXXXX!.o.o.o.o.o.o.o.o.I q..XXXXXXXXXXXXXXXXXXXXXP.P o.o.o.I o.o.o.o.o.o.o.@.Z E { ) ] ] ] ",
"^ ^ ' ^ N v | ,.L L.XX).S.A.R.XXXXXXXXXXXXXXz.K :.o.o.o.o.o.P I.XXR.A.S.).XXXXXXXXXXXXXXg.P :.o.o.o.o.o.o.o.o.o.+.| ! ' ' ^ ' ' ",
"; @ ; O o > X...:. XT.c.c.c.0 F.XXXXXXXXXXXX~.I o.o.o.o.o.I 5.XXY.0 c.c.c.Y.XXXXXXXXXXXXI.K o.o.o.o.o.o.o.o.o.o.o.X.> * @ * * @ ",
"o o * @ o , O.P g..XM.v.m.m.m.v._.XXXXXXXXXX X2...o.o.o.o.K z.{.v.n.m.m.n.m.oXXXXXXXXXXX'.o.o.o.o.o.o.o.o.o.o.o.o.o., & O O X X ",
"o $ ~ ( M N o.L l._.v.m.b.b.m.q U.XXXXXXXXXXXXq.I o.o.o.;.K G.E.q m.m.n.m.v.R.XXXXXXXXXX}.3.o.o.o.o.o.o.o.o.o.o.o.o.d v M M M M ",
"o ; ' ) N g o.L k.[.n.b.m.m.m.0 R.XXXXXXXXXX X8.I o.o.o.,.K x.].q m.m.m.m.v.`.XXXXXXXXXX}.:...o.o.o.o.o.o.o.o.o.o.o.g n n n n n ",
"o ; W ) n g o.I 5.XXA.0 v.v.0 B.XXXXXXXXXXXX/.o.o.o.o.o.o.I p.XXC.0 v.n.0 V.XXXXXXXXXXXX!.P o.o.o.o.o.o.o.o.o.o.o.o.g b N N n N ",
"o ; ' ) n g o.;.P Q.XXF.N.N.D.|.XXXXXXXXXXXXJ.K o.+.o.o.o.o.X./..XA.N.N.S.XXXXXXXXXXXXXXx.K o.o.o.o.o.o.o.o.o.o.o.o.g n N N N N ",
"o ; ] ` ] T o.+.P s.XXXX.X.XXXXXXXXXXXXXXX X2.o.o.o.o.o.o.o.P l.XXXX.X.XXXXXXXXXXX XXX/.O.o.o.o.o.o.o.o.o.o.o.o.o.X.T ) m n N N ",
"o ; ~ ' ^ T X.o.o.K Z.XXXXXXXXXXXXXXXXXXXXh.L o.o.o.o.o.o.o.o.K J.XXXXXX.XXXXXXXXXXXXXi.P o.o.o.o.o.o.o.o.o.o.o.o.o.T ^ N v v v ",
"o o @ $ o 8 +.o.o.o.L z. XXXXXXXXXXXXX}.j.L o.o.o.o.o.o.o.o.o.o.P G.XXXXXXXXXXXXXX^.u.P o.o.o.o.o.o.o.o.o.o.o.o.o.@.5 & O X X X ",
"@ O O O o 8 @.o.o.o.;.K 2.G.Q././.I.z.:.P o.o.o.o.o.o.o.o.o.o.o.X.L q.H.!./.^.I.l.o.P ;.o.o.o.o.o.o.o.o.o.o.o.o.o.@.5 & @ O X O ",
"M v M M v j o.o.o.o.o.;.I K L o.o.K K o.o.o.o.o.o.o.o.o.o.o.o.o.+.o.P K P o.I K L o.o.o.o.o.o.o.o.o.o.o.o.o.o.I o.X.T ^ N M M M ",
"V n n n n g o.o.o.o.o.o.o.;.o.o.o.o.;.o.o.o.o.o.o.o.o.o.o.o.o.o.o.o.o.:.o.o.o.;.;.o.o.o.o.o.o.o.o.o.o.o.o.o.o.o.o.X.R [ N N n n ",
"N N N N b g o.o.o.o.o.o.o.o.o.o.o.o.o.o.o.o.o.o.o.o.o.+.o.o.o.o.o.o.o.o.o.o.o.o.o.o.o.o.o.o.o.+.o.o.o.o.o.o.o.o.+.X.R ' N N N N ",
"N N N N n g o.o.o.o.o.o.o.o.o.o.o.o.o.o.o.o.o.o.o.o.o.o.o.o.o.o.o.+.o.o.o.o.o.o.o.o.o.o.o.o.o.o.o.o.o.+.o.o.o.o.+.X.R ] V N N N ",
") ) ) ) m g o.o.o.o.o.o.o.o.o.o.o.o.o.o.o.o.o.o.o.o.o.o.o.o.o.o.o.o.o.o.o.o.o.o.o.o.o.I o.o.o.o.o.o.o.o.o.o.o.o.o.X.R [ ] ] ] ] ",
"' ' ' W v g o.o.o.o.o.o.o.o.o.o.o.o.o.o.o.o.o.o.o.o.o.o.I o.o.o.o.o.o.o.o.o.o.o.o.o.o.o.o.o.o.o.o.o.o.o.o.o.o.o.+.X.T ^ ^ ' ^ ' ",
"@ @ ; @ & 8 @.X.o.o.o.o.o.o.o.o.o.o.o.o.o.o.o.o.o.o.o.o.o.o.o.o.o.o.o.o.o.o.o.o.o.o.+.o.o.o.o.o.o.o.o.o.o.o.o.o.o.@.5 & @ * ; * ",
"o & O @ & 8 @.X.o.o.o.o.o.o.o.o.o.o.o.o.o.o.o.o.o.o.o.o.o.o.o.o.o.o.o.o.o.o.o.o.o.o.o.o.o.o.o.o.o.o.o.o.o.o.o.o.X.@.5 & O O X X ",
"o $ ~ W v g +.o.o.+.o.o.o.o.o.o.o.o.o.o.o.o.o.o.o.o.o.o.+.o.o.o.o.o.o.o.o.o.o.o.o.o.o.o.o.o.o.o.o.o.o.o.o.o.o.o.+.o.d v M M b v ",
"o ; ] ` n l o.o.o.o.o.I o.o.o.o.o.o.o.o.o.o.o.o.o.o.o.o.o.o.o.o.o.o.o.o.o.o.o.o.o.o.o.o.o.o.o.o.o.o.o.o.o.o.+.o.o.o.g n N n n n ",
"o ; ( ) n g o.o.o.o.o.o.o.o.o.o.o.o.o.o.o.o.o.o.o.o.o.o.o.o.o.o.o.o.o.o.o.o.o.o.o.o.o.o.o.o.o.o.o.o.o.o.o.o.o.o.o.o.g b N N N N ",
"o : ^ ) N g o.o.o.o.o.o.o.o.o.o.o.o.o.o.o.o.o.+.o.o.o.o.o.o.o.o.o.o.o.o.o.o.o.o.o.o.o.o.o.o.o.o.o.o.o.o.o.o.o.o.o.o.g n N N N N ",
"o ; ' ` ) T o.o.o.o.o.o.o.o.o.o.o.o.o.o.o.o.o.o.o.o.o.o.o.I o.o.o.o.o.o.o.o.o.o.o.o.o.o.o.o.o.o.o.o.o.o.o.o.o.o.+.X.T ' m n n N ",
"o ; ! ( ^ T o.o.o.o.o.o.o.o.o.o.o.o.o.o.o.o.o.o.o.o.o.o.o.o.o.o.o.o.o.o.o.o.o.o.o.o.I o.o.o.o.o.o.o.o.o.o.o.o.o.+.X.T ^ N v M v ",
"o o O $ o 8 @.o.+.o.o.o.o.o.o.I o.o.o.o.o.o.o.o.o.o.o.o.o.o.o.o.o.o.o.o.o.o.o.o.o.o.o.o.o.o.o.o.o.o.o.o.o.o.o.o.o.@.5 & X O X X ",
"@ @ O @ o 8 @.X.o.o.o.o.o.o.o.o.o.o.o.o.o.o.o.o.o.o.o.o.o.o.o.o.o.o.o.o.o.o.o.o.o.o.o.+.o.o.o.o.o.o.o.o.o.o.o.o.o.@.5 & @ O X O ",
"M M M M v d o.o.o.o.o.o.o.o.o.o.o.o.o.o.o.o.o.o.o.o.o.o.o.o.o.o.o.o.o.o.o.o.o.o.o.o.o.X.o.o.o.o.o.o.o.o.o.o.o.o.o.X.T ^ M M b v ",
"N V N N n l o.o.o.o.o.o.o.o.o.o.o.o.o.o.o.o.o.o.o.o.o.o.o.o.+.o.o.o.o.o.o.o.o.o.o.o.o.o.o.o.o.o.o.o.o.o.o.o.o.o.o.X.R ` V N n n ",
"N N n N b g o.o.o.o.o.o.o.o.o.o.o.o.o.o.o.o.o.o.o.o.o.o.o.o.o.o.o.o.o.o.o.o.o.o.o.o.o.o.o.o.o.o.o.o.o.o.o.o.o.o.o.o.R ] m N N N ",
"N N m V M g o.o.o.o.o.o.o.o.o.o.o.o.o.o.o.o.o.o.o.o.o.o.o.o.o.o.o.o.o.o.o.o.o.o.o.o.o.o.o.o.o.o.o.o.o.o.o.I o.o.o.o.R ' V V N N ",
") ) ) / m G #.o.o.o.o.o.o.o.o.o.o.+.o.+.+.o.o.o.o.o.o.o.o.o.o.o.o.o.+.@.+.o.o.o.o.o.o.o.o.o.o.o.o.o.X.+.+.o.o.o.o.X._ [ ] ] ] ) ",
"' ^ 1.Y M V #.o.o.o.o.o.o.o.o.o.+.H j j h X.o.o.o.o.o.o.o.o.o.o.o.+.H j G ..+.o.o.o.o.o.o.o.o.o.o.+.@. .J +.+.o.#.@.T ^ ' ^ ' ^ ",
"; @ * O = 4 X.o.o.o.o.o.o.X.o.@.f @ X X . < X.+.o.o.o.o.o.o.o.o...t   . + < | +.o.o.o.o.o.o.o.o.+.X.2 % % 4 C X.| 9 O O @ O * * ",
"o o O ; ; o 2 +.o.o.o.o.o.o.+.k o & O O O . 1 X.o.o.o.o.o.o.o.+.u . * ; * & 4  .o.o.o.o.o.o.o.o.I 1 . - - & # > ; & X O X X X O ",
"o @ ~ W M M x k +.o.o.o.o.o. .w o # ~ W b M x s X.o.o.o.o.o.o.h + $ *.W M M c y X.+.o.o.o.o.o.+.3 . ~ ' M M v v M M M M M M M M ",
"o ; ' { V N V y H +.o.o.o.o.d v O @ ' ` n a V r l #.o.o.o.o.J t . @ ( ) V n n b d ..o.o.o.o.+.h . @ ' ` V V m N V N V N n n n n ",
"o ; ' ) N N N N y H o.#.o.j s M X @ ^ ) N N N N w h +.+.o. .y v O : ' ) N N N N e j o.+.o.#.J t X @ W ) N N N N N N N N n N N N ",
"o ; ' ` V N N V a e d h s y N M X : ^ ) V V N N n r d H } y s M X : W ) V N V N V M f | X.G y v X O ' ) V N N N N N N N N N N b ",
"o ; ' ) ) ( ) ( ( ) W Q n N N M o ; ^ ` ' ) ) ( ( ] R U e b V M o $ ^ ` ( ) ) ' ( ] Y U d e n M o ; ' ` ( ] ) ) ) ( ( W N N N N ",
"o ; ( [ ] ] ] ] ] ] [ ] N N N M X @ ^ [ ] ] [ ] ] ] ` ) V N N M X : ^ [ ] ) ] [ ] ] [ ] n n n M X @ ^ [ ] ] ] ] ] ] [ ( n N N N "
};
