/* XPM */
static char *left31708704599[] = {
/* columns rows colors chars-per-pixel */
"64 64 191 2 ",
"   c #00281F",
".  c #22201D",
"X  c #39221E",
"o  c #032D25",
"O  c #0C2E26",
"+  c #002F28",
"@  c #0D2E28",
"#  c #012721",
"$  c #1C2721",
"%  c #112E27",
"&  c #1C2922",
"*  c #122F28",
"=  c #142621",
"-  c #013027",
";  c #0E3026",
":  c #013029",
">  c #0B3128",
",  c #133027",
"<  c #113028",
"1  c #2A2823",
"2  c #372823",
"3  c #72191B",
"4  c #45231F",
"5  c #5D2422",
"6  c #512625",
"7  c #5D3A38",
"8  c #642423",
"9  c #672726",
"0  c #702523",
"q  c #002B7C",
"w  c #00327F",
"e  c #8D1B0F",
"r  c #9D1E0D",
"t  c #8C1B10",
"y  c #89181C",
"u  c #961B13",
"i  c #9C1A1B",
"p  c #9B1816",
"a  c #A61D0B",
"s  c #AD1D0A",
"d  c #B01E0D",
"f  c #A31A14",
"g  c #AD1D16",
"h  c #A21A19",
"j  c #AD191C",
"k  c #AD161B",
"l  c #B51D16",
"z  c #BF161D",
"x  c #B21B18",
"c  c #BA1A1C",
"v  c #B6171A",
"b  c #93200F",
"n  c #962311",
"m  c #9C2312",
"M  c #A5220E",
"N  c #AD220F",
"B  c #B1220F",
"V  c #A22312",
"C  c #AC2210",
"Z  c #AE281D",
"A  c #B12311",
"S  c #BE2019",
"D  c #B82311",
"F  c #981C20",
"G  c #AB2125",
"H  c #AD2C20",
"J  c #BD2B21",
"K  c #B73329",
"L  c #BA3B33",
"P  c #B5393A",
"I  c #C61C1D",
"U  c #D4181F",
"Y  c #D2171F",
"T  c #EC0D15",
"R  c #EC0F18",
"E  c #EC141C",
"W  c #EC181F",
"Q  c #CD2C19",
"!  c #D82B17",
"~  c #D3241D",
"^  c #D9241C",
"/  c #DD2E1B",
"(  c #D32C19",
")  c #CE311B",
"_  c #D2301C",
"`  c #DE311C",
"'  c #E82D17",
"]  c #E52E1A",
"[  c #EB2F1A",
"{  c #E72914",
"}  c #F12F1A",
"|  c #E2301C",
" . c #ED301B",
".. c #F2301B",
"X. c #F8301B",
"o. c #C81920",
"O. c #D41C22",
"+. c #DC1921",
"@. c #ED1720",
"#. c #E41A23",
"$. c #ED1C24",
"%. c #EF1E28",
"&. c #F31C25",
"*. c #F91B24",
"=. c #F61F28",
"-. c #C62420",
";. c #C52727",
":. c #D42B2D",
">. c #DE3428",
",. c #E42027",
"<. c #ED2027",
"1. c #ED222A",
"2. c #E4292C",
"3. c #F32129",
"4. c #F9252E",
"5. c #EA342D",
"6. c #ED2C34",
"7. c #F12D35",
"8. c #F22F38",
"9. c #EE343B",
"0. c #E4393D",
"q. c #E53336",
"w. c #F2323B",
"e. c #FB343C",
"r. c #C13B40",
"t. c #EE3941",
"y. c #F63A42",
"u. c #9A4C4D",
"i. c #A7494A",
"p. c #D84643",
"a. c #E74748",
"s. c #F04147",
"d. c #F2424A",
"f. c #F1484E",
"g. c #EE4950",
"h. c #F44C53",
"j. c #FE4C53",
"k. c #E95458",
"l. c #F3545A",
"z. c #F2585E",
"x. c #F25357",
"c. c #F95D61",
"v. c #F5686D",
"b. c #F66F73",
"n. c #F6777B",
"m. c #003381",
"M. c #033B85",
"N. c #083F88",
"B. c #083D86",
"V. c #0C428A",
"C. c #174A8E",
"Z. c #235495",
"A. c #3E69A2",
"S. c #597EAF",
"D. c #4B72A7",
"F. c #F57D82",
"G. c #698AB6",
"H. c #6E8EB9",
"J. c #6588B6",
"K. c #7894BD",
"L. c #F88588",
"P. c #F68E92",
"I. c #F79599",
"U. c #F69195",
"Y. c #F79DA1",
"T. c #F9ADB0",
"R. c #F9B5B8",
"E. c #9EB4D0",
"W. c #90A9CA",
"Q. c #A4BCD7",
"!. c #B8C6DB",
"~. c #ADCEE6",
"^. c #C7CFDF",
"/. c #FAC2C4",
"(. c #FBC7C9",
"). c #FBCBCD",
"_. c #FCD5D7",
"`. c #FDDBDC",
"'. c #FCD7D8",
"]. c #C1CFE1",
"[. c #CCDDEC",
"{. c #D2DCE9",
"}. c #FCDFE0",
"|. c #C6E0F1",
" X c #DFEEF7",
".X c #DCF0FA",
"XX c #FCE8E9",
"oX c #FEF4F3",
"OX c #F5FAFC",
"+X c #FFFEFE",
"@X c #EAEFF5",
/* pixels */
"+ + + + + + + + + + - o : + + + + + + + + + + + + o + + o + + o + + + + + + + + - o : o : : + + + + + + + + + + + + + + + + + + ",
"% @ @ % @ % % @ @ % o - , , % % % @ % @ @ % @ @ - > , , O O O   O = O @ % * * * - - * , % % @ % % % @ * % @ % % o + * , % % @ % ",
"V V V V M m m m C n O @ _ / V V V V V V V C V n o   Q / H K L L L K K H V m r e - ; _ ` V V V V V V V V V V V m @ % _ ` C V V V ",
"N A C C l C C C N V O @ ] } A A A C C C C a s C 7 u.l.z.x.j.h.h.h.h.h.l.x.k.p.;.1   /  .A C C A B C C g A C A V @ @ ] [ C C C C ",
"N C C C C C C C N V O @ ` [ C C C C C a a J p.k.j.y.6.$.W W W W E W W W $.6.t.h.k.i.>.] N C C C C N C C C C C V O @ `  .C C C C ",
"C C C A C C C C C V O @ ` [ A C A A a J a.h.w.<.W E @.$.$.$.$.$.$.$.$.$.$.@.W W &.e.g.g.J s C C C C C A C C C V O @ ` [ A C C C ",
"[ [ [ [ C C A C B V O @ | X. . .{ ] a.h.w.W W @.$.$.$.$.$.$.$.$.$.$.$.$.&.$.$.$.$.W W 6.h.a.] [  . .[ [ C C A V O @ | X.[  . . .",
"| ` | / V m V V V n @ < _ | ` ! 5.g.9.@.@.$.$.$.@.$.$.$.$.$.$.$.$.$.$.$.$.$.$.$.$.$.$.W W w.g.5.! ` | / V m V n O @ _ | ` ` | | ",
"* % @ ; > o @ @ @ @ + + * > $ P d.<.W $.$.$.$.$.&.$.$.$.$.$.$.$.$.$.$.$.$.$.$.$.$.$.$.$.$.W <.d.P & > % @ o O @ - + % , ; ; ; ; ",
"+ - @ % @ @ @ @ > O @ @ O & P e.W $.$.$.$.$.$.$.$.$.$.$.$.$.$.$.$.$.$.$.$.$.$.$.$.$.$.$.$.$.@.W e.r.& ; @ @ O @ @ @ O @ O O O O ",
"+ % _ / V V V V V V V V m 0.e.W $.&.$.$.$.$.$.$.$.$.$.$.$.$.$.$.$.$.$.$.$.$.$.$.$.$.$.$.$.$.$.$.W e.0.( V V V V M m V V V V V m ",
"- , | } A C C C N C C s q.8.W &.$.$.$.$.$.$.$.$.$.$.$.$.$.$.$.$.$.$.$.$.$.$.$.$.$.$.$.$.$.$.$.$.$.W 8.q.d C C C N N N N N A N N ",
"+ , | [ C C C C N V a :.7.@.$.$.$.$.$.$.$.$.$.$.$.$.$.$.$.$.$.$.$.$.$.$.$.$.$.$.$.$.$.$.$.$.$.$.@.$.@.9.:.a C C C C C C C C C C ",
"+ , ] [ A C C C C N -.w.@.$.$.$.$.$.$.$.$.$.$.$.$.$.$.$.$.$.$.$.$.$.$.$.$.$.$.$.$.$.$.$.$.$.$.$.$.$.$.@.9.-.N C C C C C C C V C ",
"+ , | } [ [ [ [  ./ 6.<.$.$.$.$.$.$.$.$.$.$.$.$.$.$.$.$.$.$.$.$.$.$.$.$.$.$.$.$.$.&.$.$.$.$.$.$.$.$.$.$.%.6./  .[ [ [ ] A C s C ",
"+ , _ | ` ` ] | ! 2.1.$.$.$.$.$.$.$.W $.$.$.$.$.$.$.$.$.$.$.$.$.@.$.$.$.$.$.$.$.$.$.$.$.$.$.$.$.$.$.$.$.@.1.2./ ` ` ` ` C m V V ",
"+ + @ @ % @ % : 9 4.$.$.$.$.$.$.$.$.$.$.$.$.$.$.$.$.$.$.$.$.$.$.$.$.$.$.$.$.$.@.$.$.$.$.$.$.$.$.$.$.$.$.$.@.4.9 - , ; @ @ O O O ",
"% % @ @ @ @ @ % ;.3.$.$.$.$.<.%.1.$.$.$.$.$.$.$.$.$.$.$.$.$.$.$.$.$.$.$.<.<.1.$.<.$.$.$.$.$.$.$.$.$.$.$.$.$.3.;.+ : % ; @ @ O O ",
"V V V V V V m l 3.$.$.$.$.W T T R R W $.$.$.$.$.$.@.&.$.$.$.$.$.$.$.$.E R T T T @.1.$.$.$.$.$.$.$.$.$.$.$.$.@.4.6 - _ ` C V m V ",
"N C N C C N M O.3.$.$.E E s.n.U.P.b.9.T $.$.$.$.$.$.$.$.$.$.$.$.$.W E f.F.U.P.v.7.T $.$.$.$.$.$.$.$.$.$.$.$.$.3.G O ] } C C B C ",
"C C M N C C C #.$.$.E 9.R.+X+X+X+X+X+XI.1.W $.$.$.$.$.$.$.$.$.$.E y.(.+X+X+X+X+XoXP.@.W $.$.$.$.$.$.$.$.$.$.$.$.,.2 _ [ C C V C ",
"C A C C C M c 1.$.E d.oX+XOX+X+X+X+X+X+X_.6.@.$.$.$.$.$.$.$.$.E z.+X+XOX+X+X+X+X+X+X/.<.@.$.$.$.$.$.$.$.$.$.$.$.=.0 _ } A C C A ",
" .[ ..[ A N I 3.@.6.XX+X+X+X+X+X+X+X+X+X+X(.@.$.$.$.$.$.$.<.W t.+X+X+X+X+X+X+X+X+X+X+XT.E $.$.$.$.$.$.$.$.$.$.$.=.G _ X.[  . . .",
"| ` | ` V n +.3.T Y.+X].H.G.!.+X+X+X+X+X+X+Xb.R 1.$.$.$.$.$.E R.+X!.G.H.].+X+X+X+X+X+X+Xz.E $.$.$.$.$.$.$.$.$.$.$.O.) | ` | | | ",
", % ; % - 1 #.@.1.oXQ.m.m.m.q K.+X+X+X+X+X+X).W $.$.$.$.$.E 9.+XW.q m.m.m.E.+X+X+X+X+X+XR.T <.$.$.$.$.$.$.$.$.$.&.#.1 > , ; ; ; ",
"+ + ; % - 2 3.E x.OXC.M.V.V.V.M.[.+X+X+X+X+XoX6.@.$.$.$.$.T b..XM.M.V.V.M.V.@X+X+X+X+X+X}.$.$.<.$.$.$.$.$.$.$.$.$.$.2 : ; @ O @ ",
"o * _ / V g $.T v.[.M.V.N.N.V.w E.+X+X+X+X+X+Xy.W $.$.$.<.T L.~.w V.V.M.V.m.!.+X+X+X+X+XXX7.@.$.$.$.$.$.$.$.@.$.$.@.C m V V V V ",
": , | } C g %.R c. XM.V.V.N.V.w !.+X+X+X+X+XoX9.W $.$.$.3.R n.|.w V.V.V.V.M.{.+X+X+X+X+XXX1.@.$.$.$.$.$.$.$.$.$.$.$.l C C N N N ",
"+ , ` [ C l %.W 9.+XG.q M.M.q A.+X+X+X+X+X+X`.$.@.$.$.$.$.W g.+XD.q M.B.q S.+X+X+X+X+X+X/.E $.$.$.$.$.$.$.$.$.$.$.$.l M C C C C ",
"+ , | } C l $.$.E /.+XK.Z.Z.J.@X+X+X+X+X+X+XI.T 3.$.$.$.$.@.@.'.OXG.Z.Z.H.+X+X+X+X+X+X+Xn.T 1.$.$.$.$.$.$.$.$.$.$.$.l M C C C C ",
"+ , | }  .~ @.<.E h.+X+XOXOX+X+X+X+X+X+X+XoX6.@.$.$.$.$.$.1.T v.+X+XOXOX+X+X+X+X+XoX+X`.1.@.$.$.$.$.$.$.$.$.$.$.$.$.^  .A s C C ",
"+ , _ | ` ~ $.$.$.T F.+X+X+X+X+X+X+X+X+X+Xz.R $.$.$.$.$.$.$.$.E I.+X+X+XOX+X+X+X+X+X+Xs.W <.$.$.$.$.$.$.$.$.$.$.$.$.~ ` V V m m ",
"+ + @ * + 8 &.$.$.$.R b.oX+X+X+X+X+X+XXXx.R <.$.$.$.$.$.$.$.$.$.E L.+X+X+X+X+X+X+X_.s.R <.$.$.$.$.$.$.$.$.$.$.$.$.&.5 - ; O O O ",
"% % @ @ + 8 *.$.$.$.<.T 6.L./.`.'.R.n.1.R <.$.$.$.$.$.$.$.$.$.$.@.R 9.P.(.`._.R.v.&.E <.$.$.$.$.$.$.$.$.$.$.&.$.$.*.5 - , O @ @ ",
"V m V V m x $.$.$.$.$.<.W T R $.@.E T @.<.$.$.$.$.$.$.$.&.$.$.$.$.<.W T E $.@.R T $.$.$.$.$.$.$.$.$.$.$.$.$.$.$.$.@.~ ` C V m m ",
"B C N N N l $.$.$.$.$.$.$.<.$.$.$.<.<.$.$.$.$.$.$.$.$.$.$.$.$.$.$.$.$.1.$.$.$.<.<.$.$.$.$.$.$.$.$.$.$.$.$.$.$.$.$.#.^  .C C A C ",
"C C C C N l $.$.$.$.$.$.$.$.$.$.$.$.$.$.$.$.$.$.$.$.$.$.$.$.$.$.$.$.$.$.$.$.$.$.$.$.$.$.$.$.$.$.$.$.$.$.$.$.$.W $.$.^ | C C C C ",
"C A C C M l $.$.$.$.$.$.$.$.$.$.$.$.$.$.$.$.$.$.$.$.$.$.$.$.$.$.$.$.$.$.$.$.$.$.$.$.$.$.$.$.$.$.$.$.$.$.$.$.$.$.$.#.^  .A C C C ",
"[ [ [ [ N l $.$.$.$.$.$.$.$.$.$.$.$.$.$.$.$.$.$.W $.$.$.$.$.$.$.$.$.$.$.$.$.$.$.$.$.$.$.$.$.$.$.$.$.$.$.$.$.$.$.$.@.^ ..[  . . .",
"| ` | / V g &.$.$.$.$.$.$.$.$.$.$.$.$.$.$.$.$.$.$.$.$.$.$.$.$.$.$.$.$.$.$.$.$.$.$.$.$.$.$.$.$.$.$.$.$.$.$.$.$.$.$.#.~ ` | ` | | ",
"* * O , - 8 *.#.$.$.$.$.$.$.$.$.$.$.$.$.$.$.$.$.$.$.$.$.$.$.$.$.$.$.$.$.$.$.$.$.$.$.$.$.$.$.$.$.$.$.$.$.$.$.$.$.$.=.5 - , ; ; ; ",
"+ + @ % - 8 *.$.$.$.$.$.$.$.$.<.$.$.$.$.$.$.$.$.$.$.$.$.$.$.$.$.$.$.$.$.$.$.$.$.$.$.$.$.$.$.$.$.$.$.$.$.$.$.$.$.$.*.5 - @ O O O ",
"+ * _ / m l @.$.$.$.$.$.$.$.$.W $.$.$.$.$.$.&.$.$.$.$.$.$.$.$.$.$.$.$.$.$.$.$.$.$.$.$.$.$.$.$.$.$.$.$.$.$.$.$.$.@.$.g m V V V V ",
"+ ,  .} N l $.$.$.$.$.$.$.$.$.$.$.$.$.@.$.$.$.$.$.$.$.$.$.$.$.$.$.$.$.@.$.$.$.$.$.$.$.$.$.$.$.$.$.$.$.$.$.$.$.$.$.$.l C C N N N ",
"- , ` [ C x $.$.$.$.$.$.$.$.W $.$.$.$.$.$.$.$.$.$.$.$.$.$.$.$.@.$.$.$.$.$.$.$.$.$.$.$.$.$.$.$.$.$.$.$.$.$.$.$.$.$.$.l M C C C C ",
"- , | [ C D $.$.$.$.$.$.$.$.$.$.$.$.$.$.$.$.$.$.$.$.$.$.$.$.$.$.$.$.$.$.$.$.$.$.$.$.$.$.$.$.&.W $.$.$.$.$.$.$.$.$.@.l N C C C C ",
"- , 2...[ ~ $.$.$.$.$.$.$.$.$.$.$.$.$.$.$.$.$.$.$.$.$.$.$.$.$.$.$.$.$.$.$.$.$.$.$.$.$.$.$.$.$.$.$.$.$.$.$.$.$.$.&.#.~ | B N C C ",
"+ , ) ] / ~ $.$.&.$.$.$.$.$.$.$.$.$.$.$.$.$.$.$.&.$.$.$.$.$.$.$.$.$.$.$.$.&.$.$.$.$.$.$.$.$.$.$.$.$.@.$.$.$.$.$.$.$.~ ` C m V m ",
"+ + @ * + 8 *.#.$.$.$.$.$.$.$.$.$.$.$.$.$.$.$.$.$.$.$.$.$.$.$.$.$.$.$.$.$.$.$.$.$.$.$.$.$.$.$.$.$.&.$.$.$.$.$.$.$.&.5 - ; O @ o ",
"@ % @ % + 8 *.@.$.$.$.$.$.$.$.$.$.$.$.$.$.$.$.@.$.$.$.$.$.$.$.$.$.$.$.$.$.$.$.$.$.$.$.$.$.$.$.$.$.$.$.$.$.$.$.$.$.*.5 - , @ @ @ ",
"V V M V m l $.$.$.$.$.$.$.$.$.$.$.$.$.$.$.$.$.$.$.$.$.$.$.$.$.$.$.$.$.$.$.$.$.$.$.@.$.$.$.$.$.$.$.$.$.$.$.$.$.$.$.#.~ ` V V V V ",
"C N C C g v $.$.$.$.$.$.$.$.$.$.$.$.$.$.$.$.$.$.$.$.$.$.$.$.$.$.$.$.$.$.$.$.$.$.$.$.$.$.$.$.$.$.$.$.$.$.$.$.$.$.$.@.^  .D C C C ",
"N C C C M l $.$.$.$.$.$.$.$.$.$.$.$.$.$.$.$.$.$.$.$.$.$.$.$.$.$.$.$.$.$.$.$.$.$.$.$.$.$.$.$.$.$.$.$.$.$.$.$.$.$.$.$.~  .C C C C ",
"C C C A C l $.$.$.$.$.$.$.$.$.$.$.$.$.$.$.$.@.$.$.$.$.$.$.$.$.$.$.$.$.$.$.$.$.$.$.$.$.$.$.$.$.$.$.$.$.$.$.$.$.$.$.#.^  .A C C C ",
"[  .[ [ N l &.&.*.$.$.$.$.$.$.$.$.$.$.$.&.&.$.$.&.$.$.$.$.$.$.$.$.$.$.$.@.&.=.&.*.$.$.$.$.$.$.$.$.$.$.$.$.$.&.&.*.&.^ ..[  . . .",
"| ` | ` V m A Z G &.$.$.$.$.$.$.$.$.$.&.+.h u p j #.$.$.$.$.$.$.$.$.$.$.&.U p i i #.&.$.$.$.$.$.$.$.$.$.$.&.Y p 9 8 _ | | ` | | ",
", % @ @ > O O o + i &.$.$.$.$.$.$.$.&.o.1 o O +   3 #.$.$.$.$.$.$.$.$.&.z . o + + X O.$.$.$.$.$.$.$.$.@.&.j = + : : , ; @ ; ; ; ",
"+ + ; @ O @ ; @ > = c =.$.$.$.$.$.$.#.4 - % @ @ @ O y @.$.$.$.$.$.$.&.O.X - % @ % - 4 E $.$.$.$.$.$.$.=.o.1 - < % % O @ @ O O @ ",
"+ % _ ] V m V V V m u +.$.$.$.$.$.@.Q ) C V V V M m t k $.$.$.$.$.&.+.g m V M m V V n f #.$.$.$.$.$.&.O.u n V V V V V V V V V V ",
"+ , | } A C C N N B M f #.&.$.$.*.v Q ..C N C N N N N t z &.$.$.$.@.c ! D N N N N N C M x $.$.$.$.$.+.S C N N N N N N C N N N N ",
"+ , | [ C C C C N C N m f +.&.&.z 1 ` [ C C C C N C C M t z &.&.&.j Q ..C C C C C C C C r x $.&.=.+.Q / C C C N C C M N N C C C ",
"+ , | [ A C C C C B N A M u k f $ ; 2.[ A C C C C A N A N e p v 3 & ` [ A C C C C C C C C r p c y X ( [ A N C C C A C N C C C M ",
"+ , ] [ ] [ [ [ | [ [ ] C C M b o , ` } | [ [ ] ] ] [ ] A M M e + @ ` [ ] [ [ ] [ [ | ] A C N e + > ] } ] [  .[ |  . .| N M C C ",
"+ , ` .. . . . . . . . .C C C C @ < ` .. . . ... . . . .C C A V @ % ` .. ... . .[  ... .C C A V @ < / }  . . . . . . . .B f C C "
};
