/* XPM */
static char *_23917c9fbed43ee8d77cdfa6f60b0f0gGMFWsJnFrvziYe6[] = {
/* columns rows colors chars-per-pixel */
"64 64 201 2 ",
"   c #2E3E1E",
".  c #042E27",
"X  c #022F28",
"o  c #092F28",
"O  c #0A2F27",
"+  c #1B2E27",
"@  c #043027",
"#  c #0C3425",
"$  c #0F3827",
"%  c #043029",
"&  c #1E3026",
"*  c #123924",
"=  c #103624",
"-  c #212F26",
";  c #233126",
":  c #263A25",
">  c #283121",
",  c #7D2616",
"<  c #22431F",
"1  c #32411E",
"2  c #3A431C",
"3  c #354F1B",
"4  c #3B4E1B",
"5  c #1C4123",
"6  c #274823",
"7  c #354622",
"8  c #3B4B23",
"9  c #394726",
"0  c #38592A",
"q  c #545017",
"w  c #485D17",
"e  c #5F7417",
"r  c #757F0F",
"t  c #6A6D17",
"y  c #726F15",
"u  c #627111",
"i  c #4D6624",
"p  c #893F0F",
"a  c #9C320E",
"s  c #8D2515",
"d  c #8C2D11",
"f  c #932716",
"g  c #982412",
"h  c #992D15",
"j  c #8B3610",
"k  c #9E301F",
"l  c #993412",
"z  c #A4250F",
"x  c #A22B0E",
"c  c #AD2B0F",
"v  c #A2300D",
"b  c #AD340F",
"n  c #B2380F",
"m  c #AB2210",
"M  c #AD2910",
"N  c #B42412",
"B  c #B92612",
"V  c #BB2A12",
"C  c #BB2F1C",
"Z  c #AB301F",
"A  c #BC3511",
"S  c #DE2D18",
"D  c #D22E17",
"F  c #CF3917",
"G  c #C2301E",
"H  c #C13F1C",
"J  c #D93B17",
"K  c #D0301C",
"L  c #D93518",
"P  c #E52F1A",
"I  c #ED311B",
"U  c #E93A19",
"Y  c #E63419",
"T  c #84410F",
"R  c #8D5F0C",
"E  c #974215",
"W  c #A64A0B",
"Q  c #B5440D",
"!  c #B44C0C",
"~  c #A5530A",
"^  c #A85A09",
"/  c #B6590B",
"(  c #BE4610",
")  c #BB5817",
"_  c #A74714",
"`  c #93660C",
"'  c #AF6D07",
"]  c #A6680E",
"[  c #B86A09",
"{  c #AE7506",
"}  c #B67308",
"|  c #A7661A",
" . c #B1691E",
".. c #A54B20",
"X. c #C5540F",
"o. c #CD4818",
"O. c #C74813",
"+. c #D24215",
"@. c #C75310",
"#. c #DB5512",
"$. c #EC4118",
"%. c #E44917",
"&. c #E8571A",
"*. c #C56F0C",
"=. c #C4740B",
"-. c #C57B0A",
";. c #CE7D0B",
":. c #C56B15",
">. c #C86A13",
",. c #CA781A",
"<. c #D27410",
"1. c #E97814",
"2. c #F0771E",
"3. c #C35D2D",
"4. c #C35924",
"5. c #D17121",
"6. c #EA7425",
"7. c #7B830E",
"8. c #6E832B",
"9. c #778927",
"0. c #80870C",
"q. c #92970C",
"w. c #909A12",
"e. c #BD9305",
"r. c #B4A20B",
"t. c #B6A706",
"y. c #BAB606",
"u. c #B9B01F",
"i. c #BCBC31",
"p. c #C88C07",
"a. c #C99D05",
"s. c #D69819",
"d. c #CBAE03",
"f. c #D4A206",
"g. c #D3AB05",
"h. c #C5B205",
"j. c #D6B902",
"k. c #DABB03",
"l. c #D4B504",
"z. c #C5AA1B",
"x. c #EBA40D",
"c. c #E1BD04",
"v. c #F1A11C",
"b. c #E3BD14",
"n. c #DDA62C",
"m. c #CCB82A",
"M. c #F5AB2F",
"N. c #E2B72C",
"B. c #E8BF2C",
"V. c #F5B42A",
"C. c #CEC704",
"Z. c #DBC102",
"A. c #D4CC03",
"S. c #D7C802",
"D. c #DED401",
"F. c #D2CE1D",
"G. c #E3CD02",
"H. c #EACF03",
"J. c #E2D402",
"K. c #E6D901",
"L. c #ECDE01",
"P. c #F2DE02",
"I. c #EEC918",
"U. c #F8D41F",
"Y. c #F4C917",
"T. c #EEE100",
"R. c #EEE40A",
"E. c #F2E501",
"W. c #F6E900",
"Q. c #FAED00",
"!. c #F7E10C",
"~. c #FFF200",
"^. c #FFF30C",
"/. c #F9E514",
"(. c #FBED16",
"). c #FFF314",
"_. c #FFF31C",
"`. c #DDD925",
"'. c #CBCB34",
"]. c #DDD938",
"[. c #EAC825",
"{. c #F0C72C",
"}. c #F4D12D",
"|. c #ECC836",
" X c #F5C832",
".X c #E3DD3B",
"XX c #F2DA36",
"oX c #FBEF2D",
"OX c #FEF322",
"+X c #FEF22B",
"@X c #EFE038",
"#X c #EFE93A",
"$X c #E6E13A",
"%X c #FCEB31",
"&X c #FDE93B",
"*X c #F5EB38",
"=X c #FFF432",
"-X c #FEF43B",
";X c #CBCC40",
":X c #E6D946",
">X c #F6DF43",
/* pixels */
"X X X X X X X X X X X X X X X X X X X X X X X X X X X X X X X X X X X X X X X X X X X X X X X X X X X X X X X X X X X X X X X X ",
"+ + + + + + + + + + O X ; ; + + + + + + + + + + @ o & ; + + + + + + + + + + + + @ o & ; + + + + + + + + + + + + @ o & ; + + + + ",
"s s s s s s s s s , + + Z C g s s s s s s s s s X + k C f s s s s s s s s s s s X + k C f s s s s s s s s s s s X + k C f s s s ",
"m m m m m m m m m g - - K P B m m m m m m m m m X - G P B m m m m m m m m m m m X - G P B m m m m m m m m m m m X - G P B m m m ",
"m m m m m m m m m g - - K P B m b m m m m m m m X - G P B m m m m m m m m m m m X - G P B m m b m m m m m m m m X - G P B m m m ",
"B B B B m m m m m g - - K P V =.l.m B B m m m m X - G P B B B B B B B B m m m m X - G P B B B b.} M B B m m m m X - G P B B B B ",
"P P P S N m m m m g - + K U 1.(.E.O.S S N m m m X - G I P P P P P P P S N m m m X - G I P P %.-XT.*.L S N m m m X - G I P P P P ",
"I I I P N m m m m g - ; o.Y._.~.~.g.+.P N m m m % ; G I I I I I I I I P N m m m % ; G I I $.V.^.~.Q.Z.+.N m m m % ; G I I I I I ",
"% % % X X X X X X X X 6 F.^.~.~.~.E.7.X X X X % . . @ % % % % % % % % X X X X % . . @ % % 8.-X~.~.~.~.C.3 X X % . . @ % % % % % ",
"X o + - + + + + + + 8 `.^.~.~.~.~.~.A.1 + + + + + + + + + + + + X o + - + + + + + + + + 7 ].).~.~.~.~.~.A.4 + + + + + + + + + + ",
"X & k C f s s s s E z.).~.~.~.~.~.~.E.] s s s s s s s s s s s s X & k C f s s s s s s s | oX~.~.~.~.~.~.Q.t.T s s s s s s s s s ",
"X ; G P B m m m c [._.~.~.~.~.~.~.~.~.j.v m m m m m m m m m m m X ; G P B m m m m m m c [.^.~.~.~.~.~.~.~.Q.Z.x m m m m m m m m ",
"X ; G P B m m m s._.~.~.~.~.~.~.~.~.~.E.' m m m m m m m m m m m X ; G P B m m m m m m :.oX~.~.~.~.~.~.~.~.~.Q.e.z m m m m m m m ",
"X ; G P B B B >.+X~.~.~.~.~.~.~.~.~.~.~.j.b B B B B B B m m m m X ; G P B B B B B B A |.^.~.~.~.~.~.~.~.~.~.~.W.' B B B m m m m ",
"X ; G I P P P }.^.~.~.~.~.~.~.~.~.~.~.~.T.X.P P P P P S N m m m X ; G I P P P P P P &.%X~.~.~.~.~.~.~.~.~.~.~.~.Z.D P S N m m m ",
"X ; G I I I 1.+X~.~.~.~.~.~.~.~.~.~.~.~.~.g.F I I I I P B m m m X ; G I I I I I I U V.).~.~.~.~.~.~.~.~.~.~.~.~.Q.-.L P B m m m ",
"X X X X X 0 $X~.~.~.~.~.~.~.~.~.~.~.~.~.~.T.7.X X X X X X X X X X X X X X X X X X 9.*X~.~.~.~.~.~.~.~.~.~.~.~.~.~.D.w X X X X X ",
"+ + + + ; i.+X~.~.~.~.~.~.~.~.~.~.~.~.~.~.~.K.; @ o & ; + + + + + + + + + + + + * #X).~.~.~.~.~.~.~.~.~.~.~.~.~.~.~.y.> + + + + ",
"s s s s E @X^.~.~.~.~.~.~.~.~.~.~.~.~.~.~.~.Q.R X + k C f s s s s s s s s s s s i =X~.~.~.~.~.~.~.~.~.~.~.~.~.~.~.~.J._ f s s s ",
"m m m m ,.OX~.~.~.~.~.~.~.~.~.~.~.~.~.~.~.~.~.Z.# - G P B m m m m m m m m m m m '.~.~.~.~.~.~.~.~.~.~.~.~.~.~.~.~.~.Q.-.m m m m ",
"m m m c B.^.~.~.~.~.~.~.~.~.~.~.~.~.~.~.~.~.~.W.u - G P B m m m m m m m m m m :.=X~.~.~.~.~.~.~.~.~.~.~.~.~.~.~.~.~.~.l.x m m m ",
"B B B O.&X~.~.~.~.~.~.~.~.~.~.~.~.~.~.~.~.~.~.~.C.> G P B B B B B B B B m m m XX^.~.~.~.~.~.~.~.~.~.~.~.~.~.~.~.~.~.~.L.W B B B ",
"P P P 6.+X~.~.~.~.~.~.~.~.~.~.~.~.~.~.~.~.~.~.~.W.q C I P P P P P P P S N m Q -X~.~.~.~.~.~.~.~.~.~.~.~.~.~.~.~.~.~.~.W.=.P P P ",
"I I I M._.~.~.~.~.~.~.~.~.~.~.~.~.~.~.~.~.~.~.~.~.h.o.I I I I I I I I P N n N.^.~.~.~.~.~.~.~.~.~.~.~.~.~.~.~.~.~.~.~.~.f.P I I ",
"% % $ ;X^.~.~.~.~.~.~.~.~.~.~.~.~.~.~.~.~.~.~.~.~.E.7.. % % % % % % % X X 9.-X~.~.~.~.~.~.~.~.~.~.~.~.~.~.~.~.~.~.~.~.~.y.= % % ",
"X o 7 :X~.~.~.~.~.~.~.~.~.~.~.~.~.~.~.~.~.~.~.~.~.~.A.1 + + + + X o + - 7 .X^.~.~.~.~.~.~.~.~.~.~.~.~.~.~.~.~.~.~.~.~.~.A.  + + ",
"X & ..>X~.~.~.~.~.~.~.~.~.~.~.~.~.~.~.~.~.~.~.~.~.~.E.` s s s s X & k C  .oX~.~.~.~.~.~.~.~.~.~.~.~.~.~.~.~.~.~.~.~.~.~.K.p s s ",
"X ; 4.&X~.~.~.~.~.~.~.~.~.~.~.~.~.~.~.~.~.~.~.~.~.~.~.j.v m m m X ; G U {.^.~.~.~.~.~.~.~.~.~.~.~.~.~.~.~.~.~.~.~.~.~.~.E.W m m ",
"X ; 3.%X~.~.~.~.~.~.~.~.~.~.~.~.~.~.~.~.~.~.~.~.~.~.~.W.' m m m X ; G 2.+X~.~.~.~.~.~.~.~.~.~.~.~.~.~.~.~.~.~.~.~.~.~.~.E.~ m m ",
"X ; 3.+X~.~.~.~.~.~.~.~.~.~.~.~.~.~.~.~.~.~.~.~.~.~.~.~.k.v m m X ; H  X^.~.~.~.~.~.~.~.~.~.~.~.~.~.~.~.~.~.~.~.~.~.~.~.W.~ m m ",
"X ; 3.+X~.~.~.~.~.~.~.~.~.~.~.~.~.~.~.~.~.~.~.~.~.~.~.~.E.~ m m X ; 4.%X~.~.~.~.~.~.~.~.~.~.~.~.~.~.~.~.~.~.~.~.~.~.~.~.W.~ m m ",
"X ; 3.oX~.~.~.~.~.~.~.~.~.~.~.~.~.~.~.~.~.~.~.~.~.~.~.~.~.d.a m X : m.).~.~.~.~.~.~.~.~.~.~.~.~.~.~.~.~.~.~.~.~.~.~.~.~.E.~ m m ",
"X X 0 #X~.~.~.~.~.~.~.~.~.~.~.~.~.~.~.~.~.~.~.~.~.~.~.~.~.E.0.X X 9.*X~.~.~.~.~.~.~.~.~.~.~.~.~.~.~.~.~.~.~.~.~.~.~.~.~.E.3 X X ",
"+ + 9 :X~.~.~.~.~.~.~.~.~.~.~.~.~.~.~.~.~.~.~.~.~.~.~.~.~.~.L.: : *X).~.~.~.~.~.~.~.~.~.~.~.~.~.~.~.~.~.~.~.~.~.~.~.~.~.K.2 + + ",
"s s l :X~.~.~.~.~.~.~.~.~.~.~.~.~.~.~.~.~.~.~.~.~.~.~.~.~.~.Q.` | =X~.~.~.~.~.~.~.~.~.~.~.~.~.~.~.~.~.~.~.~.~.~.~.~.~.~.G.j s s ",
"m m c |.^.~.~.~.~.~.~.~.~.~.~.~.~.~.~.~.~.~.~.~.~.~.~.~.~.~.~.G.[.~.~.~.~.~.~.~.~.~.~.~.~.~.~.~.~.~.~.~.~.~.~.~.~.~.~.~.j.x m m ",
"m m m n._.~.~.~.~.~.~.~.~.~.~.~.~.~.~.~.~.~.~.~.~.~.~.~.~.~.~.~.~.~.~.~.~.~.~.~.~.~.~.~.~.~.~.~.~.~.~.~.~.~.~.~.~.~.~.~.a.z m m ",
"B B B 5.+X~.~.~.~.~.~.~.~.~.~.~.~.~.~.~.~.~.~.~.~.~.~.~.~.~.~.~.~.~.~.~.~.~.~.~.~.~.~.~.~.~.~.~.~.~.~.~.~.~.~.~.~.~.~.W.} B B B ",
"P P P &.&X~.~.~.~.~.~.~.~.~.~.~.~.~.~.~.~.~.~.~.~.~.~.~.~.~.~.~.~.~.~.~.~.~.~.~.~.~.~.~.~.~.~.~.~.~.~.~.~.~.~.~.~.~.~.T.@.P P P ",
"I I I Y {.^.~.~.~.~.~.~.~.~.~.~.~.~.~.~.~.~.~.~.~.~.~.~.~.~.~.~.~.~.~.~.~.~.~.~.~.~.~.~.~.~.~.~.~.~.~.~.~.~.~.~.~.~.~.k.J I I I ",
"% % % X 8._.~.~.~.~.~.~.~.~.~.~.~.~.~.~.~.~.~.~.~.~.~.~.~.~.~.~.~.~.~.~.~.~.~.~.~.~.~.~.~.~.~.~.~.~.~.~.~.~.~.~.~.~.Q.r . % % % ",
"X o + - 8 .X~.~.~.~.~.~.~.~.~.~.~.~.~.~.~.~.~.~.~.~.~.~.~.~.~.~.~.~.~.~.~.~.~.~.~.~.~.~.~.~.~.~.~.~.~.~.~.~.~.~.~.~.J.2 + + + + ",
"X & k C h N.+X~.~.~.~.~.~.~.~.~.~.~.~.~.~.~.~.~.~.~.~.~.~.~.~.~.~.~.~.~.~.~.~.~.~.~.~.~.~.~.~.~.~.~.~.~.~.~.~.~.~.Q.d.d s s s s ",
"X ; G P B ) XX~.~.~.~.~.~.~.~.~.~.~.~.~.~.~.~.~.~.~.~.~.~.~.~.~.~.~.~.~.~.~.~.~.~.~.~.~.~.~.~.~.~.~.~.~.~.~.~.~.~.J.^ m m m m m ",
"X ; G P B m ,.OX~.~.~.~.~.~.~.~.~.~.~.~.~.~.~.~.~.~.~.~.~.~.~.~.~.~.~.~.~.~.~.~.~.~.~.~.~.~.~.~.~.~.~.~.~.~.~.~.Q.{ x m m m m m ",
"X ; G P B B V {.^.~.~.~.~.~.~.~.~.~.~.~.~.~.~.~.~.~.~.~.~.~.~.~.~.~.~.~.~.~.~.~.~.~.~.~.~.~.~.~.~.~.~.~.~.~.~.~.Z.M B B m m m m ",
"X ; G I P P P 1.=X~.~.~.~.~.~.~.~.~.~.~.~.~.~.~.~.~.~.~.~.~.~.~.~.~.~.~.~.~.~.~.~.~.~.~.~.~.~.~.~.~.~.~.~.~.~.W.=.P P S N m m m ",
"X ; G I I I I I v._.~.~.~.~.~.~.~.~.~.~.~.~.~.~.~.~.~.~.~.~.~.~.~.~.~.~.~.~.~.~.~.~.~.~.~.~.~.~.~.~.~.~.~.~.~.a.P I I P B m m m ",
"X X X X X X X X # `._.~.~.~.~.~.~.~.~.~.~.~.~.~.~.~.~.~.~.~.~.~.~.~.~.~.~.~.~.~.~.~.~.~.~.~.~.~.~.~.~.~.~.Q.A.* X X X X X X X X ",
"+ + + + + + + + @ 6 u.).~.~.~.~.~.~.~.~.~.~.~.~.~.~.~.~.~.~.~.~.~.~.~.~.~.~.~.~.~.~.~.~.~.~.~.~.~.~.~.~.Q.t.2 + @ o & ; + + + + ",
"s s s s s s s s X + ) U.^.~.~.~.~.~.~.~.~.~.~.~.~.~.~.~.~.~.~.~.~.~.~.~.~.~.~.~.~.~.~.~.~.~.~.~.~.~.~.~.G.W s s X + k C f s s s ",
"m m m m m m m m X - G &.I.^.~.~.~.~.~.~.~.~.~.~.~.~.~.~.~.~.~.~.~.~.~.~.~.~.~.~.~.~.~.~.~.~.~.~.~.~.~.Z.W m m m X - G P B m m m ",
"m m m m m m m m X - G P ( b.(.~.~.~.~.~.~.~.~.~.~.~.~.~.~.~.~.~.~.~.~.~.~.~.~.~.~.~.~.~.~.~.~.~.~.W.j.W m m m m X - G P B m m m ",
"B B B B m m m m X - G P B A <./.^.~.~.~.~.~.~.~.~.~.~.~.~.~.~.~.~.~.~.~.~.~.~.~.~.~.~.~.~.~.~.~.L.=.n B m m m m X - G P B B B B ",
"P P P S N m m m X - G I P P P 1./.^.~.~.~.~.~.~.~.~.~.~.~.~.~.~.~.~.~.~.~.~.~.~.~.~.~.~.~.~.~.L.;.S P S N m m m X - G I P P P P ",
"I I I P N m m m % ; G I I I I I $.x.!.^.~.~.~.~.~.~.~.~.~.~.~.~.~.~.~.~.~.~.~.~.~.~.~.~.~.L.f.J I I I P N m m m % ; G I I I I I ",
"% % % X X X X % . . @ % % % % % % X 5 w.R.~.~.~.~.~.~.~.~.~.~.~.~.~.~.~.~.~.~.~.~.~.~.L.q.< . X % % % X X X X % . . @ % % % % % ",
"X o + - + + + + + + + + + + + + X o + - ; y r.E.~.~.~.~.~.~.~.~.~.~.~.~.~.~.~.Q.T.r.y > + + + + X o + - + + + + + + + + + + + + ",
"X & k C f s s s s s s s s s s s X & k C f s a / p.c.H.P.W.Q.Q.Q.Q.Q.Q.W.P.G.k.p./ a s s s s s s X & k C f s s s s s s s s s s s ",
"X ; G P B m m m m m m m m m m m X ; G P B m m m m M b Q ! / [ [ e t >.#.Q b c m m m m m m m m m X ; G P B m m m m m m m m m m m ",
"X ; G P B m m m m m m m m m m m X ; G P B m m m m m m m m m m m X ; G P B m m m m m m m m m m m X ; G P B m m m m m m m m m m m ",
"X ; G P B B B B B B B B m m m m X ; G P B B B B B B B B m m m m X ; G P B B B B B B B B m m m m X ; G P B B B B B B B B m m m m ",
"X ; G I P P P P P P P S N m m m X ; G I P P P P P P P S N m m m X ; G I P P P P P P P S N m m m X ; G I P P P P P P P S N m m m ",
"X ; G I I I I I I I I P B m m m X ; G I I I I I I I I P B m m m X ; G I I I I I I I I P B m m m X ; G I I I I I I I I P B m m m "
};
