/* XPM */
static char *output_onlinepngtools1708292991[] = {
/* columns rows colors chars-per-pixel */
"64 64 212 2 ",
"   c #02301D",
".  c #012F23",
"X  c #0B2D26",
"o  c #022F29",
"O  c #122F22",
"+  c #033323",
"@  c #03322B",
"#  c #053C2C",
"$  c #08392D",
"%  c #123327",
"&  c #043632",
"*  c #053B34",
"=  c #083835",
"-  c #053E3A",
";  c #093C3C",
":  c #5B3D38",
">  c #5B3E39",
",  c #76392D",
"<  c #7B3B2C",
"1  c #673A36",
"2  c #6C3C34",
"3  c #743D32",
"4  c #7B3D31",
"5  c #04402D",
"6  c #064434",
"7  c #06423C",
"8  c #0A453F",
"9  c #084C3E",
"0  c #53413D",
"q  c #5B463D",
"w  c #654035",
"e  c #6D4336",
"r  c #63433A",
"t  c #6C463A",
"y  c #634A3D",
"u  c #6C4A3D",
"i  c #754235",
"p  c #794334",
"a  c #74453A",
"s  c #7C463C",
"d  c #744B3E",
"f  c #7A493C",
"g  c #064542",
"h  c #084542",
"j  c #074B44",
"k  c #084B45",
"l  c #064748",
"z  c #074D4A",
"x  c #094D4A",
"c  c #124C43",
"v  c #095044",
"b  c #07534C",
"n  c #09524C",
"m  c #09594E",
"M  c #074D52",
"N  c #075556",
"B  c #095652",
"V  c #0A5B55",
"C  c #085558",
"Z  c #0A5D59",
"A  c #3C5E55",
"S  c #0A625D",
"D  c #0A6562",
"F  c #0A6964",
"G  c #0D6D6A",
"H  c #0A726C",
"J  c #0C7672",
"K  c #464545",
"L  c #4A4745",
"P  c #4A4946",
"I  c #444C4A",
"U  c #4E4D4B",
"Y  c #524541",
"T  c #534B43",
"R  c #584944",
"E  c #5B4E44",
"W  c #46554D",
"Q  c #4D554B",
"!  c #46594F",
"~  c #505147",
"^  c #5D5045",
"/  c #54534A",
"(  c #5A544A",
")  c #55594E",
"_  c #5B5A4E",
"`  c #425C53",
"'  c #4C5A54",
"]  c #525550",
"[  c #535D54",
"{  c #5B5D53",
"}  c #5B5F58",
"|  c #644D42",
" . c #6C4C42",
".. c #664748",
"X. c #724843",
"o. c #62544B",
"O. c #69594D",
"+. c #77574A",
"@. c #695D5B",
"#. c #775B54",
"$. c #4C645C",
"%. c #556156",
"&. c #5B6055",
"*. c #54645B",
"=. c #58635A",
"-. c #69655D",
";. c #7B6054",
":. c #746559",
">. c #7C665C",
",. c #4F6C63",
"<. c #546961",
"1. c #516E68",
"2. c #696A61",
"3. c #736E63",
"4. c #6B7066",
"5. c #6B746A",
"6. c #747065",
"7. c #707368",
"8. c #AB1D0C",
"9. c #AC1F13",
"0. c #B31C1C",
"q. c #9E2816",
"w. c #9E271C",
"e. c #952E1D",
"r. c #9B2B1B",
"t. c #8D311E",
"y. c #A7200D",
"u. c #A8230D",
"i. c #A42514",
"p. c #AB2210",
"a. c #A32419",
"s. c #A6271A",
"d. c #B02319",
"f. c #972D25",
"g. c #853526",
"h. c #8C3425",
"j. c #893927",
"k. c #85362A",
"l. c #8B352A",
"z. c #833B2C",
"x. c #8B3A2C",
"c. c #943223",
"v. c #993121",
"b. c #923629",
"n. c #91382A",
"m. c #833E33",
"M. c #893F31",
"N. c #983C34",
"B. c #AB3D2C",
"V. c #B53D2E",
"C. c #BB3E2E",
"Z. c #AD3F33",
"A. c #B53E34",
"S. c #DB321F",
"D. c #EA2F18",
"F. c #EB2C1D",
"G. c #F42D14",
"H. c #F32E1A",
"J. c #E4331E",
"K. c #ED311B",
"L. c #F03017",
"P. c #FB3318",
"I. c #DF2F2A",
"U. c #CD3825",
"Y. c #C73D2A",
"T. c #CD3E2C",
"R. c #DB3523",
"E. c #D43925",
"W. c #DA322D",
"Q. c #D43C29",
"!. c #D43631",
"~. c #E42C22",
"^. c #EF2B25",
"/. c #E12F29",
"(. c #F02C26",
"). c #E13421",
"_. c #824233",
"`. c #8D423A",
"'. c #85493E",
"]. c #9C4437",
"[. c #954438",
"{. c #964E3D",
"}. c #9C4B3C",
"|. c #8F503E",
" X c #AF402E",
".X c #B9422E",
"XX c #A54636",
"oX c #AD4332",
"OX c #A24B3B",
"+X c #A9493B",
"@X c #B24331",
"#X c #B84837",
"$X c #B1423C",
"%X c #BA4B3B",
"&X c #B1513F",
"*X c #C6442F",
"=X c #C44533",
"-X c #C84333",
";X c #844B42",
":X c #954E41",
">X c #9E4B42",
",X c #855144",
"<X c #8C5143",
"1X c #87554A",
"2X c #845A4C",
"3X c #885849",
"4X c #945344",
"5X c #9A5147",
"6X c #835A50",
"7X c #AA4B45",
"8X c #A65244",
"9X c #816256",
/* pixels */
"o o o o o @ o o o o o o o o o o o o o o o o o o o o o o o o o o o o o o o o . o @ o o o o o o o o o o o o o o o o o @ o o o o o ",
"                    O o . o       +           @ . o   o o                     @ X o . o o                     @ . o o o o       ",
"p.u.u.p.p.p.p.p.u.9.. o L.K.8.p.p.p.p.p.u.p.p.u.o o ^.D.i.Q A A A A Y i.p.p.u.u.o @ (.F.8.8.p.p.p.p.u.p.p.p.u.u.X o ^.F.9.p.8.u.",
"p.p.p.p.p.p.p.p.u.u.  o L.K.8.p.p.p.p.p.u.p.p.u.o o (.=.A ! ! ! W P K K L u.u.u.o o (.K.9.u.p.p.p.p.p.p.p.p.p.u.@ o (.D.8.p.p.u.",
"p.p.p.p.p.p.p.p.p.p.. o L.F.p.p.p.p.p.p.p.p.u.u.o & @.} W / Q ~ 0 : 0 L P I i.u.o o (.K.9.p.p.p.u.p.u.p.p.p.p.u.o o (.K.9.u.p.p.",
"u.8.p.p.p.p.p.p.u.p.  o L.K.p.u.u.p.8.p.p.p.u.y.= M ..O./ T E q q : 0 R Y P W q.@ o (.F.d.y.y.y.u.8.u.d.p.p.p.u.o o ^.H.d.u.8.8.",
"F.K.K.K.p.p.p.p.p.p.o o L.K.F.K.F.K.K.L.p.p.9.i.M l X.X.;X,X;X`.`.`.'.'.q T U ! @ o ^.K.K.F.K.D.F.K.K.K.p.p.p.u.@ o (.D.F.K.K.K.",
"H.H.H.G.u.u.p.u.u.u.@ o P.H.H.H.H.H.H.G.u.u.i.U z l X.N.N.[.].N.N.].[.`.r q T / S o S.H.H.H.H.G.H.H.H.G.u.u.u.0.@ o R.H.H.H.H.H.",
". @ @ @ o o o o X @ X o @ o @ o @ @ + o o o C n l l ; ; 7 - 8 - 6 7 7 g h x B m Z S O @ @ @ o @ @ @ @ @ o o o + X o O @ o @ @ @ ",
"o o o o o o o o o o o o o o o o o o o o o & C x l g g ; - - 7 - * - 7 8 g j l n V S @ o o o o o o o o o o @ o @ o o o o o o o o ",
"o + (.^.0.p.d.9.0.9.9.9.9.9.9.9.o + (.F.9.' / R r 2 , , < k.l.g.- * A.Z.4 3 e y ( ) $.9.0.p.p.p.o + ^.F.9.0.p.p.9.9.9.9.9.9.9.9.",
"o @ K.K.p.p.p.u.p.p.p.p.p.p.p.u.o & K.K.k.] R | 2 4 < < g.l.h.b.- h C.@Xz., e t q ( ' f.p.p.p.p.o @ K.K.p.p.p.p.p.p.p.p.p.p.u.u.",
"o & H.K.p.p.p.p.p.p.p.p.p.p.p.p.o & F.K.$./ E t 2 4 k.k.x.n.b.b.- h -X=Xj.< 3 i u ^ ) $.u.u.p.p.o & H.K.p.p.p.p.p.p.p.p.p.p.p.p.",
"o @ K.K.u.u.p.p.p.p.p.u.p.p.p.p.o X K.Q.[ ( y e p 4 m.x.b.c.v.v.* ; -X-XM.z.< i u y / $.i.p.p.p.o @ K.L.u.u.p.p.p.p.p.p.9.u.p.p.",
"X & K.D.K.K.K.K.K.K.K.K.8.p.p.p.o & K.2.:.+.<X}.oX%X=X=Xe.v.v.r.& ; Q.-X=X%X%XXX{.<X2X:.*.p.p.p.o & K.D.K.K.K.K.K.K.K.K.8.p.p.p.",
"o & F.K.K.K.K.K.K.K.K.D.9.p.p.p.o $ K.-.#.<X:XXX&X7X=XT.r.r.s.a.@ * R.Q.-X-X%X&XXX|.1X;.*.p.p.p.o & K.F.K.K.K.K.K.K.K.H.8.p.p.p.",
"o o o o o o o o @ o o o o o o o o o j D V n j k x 8 7 * & @ $ @ # @ & * * 7 g b x k n V F & o o o o . o @ o o @ . o o o o o o o ",
"              @ X o . o o           F S m v 9 b k 7 * & & + +     + + + # 5 6 v v k v C D H                   @ + o o o o       ",
"u.p.p.p.p.p.u.u.o o (.K.9.p.p.p.u.p.<.{ | e f _.h 7 !.R.q.i.i.i.i.i.i.a.e.c.n.j.x n :X1X{ <.p.p.p.p.8.u.p.p.p.u.o o (.F.9.p.u.8.",
"u.8.p.p.p.u.u.u.o o (.K.8.p.p.p.9.u.*._ u e f _.h - !.R.a.i.i.p.i.p.i.i.r.r.b.j.l n >X1X_ *.p.p.p.p.p.p.p.p.p.u.o o (.D.8.p.p.p.",
"p.p.p.p.p.p.p.u.o o (.F.p.p.p.p.u.O.%.o.u d f _.g * W.R.i.i.i.p.p.i.i.i.q.r.b.j.l n 8X<Xo.*.m.p.p.p.p.p.p.p.p.y.o o (.K.p.p.p.p.",
"y.y.y.d.p.p.p.u.o o ^.K.d.y.y.y.u.,.&.o.u d _.j.- * W.R.s.i.y.y.y.y.i.s.i.e.e.h.k x 8X:XO.=.<.u.u.8.p.p.p.p.p.u.o o (.F.d.8.8.u.",
"K.K.H.L.p.p.p.u.@ o ^.K.F.K.F.K.K.5.>.3Xu f _.j.- * I.).J.F.K.F.K.K.K.J.i.r.v.h.g j 7X3X6X>.5.K.H.K.K.K.p.p.p.u.o o ^.D.K.F.K.K.",
"H.H.H.G.u.u.u.0.+ o S.H.H.H.G.G.H.7.>.|.d f z.b.# & U.).K.K.D.H.H.H.D.D.i.q.e.f.6 l 5X8X<X9X7.H.H.H.H.G.p.u.u.0.+ o R.H.H.H.H.H.",
"@ @ @ @ o @ o + X o X o @ @ @ @ @ H S n B l h 6 = @ % @ @ @ @ @ @ @ @ @ @ & & * ; 8 c n n S H o @ @ o @ o o @ + @ X O @ @ @ @ + ",
"o o o o o o o o o o o o o o o o # H Z n x k 7 - = $ @ @ @ o o o o o o o @ @ & * - g k n n S H o . o o o o o @ @ o o o o o o o o ",
"o @ ^.F.d.9.p.p.9.9.9.0.9.9.9.9.l G 6X4Xs 4 k.c.f.w.a.a.p.9.9.9.o @ ^.J.a.a.r.f.c.k.m.a  .o.<.l.o @ (.^.9.9.p.p.0.9.9.9.9.9.9.9.",
"@ @ K.D.p.p.p.u.p.p.p.p.p.p.p.p.V G ,X4Xi m.k.t.e.r.q.i.i.p.p.p.o @ K.J.i.q.r.e.h.l.4 a u E =.p o @ K.K.p.p.p.p.p.p.p.p.u.9.u.u.",
"o @ K.K.p.p.p.p.p.p.p.p.u.p.p.p.Z H ,X4Xp z.j.h.e.r.i.i.i.u.p.p.o = K.K.i.q.q.e.h.j.z.i u y =.y o @ L.K.p.p.p.p.u.p.p.p.p.p.p.p.",
"o @ K.L.p.p.p.p.p.p.p.u.p.p.p.p.V D ,X:X3 z.j.c.e.q.i.i.p.u.p.p.o o J.J.i.i.q.e.c.j.< 4 t y &.E o @ K.K.p.p.p.p.p.p.p.p.p.p.p.p.",
"o & F.F.K.K.K.K.K.K.K.K.8.p.p.p.V S ,X{.OX@X.XY.U.R.S.J.8.p.p.p.o X K.J.J.J.E.Q.Y..XoXOXe y { / o X K.D.K.L.K.K.K.K.K.K.8.p.p.p.",
"o % D.K.K.K.K.K.K.K.K.K.p.p.p.p.N V <X{.XX@X.XY.Q.R.J.J.i.p.p.p.o & K.K.J.S.R.U.Y..X@XOXi y ( Q o = K.K.K.K.K.K.K.K.K.F.8.p.p.p.",
"o o o o o o o o @ o o o o o o @ V b v j 8 7 * * & & @ o o o o o o o @ @ @ @ @ & * 7 7 8 k x n B o o o o o o o o o o o o o o o o ",
"              @ . o . o o       m m v 9 6 6 6 & $ @ @ o o                 + + * $ - 6 h k k m m               @ . o . o o       ",
"p.p.p.p.u.u.p.u.o o ^.F.9.y.p.p./ _ y e 4 < j.t.* @ /.).9.9.p.u.8.p.p.p.u.i.r.e.; * A.OXe y { ~ p.p.u.u.p.p.u.u.X o ^.K.9.p.u.9.",
"p.p.p.p.9.u.p.u.o o (.K.8.p.p.p.) { r t p z.j.t.& & /.).8.u.p.p.p.p.p.i.i.q.q.e.- 7 $XOXt y &.( p.p.p.u.p.p.p.u.o @ ^.F.8.p.p.u.",
"p.u.u.8.p.p.p.u.X o ^.F.9.u.p.p.) =.y t p z.x.e.= $ /.).p.p.p.p.p.p.p.p.i.i.r.e.* 7 $X}.u y *. .p.p.u.p.p.p.p.u.o o (.K.9.u.p.p.",
"8.u.u.d.p.p.p.u.& o (.K.d.u.8.8._ %.y  .a < j.h.* & /.).d.u.8.i.y.y.y.s.i.q.q.t.; 7 $X8X .y *.i 8.8.u.d.p.p.p.u.o o (.F.d.8.8.u.",
"K.K.H.K.p.p.u.u.o o ^.D.F.K.K.D.+X3.2X4Xa m.k.h.* @ /.~.).K.K.D.K.K.K.J.i.q.q.t.* 7 7X>X4X6X6.=XK.K.K.K.p.p.p.u.X o (.D.K.F.K.K.",
"H.H.H.G.u.u.u.0.+ o R.H.H.H.H.H.).6.9X4Xa p j.b.5 & U.K.F.D.H.H.H.H.D.D.y.q.r.f.6 7 }.8X4X9X6.D.H.H.H.G.u.u.u.0.+ @ R.H.H.H.H.H.",
"@ @ @ @ o o o + X o O o @ @ @ o $ H S n B x h 6 = & % @ @ @ @ o @ @ @ @ @ & & # ; g c n n D H @ + @ @ @ o o @ + o o O @ @ @ + o ",
"o o o o o o o o o o o o o o o o + H D x n x 8 ; * & $ . @ @ o o o @ @ @ @ @ & - - k x b n D H o o o o o o o + @ o o o o o o o o ",
"o @ ^.F.9.9.9.9.9.9.d.p.9.9.9.9.o H 3.1X .f m.l.b.f.q.a.i.9.9.9.o @ ~.~.a.w.f.c.x._.s  .| &.1.9.o + ^.^.0.9.p.p.0.9.9.9.9.9.9.9.",
"o @ K.H.p.p.p.p.p.p.p.p.p.p.p.p.o J >.3Xa X._.z.h.e.r.q.a.i.p.i.o $ J.J.q.r.e.h.M._.X.t o.=.<.u.o @ K.K.p.p.p.p.p.p.p.p.p.p.u.u.",
"o & K.K.p.p.p.p.p.u.p.p.p.p.p.p.@ S :.2Xt  .'._.n.e.v.s.i.p.i.p.o @ K.).q.r.c.x.M.s d u _ *._.p.o & H.K.p.p.p.p.p.p.p.p.p.p.p.p.",
"o @ K.K.p.p.p.p.p.p.p.p.p.p.p.p.o $ 4.;. .a f _.j.c.e.r.i.i.i.p.o & J.J.q.e.c.x._.s a y _ *.p.p.o @ K.K.p.p.p.p.p.p.p.u.p.p.p.p.",
"o & K.D.K.K.K.K.K.K.K.K.8.p.u.u.o @ 4.;.3X{.&X&X#X*X=XE.s.i.i.i.@ = J.R.E.Q.-X#X&X8X{.3X_ ,.p.p.o & K.D.K.K.K.K.K.K.K.K.8.p.p.p.",
"@ X K.K.K.K.K.K.K.K.K.H.8.p.9.u.o & 4.:.2X4X}.&X%X=XQ.Q.q.s.i.i.@ & ).R.Q.T.=X%X8XOX4X2X{ ,.p.p.o & H.D.K.K.K.L.K.K.F.D.9.p.p.p.",
"o o o o @ o o o o o o o o o o o o o z F V n j v z 8 7 * $ @ @ @ $ @ @ & & 7 j v j j n Z F & o o o o o o o o o o o o o o o o o o ",
"              @ . o . o o             F S v 9 9 v x 7 - ; @ @ + + + # # 6 6 9 v 9 z b Z F                     @ + o o o o       ",
"p.p.y.u.p.p.u.u.o o ^.K.p.p.y.u.p.p.p.<.) ^ u e h k %X=Xv.v.r.s.r.v.v.v.x.x._.< k x 1X#.*.p.p.p.p.p.8.u.p.p.u.u.o o (.H.9.p.8.p.",
"p.p.p.p.p.p.p.u.X @ ^.F.8.p.p.p.p.p.p.c.%.^ y t h 8 7X=Xn.c.c.v.r.b.c.n.x.z.< , l n #.-.a.p.p.p.p.p.p.u.p.p.p.u.o o (.D.8.p.p.p.",
"p.p.u.p.p.p.p.u.o o (.K.9.p.p.p.u.p.u.p.$.) E r k h A.$Xx.n.c.c.b.b.n.x.j.g., e x B #.-.9.u.p.p.p.p.p.p.p.p.p.u.o o (.F.9.p.p.p.",
"8.8.u.d.p.p.p.u.o o (.F.d.8.y.8.8.u.8.p._.%.^ | c h XX@Xx.g.h.g.c.j.j.l.< , 3 w n B @.T.d.u.8.y.u.8.u.d.p.p.p.u.o o ^.H.p.p.y.y.",
"K.K.K.K.p.p.p.u.X @ (.D.F.K.K.K.K.K.K.K.u.$.] ( n k 7XXXZ.V.C.C.C..XV. X, , 2 r B N @.F.K.K.F.D.F.K.K.L.p.p.p.u.& o (.D.K.K.K.F.",
"H.H.H.G.u.u.u.0.+ o R.H.H.H.H.H.H.H.K.G.u.t.' / b x '.].oXZ.A.V.V.@XZ.B., 2 1 r n C U.H.H.H.H.H.H.H.H.G.u.u.u.0.+ o R.H.H.H.H.H.",
"o @ @ @ o o @ + o o O @ @ @ + @ @ @ . @ o o D Z B n c j g h 7 * 7 8 - - g g l l M C O @ @ @ o @ @ @ @ @ o o @   o o O o @ @ o @ ",
"o . o @ o @ o @ o o o o o o o o o o o o o o o Z V n x x j g 7 7 - g g ; g g l M M o o o o o o o . o o o o o @ @ o o o o o o . o ",
"o + (.^.p.9.p.p.0.9.9.9.9.9.9.9.o + (.F.9.9.9.a.W U R q > 1 1 1 g j ,X;X> : 0 K s.9.9.p.9.9.9.9.o + (.^.9.9.p.p.9.9.9.9.9.9.9.9.",
"o @ F.K.p.p.p.p.p.p.p.p.9.u.u.u.o & K.K.p.p.p.p.k.U P 0 0 q 1 0 z b +.O.Y L K f.p.p.p.p.u.u.p.p.o @ K.K.p.p.p.p.9.u.p.p.p.p.p.u.",
"o & H.K.p.p.p.p.p.p.p.u.p.p.p.p.o & H.K.p.p.p.u.u.e.I L 0 0 : Y m V O.O.! ` s.p.p.p.p.p.p.p.u.p.o & H.K.p.p.p.p.p.p.p.p.p.p.p.p.",
"o @ K.K.p.u.p.p.p.p.p.u.p.p.p.p.X @ D.K.p.p.p.u.p.p.p.I K K I W V S &.&.` p.p.p.u.u.p.p.p.p.p.p.o @ K.K.p.p.p.p.p.p.p.u.p.p.p.p.",
"X & K.D.K.K.K.K.K.K.K.K.8.p.p.u.o & K.K.K.K.K.K.K.K.K.K.i.I A A S S &.S.K.K.F.K.K.K.K.K.8.p.p.p.o & K.D.K.K.K.K.K.K.K.K.8.p.p.p.",
"o & D.K.K.K.K.H.K.K.F.H.9.p.p.p.@ @ K.K.K.K.K.K.K.F.K.K.p.p.u.p.@ @ K.K.K.K.K.^.K.K.K.H.9.p.p.8.o & H.D.K.K.K.K.K.K.F.D.9.p.p.p."
};
