/* XPM */
static char *output_onlinepngtools__9_1708292994[] = {
/* columns rows colors chars-per-pixel */
"64 64 211 2 ",
"   c #02301D",
".  c #012F23",
"X  c #0D2D22",
"o  c #022F29",
"O  c #082E2D",
"+  c #122F22",
"@  c #033323",
"#  c #02322B",
"$  c #033A2B",
"%  c #12362B",
"&  c #043532",
"*  c #043A34",
"=  c #083C33",
"-  c #053D3A",
";  c #093D3B",
":  c #103C35",
">  c #5E3E36",
",  c #573F3A",
"<  c #5C3F3C",
"1  c #6E372D",
"2  c #6D382E",
"3  c #773527",
"4  c #7D3226",
"5  c #75352B",
"6  c #7A3329",
"7  c #72382D",
"8  c #6C3730",
"9  c #633D35",
"0  c #6A3A32",
"q  c #623D39",
"w  c #703A32",
"e  c #743833",
"r  c #044334",
"t  c #05423D",
"y  c #4D453F",
"u  c #55433D",
"i  c #5A413B",
"p  c #68433D",
"a  c #7A453B",
"s  c #083F41",
"d  c #064543",
"f  c #0C4341",
"g  c #054A45",
"h  c #064748",
"j  c #064B4B",
"k  c #08494B",
"l  c #07554D",
"z  c #084F54",
"x  c #075352",
"c  c #095251",
"v  c #075957",
"b  c #095758",
"n  c #095B5B",
"m  c #105652",
"M  c #3F4F4C",
"N  c #3F514F",
"B  c #3F5855",
"V  c #075F60",
"C  c #096362",
"Z  c #096767",
"A  c #08696B",
"S  c #0A7478",
"D  c #3B6F6E",
"F  c #3D7879",
"G  c #454542",
"H  c #4D4541",
"J  c #434946",
"K  c #4A4944",
"L  c #434C4A",
"P  c #484B4B",
"I  c #524441",
"U  c #554A45",
"Y  c #564C47",
"T  c #4B514D",
"R  c #54524E",
"E  c #5A554E",
"W  c #4B5854",
"Q  c #435C59",
"!  c #535756",
"~  c #5B5653",
"^  c #595953",
"/  c #535E5C",
"(  c #5B5E5B",
")  c #654A45",
"_  c #6C4C44",
"`  c #624D4B",
"'  c #6A4B49",
"]  c #7D4544",
"[  c #744A43",
"{  c #7B4A43",
"}  c #744B48",
"|  c #64534C",
" . c #6A534D",
".. c #78534C",
"X. c #675753",
"o. c #615A54",
"O. c #785A56",
"+. c #45615F",
"@. c #4D605E",
"#. c #52625D",
"$. c #5A615E",
"%. c #74635C",
"&. c #4F6664",
"*. c #4F6A67",
"=. c #496668",
"-. c #456C6A",
";. c #4D6B6A",
":. c #546564",
">. c #5D6363",
",. c #47706E",
"<. c #457574",
"1. c #666762",
"2. c #AB1D0C",
"3. c #AC1F13",
"4. c #B31C1C",
"5. c #852E1F",
"6. c #8C2C1E",
"7. c #9E2515",
"8. c #9F2816",
"9. c #9A2519",
"0. c #932A1C",
"q. c #9C2B1C",
"w. c #93311F",
"e. c #98301D",
"r. c #A7200D",
"t. c #A8230D",
"y. c #A42514",
"u. c #AB2210",
"i. c #A12816",
"p. c #A3251A",
"a. c #AA261B",
"s. c #A02919",
"d. c #B02319",
"f. c #852F23",
"g. c #8A2D21",
"h. c #952D22",
"j. c #9B2B21",
"k. c #962728",
"l. c #823024",
"z. c #8C3525",
"x. c #833329",
"c. c #8D352C",
"v. c #85392C",
"b. c #8B392A",
"n. c #943123",
"m. c #953227",
"M. c #8D3A35",
"N. c #963131",
"B. c #9E3E32",
"V. c #9D3F3C",
"C. c #A43E2F",
"Z. c #AD3E2E",
"A. c #BD3A27",
"S. c #B33B2D",
"D. c #BB3A2A",
"F. c #A43D31",
"G. c #AA3E31",
"H. c #A43C3A",
"J. c #B33634",
"K. c #B63C32",
"L. c #DB311F",
"P. c #EC2F17",
"I. c #E62F1C",
"U. c #EC2C1C",
"Y. c #F42D14",
"T. c #F32E1A",
"R. c #E4331E",
"E. c #ED311B",
"W. c #F03017",
"Q. c #FB3318",
"!. c #C73626",
"~. c #CD3525",
"^. c #C63825",
"/. c #CB3A27",
"(. c #C43728",
"). c #C53B2B",
"_. c #CC3C2A",
"`. c #D43625",
"'. c #DD3523",
"]. c #D63925",
"[. c #DB3825",
"{. c #D5362C",
"}. c #D93530",
"|. c #E62D24",
" X c #EF2B25",
".X c #F02C26",
"XX c #E33421",
"oX c #E13921",
"OX c #E0302B",
"+X c #87463B",
"@X c #84463D",
"#X c #8D443A",
"$X c #934336",
"%X c #9B4134",
"&X c #934439",
"*X c #9C423D",
"=X c #97493E",
"-X c #A24133",
";X c #A94438",
":X c #B34132",
">X c #BB4334",
",X c #B34739",
"<X c #C6412E",
"1X c #834442",
"2X c #854B42",
"3X c #964942",
"4X c #86544B",
"5X c #8E594E",
"6X c #92544A",
"7X c #835B54",
"8X c #B54440",
/* pixels */
"o o o o O o o o o o # o o o o o o o o o o o o o o # o o o o o o o o @ # o o o o o o o o o o o o o o o o O o o o o o o o o o o o ",
"                    X o . o       @           @ X o . o o                     @ @ o o o o                     @ @ o . o o       ",
"u.t.t.u.u.u.u.u.t.u.  o W.U.2.t.u.u.u.u.t.t.u.t.o o  XU.y.+.D D F F ;.t.u.u.u.r.o o .XE.2.3.t.u.u.u.t.t.u.t.u.t.o o .XE.3.u.2.u.",
"u.u.u.u.u.u.u.u.t.u.X o W.E.3.u.u.u.u.u.t.3.u.t.O o  X/ B +.+.=.=.,.<.,.L u.u.t.O o  XE.3.t.u.u.u.u.t.3.u.u.u.t.O o  XU.2.u.u.u.",
"u.u.t.t.u.u.u.u.u.u.  o W.E.2.u.u.u.u.u.u.u.t.t.# $ ! ~ P T R ! @.#.*.,.W M r.r.o o  XU.3.u.u.u.u.u.t.t.u.u.u.t.o o .XE.u.u.u.u.",
"t.2.2.a.u.u.u.u.u.t.. o W.E.u.t.r.2.t.u.u.u.t.r.& z | ' U I U Y E ^ $.>.@.K G 7.O o  XE.u.r.r.r.2.2.2.a.u.u.u.t.o o  XE.d.2.r.r.",
"U.E.E.E.u.u.u.u.u.u.@ o W.U.E.E.E.E.E.E.u.u.u.y.z j ' [ { { 2X2X4X4X7X%.$.T y y # o .XE.E.U.U.E.E.E.E.E.u.u.u.t.O o  XU.U.E.E.E.",
"T.T.T.Y.t.t.t.t.t.t.O # Q.T.T.T.T.T.T.Y.t.t.t.P j h [ @X#X&X&X=X=X=X6X5Xo.E u G h o '.T.T.T.T.T.T.T.T.Y.t.t.t.4.@ o '.T.T.T.T.T.",
"o @ # # & o o O O o X o & o o o @ # o # o o z g k d t d t t t t t g l x b b k l j h + o # o # @ @ # # o O o #   O o + # o @ # o ",
"o o o o o o o # o o o o o o o o o o o o o & j j d d f s t - - ; r d t t d h n A A Z o o o o o o o o o o o o # o o o o o o o o o ",
"o @ .XU.3.3.u.u.3.3.3.3.3.3.3.3.# @ .XU.3.J I , q 0 8 6 4 x.l.x.* - ,X8Xe w _ o.>.:.=.3.3.3.3.3.o @ .XU.3.3.d.u.3.3.3.3.3.3.3.3.",
"o # U.E.3.3.u.u.u.u.u.u.u.u.t.u.# # E.E.f.H i > 0 1 3 4 f.f.g.0.- d >XK.x.6 1  .X.( :.m.u.u.u.u.o & E.E.u.u.u.u.t.t.u.u.u.u.u.u.",
"o O  XE.u.u.u.u.u.u.u.t.u.u.u.u.o O E.P.y u i 9 8 3 4 l.5.6.0.n.- - ).).l.l.6 [ X.o.( ;.u.u.u.u.o # U.E.u.u.u.u.u.u.t.t.u.u.u.u.",
"o # E.E.u.t.u.u.u.u.u.t.u.u.u.u.o & E.].y u 9 2 7 4 l.g.0.0.q.h.* * {.(.g.f.4 7 _ ` ~ :.p.u.u.u.o O E.E.t.t.u.u.u.u.u.t.u.u.u.u.",
"@ & E.E.E.E.E.E.E.E.E.E.2.u.u.u.o O E.) _ a #X$X-XS.D.^.9.q.q.s.& ; `.~.^.).K.G.3X5X7XO.:.u.u.t.# O E.E.E.E.E.E.E.E.E.E.2.u.u.u.",
"o # E.E.E.E.E.W.E.E.E.U.3.u.u.u.# # E._ [ +X&XF.Z.S.(.~.q.s.s.s.$ & '.`./.).:X:X;X3X4XO.#.u.u.u.# O E.E.E.E.E.E.E.E.E.U.3.u.u.u.",
"o o o o o o o o o o o o o o o o o o * j g d t - * & & $ & & # # # # # $ $ * t t - d j x V & o o @ o o o o o o o o o o o o o o o ",
"              @ @ o . o o           g g t r * r & & # & & @ @   @ @ @ @ @ $ r t * t h z v Z                   @ @ o o o o       ",
"t.u.u.u.u.u.t.t.O o .XE.2.u.u.u.t.u.H i 9 2 5 4 & & {.{.9.y.y.u.y.y.y.8.q.h.z.b.d t 3X2XY W u.u.u.u.t.u.u.u.u.t.O o  XE.3.u.t.2.",
"u.u.u.u.u.u.u.t.o o  XE.3.2.u.u.u.u.I i 9 7 3 l.& & {.[.p.y.y.a.t.y.y.7.q.q.n.v.t - *X#XU ! u.u.u.u.u.u.u.u.u.t.o o  XU.2.u.u.u.",
"u.u.u.t.u.u.t.t.O #  XE.3.u.u.t.t.2 u i 0 7 3 5.& & }.[.i.y.u.y.u.y.y.i.8.q.n.v.f - V.#Xi U b.u.u.u.t.u.u.u.u.t.o o  XE.u.u.u.u.",
"t.2.t.d.u.u.u.t.o o  XU.d.r.r.r.r.y u q 2 7 4 5.& & }.'.a.y.r.r.r.r.r.a.8.q.n.z.d * V.&X) u Y r.2.2.2.a.u.u.u.t.O o  XE.d.2.r.r.",
"U.E.T.E.u.u.u.t.# # .XE.E.U.U.E.E._ { +X2 3 l.5.& & }.XXXXR.E.U.E.E.R.R.i.q.h.z.d * H.&X@X{  .|.E.E.E.E.t.u.u.t.o o  XU.U.E.E.E.",
"T.T.T.Y.t.t.t.4.  o L.T.T.T.T.T.T._ a #X2 3 5.k.$ * _.XXE.U.U.T.U.T.U.P.8.q.e.N.r - B.%X#X1X} T.T.T.T.Y.t.t.t.4.@ # '.T.T.T.T.T.",
"# @ # o O o O   O o + # # @ o # # j g d s - & $ & & % & # # # @ @ # @ # & & - * s - : - d d j o o # # # O o #   O o + o # @ o # ",
"o o o o o o o o o o o o o o o o # h d t s & & & & - & # # o o o o o o # # & & - - - - - d h j o o o o o o o o o o o o o o o o o ",
"# @  X|.3.3.u.d.3.3.3.3.3.3.3.3.- j 1XM.1 f.g.h.h.j.9.p.a.3.3.3.o @  X|.p.q.q.m.c.g.6 6 0 > I k.o @ .XU.3.3.a.u.3.3.3.3.3.3.3.3.",
"o O E.E.u.u.u.u.u.u.u.u.u.u.u.u.d j @X&X5 4 g.6.h.q.s.p.y.u.u.u.o # E.R.y.8.q.m.c.g.4 7 0 > < 6 o # E.E.u.u.u.u.t.t.u.u.u.u.u.u.",
"o # E.E.u.u.t.u.u.u.u.t.u.u.u.u.h j +X$X3 4 g.6.n.q.s.y.u.u.u.u.o & E.R.y.9.q.m.z.l.l.3 0 p i 0 o O E.E.u.u.u.u.u.u.u.u.u.u.u.u.",
"# O E.E.u.u.u.u.u.u.u.t.u.u.u.u.j h +X$X3 f.g.h.m.s.s.y.y.u.u.u.o O E.R.y.i.s.n.m.g.l.6 8 q i q o # E.E.t.t.u.u.t.u.u.u.u.u.u.u.",
"o # E.U.E.E.E.E.E.E.E.E.2.u.u.u.j k @XM.C.S.A.!.<X].oXXXt.u.u.u.o O E.I.XXoX].<X).D.Z.C.1 > , I o & E.E.E.E.E.E.E.E.E.E.2.u.u.u.",
"@ O E.E.E.E.E.E.E.E.E.E.u.u.u.u.j h +XV.C.S.A.).].[.oXXXu.u.u.u.o & E.E.XXXXoX<X).A.S.C.8 9 i I @ O E.E.E.E.E.E.E.E.E.U.2.u.u.u.",
"o o o o o o o # o o o o o o o o j d d t - * * t * * # # # o o o @ o o o # $ & * - * * - t d d j # o o o O o o o o o o o o o o o ",
"              @ @ o . o o       j g t r & $ $ r = * # # o             @ @ @ $ t * & & - - t g g               @ @ o . o o       ",
"t.u.u.u.t.u.u.t.o o .XE.3.2.u.u.I i 9 1 3 l.5.n.- & OXR.3.r.u.u.t.u.u.u.y.i.q.e.& & J.F.8 q i i u.u.t.u.u.u.u.t.o o .XE.3.u.t.2.",
"u.u.u.u.u.u.u.t.o o  XU.3.u.u.u.i i 9 1 3 4 5.z.- & OXL.3.u.u.u.u.u.u.u.i.i.q.w.- & J.F.8 > u i u.u.u.u.u.u.u.t.O o  XU.2.u.u.u.",
"u.u.u.u.u.u.u.t.O o .XU.2.u.u.u.I i > 8 3 l.l.z.- $ OXXX3.t.u.u.u.u.u.u.y.s.e.n.- & J.F.8 9 u 9 u.u.t.t.u.u.u.t.o o .XE.3.t.u.u.",
"2.2.2.a.u.u.u.t.o o .XE.d.r.r.t.> i 9 0 3 4 l.n.; * OXR.a.r.2.r.r.r.t.a.y.s.q.e.& & J.B.0 > u 5 r.2.r.a.u.u.u.t.o o .XU.d.t.r.2.",
"E.E.E.E.u.u.t.t.o o  XE.E.E.E.U.G.[ @X&X5 4 l.z.- & }.R.R.E.E.U.E.E.E.R.i.s.e.0.& * J.%X#X@X[ (.E.E.U.E.t.u.u.t.O o .XU.E.E.E.U.",
"T.W.Y.Y.t.t.t.4.@ o L.T.T.T.T.T.XX{ @X$X5 4 l.N.r * !.U.E.U.T.T.T.E.W.W.i.q.e.k.$ & B.F.&Xa [ U.T.T.T.Y.t.t.t.4.@ @ '.T.T.T.T.T.",
"# # @ o o & o @ O o + o # # # o # j d d d - - r ; & % $ # # o # # o # # & & * $ & & : d d g j @ o # @ # o O #   O o + o # @ o # ",
"o o o o o o o o o o o o o o o o o j d d - - * d t * # # # # o o o @ # # & * & & & * - - d d j o o o o o o o o # o o o o o o o o ",
"o @  X|.3.3.3.3.3.3.3.u.3.3.3.3.o x ] 1X8 6 4 c.c.h.9.p.p.3.3.3.# # |.OXp.j.j.0.g.x.6 8 q i I 3.o @ .X X3.3.d.u.3.3.3.3.3.3.3.3.",
"o # E.E.t.3.t.3.u.u.u.u.t.u.u.u.o n { 1X0 e 4 v.m.n.q.i.y.y.u.y.# O R.R.9.q.0.0.g.4 7 0 9 u I u.o # E.E.u.u.u.u.u.u.u.u.u.u.u.t.",
"@ O E.P.u.u.u.u.u.u.u.u.u.u.u.u.@ m ..a q 7 6 v.b.m.q.q.i.u.y.u.@ & XXoXs.q.0.6.f.6 5 9 > u l.u.o O E.E.u.u.u.t.u.u.u.u.u.u.u.u.",
"# & E.E.u.u.u.u.t.t.u.u.u.u.u.u.o & X.4X9 e 6 v.b.m.e.q.y.y.y.u.o & XXoXq.q.0.6.f.6 1 9 < y u.u.o # E.E.t.t.u.u.u.u.u.t.u.u.u.u.",
"o O E.U.E.E.E.E.E.E.E.E.2.t.u.u.o O o...2X&X-X:X>X<X~.`.y.i.y.y.o & XXXX].`.^.D.Z.B.$X@X, H t.u.@ & E.E.E.E.E.E.E.E.E.P.2.u.u.u.",
"@ O E.E.E.E.E.E.E.E.E.E.3.u.u.u.@ O 1.O.4X3X%X:X>X)._.`.7.i.y.y.# & XX[.`.~.(.S.F.B.#X@Xu K u.u.o O E.E.E.E.E.E.E.E.E.U.3.u.u.u.",
"# o o o O o o o o o o o o o o o o o g V b j d - t - * & # # # # # $ & & $ & * * - - s d j # o o o o o o o o o o o o o o o o o o ",
"              @ @ o . o o             C c l g t r - $ & & @ @ @ @ @ $ @ @ # $ r - t d h j                     @ @ o . o o       ",
"u.u.t.u.u.u.t.t.o o  XE.3.u.t.2.u.u.t.*.^  .) a - ; K.!.0.q.q.s.q.q.q.9.0.f.l.3 d t ] [ H u.u.u.u.u.u.t.u.u.t.t.O o  XU.3.u.t.t.",
"u.u.u.u.u.u.u.t.O o  XU.2.u.u.u.u.u.u.m./ ~ | _ s ; J.(.h.h.q.h.q.h.0.6.g.l.3 5 d d [ ' y.u.u.u.u.u.u.u.u.u.u.t.O o  XE.2.u.t.3.",
"u.u.t.t.u.u.u.t.o o .XU.u.u.u.u.t.t.u.t.&./ o. .k - J.D.g.m.h.h.n.0.6.g.l.4 3 2 f d } Y t.u.u.u.u.u.t.u.u.u.u.t.o o  XE.3.t.u.u.",
"r.2.2.a.u.u.u.t.o o .XE.d.2.r.r.r.r.2.d.M.:.( o.v s H.:Xc.c.z.z.6.6.f.l.4 3 2 9 d h ' !.d.2.2.r.2.2.2.a.u.u.u.t.O o  XE.d.2.2.t.",
"E.E.E.E.u.u.u.t.# o .XU.E.U.E.E.E.E.U.E.y.;.:.$.C j *X;X;X,XK.S.D.S.S.Z.3 2 0 9 h j `  XE.E.E.U.E.E.E.E.u.u.u.t.o o  XU.E.U.E.E.",
"T.T.T.Y.t.t.t.4.@ o '.T.T.T.T.T.T.T.T.Y.y.h.@.>.A v @X*X-X;X:XK.G.Z.G.C.2 2 i < g j ~.T.T.T.T.T.T.T.T.Y.t.t.t.4.@ o '.T.T.T.T.T.",
"@ # # o o o # @ O o + o # @ # o @ # # # o o k j x g m v l j g t t t t d d d h g k z + @ # o # # o @ # # o o # @ O o + # # @ o # ",
"o o o o o o o O o o o o o o o o o o o o o o o k j h V V n x g h d d d d d d j j j o o o o o o o o o o o o o o O o o o o o o o o ",
"o @ .X|.3.3.u.u.3.3.3.3.3.3.3.3.o @ .XU.3.3.3.9.G H R >.( | ) ) j g 2X{ i I K P a.3.3.3.3.3.3.3.o @ .X X3.3.u.u.3.3.3.3.3.3.3.3.",
"o & E.E.u.u.u.t.t.u.u.u.u.u.u.u.o & E.E.u.u.u.u.g.G K #.#.$.^ E c c } _ K K L q.u.u.u.u.t.u.u.u.o # E.E.u.u.t.u.t.u.u.u.u.u.u.t.",
"o # U.E.u.u.u.u.u.u.u.u.u.u.u.u.# O E.E.u.u.u.t.u.0.J Q ;.;.:./ n n | o.L N i.u.u.t.u.u.u.u.u.u.o O E.E.u.u.u.u.u.u.u.t.u.u.u.u.",
"o O E.E.t.t.u.u.u.u.u.u.u.u.u.u.# O E.E.t.u.u.t.u.u.u.L -.<.,.-.A Z $.#.B u.u.u.t.t.u.u.u.u.u.u.o & E.E.u.u.u.u.u.u.t.t.u.u.u.u.",
"# O E.E.E.E.E.E.E.E.E.E.2.u.u.u.@ # E.U.E.E.E.E.E.E.E.E.i.<.<.<.S S >.R.E.E.E.E.E.E.E.E.2.u.u.u.@ & E.U.E.E.E.E.W.E.E.E.2.u.u.u.",
"@ O E.E.E.E.E.E.E.E.E.E.2.u.u.u.# O E.E.E.E.E.E.E.E.E.E.2.a.y.t.o & E.E.E.E.E.E.E.E.E.T.3.u.u.t.o O E.E.E.E.E.E.E.E.E.U.3.u.u.u."
};
