/* XPM */
static char *output_onlinepngtools__1_1708292992[] = {
/* columns rows colors chars-per-pixel */
"64 64 211 2 ",
"   c #02301D",
".  c #012F23",
"X  c #0B2D26",
"o  c #022F29",
"O  c #122F22",
"+  c #033323",
"@  c #043827",
"#  c #03322B",
"$  c #043D2D",
"%  c #123428",
"&  c #043632",
"*  c #083635",
"=  c #043A35",
"-  c #053C39",
";  c #083B3A",
":  c #7B372F",
">  c #7C3B2D",
",  c #6D3F34",
"<  c #683F3C",
"1  c #753E32",
"2  c #7A3D31",
"3  c #04412E",
"4  c #054334",
"5  c #06433D",
"6  c #09433D",
"7  c #07493B",
"8  c #5A443D",
"9  c #5B4B3F",
"0  c #6D4336",
"q  c #65453B",
"w  c #6D453A",
"e  c #62493D",
"r  c #68483B",
"t  c #724133",
"y  c #7A4133",
"u  c #75453A",
"i  c #7B4639",
"p  c #764A3D",
"a  c #79493C",
"s  c #064542",
"d  c #094542",
"f  c #074A43",
"g  c #084A44",
"h  c #074C4B",
"j  c #094D49",
"k  c #114C44",
"l  c #085145",
"z  c #09524B",
"x  c #08554B",
"c  c #074E51",
"v  c #084F52",
"b  c #065353",
"n  c #095652",
"m  c #095A53",
"M  c #065459",
"N  c #08555A",
"B  c #0A5D5A",
"V  c #3F4E4D",
"C  c #3D524F",
"Z  c #0A6055",
"A  c #0A625C",
"S  c #076165",
"D  c #0B6562",
"F  c #0A6C65",
"G  c #0A6E6B",
"H  c #0A7067",
"J  c #0A716D",
"K  c #0B7672",
"L  c #4B4B46",
"P  c #4E4847",
"I  c #464D49",
"U  c #534B44",
"Y  c #564945",
"T  c #5B4C42",
"R  c #44544D",
"E  c #4D5349",
"W  c #4D544B",
"Q  c #45584E",
"!  c #535146",
"~  c #52534B",
"^  c #5A524B",
"/  c #545A4F",
"(  c #5A594E",
")  c #574F51",
"_  c #475755",
"`  c #4B5A52",
"'  c #565B53",
"]  c #545957",
"[  c #5A5C53",
"{  c #624D43",
"}  c #674A47",
"|  c #7A4B44",
" . c #655349",
".. c #7B5549",
"X. c #7A574A",
"o. c #745A4D",
"O. c #695A56",
"+. c #785956",
"@. c #48645C",
"#. c #54645B",
"$. c #596159",
"%. c #50685F",
"&. c #676159",
"*. c #6C655B",
"=. c #75615D",
"-. c #796258",
";. c #6E5E65",
":. c #456B62",
">. c #4B6F6C",
",. c #596C66",
"<. c #736D64",
"1. c #AB1D0C",
"2. c #AC1F13",
"3. c #B31C1C",
"4. c #9F2515",
"5. c #9D2916",
"6. c #9E271C",
"7. c #952C1C",
"8. c #9C2B1B",
"9. c #90311E",
"0. c #A7200D",
"q. c #A8230D",
"w. c #A42514",
"e. c #AB2210",
"r. c #A22815",
"t. c #A32419",
"y. c #AA261B",
"u. c #A12818",
"i. c #B02319",
"p. c #8D2E23",
"a. c #922D21",
"s. c #992E21",
"d. c #972829",
"f. c #853425",
"g. c #8C3424",
"h. c #8C3926",
"j. c #84342B",
"k. c #8C352A",
"l. c #823A2B",
"z. c #8A3A2C",
"x. c #953324",
"c. c #983025",
"v. c #913629",
"b. c #833E32",
"n. c #893D33",
"m. c #943332",
"M. c #B63D2E",
"N. c #BB3F2E",
"B. c #B73E38",
"V. c #DC321F",
"C. c #ED2F17",
"Z. c #EB2C1D",
"A. c #F42D14",
"S. c #F32E1A",
"D. c #E4331E",
"F. c #ED311B",
"G. c #F03017",
"H. c #FB3318",
"J. c #CD3826",
"K. c #C43E2C",
"L. c #CB3D2B",
"P. c #D43725",
"I. c #DB3522",
"U. c #D43A25",
"Y. c #D5332E",
"T. c #DC312B",
"R. c #D63A28",
"E. c #E42C22",
"W. c #EF2B25",
"Q. c #E12F29",
"!. c #F02C26",
"~. c #E23421",
"^. c #834335",
"/. c #80453A",
"(. c #8A473E",
"). c #8B4C3E",
"_. c #9A4739",
"`. c #944C3D",
"'. c #9C4A3A",
"]. c #92503F",
"[. c #B6432E",
"{. c #A64635",
"}. c #AD4333",
"|. c #A4453C",
" X c #A64A3A",
".X c #B24231",
"XX c #BB4333",
"oX c #BC4834",
"OX c #B14039",
"+X c #B14C3B",
"@X c #C6422E",
"#X c #C44432",
"$X c #CC4130",
"%X c #844542",
"&X c #854E41",
"*X c #8A4D41",
"=X c #9D4640",
"-X c #954E43",
";X c #9F4E40",
":X c #855345",
">X c #8A5143",
",X c #86574A",
"<X c #855A4E",
"1X c #945244",
"2X c #9E5243",
"3X c #835B55",
"4X c #A84B40",
"5X c #B14741",
"6X c #A35243",
"7X c #A85241",
"8X c #826257",
/* pixels */
"o o o o X o o o o o o o o o o o o o o o o o o o o # . o o o o o . o # # o o o o # o o o o o o o o o o o o o o o o o o o # o o o ",
"                    X o . o                   # X # . o o   . .               + X o . o o                     # + o . o o       ",
"e.q.q.e.e.e.e.e.e.q.+ o G.F.1.q.e.e.e.e.q.e.e.q.o o W.Z.1.P V V V C L e.e.e.q.0.o o !.F.1.2.q.e.e.e.q.1.e.e.e.q.o o !.Z.2.e.1.q.",
"e.e.e.e.e.e.e.e.e.e.. o G.S.2.q.e.e.q.e.1.e.e.q.# + !.%.V I P L L I I C R e.q.q.o o !.F.2.q.e.e.e.e.e.e.e.e.e.q.o o !.S.1.e.e.e.",
"e.e.q.q.e.e.e.e.e.e.  o G.Z.q.e.e.e.e.q.e.e.e.q.# * ,.[ P P Y Y 9 L E E R Q w.q.o o W.F.e.e.e.e.e.e.q.e.e.e.e.q.# o !.Z.2.q.e.q.",
"q.1.1.y.e.e.e.e.e.q.. o G.F.e.1.0.1.0.y.e.e.e.q.6 G &.| Y Y 8 8 8 9 9 ! ! W Q 5.o o !.Z.e.0.0.1.1.q.q.i.q.e.e.q.o o !.F.i.q.1.1.",
"Z.F.F.F.e.e.e.e.e.e.o o G.F.F.F.F.F.F.F.e.e.e.w.J D +.| (.%X*X(./.:X).| U ! W Q # # W.W.F.F.Z.F.F.Z.F.F.e.e.e.q.o o !.Z.F.Z.F.F.",
"S.S.S.A.q.q.q.q.q.q.# o H.S.S.S.S.S.S.A.e.q.e.>.F B | (.n._._._._.`.`.).e 9 ! W B o I.S.S.S.S.A.S.S.S.A.q.q.q.3.+ o I.S.S.S.S.S.",
"# # # # o o o o # X O o & o o o # # # o o o K F B n k s 5 d 5 d 5 7 s g g j z x m n O # # # # # # # # # o o #   X o O # # # # o ",
"o o o o o o o o o o o o o o o o o o o o o = S v h h j s d 5 5 - 6 5 6 6 g g j z n B # + o o o o o o o o o o o o o o o o o o o o ",
"o + !.Z.3.2.i.2.2.2.2.2.2.2.2.2.o + !.Z.2.] ) Y < < 1 : : f.k.f.; 4 OX}.: , 0 e T ~ ` 2.2.2.e.e.o + !.W.2.2.i.e.2.2.2.2.2.2.2.2.",
"o # F.F.e.e.e.e.2.e.e.e.e.e.e.e.# # F.F.f.] ) } , 1 2 b.n.j.h.x.6 6 N..Xl.1 t 0 T T ~ 7.e.e.e.e.o # F.F.e.e.e.e.e.e.e.e.e.e.q.q.",
"o # S.F.e.q.e.e.e.e.e.q.e.e.e.e.# & S.F.] ) } w 1 a /.n.z.v.x.x.- 6 K.@Xf.> > 0 r 9 ! ` q.q.e.e.o # S.F.e.e.e.e.e.e.e.e.e.e.e.e.",
"o # F.F.q.q.e.e.e.e.e.q.e.e.e.e.X # Z.U.] ) { , | i ^.z.v.x.s.s.= ; $X$Xf.f.> 1 0 r ! W w.e.e.e.o # F.F.q.q.q.e.e.e.e.q.e.e.e.e.",
"# # F.Z.F.F.F.F.F.F.F.F.1.e.e.e.o # W.o.=.<X-X2X7X+XoX#Xs.s.8.u.& ; R.#X@X[.[.{.'.)...o./ e.e.e.# # F.Z.F.F.F.F.F.F.F.G.1.e.e.e.",
"X # F.F.F.F.F.F.F.F.F.Z.2.e.e.e.o # Z.O.-.*X1X4X+XoX#XL.s.8.u.t.# = R.R.$X#XXX}.'.`.>X..~ e.e.e.X # F.F.F.F.F.F.F.F.F.Z.2.e.e.e.",
"# o o o o o o o o o o o o o o o o o = B b z j j s - - = & # # # # # & & - 5 4 7 6 g j z m $ o # # o o o o o o o o o o o o o o o ",
"              # X o # o o           h n g j 7 f 4 - $ & & @   +   + + @ $ 4 4 5 7 6 j b n A                   + X o . o o       ",
"e.e.e.e.e.e.q.q.o o !.F.1.e.e.e.q.e.U T r w y > ; = Y.P.4.w.w.w.w.w.r.u.8.x.h.h.6 6 -X>X^ ' e.e.q.e.e.e.q.e.e.q.# o !.F.2.e.q.e.",
"e.e.e.e.e.q.q.q.o o !.F.2.1.e.e.q.e.! T r t y f.- & Y.I.t.w.w.e.w.e.e.r.8.s.x.^.d 6 =X>XT E q.e.e.e.e.e.e.e.e.q.o o !.Z.1.e.e.e.",
"e.e.e.q.e.q.2.q.o o !.F.2.e.q.w.q.0 [ { 0 1 > f.- & Y.I.w.w.e.w.e.w.w.w.8.7.x.z.g 5 =X-X{ / z.q.e.e.q.q.e.e.e.q.o o !.F.2.e.e.e.",
"q.1.q.i.e.e.q.q.o o !.Z.y.0.1.1.1.W $.{ 0 t f.f.= & T.I.t.w.0.0.0.q.0.y.w.8.s.h.g d =X`.{ ~ / 0.q.1.q.i.e.e.e.q.o o !.F.i.1.0.0.",
"Z.F.S.F.e.e.e.q.# o !.F.Z.F.F.F.F.*.-.>X0 > l.f.& # T.~.D.F.F.F.F.~.D.D.r.8.7.x.h s |.`.:X..*.Z.Z.F.Z.F.e.e.e.q.o o !.Z.F.F.F.Z.",
"S.S.S.A.q.q.q.3.  o V.S.S.S.A.A.S.<.-.].t y > d.$ & J.~.F.Z.Z.S.S.G.F.C.r.5.7.m.7 g '.'.1X..*.S.S.S.S.A.q.q.q.3.+ o V.S.S.S.S.S.",
"# # # # o o # + X o O o # # # # # J A c h g d $ * # % # # # # # # # # # # & & 4 d s k j l m A # # o # # o o #   X o O # # # # # ",
"o o . o o o o o o o o o o o o o & H A z j f 5 & & & & # # o o o o # # # # # & = 5 h g d j n A o . o o # o o o o o o o o o o o o ",
"# # W.Z.2.2.e.y.2.2.2.2.2.2.2.2.h H 3X-Xu b.j.p.7.6.t.t.e.2.2.2.o + W.E.t.t.6.s.v.n.^.1 r { ' k.o # !.Z.2.3.i.e.2.2.2.2.2.2.2.2.",
"o # Z.F.e.e.q.e.e.e.e.e.e.e.e.e.D G <X1Xu b.z.p.7.8.w.w.w.e.e.e.o # F.D.w.w.8.a.h.z.i t w { ' a o # F.F.e.e.e.e.e.e.e.e.q.2.q.q.",
"o # F.F.e.e.e.e.e.e.e.e.q.e.e.e.G D ,X2Xp ^.h.7.7.4.r.w.w.q.e.e.o # F.F.w.w.8.7.x.z.i u w { (  .o # G.F.e.q.e.e.e.e.e.e.e.e.e.e.",
"o # F.F.e.e.e.e.e.e.e.q.e.e.e.e.G D ,X1Xu ^.l.7.7.6.4.w.e.q.e.e.o & F.D.w.w.8.7.h.z.^.a w { ( [ o # F.F.q.q.e.e.e.e.e.q.e.e.e.e.",
"o # Z.Z.F.F.F.F.F.F.F.F.1.e.e.e.J D ,X1X7X+X[.L.U.P.V.D.1.e.e.e.o # F.D.D.V.I.U.@XoX+X6X0 { ( $.o # F.Z.F.F.F.F.F.F.F.F.1.e.e.e.",
"o % F.F.G.F.F.F.W.F.F.F.e.e.e.e.J A ,X-X6X+XoXL.P.I.D.D.w.e.e.e.o & F.F.D.I.I.J.@XoX+X6Xt { [ %.o * F.G.F.F.F.F.F.F.G.Z.2.e.e.e.",
"o o o o o o o o o # o o o o o o J A x j x f 5 = & & # o # o o o o o # o # # $ & = 5 f z j n A J + o o o X o o o o o o o o o o o ",
"              # . o . o o       F Z x 7 l 7 4 4 $ # # o o             +   + @ # = ; s x j x Z H               # + o . o o       ",
"1.e.e.q.q.q.e.q.o o W.Z.2.q.e.e.%.( { t p i z.9.& # Q.D.2.0.e.e.q.e.e.e.w.4.w.7.= s 5X6Xw  .[ #.e.e.e.e.e.e.e.q.o o W.F.2.e.1.q.",
"e.e.e.e.e.e.q.q.o o W.F.1.2.e.e.$.( { 0 a ^.z.9.& & Q.D.w.e.e.e.2.q.e.e.w.4.5.7.- 5 5X6Xw  .$.$.e.e.e.e.e.e.e.q.o o !.Z.1.e.e.e.",
"e.e.e.e.e.e.e.q.o o !.S.1.e.e.e.' ( { 0 y /.z.h.& & Q.E.2.w.1.e.e.e.e.0.w.w.8.7.& 5 5X6Xp { $.O.e.e.q.q.e.e.e.q.o o !.F.2.q.e.e.",
"q.1.0.i.e.e.e.q.# o !.F.y.1.q.1.( / T p t ^.^.9.; # Q.D.y.w.1.0.0.0.0.y.w.r.5.7.- 5 5X6X} ^ #.p 0.1.q.y.e.e.e.q.o o !.F.i.q.1.1.",
"F.F.F.F.e.e.e.q.o o !.Z.F.F.F.Z. X-.,X].1 ^.^.f.- # Q.~.F.F.F.Z.F.F.F.D.0.4.7.7.= 5 +X6X].8X<.#XF.F.Z.F.e.e.e.q.o o !.Z.F.Z.F.F.",
"S.S.S.A.q.q.q.3.+ o I.S.S.S.S.S.V.-.,X`.t ^.^.m.3 & J.F.F.F.S.S.S.F.C.C.5.5.5.d.4 5 '. X].8X<.Z.S.S.S.A.q.q.q.3.+ o I.S.S.S.S.S.",
"# # # # o o o + X o O o # o # # # A x z g g h 7 ; & % # # # # o # # # # # & & $ * d k h z D J # # # # # o o #   X o O # # o # # ",
"o o # # o o o o o o o o o o o o # A m z g d f 5 6 & $ o # o o o # # o # # # & & = ; s g z D G o o o o o o o o + o o o o o o o o ",
"o # !.Z.2.2.2.2.2.2.2.i.2.2.2.2.# A +.>Xt 2 b.n.v.d.s.u.w.2.2.2.+ + E.E.t.6.7.a.p.l.y w e [ ] 2.o + !.Z.e.3.e.y.2.2.2.2.2.2.2.2.",
". # Z.S.e.e.q.0.e.q.q.e.e.e.e.e.+ A o.:Xw 1 l.n.h.c.4.r.w.w.e.w.o & D.D.4.6.7.7.p.l.1 w e $.~ e.o # F.F.e.q.e.e.e.e.e.e.e.e.e.q.",
"o # F.F.e.e.e.e.e.e.e.e.e.e.e.e.+ n o.:Xr 1 > n.z.x.u.u.w.w.e.e.# & ~.D.u.8.7.p.f.: 1 0 T ' f.e.o # S.F.e.e.e.e.e.e.e.q.e.e.e.e.",
"o $ F.F.e.e.e.e.q.q.e.e.e.e.e.e.# + *...r 1 > l.z.h.c.u.t.w.w.w.o & ~.~.8.7.7.9.l.2 1 r T ~ e.e.o # F.F.e.q.e.e.e.e.e.q.e.e.e.e.",
"o # F.Z.F.F.F.F.F.F.F.F.1.e.e.e.. # &...:X'.{.}.oX#X$XR.w.w.w.e.o # ~.~.U.U.K.N..X X1X:X8 U q.e.X * F.Z.F.S.F.F.F.F.F.F.1.q.e.e.",
"o X F.F.F.F.F.F.F.F.F.A.2.e.2.q.o * &.o.:X). X}.XX#X$XR.4.w.t.e.o * ~.I.U.L.K.XX+X;X>X&X^ P e.e.o # F.F.F.F.F.F.F.F.Z.Z.2.e.e.e.",
"o o o o o o o o o o o o o o o o o o 6 m x j f 7 4 s ; - & $ # $ # & $ $ & - 5 5 j j j n B # o o o o o o # o o o o o o o # o o o ",
"+             #   o o o o             B x l 7 7 6 4 4 5 * @ + + + + + $ 3 4 4 s z z h S N                     + X o . o o       ",
"e.e.e.e.e.e.e.q.o o !.F.2.e.1.q.e.e.e.` ! e r t d 5 B.L.x.s.u.u.u.u.s.x.h.z.l.a v g 3X;.Y e.e.e.e.e.0.e.e.e.e.q.# o !.Z.2.e.1.e.",
"e.e.q.e.e.e.e.q.o o !.Z.1.e.e.e.e.e.e.7.~ T r 0 s 5 B.K.v.x.x.s.s.c.s.v.n.^.i a s v 3XO.w.e.e.e.e.e.e.e.e.e.e.q.o o W.F.1.q.e.e.",
"e.e.q.e.e.e.e.q.o o W.F.2.q.e.e.e.e.e.q.` ! 9 r g d B.M.g.g.v.s.x.v.v.z.n.i a , h b +.;.2.q.e.e.e.e.0.e.e.q.e.q.o o !.F.2.q.e.e.",
"1.1.q.i.e.e.e.q.o o W.S.i.q.q.1.1.q.0.y.l.~ 9 9 j d |.}.j.f.f.g.g.g.k.n.^.t t 0 v M ;.L.y.1.1.0.0.1.1.y.e.e.e.q.o o !.F.i.q.1.1.",
"F.F.F.F.e.e.e.q.# o !.F.F.Z.Z.F.F.F.F.G.q.` ! T j g |.{..X.XXXM.XXM.M..X: 1 , < b N ;.Z.F.F.F.Z.F.F.F.F.e.e.e.q.o o W.Z.F.Z.F.F.",
"S.S.S.A.q.q.q.3.@ o I.S.S.S.S.S.S.S.G.A.q.9.W ^ x j ).'.{.}..XM.[.M.}.{., 0 q } b S J.S.S.S.S.A.S.S.S.A.q.q.q.3.+ o I.S.S.S.S.S.",
"# # # # o o #   o o O # o # # + # + o # o o B x n z k j f s 7 5 5 5 5 s s h b B F K O o # # # # o # # # o o #   o o O # # # + o ",
"o o o o o o + o o o o o o o o o o o o o o o o B n x x h l g g d d d s s s c A D K o o o o o o o o o o o o o # # o o o o o o o o ",
". # !.Z.e.2.y.e.2.2.2.2.2.2.2.2.o # !.Z.2.2.2.6.R ~ ! T T q q < f f %X%XY ~ #.:.y.2.2.i.2.2.2.2.o + !.W.2.2.e.e.2.3.2.2.2.2.2.2.",
"o # !.F.e.e.e.e.2.2.q.e.e.e.1.q.o & F.F.e.e.e.e.f.Q W U U T 9 8 h h | | Y ` :.7.e.q.q.e.q.q.2.e.o # F.F.e.e.e.e.e.e.e.e.e.e.q.q.",
"o # S.F.e.e.e.e.q.e.e.q.e.e.e.e.o # S.F.e.e.e.e.e.7.Q R E L U U h v } } _ :.w.e.e.e.e.e.e.e.e.e.o # F.G.e.e.e.e.e.e.e.e.e.e.e.e.",
"o # F.F.e.e.e.e.e.e.e.q.e.e.e.e.o & S.F.e.e.e.q.e.e.e.Q R R R I v v  .[ @.e.e.e.q.q.e.e.e.e.e.e.o # F.F.e.e.e.e.q.e.e.e.e.e.e.e.",
"o * F.Z.F.F.F.F.F.F.F.F.1.e.e.e.o o F.F.F.F.F.F.F.F.F.F.4.I C I v M  .I.F.F.F.F.F.F.F.C.1.e.e.e.o * F.Z.F.F.F.F.F.F.F.F.1.e.e.e.",
"o # F.F.G.F.F.F.F.F.Z.Z.2.e.e.e.o $ F.F.F.F.F.F.F.F.F.F.2.e.e.2.o # F.F.F.F.F.F.F.F.F.S.2.e.e.e.o # F.F.F.F.F.F.F.F.F.Z.1.e.e.e."
};
