/* XPM */
static char *output_onlinepngtools__5_1708292993[] = {
/* columns rows colors chars-per-pixel */
"64 64 204 2 ",
"   c #02301D",
".  c #012F23",
"X  c #0D2D22",
"o  c #022F29",
"O  c #082E2D",
"+  c #122F22",
"@  c #033323",
"#  c #033827",
"$  c #02322B",
"%  c #033B2C",
"&  c #12362B",
"*  c #043532",
"=  c #083336",
"-  c #043A35",
";  c #083B36",
":  c #053D3A",
">  c #083C3A",
",  c #4E3E3C",
"<  c #5D3E36",
"1  c #553D3A",
"2  c #5C3F39",
"3  c #6A372E",
"4  c #6D392E",
"5  c #7D3226",
"6  c #74362B",
"7  c #7A342A",
"8  c #71392D",
"9  c #7E382C",
"0  c #6C3731",
"q  c #633D34",
"w  c #6B3A32",
"e  c #613F3B",
"r  c #723630",
"t  c #773D32",
"y  c #7E3C32",
"u  c #064037",
"i  c #05423D",
"p  c #4F443F",
"a  c #54433D",
"s  c #5A423B",
"d  c #64433B",
"f  c #68453C",
"g  c #704137",
"h  c #73463E",
"j  c #7A463B",
"k  c #7C453D",
"l  c #073E40",
"z  c #583F43",
"x  c #054443",
"c  c #0B4544",
"v  c #064945",
"b  c #064649",
"n  c #064B4B",
"m  c #094A4B",
"M  c #06514D",
"N  c #064D50",
"B  c #065253",
"V  c #085352",
"C  c #075A59",
"Z  c #085C5C",
"A  c #394E4C",
"S  c #3A514F",
"D  c #395250",
"F  c #09635D",
"G  c #12605C",
"H  c #0A5F61",
"J  c #096464",
"K  c #0A6969",
"L  c #0A6D6D",
"P  c #096D70",
"I  c #0A7576",
"U  c #0A787A",
"Y  c #444342",
"T  c #4C4642",
"R  c #444B47",
"E  c #4B4945",
"W  c #4A4C4B",
"Q  c #534540",
"!  c #584946",
"~  c #524A4A",
"^  c #5B4B4B",
"/  c #49544F",
"(  c #4B5756",
")  c #505956",
"_  c #604544",
"`  c #6B4641",
"'  c #644B46",
"]  c #6D4B44",
"[  c #6F4F49",
"{  c #734A42",
"}  c #7B4946",
"|  c #63524C",
" . c #68534D",
".. c #655655",
"X. c #705050",
"o. c #53625E",
"O. c #5A635D",
"+. c #4C6765",
"@. c #456967",
"#. c #426D6C",
"$. c #5C6460",
"%. c #546A68",
"&. c #47706E",
"*. c #4D716E",
"=. c #50706C",
"-. c #487576",
";. c #437B7A",
":. c #507271",
">. c #666264",
",. c #796964",
"<. c #757072",
"1. c #AB1D0C",
"2. c #AC1F13",
"3. c #B31C1C",
"4. c #862F1F",
"5. c #8C2D1D",
"6. c #9D2716",
"7. c #9C2A17",
"8. c #97271D",
"9. c #9E261C",
"0. c #942B1C",
"q. c #9B2A1A",
"w. c #84301F",
"e. c #A7200D",
"r. c #A8230D",
"t. c #A52514",
"y. c #AB2210",
"u. c #A12815",
"i. c #A3251B",
"p. c #AA261C",
"a. c #A12919",
"s. c #B02319",
"d. c #862F23",
"f. c #8B2D21",
"g. c #822F28",
"h. c #982626",
"j. c #932B21",
"k. c #9C2A20",
"l. c #912929",
"z. c #833124",
"x. c #8A3123",
"c. c #84332A",
"v. c #883528",
"b. c #923123",
"n. c #9B3020",
"m. c #8E3F3A",
"M. c #9D3F33",
"N. c #943F3D",
"B. c #9C3D3B",
"V. c #AD3D2E",
"C. c #B53C2D",
"Z. c #BB3C2A",
"A. c #A23F32",
"S. c #AD3B33",
"D. c #A33C39",
"F. c #B23B33",
"G. c #B93C34",
"H. c #DB311F",
"J. c #ED2F17",
"K. c #EB2C1D",
"L. c #F42D14",
"P. c #F32E1A",
"I. c #E4341E",
"U. c #ED311B",
"Y. c #F03017",
"T. c #FB3318",
"R. c #C53727",
"E. c #CD3625",
"W. c #C43A26",
"Q. c #CE3924",
"!. c #C53728",
"~. c #C23929",
"^. c #CA3A2A",
"/. c #D53623",
"(. c #DB3625",
"). c #DA3924",
"_. c #D63929",
"`. c #D43631",
"'. c #D93631",
"]. c #E62D24",
"[. c #EF2B25",
"{. c #F02C26",
"}. c #E33421",
"|. c #E43621",
" X c #E1312C",
".X c #8E4336",
"XX c #83453C",
"oX c #8C4439",
"OX c #924236",
"+X c #9C4134",
"@X c #914238",
"#X c #A24132",
"$X c #AD4336",
"%X c #AD4A3A",
"&X c #B44537",
"*X c #844342",
"=X c #964D44",
"-X c #9B4940",
";X c #81544E",
":X c #975048",
">X c #9D534B",
",X c #875853",
"<X c #915F56",
"1X c #87625B",
/* pixels */
"o o o o O o o o o o $ o o o o o O o o o o o o o o o o o o o o o o o o o o o o o o o o o o o O o o o o o O o o o . o o o $ o o o ",
"                    X o . o                   $ @ o   o o                     $ o o . o o                     $ X $ . o o       ",
"y.y.r.y.y.y.y.y.r.y.  o Y.U.1.r.y.y.y.y.r.y.y.r.O o {.K.6., A A A D o.t.y.y.r.e.$ o {.U.1.r.y.y.y.y.r.1.y.y.y.r.$ o [.K.1.y.1.r.",
"y.r.y.y.y.y.y.y.r.y.X o Y.K.2.r.y.y.y.r.1.r.y.r.o o {.! Y , Y R R @.;.;.-.y.r.r.O o [.K.2.r.y.y.y.y.y.r.r.y.y.r.o o [.U.2.y.y.y.",
"y.y.r.r.y.y.y.y.y.y.  o Y.U.2.r.y.y.y.r.y.y.r.r.O $ ^ ' p , 1 z o.*.:.:.#.#.t.r.o o [.U.y.y.y.r.y.y.r.r.y.y.y.r.$ o {.K.2.r.y.y.",
"r.1.1.p.y.y.y.y.r.r.X o Y.U.y.1.1.r.e.p.y.y.y.r.x U >.[ 1 1 < 2 O.$.O.%.+.) ( 6.O o [.U.s.e.e.e.e.1.r.s.y.y.y.r.O o {.U.s.e.e.1.",
"K.U.U.U.y.y.y.y.y.y.@ o U.U.U.U.U.P.U.U.y.y.r.u.U U <.,.;XoXoX,X<X1X,XX.^ ! ~ W $ $ {.U.K.U.U.K.U.U.K.U.y.y.y.r.o o {.U.U.K.U.U.",
"P.P.P.L.r.r.r.r.r.r.O o T.P.P.P.P.P.P.L.r.r.r.-.I P ,.1X<X:X-X>X>X:X:X=Xd s Q ~ n o H.P.P.P.P.L.P.P.P.L.r.r.r.3.  o H.P.P.P.P.P.",
"$ o $ $ o o O O o o + o = o o o $ @ o $ o o P L K J G C C M x n n M v v b b b v N n X $ $ $ @ o @ $ $ $ o o $   O o + $ $ o $ @ ",
". o o o o o o o o o o o o o o o o $ o o o - K F H C B V M x : i v v x i l x x v b n o o o O o o o o o O o o $ O $ o o o o o o o ",
"o @ [.[.2.2.s.y.2.2.2.2.2.2.2.2.$ @ {.K.2.( ) ^ ' ` h h y c.g.d.i i S.S.7 r 0 q 1 Q R 2.2.2.2.2.o @ {.K.2.2.s.y.2.2.2.2.2.2.2.2.",
"o $ U.U.y.y.y.y.y.y.y.y.y.y.y.y.$ O U.Y.v./ ~ _ f g t y z.x.f.x.- i Z.F.5 7 4 q < s T 8.y.2.y.y.o $ K.U.y.y.y.y.y.y.y.y.r.2.r.r.",
"o O U.U.y.y.y.y.y.y.y.r.y.y.y.y.$ O U.U./ ~ s d t t 9 c.x.x.0.0.- ; ~.Z.x.5 6 4 q 2 p E r.r.y.y.o O U.U.y.y.y.y.y.y.y.y.y.y.y.y.",
"o $ U.U.r.r.y.y.y.r.y.r.y.y.y.y.$ O U.Q./ a d w r 9 c.x.b.j.q.q.- > E.R.f.z.5 6 w q s T t.y.y.y.o $ U.U.r.r.r.y.y.y.y.r.y.y.y.y.",
"$ O U.U.U.U.U.U.U.U.U.U.1.y.y.y.O $ U. .[ XX.XOX#XC.Z.~.0.q.7.7.% > _.E.W.Z.C.A.OXoXk { p y.y.r.$ O U.U.U.U.U.U.U.U.U.Y.1.y.y.y.",
"$ O U.U.U.U.U.U.U.U.U.K.2.y.y.y.@ % U. .{ XX.X#X$X&X~.^.8.9.6.t.$ = (./.E.Z.C.V.A.@XXX{ T y.y.y.$ O U.U.U.U.U.U.U.U.U.K.2.y.y.y.",
"$ o O o o o o o o o o o o o o o o o ; n v x i u - - - - - $ O $ % $ * $ * * - - : x x x n $ o o o o o $ O o o . o o o o o o o o ",
"              $ @ o . o o           M v i i u u - * % = * @     @ @ @ % $ @ % - ; > i x m n                   $ @ o . o o       ",
"r.1.y.y.y.r.r.r.o o {.U.1.y.y.y.r.y.T s q 4 6 5 > * `._.6.t.t.t.y.t.a.7.6.7.5.4.> : @XXX1 T y.y.y.y.r.r.y.y.r.r.O o [.K.2.y.r.r.",
"r.r.y.y.y.r.r.r.O o [.U.2.1.y.y.y.y.T s q 4 5 5 - - `._.i.t.t.r.y.t.t.t.6.0.0.4.: : N.oXs p y.y.y.y.1.r.y.y.y.r.o o [.U.1.y.y.1.",
"y.y.y.r.y.y.r.r.$ o [.U.2.y.r.y.r.q a 2 w 8 5 5 - * `.}.t.t.t.r.t.t.t.u.7.q.0.4.> > B.oX2 a x.r.y.y.r.y.y.y.y.r.O o {.U.y.y.y.y.",
"r.1.r.s.y.y.y.r.O o [.K.s.e.e.e.r.T a d 3 8 5 w.- $ '.(.i.e.e.e.e.e.t.p.i.7.0.4.: - B.@Xe a p e.r.1.r.s.y.y.y.r.o o {.U.s.1.1.r.",
"K.U.P.U.y.y.y.r.$ $ {.U.U.K.K.U.K.] h oX4 6 5 4.= - '.}.|.].U.K.U.U.I.I.u.7.0.5.- - D.N.XX{ ' K.K.U.U.U.y.y.y.r.o o [.K.U.K.U.U.",
"P.P.P.L.r.r.r.3.  o H.P.P.P.P.L.P.] k .X4 6 d.f.% * ^.|.U.U.K.P.P.P.U.U.6.7.7.l.% - M.M.oXk ] P.P.P.P.L.r.r.r.3.@ o (.P.P.P.P.P.",
"$ $ $ o O o o   O o + $ $ o $ $ $ n v x l : : % = * & $ $ $ $ $ $ $ $ $ $ * * % = - ; i i v n $ $ $ o $ o O $   O o + o $ $ $ . ",
"o o o o o O o o o o o o o O o . $ n v i : : = * * * - $ $ $ o o o o $ $ $ * $ * * = > i x v b o o o o o o o $ $ o o o o o o o o ",
"o $ [.K.2.2.2.s.2.2.2.2.2.2.2.2.: v } m.r 5 d.f.j.k.9.i.2.2.2.2.o @ [.].i.i.8.0.f.g.7 6 0 2 Q f.o @ {.K.2.2.s.y.2.2.2.2.2.2.2.2.",
"o $ U.U.y.y.r.y.y.y.y.r.y.y.y.y.v b XXOX6 5 d.5.0.q.a.u.t.y.y.y.o $ U.I.i.7.9.0.5.d.5 6 w < a 6 o $ U.U.y.y.y.y.r.y.y.y.y.y.r.r.",
"o $ U.U.r.r.y.y.y.y.y.y.y.y.y.y.n m XXOX6 5 d.0.0.9.a.u.y.y.y.y.o * U.U.t.a.7.0.5.d.z.6 4 < a q o O U.U.y.r.y.y.y.y.y.r.y.y.y.y.",
"$ O U.U.y.y.r.r.y.y.y.r.y.y.y.y.n m XXOX6 5 4.5.0.q.a.t.t.y.y.y.o $ U.I.t.a.7.0.4.4.5 6 4 < a s o $ U.U.r.r.y.y.y.y.r.r.y.y.y.y.",
"$ O U.U.U.U.U.U.U.U.U.U.1.y.y.y.n m XXOXA.V.Z.W.Q.).).I.r.y.y.y.o $ ].U.I.).).E.W.Z.V.#X3 s s p $ O U.U.U.U.Y.U.U.Y.U.U.1.y.y.y.",
". O U.U.U.U.U.U.U.U.U.U.y.y.y.r.n m oXOXA.V.Z.R./.).|.|.y.y.y.y.$ O U.U.|.}././.R.Z.V.A.3 q a p $ O U.U.{.U.U.U.U.U.U.K.2.y.y.y.",
"o o o O o o o $ o o o o o o o o n v x i : - - * * $ * o $ o o o $ o o o $ $ - $ * * > : i x v n $ o o o o o o O o o o o o o o o ",
"              $ X o @ o o       v v i u u % % % % * $ o o             @ @ @ # - % - - : x i v n               @ X o . o o       ",
"r.r.y.y.r.r.r.r.$ o [.K.2.r.y.y.T a q 4 6 5 4.5.* $  XI.2.y.y.y.r.y.y.t.t.u.q.0.- - S.A.0 < a a y.y.r.r.y.y.y.r.o $ [.U.2.y.r.1.",
"y.1.y.y.y.r.y.r.o o [.U.1.2.y.y.p a < 4 6 5 w.5.* *  X(.2.y.y.y.r.y.y.y.u.6.7.0.= = S.A.4 < a s y.r.2.r.y.y.y.r.o o [.K.1.y.y.y.",
"y.y.y.y.y.y.y.r.o o {.{.1.y.y.y.a a d 3 6 5 d.5.= *  X|.t.1.y.y.r.y.y.y.t.a.q.0.- - S.M.3 < a q y.y.r.r.y.y.y.r.O o {.U.y.y.y.y.",
"r.1.1.p.y.y.y.r.o o [.U.p.1.r.1.s a < 4 6 5 d.5.* $  X|.p.1.e.e.e.e.r.p.t.a.q.0.* - S.B.w 2 a 6 r.1.r.p.y.y.y.r.o o {.U.s.1.e.e.",
"U.U.U.U.y.y.y.r.o o [.U.U.U.U.K.#Xh k OX6 5 d.4.= $ '.}.U.I.U.K.U.U.U.I.u.a.n.0.: = S.+XoXXX] ~.K.U.P.U.y.y.y.r.o o [.K.U.K.U.U.",
"P.P.L.L.r.r.r.3.  $ H.P.P.P.P.L.I.] XXOX4 5 4.l.% % Q.].U.U.P.P.P.P.U.J.u.u.0.j.% - M.M.oXXX{ J.P.P.P.L.r.r.r.3.@ o (.P.P.P.P.P.",
"$ $ $ $ o o o @ O o + o $ $ $ $ $ n x x : : > % = $ & $ $ $ $ $ $ $ $ $ * = * % = - ; i x v n $ . $ $ $ o o $   O o + o $ $ $ . ",
"o o o $ o o o o o O o o o o o o $ n v x i : - = = $ * $ $ $ o o o $ o $ $ - - * - - > i x m n o o o o o o o o O o o o o o o o o ",
"o $ [.K.2.2.2.2.2.2.y.y.2.2.2.2.o v } XX0 6 5 g.j.8.9.i.i.p.y.2.$ $ ].].i.k.h.0.d.c.7 0 q 1 E 2.o @ {.[.2.2.y.p.2.2.2.2.2.2.2.2.",
"o $ U.J.y.y.y.r.y.y.y.y.r.r.2.y.o n { XXw 6 5 f.5.0.7.i.u.y.t.y.$ $ }.I.7.q.0.4.d.7 6 w 2 a T y.o $ U.U.y.y.y.y.r.y.y.y.y.y.r.r.",
"$ O U.Y.y.y.y.y.y.y.y.y.y.y.y.y.$ v ] k w 6 7 d.4.0.6.7.a.t.t.t.o $ I.I.7.j.7.4.d.7 8 w s a x.y.o O U.U.y.y.y.y.y.y.r.r.y.y.y.y.",
"o % U.U.y.y.y.y.y.r.y.y.y.y.y.r.$ O ] k q 4 7 z.4.0.7.9.a.t.y.y.$ O |.I.q.n.5.5.5 7 8 q s T y.y.o $ U.U.y.y.y.y.y.y.y.r.y.y.y.y.",
"o $ U.K.U.U.U.U.U.U.U.U.1.y.y.y.o O ' k XXOX+XV.Z.R.Q./.t.u.t.y.$ * I.(._.^.W.Z.V.+X.XXXs T y.y.$ O U.U.U.U.Y.U.U.Y.U.U.1.y.y.y.",
"$ O U.U.U.K.U.U.U.U.U.P.y.y.r.r.$ O ' { XX.X+XV.C.~.E./.i.a.t.t.$ O |.(._.^.~.&XV.M..Xk a R y.y.$ O U.U.U.U.U.U.U.U.U.K.2.y.y.y.",
"@ o o o O o o o . o o o $ o o o O o - n v i i u - - * $ % * $ $ $ $ $ % ; - % - : i x b n $ o o $ o . o O o o . o o o o o o o o ",
"              $ X $ . o o             v v i u u ; - % * * # # @ @ @ # % % % % u i i x m V                     $ X o . o o       ",
"y.y.y.y.y.r.y.r.$ o [.K.2.y.1.r.y.y.y.T a s w 4 > = G.!.8.8.q.q.t.6.q.b.x.x.5 8 x c } [ W y.y.y.y.y.r.r.y.y.r.r.$ o [.U.2.y.1.y.",
"r.y.y.y.y.y.y.r.o o [.U.1.y.y.y.y.y.r.0.a a q 3 : : G.Z.0.0.n.q.q.0.b.b.4.c.7 8 x v }  .t.y.y.y.y.y.y.y.y.r.2.r.o o [.U.1.y.y.y.",
"y.y.r.r.y.y.y.r.$ o {.K.2.r.y.y.r.y.y.r.p a s 3 l : S.Z.d.j.0.b.0.0.f.x.v.9 g g m n X...1.y.y.y.y.y.r.r.y.y.y.r.o o {.K.2.r.y.y.",
"r.1.r.s.y.y.y.r.O o {.U.s.e.e.1.r.1.1.p.5 p a < x x S.F.c.x.x.4.4.5.x.c.c.g g f V V ..^.s.e.e.e.r.1.r.s.y.y.y.r.O o {.U.p.1.e.1.",
"K.U.K.U.y.y.y.r.o o {.U.U.K.U.U.U.U.U.J.r.E p s x i B.A.S.&X&XG.Z.C.F.%Xj g f ^ C Z >.U.U.U.U.K.K.U.U.U.y.y.y.r.$ o {.K.U.K.U.U.",
"P.P.P.L.r.r.r.3.@ o H.P.P.P.P.P.P.P.U.L.r.5.T z x x oXB.$X$X&X&XF.V.%X%X{ ] | ..F J E.P.P.P.P.P.P.P.P.L.r.r.r.3.  o (.P.P.P.P.P.",
"@ $ o $ o o O @ O o + $ o $ $ o $ @ o $ o o N n b b c b v n M M n i B C H H J K K L + $ o $ $ o $ $ o $ o O $   O o + $ $ $ $ . ",
"o o o o o o $ @ o o o o o o o . o $ o o o o o N N n n N n M V B B n B H J K P I U o o o o o o o o o o o o o $ o o o o O o . o o ",
"o @ {.[.2.2.s.y.2.2.2.2.2.2.2.2.$ @ {.K.2.2.2.9.W ~ ^ ^ | ) .. .B x *X} O.%.:.-.p.2.2.s.2.2.2.2.o @ [.K.2.2.y.s.2.2.2.2.2.2.2.2.",
"o $ U.U.y.y.y.y.r.r.y.y.y.y.y.r.$ O U.U.y.y.y.y.g.( ) ) $.O.>.) n x k { ~ +.-.n.y.y.r.y.r.y.y.y.o $ U.U.y.y.y.y.r.r.y.y.y.y.r.r.",
"o O U.U.y.y.y.y.y.y.y.y.y.y.y.y.$ $ U.Y.y.y.y.r.2.j.#.&.*.*.=.) b c ` ` Y R t.1.r.y.y.y.y.y.y.y.o O U.U.y.y.y.y.y.y.y.r.y.y.y.y.",
"o $ U.U.r.r.y.y.r.y.y.y.y.y.y.y.$ O U.U.y.y.y.r.y.y.y.;.;.;.@.R N b ! ! Y r.y.y.y.y.y.y.y.y.y.y.o $ U.U.y.r.y.y.y.y.y.r.y.y.y.y.",
"$ O U.K.U.U.U.U.U.U.U.U.1.y.y.y.$ O U.U.Y.U.U.U.U.U.U.U.t.#.S A B B _ I.U.U.U.U.U.U.U.U.1.y.y.y.$ O U.U.U.U.U.U.U.Y.U.U.1.y.y.y.",
"$ O U.U.U.U.U.U.U.U.K.U.1.y.y.y.$ O U.U.U.U.U.U.U.U.U.I.2.y.y.y.$ O U.U.U.U.U.U.U.U.U.U.1.y.r.r.$ O U.U.U.U.U.U.U.U.U.K.2.y.y.y."
};
