/* XPM */
static char *output_onlinepngtools__8_1708292994[] = {
/* columns rows colors chars-per-pixel */
"64 64 207 2 ",
"   c #02301D",
".  c #012F23",
"X  c #0B2D26",
"o  c #022F29",
"O  c #122F22",
"+  c #033323",
"@  c #02322B",
"#  c #033B2B",
"$  c #12372C",
"%  c #043633",
"&  c #083337",
"*  c #043935",
"=  c #083E37",
"-  c #053C3A",
";  c #103C34",
":  c #573C36",
">  c #5E3D36",
",  c #543E3A",
"<  c #5B3D39",
"1  c #7F2F25",
"2  c #7F2F29",
"3  c #6C362F",
"4  c #663B2F",
"5  c #6D392E",
"6  c #753327",
"7  c #7D3225",
"8  c #74352B",
"9  c #793329",
"0  c #74382C",
"q  c #6D3731",
"w  c #633C34",
"e  c #6A3A32",
"r  c #773932",
"t  c #07413A",
"y  c #05423D",
"u  c #4E433F",
"i  c #54423D",
"p  c #58413B",
"a  c #67433B",
"s  c #6C463C",
"d  c #76443D",
"f  c #78453A",
"g  c #7B453D",
"h  c #063E40",
"j  c #054543",
"k  c #054A45",
"l  c #064749",
"z  c #064B4A",
"x  c #0A4848",
"c  c #06524E",
"v  c #08514F",
"b  c #074E50",
"n  c #075453",
"m  c #085451",
"M  c #085855",
"N  c #095C5B",
"B  c #3D4D4A",
"V  c #0A5F60",
"C  c #0A6363",
"Z  c #0A6D65",
"A  c #0B6C6D",
"S  c #126763",
"D  c #0A6F70",
"F  c #0B7272",
"G  c #0A7978",
"H  c #0B7A7C",
"J  c #3D6B6B",
"K  c #4C4541",
"L  c #434946",
"P  c #4A4945",
"I  c #434A48",
"U  c #4C4948",
"Y  c #524541",
"T  c #544744",
"R  c #5C4944",
"E  c #44504D",
"W  c #4D524E",
"Q  c #54534D",
"!  c #5B544D",
"~  c #4B5956",
"^  c #455C59",
"/  c #555652",
"(  c #535B56",
")  c #595C55",
"_  c #585E59",
"`  c #6C4545",
"'  c #644B44",
"]  c #6C4B45",
"[  c #744A43",
"{  c #774946",
"}  c #6A524B",
"|  c #7A524A",
" . c #655652",
".. c #645A56",
"X. c #6B5953",
"o. c #725C54",
"O. c #4D635F",
"+. c #5A625C",
"@. c #60635F",
"#. c #5B5F60",
"$. c #4D6663",
"%. c #526663",
"&. c #526965",
"*. c #576A68",
"=. c #45706E",
"-. c #4C716D",
";. c #477372",
":. c #497473",
">. c #587271",
",. c #666762",
"<. c #607875",
"1. c #AB1D0C",
"2. c #AC1F13",
"3. c #B31C1C",
"4. c #862E1F",
"5. c #8D2C1D",
"6. c #992618",
"7. c #9C2619",
"8. c #942A1B",
"9. c #9C2B1C",
"0. c #96301E",
"q. c #A7200D",
"w. c #A8230D",
"e. c #A42514",
"r. c #AB2210",
"t. c #A02916",
"y. c #A3251A",
"u. c #AA261C",
"i. c #A1291A",
"p. c #B02319",
"a. c #842E23",
"s. c #8A2C21",
"d. c #952C21",
"f. c #9A2D22",
"g. c #962728",
"h. c #823124",
"j. c #8A3224",
"k. c #84312A",
"l. c #953022",
"z. c #903827",
"x. c #9D3E32",
"c. c #963E38",
"v. c #A43E2F",
"b. c #AC3D2E",
"n. c #BF3927",
"m. c #B43B2D",
"M. c #BC3B2A",
"N. c #A43D31",
"B. c #AB3D32",
"V. c #A63D39",
"C. c #B23935",
"Z. c #B73C35",
"A. c #DB311F",
"S. c #EC2C1C",
"D. c #F42D14",
"F. c #F32E1A",
"G. c #EC3017",
"H. c #E5331E",
"J. c #ED311B",
"K. c #F03017",
"L. c #FB3318",
"P. c #C63727",
"I. c #CD3626",
"U. c #C53925",
"Y. c #CD3925",
"T. c #C33728",
"R. c #C43B2B",
"E. c #CB3B2B",
"W. c #D43524",
"Q. c #DC3624",
"!. c #D53924",
"~. c #DB3924",
"^. c #D3312C",
"/. c #DB332D",
"(. c #D13D29",
"). c #C43F30",
"_. c #E62D24",
"`. c #EF2B25",
"'. c #F02C26",
"]. c #E33421",
"[. c #E13821",
"{. c #E1312C",
"}. c #874437",
"|. c #84453B",
" X c #8A443B",
".X c #934236",
"XX c #9C4135",
"oX c #92443B",
"OX c #97493B",
"+X c #BA422F",
"@X c #A34233",
"#X c #AE4133",
"$X c #A34438",
"%X c #B34234",
"&X c #844141",
"*X c #844A41",
"=X c #8C4D41",
"-X c #954D43",
";X c #84564E",
":X c #9A5348",
">X c #855652",
",X c #985952",
"<X c #A64946",
"1X c #85635B",
"2X c #886058",
"3X c #0C7E82",
"4X c #0B8488",
/* pixels */
"o o o o X o o o o o o o o o o o X o o o o o o o o o o o o o o o o o o o o o o o o o o o o o o o o o o o X o o o o o o o o o o o ",
"                    X o   o                   @ . o   o o                     @ @ o . o o                     @ + o . o o       ",
"r.w.w.r.r.r.r.r.w.r.. o K.J.1.w.r.r.r.r.w.r.r.w.o o `.S.u.-.<.3XJ B P e.2.w.w.w.o o '.J.1.r.r.2.r.r.w.r.r.r.w.w.o o '.J.2.r.1.r.",
"r.r.r.r.r.r.r.r.r.r.+ o K.S.2.r.r.r.r.w.r.r.r.w.o o '.*.=.:.:.:.=.E I B L w.w.w.o o '.S.2.r.r.w.r.r.r.r.r.r.r.w.o o '.S.1.r.r.r.",
"r.r.w.w.r.r.r.r.r.r.. o K.J.2.w.r.r.r.w.r.r.w.w.@ * #.,.^ $.%.&.-.&.P P L B e.w.o o '.J.1.r.r.w.r.r.w.w.w.r.r.w.o o '.J.2.w.r.r.",
"w.1.1.u.r.r.r.r.r.w.. o K.J.r.1.1.w.q.u.w.w.w.q.& n  .X./ / ) ) +.+.Q u K P L 7.o o '.S.p.q.q.q.1.1.w.p.r.r.r.w.o o '.S.p.w.q.1.",
"S.J.J.J.r.r.r.r.r.w.+ o J.J.J.J.J.F.J.J.2.r.2.7.b b } | | ;X;X>X2X1X1X| p i P E @ o '.J.J.J.S.J.J.J.J.J.r.2.r.w.o o '.S.J.J.J.S.",
"F.F.F.D.w.w.w.w.w.w.X o L.F.F.F.F.F.F.D.w.w.1.U z z { *X=X-X-X:X:X,X,X=XR ) &.-.H o Q.F.F.F.F.D.F.F.F.D.w.w.w.3.+ o Q.F.F.F.F.F.",
"o @ @ @ o o o o X @ O o % o o o @ @ . @ o o l k x j t j j k k z c M c j V Z D F H H O o o @ @ @ . @ @ @ o o @   X o O @ @ @ @ @ ",
"o o o o o o o o o o o o o o o o . @ o o o @ l l j j j j - y t j y y t y c V C Z F H o o o o o o o o o o o o o o o o o o o o o . ",
"o + '.S.2.2.r.p.2.2.2.2.2.2.2.2.o @ `.S.2.K , < w q q 9 9 k.k.j.- t %XN.f [ } X.#.%.;.2.2.2.2.u.o + '.'.2.2.r.p.2.2.2.2.2.2.2.2.",
"o @ '.J.r.r.r.r.2.r.r.r.r.r.r.r.@ @ J.J.s., , > q q 8 a.s.s.s.s.* t +Xm.k.f s }  ._ %.d.w.2.w.r.o @ J.J.r.r.r.r.r.r.r.r.r.2.w.w.",
"o @ J.J.r.r.r.r.r.r.r.w.r.r.r.r.o $ S.J., : > w 0 8 a.a.5.5.8.d.* - T.M.k.9 f s ' ! ( $.r.r.r.r.o @ J.J.r.r.r.r.r.r.r.w.r.r.r.r.",
"o @ J.J.w.w.r.r.r.r.r.w.r.r.r.r.o % S.W., > w q 8 a.a.5.8.8.6.9.% & I.Y.z.k.0 f s ' ! ~ e.r.r.r.o @ J.J.r.w.r.r.r.r.r.w.r.r.r.r.",
"o @ J.F.J.J.J.J.J.J.J.J.1.r.r.r.o @ S.' ` g z..Xb.m.n.P.6.9.9.9.# * W.I.R.+X%X@XOX=X| o./ r.r.r.o % J.F.J.J.J.J.J.J.J.J.1.r.w.r.",
"o % J.J.J.J.J.J.J.J.J.S.2.r.r.r.o @ J.] g }.c.N.m.M.P.I.6.i.i.i.@ & Q.W.E.).m.#XXX=X*X| W r.r.r.o @ J.J.J.J.J.J.J.J.J.S.2.r.r.r.",
"o o o o o o o o o @ o o o o o o o o = k j y y * * % % % @ % # @ @ @ @ % # * * * - j l z n # o @ o o o o o o o o o o o o o o o o ",
"              + X o . o o           z j y t t - % % @ @ % + + + +   + + # t # t = y y l b m                   + X o . o o       ",
"r.r.r.r.r.r.w.w.o o '.J.2.w.r.r.w.r.K p w 5 6 7 * % ^.W.i.t.e.e.r.e.e.t.9.8.l.4.* - -Xc.Y T r.r.r.r.r.r.r.r.r.w.o o '.J.2.r.w.r.",
"r.r.r.r.r.w.2.w.o o '.J.1.2.r.r.r.r.i < 4 5 6 7 - % ^.~.y.e.r.r.r.e.e.t.9.l.l.4.- y oX Xp T r.w.r.r.r.1.r.r.r.w.o o '.S.1.r.w.2.",
"r.r.r.w.r.r.r.w.o o '.J.2.r.w.w.w.e i > 4 0 9 h.& % ^.Q.e.e.e.q.r.e.e.t.9.0.l.5.* - c. X< u k.w.r.r.w.w.2.w.r.w.o o '.J.2.w.r.r.",
"w.1.w.p.r.r.w.w.o o '.S.p.1.w.q.q.u : a 5 8 9 4.* @ ^.Q.u.e.q.q.q.q.e.i.i.9.l.8.* - V.c.a p i w.1.w.w.u.r.r.r.w.o o '.S.p.1.1.w.",
"S.J.F.J.r.r.r.w.@ @ '.J.J.S.S.J.J.] g }.5 6 7 4.* % /.[.[.H.J.J.J.J.H.H.t.9.f.5.& * V. X|.{ ] S.J.F.J.J.r.r.r.w.o o '.S.J.S.J.J.",
"F.F.F.D.w.w.w.3.  o A.F.F.F.F.D.F.d g .X5 6 7 g.# % E.].J.S.S.D.F.S.F.G.7.9.0.g.# * c.x. Xg ] F.F.F.F.D.w.w.w.3.+ o Q.F.F.F.F.F.",
"@ @ @ o X o @ @ o o O o @ @ @ @ @ j j j h - & # & @ $ % @ @ @ @ @ @ @ @ % % * # & % & y k j z @ @ @ @ @ o o @   X o O @ @ @ . @ ",
"o o o o o o o o o o o o o o o o @ j j - - * * * % % * @ @ o o o o o o o @ % * * % * * y j j l o o o o o o o o o o o o o o o o o ",
"o @ `.S.2.2.2.p.2.2.2.2.2.2.2.2.* j &Xc.8 k.s.s.8.f.9.y.u.2.2.2.o @ `.H.y.i.f.g.s.s.2 8 w w Y d.. @ '.`.2.2.p.r.r.2.2.2.2.2.2.2.",
"o @ J.J.r.r.w.r.r.r.r.r.r.r.r.r.h l |.}.8 7 s.5.6.9.9.e.e.e.r.r.. @ J.H.e.9.9.8.5.s.1 8 q > i 9 o @ J.J.r.r.r.r.u.1.r.r.r.r.w.w.",
"o @ J.J.w.r.r.r.r.r.r.r.r.r.r.r.j l }..X6 a.s.5.8.9.i.e.r.r.r.r.o % J.J.e.i.l.9.5.5.1 8 e w p w o @ F.J.r.r.r.r.w.r.r.r.r.r.r.r.",
"o @ J.J.r.r.w.w.r.r.r.w.r.r.r.r.l l }.c.9 7 4.5.8.9.i.e.e.r.r.r.o @ J.H.e.i.9.8.5.4.a.8 5 w p < o @ J.J.w.w.r.r.r.r.r.w.r.r.r.r.",
"o $ S.S.J.J.J.J.J.J.J.J.w.r.r.r.j l }.c.v.m.n.P.W.~.Q.H.w.r.r.r.o @ H.H.H.~.(.(.P.n.m.v.3 > < i o $ J.S.J.J.J.J.J.J.J.J.1.w.r.r.",
"o @ J.J.J.J.J.J.J.S.J.J.1.r.r.r.l l |.c.v.m.M.P.(.!.Q.].r.r.r.r.o $ J.J.].Q.~.W.P.M.m.N.3 w , u o @ J.J.J.J.J.J.J.J.F.S.2.r.r.r.",
"o o o o o o @ @ o o o o o o o o z k j t * * % % % * @ @ o o o @ o o o o @ @ % % % * * - h j k j o o o o o o o o o o o o o o o o ",
"              + + o . o o       k y t t * # # # # * @ o o             + + + # * @ * % * h y j k               + X o . o o       ",
"w.2.r.r.w.w.r.w.o o '.S.2.w.r.r.u , w e 8 a.5.5.* % {.].2.r.r.r.2.r.r.e.e.t.9.8.% * C.N.3 w < , r.w.r.r.r.r.w.w.@ o '.J.2.r.w.1.",
"r.w.r.r.r.r.r.w.o o '.S.2.w.r.r.i < w 5 6 a.4.5.* % /.H.2.r.r.r.1.r.r.e.e.t.9.8.% * C.N.3 > : > r.r.r.r.r.r.2.w.o o '.S.1.r.r.r.",
"r.r.r.r.r.r.r.w.o o '.J.1.r.r.r.p p > 5 8 a.4.5.& % {.[.e.1.w.r.r.w.w.e.e.i.0.0.& % C.N.3 > : q r.r.w.w.r.r.r.w.o o '.J.r.r.r.r.",
"1.w.2.r.r.r.r.w.X o `.`.p.w.1.q.: p > e 8 1 4.5.- % {.].u.q.1.q.w.q.w.u.t.i.9.8.* * C.N.q > , 8 q.1.w.p.r.r.r.w.o o '.S.p.1.w.q.",
"J.J.J.J.r.r.r.w.o o `.J.J.J.J.S.b.[ |. X8 7 a.5.* * {.[.H.J.J.S.J.J.G.H.e.9.9.8.* * B.x..X|.d T.H.S.J.J.r.r.r.w.o o `.S.J.J.S.J.",
"F.F.F.D.w.w.w.3.  @ A.F.F.F.F.F.H.[ |..X8 7 4.g.# * I.H.J.S.F.F.F.F.K.G.t.9.9.8.# % x.x.c.|.d S.F.F.F.D.w.w.w.3.+ o Q.F.F.F.F.F.",
"@ @ @ @ o o o + & o O o o o @ o @ z k j - - & # & * $ @ @ # o @ @ @ @ @ & * % # & * ; y y j j o @ @ o @ o o @   X o O @ @ @ @ o ",
"o o o @ o o o o o o o o o o o o @ z k k - - * * % - % @ @ @ o o o o @ @ @ % @ % % * - - l h l o . o o o o o o o o o o o o o o o ",
"o + `.S.2.2.2.2.2.2.2.r.2.2.2.2.o z { |.q 8 k.s.d.f.f.y.y.2.2.2.o @ _._.y.f.8.d.s.k.8 q w < Y r.o + '.'.2.2.r.p.2.2.2.2.2.2.2.2.",
"o @ S.J.r.r.r.w.r.r.r.r.w.w.r.r.o z [ |.q 8 1 a.8.l.9.t.e.e.e.r.@ % H.[.9.9.8.5.s.9 8 e > < Y r.o @ J.J.r.r.r.r.r.r.r.r.r.r.w.w.",
"@ @ J.J.r.r.r.r.r.r.r.r.r.r.r.r.+ x ] |.w 8 9 s.5.l.9.i.e.e.e.r.o @ H.[.i.9.8.4.h.9 0 w > i h.r.o @ F.J.r.r.r.r.w.r.r.w.r.r.r.r.",
"o @ J.J.r.r.r.r.w.w.r.r.r.r.r.r.o % } g e 3 9 h.5.l.l.i.t.e.r.e.o % ].~.9.8.8.4.7 9 0 w p u r.r.o @ J.J.r.w.r.r.r.r.r.w.r.r.r.r.",
"o @ J.S.J.J.J.J.J.J.K.J.1.r.w.r.o @ } [ |..X@Xb.M.E.(.~.e.e.e.r.@ $ ].Q.A.Y.U.n.b.@X.X|.: K w.r.X @ J.J.J.J.J.J.J.J.J.J.1.r.r.r.",
"o $ J.J.J.J.J.J.J.J.J.S.2.r.2.w.o $  .| *X XXXb.m.E.E.W.7.7.e.e.@ % Q.Q.W.P.T.m.B.N..Xg p P r.r.@ % S.J.J.J.J.J.J.J.J.S.2.r.r.r.",
"o o o o o o o o o o o o o o o o @ o y m z k y t t = = * @ @ @ @ @ @ % @ @ % % * - - h k l @ o o o o o o o o o o o o o o o o o o ",
"              @   o o o o             M c k y y t % = * & + + + # @ + + # + # = - - j h z                     @ X o . o o       ",
"r.r.r.w.r.r.r.w.o o '.J.2.r.w.2.r.r.r.~ Q R a e j - Z.R.6.6.7.9.i.9.6.8.5.5.4.7 - j &X{ Y r.r.r.r.r.w.r.w.r.r.w.@ o '.J.2.r.w.w.",
"r.r.w.2.r.r.r.w.X o '.S.1.r.r.w.r.r.r.f./ Q ' a j j C.).8.8.9.9.9.9.8.5.5.a.1 6 h j r ` e.r.r.w.r.r.r.r.r.r.r.w.o o `.S.1.r.r.1.",
"r.r.w.w.r.r.r.w.o o '.J.2.w.r.r.r.r.r.r.$.) ! ' m x Z.Z.s.s.d.d.0.8.5.5.s.1 9 5 j h { ` r.r.r.e.r.r.w.w.r.r.r.w.@ o '.S.r.r.r.r.",
"w.1.w.p.r.r.r.w.o o '.S.p.1.q.q.1.w.w.r.}.O.)  .M v <X%Xj.j.j.j.5.5.4.s.h.6 3 4 j j ` P.p.1.1.q.q.1.w.p.r.r.r.w.o o '.J.p.1.1.w.",
"S.J.J.J.r.r.r.w.o o '.S.J.J.J.S.J.J.J.J.w.-.%._ C N :X$XB.%X%Xm.+Xm.C.b.8 8 q w j l ` S.J.J.J.S.J.S.J.J.r.r.r.w.o o `.S.J.S.J.J.",
"F.F.F.D.w.w.w.3.+ o Q.F.F.F.F.F.F.F.F.D.w.j.-.*.Z C >X:X$XB.%X%X%X#XB.@X5 4 > < k l I.F.F.F.F.F.F.F.F.D.w.w.w.3.+ o Q.F.F.F.F.F.",
". @ @ @ o o @   X o O @ @ @ @ @ + o @ @ o o 3XH F A S N k c c c k k k l j j l j l l O @ o @ o @ @ o @ @ o o @   X o O @ @ @ + o ",
"o o o o o o o o o o o o o o o . o o o o o o o 3XH D C m v N M n c z x l k k x z z o o o o o o o o o o o o o @ o o o o o o o o o ",
"o + '.'.2.2.r.p.2.2.2.2.2.2.2.2.o @ '.S.2.2.2.7.I U Y i R ....X.N M ;X| T T U U p.2.2.p.2.2.2.2.. @ '.`.2.2.p.r.2.2.2.2.2.2.2.2.",
"o @ J.J.r.r.r.r.r.r.r.r.r.r.w.w.o % J.J.w.r.r.r.h.I K K i Q +.%.C C o.o.W W I 9.r.r.w.r.w.w.r.r.o @ J.J.r.r.r.r.r.r.u.1.r.r.w.w.",
"o @ J.J.r.r.r.r.r.r.r.w.2.r.r.r.o $ S.J.r.r.r.r.r.8.I L K P $.*.F A ,.@.O.^ e.w.r.r.r.r.r.r.r.r.o @ J.J.r.r.r.r.w.r.r.r.r.r.r.r.",
"o @ J.J.r.w.r.r.r.r.r.w.r.r.r.r.o @ J.J.r.r.r.r.r.r.r.B B I ^ :.G G <.>.J 2.r.r.w.w.r.w.r.r.r.r.o @ J.J.w.w.r.r.r.r.r.r.r.r.r.r.",
"o % J.F.J.J.J.J.J.J.J.J.1.r.r.w.o @ J.J.G.J.J.J.G.J.J.J.e.B B J 4X4X<.A.J.J.J.J.J.J.J.J.1.r.r.r.X @ J.F.J.J.J.J.J.J.J.J.1.r.r.r.",
"o @ J.J.J.J.J.J.J.J.J.S.2.r.r.r.@ % J.J.J.J.J.J.J.J.J.J.u.r.r.r.X @ J.J.J.J.J.J.J.J.J.S.2.r.r.r.@ @ J.J.J.J.J.J.J.J.J.S.1.r.r.r."
};
