/* XPM */
static char *output_onlinepngtools__10_1708292994[] = {
/* columns rows colors chars-per-pixel */
"64 64 211 2 ",
"   c #02301D",
".  c #012F23",
"X  c #0B2D26",
"o  c #022F29",
"O  c #122F22",
"+  c #033324",
"@  c #02322B",
"#  c #043A2B",
"$  c #123429",
"%  c #043532",
"&  c #043A35",
"*  c #083936",
"=  c #073539",
"-  c #053D3A",
";  c #093D3C",
":  c #103D35",
">  c #4C3E3E",
",  c #5F3E35",
"<  c #533E3C",
"1  c #5C3F3B",
"2  c #6F372D",
"3  c #6E382D",
"4  c #7D3226",
"5  c #74362B",
"6  c #7B3329",
"7  c #7A372A",
"8  c #72392D",
"9  c #643C33",
"0  c #6B3B33",
"q  c #633D39",
"w  c #6B3E38",
"e  c #733D33",
"r  c #7D3D34",
"t  c #044434",
"y  c #05423D",
"u  c #0A433D",
"i  c #55433C",
"p  c #5C423B",
"a  c #62433C",
"s  c #6A443B",
"d  c #7C4135",
"f  c #784138",
"g  c #78453B",
"h  c #083B40",
"j  c #064442",
"k  c #074546",
"l  c #064A46",
"z  c #064B4B",
"x  c #084A4B",
"c  c #124942",
"v  c #07514D",
"b  c #074F51",
"n  c #084F50",
"m  c #075353",
"M  c #095152",
"N  c #075854",
"B  c #075959",
"V  c #065A5B",
"C  c #085B5C",
"Z  c #3F504D",
"A  c #3C5656",
"S  c #3F5A5D",
"D  c #07615B",
"F  c #076161",
"G  c #086363",
"H  c #096869",
"J  c #096B6C",
"K  c #0A6F70",
"L  c #4C4542",
"P  c #4C4945",
"I  c #444C4A",
"U  c #4B4D49",
"Y  c #534541",
"T  c #5B4642",
"R  c #544A45",
"E  c #594B45",
"W  c #544E4A",
"Q  c #5D4E4D",
"!  c #54514C",
"~  c #5C524D",
"^  c #5D4F56",
"/  c #4B5453",
"(  c #475759",
")  c #4B5C5D",
"_  c #545452",
"`  c #5A5351",
"'  c #595A57",
"]  c #545C5A",
"[  c #644544",
"{  c #644A43",
"}  c #6E4C45",
"|  c #644E4A",
" . c #6B4B49",
".. c #754A42",
"X. c #7A4843",
"o. c #64514B",
"O. c #6D514A",
"+. c #705049",
"@. c #615853",
"#. c #745C56",
"$. c #7C5A52",
"%. c #7B5C58",
"&. c #53625D",
"*. c #6E645E",
"=. c #75645E",
"-. c #446362",
";. c #496866",
":. c #4D6C6A",
">. c #536564",
",. c #45716F",
"<. c #437472",
"1. c #6B6A67",
"2. c #766863",
"3. c #AB1D0C",
"4. c #AC1F13",
"5. c #B31C1C",
"6. c #862D1F",
"7. c #8E2C1E",
"8. c #9E2716",
"9. c #9C2916",
"0. c #9D261B",
"q. c #952C1D",
"w. c #9C2A1B",
"e. c #8A301F",
"r. c #94311F",
"t. c #A7200D",
"y. c #A8230D",
"u. c #A42514",
"i. c #AB2210",
"p. c #A12817",
"a. c #A32419",
"s. c #AA261B",
"d. c #A02818",
"f. c #B02319",
"g. c #862E23",
"h. c #8A2E20",
"j. c #942E22",
"k. c #9A2D21",
"l. c #962C2D",
"z. c #833124",
"x. c #8C3222",
"c. c #853529",
"v. c #8C342A",
"b. c #83392D",
"n. c #8A3A2D",
"m. c #933224",
"M. c #983021",
"N. c #913529",
"B. c #952E30",
"V. c #833E32",
"C. c #8A3D38",
"Z. c #9E3F32",
"A. c #A33D2D",
"S. c #AD3D2E",
"D. c #B33B2D",
"F. c #B93C2C",
"G. c #A03F33",
"H. c #AD3B34",
"J. c #B63D37",
"K. c #DC321F",
"L. c #EA2F18",
"P. c #EB2C1C",
"I. c #F42D14",
"U. c #F32E1A",
"Y. c #E4331E",
"T. c #ED311B",
"R. c #F03017",
"E. c #FB3318",
"W. c #DE2F2A",
"Q. c #CC3525",
"!. c #C83926",
"~. c #C43A2A",
"^. c #CC3B2A",
"/. c #D83726",
"(. c #DC3624",
"). c #D23B26",
"_. c #D33A29",
"`. c #D63733",
"'. c #E62D23",
"]. c #EF2B25",
"[. c #E12F2A",
"{. c #F02C26",
"}. c #E33421",
"|. c #E13821",
" X c #8C4437",
".X c #84463C",
"XX c #8D443A",
"oX c #85483F",
"OX c #934337",
"+X c #9C4134",
"@X c #94443A",
"#X c #9C453C",
"$X c #91493D",
"%X c #B7412F",
"&X c #A24133",
"*X c #AE4335",
"=X c #A9473C",
"-X c #BC4637",
";X c #B64738",
":X c #C6412E",
">X c #C44332",
",X c #C84030",
"<X c #834B43",
"1X c #874A45",
"2X c #9A4741",
"3X c #85534A",
"4X c #88574C",
"5X c #875B54",
"6X c #A44744",
"7X c #B04440",
"8X c #82625B",
/* pixels */
"o o o o X o o o o o o o o o o o o o o o o o o o o . o o o o o o o o o o o o o o @ o o o o o o o o o o o @ o @ o . o o @ o o o o ",
"                    O o . o                   @ X o . o o                     @ X o . o o                     @ X o . o o       ",
"i.y.y.i.i.i.i.i.y.i.. o U.T.3.y.i.i.i.i.y.i.i.y.o o ].T.u.U A A ( S / u.i.i.y.t.o o {.T.4.i.i.i.i.i.y.y.i.i.i.y.@ o {.P.4.i.3.y.",
"i.i.i.i.i.i.i.i.y.i.. o R.U.4.y.i.i.i.i.y.i.i.y.o @ ].! I I I I / ( ( -.,.y.y.t.o o {.L.3.i.i.i.i.i.y.4.i.i.i.y.o o {.T.3.i.y.y.",
"i.i.y.i.i.i.i.i.i.i.. o R.T.4.y.i.i.i.y.i.i.y.y.o % W Q P P P R R U / / ;.<.p.t.o o {.P.i.i.i.i.i.i.y.i.y.i.i.y.o o {.P.4.y.4.y.",
"y.3.t.s.i.i.i.i.i.i.  o R.T.u.3.y.t.3.s.i.i.y.t.& n |  .Y < i p i T T ~ ' :.<.9.o o {.U.s.3.t.t.3.3.3.s.i.i.i.y.o o {.T.f.y.y.3.",
"P.T.T.T.i.i.i.i.i.i.+ o R.T.T.P.T.T.T.U.i.i.i.8.n z  ...X..X.XoX1XoX1X3X~ &.:.;.@ o {.P.P.T.T.L.T.P.T.T.i.i.i.y.o @ {.P.U.T.P.L.",
"U.U.U.I.y.y.y.y.y.y.X @ E.U.U.U.U.U.U.I.y.y.i.U z z ...XXX@XC.+X+X#X$X$Xa ~ >.>.N o (.U.U.U.U.U.U.U.U.I.y.y.y.5.+ o (.U.U.U.U.U.",
"@ @ o @ @ o o o o o O o % o o o @ @ + o o o n z x k j j y y y ; - y y l z m G J V x O o o @ @ o @ @ @ @ @ o o + X o O @ @ @ o @ ",
"o o o o o o o o o o o o o o o o o o o o o % z z k j y ; - - - - - - - j k m V V N x o o o o o o o o o o o o o @ o o o o o o o o ",
"o + {.P.5.4.f.i.4.4.4.4.4.4.4.4.o @ ].P.4.I Y < q 0 5 5 6 4 g.g.& & J.=Xr w 0 [ Q < > 4.4.4.4.4.o @ {.P.4.4.i.i.4.4.4.4.4.4.3.4.",
"o @ T.T.i.i.i.i.i.i.i.i.i.i.i.i.@ @ T.R.g.L i , 9 2 5 4 g.g.6.x.; k -X;Xr f f 0 q < > 0.i.i.i.i.o @ {.T.i.i.i.y.i.i.i.i.i.i.i.i.",
"o % U.T.i.i.i.y.i.i.i.y.i.i.i.i.o % U.R.P i i 9 2 5 4 g.h.7.j.m.- h >X>XV.r d e 0 [ ` L i.i.i.i.o X T.T.i.i.i.i.i.i.i.i.i.i.i.i.",
"o @ T.T.y.y.i.i.i.i.i.y.i.i.i.i.o % P.).P i , 3 5 6 g.h.q.q.M.k.& ; ^.^.v.b.7 8 2 [ ' ] u.i.i.i.o @ T.T.y.y.i.i.i.i.i.i.i.i.i.i.",
"@ X T.P.T.T.T.T.T.T.T.T.3.i.i.i.o X T.o.} g  X+XA.S.F.~.q.M.w.w.% - _.^.:X-XS.A.+XXX8X2.' i.i.i.o % T.T.T.T.T.T.T.T.T.T.3.i.i.i.",
"o % T.T.T.T.T.T.T.T.P.P.4.i.i.i.o % T.o...oXXXA.S.F.~.!.k.w.d.a.# & (._.!.~.F.S.+X@X5X2.>.i.i.i.o % T.T.T.T.T.T.T.T.T.T.3.i.i.i.",
"o o o o o o o o o o @ o o o o o o o - z l j y - - & # & % % # @ @ # @ # % % % & k k z G J % o @ o o o . X @ o o o o o o o o o o ",
"              @ X o . o o           v l y u - t & % & & % + + + + + + + # @ # - y k z V J J                   @ + o . o o       ",
"y.i.y.i.i.i.y.t.o o {.T.4.y.i.i.y.y.P i , 3 5 4 = % `./.a.p.u.u.i.u.8.9.9.q.h.x.j l @X4X' &.i.i.i.i.3.y.i.i.i.y.o o ].T.4.i.3.i.",
"i.i.i.i.i.i.y.t.o o {.T.3.4.i.i.y.4.R p 9 3 4 4 - - `.(.a.u.i.i.u.i.y.u.8.q.7.x.j l #X4X~ &.i.i.y.i.i.i.i.i.i.y.o o {.P.3.i.i.i.",
"i.i.y.y.i.i.i.y.o o {.T.i.i.i.y.y.s i p 9 8 4 z.& - `.(.u.u.i.i.i.i.u.8.8.w.q.x.j l 2X1Xo.] n.y.i.i.y.i.i.y.i.y.o o {.P.i.i.i.i.",
"y.3.y.f.i.i.i.y.o o {.P.s.3.y.t.t.U i a 3 8 4 6.* - `.}.a.t.8.t.3.8.t.u.8.w.q.6.j l 6X2Xo._ ] t.y.3.i.s.i.i.i.y.o o {.T.f.3.t.t.",
"P.T.P.T.i.i.i.y.@ o ].T.P.U.T.P.T.o....X3 4 4 6.y - `.}.}.'.T.T.T.T.Y.Y.9.9.q.m.y l 6X$X1X#.1.T.U.L.P.U.i.i.i.y.o @ {.P.P.T.T.T.",
"U.U.E.I.y.y.y.5.+ o K.U.U.U.U.I.U.+.X. X3 5 4 v.t & Q.}.T.U.P.I.U.U.P.L.y.8.q.l.t z #X#X$X$.*.U.U.U.U.I.y.y.y.5.  o (.U.U.U.U.U.",
"@ @ @ @ o o @ + X o O o @ @ o @ @ m z j y ; - t ; % $ # @ @ @ @ @ @ o @ % % % # ; l c j z m F @ @ @ @ @ o o @   o o O @ @ @ o @ ",
"o o o . o o o o o o o o o o o o # z l j ; - & ; - & % @ @ o o o o o o o o % % & - k l ; l v C @ . o o o o o o @ o o o o o o o . ",
"@ @ ].P.4.4.i.f.4.4.4.4.4.4.4.4.y b <XC.5 6 c.n.k.k.0.a.u.4.4.4.o + ].Y.4.0.0.j.N.C.r 8 q { _ v.o + {.].4.4.f.i.4.4.5.i.4.4.4.4.",
"o @ P.T.i.i.i.i.i.i.i.i.i.i.i.i.v z <X@X8 z.c.N.j.0.8.u.u.i.i.i.o @ T.Y.8.8.0.j.N.V.V.8 9 T ! f o @ T.T.i.i.i.i.i.i.y.i.i.i.i.y.",
"o X T.R.y.i.i.y.i.i.i.i.y.i.i.i.m M .XOX5 4 c.N.k.w.p.u.i.y.i.i.o % T.T.u.8.0.q.N.n.d 5 s a ! { o % U.T.i.i.i.i.i.i.i.i.i.i.i.i.",
"@ @ T.T.i.i.i.y.i.i.i.y.i.i.i.i.m M oXOX5 4 n.N.k.w.p.u.i.i.i.i.o @ L.Y.u.8.w.k.x. Xb.8 3 a E ~ o @ T.T.y.y.i.i.y.i.i.i.i.i.i.i.",
"@ % U.P.T.T.T.T.T.T.T.T.y.i.i.i.V M oX@X&X%X-X:X_./.K.Y.y.i.i.i.o % T.Y.Y.K./.).:X-X*X&X3 p E _ o X T.P.T.T.T.T.T.T.T.T.3.i.i.i.",
"o @ P.T.T.T.T.T.].T.T.T.4.y.y.i.V M oXOXG.H.;X:X_./.|.Y.4.i.i.i.o X T.T.Y.K./.).:X-X*X+X3 a E / o % T.T.T.T.T.T.T.T.T.P.3.i.i.i.",
"o o o o o o o @ o o o o o o o @ D v l y y y y y & # @ o o o @ o o o o o @ @ # & - y y y y l v C @ o o o o o o @ . o o o o o o o ",
"              + + o . o o       C v y u - t t t % % @ o o               + + + & u j & - j j v N               @ X o   o o       ",
"y.i.i.i.y.i.i.y.o o ].P.3.i.i.i./ E a 3 5 b.n.e.& @ W.Y.4.t.i.i.i.i.i.u.u.p.w.q.h j H.G.0 a R ! i.y.y.y.i.i.i.y.@ o {.T.4.i.3.i.",
"i.i.i.i.i.i.i.y.o o ].L.4.i.i.i._ E a 0 8 b. XN.= % W.}.i.i.i.i.i.i.i.i.u.p.w.q.k j H.G.0 9 R E 4.i.i.i.i.i.i.y.o o {.P.3.i.i.i.",
"y.i.i.i.i.i.i.y.o o {.U.4.y.i.i._ E a s 5 r n.x.& % W.Y.4.i.i.i.i.y.i.y.u.a.w.r.y ; H.G.3 p R a y.i.y.i.i.i.i.y.o o {.T.4.y.i.i.",
"3.3.y.s.i.i.i.y.@ o ].].f.y.3.3.~ ! a s 5 V.n.x.= # W.'.s.t.3.t.t.t.y.s.u.p.w.r.j - H.Z.0 p R f y.3.t.s.i.i.i.y.o o {.T.f.y.t.3.",
"T.T.P.T.i.i.y.y.o o ].T.T.T.P.L.=X#.g $X8 d V.x.= # W.K.Y.T.T.P.T.T.T.Y.p.d.w.r.j - H.+X XX.O.~.U.P.T.T.i.i.i.y.o o {.P.T.T.T.P.",
"U.U.U.I.y.y.y.5.+ o K.U.U.U.U.U.Y.=.4XOX3 e  XB.# % Q.L.T.P.U.U.U.U.R.R.p.9.w.B.t & Z.+XOXoX..P.U.U.U.I.y.y.y.5.+ o K.U.U.U.U.U.",
"@ @ @ @ o o o + X o O @ o @ @ @ + D N z j l z t = % $ @ @ @ @ o @ @ @ @ % = & t ; & : ; j z v @ + @ @ @ o o @   X o $ o o @ @ @ ",
"o . o o o o o o o o o o o o o o @ G m z y l l ; & % @ @ @ o o o @ @ o @ @ % & - & - ; y k l M @ o o o o o o o @ o o o o o o o o ",
"o @ {.P.4.4.4.4.4.4.4.f.4.4.4.4.@ G %.1Xw e V.v.j.k.0.u.4.4.a.4.@ @ '.'.a.k.k.N.g.4 5 0 q Y U 4.o + {.].4.4.s.i.4.4.4.4.4.4.4.4.",
"o @ T.R.i.i.i.i.i.i.y.y.i.i.i.i.+ J #.3Xs f d c.h.q.0.u.8.i.i.i.@ @ Y.Y.d.w.m.m.g.6 5 0 p Y R i.o @ T.T.i.i.i.i.i.i.i.i.4.y.y.y.",
"o % T.T.i.i.i.i.i.i.i.i.i.i.i.i.o C *.5X} e d c.m.q.w.8.a.i.u.i.@ @ }.Y.d.M.m.6.g.6 5 9 p R z.i.o % U.T.i.i.i.i.i.i.i.y.i.i.i.i.",
"o @ T.T.i.i.i.i.i.y.i.i.i.i.i.i.o # *.5X[ e d n.c.q.q.8.a.u.u.i.o % }.}.w.M.r.e.g.5 8 9 p P i.i.o @ T.T.i.y.y.i.i.i.i.y.i.i.i.i.",
"o % T.L.T.T.T.T.T.T.T.U.3.i.i.i.o X 1.=.4XOX#X;XF.!.!.K.8.3.u.i.@ $ }.(./.,X!.F.S.+XOXoXi P i.i.@ X P.P.T.T.T.T.T.T.T.T.3.i.i.y.",
"@ X T.T.T.T.T.T.T.T.T.T.3.i.i.y.@ % 1.=.5X$X#X=XF.~.Q./.8.9.u.u.@ % }./.,X).!.D.S.Z.XXg i U i.i.o % T.T.T.T.T.U.T.T.P.U.4.i.i.i.",
"o o o o X o o @ o o o o o o o o o o z J F z j y y % & # % @ % # @ @ % % & # % - - y k k z # o o o o o o X o @ o o o o o o o o o ",
"              @   o o o o             J G N u y & % % & & + + + + # # # # # # # ; y j k b                     @ + o . o o       ",
"i.i.y.y.i.i.i.y.o o {.T.4.i.y.3.i.i.i.] &.@.w 8 ; - J.:Xk.k.w.d.w.w.M.q.7.g.4 5 y j X. .P i.i.i.i.i.y.y.i.i.i.y.o o {.T.4.i.3.y.",
"i.i.i.i.i.i.i.y.o o {.P.3.i.i.i.i.i.i.q.] ' s 2 j j J.>XN.M.k.k.r.M.q.q.6.z.4 5 j j X. .u.i.i.i.i.i.i.y.i.i.i.y.o o {.P.3.i.i.i.",
"i.i.y.y.i.i.i.y.o o {.T.i.i.i.i.i.i.i.y.L ! [ 9 j k 7X-Xn.N.m.m.M.r.q.g.g.4 5 3 j k  .o.3.i.i.i.i.i.y.y.i.i.i.y.o o {.P.4.y.i.i.",
"y.3.t.s.i.i.i.y.o o {.L.f.3.3.y.3.y.y.s.g.< 1 9 j l 6X=XC.n.v.x.e.6.g.z.4 5 3 9 k k  .!.s.3.y.3.y.3.t.s.i.i.i.y.@ o {.T.f.y.3.3.",
"P.T.U.T.i.i.i.y.o o {.P.T.P.T.T.T.T.P.T.y.> < Q b j 2X=X;X;XF.D.F.D.D.S.5 8 0 9 l z Q ].T.T.T.P.P.T.T.U.i.i.i.y.o o {.P.P.T.T.T.",
"U.U.U.I.y.y.y.5.+ o /.U.U.U.U.U.U.U.I.I.y.q.L ^ V m 1X#X&XH.D.D.S.S.S.A.3 9 , p l v Q.U.U.U.U.U.U.U.U.I.y.y.y.5.+ o (.U.U.U.U.U.",
"o @ @ @ o o @   X o O @ @ @ @ o @ + o @ o o z D H F M l j y y y - - ; j j j k z x b O @ o @ o @ @ @ o @ o o %   X o O @ @ @ @ o ",
"o o o o o o o o o o o o o o o o . @ o o o o o B K H C n l k j j j y j ; j k l z b o o o o o o o o o o o o o o o o o o o o o o . ",
". @ {.{.4.4.s.i.4.4.4.4.4.4.4.4.@ @ {.'.4.4.4.0.;.:.] Q T [ q q j y <XX.i L P I s.4.4.i.4.4.4.4.o + {.P.4.4.s.i.4.4.4.4.4.4.4.4.",
"o @ T.T.i.i.i.i.i.i.i.i.i.i.i.y.@ @ U.T.i.i.i.i.v.<.:._ W E T p z z ..} L L I q.i.i.i.i.y.y.i.i.o @ T.U.i.i.i.i.i.i.i.i.i.i.i.y.",
"o X T.T.i.y.i.i.i.i.y.y.i.i.i.i.o @ T.T.i.i.i.i.i.m.<.;./ U W P z m | o.P Z 8.3.i.i.i.i.i.i.i.i.o % U.T.i.i.i.i.i.i.y.y.i.i.i.i.",
"o @ T.T.i.y.i.i.i.i.i.y.i.i.i.i.@ X U.T.i.i.i.y.i.i.i.<.-.( / / V m ~ ! Z i.i.i.y.y.i.i.i.i.i.i.o @ T.T.i.y.y.i.i.i.i.y.i.i.i.i.",
"o % T.T.T.T.T.T.T.T.T.T.3.i.i.i.o % T.T.T.T.T.T.T.T.P.T.a.) ( A V V ~ Y.T.T.T.T.T.T.T.T.3.y.i.i.o X T.P.T.T.T.T.T.T.T.T.3.i.i.i.",
"o % T.T.T.T.T.T.T.U.T.P.4.i.i.i.@ @ T.T.T.T.T.T.T.P.T.T.4.y.u.4.o % T.T.T.T.T.T.T.T.T.U.4.i.i.y.@ % T.T.T.T.T.T.T.U.T.P.4.i.i.i."
};
