/* XPM */
static char *output_onlinepngtools__11_1708292994[] = {
/* columns rows colors chars-per-pixel */
"64 64 214 2 ",
"   c #02301D",
".  c #012F23",
"X  c #0B2D26",
"o  c #022F29",
"O  c #122F22",
"+  c #033323",
"@  c #02322B",
"#  c #043C2C",
"$  c #113327",
"%  c #043532",
"&  c #043B35",
"*  c #083C35",
"=  c #093538",
"-  c #043D3A",
";  c #093C3B",
":  c #4E3F3E",
">  c #5C3C35",
",  c #5C3F3B",
"<  c #6F372D",
"1  c #6E392E",
"2  c #7D3326",
"3  c #74362C",
"4  c #7A342A",
"5  c #73382D",
"6  c #78392C",
"7  c #653D34",
"8  c #6B3C33",
"9  c #613D39",
"0  c #693B38",
"q  c #753731",
"w  c #713B31",
"e  c #7E3B31",
"r  c #054234",
"t  c #05423D",
"y  c #06483A",
"u  c #11443D",
"i  c #54433D",
"p  c #5B433D",
"a  c #62423B",
"s  c #6B423A",
"d  c #694439",
"f  c #744236",
"g  c #75443A",
"h  c #7B443C",
"j  c #023F40",
"k  c #5D3E40",
"l  c #064443",
"z  c #0A4543",
"x  c #064A45",
"c  c #074649",
"v  c #064C4B",
"b  c #084B4C",
"n  c #07524C",
"m  c #074E51",
"M  c #075252",
"N  c #085452",
"B  c #075758",
"V  c #075C5D",
"C  c #095D5C",
"Z  c #3A5654",
"A  c #3B5A59",
"S  c #09605D",
"D  c #075F60",
"F  c #096362",
"G  c #086566",
"H  c #096D6D",
"J  c #096970",
"K  c #097171",
"L  c #3F6361",
"P  c #454444",
"I  c #4B4643",
"U  c #434947",
"Y  c #4D4A45",
"T  c #454D4B",
"R  c #4B4E49",
"E  c #564743",
"W  c #594643",
"Q  c #524A45",
"!  c #5C4943",
"~  c #554D49",
"^  c #5A4B4B",
"/  c #43514E",
"(  c #4C524E",
")  c #51514D",
"_  c #5D524A",
"`  c #524D51",
"'  c #4D5451",
"]  c #455857",
"[  c #4C5955",
"{  c #4A595A",
"}  c #555651",
"|  c #5C5652",
" . c #5A5B55",
".. c #555758",
"X. c #595E59",
"o. c #684541",
"O. c #624C45",
"+. c #6B4842",
"@. c #634D49",
"#. c #744A47",
"$. c #7D4B42",
"%. c #62514A",
"&. c #6C534D",
"*. c #77524A",
"=. c #625552",
"-. c #695853",
";. c #725E57",
":. c #55615D",
">. c #5B615B",
",. c #69605B",
"<. c #7A635B",
"1. c #4A6866",
"2. c #566662",
"3. c #516965",
"4. c #6C6964",
"5. c #776964",
"6. c #AB1D0C",
"7. c #AC1F13",
"8. c #B31C1C",
"9. c #852D1F",
"0. c #8A2E1D",
"q. c #9E2616",
"w. c #9D261A",
"e. c #942C1C",
"r. c #9B2818",
"t. c #9C2A1B",
"y. c #8C311F",
"u. c #92301E",
"i. c #A7200D",
"p. c #A8230D",
"a. c #A42514",
"s. c #AB2210",
"d. c #A32419",
"f. c #AA251B",
"g. c #A12918",
"h. c #B02319",
"j. c #852E25",
"k. c #8A2E22",
"l. c #952C23",
"z. c #9A2F20",
"x. c #962A2A",
"c. c #833224",
"v. c #8D3123",
"b. c #853529",
"n. c #8C352B",
"m. c #863C2E",
"M. c #8B3A2D",
"N. c #943324",
"B. c #983022",
"V. c #923429",
"C. c #90382A",
"Z. c #823D32",
"A. c #8A3E39",
"S. c #9D3D33",
"D. c #973D38",
"F. c #A53D2D",
"G. c #AD3C2E",
"H. c #B43B2D",
"J. c #BA3B2B",
"K. c #A53D35",
"L. c #B43A36",
"P. c #DC321F",
"I. c #EA2F18",
"U. c #EB2C1C",
"Y. c #F42D14",
"T. c #F32E1A",
"R. c #E4321E",
"E. c #ED311B",
"W. c #F03017",
"Q. c #FB3318",
"!. c #DF2E29",
"~. c #CB3524",
"^. c #CF3926",
"/. c #C53D2C",
"(. c #CC3C2B",
"). c #DB3523",
"_. c #D63728",
"`. c #D53A29",
"'. c #D43833",
"]. c #E42C21",
"[. c #EF2B25",
"{. c #E12E29",
"}. c #F02C26",
"|. c #E13421",
" X c #824135",
".X c #8F4137",
"XX c #83443C",
"oX c #8B433A",
"OX c #84493E",
"+X c #8C483D",
"@X c #964036",
"#X c #9C4134",
"$X c #93453A",
"%X c #9B453B",
"&X c #92493C",
"*X c #BA402D",
"=X c #A74639",
"-X c #BB4534",
";X c #BB4639",
":X c #B24A3B",
">X c #C9422E",
",X c #C34333",
"<X c #CA4230",
"1X c #C04A37",
"2X c #894A47",
"3X c #974A41",
"4X c #835149",
"5X c #835B53",
"6X c #A24E42",
"7X c #AE4A46",
"8X c #B14945",
"9X c #B64946",
"0X c #A35141",
"qX c #A85145",
/* pixels */
"o o o o X o o o o o o o o o o o X o o o o o o o o o o o o o o o o o @ @ o . o o @ o o o o o o o o o o o o o o o o o o o o o o o ",
"                    O o . o                   @ . o . o o                     @ X o . o o                     @ X . . o o       ",
"s.p.p.s.s.s.s.s.p.s.. o T.E.6.p.s.s.s.s.p.s.s.p.o o }.U.7.P Z Z Z A ( a.s.p.p.p.o o }.E.7.s.s.s.s.s.p.6.s.s.s.p.o o }.E.7.s.6.p.",
"s.s.s.s.s.s.s.s.p.s.. o W.T.7.p.s.s.s.p.s.s.s.p.o @ [.! P P P U T / Z ] 1.p.p.p.o o }.E.6.s.s.s.s.s.s.s.s.s.s.p.o @ }.U.6.s.s.s.",
"s.s.p.p.7.s.s.s.s.s.. o W.E.7.p.s.s.s.p.s.s.p.i.o % ^ @.k k : i I Y ( ( ] L a.i.o o }.E.7.s.s.p.s.s.p.p.s.s.s.p.o o }.E.7.p.s.s.",
"p.6.p.f.s.s.s.s.s.s.  o W.E.a.6.i.i.i.f.s.s.s.p.% m o.+.: : > > i i i ~ ~ ' { r.o o }.U.h.i.i.i.i.6.p.f.s.s.s.p.o o }.E.h.p.6.6.",
"U.E.E.E.s.s.s.s.s.s.+ o W.U.E.E.T.E.E.E.s.s.s.a.N b #.$.e XXA.A..XXXh $., W ) { @ @ }.U.E.E.E.U.R.T.E.E.s.s.s.p.o o }.U.U.E.E.E.",
"T.T.T.Y.p.p.p.p.p.p.X @ Q.T.T.T.T.T.T.Y.p.p.s.T n v +.A.oXD.D.S.S.@X@XD.9 W ~ ..G o P.T.T.T.T.Y.T.T.T.Y.p.p.p.8.+ o ).T.T.T.T.T.",
"@ @ @ @ o o o o o o O o % o o o @ + @ o o o N n b x z t - - - - & t - - j c m B G G X @ @ @ @ @ @ @ @ @ o o @   X o O o @ @ @ @ ",
"o o o o o o o o o o o o o o o o o o . o o % M c x l ; - - - - & & - - - - l m M D J @ o o X o o . o o o o o @ @ o o o o o o o . ",
"o + }.U.7.7.h.s.7.7.7.7.7.7.7.7.@ @ }.U.7.T Q W 9 0 3 3 4 j.j.j.& & L.K.4 w 0 O.| 2.1.a.7.7.s.h.o + }.[.7.7.h.s.7.7.7.7.7.7.7.7.",
"o @ }.E.s.s.s.s.s.s.s.s.s.s.s.s.@ @ E.E.c.R E > 7 3 3 2 j.j.k.v.t x ;X;X X6 w d @.X.3.z.s.s.p.s.o @ E.T.s.s.s.s.a.s.s.s.s.s.s.p.",
"o @ T.E.s.s.s.s.s.s.s.p.s.s.s.s.o @ W.E.( i p 7 < 3 2 j.v.N.N.N.- z ,X1X.Xh h f O.| :.1.s.s.s.s.o @ T.E.p.s.s.s.s.s.s.s.s.s.s.s.",
"o @ E.E.p.p.s.s.s.s.s.p.s.s.s.s.@ @ T.`.R i p 1 3 4 j.0.N.N.B.z.& ; <X<XM. Xh g 0 @.:.3.g.s.s.s.o @ E.E.p.p.s.s.s.s.s.p.s.s.s.s.",
"o % E.E.E.E.E.E.E.E.E.E.6.s.s.s.@ @ E.-.&.h oX#X#XH.J.,XB.B.z.g.& ; `.(.>X-X:X0X6X+X<.5.) p.s.s.o @ E.E.E.E.E.E.E.E.E.W.6.s.s.s.",
"o @ E.E.E.E.E.E.E.E.E.U.7.s.s.s.@ @ E.-.*.OX$X#XH.H./.>XB.g.g.a.@ & ).`.(.,X;X=X3X3X4X5.[ p.s.s.o % E.E.E.E.E.E.E.E.U.U.7.s.s.s.",
"o o o o o o o o o o o o o o o o o o t N v l t - * t t - % @ % @ @ @ @ & & & t t x x c B F @ o @ o o o o o o o o o o o o o o o o ",
"              @ @ o . o o           B n x y r r * l r & % + +   + + + + + # # y t x l l C x                   @ . o . o o       ",
"s.s.s.s.s.s.p.p.o o [.T.6.s.s.s.p.s.} ! a 8 3 2 l t '._.d.a.a.a.a.a.a.a.t.e.y.y.; l 3X$.E I s.s.s.s.s.s.s.s.p.p.X o }.E.7.s.p.7.",
"s.s.s.s.s.6.p.p.o @ [.E.7.6.s.s.s.s.( W 7 1 4 b.z t '._.d.a.a.a.a.a.a.a.q.e.0.0.- - %X+Xp Y s.s.s.s.s.s.s.s.s.p.@ o [.U.6.s.p.p.",
"s.p.s.p.s.s.s.p.o o }.E.7.s.p.p.s.s ) p 7 5 4 m.l - '.).a.a.a.s.p.s.a.a.q.r.0.9.; - D.$Xp ..c.s.s.s.p.s.s.s.s.p.o o }.E.7.s.s.s.",
"6.6.p.f.s.s.s.p.o o }.U.f.6.p.i.p.[ ~ O.8 5 2  Xl & _.|.d.i.i.i.p.p.i.f.q.r.r.9.- - K.$Xo.X.Q i.p.6.p.h.s.s.s.p.o o }.U.h.6.6.p.",
"E.E.U.W.s.s.s.p.@ o }.E.U.W.U.E.E.,.*.+X8 4  Xm.l & !.|.|.R.E.E.T.R.R.R.q.q.e.0.= - %X3XOX5.4.U.U.W.E.E.s.s.s.p.o o }.E.E.U.E.E.",
"T.T.Q.Y.p.p.p.8.+ o P.T.T.T.T.Y.Q.,.*.+X1 6  XC.r & ~.|.E.T.U.T.T.W.E.I.q.q.r.x.& - %X%X+X<.4.T.T.T.T.Y.p.p.p.8.+ o P.T.T.T.T.T.",
"@ @ @ @ o o o + X o O @ @ o @ @ @ S M v l x c y ; % $ @ @ @ @ @ @ @ @ @ o % % # = - u x x S K o + @ @ @ o o @   o o O @ @ @ @ + ",
"o o o o o o o o o o o o o o o o @ S M x - x x - & % @ @ o @ o o o o o o @ @ @ % - j l c x C K o o o o @ o o o @ o o o o o o o o ",
"@ @ [.U.7.7.s.s.7.7.7.7.7.7.7.h.v C 4X2Xq XXA.n.l.z.g.d.7.7.7.s.o @ [.R.7.w.w.l.v.b.e f s =.2.V.o + }.[.7.7.f.s.7.8.s.7.7.7.7.7.",
". @ U.E.s.p.f.s.s.s.s.s.s.s.p.s.C C 4X$Xw  Xm.v.l.t.d.a.a.s.s.s.o @ E.R.q.q.r.e.v.b.e f s _ :.#.o @ E.T.s.s.s.s.s.s.s.s.s.s.6.p.",
"o @ W.E.s.s.s.s.s.s.s.s.s.s.s.s.F C 4X&Xf  Xm.N.e.r.a.a.a.p.s.s.@ @ E.I.a.q.w.e.N.b.e g d %.:.-.o @ T.E.s.s.s.s.s.s.s.p.s.s.s.s.",
"X @ E.E.s.s.s.p.s.s.p.p.s.s.s.s.G C 4X&Xh  Xm.N.e.r.a.a.a.s.s.s.o @ E.R.a.a.r.e.k.b.m.g 8 _ X.>.o @ E.E.s.p.s.s.s.s.s.p.s.s.s.s.",
"@ % T.U.E.E.E.E.E.E.E.E.p.s.s.s.H C 4X&X0X:X-X/.`.).P.R.6.s.s.s.o @ E.R.R.P.).~./.-X:X0X8 %.X.2.X % E.U.E.E.E.E.E.E.E.E.6.s.s.s.",
"o @ U.E.E.E.E.E.[.E.E.E.6.s.s.s.H C 2X%X6X:X-X/.^.).P.R.s.s.s.s.o $ U.E.R.).).^./.-X:X6X8 O. .3.@ @ E.E.E.E.E.W.E.E.U.E.7.s.s.s.",
"o o o o o o o o o o o o o o o o K S n z b x t * % @ o o o o o @ o o o o o @ @ % * t x n t N S K o o o o o o o o o o o o o o o o ",
"              @ . o . o o       H S n y x y r r % @ @ o o         +     + + + & * t x v l n S H               @ X o . o o       ",
"s.s.p.s.p.p.s.p.o o }.E.7.6.s.s.3. .O.s g  Xb.y.& @ !.R.7.i.s.s.p.s.s.a.a.q.r.e.- z 9X0X8 O.) :.s.s.p.p.s.s.p.p.o o }.U.7.s.p.p.",
"s.s.s.s.p.7.p.p.o o }.U.7.s.s.s.2. .O.s g e b.y.& @ !.R.s.s.s.s.s.s.s.s.a.a.r.u.- l 8X3X8 O.|  .s.s.s.p.s.s.s.p.o o }.E.6.s.s.6.",
"s.s.s.p.s.s.s.p.o o }.T.p.p.s.s.2.>.%.s g m.b.y.% @ {.|.s.s.s.s.s.s.p.a.p.q.t.e.- l 8X=Xd O.) &.s.s.p.s.s.s.s.p.o o }.E.s.s.s.s.",
"6.6.p.h.s.s.s.p.o o }.E.h.i.6.p.>.:.%.s g e b.y.& % {.|.f.i.i.6.p.p.p.a.a.q.t.u.t l 7X%Xs ! } g p.6.p.f.s.s.s.p.o o }.E.h.6.6.p.",
"E.E.U.E.s.s.s.p.o o }.E.E.U.E.U.qX5.5X&Xf 6 b.v.% % {.R.R.U.E.U.T.R.E.R.g.a.t.y.t x 7X#X&X$.,.>XU.E.E.W.s.s.s.p.o o }.U.U.E.E.E.",
"T.T.T.Y.p.p.p.8.+ o ).T.T.T.T.T.|.5.5X&Xf 6 b.x.# @ ~.U.E.U.T.T.T.T.W.I.a.r.t.x.y x %X%X3X4X;.U.T.T.T.Y.p.p.p.8.+ o ).T.T.T.T.T.",
"@ @ @ @ o o o + X o O o @ @ @ @ # K C x c l - * = @ $ @ o o o @ o @ @ @ @ = = r j x u t x N S @ + @ @ @ o o @   X o O @ @ @ @ + ",
". o o o o o o o o o o o o o o o @ K F x x t - & % @ @ @ % o o o o @ o @ o % % - z x - l v N V @ o o o o o o o o o o o o o o o o ",
"o @ }.U.7.7.7.7.7.7.h.s.7.7.7.7.@ G 5.XX8 q b.j.k.w.w.7.7.7.7.7.o @ ].].g.z.z.C.A.Z.3 8 a ~ ..7.o + }.[.8.s.h.s.7.7.7.7.7.7.7.7.",
"@ @ W.E.s.s.p.s.s.s.p.s.s.s.s.s.@ B <.OX8 5 2 k.0.e.r.q.w.s.a.a.@ % R.R.g.t.N.C.m.4 q 8 a ) ..s.o @ E.E.s.s.s.s.a.s.h.6.p.7.p.p.",
"o % E.E.s.s.s.s.s.s.s.s.s.s.s.s.@ z <.h 8 3 2 c.k.e.r.q.a.s.a.s.o @ |.R.g.e.N.M.Z.2 5 d p ( m.s.o @ T.E.s.s.s.s.s.s.s.s.s.s.s.s.",
"o @ E.E.s.s.s.s.p.a.s.s.s.s.s.s.@ # -.$.7 8 6 c.v.0.r.r.a.a.a.s.@ @ |.|.g.B.C.M.b.4 5 a ! ) s.s.o @ E.E.p.p.s.p.s.s.s.p.s.s.s.s.",
"o @ E.U.E.E.E.E.E.E.E.E.6.s.s.s.o @ +.#.XX&X=X=X*X/.^.^.a.g.a.a.@ $ |.).`.<X,X;XG.#X$XOXE [ p.s.X % E.U.E.E.E.E.E.E.E.E.6.s.s.s.",
"o $ E.E.E.E.E.E.T.E.E.T.6.s.s.p.o @ @.;.XXoX=X=X*X/.^.).a.g.a.f.@ = |.).`.<X1XJ.G.%XoXOX~ [ p.p.@ @ E.E.E.E.E.E.E.E.W.U.7.s.s.s.",
"o o o o o o o o o o o o o o o o o o ; F B x x x t y * & @ @ % @ # @ @ * & t & & ; l l b N % o @ o o o o o o o @ . o o o o o o o ",
"              @ X . . o o             S S x y x x t & - % # + + + + # # r r # r ; j x m B                     @ X o . o o       ",
"s.p.s.s.s.s.s.p.@ o }.E.7.s.6.p.s.s.s.[ 2.=.d f b c ;X/.z.z.t.g.t.t.B.N.v.c.2 2 t l $.&.( p.s.s.p.s.p.s.s.s.s.p.@ o }.E.7.s.p.6.",
"s.s.s.s.s.s.s.p.o o }.U.6.s.s.s.s.s.s.e.3.>.%.d m b 9X1XV.N.N.B.B.B.N.v.y.c.2 3 l x #.&.a.s.s.s.s.s.s.s.s.s.s.p.o o }.U.6.s.p.s.",
"s.s.p.p.s.s.s.p.o o }.E.7.p.s.s.s.s.s.p.3.2. .d z b 8X9Xn.C.N.N.N.N.v.k.9.2 3 < l c &.=.6.s.s.s.s.s.p.p.s.s.s.p.o o [.E.7.p.s.s.",
"6.p.p.f.s.s.s.p.o o }.E.h.p.p.6.i.p.i.f. X3. .^ b l =X:XA.m.m.v.v.k.k.c.2 3 1 7 z b -.~.h.i.p.6.p.6.p.h.s.s.s.p.o @ [.T.h.p.p.6.",
"U.E.E.E.s.s.s.p.o o }.U.T.U.U.E.E.W.E.E.s.1...| M x D.F.H.L.H.J.H.H.H.G.3 < 8 > b m =.U.E.E.E.U.U.E.U.E.s.s.s.p.o o }.U.T.U.U.E.",
"T.T.T.Y.p.p.p.8.+ o ).T.W.T.T.T.T.T.T.Y.a.N.3...n v 2XK.G.G.G.H.H.H.G.F.1 1 a , v m ~.T.T.T.T.T.T.T.T.Y.p.p.p.8.+ o ).T.W.T.T.T.",
"@ @ @ @ o o @   X o $ o @ @ o @ @ + @ @ o o J F B m z j - - - - & - - j j z c x m m O @ @ @ @ o + @ @ @ o o @ + @ o O o @ @ @ o ",
". o o o o @ o o o o o o o o o o o @ o o o o o G V m v l l j - - - - j j l c c m M o o o . o o o o o @ @ o o o @ o o o o o o o o ",
"o + }.[.7.7.h.s.7.7.7.7.7.7.7.7.@ + }.[.7.7.7.w.{ ` W k , , 7 0 - - XXh , i Y T f.7.7.h.7.7.7.7.o + }.U.7.7.s.s.7.7.7.7.7.7.7.7.",
"o @ E.T.s.s.s.s.s.s.s.s.s.s.p.p.@ @ E.E.s.s.s.s.n.{ ' R Q E i i l c $.g : I U r.s.p.p.s.p.s.s.s.o @ [.T.s.s.s.s.s.s.s.s.s.s.s.p.",
"o @ T.E.s.s.s.s.p.s.s.p.s.s.s.s.o @ U.E.p.s.p.a.7.l.L ] ( R Y I c c +.O.P U a.s.s.s.s.s.s.s.s.s.o @ T.E.s.s.s.s.s.s.s.p.s.s.s.s.",
"o @ E.E.p.a.s.s.s.s.s.p.s.s.s.s.o $ T.E.s.s.s.p.7.7.a.L A ] T T m b O.! P p.s.s.p.p.s.s.s.s.s.s.o @ E.E.s.s.s.s.s.s.p.p.s.s.s.s.",
"o @ E.E.E.E.E.E.W.T.E.E.6.s.s.s.o @ E.E.E.E.E.W.E.E.W.E.d.] Z Z B V @.R.E.E.E.E.E.E.E.E.6.s.s.s.o o E.E.E.E.E.E.E.E.E.E.6.s.s.s.",
"o % E.E.E.E.E.E.E.E.E.U.7.s.s.s.@ % E.E.T.E.E.E.E.E.E.E.s.s.s.s.o o E.E.E.U.E.E.E.E.E.T.7.s.s.s.o % E.E.E.E.E.E.E.W.E.U.7.s.s.s."
};
