/* XPM */
static char *output_onlinepngtools__2_1708292992[] = {
/* columns rows colors chars-per-pixel */
"64 64 206 2 ",
"   c #02301D",
".  c #012F23",
"X  c #0B2D26",
"o  c #022F29",
"O  c #122F22",
"+  c #033323",
"@  c #033827",
"#  c #02322B",
"$  c #043A2B",
"%  c #12362A",
"&  c #043531",
"*  c #083531",
"=  c #043A34",
"-  c #083C35",
";  c #063D3A",
":  c #083B3B",
">  c #7D3626",
",  c #79372B",
"<  c #773B2E",
"1  c #7A3A2D",
"2  c #6F3E34",
"3  c #743D32",
"4  c #7A3C32",
"5  c #054333",
"6  c #06423C",
"7  c #09443D",
"8  c #08483C",
"9  c #51433F",
"0  c #5D463E",
"q  c #5C4A3E",
"w  c #674536",
"e  c #6D4235",
"r  c #63453B",
"t  c #6C4339",
"y  c #61493C",
"u  c #6A4A3E",
"i  c #724234",
"p  c #7B4336",
"a  c #74453A",
"s  c #7B443A",
"d  c #0A3E41",
"f  c #064541",
"g  c #094642",
"h  c #074A43",
"j  c #084B44",
"k  c #074D4B",
"l  c #094D4A",
"z  c #124C43",
"x  c #07514C",
"c  c #095549",
"v  c #09534D",
"b  c #0A4F50",
"n  c #075353",
"m  c #0A5351",
"M  c #0A5955",
"N  c #075C5A",
"B  c #095958",
"V  c #095E5D",
"C  c #125951",
"Z  c #0A6157",
"A  c #09625E",
"S  c #3D635B",
"D  c #085F62",
"F  c #096564",
"G  c #096A65",
"H  c #096669",
"J  c #096A6A",
"K  c #0B706F",
"L  c #0A6E72",
"P  c #0A7672",
"I  c #3D6A63",
"U  c #4D4A47",
"Y  c #5E4741",
"T  c #554C44",
"R  c #594B42",
"E  c #524B48",
"W  c #5A4D49",
"Q  c #4F5247",
"!  c #46574D",
"~  c #4C534A",
"^  c #515046",
"/  c #53544A",
"(  c #5C554B",
")  c #445A52",
"_  c #495E5E",
"`  c #565955",
"'  c #575956",
"]  c #5C5B55",
"[  c #654C43",
"{  c #674C45",
"}  c #794C47",
"|  c #645247",
" . c #635349",
".. c #6B554C",
"X. c #765147",
"o. c #7B5245",
"O. c #73524A",
"+. c #7D544D",
"@. c #62585B",
"#. c #775A54",
"$. c #7B5C5B",
"%. c #4A635C",
"&. c #5C6056",
"*. c #53635C",
"=. c #6C635C",
"-. c #766156",
";. c #476A67",
":. c #576965",
">. c #4A726C",
",. c #557169",
"<. c #5C7473",
"1. c #666C67",
"2. c #736563",
"3. c #786561",
"4. c #AB1D0C",
"5. c #AC1F13",
"6. c #B31C1C",
"7. c #8C2E1E",
"8. c #9E2717",
"9. c #952C1E",
"0. c #9C2B1C",
"q. c #93301D",
"w. c #A7200D",
"e. c #A8230D",
"r. c #A52514",
"t. c #AB2210",
"y. c #A12817",
"u. c #A3241A",
"i. c #AA261B",
"p. c #A12919",
"a. c #B02319",
"s. c #8B2E23",
"d. c #952F22",
"f. c #992D21",
"g. c #982D2D",
"h. c #833325",
"j. c #8C3325",
"k. c #83352A",
"l. c #8B362A",
"z. c #833B2D",
"x. c #893A2E",
"c. c #933223",
"v. c #933126",
"b. c #823D34",
"n. c #8A3B33",
"m. c #913432",
"M. c #B23E2E",
"N. c #BB3E2D",
"B. c #AA3F35",
"V. c #B73D36",
"C. c #DB311F",
"Z. c #EB2C1D",
"A. c #F42D14",
"S. c #F32E1A",
"D. c #EC3017",
"F. c #E4341E",
"G. c #ED311B",
"H. c #F03017",
"J. c #FB3318",
"K. c #CC3626",
"L. c #C63B27",
"P. c #CB3A26",
"I. c #C43C2B",
"U. c #CC3928",
"Y. c #D63725",
"T. c #DC3622",
"R. c #D33B24",
"E. c #D93924",
"W. c #D4342E",
"Q. c #DB332D",
"!. c #D23B29",
"~. c #E42D22",
"^. c #EF2B25",
"/. c #F02C26",
"(. c #E23421",
"). c #E1312B",
"_. c #824133",
"`. c #8C4D3E",
"'. c #9F4334",
"]. c #95463C",
"[. c #9D463C",
"{. c #944B3C",
"}. c #9A4A3A",
"|. c #BA412E",
" X c #A54334",
".X c #AD4334",
"XX c #A4443C",
"oX c #A14A3D",
"OX c #A94C39",
"+X c #B24332",
"@X c #BC4334",
"#X c #B24837",
"$X c #B2413D",
"%X c #C7412F",
"&X c #C84030",
"*X c #854E42",
"=X c #894C41",
"-X c #864D49",
";X c #984941",
":X c #855143",
">X c #8B5243",
",X c #86574C",
"<X c #865E58",
"1X c #B04441",
"2X c #846156",
"3X c #805F63",
/* pixels */
"o o o o X o o o o o o o o o o . o o o o o o o o o o o o # # o o o o # o # o o . # o o o o o o o o o o o o o o o o o o o o o o o ",
"                    X o . o                   # + o   o #                     # X o . o o                     # + o o o o       ",
"t.e.e.t.t.t.t.t.t.t.. o H.G.4.e.t.t.t.t.e.t.t.w.o o ^.Z.y.%.I S S S ~ t.t.t.e.w.o o /.G.5.t.t.t.t.e.4.t.t.t.e.e.o o /.H.5.t.4.e.",
"t.t.t.t.t.t.t.t.t.e.+ o H.S.5.t.t.t.t.t.t.t.t.e.o o ^.<.I %.%.%.) ) ) ) ) e.e.e.o o /.H.4.t.t.t.t.t.t.t.t.t.t.e.o o /.Z.4.t.t.t.",
"t.t.e.e.t.t.t.t.t.4.  o H.Z.t.t.t.t.t.t.t.r.w.4.o = <.1.;.` / / / / ~ ~ ! ) y.w.* o /.Z.5.t.t.e.t.t.e.t.t.t.t.e.o o /.G.5.e.t.t.",
"e.4.4.i.t.t.t.t.t.e.. o H.G.t.e.4.t.r.t.t.e.e.t.; L 1.2.` / ( ^ q q ^ ^ ^ ~ ! 8.o o ^.Z.t.e.w.w.w.4.4.i.t.t.t.e.o o /.Z.a.e.w.4.",
"Z.G.G.G.t.t.t.t.t.t.. o H.G.Z.G.G.S.G.H.t.t.5.8.H J 2.-.+.,X,X>X:X:X:Xo.R ^ Q ! o o /.G.Z.G.Z.G.G.G.G.G.t.t.t.e.o o /.Z.G.G.G.Z.",
"S.S.S.A.e.e.e.e.e.e.* o J.S.S.S.S.S.S.A.e.e.t.U J G -.,X>X;X}.{.}.{.{.`.q q ^ ^ M o T.S.S.S.S.A.S.S.S.A.e.e.e.6.+ o T.S.S.S.S.S.",
"# o # # o o # # o o O o & o o o # # . # o o k B H A C m k j h 8 8 h h j j l v c M m O # o # # # # # o # o o #   * o O o # # # o ",
". o o o o o o o o o o o o o o o o o o o o # k B F B v l g 8 6 6 8 8 6 8 h j l v v M # o o o o o o o o o o o # o o o o o o o . o ",
"o + /.^.6.5.t.t.6.t.5.5.5.5.5.5.o + /.Z.5.9 U ' [ 2 a s p b.l.l.- 7 V. X< 3 e r R T ~ 5.5.5.5.5.o + /.^.5.5.a.t.5.5.5.5.5.5.5.5.",
"o # G.G.t.5.t.t.t.t.t.t.t.t.t.t.# * G.H.s.U 0 2 r } s b.x.l.l.j.= : N.+Xz.< i e y R Q 9.t.t.t.t.o # G.G.t.t.t.t.4.e.t.t.t.t.t.e.",
"o * Z.G.t.t.t.t.t.t.t.e.t.t.t.t.o * Z.D.U ` [ r a 4 n.l.l.v.c.v.; - I.I.k.z.i i r q ^ ~ e.e.t.t.o * Z.G.t.t.t.e.t.t.t.e.t.t.t.t.",
"o # H.G.t.e.t.t.t.t.t.e.t.t.t.t.o * Z.R.` ] [ e < , k.j.d.d.f.0.= ; K.P.j.h.1 < e r q ^ r.t.t.t.o # H.D.t.t.t.t.t.t.e.e.t.t.t.t.",
"o # G.G.G.G.G.G.G.G.G.G.4.e.t.t.o # G.2.-.<X=X'..X@XI.I.9.0.0.0.& : W.K.L.|.+X X}.`.:X..T t.t.t.o # G.G.G.G.G.G.H.G.G.G.4.t.t.t.",
"o * G.G.G.G.G.H.G.G.G.Z.5.t.t.t.# * G.1.$.<X].B.M.N.I.U.0.8.y.y.$ = T.!.P.I.|..XoX{.`.X.~ e.t.t.o * G.G.G.G.G.G.G.G.G.Z.5.t.t.t.",
"o o o o o o o o o o o o o o o o o o c H A m h 6 6 = & & & $ # # # $ & & = $ & 6 7 h j v v & o o o o o o o o o o o o o o o o o o ",
"              + # o . o o           P F Z 8 8 f - = $ & # # + + + @ + @ $ $ $ 5 7 g h l n v                   + X o . o o       ",
"e.t.t.t.t.t.t.e.o o /.S.5.t.t.t.e.t.,.] | i a z.; ; W.Y.y.y.r.t.t.r.y.p.0.f.9.h.7 7 ;X*XR Q t.t.t.t.e.t.t.t.t.e.# o /.G.5.t.e.e.",
"5.e.t.t.t.t.e.e.o o ^.G.4.t.t.t.5.e.*.( [ i p 1 6 = W.T.r.r.t.r.r.r.r.y.0.f.q.7.7 7 [.`.0 E t.t.t.t.t.t.t.t.t.e.o o /.Z.4.t.e.5.",
"t.t.t.e.t.t.t.e.o # /.G.5.t.e.e.e...`  .u a _.z.6 = W.T.r.r.t.r.t.r.r.y.p.0.c.7.; 7 ;X{.y T s.t.t.5.e.e.e.t.t.e.o o ^.G.5.t.e.t.",
"w.4.e.a.t.t.t.e.o o /.Z.a.e.4.w.e.*.W  .a a _.z.7 & Q.T.u.r.w.w.w.w.r.i.y.0.c.7.= ; 1X{.r T T 4.e.4.w.a.t.t.t.e.o o ^.S.a.4.4.e.",
"G.G.S.G.e.5.t.e.# o /.G.Z.G.Z.G.G.=.+.>Xi p _.z.6 & Q.T.F.G.D.G.G.G.F.F.y.0.d.c.; ; XX].`.o...Z.Z.G.G.G.t.t.t.e.o o /.Z.G.G.G.Z.",
"S.S.S.A.e.e.e.6.  o C.S.S.S.S.S.S.O.:X`.i p _.m.5 & U.(.G.Z.Z.S.S.H.H.D.y.0.q.g.$ = ].}.`.} O.S.S.S.S.A.e.e.e.6.+ o T.S.S.S.S.S.",
"# # # o o o # # o o O o # + # # # B k k g k g 5 : & % # # # # # # # # # # & = 5 : = : h j v n o # # # # o o #   * o O # o # # + ",
"o o o o o o o o o o o o o o o o $ n k k 6 h f 6 ; & $ $ o o o o o o # # $ & = ; ; ; ; g j l n o . o o o o # o o o o o o o o o o ",
"o # ^.Z.6.t.t.t.5.5.5.5.5.5.5.5.6 n -X;X< b.x.m.f.f.u.u.i.5.t.t.o # ^.~.u.u.f.f.v.s.k.3 t y T d.o + /.^.5.5.a.t.5.5.5.5.5.5.5.5.",
"o # G.D.t.t.t.t.t.t.t.t.t.t.t.t.k n *X].1 _.x.j.d.0.8.r.r.t.t.t.o # G.F.y.8.0.d.l.s.> < e r R < o # S.G.t.t.t.t.5.e.5.e.t.5.e.e.",
"# # G.G.e.e.t.t.t.t.t.t.e.t.t.t.n n =X}., z.x.j.d.8.p.r.e.t.t.t.o * G.F.y.y.0.c.v.l.> < e r T t o * Z.G.t.t.t.t.t.t.t.t.t.t.t.t.",
"o * G.D.t.t.t.t.t.t.t.e.t.t.t.t.n b =X]., z.n.v.c.8.p.r.e.t.t.t.o * G.F.r.y.0.f.j.x.h., e r 0 0 o # H.G.e.e.t.t.t.t.e.t.t.t.t.t.",
"o * S.Z.H.G.G.G.G.G.G.G.4.t.t.t.n b =X]. X+X@X%X!.E.C.F.t.t.t.t.o # G.F.F.T.E.P.&X%XM. X2 r 0 E o * G.Z.G.G.G.G.G.G.G.G.4.t.t.t.",
"o # Z.G.G.G.G.G.Z.G.G.G.t.t.t.t.n b =X].B.+X@X&X!.E.T.F.r.t.t.t.o * G.G.(.T.E.!.I.@XM. X2 r q E o * G.G.G.G.G.G.G.G.H.Z.5.t.t.e.",
"o o o o o o o o o o o o o o o o n k j h 6 ; 8 6 = & # # # o o o o o o # # # & = 6 6 ; ; h k k n o o o o o o o o o o o o o o o o ",
"              # + o   o o       v c j 8 = ; 5 5 - & # o o             + + + @ 5 = f 6 ; g h j n               + X o . o o       ",
"t.t.t.t.e.e.t.e.o o /.Z.5.e.t.t.E R w e , h.l.j.- & ).F.5.w.t.t.4.t.t.t.r.y.8.q.; f B.B.2 r R T t.t.t.t.t.t.t.e.# o /.G.5.t.4.t.",
"t.t.t.t.t.t.t.e.o o /.Z.5.t.t.t.T R r e , > l.c.; $ Q.(.t.t.t.t.e.e.t.t.r.y.0.q.d f $XB.2 y R Y t.t.e.5.t.t.t.e.o + /.Z.4.t.t.t.",
"t.e.e.t.t.t.t.e.o o ^.Z.e.t.t.t.R Y 0 2 , h.k.j.; & ).(.t.t.t.t.t.t.e.e.r.y.0.q.; g $XB.2 [ T t t.t.e.t.t.t.t.e.o o /.G.5.t.e.t.",
"4.w.e.a.t.t.t.e.* o /.Z.a.w.4.w.0 R r 2 < h.j.j.; & ).(.i.w.5.4.w.e.e.i.r.y.0.q.f g 1X X2 r R 4 w.4.w.i.t.t.t.e.o o /.G.a.w.w.4.",
"G.G.S.G.t.t.e.e.o o /.Z.G.Z.G.Z. XX.*X{.i > h.j.; & ).(.(.G.D.Z.G.G.G.F.r.8.0.q.6 f 1XXX;X} X.I.G.Z.G.G.t.t.t.e.o o /.Z.Z.G.G.G.",
"S.S.S.A.e.e.e.6.+ + C.S.S.S.S.S.F.X.*X].< > j.g.5 = Y.(.G.G.S.S.S.H.D.D.y.8.q.g.5 h [. X].-XX.Z.S.S.S.A.e.e.e.6.+ o T.S.S.S.S.S.",
"# # # # o o o + X o O o o # # # # v k k g ; ; - : = % $ # # # # # # # # & * = $ d j z g k k B # # # # # o o #   X o O # # o # # ",
"o o o # o o o o o o o o o o o o o n v j h 7 = & ; ; & # # o o o # o # # # & = ; 6 j k f v m B o . o o # o o o o o o o o o o o o ",
"o # /.Z.5.5.5.5.5.5.5.a.5.5.5.5.o v } =Xi 4 k.s.d.f.0.u.u.5.5.5.o # ~.~.y.0.c.v.x._.s 2 [ W ` a.o + /.Z.5.5.t.a.5.5.5.5.5.5.5.5.",
". # Z.D.t.t.t.t.t.t.e.e.t.t.t.t.o m X.:Xe < k.s.c.f.f.p.y.t.r.t.# * F.F.p.8.q.c.n._.a t | W *.t.o # ^.G.t.t.t.t.t.t.t.t.t.t.t.e.",
"o * G.G.t.t.t.t.t.t.t.t.t.t.t.t.# l ..`.w 3 1 j.7.d.0.0.y.r.r.t.# # F.C.y.0.c.l.z.p a u  .` _.e.o * Z.G.t.t.t.t.t.t.e.e.t.t.t.t.",
"o * G.G.t.t.t.t.e.e.t.t.t.t.t.t.# # O.o.w 3 1 h.7.d.f.8.y.r.t.t.o * F.F.8.9.q.l.z.s i [ ( *.t.t.o # H.G.t.t.t.e.t.t.t.e.t.t.t.t.",
"o # G.Z.G.G.D.F.G.G.G.G.4.t.t.t.o # ..o.`.{.oX+XN.P.!.E.r.y.r.r.# * F.T.R.P.I.|.#XoX{.<X&.>.t.t.o # G.G.G.G.G.G.H.G.G.G.4.t.t.t.",
"o * G.G.G.G.G.H.G.G.G.S.5.t.t.t.+ #  .O.`.].oX.XN.I.U.!.u.y.y.r.# * C.T.E.P.I.|.#XoX;X2X&.>.t.t.o * G.G.G.G.G.G.G.G.G.Z.5.t.t.t.",
"o . o o o o o o o o o o o o o o o o ; v v j h 7 6 - & = = & o $ # $ $ & $ ; = ; 8 g n D J = o o o o o o o o o o o o # o o o o o ",
"              # + o . o o             v c j 8 8 5 5 & & = @ # + + + # @ $ $ $ ; 6 g N D L                     # + o o o o       ",
"t.t.4.e.t.t.t.e.o o /.G.5.t.4.e.t.t.e.~ R q w i g ; V.K.0.0.0.8.8.0.0.9.j.j.h., d k 3X$.*.e.t.t.t.t.e.4.t.t.e.e.o o ^.Z.5.t.4.e.",
"t.t.t.t.t.t.t.e.o o /.Z.4.t.t.t.t.t.t.0.Q q r e g 6 V.I.9.9.f.0.f.f.d.c.v.k.z.< k v 3.$.r.t.t.t.t.t.t.t.t.t.t.e.X o ^.G.4.t.t.e.",
"t.t.t.t.t.t.t.e.o o /.G.5.e.t.t.e.t.t.e.~ R q w j 7 V.M.s.d.9.d.c.c.c.v.l.z.4 e k B #.{ 5.e.t.t.t.t.e.t.t.t.t.e.# o /.Z.5.e.5.e.",
"e.4.e.a.e.t.t.e.o o /.G.a.e.e.4.w.w.e.a.h.^ R q l h XX+Xl.h.j.7.j.j.x.n.b.a X.r k k } U.i.4.4.w.4.e.e.a.t.t.t.e.o o /.G.a.e.e.4.",
"Z.H.G.G.t.t.t.e.# o /.H.G.Z.Z.G.G.G.G.G.r.~ T q l j ;X X.X+X|.|.N.@X#XOXs a 2 [ D f { ^.G.G.G.Z.G.Z.G.G.t.t.t.e.o o ^.Z.S.G.Z.G.",
"S.S.S.A.e.e.e.6.+ o C.S.S.S.S.S.S.S.S.A.e.7.~ W c j `.XX X.X+X+X+X#X.XOXa {  .@.B k K.Z.S.S.S.S.S.S.S.A.e.e.e.6.+ o T.S.S.S.S.S.",
"# # # # o o #   o o O o # # # o # # . # o o M v m v z j j h 8 h g h h l v B V G B k O o o o # # # # # # o o #   X o O # # # # o ",
". o o o o o # # o o o o o o o . o o o o o o o M M v v v j j j j j j v v M A G G b o o o o o o o . o o o o o o o o o o o o o o o ",
"o # /.^.5.5.t.t.6.5.5.5.5.5.5.5.o + /.Z.5.5.5.0.~ ~ ^ R [ y u r x c ,X+.' _ :._ u.5.t.t.5.5.5.5.o + /.^.5.5.i.t.5.5.5.5.5.5.5.5.",
"o # G.G.t.t.t.t.t.t.t.t.t.t.t.e.# * G.D.t.t.t.t.j.! ~ ^ ^ T R R v B #.-.` :.;.9.t.t.t.t.t.t.t.t.o # G.G.t.t.t.t.t.t.t.t.t.t.e.e.",
"o * Z.D.t.t.t.t.e.t.t.t.t.t.t.t.o * Z.G.t.t.t.t.e.9.) ! ~ ~ ~ / M V =.=.;.>.8.t.t.t.t.t.t.t.t.t.o * Z.G.t.e.t.t.t.t.t.t.t.t.t.t.",
"o # G.H.t.t.t.t.t.t.t.t.t.t.t.t.o * Z.H.t.t.t.e.t.t.t.) ) ! ) ) A G :.<.;.t.t.t.t.e.t.t.t.t.t.t.o # G.H.t.t.t.t.t.t.t.e.t.t.t.t.",
"o * G.G.G.G.G.G.G.G.G.G.4.t.t.t.o # G.G.G.G.G.G.G.G.D.F.8.) S %.G K ,.(.G.G.G.G.G.D.G.G.4.t.e.t.o * G.Z.G.G.G.G.G.G.G.D.4.t.t.t.",
"o * G.G.G.G.G.G.G.G.Z.G.4.t.t.t.o * G.G.H.G.G.G.G.G.G.G.5.e.e.e.o * G.G.G.G.G.G.G.G.G.S.5.t.4.e.o * G.G.G.G.G.G.G.H.G.Z.5.t.t.t."
};
