/* XPM */
static char *output_onlinepngtools__3_1708292992[] = {
/* columns rows colors chars-per-pixel */
"64 64 215 2 ",
"   c #02301D",
".  c #012F23",
"X  c #0B2D26",
"o  c #022F29",
"O  c #122F22",
"+  c #033323",
"@  c #02322B",
"#  c #043A2B",
"$  c #12372B",
"%  c #042F30",
"&  c #043531",
"*  c #043A34",
"=  c #083C35",
"-  c #093638",
";  c #063D3B",
":  c #083C3C",
">  c #5E3D37",
",  c #7A3729",
"<  c #79362B",
"1  c #763A2D",
"2  c #7B3B2D",
"3  c #6E3E34",
"4  c #623F3A",
"5  c #763730",
"6  c #733E32",
"7  c #7A3D31",
"8  c #05412E",
"9  c #044333",
"0  c #06433C",
"q  c #08433E",
"w  c #08473C",
"e  c #124138",
"r  c #4E463F",
"t  c #54423D",
"y  c #5B423C",
"u  c #58493E",
"i  c #78402F",
"p  c #634036",
"a  c #6C4236",
"s  c #634239",
"d  c #6B453A",
"f  c #64493D",
"g  c #6B4A3B",
"h  c #724234",
"j  c #774439",
"k  c #064642",
"l  c #084743",
"z  c #074A44",
"x  c #084B44",
"c  c #074C4B",
"v  c #094D4A",
"b  c #07514B",
"n  c #09564B",
"m  c #09524D",
"M  c #075551",
"N  c #095652",
"B  c #095A53",
"V  c #0A5D59",
"C  c #09625E",
"Z  c #0B6662",
"A  c #0A6864",
"S  c #0B6D6A",
"D  c #0B736E",
"F  c #0B7270",
"G  c #0C7B79",
"H  c #3D6E69",
"J  c #3F736D",
"K  c #4C4542",
"L  c #474D47",
"P  c #4C4C46",
"I  c #534642",
"U  c #5A4243",
"Y  c #534C44",
"T  c #5B4B42",
"R  c #44544D",
"E  c #4B544C",
"W  c #555045",
"Q  c #595046",
"!  c #54524B",
"~  c #5A5449",
"^  c #425B54",
"/  c #465B56",
"(  c #4F5A53",
")  c #575A52",
"_  c #525C53",
"`  c #634941",
"'  c #6D4D42",
"]  c #6C4F48",
"[  c #7C4740",
"{  c #754B43",
"}  c #7A4841",
"|  c #6B574B",
" . c #65594E",
".. c #69584C",
"X. c #7D5244",
"o. c #735249",
"O. c #7B5348",
"+. c #695952",
"@. c #715E59",
"#. c #46635B",
"$. c #59645B",
"%. c #646158",
"&. c #78675C",
"*. c #486A62",
"=. c #546B63",
"-. c #596862",
";. c #47756D",
":. c #4D746C",
">. c #53736D",
",. c #477973",
"<. c #587B72",
"1. c #676A65",
"2. c #786C64",
"3. c #6B7269",
"4. c #727467",
"5. c #647C73",
"6. c #697A77",
"7. c #AB1D0C",
"8. c #AC1F13",
"9. c #B31C1C",
"0. c #8B2C1E",
"q. c #9B2717",
"w. c #942D1D",
"e. c #9C2C1C",
"r. c #8D311F",
"t. c #94311F",
"y. c #A7200D",
"u. c #A8230D",
"i. c #A52514",
"p. c #AB2210",
"a. c #A12817",
"s. c #A4251A",
"d. c #AA261B",
"f. c #A12919",
"g. c #B02319",
"h. c #8B2E24",
"j. c #892F26",
"k. c #942E22",
"l. c #9B2C22",
"z. c #982C2B",
"x. c #833326",
"c. c #8A3224",
"v. c #833529",
"b. c #8A332A",
"n. c #833A2C",
"m. c #8B3A2B",
"M. c #933223",
"N. c #923129",
"B. c #942F31",
"V. c #833E32",
"C. c #8A3F31",
"Z. c #AA3F2F",
"A. c #B33D2E",
"S. c #BD3C2B",
"D. c #AA3F33",
"F. c #A83F37",
"G. c #B43935",
"H. c #B73935",
"J. c #DB311F",
"K. c #ED2F17",
"L. c #EB2C1D",
"P. c #F42D14",
"I. c #F32E1A",
"U. c #E4341E",
"Y. c #ED311B",
"T. c #F03017",
"R. c #FB3318",
"E. c #CC3626",
"W. c #C63A27",
"Q. c #CB3926",
"!. c #C53C2B",
"~. c #CA3C2B",
"^. c #D53725",
"/. c #DD3522",
"(. c #D53A25",
"). c #DA3924",
"_. c #D7342F",
"`. c #DC332D",
"'. c #E42D22",
"]. c #EF2B25",
"[. c #F02C26",
"{. c #E33420",
"}. c #E83320",
"|. c #E1322B",
" X c #84473E",
".X c #8C4C3E",
"XX c #964737",
"oX c #9D4436",
"OX c #94463B",
"+X c #9E453D",
"@X c #954B3C",
"#X c #9C4A3B",
"$X c #B2412F",
"%X c #BB412F",
"&X c #A44334",
"*X c #AD4434",
"=X c #A3443B",
"-X c #A94A39",
";X c #B34333",
":X c #BA4433",
">X c #B54938",
",X c #CB412C",
"<X c #C94333",
"1X c #804544",
"2X c #854D42",
"3X c #884C41",
"4X c #984A41",
"5X c #855144",
"6X c #88584B",
"7X c #965345",
"8X c #885E56",
"9X c #846258",
"0X c #3D827C",
"qX c #5D8178",
"wX c #0C8784",
/* pixels */
"o o o o X o o o o o o o o o o o o o o o o o o o o o o o + @ o o o o @ o o o o o o o o o o o o o o o o o o o o o o o o o o o o o ",
"                    X o   o       .           @ X + . o o                     + X o + o o                     + + o o @ o       ",
"p.u.u.p.p.p.p.p.u.p.. o T.Y.7.u.p.p.p.p.u.p.p.u.o o ].L.i.;.0X0XJ J ( i.p.p.p.u.o o [.Y.8.u.u.p.p.p.u.7.p.p.u.u.o o ].L.8.p.u.p.",
"p.p.p.p.p.p.p.p.p.p.+ o T.L.8.p.p.p.p.p.u.p.p.u.o + [._ J ,.;.*.#.#.^ ^ R p.u.u.o o [.Y.7.8.p.p.p.p.p.p.p.p.p.u.o o [.I.7.p.p.p.",
"p.p.u.u.p.p.p.p.p.p.. o T.Y.8.u.p.p.p.p.p.p.u.y.% & _ 1.:.:.$.$._ ( E E E R i.p.o o [.Y.p.p.p.p.p.p.u.p.p.p.p.u.o o [.Y.8.u.p.p.",
"u.7.7.d.p.p.p.p.p.u.. o T.Y.p.7.7.u.u.p.p.p.p.y.: B +.4.=.$.$.~ ~ W W W P P L q.o o [.L.d.i.7.7.7.7.7.d.p.p.p.u.o o [.L.g.7.y.y.",
"L.Y.Y.Y.p.p.p.p.p.p.+ o Y.Y.Y.Y.Y.Y.Y.Y.p.u.p.i.B n @.2.&.9X8X6X6X5X5XX.T Y P L @ @ ].L.L.L.L.Y.Y.Y.Y.Y.p.p.p.u.o o [.L.Y.Y.L.Y.",
"I.I.I.P.u.u.u.u.u.u.X o R.I.I.I.I.I.I.P.u.u.i.E B m &.9X8X7X7X#X#X@X@X.Xf u u I v @ J.I.I.I.I.I.I.I.I.P.u.u.u.9.+ @ /.I.I.I.I.I.",
"@ o + @ o o o o o o O o % @ o + + @ @ @ o o B B B n V V B b v k z k k v v v v x c c O o o @ @ + @ + @ @ o o @   X o O @ @ @ o + ",
"o o o o o o o o o o o o o o o o o o o o o * F F S C v x w k w k w w w w l l l v c c o o o o o o o o o o o o + o o o o o o o o o ",
"o + [.].9.p.g.8.9.8.8.8.8.8.8.8.o + [.I.8.,.>.-.@.' j j j C.m.b.; ; G.*X5 7 3 > > t K 8.8.8.8.p.o + ].'.9.8.g.8.8.8.8.8.8.8.8.8.",
"o @ Y.Y.p.p.p.p.u.p.p.p.p.p.p.p.@ % Y.Y.C.:.-.@...h i V.n.C.m.c.* ; S.S.< 1 6 3 y I > w.p.p.p.p.o @ Y.Y.p.p.p.p.p.p.p.p.p.p.p.p.",
"o % Y.Y.p.p.u.p.p.p.p.u.p.p.p.p.o @ Y.Y.:.$.%...g 7 n.n.b.c.M.M.& * E.W.h.< , 1 4 s t t u.p.p.p.o % Y.Y.u.p.p.p.p.p.p.u.p.p.p.p.",
"o @ Y.Y.u.u.p.p.p.p.p.u.p.p.p.p.o $ L.,X=.$. .o.7 7 m.c.k.k.e.l.& ; E.Q.0.0., , 3 4 y I i.p.p.u.o @ Y.Y.u.u.p.p.p.p.p.u.p.p.p.p.",
"o $ Y.Y.Y.Y.Y.Y.Y.Y.Y.Y.7.p.p.p.o % Y.3.&.&.6X7X-X>X%XW.q.e.e.e.& : ^.E.W.S.A.*X&X.X X{ I p.p.p.o @ Y.L.Y.Y.Y.Y.Y.Y.Y.Y.7.p.p.p.",
"o % Y.Y.Y.Y.Y.Y.Y.Y.Y.L.8.p.p.p.@ % Y.%.&.6X7X-X-X:X!.E.q.a.a.a.@ * ).^.E.W.S.A.&XXX Xj Y p.p.p.o $ Y.Y.Y.Y.Y.Y.Y.Y.Y.L.8.p.p.p.",
"o o o o o o o o @ o o o o o o o o o k C B n v w k ; * @ @ & @ @ @ # # * @ & * ; ; l l l v @ o @ o o o o X o o o o o o o o o o o ",
"              + X o . o o           C B n x w w k ; & & % +   + + + + # # # # 9 = w l v v B                   + + o o o o       ",
"u.p.p.p.p.u.p.y.o o [.L.8.p.p.p.u.p.( ~ f d i n.k * _.^.q.i.i.i.i.i.a.f.e.w.r.r.q q OX3XT E p.p.p.p.p.p.p.p.p.u.o o [.Y.8.u.u.8.",
"p.p.p.p.p.p.p.y.o @ ].Y.7.p.p.p.p.p.! T g h i n.; * _./.i.i.i.p.p.i.i.f.e.w.t.c.; q +X.Xu Y p.p.p.p.p.p.8.p.p.u.o o [.L.7.8.u.u.",
"p.p.p.u.p.p.p.u.o o [.Y.p.p.p.p.u.g ~ Q d h 2 v.; ; _./.i.i.i.y.p.p.i.f.e.e.t.r.; q +X3Xs I b.u.p.p.u.u.p.p.p.u.o o [.Y.8.p.p.u.",
"y.7.u.g.p.p.p.u.o o [.I.d.y.y.7.y.! W f d 2 v.b.; * _./.d.i.y.y.i.y.i.f.f.e.t.r.: w =XOXf y u y.y.7.u.d.u.p.p.u.o o [.Y.g.7.7.u.",
"Y.Y.Y.Y.p.p.p.u.@ @ [.Y.L.L.L.Y.Y.| O..Xa 2 x.c.; * `.{.U.U.Y.Y.Y.Y.U.}.f.t.w.t.; 0 =XOX2X1X] L.Y.L.Y.Y.p.p.p.u.o o [.L.Y.L.Y.Y.",
"I.I.I.P.u.u.u.9.  o J.I.I.I.I.I.I.o. X.Xh i x.B.9 * Q.U.L.L.L.I.I.Y.Y.Y.i.e.t.z.8 ; oX=X.Xj { I.I.I.I.P.u.u.u.9.+ o /.I.I.I.I.I.",
"@ + @ o o o % + o o O o @ @ @ + @ M c v l : ; 9 : * $ @ @ @ @ @ + @ @ @ & * ; # : = e k x k c o + @ + @ % o @   X o O @ + o @ + ",
"o o o o o o o o o o o o o o o o @ M v x k ; * ; ; & @ @ @ o o o o o @ @ @ * * * * ; ; w x k k o o o o o o + o o o o @ o o o o o ",
"+ + ].'.9.p.p.p.8.8.8.8.8.8.8.p.k c 2X4X6 v.h.b.z.l.e.s.s.8.8.p.o + [.'.s.f.l.z.h.b.v.5 4 4 > k.o + [.].8.8.g.8.9.8.8.8.8.8.8.8.",
"o % Y.Y.p.p.p.p.p.p.p.p.p.p.p.p.c m 2X@X1 x.c.M.M.e.f.i.i.p.p.p.o @ }.U.a.f.e.t.k.c.< < 6 4 I < o & L.Y.p.p.p.p.p.p.p.p.p.p.p.p.",
"o % Y.Y.p.p.p.u.p.p.p.p.p.p.p.p.c c 3XOX< x.c.N.t.e.f.i.i.u.p.p.@ $ Y.U.i.f.M.M.r.c.< < 3 s y 3 o % Y.Y.p.p.p.p.p.p.p.u.p.p.p.p.",
"X % Y.Y.p.p.p.p.p.p.p.p.p.p.p.p.c m 3X#X< x.c.c.M.f.f.a.p.u.p.p.o & Y.Y.i.f.e.l.r.c.x.< 3 p y y o o Y.Y.u.u.p.u.p.p.p.u.p.p.p.p.",
"@ % Y.I.Y.Y.Y.Y.Y.Y.Y.Y.u.p.p.p.c c 3XOX&XA.S.,X,X).{.{.u.p.p.p.o @ Y.U.{.{.).,X,XS.A.&X3 p y t o $ Y.L.Y.Y.Y.Y.Y.Y.Y.Y.7.p.p.p.",
"+ @ Y.Y.Y.Y.Y.Y.Y.L.Y.Y.7.p.p.p.c c 3X4XD.A.!.!.(.).{.{.p.p.p.p.@ @ Y.U.{.{.).,X~.S.A.&X3 p y I o % Y.Y.Y.Y.Y.Y.Y.Y.Y.L.8.p.p.p.",
"o o o o o o o + o o o o o o o o v v x l ; ; * * * # & @ o o o o o o o @ @ @ * 9 ; * ; ; l v v v @ o o o o o o o o o o o o o o o ",
"              @ + o o o o       x x w w = 9 # 9 = * @ o o             +   + + 0 * * * ; l w x v               + X o o o o       ",
"u.p.p.p.u.p.p.u.o o [.L.8.u.p.p.I y s 3 < x.c.r.; * |.}.8.p.8.u.p.p.p.i.i.i.e.M.; * G.F.a s u I p.p.u.p.p.p.p.u.@ o [.Y.8.p.u.7.",
"u.p.p.p.p.p.p.u.o o [.L.8.u.p.p.t y p 1 < , c.r.; & |.{.8.p.u.u.p.p.p.p.i.a.e.t.; * G.&Xa s u s p.p.p.p.p.u.p.u.o o [.L.7.p.p.p.",
"p.p.p.p.p.p.p.u.X o [.Y.p.p.p.p.y y p 3 , x.c.r.; * `.U.i.8.p.a.p.u.p.u.i.f.e.t.; ; G.&Xa s Y 3 p.p.u.u.p.p.p.u.o o [.Y.p.p.p.p.",
"7.7.7.d.p.p.p.u.o o [.Y.g.7.7.y.y y p 3 , , c.r.; & `.}.d.u.7.7.y.u.u.d.i.e.e.t.; * G.oXj s I < y.7.7.d.p.p.p.u.o o [.Y.g.7.y.y.",
"Y.Y.Y.Y.p.p.u.y.o o [.L.Y.Y.Y.L.D.}  X@X1 v.c.c.; * |.{.}.Y.Y.L.Y.Y.Y.U.f.f.t.t.; ; G.#X.X2Xo.!.Y.Y.Y.Y.p.p.p.u.o o [.L.Y.L.Y.Y.",
"I.I.I.P.u.u.u.9.+ o /.I.I.I.I.I.}.j  XXX1 , x.B.# * E.}.Y.Y.I.I.I.L.T.K.a.f.e.z.9 * &XoX@X2Xo.L.I.I.I.P.u.u.u.9.+ o /.I.I.I.I.I.",
"+ @ + o o o o + X o O o @ + @ o @ x c k k 0 : 8 * * $ * @ @ @ @ @ @ @ @ & & - * : * q w l b N @ + o @ @ o o @   X o O + o @ + o ",
"o o o o o o o o o o o o o o o o o c k v k : ; = * = & @ @ @ o o + o @ @ o & * ; ; = w l v N N o o o o + o @ o o o o o o o o o o ",
"o + [.'.8.8.8.8.9.p.8.d.8.8.8.8.o x [ 3X6 < v.b.k.l.l.f.i.p.p.8.+ @ ].J.a.l.z.N.b.v.7 j s T ! p.o + [.].8.8.p.g.8.9.8.8.8.8.8.8.",
"o @ Y.Y.p.p.p.p.p.u.u.p.p.p.p.p.o M [ 2Xa 2 2 b.M.M.e.f.a.i.p.i.o % U.{.a.e.t.M.b.< 6 a ` Q ! p.o & L.Y.p.p.p.p.p.p.i.u.p.p.p.p.",
"o $ Y.Y.p.p.p.p.p.p.p.u.p.p.p.p.@ x o. Xd 1 2 b.r.w.t.f.a.d.i.p.@ % U.U.q.e.k.c.b.2 h d f ~ b.p.o % Y.Y.p.p.p.p.p.p.p.p.p.p.p.p.",
"o @ Y.Y.p.p.p.p.p.y.p.p.p.p.p.p.+ @ o.X.s h < n.c.t.e.e.f.i.i.p.@ & U./.q.e.N.m.n.7 a f Q E p.p.o o Y.Y.u.u.p.p.p.p.u.u.p.p.p.p.",
"o & Y.].Y.Y.Y.Y.Y.I.Y.Y.7.p.p.p.o @ ..X..XXX&X$XS.W.Q.).i.f.i.i.@ & {.J.(.(.!.<X;X=X@X5XQ _ u.p.o $ Y.L.Y.Y.Y.Y.Y.Y.Y.Y.7.p.p.p.",
"o @ Y.Y.Y.Y.Y.Y.Y.Y.Y.Y.8.p.p.p.o &  .{ 5X@X&X$X%X~.Q.(.q.f.f.i.@ $ {./.^.Q.!.>X-X=X7X6X~ #.u.p.@ % Y.Y.Y.Y.Y.Y.Y.Y.Y.L.8.p.p.p.",
"o o o o o o o o o o o o o o o o o o q v l x q ; ; * * @ & & @ @ @ @ & @ & * 0 z k x m M C * o o o o o o o o o o o o o o o o o o ",
"              @ X o . o o             v w x 9 9 = * * & & @ @ + + # + + # 8 9 w l M M V A                     + + o o o o       ",
"p.p.u.p.p.u.p.u.@ o [.K.7.p.u.u.p.p.p.P t 4 a 1 : * S.E.q.e.e.f.f.e.q.w.0.b.v.i c B 8X2.=.8.p.p.p.p.u.u.p.p.p.u.o o [.Y.8.p.7.p.",
"u.p.p.p.p.p.p.u.@ o [.L.8.p.u.8.p.p.p.w.t y 4 3 : * H.!.w.w.e.e.e.t.w.t.c.n. Xh B V 2.3.i.u.p.p.p.p.p.p.p.p.p.u.o o [.L.7.p.p.p.",
"p.p.u.u.p.p.p.u.o o [.L.8.u.p.p.u.u.p.p.K t p p k ; G.S.0.w.w.w.M.M.M.m.n.n.i g C Z 2.6.7.p.p.p.p.p.u.p.u.p.p.u.o o [.L.8.u.u.8.",
"u.7.u.g.p.p.p.u.@ o [.Y.g.7.7.u.7.u.u.p.x.t y 4 v k *XG.h.0.0.0.c.m.n.C.n.i h ..A F 6.<Xg.y.y.y.7.7.7.d.p.p.p.u.@ o [.Y.g.u.y.7.",
"L.Y.L.Y.p.p.p.u.o o [.L.Y.Y.Y.L.L.Y.Y.Y.u.K t y k l 4X&XD.;XG.%X:X:X>X-Xj h ' %.D G 6.'.Y.Y.Y.L.Y.Y.Y.Y.p.p.p.u.o o [.Y.Y.L.Y.Y.",
"I.I.I.P.u.u.u.9.+ o /.I.I.I.I.I.I.I.I.P.u.w.K U l l 3X=X&X*X;X;X;X*X>X-Xa g  .1.D F E.I.I.I.I.I.I.I.I.P.u.u.u.9.+ o J.I.I.I.I.I.",
"+ @ @ @ o o @   X o O @ @ + o @ @ + o @ o o c c v v x v z z k k z x b B B V N B V N O o @ @ @ o @ o + @ o o @   X o O @ @ + o @ ",
"o o o o o o o o o o o o o o o o o o o o o o % c v b v l x x x x b n B V Z Z n B N o o o o o o o o o o o o o o o o o o o o o o o ",
"o + [.L.8.9.g.p.8.8.8.8.8.8.8.8.o + [.L.8.8.8.q.P Y Y T T ` ` ' N B 9X&.$.) P R d.8.p.p.8.8.8.8.o + [.].8.8.p.g.8.9.p.8.8.8.8.8.",
"o & Y.Y.u.p.p.p.p.p.p.p.p.p.p.p.@ $ Y.Y.p.p.p.p.h.L E W W Q ~ ~ V Z 2.4.=.E R e.p.p.p.p.u.p.p.p.o @ Y.Y.p.p.p.p.p.p.p.p.p.p.p.u.",
"o % Y.Y.p.p.p.p.p.p.p.u.p.p.p.p.o @ Y.Y.p.p.p.p.y.w.R E E E _ _ C D 3.5.#.R i.u.p.p.p.p.p.p.p.p.o % Y.Y.p.p.p.p.p.p.p.u.p.p.p.p.",
"o o Y.Y.u.u.p.p.p.u.p.u.p.p.p.p.o $ L.Y.p.u.p.y.p.p.p.R ^ #.#.#.D G qX<.^ u.p.p.p.u.p.p.p.p.p.p.o @ Y.Y.p.u.p.p.p.p.u.u.p.p.p.p.",
"o $ Y.L.Y.Y.Y.Y.Y.Y.Y.Y.7.p.p.p.@ % Y.Y.Y.Y.Y.Y.Y.U.Y.Y.q./ H J 0XwXqXU.Y.Y.Y.Y.Y.Y.Y.Y.7.p.p.p.o $ Y.Y.Y.Y.Y.Y.Y.Y.Y.Y.7.p.p.p.",
"o % Y.Y.Y.Y.Y.Y.Y.Y.Y.L.8.p.p.p.X & Y.Y.Y.Y.Y.Y.Y.Y.L.Y.8.p.u.i.o @ Y.Y.Y.Y.Y.Y.Y.Y.Y.L.7.p.p.p.o % Y.Y.Y.Y.Y.Y.Y.Y.Y.L.8.p.p.p."
};
