/* XPM */
static char *output_onlinepngtools__4_1708292993[] = {
/* columns rows colors chars-per-pixel */
"64 64 211 2 ",
"   c #02301D",
".  c #012F23",
"X  c #0B2D26",
"o  c #022F29",
"O  c #122F22",
"+  c #033323",
"@  c #043827",
"#  c #03322B",
"$  c #043B2B",
"%  c #083A2F",
"&  c #12362B",
"*  c #043631",
"=  c #083437",
"-  c #053B35",
";  c #083A36",
":  c #063D39",
">  c #093C3A",
",  c #5D3B36",
"<  c #543E3B",
"1  c #5B3E3B",
"2  c #6D3B2E",
"3  c #763D2F",
"4  c #7D382B",
"5  c #7B3B2D",
"6  c #673734",
"7  c #633D35",
"8  c #6B3C32",
"9  c #743E31",
"0  c #7C3C31",
"q  c #05412F",
"w  c #064233",
"e  c #07423B",
"r  c #08443A",
"t  c #08443E",
"y  c #094A3D",
"u  c #134439",
"i  c #4E423F",
"p  c #55413C",
"a  c #5C443C",
"s  c #5B4A3F",
"d  c #73402F",
"f  c #6D4235",
"g  c #63463B",
"h  c #6B4439",
"j  c #62493C",
"k  c #6E4A3C",
"l  c #724133",
"z  c #794337",
"x  c #794639",
"c  c #704A3D",
"v  c #064542",
"b  c #094642",
"n  c #074A44",
"m  c #084B44",
"M  c #074D49",
"N  c #094E4A",
"B  c #07554E",
"V  c #095449",
"C  c #09534C",
"Z  c #0A5651",
"A  c #095A54",
"S  c #0A5E5B",
"D  c #3C4F4C",
"F  c #0A625D",
"G  c #0A6463",
"H  c #0B6965",
"J  c #0B6C6B",
"K  c #136963",
"L  c #0B736D",
"P  c #0B786F",
"I  c #0B7775",
"U  c #0B7D7A",
"Y  c #3F6568",
"T  c #4E4241",
"R  c #494D47",
"E  c #574946",
"W  c #544D44",
"Q  c #5A4C42",
"!  c #43544C",
"~  c #4E534C",
"^  c #4A574C",
"/  c #535146",
"(  c #51534A",
")  c #5C544C",
"_  c #57584F",
"`  c #5E584F",
"'  c #465B53",
"]  c #4A5A53",
"[  c #465D5D",
"{  c #535855",
"}  c #545B55",
"|  c #5A5A54",
" . c #664A44",
".. c #744D42",
"X. c #7D4D42",
"o. c #7D4E49",
"O. c #6A5146",
"+. c #65574C",
"@. c #6C554B",
"#. c #735246",
"$. c #795346",
"%. c #72554B",
"&. c #7F5248",
"*. c #79594D",
"=. c #665852",
"-. c #735F53",
";. c #7A5C56",
":. c #42655B",
">. c #56625A",
",. c #686357",
"<. c #74655D",
"1. c #476766",
"2. c #526862",
"3. c #416E71",
"4. c #4B7774",
"5. c #666A65",
"6. c #647874",
"7. c #AB1D0C",
"8. c #AC1F13",
"9. c #B31C1C",
"0. c #8D2D1D",
"q. c #942C1D",
"w. c #9E2818",
"e. c #9C2B1B",
"r. c #87301F",
"t. c #94301F",
"y. c #A7200D",
"u. c #A8230D",
"i. c #A52514",
"p. c #AB2210",
"a. c #A22816",
"s. c #A4251A",
"d. c #AA261B",
"f. c #A12919",
"g. c #B02319",
"h. c #852E23",
"j. c #8D2D22",
"k. c #942D23",
"l. c #982A27",
"z. c #863525",
"x. c #8B3424",
"c. c #823826",
"v. c #843529",
"b. c #8A3529",
"n. c #82392B",
"m. c #8A3A2B",
"M. c #933222",
"N. c #983020",
"B. c #843A30",
"V. c #B63D2F",
"C. c #BB3D2D",
"Z. c #AE3D32",
"A. c #B53D35",
"S. c #B23F39",
"D. c #DB311F",
"F. c #ED2F17",
"G. c #EB2C1D",
"H. c #F42D14",
"J. c #F32E1A",
"K. c #E4341E",
"L. c #ED311B",
"P. c #F03017",
"I. c #FB3318",
"U. c #CC3726",
"Y. c #C73B27",
"T. c #CD3A26",
"R. c #C33C2A",
"E. c #CB3A29",
"W. c #D33726",
"Q. c #DC3523",
"!. c #D43924",
"~. c #DB3924",
"^. c #DC332E",
"/. c #D33C29",
"(. c #D53832",
"). c #E62D24",
"_. c #EF2B25",
"`. c #F02C26",
"'. c #E33321",
"]. c #E83320",
"[. c #E1322C",
"{. c #844C3F",
"}. c #8B4B3E",
"|. c #9D4536",
" X c #92473A",
".X c #9D453C",
"XX c #944B3C",
"oX c #9D4A3A",
"OX c #B3412F",
"+X c #BB412D",
"@X c #A44636",
"#X c #AD4433",
"$X c #A44936",
"%X c #A8453A",
"&X c #B24433",
"*X c #BA4432",
"=X c #B14039",
"-X c #C9422E",
";X c #C54231",
":X c #854E42",
">X c #884D41",
",X c #844E48",
"<X c #984941",
"1X c #845144",
"2X c #885444",
"3X c #8B564A",
"4X c #995548",
"5X c #855A52",
"6X c #955F53",
"7X c #87635A",
"8X c #0C827F",
/* pixels */
"o o o o X o o o o o o o o o o o # o o o o o o o o o o o o o o o o o o o o o o o # o o o o o o o o o o o X # # # o o o o o o o o ",
"                    O o . o                   + X #   o o           . +       # X o . o o                     # + o . o o       ",
"p.u.u.p.p.p.p.p.u.p.. o P.G.7.u.p.p.p.p.y.p.p.u.o o _.G.8.R D 1.Y Y } a.u.p.7.y.o o `.L.7.p.p.p.u.p.y.p.p.u.p.u.o o `.L.8.p.7.p.",
"p.p.p.p.p.p.p.p.u.p.. o P.J.8.u.p.p.p.p.u.p.p.u.o o `.} ! R ' 1.1.1.[ [ 1.p.u.u.o o `.L.7.p.p.p.p.p.p.p.p.p.p.u.o o `.G.7.p.p.u.",
"p.p.u.p.p.p.p.p.p.p.. o P.L.8.u.p.p.p.y.p.p.u.u.o * } +.R ~ >.2.>.} ~ ~ ] :.i.u.o o _.L.p.p.p.y.p.p.u.u.p.p.p.u.o o _.L.8.u.8.u.",
"u.7.y.d.p.p.p.p.p.u.+ o P.L.p.u.7.7.y.d.p.p.p.u.> A =.@./ | >.>.| ) E E / ' ' w.o # `.G.p.7.u.7.y.7.y.g.p.p.p.u.o o _.L.g.u.u.7.",
"G.L.L.L.p.p.p.p.p.p.. o P.L.G.L.L.L.L.L.p.p.p.i.S A %.$.1X7X7X7X3X,X,X:Xa W ^ ' # # _.`.L.L.G.L.G.L.G.L.p.p.p.u.o o _.G.J.L.G.L.",
"J.J.J.H.u.u.u.u.u.u.# o I.J.J.J.J.J.I.H.u.u.u.4.I L <.3X3X6X4X4X4X<X X Xg a / ( A o Q.J.J.J.J.H.J.J.J.H.u.u.u.9.+ o Q.J.J.J.J.J.",
"# o # # = o o o X o O o = o o o # # # # o o U 8XI L K F M B B M M n v v v n M B Z Z X # o # # # # # # # o o #   o o O # # # + # ",
"o o o o o o o + o o o o o o o o o o o o o - U L J G F A m v n b b > r v v v v v v M = o o o o o . o o o o # o o o o o o o o o o ",
"o + `.G.8.8.p.g.8.8.8.8.8.8.8.8.o + `.G.p.4.2.>.=.@...z 4 B.m.b.> : A.Z.4 9 8 6 , < T 8.8.8.8.8.o + `._.8.8.d.p.9.8.8.8.8.8.8.8.",
"o # L.L.7.8.p.p.p.p.p.p.p.p.u.p.o * J.L.n.2.>.+.O...x n.z.m.m.x.- > C.V.4 0 9 2 , , < e.p.p.p.p.o # J.L.p.p.p.u.p.p.p.p.8.u.u.u.",
"o * J.L.p.p.p.p.p.p.p.u.p.p.p.p.o * G.L.:.>.` O.c z n.n.x.x.M.M.- - E.C.z.n.5 2 6 7 < T 8.u.p.p.o * J.L.p.p.p.p.p.p.p.p.p.p.p.p.",
"o # L.L.p.u.p.p.p.u.p.u.p.p.p.p.o $ G./.>._ O.c z 0 m.b.j.q.e.e.* > T.E.x.z.4 3 8 7 , < i.u.p.p.o # L.L.p.p.p.p.p.p.u.u.p.p.p.p.",
"# X L.G.L.L.L.L.L.L.L.L.7.p.p.p.# X L.,.-.&.2XXX$X&X*X-Xq.e.e.e.* - W.U.R.C.V.@X|. X{...< p.p.p.o X L.G.L.L.L.L.L.L.L.L.7.p.p.p.",
"o * L.L.L.L.L.L.L.L.G.G.8.p.p.p.# @ L.,.*.2X<X$X&X*X;X-Xe.w.a.a.# > ~.W.Y.E.C.Z.@X X}...T p.p.p.o * L.L.L.L.L.L.P.L.G.J.8.p.u.p.",
"o o o o o o o o o o o o o o o o o o r A C V m t e e e - # # o # # $ * $ - - - - t v b n N # o o o o o o o o o o o o o o o o o o ",
"              # X o # o o           F V V y y r ; e - - * + +   + + + @ @ @ $ - r b v v M N                   # X o . o o       ",
"u.p.p.p.p.p.u.y.o o `.L.7.p.p.p.u.p.~ Q j f 3 4 : e (.W.i.i.i.i.i.i.a.f.w.q.q.r.> b <X>Xa W p.p.p.p.u.p.u.p.p.u.# o `.L.8.p.u.u.",
"p.p.p.p.p.u.u.y.o o `.L.8.7.p.p.p.p./ Q h l 5 c.: e (.Q.i.i.8.i.p.i.i.f.e.q.q.r.> r <X}.a W u.7.p.p.p.p.p.p.p.u.o o `.G.7.p.p.7.",
"p.p.u.u.p.p.p.u.o o `.L.p.p.p.u.u.h _ j h d n.c.: e (.Q.i.a.p.i.p.p.a.f.e.w.q.0.> v <XXXj Q h.i.p.p.u.u.p.p.p.u.# o `.G.p.p.p.p.",
"u.7.u.g.p.p.p.u.o o `.G.g.y.y.y.u./ / j f d c.z.: - ^.Q.s.y.y.y.i.7.i.d.w.e.q.0.: r .X Xj s W 7.y.7.7.d.p.p.p.u.o o `.L.g.7.7.u.",
"G.L.G.L.p.p.p.u.# # `.L.G.L.L.G.L.+.$.}.f 5 n.z.: - ^.'.'.L.L.L.L.L.K.K.f.e.e.0.; e %X<X:X$.@.G.L.L.L.L.p.p.p.u.o o `.G.L.G.L.L.",
"J.J.I.H.u.u.u.9.  o D.J.J.J.J.H.P.%.1X}.f 5 c.k.- - E.'.L.G.G.J.J.F.L.F.w.w.q.l.$ e .X.X}.X.@.J.J.J.J.H.u.u.u.9.+ o Q.J.J.J.J.J.",
"# # # # # # o + X o O o # # o # # Z C M b b > q > - & # # # # # # # # # * - * $ > : u m m V B # # # # # o o o + o o O # o # # # ",
"o o o o o o o o o o o o o o o o $ Z V m v t e - - * # # o o o o o o o o # * * * * : e b m N C o o o o o o o o + o o o o o o o . ",
"o # _.G.8.8.p.g.8.8.8.8.8.8.8.8.r C ,X X9 n.v.k.N.l.f.s.i.8.8.8.o # `.K.s.s.e.l.j.n.n.9 f Q E k.o + `._.8.8.g.p.8.8.8.8.8.8.8.8.",
"o # L.F.p.p.u.p.p.8.p.p.p.p.p.p.C Z ,XXX3 n.z.x.e.e.f.a.i.p.p.p.o # L.K.i.w.e.q.k.z.n.9 f g Q 3 o # L.L.p.p.p.p.p.p.p.p.p.p.u.u.",
"o # L.L.u.p.p.p.p.p.p.p.p.p.p.p.C Z 2XXX3 n.z.t.N.e.f.i.p.p.p.p.o & L.L.i.w.e.e.0.z.n.3 f j W h o * J.L.p.p.p.p.p.p.u.p.p.p.p.p.",
"o * L.L.p.p.p.u.p.p.p.p.p.p.p.p.Z Z >XXX5 n.z.q.e.e.a.a.p.p.u.p.o * K.K.a.a.e.q.q.x.4 5 f j s Q o # L.L.u.u.p.p.p.p.p.u.p.p.p.p.",
"o * P.G.L.L.L.L.L.L.L.L.7.p.p.p.Z Z >XXX$X#X+XY.W.!.'.'.i.p.p.p.o # L.K.K.'.~.W.Y.C.#X$X8 j Q W o $ L.G.L.L.L.L.L.L.L.L.7.p.p.p.",
"o X L.G.L.L.L.L.L.L.L.L.p.p.p.p.Z C >XoX$X&XC.Y.W.~.Q.'.p.p.p.p.o * L.K.'.Q.W.W.Y.C.#X@Xl j Q ( o X G.L.L.L.L.L.L.L.G.J.8.u.8.p.",
"o o o o o o o o o o o o o o o o Z V N y t t - - # * * # # o o o o o o # # $ * * - - r t m m V A o o o o X o o # o o # o o o o o ",
"              # . o   o o       C V m y y w $ $ $ * # o o             + + + @ - ; - w b m m V B               # . o o . o       ",
"p.p.p.p.u.u.p.u.o o `.G.8.u.p.p./ s j l 3 c.x.0.* - [.'.8.i.p.p.7.p.p.p.i.a.e.q.- : =X@Xf j Q W p.p.u.u.p.p.p.u.o o `.J.8.p.7.u.",
"p.p.p.p.p.p.u.u.o o `.G.8.p.p.p./ W g f 3 n.z.q.- * [.K.8.p.p.p.p.u.p.i.i.f.w.q.: : =X@Xl j W Q p.p.p.u.p.p.p.u.o o `.G.7.p.p.u.",
"p.u.p.p.p.p.p.u.# o `.J.u.p.p.p.s W j f 3 n.x.0.* * ^.'.p.p.p.p.u.u.p.p.i.f.e.q.> - =XoXf j / h p.p.u.u.p.p.p.u.o o _.L.8.u.8.u.",
"7.y.y.g.p.p.p.u.# o `.G.g.y.7.y.s s j f 3 n.z.0.= * [.'.d.y.y.y.u.u.i.u.i.f.e.q.- e =X$Xh s s 3 u.7.u.d.p.p.p.u.o o _.F.g.u.u.7.",
"P.L.P.L.p.p.u.u.o o `.G.L.G.L.G.#X#.1XXX3 4 z.0.* * ^.'.K.L.L.G.L.L.L.K.a.w.e.k.; : =XoXXX1X%.R.G.L.J.L.p.p.p.u.= o `.J.G.L.G.L.",
"J.J.J.H.u.u.u.9.+ o Q.J.J.J.J.J.K.#.{. Xl 5 z.l.@ * U.].L.G.J.J.J.J.L.P.a.e.e.l.q e |.|.XX1X#.G.J.J.J.H.u.u.u.9.  o Q.J.J.J.J.J.",
"# # # # o o o + o o O o # # # # @ B V M b b > $ = # & # # # # # # # # # * * - w ; : u n m V Z # # # # # o o #   o o O # # # o # ",
"o o o # o o o o o X o o o o o o # B N m b t e - * o * $ # # o o . # # # # * - - ; t t n N Z A o . o o o o o o # o o o o o o o . ",
"o # `.G.8.8.8.8.8.8.8.p.8.8.8.8.o B o.>X8 0 n.j.l.q.l.a.s.d.8.8.# # ).).d.e.l.M.b.n.9 8 j Q ( p.o # `.`.8.8.p.g.8.8.8.8.8.p.8.8.",
"o # L.F.p.p.p.p.p.p.p.p.p.p.p.p.o Z ..:Xf 0 n.h.0.e.a.f.a.i.p.p.# # K.K.f.e.M.x.x.n.9 f j Q ( p.o # L.L.p.u.p.p.8.p.p.p.p.p.u.y.",
"o % L.L.p.p.p.p.p.p.p.p.p.p.p.p.o b ..:Xh 9 5 h.0.q.e.f.a.i.i.p.o # K.'.w.e.M.x.z.4 9 h j / m.u.o * J.F.p.p.p.p.p.p.u.u.p.p.p.p.",
"o # L.L.p.p.p.p.u.u.p.p.p.p.p.p.o * @.X.h 9 5 z.0.q.q.e.a.i.i.p.o * K.K.e.k.M.x.z.9 l j Q / p.p.o # L.L.p.u.p.p.p.p.p.y.p.p.p.p.",
"o # L.G.L.L.L.L.L.L.L.L.7.p.p.p.o # O.X.}.oX@X#XC.R.W.~.a.a.7.i.# & '.Q.Q.-X-X+X#X$XXX2XQ ( u.p.# X L.G.L.L.L.L.P.L.L.L.7.p.p.p.",
"o * L.L.L.L.L.L.L.L.L.J.8.p.u.7.o = O...{. X|.#XC.E.E./.f.a.a.a.# * Q.Q./.E.;X*X#XoX<X&./ ] p.p.o * L.L.L.L.L.L.L.L.L._.8.p.p.p.",
"o o o o o . o o o o o o o o o o o o : M M b v r > - - * * * $ # # # # * - r - r t m M B A * o o o o o o o o o o o o o o o o o o ",
"              + X o . o o             n n r y r * - $ - % + o + + + @ @ $ w w y t M C A F                     + X o . o o       ",
"p.p.7.u.p.p.p.u.# o `.G.8.p.u.u.p.p.p.p p 7 8 9 b > &XE.q.e.e.e.e.e.e.t.M.m.m.d N V 5X-.} u.p.p.p.p.u.u.p.p.p.u.o # `.L.8.p.7.u.",
"p.p.p.p.p.p.p.u.o o `.L.8.p.u.8.p.p.p.q.p a 7 8 b > A.R.k.q.e.e.e.e.t.M.m.n.3 l N Z ;.,.i.p.p.p.p.u.p.p.p.p.p.u.o o `.G.7.p.p.p.",
"p.p.u.p.p.p.p.u.o o `.L.7.u.p.p.u.p.p.u.T p 7 6 b t S.A.j.0.q.k.M.M.x.x.m.n.x k A S <.5.7.u.p.p.p.p.u.8.u.p.p.u.o o `.L.8.u.p.p.",
"u.7.y.d.p.p.p.u.o o `.P.g.7.7.u.7.u.7.d.h.< , 7 v v S.Z.x.h.0.j.x.m.z.m.n.x #.O.S G 5.-Xd.7.u.7.7.7.u.d.p.p.p.u.o o `.F.g.u.7.7.",
"J.G.L.L.p.p.p.u.o o `.G.L.L.L.G.L.L.L.L.u.< 1 7 v v Z.@XZ.A.C.*X*X*X&X#Xz c @.+.H L 6.L.L.L.L.G.L.L.L.L.p.p.p.u.o o `.G.L.G.L.L.",
"J.J.J.H.u.u.u.9.+ o Q.J.J.J.J.J.J.J.F.J.7.0.T 1 t v X..X%X#X&X&X&X&X#X$XO.+.,.5.L U /.J.J.J.J.J.J.J.J.H.u.u.u.9.+ o Q.J.J.J.J.J.",
"# # # # o o #   o o O # # # # . # # + o o o A C Z N b v v v n M B B B M G H J P U U O # # o # # # # # # o o #   o o O # # + # # ",
"o o o o o o o o o o o o o o o o o o o o o o o S Z Z b v v n M M B S F Z Z H L U 8Xo o o o o o o o o o o o # o # o o o o o o o . ",
"o + `._.8.8.g.p.9.8.8.8.8.8.8.8.o + `.G.8.8.8.e.] ~ E a a  . . .S G 7Xo.Q ( ~ ] d.8.8.p.8.8.8.8.. # `.`.8.8.g.p.8.8.8.9.8.8.8.8.",
"o # L.L.p.p.p.p.p.p.p.p.p.p.u.u.o * L.L.u.p.p.p.n.[ ] E E E ) =.G J -.#.W ^ ! e.p.p.p.p.p.p.p.p.o # J.L.p.u.p.p.p.p.p.p.8.u.p.u.",
"o * J.L.p.u.p.p.p.p.u.u.p.p.p.p.o * J.L.p.p.p.u.8.q.:.] ~ { { 2.J J @.+.! ! a.u.p.p.p.p.p.p.p.p.o * J.F.p.p.p.p.p.y.p.p.p.p.p.p.",
"o # L.L.p.p.p.p.p.p.p.u.p.p.p.p.o X G.L.u.p.p.u.7.8.i.1.[ [ [ 1.I S ) _ ! u.p.p.u.u.p.p.p.u.p.p.o # L.L.u.u.p.p.p.p.p.p.p.p.p.p.",
"o * L.G.L.L.L.L.P.L.L.L.7.p.p.p.o * L.L.L.L.L.L.L.L.F.L.w.[ Y 1.G Z +.D.L.L.L.L.L.L.L.L.7.p.p.p.# X L.G.L.L.L.L.L.L.L.L.7.p.p.p.",
"o X L.L.L.L.L.L.L.L.L.G.8.p.p.p.# * L.L.L.L.L.L.L.L.L.L.8.p.d.8.o = L.L.L.L.L.L.L.L.L.J.8.p.p.u.o * L.L.L.L.L.L.L.L.J.G.8.p.u.p."
};
