/* XPM */
static char *output_onlinepngtools__6_1708292993[] = {
/* columns rows colors chars-per-pixel */
"64 64 197 2 ",
"   c #02301D",
".  c #012F23",
"X  c #0D2D22",
"o  c #022F29",
"O  c #082E2D",
"+  c #122F22",
"@  c #033324",
"#  c #033827",
"$  c #03322B",
"%  c #033B2C",
"&  c #12352A",
"*  c #043532",
"=  c #083336",
"-  c #053A35",
";  c #083D35",
":  c #053D3A",
">  c #083D39",
",  c #5D3D36",
"<  c #553E39",
"1  c #5C3E39",
"2  c #6A372E",
"3  c #6D392E",
"4  c #763527",
"5  c #7E3226",
"6  c #74362B",
"7  c #7B3429",
"8  c #73382C",
"9  c #78382E",
"0  c #6B3732",
"q  c #633D35",
"w  c #6B3A32",
"e  c #613F3B",
"r  c #6B3E3A",
"t  c #723C33",
"y  c #793A33",
"u  c #054136",
"i  c #05423D",
"p  c #4F423E",
"a  c #54433D",
"s  c #5B4139",
"d  c #62423B",
"f  c #6B4239",
"g  c #74443B",
"h  c #7D473E",
"j  c #7C483E",
"k  c #073E40",
"l  c #064543",
"z  c #064945",
"x  c #084648",
"c  c #064C4A",
"v  c #094B4B",
"b  c #05524E",
"n  c #10534F",
"m  c #064E52",
"M  c #084F54",
"N  c #065453",
"B  c #085455",
"V  c #075C55",
"C  c #06565A",
"Z  c #09555A",
"A  c #075A5A",
"S  c #085B5B",
"D  c #3A4E4C",
"F  c #075E65",
"G  c #086464",
"H  c #076870",
"J  c #444342",
"K  c #4D4641",
"L  c #454946",
"P  c #4B4945",
"I  c #444D4A",
"U  c #494C4B",
"Y  c #524440",
"T  c #5A4542",
"R  c #514A46",
"E  c #534B4B",
"W  c #594F4C",
"Q  c #48514D",
"!  c #53544E",
"~  c #5A524F",
"^  c #4A5659",
"/  c #5B5555",
"(  c #565B59",
")  c #664C47",
"_  c #6D4B44",
"`  c #654948",
"'  c #784746",
"]  c #734942",
"[  c #63524C",
"{  c #635454",
"}  c #7C5A57",
"|  c #56615E",
" . c #785A60",
".. c #476764",
"X. c #4C6364",
"o. c #4B6B6B",
"O. c #546564",
"+. c #566968",
"@. c #48706F",
"#. c #467274",
"$. c #467B79",
"%. c #6E6C69",
"&. c #677875",
"*. c #AB1D0C",
"=. c #AC1F13",
"-. c #B31C1C",
";. c #862E1E",
":. c #8C2D1D",
">. c #992717",
",. c #9D2A17",
"<. c #96271E",
"1. c #9D261C",
"2. c #942B1C",
"3. c #9B291A",
"4. c #8A301F",
"5. c #A7200D",
"6. c #A8230D",
"7. c #A52514",
"8. c #AB2210",
"9. c #A12916",
"0. c #A3251A",
"q. c #AA261C",
"w. c #A12919",
"e. c #B02319",
"r. c #862F23",
"t. c #8A2D22",
"y. c #982626",
"u. c #912D20",
"i. c #912929",
"p. c #833224",
"a. c #893123",
"s. c #82342A",
"d. c #88372C",
"f. c #943326",
"g. c #873B34",
"h. c #9C3F33",
"j. c #983E3B",
"k. c #AD3D2E",
"l. c #B53C2D",
"z. c #BB3C2A",
"x. c #A13F32",
"c. c #AD3A34",
"v. c #A63C39",
"b. c #B33B34",
"n. c #BB3B32",
"m. c #DB311F",
"M. c #EB2C1D",
"N. c #F42D14",
"B. c #F32E1A",
"V. c #ED3017",
"C. c #E5341E",
"Z. c #ED311B",
"A. c #F03017",
"S. c #FB3318",
"D. c #C53727",
"F. c #CC3626",
"G. c #C43A26",
"H. c #CE3823",
"J. c #C23929",
"K. c #CA3929",
"L. c #D53623",
"P. c #DA3624",
"I. c #D43924",
"U. c #DA3925",
"Y. c #D4302C",
"T. c #DC312C",
"R. c #E62D24",
"E. c #EF2B25",
"W. c #F02C26",
"Q. c #E33421",
"!. c #E83220",
"~. c #E13821",
"^. c #E1312C",
"/. c #8E4336",
"(. c #83453C",
"). c #8C4339",
"_. c #934336",
"`. c #9D4033",
"'. c #914238",
"]. c #9E473F",
"[. c #A24031",
"{. c #AF4435",
"}. c #A5463C",
"|. c #AB453A",
" X c #AF4A3E",
".X c #B64334",
"XX c #B44639",
"oX c #844944",
"OX c #9E4841",
"+X c #8D534D",
"@X c #96574D",
"#X c #885C55",
"$X c #9A5951",
"%X c #B34840",
"&X c #82635E",
"*X c #856663",
"=X c #598083",
/* pixels */
"o o o o o o o o o o @ o o o o o o o o o o o o o o o o o o o o o o o o o o . o o o o o o o o o o o o o o o o o o o o o o o o . o ",
"                    X o . o       @           $ X @ . o O                     @ @ o . o o                     @ $ o . o O       ",
"8.8.6.8.8.8.8.8.6.8.X o A.Z.*.8.8.8.8.8.6.6.8.6.o o E.M.8.L D D D D p *.8.8.6.5.O o W.Z.*.8.8.8.8.8.6.6.8.8.6.6.o o W.Z.=.8.6.6.",
"8.6.8.8.8.8.8.8.6.8.@ o A.M.=.8.8.8.8.8.6.=.8.6.O @ E.| D D L L J p J D ^ 8.8.6.o o E.Z.=.*.8.8.8.8.8.8.8.8.8.6.o o W.M.*.8.6.=.",
"8.8.6.8.8.8.8.8.8.8.  o A.Z.*.8.8.8.8.8.8.6.6.6.o : =X&...U K p p < p ( o.#.w.6.O $ E.Z.=.8.8.6.8.8.8.8.8.8.8.6.o o W.A.=.6.8.8.",
"6.*.5.e.8.8.8.8.8.6.. o A.Z.7.6.*.6.6.8.8.8.8.5.: H %.&.+.( a < , , ! | X.o.@.,.o o E.M.q.6.5.5.5.*.6.e.8.8.8.6.$ o W.M.e.*.*.6.",
"M.Z.Z.Z.6.8.8.8.8.8.@ o A.B.M.Z.M.Z.Z.Z.8.8.=.7.F F  .}  .*X#X/.g.+X&X&X| | O.@.$ o W.Z.B.M.M.Z.Z.M.Z.V.8.8.8.6.O o W.M.Z.Z.Z.M.",
"B.B.B.N.6.6.6.8.6.6.O o S.B.B.B.B.B.B.N.6.6.6.^ A C } +X$X$X$X].}.@X@X@X[ ~ ( ^ G o m.B.B.B.B.B.B.B.B.N.6.6.6.-.  o P.B.B.B.B.B.",
"@ $ o $ o O o o O o X o * o o o $ $ @ o o * Z N M N v m c b N z z N b N N N B V S A + @ $ $ @ o @ $ o $ O o $   O o + $ $ @ $ o ",
"o o o @ o o o $ o o o o o o o o o o o o o * N v v c c c z c c i : z z c c c v b B Z $ o o O o o o o o o o o $ o o o o o o o o o ",
"o @ W.E.=.=.8.q.=.=.=.=.=.=.=.=.o @ W.M.=.U R T e r t y y g.d.a.: u %X}.y g r s T E U 8.=.=.8.8.o @ W.M.=.=.8.q.=.=.=.=.=.=.=.=.",
"o $ M.Z.8.8.8.8.8.8.8.8.8.8.8.6.@ * Z.V.r.K a e w t 9 s.s.d.4.:.- > z..X9 9 w f s a U <.8.8.8.8.o $ Z.Z.8.8.8.8.8.8.8.8.8.8.6.6.",
"o = M.Z.8.8.8.8.8.8.6.8.8.8.8.8.$ O V.V.I a s f w 9 5 p.a.u.u.u.* : J.n.d.s.8 3 f a p I 6.6.8.8.o O M.V.8.8.8.8.8.8.8.6.8.8.8.8.",
"o $ Z.V.8.8.8.8.8.8.8.8.8.8.8.8.$ O Z.I.K s , 3 6 7 p.a.t.2.2.3.* - K.J.a.p.5 8 3 d s P 7.8.8.8.o * Z.V.8.8.8.8.8.8.8.8.8.8.8.8.",
"$ O Z.M.Z.Z.V.Z.V.Z.Z.V.*.8.8.8.o O V.) ] j )._.[.l.z.K.<.3.3.,.$ = I.F.G.z.{.x._.).j _ a 8.8.8.$ O Z.Z.Z.Z.V.Z.V.Z.Z.V.*.8.8.8.",
"$ * Z.A.Z.Z.Z.Z.Z.Z.Z.M.=.8.8.8.$ * Z.) ] (.'.[.c.l.J.F.1.1.,.7.$ * U.I.K.G.l.k.`._.(.] P 8.8.8.o = Z.Z.Z.Z.Z.Z.Z.Z.Z.M.=.8.8.8.",
"o o o o o o o o o o o o o o o o o o ; c l i i u ; * * * * $ $ $ $ $ $ * % * - - : l k z c % $ o o o o o O o o o o o o o o o o . ",
"              $ . o . o o           c l i i u u - * % $ * # @     @ # % # # % - - : i z x c                   @ @ o . o O       ",
"6.=.8.8.8.8.6.6.O $ W.Z.*.8.8.8.6.8.K a q 3 6 5 : * Y.P.,.7.7.7.7.7.7.w.3.<.:.;.: : j.(.< K 8.8.8.8.6.6.8.8.6.6.o o W.Z.=.8.6.*.",
"6.6.8.8.8.8.6.6.o o E.Z.*.8.8.8.8.8.Y 1 q 8 4 5 = * Y.P.0.7.7.8.8.8.7.w.,.2.2.;.: : j.).1 K 8.8.8.8.8.6.8.8.8.6.O o E.M.*.8.8.8.",
"8.8.8.8.8.8.*.6.O o E.M.=.8.8.6.8.w a , q 6 7 5 : * Y.P.7.7.8.7.7.7.7.9.w.1.:.;.: : j.).1 Y r.8.8.8.6.6.8.8.8.6.o o W.Z.=.6.8.8.",
"5.6.8.8.8.8.8.6.o o E.Z.q.*.6.5.5.p a e 3 6 5 ;.* $ T.P.0.7.5.5.5.5.7.w.,.3.2.:.: - h.j.1 a a 5.6.*.5.e.8.8.8.6.O o W.Z.q.*.*.6.",
"Z.M.M.A.8.8.8.6.$ o W.Z.M.Z.M.Z.Z.) ] (.w 4 5 ;.* * T.~.~.!.Z.M.Z.Z.Z.C.9.,.2.:.- - v.'.(.] ) M.M.Z.Z.Z.8.8.8.6.O @ W.M.Z.Z.M.Z.",
"B.B.S.N.6.6.6.-.@ o m.B.B.N.B.B.B._ h /.3 4 r.t.% * K.!.Z.M.B.M.M.B.Z.Z.,.,.2.y.% - j.h.).j _ B.B.B.B.N.6.6.6.-.@ o m.B.B.B.B.B.",
"$ $ o $ O O o @ O o + @ $ $ @ o $ c z l k : : % = $ & $ $ $ $ @ $ @ $ $ * * * % = : ; : l z v $ $ o @ $ o o O   O o + o $ @ o $ ",
"@ o o o o o o o o o o o o o o o $ z l i k = - * * $ * * $ $ o o o o o $ $ * $ $ - = : : l l x o o o o o o o $ o o o o o o o o o ",
"o @ E.M.=.=.q.8.=.=.=.=.=.=.=.=.: z ' j.6 7 t.t.u.1.1.0.=.=.=.=.o @ W.R.0.0.<.u.t.r.7 6 w 1 Y t.o @ W.E.=.=.8.q.=.=.=.=.=.=.=.=.",
"o $ Z.Z.8.6.8.8.8.8.8.8.8.8.8.8.l c (./.6 5 r.:.<.,.,.7.7.8.8.8.o $ Z.~.9.0.>.<.:.r.7 6 w , a 6 o $ Z.Z.8.8.8.8.6.8.8.8.8.8.8.6.",
"o * Z.Z.8.8.8.8.8.8.8.8.8.8.8.8.c x (._.9 5 r.:.2.>.0.7.7.6.8.8.$ * C.Z.7.w.3.<.:.r.p.6 w , a q o O Z.Z.8.8.8.8.8.8.8.6.8.8.8.8.",
"o O Z.V.8.8.8.8.8.8.8.6.8.8.8.8.c x (._.6 p.r.:.3.>.,.7.8.8.8.8.o O Z.C.7.w.,.2.:.;.5 6 3 q a s o $ Z.V.8.8.8.8.6.8.8.6.8.8.8.8.",
"o O Z.M.Z.V.Z.Z.Z.Z.Z.Z.*.8.8.8.c x (._.h.k.z.G.H.L.~.C.7.6.8.6.o O Z.C.C.P.L.H.G.z.k.`.2 , a a @ O Z.Z.Z.V.Z.Z.A.Z.Z.Z.*.8.8.8.",
"o $ Z.Z.Z.Z.Z.Z.M.Z.Z.Z.8.6.8.8.c v (._.x.l.z.D.L.P.~.!.=.6.8.=.@ O M.Z.C.~.P.H.D.z.k.h.0 q a K o = Z.Z.Z.Z.Z.Z.Z.Z.Z.M.=.8.8.8.",
"o o o o o o o o o o o @ o o @ o b z l i : : - * * $ * $ $ o o o @ o o $ $ $ $ * * - - : i l z c $ o o @ o o o o o o o o o o o o ",
"              % . o . o o       z l i u - % % % $ $ $ o o               @ # @ % - - - : i i l c               @ @ o . o O       ",
"6.8.8.8.6.*.8.6.O o E.M.=.=.8.8.p s q 3 8 5 ;.:.* $ ^.!.=.7.8.8.8.8.8.7.7.9.3.2.= - c.x.w , a a 8.8.8.8.8.8.8.6.o o E.Z.=.8.6.6.",
"8.8.8.6.8.8.8.6.o o E.M.=.6.8.8.p a s 3 6 5 ;.:.* * ^.C.7.*.8.8.8.8.8.7.7.7.>.2.= * c.x.w q a s 8.8.6.8.8.8.8.6.O o E.M.*.6.6.=.",
"8.8.8.8.8.8.8.6.$ o E.Z.=.6.8.8.a a s 3 6 5 r.:.* $ ^.Q.=.*.8.8.8.6.6.7.7.w.3.2.- - c.h.2 , a q 8.8.8.8.6.8.8.6.O o W.M.=.8.8.8.",
"*.5.8.8.8.8.8.6.O o E.M.e.5.*.5.s a , w 6 5 ;.:.* * ^.Q.q.7.5.5.6.5.6.q.w.w.>.2.- - c.h.w , a 6 *.*.6.q.8.8.8.6.o @ W.Z.e.*.*.6.",
"Z.Z.M.V.8.8.8.6.o o E.Z.Z.Z.Z.M.[.g (./.6 7 r.:.* $ ^.~.!.Z.Z.M.Z.M.Z.C.9.,.>.2.= - c.`.).(._ G.Z.Z.M.V.8.8.8.6.o o E.Z.Z.M.Z.Z.",
"B.B.B.A.6.6.6.-.  $ m.B.B.B.B.B.~._ (._.8 4 p.i.% * F.!.Z.Z.B.B.B.B.A.V.9.,.>.y.% - h.h.'.h ] M.B.B.B.N.6.6.6.-.# o m.B.B.B.B.B.",
"$ $ @ $ o o * . O o + o o @ $ o $ c l l i : : % = $ & $ % $ $ o $ $ $ $ * * * % = - ; i l l c $ $ o @ $ O o $ @ O o + $ o @ o $ ",
"o o o $ o o o o o o o o o o o o o c l l i : - * * * $ * $ $ o o @ o $ $ $ * $ * * - : i l x c $ o o o o o o o $ o o o o o o o o ",
"o # E.M.=.=.=.=.=.=.q.8.=.=.=.=.o c ' (.0 6 s.t.u.<.1.0.7.8.=.=.o $ R.R.0.1.<.u.r.s.9 0 q < K =.o @ W.R.=.=.8.8.=.=.=.=.=.=.=.=.",
"o O M.V.8.6.=.6.8.8.8.8.8.8.8.8.o v ] (.0 6 5 r.:.<.3.w.7.7.7.8.$ $ !.~.0.>.2.:.r.7 4 0 , a K 8.o $ Z.Z.8.8.8.8.=.6.=.6.8.8.8.6.",
"$ O Z.Z.8.8.8.8.8.8.8.8.8.8.8.8.o x ] h w 6 7 r.:.2.2.,.7.7.7.8.o $ !.~.w.3.2.r.r.7 6 q , a p.8.o O Z.Z.8.8.8.8.8.8.8.8.8.8.8.8.",
"$ * Z.Z.8.8.8.8.8.8.8.8.8.8.8.8.o $ _ j q 3 4 p.r.2.3.,.7.7.7.8.$ * !.~.,.2.2.:.r.4 3 q s K 8.8.o $ Z.V.8.8.8.8.8.8.8.6.8.8.8.8.",
"o O Z.Z.V.V.Z.Z.Z.V.V.Z.*.6.8.8.o $ ) ] (._.x.k.z.G.F.I.7.7.7.7.o O Q.P.U.F.G.z.k.x._.(.a K 8.8.$ O Z.Z.Z.Z.Z.Z.V.V.Z.V.*.8.8.8.",
"@ O Z.Z.Z.M.Z.Z.Z.Z.Z.B.=.8.8.6.$ O ) ] (.).h.k.l.J.F.L.1.,.7.7.$ * ~.P.L.F.z.l.x.h.).(.a K 8.8.o = Z.Z.Z.Z.Z.Z.Z.Z.Z.M.=.8.8.8.",
"$ o o o o o o o o $ o o o o o o $ o - c l i i i - * * % * $ $ o $ $ $ * $ * * ; : i l l c $ o $ o o o o o o o o o o o o o o o o ",
"              @ . o . o o             c z i u u ; - % * - # # @ @ # % % % % % u : i l x v                     @ . o . o O       ",
"8.8.6.6.8.8.8.6.o o E.Z.=.8.*.8.8.8.8.P a s f 3 k = n.J.<.3.,.,.,.3.3.2.:.r.p.4 i l ' ] K 8.8.8.=.8.6.6.8.8.8.6.O o E.Z.=.8.6.6.",
"8.8.8.6.8.8.8.6.O o E.Z.*.8.8.8.8.8.8.<.P s , 2 l : b.z.u.u.1.2.3.2.2.2.a.p.4 3 l l ' ` 7.8.8.8.6.8.8.6.8.8.8.6.o $ E.M.*.8.8.*.",
"8.8.8.8.8.8.8.6.o o W.Z.=.6.6.8.8.8.8.8.I a s f k : b.b.a.2.2.2.2.u.a.a.p.s.6 3 l x _ [ 8.8.8.8.8.8.8.8.8.8.8.6.$ o W.M.8.8.8.8.",
"*.*.8.8.8.8.8.6.O o W.A.q.*.5.*.6.6.6.8.s.P a d x l }.{.g.p.r.:.:.;.a.d.s.9 8 f x x ` K.e.5.*.5.6.*.6.e.8.6.8.6.o o W.Z.e.*.5.5.",
"Z.Z.Z.Z.8.8.8.6.o o W.M.Z.M.Z.Z.Z.Z.V.A.6.Q R a v z OX}.|.XX.Xz.z..X XXX9 t r s v c { B.Z.M.Z.M.M.A.Z.Z.8.8.8.6.o o W.M.Z.M.Z.Z.",
"B.B.B.N.8.6.6.-.@ o P.B.B.B.B.B.B.B.B.N.6.:.Q W b c oXOX X XXXl..X X X|.g f d ` b Z F.B.B.B.B.B.B.B.B.N.6.6.6.-.  o P.B.B.B.B.B.",
"@ $ o $ O o $   O o + $ o @ $ o $ @ o $ o o S S S B n B N b N x z N b m m m m b Z Z X $ @ o $ @ $ o @ $ o O $   O o + $ $ @ o @ ",
"o o o o o o $ o o o o o o o o o o o o o o o o G G S S S C C N k z V Z Z N C C C A O o o o o o o o o o o o o o o o o o o o o o o ",
"o @ W.M.=.=.8.q.=.=.=.=.=.=.=.=.o @ W.M.=.=.=.y.o.O.| ( / { ` 0 l A *X&X/ / ( ^ 0.=.8.8.=.=.=.=.o @ W.R.=.=.8.q.=.=.=.=.=.=.=.=.",
"o * Z.Z.8.8.8.8.8.8.8.8.8.8.8.6.$ * Z.Z.8.8.8.8.g.@.o.O.| ~ 1 1 z v %.%.+.X.X.y.8.8.8.8.8.8.8.8.o $ Z.Z.8.8.8.8.8.8.8.8.8.8.8.8.",
"o $ M.Z.8.8.8.8.8.8.8.8.8.8.8.8.@ $ Z.Z.8.8.8.6.6.f.#.o.Q < < < c c [ %.$.$.,.8.8.8.8.8.8.8.8.8.o O Z.Z.8.8.8.8.8.8.8.8.8.8.8.8.",
"o O Z.V.8.8.8.8.6.8.8.8.8.8.8.8.$ O M.Z.8.8.8.6.6.8.8.^ D < J L m c W ! ..=.8.8.8.8.8.8.8.8.8.8.o $ Z.V.8.8.8.8.6.8.8.6.8.8.8.8.",
"o * Z.Z.Z.V.Z.Z.V.Z.Z.V.*.6.8.8.o O Z.Z.V.Z.Z.Z.Z.Z.Z.Z.=.D D D N N W m.Z.Z.Z.Z.V.Z.V.Z.*.8.8.8.@ O Z.Z.Z.V.Z.Z.V.Z.Z.Z.*.8.8.8.",
"o O Z.Z.Z.Z.Z.Z.Z.Z.Z.M.=.8.8.8.o * Z.Z.Z.Z.Z.Z.Z.Z.Z.Z.=.8.8.8.o $ Z.Z.Z.Z.Z.Z.Z.Z.Z.M.=.8.8.8.o = Z.Z.Z.Z.Z.Z.Z.Z.Z.M.=.8.8.8."
};
