/* XPM */
static char *output_onlinepngtools__7_1708292993[] = {
/* columns rows colors chars-per-pixel */
"64 64 202 2 ",
"   c #02301D",
".  c #012F23",
"X  c #0D2D22",
"o  c #022F29",
"O  c #082E2D",
"+  c #122F22",
"@  c #033324",
"#  c #02322B",
"$  c #033A2B",
"%  c #12362B",
"&  c #043532",
"*  c #083436",
"=  c #043A35",
"-  c #083C36",
";  c #053D3A",
":  c #083C38",
">  c #4D3F3D",
",  c #5E3D36",
"<  c #533D3B",
"1  c #5B3F39",
"2  c #6C372D",
"3  c #6E392E",
"4  c #7D3226",
"5  c #74362B",
"6  c #7B342A",
"7  c #7A372A",
"8  c #71392E",
"9  c #673634",
"0  c #6C3731",
"q  c #643C34",
"w  c #6B3A32",
"e  c #613D3B",
"r  c #753C33",
"t  c #7E3D31",
"y  c #054137",
"u  c #05423D",
"i  c #4E443F",
"p  c #53433D",
"a  c #5A413A",
"s  c #63433A",
"d  c #72453D",
"f  c #7C463E",
"g  c #7B493E",
"h  c #073F41",
"j  c #4B3F40",
"k  c #054443",
"l  c #0B4745",
"z  c #064945",
"x  c #064749",
"c  c #064B4B",
"v  c #094A4B",
"b  c #06524D",
"n  c #064D52",
"m  c #094E52",
"M  c #075553",
"N  c #085453",
"B  c #075953",
"V  c #085957",
"C  c #075E5C",
"Z  c #085C5B",
"A  c #125F5B",
"S  c #3D4746",
"D  c #3C4748",
"F  c #3D4B48",
"G  c #096059",
"H  c #096363",
"J  c #096B64",
"K  c #0A656A",
"L  c #096B6B",
"P  c #0B6C72",
"I  c #0A7677",
"U  c #464542",
"Y  c #4C4541",
"T  c #434945",
"R  c #4C4945",
"E  c #404C49",
"W  c #4C4E49",
"Q  c #564944",
"!  c #5C4A42",
"~  c #554E48",
"^  c #5B524D",
"/  c #4A5452",
"(  c #4A5959",
")  c #535757",
"_  c #515855",
"`  c #5B5C5A",
"'  c #6B4642",
"]  c #6C4A44",
"[  c #674948",
"{  c #654E48",
"}  c #744442",
"|  c #794746",
" . c #734A42",
".. c #7A4A41",
"X. c #695049",
"o. c #665551",
"O. c #795B56",
"+. c #49615E",
"@. c #5B645D",
"#. c #616159",
"$. c #76615E",
"%. c #4C6463",
"&. c #476969",
"*. c #556663",
"=. c #536C6C",
"-. c #42716F",
";. c #456F73",
":. c #487675",
">. c #5B7677",
",. c #686768",
"<. c #626F72",
"1. c #AB1D0C",
"2. c #AC1F13",
"3. c #B31C1C",
"4. c #862E1E",
"5. c #8C2C1D",
"6. c #9E2516",
"7. c #952917",
"8. c #96261C",
"9. c #9C261C",
"0. c #942B1C",
"q. c #9B2A1B",
"w. c #84301F",
"e. c #A7200D",
"r. c #A8230D",
"t. c #A52514",
"y. c #AB2210",
"u. c #A3251B",
"i. c #A12919",
"p. c #A62819",
"a. c #B02319",
"s. c #862F22",
"d. c #8B2D21",
"f. c #952627",
"g. c #922B21",
"h. c #9F2A20",
"j. c #833123",
"k. c #8B3022",
"l. c #84332B",
"z. c #82392C",
"x. c #903423",
"c. c #8E3F3A",
"v. c #9D3F33",
"b. c #983E3B",
"n. c #A63F2F",
"m. c #AE3D2E",
"M. c #B43B2D",
"N. c #BB3B2A",
"B. c #A13F32",
"V. c #AD3B34",
"C. c #A63D3A",
"Z. c #B43B35",
"A. c #BC3C32",
"S. c #DB311F",
"D. c #EB2C1D",
"F. c #F42D14",
"G. c #F32E1A",
"H. c #ED3017",
"J. c #E5341E",
"K. c #ED311B",
"L. c #F03017",
"P. c #FB3318",
"I. c #CA3626",
"U. c #C53926",
"Y. c #CE3A25",
"T. c #C73728",
"R. c #C33B2A",
"E. c #CB3B2A",
"W. c #D23624",
"Q. c #DB3624",
"!. c #D63A24",
"~. c #DB3922",
"^. c #D4302C",
"/. c #DC312C",
"(. c #D33B2A",
"). c #E62D24",
"_. c #EF2B25",
"`. c #F02C26",
"'. c #E33421",
"]. c #E83320",
"[. c #E13821",
"{. c #E1312C",
"}. c #8C4235",
"|. c #83453C",
" X c #8C4439",
".X c #934236",
"XX c #9D4033",
"oX c #914339",
"OX c #A24132",
"+X c #AD4536",
"@X c #AD4639",
"#X c #B54132",
"$X c #B44538",
"%X c #854643",
"&X c #974D46",
"*X c #98554B",
"=X c #875955",
"-X c #915950",
";X c #A64841",
":X c #A65246",
">X c #8D6359",
",X c #58807E",
/* pixels */
"o o o o o o o o o o o o o o o o o o o o o o o o o o o o o o o o o o @ o o o o o o o o o o o o o o o o o o o o o o o o o o o o o ",
"                    X o . o       @           # . o   o O .                   @ @ o . o o                     @ o o o o o       ",
"y.y.r.y.y.y.y.y.r.y.. o G.K.1.r.y.y.y.y.r.y.y.r.o o `.D.u.( D D S S i y.y.y.y.e.O o _.K.1.2.r.y.y.y.r.1.y.y.r.r.o o _.K.2.y.1.r.",
"y.r.y.y.y.y.y.y.r.y.@ o L.G.2.r.y.y.y.y.r.y.y.r.o o `.,X;.&.( U i S S S E y.y.e.o o _.K.2.r.y.y.y.y.y.y.y.y.y.r.O @ _.D.1.y.y.r.",
"y.y.y.y.y.y.y.y.y.y.@ o L.K.1.y.y.r.y.y.y.y.r.r.O = >.<.%.*.*._ i i i R T F p.r.O # _.K.2.y.y.y.y.y.r.y.y.y.y.r.o o `.K.y.y.y.y.",
"r.1.y.y.y.y.y.y.y.r.  o L.K.t.r.1.t.1.y.y.r.r.e.; L *.$.` ` @.` p p p p W %.:.q.o # _.D.a.e.e.e.1.r.r.a.y.y.y.r.o o `.D.a.1.e.1.",
"D.K.K.K.y.y.y.y.y.y.  o G.K.D.K.K.G.G.K.y.r.2.6.H H O.O.=X=X=X>X>X|.|.O.@.=.:.:.o # _.K.K.D.D.K.D.K.K.K.y.y.y.r.O @ `.D.K.D.K.K.",
"G.G.G.F.r.r.r.y.r.r.O o P.G.G.G.G.G.G.F.r.r.t./ M M ] &X&X&X-X*X*X&X-X>X#.@.*.=.I o Q.G.G.G.G.G.G.G.G.F.r.r.r.3.@ o Q.G.G.G.G.G.",
"o @ # # o o O o O o + o & o o o # @ o # o o n M m c l z z c b M B u B G Z H H J P L + # @ o # @ @ o # # O o #   O o + o # @ o # ",
"o o o o o o o o o o o o o o o o o o o o o & x h k k z k k k k l u y z M M M Z Z H L # # # O o o o o o o o o o o o o o o o o o o ",
"o @ `._.2.2.a.y.2.2.2.2.2.2.2.2.o @ `.D.2.j < , 9 0 r 6 6 l.l.l.; ; Z.;Xd d ] ] ^ _ +.2.2.2.y.y.o @ `.D.2.2.a.y.2.2.2.2.2.2.2.2.",
"o # K.K.y.y.y.y.y.y.y.y.y.y.r.2.# # K.H.d.> , 9 0 3 5 l.l.k.d.x.= : N.#Xt 8 d s ! ^ / q.y.y.y.y.o & K.K.y.y.y.y.r.y.y.y.y.y.y.y.",
"o * D.K.y.y.y.y.y.r.y.y.y.y.y.y.o O K.K.> < , 2 3 5 4 s.d.0.0.g.# - R.#Xz.z.r d s ! ~ / e.y.y.y.o # D.K.y.y.y.y.y.y.y.r.y.y.y.y.",
"o # K.H.r.r.y.y.y.y.y.y.y.y.y.y.# O K.!.< , q 2 5 4 j.d.d.7.0.q.# * E.E.k.j.6 8 w s ! W t.y.y.y.o O K.K.r.r.y.y.y.y.y.r.y.y.y.y.",
"# O K.K.K.K.K.K.K.K.K.K.1.y.y.y.o # D.' d f }.v.n.M.N.U.7.q.q.9.# & W.E.R.#X#XOX.X|.%XX.W y.r.y.# O K.K.K.K.K.K.K.K.K.K.1.r.y.y.",
"@ O K.K.K.K.K.K.K.K.K.D.1.y.y.y.# # K.' f }.b.v.m.N.R.I.9.q.i.t.# - Q.(.E.R.M.m.XX.X%X .R r.y.y.@ O K.K.K.K.K.K.K.K.K.D.2.y.y.y.",
"# o o o o o o o o o o o o o o o o o = z k k u ; = & & & # & $ # # # # $ ; # = ; ; u k x v # o o # o o o # @ o o o o o o o o o o ",
"              @ @ o o o o           z k u y = y & & $ # & @ @ @   @ @ $ $ $ $ y - u u z v v                   # @ o o o o       ",
"r.y.y.y.y.y.y.r.o o `.K.1.r.r.y.1.y.Y a q 3 5 4 = & ^.W.9.t.t.t.y.t.t.i.q.0.5.w.; ; b.|.p R y.y.y.y.r.y.y.y.y.r.o o `.K.2.y.1.r.",
"y.y.y.y.y.y.r.r.O o _.K.2.2.y.y.y.y.p 1 w 2 5 w.* & ^.Q.u.t.t.y.y.t.p.i.q.q.0.w.; ; b. Xa Y y.y.y.y.y.y.y.y.y.r.o o _.D.1.y.y.y.",
"y.y.r.r.y.2.r.r.o o `.K.2.y.y.r.r.2 p , q 8 4 w.& & ^.Q.t.t.y.t.y.t.t.t.i.h.5.w.; ; b. X1 p j.y.y.r.y.y.y.y.y.r.o o `.K.2.r.y.y.",
"r.1.r.a.y.y.y.r.o o _.D.a.1.r.e.e.i p s 2 5 4 4.& & /.Q.u.t.e.e.e.e.t.i.i.q.0.5.& ; C..Xe p Y r.1.1.y.y.y.y.y.r.o o `.D.a.r.e.1.",
"D.K.D.K.y.y.y.r.o # _.D.K.K.K.D.H.] g |.2 5 4 4.& # /.'.'.].K.K.K.K.K.J.i.q.0.5.= = C.c.|. .{ K.K.K.D.K.y.y.y.r.o o `.D.K.K.K.D.",
"G.G.G.F.r.r.r.3.@ @ S.G.G.G.G.G.G.] f }.3 5 4 f.$ & T.].].K.D.G.D.K.K.K.t.q.0.f.$ = v.v. Xg ] G.G.G.G.F.y.r.r.3.@ o Q.G.G.G.G.G.",
"# @ # # O o O @ O o + @ # # @ o @ c k k h ; * $ * # % & # # # @ @ # @ & & * & $ * = - u k z c # o # # # O o #   O o + # @ o # @ ",
"o o o o o o o o o o o o o o o o # c z u h * = & & # & # # o o o o o # # o & & & & * ; u ; z c o o o o o o o o o o o o o o o o o ",
"# @ _.D.2.2.a.y.2.2.2.2.2.2.2.2.; z | c.5 6 s.5.8.9.9.u.y.u.2.2.o @ `.).u.u.8.0.d.s.6 5 9 e p d.o @ `.D.2.2.a.2.2.2.2.2.2.2.2.2.",
"o # D.K.y.y.r.y.y.y.y.y.y.y.y.y.z x |..X5 4 s.0.7.q.i.p.t.y.y.y.o # K.J.t.i.9.7.5.s.4 5 w a p 6 o # K.K.y.y.y.r.r.y.y.y.y.y.y.y.",
"o # K.K.y.y.y.y.y.y.y.y.y.y.y.y.x x |..X5 4 s.5.8.q.i.t.p.r.y.y.# O D.J.i.i.9.0.5.s.4 5 2 , p q o O K.K.y.y.y.y.y.y.y.r.y.y.y.y.",
"# O K.K.y.y.r.r.y.y.y.r.y.y.y.y.v x |..X5 4 s.0.9.q.i.t.y.y.y.y.o # K.J.t.i.q.q.5.4.4 5 3 s p a o # K.K.r.r.y.y.y.y.y.r.y.y.y.y.",
"o O K.K.K.K.K.K.K.K.K.K.1.y.y.y.c x |..XOXm.N.U.W.!.S.J.e.y.y.y.o O K.J.J.Q.~.Y.U.N.m.OX2 a p p # O K.K.K.K.K.K.K.K.K.K.1.y.y.y.",
"o O K.K.K.K.K.K.D.K.K.K.y.r.y.y.c v |.XXOXm.N.I.W.Q.[.J.t.y.y.y.# O K.K.J.Q.Q.W.U.N.m.v.2 s p i # O K.K.K.K.K.K.K.K.K.D.2.y.y.y.",
"o o o o o o o o o o o o o o o o c z u u ; ; = # & # & # # o o o @ # o # # # & # = = = ; u k z c # @ o o o o o o o o o o o o o o ",
"              $ @ o . o o       z z u y y = $ $ # & $ o o             @ @ @ $ & # & = ; k u k c               @ @ o . o o       ",
"r.2.y.y.r.r.y.r.o o `.D.2.r.y.y.R a q 3 5 w.w.5.& # {.].2.t.y.y.y.r.y.y.t.i.q.7.& ; V.B.3 , p p y.y.y.y.y.y.y.r.O o `.K.2.y.1.y.",
"a.r.y.r.r.2.y.r.o o `.K.1.2.y.y.i p a 2 5 4 4.5.& & /.J.2.y.y.y.y.y.y.t.t.6.q.7.* & V.B.0 q p a y.y.r.y.y.y.y.r.o o `.D.1.y.y.y.",
"r.r.r.y.y.y.y.r.O o _.K.2.r.r.y.p p s 2 5 4 w.5.& & /.'.t.y.y.y.y.y.y.y.p.i.q.7.& = Z.B.2 , p q y.y.r.y.y.y.y.r.o o _.D.y.y.y.y.",
"1.1.1.a.y.y.y.r.O o _.K.a.e.1.e.a p , w 5 4 j.5.* # {.'.p.e.1.e.e.e.r.p.t.q.7.7.& = V.b.9 1 p 5 e.1.r.a.y.y.y.r.o # _.K.a.1.e.1.",
"K.K.K.K.y.y.y.r.o o _.D.K.K.K.D.OX .|.}.8 4 j.5.= # /.'.K.K.K.D.K.K.K.J.p.q.q.7.& = V.XX X|.] U.K.D.K.K.r.y.y.r.O @ _.D.K.D.K.K.",
"G.G.G.F.r.r.r.3.  # S.G.G.G.G.G.J.d |..X3 4 j.f.$ & E.].K.D.G.G.G.K.F.H.i.6.7.h.$ = v.XX X|. .D.G.G.G.F.r.r.r.3.@ o Q.G.G.G.G.G.",
"@ # @ # o o o @ O o + o # @ # o $ z z k ; ; ; $ * # % & $ # # # @ # # # & & & $ * = = u k z c # @ o # # O o #   O o + o # @ o # ",
"o o o o o o o o o O o o o o o o # x z k ; ; ; = & & & # # o o o # o # # # & # & & = ; u k x x @ o o o o o o o o o o o o o o o o ",
"o @ _._.2.2.2.2.2.2.2.y.2.2.2.2.o c | |.0 5 j.s.g.h.h.u.t.2.2.2.o @ ).).p.9.8.0.d.s.6 0 e 1 Y 2.o @ `.D.2.2.a.y.y.2.2.2.2.2.2.2.",
"o # K.K.y.y.y.y.y.y.y.y.y.y.y.y.o c  .|.9 5 4 s.x.0.q.i.t.t.t.y.o & ].~.6.8.8.5.s.6 5 w q p p y.o & K.K.y.y.y.y.r.y.y.y.y.r.y.y.",
"# O K.K.y.y.y.y.y.y.y.y.r.y.y.y.# x  .g 9 8 6 s.d.0.q.i.t.t.y.t.# & '.[.i.q.8.5.s.6 5 w 1 i j.y.o # D.K.y.y.y.y.y.y.y.r.y.y.y.y.",
"# # K.K.y.y.y.y.y.r.y.y.a.y.y.y.@ # ] ..q 5 6 j.4.0.0.q.t.t.t.y.o & '.~.q.q.8.5.s.5 8 w 1 p y.y.o O K.K.r.r.y.y.y.y.y.r.y.y.y.y.",
"@ # K.D.K.K.K.K.K.K.K.K.1.r.y.y.o O { ..|..XXXm.N.U.Y.!.t.t.t.y.o # '.Q.W.Y.U.N.m.B..X|.< i r.y.# O K.K.K.K.K.K.K.K.K.K.1.y.y.y.",
"o * K.K.K.K.K.K.K.K.K.G.1.r.r.r.o * {  .|. XXXm.M.R.E.(.9.6.t.t.# * '.Q.W.I.U.N.B.v. X|.< i y.y.@ O K.K.K.K.K.K.K.K.K.D.2.y.y.y.",
"o o o o o o o o o o @ o o o o o o o ; v z k y u ; = $ = & # # # # $ & & & $ & & ; h k k x # o o # o o o o o o o o o o o o o o o ",
"              @ @ o . o o             b z u u y - = # ; & $ @ @ @ @ $ @ @ $ $ = ; ; u h x                     @ o o o o o       ",
"r.y.r.1.y.y.y.r.O o _.D.2.y.2.r.y.y.y.W Q a s 8 h ; A.E.g.q.q.6.6.q.q.0.5.k.j.5 ; k %X} < y.y.y.y.y.r.y.y.y.y.r.o o `.K.2.y.r.1.",
"y.y.y.y.y.y.y.r.O o _.K.1.y.y.y.y.y.y.g.W p s 3 k ; Z.N.g.0.7.q.q.q.0.5.d.j.4 3 ; k f ' t.y.y.y.y.y.y.y.y.y.y.r.o o `.D.2.y.y.r.",
"y.y.r.y.y.y.1.r.o o `.K.2.r.y.y.r.y.y.y./ ~ ! s l k C.#Xd.x.0.0.g.0.0.k.j.4 5 2 h h } [ r.y.y.y.r.y.y.y.y.y.y.r.# o `.D.1.y.y.y.",
"r.1.r.a.r.y.r.r.o o _.K.a.1.e.1.r.r.1.y.z./ ~ ! v z ;X@Xl.s.4.k.5.k.j.l.4 5 8 2 h k ' I.a.1.1.r.1.1.r.y.y.y.y.r.o o `.K.a.r.1.1.",
"D.K.K.K.y.a.r.r.O o _.D.D.K.K.K.K.K.K.K.r.( / ^ N N &X;X@XA.M.M.#X#XA.+X6 r 9 9 h h [ D.K.D.K.D.K.K.K.K.y.y.y.r.O o _.D.K.D.K.K.",
"G.G.G.F.r.r.r.3.  o Q.G.G.G.G.G.G.G.G.F.r.x.%.` G V =X:X:X@XV.#X$X@X+XOXw w q e x x I.G.G.G.G.G.G.G.G.G.r.r.r.3.@ o Q.G.G.G.G.G.",
"@ # # o O o #   O # + # @ o # @ # @ # o o o I L K H A G C B u b N b x x x x c b m N + # o @ # # @ # o # O o #   O o + o # @ o # ",
"o o o o o o # o o o o o o o o o o o o o o o # I I L L H H N b Z V M N v c M N M V o o o o o o o o o o o o @ # O o o o o o o o o ",
"o @ `.D.2.2.a.2.2.2.2.2.2.2.2.2.# @ `.).2.2.2.h.:.=.=.*.o., e o.G C =X=X~ _ ( ( p.2.2.y.2.2.2.2.o @ `.D.2.2.a.y.2.2.2.2.2.2.2.2.",
"o # K.K.y.y.y.y.y.y.y.y.y.y.y.y.@ O K.K.y.y.y.y. X:.%.W p p a ~ L K $.$.) +.&.q.y.y.y.y.y.y.y.y.o & K.K.y.y.y.y.r.r.r.r.y.y.y.r.",
"o O D.K.y.y.y.r.y.y.y.r.y.y.y.y.o # K.K.y.y.y.y.y.0.F T Y Y i p C P ,.,.&.-.i.y.y.y.y.y.y.y.y.y.o # D.K.r.y.y.y.y.y.y.r.y.y.y.y.",
"o & K.K.r.r.y.y.y.y.y.r.y.y.y.y.@ O G.K.y.y.y.r.y.y.y.F S T T U v K <.>.:.t.y.y.r.r.y.y.y.y.y.y.o O K.K.r.r.y.y.y.y.y.r.y.y.y.y.",
"# O K.K.K.K.K.K.K.K.K.K.1.y.y.y.@ * K.K.K.K.K.K.K.K.K.K.6.T F S n n ,.'.K.K.K.K.K.D.K.K.1.y.y.y.# O K.K.K.D.K.K.K.K.K.K.1.y.y.y.",
"@ O K.K.K.K.K.K.K.K.K.D.2.y.y.y.# # K.K.K.K.K.K.K.K.K.K.2.y.y.r.# O K.K.K.K.K.K.K.K.K.K.2.y.y.y.@ O K.K.K.K.K.K.K.K.K.D.2.y.y.y."
};
