/* XPM */
static char *COINS_1708865405[] = {
/* columns rows colors chars-per-pixel */
"254 54 3 1 ",
"  c None",
". c #FF6100",
"X c #FF6200",
/* pixels */
"                                                                                                                                                                                 XXXXXXXXXXXX                                                                 ",
"                                                                                                                                  XXXX                                          .XXXXXXXXXXXX                       XXXXX                                     ",
"                    X.XXXXXXXXXXX                                     XXXXXXXXXXXXXXXXX                    XXXXXXXXXXXXXXXXXXXXXXXXXXXX      XXXXXXXXXXXXXXXXXXXX               .XXXXXXXXXXXX                  XXXXXXXXXXXXXXX                                ",
"                 XXXXXXXXXXXXXXXXXXXX                               XXXXXXXXXXXXXXXXXXXXX                  XXXXXXXXXXXXXXXXXXXXXXXXXXXX      XXXXXXXXXXXXXXXXXXXX               XXXXXXXXXXXX                XXXXXXXXXXXXXXXXXXXX                              ",
"              .XXXXXXXXXXXXXXXXXXXXXXXX                           XXXXXXXXXXXXXXXXXXXXXXXXX                XXXXXXXXXXXXXXXXXXXXXXXXXXXX      XXXXXXXXXXXXXXXXXXXXX              XXXXXXXXXXXX              XXXXXXXXXXXXXXXXXXXXXXXX                            ",
"            XXXXXXXXXXXXXXXXXXXXXXXXXXXXX                       XXXXXXXXXXXXXXXXXXXXXXXXXXXXX              XXXXXXXXXXXXXXXXXXXXXXXXXXXX      XXXXXXXXXXXXXXXXXXXXX              XXXXXXXXXXXX            XXXXXXXXXXXXXXXXXXXXXXXXXXXX                          ",
"          XXXXXXXXXXXXXXXXXXXXXXXXXXXXXXXX                    XXXXXXXXXXXXXXXXXXXXXXXXXXXXXXXX             XXXXXXXXXXXXXXXXXXXXXXXXXXXX      XXXXXXXXXXXXXXXXXXXXX              .XXXXXXXXXXX          XXXXXXXXXXXXXXXXXXXXXXXXXXXXXXX                         ",
"         XXXXXXXXXXXXXXXXXXXXXXXXXXXXXXXXXX                  XXXXXXXXXXXXXXXXXXXXXXXXXXXXXXXXXXX           XXXXXXXXXXXXXXXXXXXXXXXXXXXX      XXXXXXXXXXXXXXXXXXXXXX             XXXXXXXXXXXX         XXXXXXXXXXXXXXXXXXXXXXXXXXXXXXXXX                        ",
"        XXXXXXXXXXXXXXXXXXXXXXXXXXXXXXXXXXXX                XXXXXXXXXXXXXXXXXXXXXXXXXXXXXXXXXXXXX          XXXXXXXXXXXXXXXXXXXXXXXXXXXX      XXXXXXXXXXXXXXXXXXXXXX             XXXXXXXXXXXX        XXXXXXXXXXXXXXXXXXXXXXXXXXXXXXXXXXX                       ",
"       XXXXXXXXXXXXXXXXXXXXXXXXXXXXXXXXXXXXXX              XXXXXXXXXXXXXX              XXXXXXXXXX          XXXXXXXXXXXXXXXXXXXXXXXXXXXX      XXXXXXXXXXXXXXXXXXXXXXX            XXXXXXXXXXXX       XXXXXXXXXXXXXXXX         XXXXXXXXXXXX                      ",
"      XXXXXXXXXX                  XXXXXXXXXXXX             XXXXXXXXX                   XXXXXXXXXXX         XXX   XXXXXXXXXXXXX               XXXXXXXXXXXXXXXXXXXXXXX            XXXXXXXXXXXX       XXXXXXXXXXXX             XXXXXXXXXXXXX                     ",
"     XXXXXXXXXXX                    XXXXXXXXXXX           XXXXXXXXXX                   XXXXXXXXXXXX              XXXXXXXXXXXXX               XXXXXXXXXXXXXXXXXXXXXXXX           XXXXXXXXXXXX      XXXXXXXXXXXXX             XXXXXXXXXXXXX                     ",
"    XXXXXXXXXXXX                    XXXXXXXXXXXX         XXXXXXXXXXX                   XXXXXXXXXXXX              XXXXXXXXXXXXX               XXXXXXXXXXXXXXXXXXXXXXXX           XXXXXXXXXXX       XXXXXXXXXXXXX             XXXXXXXXXXXXXX                    ",
"    XXXXXXXXXXXX                    XXXXXXXXXXXX         XXXXXXXXXXX                   XXXXXXXXXXXXX             XXXXXXXXXXXXX               XXXXXXXXXXXXXXXXXXXXXXXXX          XXXXXXXXXXX       XXXXXXXXXXXXX             XXXXXXXXXXXXXX                    ",
"   XXXXXXXXXXXXX                    XXXXXXXXXXXXX        XXXXXXXXXXX                   XXXXXXXXXXXXX             XXXXXXXXXXXXX               XXXXXXXXXXXXXXXXXXXXXXXXX          XXXXXXXXXXX      XXXXXXXXXXXXXX              XXXXXXXXXXXXX                    ",
"   XXXXXXXXXXXXX                    XXXXXXXXXXXXX       XXXXXXXXXXXX                   XXXXXXXXXXXXXX            XXXXXXXXXXXXX               XXXXXXXXXXX XXXXXXXXXXXXXX         XXXXXXXXXXX      XXXXXXXXXXXXXX              XXXXXXXXXXXXXX                   ",
"  XXXXXXXXXXXXX                     XXXXXXXXXXXXXX      XXXXXXXXXXXX                   XXXXXXXXXXXXXX            XXXXXXXXXXXXX               XXXXXXXXXXX XXXXXXXXXXXXXX         XXXXXXXXXXX      XXXXXXXXXXXXXX              XXXXXXXXXXXXXX                   ",
"  XXXXXXXXXXXXX                     XXXXXXXXXXXXXX     XXXXXXXXXXXXX                   XXXXXXXXXXXXXX            XXXXXXXXXXXXX               XXXXXXXXXXX  XXXXXXXXXXXXXX        XXXXXXXXXXX       XXXXXXXXXXXXX              XXXXXXXXXXXXXX                   ",
" XXXXXXXXXXXXXX                     XXXXXXXXXXXXXX     XXXXXXXXXXXXX                   XXXXXXXXXXXXXXX           XXXXXXXXXXXXX               XXXXXXXXXXX  XXXXXXXXXXXXXX        XXXXXXXXXXX       XXXXXXXXXXXXX             XXXXXXXXXXXXXXX                   ",
" XXXXXXXXXXXXXX                     XXXXXXXXXXXXXXX    XXXXXXXXXXXXX                   XXXXXXXXXXXXXXX           XXXXXXXXXXXXX               XXXXXXXXXXX   XXXXXXXXXXXXXX       XXXXXXXXXXX       XXXXXXXXXXXXX             XXXXXXXXX                         ",
" XXXXXXXXXXXXXX                     XXXXXXXXXXXXXXX    XXXXXXXXXXXXX                    XXXXXXXXXXXXXX           XXXXXXXXXXXXX               XXXXXXXXXXX   XXXXXXXXXXXXXX       XXXXXXXXXXX       XXXXXXXXXXXXX                                               ",
" XXXXXXXXXXXXXX                    XXXXXXXXXXXXXXXX    XXXXXXXXXXXXX                    XXXXXXXXXXXXXX           XXXXXXXXXXXXX               XXXXXXXXXXX    XXXXXXXXXXXXXX      XXXXXXXXXXX        XXXXXXXXXXXX                                        XX     ",
" XXXXXXXXXXXXXX                    XXXXXXXXXXXX        XXXXXXXXXXXXX                    XXXXXXXXXXXXXXX          XXXXXXXXXXXXX               XXXXXXXXXXX    XXXXXXXXXXXXXX      XXXXXXXXXXX        XXXXXXXXXXXXX                                    XXXXXXXX  ",
"XXXXXXXXXXXXXXX                                       XXXXXXXXXXXXXXX                   XXXXXXXXXXXXXXX          XXXXXXXXXXXXX               XXXXXXXXXXX     XXXXXXXXXXXXXX     XXXXXXXXXX          XXXXXXXXXXXXXXXXXXX                            XXXXXXXXXX ",
"XXXXXXXXXXXXXXX                                       XXXXXXXXXXXXXXX                   XXXXXXXXXXXXXXX          XXXXXXXXXXXXX               XXXXXXXXXXX     XXXXXXXXXXXXXX     XXXXXXXXXX          XXXXXXXXXXXXXXXXXXXXXXXX                      XXXXXXXXXXX ",
"XXXXXXXXXXXXXXX                                       XXXXXXXXXXXXXXX                   XXXXXXXXXXXXXXX          XXXXXXXXXXXXX               XXXXXXXXXXX      XXXXXXXXXXXXXX    XXXXXXXXXX           XXXXXXXXXXXXXXXXXXXXXXXXXXX                  XXXXXXXXXXXX",
"XXXXXXXXXXXXXXX                                       XXXXXXXXXXXXXXX                   XXXXXXXXXXXXXXX          XXXXXXXXXXXXX               XXXXXXXXXXX      XXXXXXXXXXXXXX    XXXXXXXXXX            XXXXXXXXXXXXXXXXXXXXXXXXXXXXX               XXXXXXXXXXXX",
"XXXXXXXXXXXXXXX                                       XXXXXXXXXXXXXXX                   XXXXXXXXXXXXXXX          XXXXXXXXXXXXX               XXXXXXXXXXX       XXXXXXXXXXXXXX   XXXXXXXXXX              XXXXXXXXXXXXXXXXXXXXXXXXXXXXXX            XXXXXXXXXXX ",
"XXXXXXXXXXXXXXX                                        XXXXXXXXXXXXXX                   XXXXXXXXXXXXXXX         XXXXXXXXXXXXXX               XXXXXXXXXXX       XXXXXXXXXXXXXX   XXXXXXXXXX                XXXXXXXXXXXXXXXXXXXXXXXXXXXXX            XXXXXXXXXX ",
"XXXXXXXXXXXXXXX                                        XXXXXXXXXXXXXX                   XXXXXXXXXXXXXXX         XXXXXXXXXXXXXX               XXXXXXXXXXX       XXXXXXXXXXXXXXX .XXXXXXXXXX                  XXXXXXXXXXXXXXXXXXXXXXXXXXXXX           XXXXXXXX  ",
"XXXXXXXXXXXXXXX                                        XXXXXXXXXXXXXX                   XXXXXXXXXXXXXXX         XXXXXXXXXXXXXX               XXXXXXXXXXX        XXXXXXXXXXXXXX XXXXXXXXXXX                     XXXXXXXXXXXXXXXXXXXXXXXXXXX            ..X     ",
"XXXXXXXXXXXXXXX                                        XXXXXXXXXXXXXX                  XXXXXXXXXXXXXXX          XXXXXXXXXXXXXX               XXXXXXXXXXX        XXXXXXXXXXXXXXXXXXXXXXXXXX                          .XXXXXXXXXXXXXXXXXXXXX                    ",
"XXXXXXXXXXXXXXX                                        XXXXXXXXXXXXXX                  XXXXXXXXXXXXXXX          XXXXXXXXXXXXXX               XXXXXXXXXXX         .XXXXXXXXXXXXXXXXXXXXXXXX                                 XXXXXXXXXXXXXXXX                   ",
"XXXXXXXXXXXXXXX                   XXX                  XXXXXXXXXXXXXX                  XXXXXXXXXXXXXXX          XXXXXXXXXXXXXX               XXXXXXXXXXX         .XXXXXXXXXXXXXXXXXXXXXXXX                                    XXXXXXXXXXXXXX                  ",
"XXXXXXXXXXXXXXX                   XXXXXXXXXXXXXXXXX    XXXXXXXXXXXXXX                  XXXXXXXXXXXXXXX          XXXXXXXXXXXXXX               XXXXXXXXXXX          XXXXXXXXXXXXXXXXXXXXXXXX                                    XXXXXXXXXXXXXX                  ",
"XXXXXXXXXXXXXXX                   XXXXXXXXXXXXXXXXX     XXXXXXXXXXXXX                  XXXXXXXXXXXXXXX          XXXXXXXXXXXXXX               XXXXXXXXXXX          XXXXXXXXXXXXXXXXXXXXXXX       XXXXXXXXXXXXXX                .XXXXXXXXXXXXX                  ",
" XXXXXXXXXXXXXX                   XXXXXXXXXXXXXXXX      XXXXXXXXXXXXX                  XXXXXXXXXXXXXX           XXXXXXXXXXXXXX               XXXXXXXXXXX           XXXXXXXXXXXXXXXXXXXXXX       XXXXXXXXXXXXXX                .XXXXXXXXXXXXX                  ",
" XXXXXXXXXXXXXXX                  XXXXXXXXXXXXXXXX      XXXXXXXXXXXXX                  XXXXXXXXXXXXXX           XXXXXXXXXXXXXX               XXXXXXXXXXX           XXXXXXXXXXXXXXXXXXXXXX        XXXXXXXXXXXXX                XXXXXXXXXXXXXX                  ",
" XXXXXXXXXXXXXXX                  XXXXXXXXXXXXXXXX       XXXXXXXXXXXXX                 XXXXXXXXXXXXX            .XXXXXXXXXXXXX               XXXXXXXXXXX            XXXXXXXXXXXXXXXXXXXXX        XXXXXXXXXXXXX                XXXXXXXXXXXXXX                  ",
" XXXXXXXXXXXXXXX                  XXXXXXXXXXXXXXX        XXXXXXXXXXXXX                 XXXXXXXXXXXXX            XXXXXXXXXXXXXX               XXXXXXXXXXX            XXXXXXXXXXXXXXXXXXXXX        XXXXXXXXXXXXX                XXXXXXXXXXXXXX                  ",
"  XXXXXXXXXXXXXX                  XXXXXXXXXXXXXXX         XXXXXXXXXXXX                 XXXXXXXXXXXX             XXXXXXXXXXXXXX               XXXXXXXXXXX             XXXXXXXXXXXXXXXXXXXX        XXXXXXXXXXXXX                XXXXXXXXXXXXXX                  ",
"  XXXXXXXXXXXXXX                  XXXXXXXXXXXXXX          XXXXXXXXXXXX                 XXXXXXXXXXXX             XXXXXXXXXXXXXX              XXXXXXXXXXXX             XXXXXXXXXXXXXXXXXXXX         XXXXXXXXXXXX                XXXXXXXXXXXXXX                  ",
"   XXXXXXXXXXXX.                  XXXXXXXXXXXXXX           XXXXXXXXXXX                 XXXXXXXXXXX              XXXXXXXXXXXXXX              XXXXXXXXXXXXX             XXXXXXXXXXXXXXXXXXX         XXXXXXXXXXXX                XXXXXXXXXXXXX                   ",
"   XXXXXXXXXXXXX                  XXXXXXXXXXXXX            XXXXXXXXXXXXXXX         XXXXXXXXXXXXXX         XXXXXXXXXXXXXXXXXXXXXXXXXXX       XXXXXXXXXXXXX             XXXXXXXXXXXXXXXXXXX          XXXXXXXXXXXX               XXXXXXXXXXXXX                   ",
"    XXXXXXXXXXXX                  XXXXXXXXXXXX              XXXXXXXXXXXXXXXXXXXXXXXXXXXXXXXXXXXXX         .XXXXXXXXXXXXXXXXXXXXXXXXXX       .XXXXXXXXXXXX              XXXXXXXXXXXXXXXXXX           XXXXXXXXXXX               XXXXXXXXXXXXX            XX     ",
"    XXXXXXXXXXXXXX               XXXXXXXXXXXXX               XXXXXXXXXXXXXXXXXXXXXXXXXXXXXXXXXXX          XXXXXXXXXXXXXXXXXXXXXXXXXXX       .XXXXXXXXXXXX              XXXXXXXXXXXXXXXXXX            XXXXXXXXXXXXXXXXXXXXXXXXXXXXXXXXXXXXX          XXXXXXXX  ",
"     XXXXXXXXXXXXXXXXXXXXX       XXXXXXXXXXXX                 XXXXXXXXXXXXXXXXXXXXXXXXXXXXXXXX            XXXXXXXXXXXXXXXXXXXXXXXXXXX       XXXXXXXXXXXXX               XXXXXXXXXXXXXXXXX             XXXXXXXXXXXXXXXXXXXXXXXXXXXXXXXXXXX          XXXXXXXXXX ",
"      XXXXXXXXXXXXXXXXXXXXXXXXXXXXXXXXXXXXXX                   XXXXXXXXXXXXXXXXXXXXXXXXXXXXXX             XXXXXXXXXXXXXXXXXXXXXXXXXXX       XXXXXXXXXXXXX               XXXXXXXXXXXXXXXXX              XXXXXXXXXXXXXXXXXXXXXXXXXXXXXXXXX          XXXXXXXXXXX ",
"       XXXXXXXXXXXXXXXXXXXXXXXXXXXXXXXXXXXX                     XXXXXXXXXXXXXXXXXXXXXXXXXXXX              XXXXXXXXXXXXXXXXXXXXXXXXXXX       XXXXXXXXXXXXX                XXXXXXXXXXXXXXXX               XXXXXXXXXXXXXXXXXXXXXXXXXXXXXXX           XXXXXXXXXXXX",
"         XXXXXXXXXXXXXXXXXXXXXXXXXXXXXXXX                         XXXXXXXXXXXXXXXXXXXXXXXX                XXXXXXXXXXXXXXXXXXXXXXXXXXX       XXXXXXXXXXXXX                XXXXXXXXXXXXXXXX                XXXXXXXXXXXXXXXXXXXXXXXXXXXX             XXXXXXXXXXXX",
"          XXXXXXXXXXXXXXXXXXXXXXXXXXXXX                             XXXXXXXXXXXXXXXXXXXX                  XXXXXXXXXXXXXXXXXXXXXXXXXXX       XXXXXXXXXXXXX                 XXXXXXXXXXXXXXX                  XXXXXXXXXXXXXXXXXXXXXXXX               XXXXXXXXXXX ",
"            XXXXXXXXXXXXXXXXXXXXXXXXXX                                 XXXXXXXXXXXXXX                      XXXXXXXXXXXXXXXXXXXXXXXXXX       XXXXXX.XXXXXX                 XXXXXXXXXXXXXXX                     XXXXXXXXXXXXXXXXXX                   XXXXXXXXX. ",
"               XXXXXXXXXXXXXXXXXXX                                         XX                                                                                                XXXXXXX                                XXXXXX                          XXXXXXXX  ",
"                    X...XXXXX                                                                                                                                                                                                                         XXX     "
};
