/* XPM */
static char *MOVES_1708865405[] = {
/* columns rows colors chars-per-pixel */
"256 51 3 1 ",
"  c None",
". c #FF6100",
"X c #FF6200",
/* pixels */
"                                                                                                                                                 ..........                                                                                                     ",
"                    .XX.              ................X                        X.XXXXXXXXXX.X                      X.X...XXXXX.                 XXXXXXXXXXX                            ..XXXXXXXX                  .XXXXXXXXXXX..                               ",
"      XX.XXXXXXXXXXXXXXX             XXXXXXXXXXXXXXXXXX                     .XXXXXXXXXXXXXXXXXX.               .XXXXXXXXXXXXXX.                 XXXXXXXXXX.     XXXXXXXXXXXXXXXXXXXXXXXXXXXXXXXXX              X.XXXXXXXXXXXXXXXXXX                             ",
"      XXXXXXXXXXXXXXXXXXX            .XXXXXXXXXXXXXXXXX                   .XXXXXXXXXXXXXXXXXXXXXXX              XXXXXXXXXXXXXXX                 XXXXXXXXXX.     .XXXXXXXXXXXXXXXXXXXXXXXXXXXXXXXX             XXXXXXXXXXXXXXXXXXXXXX.                           ",
"      XXXXXXXXXXXXXXXXXX.            XXXXXXXXXXXXXXXXXX                 XXXXXXXXXXXXXXXXXXXXXXXXXXXX            XXXXXXXXXXXXXXX                 XXXXXXXXXX      .XXXXXXXXXXXXXXXXXXXXXXXXXXXXXXXX           .XXXXXXXXXXXXXXXXXXXXXXXXXX                         ",
"      XXXXXXXXXXXXXXXXXXX            XXXXXXXXXXXXXXXXXX                XXXXXXXXXXXXXXXXXXXXXXXXXXXXX.           .XXXXXXXXXXXXXX                 XXXXXXXXX.      .XXXXXXXXXXXXXXXXXXXXXXXXXXXXXXXX          XXXXXXXXXXXXXXXXXXXXXXXXXXXX.                        ",
"     ..XXXXXXXXXXXXXXXXXX            XXXXXXXXXXXXXXXXXX               XXXXXXXXXXXXXXXXXXXXXXXXXXXXXXXX           XXXXXXXXXXXXXXX               .XXXXXXXXXX      XXXXXXXXXXXXXXXXXXXXXXXXXXXXXXXXX        XXXXXXXXXXXXXXXXXXXXXXXXXXXXXXX.                       ",
"     ..XXXXXXXXXXXXXXXXXX            XXXXXXXXXXXXXXXXXX              XXXXXXXXXXXXXXX.X........XXXXXXXXX          XXXXXXXXXXXXXXX               .XXXXXXXXX       .XXXXXXXXXXXXXXXXXXXXXXXXXXXXXXXX        XXXXXXXXXXXXXXXXXXXXXXXXXXXXXXXX.                      ",
"     .XXXXXXXXXXXXXXXXXXX.           XXXXXXXXXXXXXXXXXX             XXXXXXXX..X               XXXXXXXXXX         XXXXXXXXXXXXXXX               XXXXXXXXX.       .XXXXXXXXXXXXXXXXXXXXXXXXXX.....X       XXXXXXXXXXXXXXX        XXXXXXXXXXX.                     ",
"     XXXXXXXXXXXXXXXXXXXXX          XXXXXXXXXXXXXXXXXXX            .XXXXXXXX                  XXXXXXXXXXX        .XXXXXXXXXXXXXX               XXXXXXXXXX       .XXXXXXXXXXXXX                         .XXXXXXXXXX.             XXXXXXXXXXX                     ",
"     XXXXXXXXXXXXXXXXXXXXX          .XXXXXXXXXXXXXXXXXX.          .XXXXXXXXX                  XXXXXXXXXXXX        XXXXXXXXXXXXXX.             XXXXXXXXXX        XXXXXXXXXXXXX                          XXXXXXXXXXX.             XXXXXXXXXXX.                    ",
"     .XXXXXXXXXXXXXXXXXXXX          .XXXXXXXXXXXXXXXXXXX          XXXXXXXXXX                  XXXXXXXXXXXX        XXXXXXXXXXXXXXX             .XXXXXXXXX        .XXXXXXXXXXXX                         XXXXXXXXXXXX.             XXXXXXXXXXXX                    ",
"     .XXXXXXXXXXXXXXXXXXXXX         XXXXXXXXXXXXXXXXXXX.         .XXXXXXXXXX                  .XXXXXXXXXXX.       XXXXXXXXXXXXXXX             XXXXXXXXX.        .XXXXXXXXXXXX                         .XXXXXXXXXXXX             XXXXXXXXXXXX.                   ",
"     XXXXXXXXXXXXXXXXXXXXXX         XXXXXXXXXXXXXXXXXXX.         XXXXXXXXXXX                  .XXXXXXXXXXX.       .XXXXXXXXXXXXXX             XXXXXXXXX.        .XXXXXXXXXXXX                         XXXXXXXXXXXXX             XXXXXXXXXXXXX                   ",
"     XXXXXXXXXXXXXXXXXXXXX.         XXXXXXXXXXXXXXXXXXX.        .XXXXXXXXXXX                  .XXXXXXXXXXXX        XXXXXXXXXXXXXX             XXXXXXXXX         XXXXXXXXXXXXX                         XXXXXXXXXXXX.             XXXXXXXXXXXXX                   ",
"     XXXXXXXXXX.XXXXXXXXXXX        XXXXXXXX.XXXXXXXXXXX.        .XXXXXXXXXXX                   XXXXXXXXXXXX.       XXXXXXXXXXXXXXX           XXXXXXXXXX         .XXXXXXXXXXXX                         XXXXXXXXXXXXX             XXXXXXXXXXXXX.                  ",
"     XXXXXXXXX..XXXXXXXXXXX        XXXXXXX.XXXXXXXXXXXX.        XXXXXXXXXXXX                   XXXXXXXXXXXXX       XXXXXXXXXXXXXX.           XXXXXXXXXX         XXXXXXXXXXXXX                         XXXXXXXXXXXXX             XXXXXXXXXXXXX.                  ",
"     XXXXXXXXX  XXXXXXXXXXX.       .XXXXXX  XXXXXXXXXXXX        XXXXXXXXXXXX                   XXXXXXXXXXXXX       .XXXXXXXXXXXXXX           XXXXXXXXX          .XXXXXXXXXXXX                         .XXXXXXXXXXXX             XXXXXXX.XXX.                    ",
"    XXXXXXXXXX  XXXXXXXXXXXX       XXXXXXX  XXXXXXXXXXXX       .XXXXXXXXXXXX                   XXXXXXXXXXXXXX       XXXXXXXXXXXXXX           XXXXXXXXX          .XXXXXXXXXXXX                         .XXXXXXXXXXX.             .X                              ",
"    XXXXXXXXXX  XXXXXXXXXXXX       XXXXXXX  XXXXXXXXXXXX       .XXXXXXXXXXXX                   XXXXXXXXXXXXX.       XXXXXXXXXXXXXX.         XXXXXXXXX.          .XXXXXXXXXXXX                          XXXXXXXXXXXX                                             ",
"    .XXXXXXXXX  .XXXXXXXXXXX       XXXXXX.  XXXXXXXXXXXX       .XXXXXXXXXXXX                   XXXXXXXXXXXXXX       XXXXXXXXXXXXXXX         .XXXXXXXX.          .XXXXXXXXXXXXXXXX..XX...XXXXX          XXXXXXXXXXXX                                   X.XXXX.   ",
"    .XXXXXXXXX  .XXXXXXXXXXXX     XXXXXXX.  XXXXXXXXXXXX       XXXXXXXXXXXXX                   XXXXXXXXXXXXXX       XXXXXXXXXXXXXXX         XXXXXXXXX           .XXXXXXXXXXXXXXXXXXXXXXXXXXX.           XXXXXXXXXXXXXXXXX                            XXXXXXXX.  ",
"    XXXXXXXXXX   XXXXXXXXXXXX     .XXXXXX   XXXXXXXXXXXX.      .XXXXXXXXXXXX                   XXXXXXXXXXXXXX        XXXXXXXXXXXXXX         XXXXXXXXX           XXXXXXXXXXXXXXXXXXXXXXXXXXXX.            XXXXXXXXXXXXXXXXXXX...                     XXXXXXXXXX. ",
"    XXXXXXXXXX   XXXXXXXXXXXX     XXXXXXX   XXXXXXXXXXXX.      XXXXXXXXXXXXX.                  XXXXXXXXXXXXXX        XXXXXXXXXXXXXX        XXXXXXXXXX           XXXXXXXXXXXXXXXXXXXXXXXXXXXXX             XXXXXXXXXXXXXXXXXXXXXXXX.                 XXXXXXXXXXX ",
"    XXXXXXXXXX   .XXXXXXXXXXX     XXXXXXX   XXXXXXXXXXXXX      XXXXXXXXXXXXX.                  XXXXXXXXXXXXXX        XXXXXXXXXXXXXXX       XXXXXXXXX.           XXXXXXXXXXXXXXXXXXXXXXXXXXXX.              XXXXXXXXXXXXXXXXXXXXXXXXXXX              XXXXXXXXXXX ",
"    XXXXXXXXXX   .XXXXXXXXXXX     XXXXXXX   .XXXXXXXXXXX.      XXXXXXXXXXXXX.                  XXXXXXXXXXXXXX        .XXXXXXXXXXXXXX       XXXXXXXXX            XXXXXXXXXXXXXXXXXXXXXXXXXXXXX               XXXXXXXXXXXXXXXXXXXXXXXXXXXX            XXXXXXXXXXX ",
"    XXXXXXXXX.   .XXXXXXXXXXX.   XXXXXXX.   XXXXXXXXXXXX.      .XXXXXXXXXXXX.                  XXXXXXXXXXXXXX         XXXXXXXXXXXXXX       XXXXXXXXX            XXXXXXXXXXXXXXXXXXXXXXXXXXXX.                 XXXXXXXXXXXXXXXXXXXXXXXXXXX.           XXXXXXXXX  ",
"   XXXXXXXXXXX    XXXXXXXXXXXX   .XXXXXX    XXXXXXXXXXXXX      XXXXXXXXXXXXXX                  XXXXXXXXXXXXXX         XXXXXXXXXXXXXX      XXXXXXXXX.            XXXXXXXXXXXXXXXXX.XX.XX.XXXXX                   .XXXXXXXXXXXXXXXXXXXXXXXXXX           XXXXXX.   ",
"   .XXXXXXXXXX    XXXXXXXXXXXX   XXXXXXX     XXXXXXXXXXXX      .XXXXXXXXXXXX.                  XXXXXXXXXXXXXX         XXXXXXXXXXXXXX      .XXXXXXXXX            XXXXXXXXXXXX.                                      XXXXXXXXXXXXXXXXXXXXXXXXX             XX     ",
"   .XXXXXXXXX     .XXXXXXXXXXX   XXXXXXX     XXXXXXXXXXXX      .XXXXXXXXXXXX.                  XXXXXXXXXXXXX.         .XXXXXXXXXXXXXX     .XXXXXXXX             XXXXXXXXXXXXX                                            .XXXXXXXXXXXXXXXXXXX                   ",
"   .XXXXXXXXX     .XXXXXXXXXXX   XXXXXXX     XXXXXXXXXXXX       XXXXXXXXXXXX.                  XXXXXXXXXXXXX.          XXXXXXXXXXXXXX     XXXXXXXXX             XXXXXXXXXXXXX                                                   .XXXXXXXXXXXXX                  ",
"   XXXXXXXXXX      XXXXXXXXXXX. .XXXXXX.     XXXXXXXXXXXX       XXXXXXXXXXXXX                  XXXXXXXXXXXXX           XXXXXXXXXXXXXX     XXXXXXXX.             XXXXXXXXXXXXX                                                    .XXXXXXXXXXXX                  ",
"   XXXXXXXXXX      XXXXXXXXXXXX XXXXXXX      XXXXXXXXXXXXX      XXXXXXXXXXXXX                 .XXXXXXXXXXXXX           XXXXXXXXXXXXXX    XXXXXXXXXX             XXXXXXXXXXXXX                                                    .XXXXXXXXXXXX.                 ",
"   XXXXXXXXXX      XXXXXXXXXXXX XXXXXXX      .XXXXXXXXXXXX      XXXXXXXXXXXXX                 XXXXXXXXXXXXX.           XXXXXXXXXXXXXX    .XXXXXXXX              XXXXXXXXXXXX.                        XXXXXXXXXXXXX               .XXXXXXXXXXXXX                 ",
"   XXXXXXXXXX      .XXXXXXXXXXXXXXXXXXX      XXXXXXXXXXXXX       XXXXXXXXXXXX                 .XXXXXXXXXXXX.            XXXXXXXXXXXXXX   XXXXXXXXX              XXXXXXXXXXXXX                        XXXXXXXXXXXXX               .XXXXXXXXXXXX.                 ",
"  .XXXXXXXXXX       XXXXXXXXXXX.XXXXXXX      .XXXXXXXXXXX.       .XXXXXXXXXXX                 .XXXXXXXXXXXX             XXXXXXXXXXXXXX   XXXXXXXXX              XXXXXXXXXXXX.                        XXXXXXXXXXXXX                XXXXXXXXXXXX.                 ",
"  .XXXXXXXXX.       XXXXXXXXXXXXXXXXXX.      .XXXXXXXXXXXX       XXXXXXXXXXXX                 .XXXXXXXXXXXX             XXXXXXXXXXXXXX  XXXXXXXXXX              XXXXXXXXXXXXX                        XXXXXXXXXXXXX                XXXXXXXXXXXX.                 ",
"  XXXXXXXXXXX       .XXXXXXXXXXXXXXXXX       .XXXXXXXXXXXX        XXXXXXXXXXXX                XXXXXXXXXXXX              .XXXXXXXXXXXXX  .XXXXXXXX               XXXXXXXXXXXX.                         XXXXXXXXXXXX                XXXXXXXXXXXXX                 ",
"  XXXXXXXXXX.       XXXXXXXXXXXXXXXXXX        XXXXXXXXXXXX        XXXXXXXXXXXX                .XXXXXXXXXXX               XXXXXXXXXXXXX  XXXXXXXXX               XXXXXXXXXXXX.                         XXXXXXXXXXXX                XXXXXXXXXXXXX                 ",
"  XXXXXXXXXXX        XXXXXXXXXXXXXXXXX        XXXXXXXXXXXX         .XXXXXXXXXX                XXXXXXXXXX.                XXXXXXXXXXXXXX XXXXXXXXX               XXXXXXXXXXXX.                          XXXXXXXXXXX                XXXXXXXXXXXX                  ",
"  XXXXXXXXXX         XXXXXXXXXXXXXXXXX        XXXXXXXXXXXX.         XXXXXXXXX.                XXXXXXXXXX                 XXXXXXXXXXXXXX.XXXXXXXX.               XXXXXXXXXXXXX.....................     .XXXXXXXXXX               .XXXXXXXXXXX.                  ",
"  XXXXXXXXXX         XXXXXXXXXXXXXXXX.        XXXXXXXXXXXX.         XXXXXXXXXXXXXXXXXXXXXXXXXXXXXXXXXXX                  XXXXXXXXXXXXXX.XXXXXXXX.               XXXXXXXXXXXXXXXXXXXXXXXXXXXXXXXXXX      .XXXXXXXXX.              XXXXXXXXXXXX                   ",
" XXXXXXXXXXX         .XXXXXXXXXXXXXXX         XXXXXXXXXXXXX          XXXXXXXXXXXXXXXXXXXXXXXXXXXXXXXXX.                   XXXXXXXXXXXXXXXXXXXXXX                XXXXXXXXXXXXXXXXXXXXXXXXXXXXXXXXXX       XXXXXXXXXXXXXX.X.X.XXXXXXXXXXXXXXXXX         X.XXXX.   ",
" .XXXXXXXXXX         .XXXXXXXXXXXXXXX         XXXXXXXXXXXXX           .XXXXXXXXXXXXXXXXXXXXXXXXXXXXX.                     XXXXXXXXXXXXXXXXXXXXXX               XXXXXXXXXXXXXXXXXXXXXXXXXXXXXXXXXXX        .XXXXXXXXXXXXXXXXXXXXXXXXXXXXXXXX.         XXXXXXXX.  ",
" XXXXXXXXXXX          XXXXXXXXXXXXXXX         XXXXXXXXXXXXX            .XXXXXXXXXXXXXXXXXXXXXXXXXXX.                      XXXXXXXXXXXXXXXXXXXXX.               .XXXXXXXXXXXXXXXXXXXXXXXXXXXXXXXXXX         XXXXXXXXXXXXXXXXXXXXXXXXXXXXXXXX         XXXXXXXXXX. ",
" .XXXXXXXXXX          XXXXXXXXXXXXXXX         XXXXXXXXXXXXX             XXXXXXXXXXXXXXXXXXXXXXXXXXX                       .XXXXXXXXXXXXXXXXXXXX.               XXXXXXXXXXXXXXXXXXXXXXXXXXXXXXXXXXX          XXXXXXXXXXXXXXXXXXXXXXXXXXXXXX          XXXXXXXXXXX ",
" XXXXXXXXXX.          XXXXXXXXXXXXXX.         .XXXXXXXXXXXX               .XXXXXXXXXXXXXXXXXXXXX.                          XXXXXXXXXXXXXXXXXXXX.               .XXXXXXXXXXXXXXXXXXXXXXXXXXXXXXXXXX            XXXXXXXXXXXXXXXXXXXXXXXXX.            XXXXXXXXXXX ",
" XXXXXXXXXX.          .XXXXXXXXXXXXX          XXXXXXXXXXX..                 .XXXXXXXXXXXXXXXXXX                            XXXXXXXXXXXXXXXXXXXX                .XXXXXXXXXXXXXXXXXXXXXXXXXXXXXXXXXX             X.XXXXXXXXXXXXXXXXXXXX.              .XXXXXXXXXX ",
" XXXXXXXXXXX           .X...XX.X               X....                           .XXXXXXXXXXXX.                              .XXXXXXXXXXXXXXXXXXX                X..X......XX..X                                    .XXXXXXXXXXXXXXX.                  XXXXXXXXX  ",
"                                                                                   XX                                       XXXXXX                                                                                     XX                             XXXXXX.   ",
"                                                                                                                                                                                                                                                         XX     "
};
