/* XPM */
static char *_803f48887464d25f7946cd824bb27f0vJJQXQWjO9LnKqt8[] = {
/* columns rows colors chars-per-pixel */
"64 64 29 1 ",
"  c None",
". c #97FD1F",
"X c #98FD1F",
"o c #99FD1F",
"O c #98FE1F",
"+ c #99FE1F",
"@ c #97FD20",
"# c #97FE20",
"$ c #98FD20",
"% c #99FD20",
"& c #98FD21",
"* c #98FE20",
"= c #99FE20",
"- c #D1FF99",
"; c #D4FFA1",
": c #DBFFAE",
"> c #DBFFB0",
", c #E0FFBB",
"< c #E1FFBB",
"1 c #E0FFBC",
"2 c #E1FFBC",
"3 c #E1FFBD",
"4 c #E2FFBC",
"5 c #E3FFC0",
"6 c #E5FFC3",
"7 c #E6FFC6",
"8 c #E7FFC8",
"9 c #E8FFC9",
"0 c #EAFFCE",
/* pixels */
"                                                                ",
"                                                                ",
"  X*******X*******XXXXXXXXX*********X******X****X*****X******X  ",
"  *,:-0444,4444444444444444444444444,444444444444444444444444X  ",
"  @>.**@@**@************@*@@@***XXXXX***@*************XXXXXX4X  ",
"  X;*                                                      X4X  ",
"  *8X                                                      X4X  ",
"  *8X                                                      X4X  ",
"  *8X                                                      X4X  ",
"  *8X                                                      X4X  ",
"  *8X                                                      X4X  ",
"  *8X                                                      X4X  ",
"  *8X                                                      X4X  ",
"  *8X                                                      X4X  ",
"  *8X                                                      X4X  ",
"  *8X                                                      X4X  ",
"  *8X                                                      X4X  ",
"  *8X                                                      X4X  ",
"  *8X                                                      X4X  ",
"  *8X                                                      X4X  ",
"  *8X                                                      X4X  ",
"  *8X                                                      X4X  ",
"  *8X                                                      X4X  ",
"  *8X                                                      X4X  ",
"  *8X                                                      X4X  ",
"  *8X                                                      X4X  ",
"  *8X                                                      X4X  ",
"  *8X                                                      X4X  ",
"  *8X                                                      X4X  ",
"  *9X                                                      X4X  ",
"  *9X                                                      X4X  ",
"  *7X                                                      X4X  ",
"  *7X                                                      X4X  ",
"  *6X                                                      X4X  ",
"  *6X                                                      X4X  ",
"  *5X                                                      X4X  ",
"  *5X                                                      X4X  ",
"  *4X                                                      X4X  ",
"  *4X                                                      X4X  ",
"  *4X                                                      X4X  ",
"  *4X                                                      X4X  ",
"  *4X                                                      X4X  ",
"  *4X                                                      X4X  ",
"  *4X                                                      X4X  ",
"  *4X                                                      X4X  ",
"  *4X                                                      X4X  ",
"  *4X                                                      X4X  ",
"  *4X                                                      X4X  ",
"  *4X                                                      X4X  ",
"  *4X                                                      X4X  ",
"  *4X                                                      X4X  ",
"  *4X                                                      X4X  ",
"  *4X                                                      X4X  ",
"  *4X                                                      X4X  ",
"  *4X                                                      X4X  ",
"  *4X                                                      X4X  ",
"  *4X                                                      X4X  ",
"  *4X                                                      X4X  ",
"  *4X                                                      *4X  ",
"  *4X**@@**@************@*@@@***XXXXX***@*************XXXX**4X  ",
"  *4444444,4444444444444444444444444,444444444444444444444,44X  ",
"  X*******X*******XXXXXXXXX*********X******X****X*****X*******  ",
"                                                                ",
"                                                                "
};
