/* XPM */
static char *dceda257e417462be96ab7bf27221763HslGtLKL7NOOegUh[] = {
/* columns rows colors chars-per-pixel */
"64 64 42 1 ",
"  c #022F1D",
". c #02301C",
"X c #01341F",
"o c #012F23",
"O c #052F23",
"+ c #022E24",
"@ c #0F2A20",
"# c #0A2F24",
"$ c #042B2B",
"% c #022F28",
"& c #072A2E",
"* c #032E2C",
"= c #042F2C",
"- c #082E2D",
"; c #122F22",
": c #023121",
"> c #013226",
", c #003128",
"< c #00312C",
"1 c #07322D",
"2 c #003132",
"3 c #AB1D0C",
"4 c #AB1F10",
"5 c #AC1F14",
"6 c #B31C1C",
"7 c #A7200D",
"8 c #A9230E",
"9 c #A72412",
"0 c #AB2210",
"q c #AE2516",
"w c #AF2219",
"e c #DB311F",
"r c #EB2E1A",
"t c #EB2A1F",
"y c #F22E13",
"u c #F32E1A",
"i c #EC3319",
"p c #ED301C",
"a c #F03017",
"s c #FB3318",
"d c #EF2B25",
"f c #F02C26",
/* pixels */
"%%%%%%%%%%%%%%%%%%%%%%%%%%%%%%%%%%%%%%%%%%%%%%%%%%%%%%%%%%%%%%%%",
"          #%+%.        ,O%o%$          ,O%o%$          ,O%o%$   ",
"0000000000:%ap4000000008=%dp400000000008=%dp400000000008=%dp4000",
"0000000000:%ap4000000008=%dp400000000008=%dp400000000008=%dp4000",
"0000000000:%ap4000000008=%dp400000000008=%dp400000000008=%dp4000",
"777q000000:%ap97777q0008=%dpw777777q0008=%dpw777777q0008=%dpw777",
"pppi000000:%appppppi0008=%dppppppppi0008=%dppppppppi0008=%dppppp",
"uuuy888888-%suuuuuuy8886X%euuuuuuuuy8886X%euuuuuuuuy8886X%euuuuu",
",,,<******@%2,,,,,,<***X&%;,,,,,,,,<***X&%;,,,,,,,,<***X&%;,,,,,",
"%%%%%%%%%%%%%%%%%%%%%%%%%%%%%%%%%%%%%%%%%%%%%%%%%%%%%%%%%%%%%%%%",
"%>ft555555555555%>ft555555555555%>ft555555555555%>ft555555555555",
"%1pi000000000000%1pi000000000000%1pi000000000000%1pi000000000000",
"%1pi000000000000%1pi000000000000%1pi000000000000%1pi000000000000",
"%1pi000000000000%1pi000000000000%1pi000000000000%1pi000000000000",
"%1priiiiiiii3000%1priiiiiiii3000%1priiiiiiii3000%1priiiiiiii3000",
"%1pppppppppp4000%1pppppppppp4000%1pppppppppp4000%1pppppppppp4000",
"%%%%%%%%%%%%%%%%%%%%%%%%%%%%%%%%%%%%%%%%%%%%%%%%%%%%%%%%%%%%%%%%",
"       ,O%o%$          ,O%o%$          ,O%o%$          ,O%o%$   ",
"00000008=%dp400000000008=%dp400000000008=%dp400000000008=%dp4000",
"00000008=%dp400000000008=%dp400000000008=%dp400000000008=%dp4000",
"00000008=%dp400000000008=%dp400000000008=%dp400000000008=%dp4000",
"777q0008=%dpw777777q0008=%dpw777777q0008=%dpw777777q0008=%dpw777",
"pppi0008=%dppppppppi0008=%dppppppppi0008=%dppppppppi0008=%dppppp",
"uuuy8886X%euuuuuuuuy8886X%euuuuuuuuy8886X%euuuuuuuuy8886X%euuuuu",
",,,<***X&%;,,,,,,,,<***X&%;,,,,,,,,<***X&%;,,,,,,,,<***X&%;,,,,,",
"%%%%%%%%%%%%%%%%%%%%%%%%%%%%%%%%%%%%%%%%%%%%%%%%%%%%%%%%%%%%%%%%",
"%>ft555555555555%>ft555555555555%>ft555555555555%>ft555555555555",
"%1pi000000000000%1pi000000000000%1pi000000000000%1pi000000000000",
"%1pi000000000000%1pi000000000000%1pi000000000000%1pi000000000000",
"%1pi000000000000%1pi000000000000%1pi000000000000%1pi000000000000",
"%1priiiiiiii3000%1priiiiiiii3000%1priiiiiiii3000%1priiiiiiii3000",
"%1pppppppppp4000%1pppppppppp4000%1pppppppppp4000%1pppppppppp4000",
"%%%%%%%%%%%%%%%%%%%%%%%%%%%%%%%%%%%%%%%%%%%%%%%%%%%%%%%%%%%%%%%%",
"       ,O%o%$          ,O%o%$          ,O%o%$          ,O%o%$   ",
"00000008=%dp400000000008=%dp400000000008=%dp400000000008=%dp4000",
"00000008=%dp400000000008=%dp400000000008=%dp400000000008=%dp4000",
"00000008=%dp400000000008=%dp400000000008=%dp400000000008=%dp4000",
"777q0008=%dpw777777q0008=%dpw777777q0008=%dpw777777q0008=%dpw777",
"pppi0008=%dppppppppi0008=%dppppppppi0008=%dppppppppi0008=%dppppp",
"uuuy8886X%euuuuuuuuy8886X%euuuuuuuuy8886X%euuuuuuuuy8886X%euuuuu",
",,,<***X&%;,,,,,,,,<***X&%;,,,,,,,,<***X&%;,,,,,,,,<***X&%;,,,,,",
"%%%%%%%%%%%%%%%%%%%%%%%%%%%%%%%%%%%%%%%%%%%%%%%%%%%%%%%%%%%%%%%%",
"%>ft555555555555%>ft555555555555%>ft555555555555%>ft555555555555",
"%1pi000000000000%1pi000000000000%1pi000000000000%1pi000000000000",
"%1pi000000000000%1pi000000000000%1pi000000000000%1pi000000000000",
"%1pi000000000000%1pi000000000000%1pi000000000000%1pi000000000000",
"%1priiiiiiii3000%1priiiiiiii3000%1priiiiiiii3000%1priiiiiiii3000",
"%1pppppppppp4000%1pppppppppp4000%1pppppppppp4000%1pppppppppp4000",
"%%%%%%%%%%%%%%%%%%%%%%%%%%%%%%%%%%%%%%%%%%%%%%%%%%%%%%%%%%%%%%%%",
"       ,O%o%$          ,O%o%$          ,O%o%$          ,O%o%$   ",
"00000008=%dp400000000008=%dp400000000008=%dp400000000008=%dp4000",
"00000008=%dp400000000008=%dp400000000008=%dp400000000008=%dp4000",
"00000008=%dp400000000008=%dp400000000008=%dp400000000008=%dp4000",
"777q0008=%dpw777777q0008=%dpw777777q0008=%dpw777777q0008=%dpw777",
"pppi0008=%dppppppppi0008=%dppppppppi0008=%dppppppppi0008=%dppppp",
"uuuy8886X%euuuuuuuuy8886X%euuuuuuuuy8886X%euuuuuuuuy8886X%euuuuu",
",,,<***X&%;,,,,,,,,<***X&%;,,,,,,,,<***X&%;,,,,,,,,<***X&%;,,,,,",
"%%%%%%%%%%%%%%%%%%%%%%%%%%%%%%%%%%%%%%%%%%%%%%%%%%%%%%%%%%%%%%%%",
"%>ft555555555555%>ft555555555555%>ft555555555555%>ft555555555555",
"%1pi000000000000%1pi000000000000%1pi000000000000%1pi000000000000",
"%1pi000000000000%1pi000000000000%1pi000000000000%1pi000000000000",
"%1pi000000000000%1pi000000000000%1pi000000000000%1pi000000000000",
"%1priiiiiiii3000%1priiiiiiii3000%1priiiiiiii3000%1priiiiiiii3000",
"%1pppppppppp4000%1pppppppppp4000%1pppppppppp4000%1pppppppppp4000"
};
