/* XPM */
static char *_31bc24a69f64078ac709f58b45d978bG6AOA77PjgBfQvT3[] = {
/* columns rows colors chars-per-pixel */
"63 64 214 2 ",
"   c None",
".  c #032E27",
"X  c #0B2E27",
"o  c #012F28",
"O  c #092F29",
"+  c #122F27",
"@  c #1B2D26",
"#  c #023129",
"$  c #083028",
"%  c #0C3623",
"&  c #133126",
"*  c #173624",
"=  c #232D24",
"-  c #2D2F25",
";  c #322C23",
":  c #3B2C22",
">  c #243026",
",  c #343423",
"<  c #4C2A1E",
"1  c #4A261E",
"2  c #57291C",
"3  c #5D2A1C",
"4  c #56261C",
"5  c #42311E",
"6  c #5C371F",
"7  c #6A271A",
"8  c #6E2919",
"9  c #65261A",
"0  c #7B2617",
"q  c #772618",
"w  c #782819",
"e  c #703216",
"r  c #4C2F23",
"t  c #552E23",
"y  c #4E3024",
"u  c #453024",
"i  c #523023",
"p  c #642F23",
"a  c #7A2F21",
"s  c #752F20",
"d  c #7A3021",
"f  c #703021",
"g  c #2F4E1D",
"h  c #1C4426",
"j  c #2C4A22",
"k  c #464919",
"l  c #4C5A1A",
"z  c #70461F",
"x  c #7F5815",
"c  c #56671D",
"v  c #6B7B13",
"b  c #767E0F",
"n  c #485721",
"m  c #5D7020",
"M  c #6B7E20",
"N  c #AB1F0F",
"B  c #A71F0F",
"V  c #AA1F10",
"C  c #A61F10",
"Z  c #9F2E0D",
"A  c #822516",
"S  c #8B2515",
"D  c #82291A",
"F  c #9A2313",
"G  c #972A19",
"H  c #A5210F",
"J  c #AD220F",
"K  c #A32A0E",
"L  c #AD2B0F",
"P  c #B0220F",
"I  c #A13B0C",
"U  c #AB360E",
"Y  c #B33C0E",
"T  c #B3340F",
"R  c #A32311",
"E  c #AC2210",
"W  c #A82D1C",
"Q  c #B42411",
"!  c #BB2512",
"~  c #B72E17",
"^  c #A3301F",
"/  c #A73815",
"(  c #B3301F",
")  c #BC311A",
"_  c #8B2D20",
"`  c #803021",
"'  c #933020",
"]  c #A13020",
"[  c #C22714",
"{  c #CD2916",
"}  c #C32C18",
"|  c #D52A17",
" . c #D62C19",
".. c #DB2C18",
"X. c #C5301D",
"o. c #C83417",
"O. c #D6301D",
"+. c #DB301C",
"@. c #D33916",
"#. c #E42D19",
"$. c #EB2F1B",
"%. c #F12E1B",
"&. c #E5301B",
"*. c #EE301C",
"=. c #E83819",
"-. c #F1301C",
";. c #A8440C",
":. c #A55209",
">. c #BD5B0B",
",. c #B2510B",
"<. c #AA4A16",
"1. c #AF5D1E",
"2. c #B95115",
"3. c #8B7310",
"4. c #857B16",
"5. c #9C760C",
"6. c #A9680A",
"7. c #B36B0A",
"8. c #B9650B",
"9. c #B57C06",
"0. c #B97707",
"q. c #BE7614",
"w. c #8B6C27",
"e. c #B46B23",
"r. c #B77425",
"t. c #C0520F",
"y. c #CC5019",
"u. c #EA4418",
"i. c #EA5D17",
"p. c #F0461A",
"a. c #C2650D",
"s. c #CE720C",
"d. c #D4740C",
"f. c #C56818",
"g. c #C87511",
"h. c #EC7513",
"j. c #C06E23",
"k. c #8F970E",
"l. c #B88506",
"z. c #B88510",
"x. c #BE9F16",
"c. c #AC9309",
"v. c #9EA01C",
"b. c #ABAB09",
"n. c #BFB60F",
"m. c #B2B106",
"M. c #BFA315",
"N. c #BCB817",
"B. c #B2A410",
"V. c #889833",
"C. c #C28D05",
"Z. c #D3880A",
"A. c #C49006",
"S. c #CD9508",
"D. c #D69A07",
"F. c #CE8710",
"G. c #D59F1E",
"H. c #C39F1C",
"J. c #F0820F",
"K. c #EB9510",
"L. c #C9AB05",
"P. c #C4BC0B",
"I. c #CDB002",
"U. c #DDBC03",
"Y. c #D3B702",
"T. c #C4AD13",
"R. c #C2A714",
"E. c #C0B211",
"W. c #DCA90E",
"Q. c #E6B906",
"!. c #F8B309",
"~. c #CF9D20",
"^. c #DB9E22",
"/. c #E09F29",
"(. c #F39826",
"). c #D8A020",
"_. c #C7B32F",
"`. c #E5B92D",
"'. c #F0B82A",
"]. c #F2BD38",
"[. c #C9C308",
"{. c #DBC902",
"}. c #DED502",
"|. c #E3CD01",
" X c #E6C702",
".X c #EAD402",
"XX c #EBDD00",
"oX c #E4D703",
"OX c #F6D803",
"+X c #F3D917",
"@X c #F4C40D",
"#X c #EDE001",
"$X c #F3E400",
"%X c #F6EA00",
"&X c #FAED01",
"*X c #FCEA07",
"=X c #FFF200",
"-X c #FFF50A",
";X c #F7E817",
":X c #FFF614",
">X c #FFF51C",
",X c #EBE017",
"<X c #DBD826",
"1X c #D5CE30",
"2X c #F5D539",
"3X c #EDE42A",
"4X c #F9EE26",
"5X c #F4E929",
"6X c #F8E92A",
"7X c #FEF322",
"8X c #FFF42E",
"9X c #FBEC33",
"0X c #F9E539",
"qX c #FDF132",
/* pixels */
"o o o o o o o o o o # # o o o o o o o o o o o o o o o o o o o o o o o o o o o o o o o o o o o o o o o o o o o o o o o o o o o ",
"@ @ @ @ @ @ @ @ @ + # $ > = @ @ @ @ @ @ @ @ @ + o + > @ @ @ @ @ @ @ @ @ @ @ @ X o @ > @ @ @ @ @ @ @ @ @ @ @ @ X . @ > @ @ @ @ ",
"F F F F F F F F F 0 X ; X.} F F F F F F F F F 3 o t  .) / <.1.e.r.r.r.e.1.<./ 5 o _  .L F F F F F F F F F F S = + (  .R F F F ",
"E E E E E E E E E S X : &...E E E E E E E E N 8 h w.(.].2X0X9XqX8X8X8XqX9X0X2X_.V.j.p.[ N E E E E E E E E E R = + X.$.Q E E E ",
"E E E E E E E E E S X : &...E E E E E E N L f.~.1XqX7X:X-X=X=X=X=X=X=X=X=X=X-X:X7XqX2X/.2.L N E E E E E E E R = + X.$.Q E E E ",
"Q Q Q Q E E E E E S X : &...! Q Q Q Q T f.`.9X>X-X=X=X=X=X=X=X=X=X=X=X=X=X=X=X=X=X=X-X>X9X`.f.T Q Q Q E E E R = + X.$.! Q Q Q ",
"$.$.$.#.Q E E E J S X : &.*.$.$.$.&.i.'.8X:X=X=X=X=X=X=X=X=X=X=X=X=X=X=X=X=X=X=X=X=X=X=X=X:X9X'.i.&.#.! E E R = + X.-.$.$.$.$.",
"X.X.X.) S S S S S q X , ) X.X.X.y.(.6X:X=X=X=X=X=X=X=X=X=X=X=X=X=X=X=X=X=X=X=X=X=X=X=X=X=X=X=X>X6X(.@.F S S A @ + ^ X.X.X.X.X.",
"+ + + + X X X X X X o . + + + n 1X7X=X=X=X=X=X=X=X=X=X=X=X=X=X=X=X=X=X=X=X=X=X=X=X=X=X=X=X=X=X=X-X7X_.n X X X o o + & & & & & ",
"o O - - = = = = = = = = = = m <X:X=X=X=X=X=X=X=X=X=X=X=X=X=X=X=X=X=X=X=X=X=X=X=X=X=X=X=X=X=X=X=X=X=X:X<Xc = = = = = = = = = = ",
"o = X. .R R R R R R R R R q.5X-X=X=X=X=X=X=X=X=X=X=X=X=X=X=X=X=X=X=X=X=X=X=X=X=X=X=X=X=X=X=X=X=X=X=X=X-X.X;.R R R R R R R R R ",
"o > O.#.Q E E E E E E J g.;X-X=X=X=X=X=X=X=X=X=X=X=X=X=X=X=X=X=X=X=X=X=X=X=X=X=X=X=X=X=X=X=X=X=X=X=X=X=X=XQ.T E E E E E E E E ",
"o > O.#.Q E E E E E E a.;X-X=X=X=X=X=X=X=X=X=X=X=X=X=X=X=X=X=X=X=X=X=X=X=X=X=X=X=X=X=X=X=X=X=X=X=X=X=X=X=X=XD.E E E E E E E E ",
"o > O.#.! ! ! ! ! ! t.+X-X=X=X=X=X=X=X=X=X=X=X=X=X=X=X=X=X=X=X=X=X=X=X=X=X=X=X=X=X=X=X=X=X=X=X=X=X=X=X=X=X=X&Xd.! ! ! E E E E ",
"o > +.-.$.$.$.$.$.u.@X-X=X=X=X=X=X=X=X=X=X=X=X=X=X=X=X=X=X=X=X=X=X=X=X=X=X=X=X=X=X=X=X=X=X=X=X=X=X=X=X=X=X=X=XOXu.$.#.! E E E ",
"o @ ] ( ( ( ( ( ( K.-X=X=X=X=X=X=X=X=X=X=X=X=X=X=X=X=X=X=X=X=X=X=X=X=X=X=X=X=X=X=X=X=X=X=X=X=X=X=X=X=X=X=X=X=X=XK.( ( S A A A ",
"o o O O O O O . c ;X=X=X=X=X=X=X=X=X=X=X=X=X=X=X=X=X=X=X=X=X=X=X=X=X=X=X=X=X=X=X=X=X=X=X=X=X=X=X=X=X=X=X=X=X=X=XoXj . O . . . ",
"; ; ; ; ; ; ; , N.-X=X=X=X=X=X=X=X=X=X=X=X=X=X=X=X=X=X=X=X=X=X=X=X=X=X=X=X=X=X=X=X=X=X=X=X=X=X=X=X=X=X=X=X=X=X=X=X4.: ; ; ; ; ",
"R R R R R R R 8.*X=X=X=X=X=X=X=X=X=X=X=X=X=X=X=X=X=X=X=X=X=X=X=X=X=X=X=X=X=X=X=X=X=X=X=X=X=X=X=X=X=X=X=X=X=X=X=X=XK.#.Q R R R ",
"E E E E E E L Q.-X=X=X=X=X=X=X=X=X=X=X=X=X=X=X=X=X=X=X=X=X=X=X=X=X=X=X=X=X=X=X=X=X=X=X=X=X=X=X=X=X=X=X=X=X=X=X=X=X!.=.Q E E E ",
"E E E E E V >.*X=X=X=X=X=X=X=X=X=X=X=X=X=X=X=X=X=X=X=X=X=X=X=X=X=X=X=X=X=X=X=X=X=X=X=X=X=X=X=X=X=X=X=X=X=X=X=X=X=X*Xi.Q E E E ",
"[ [ [ ! E J D.-X=X=X=X=X=X=X=X=X=X=X=X=X=X=X=X=X=X=X=X=X=X=X=X=X=X=X=X=X=X=X=X=X=X=X=X=X=X=X=X=X=X=X=X=X=X=X=X=X=X=XJ.[ ! [ [ ",
"-.-.-.#.Q Y .X=X=X=X=X=X=X=X=X=X=X=X=X=X=X=X=X=X=X=X=X=X=X=X=X=X=X=X=X=X=X=X=X=X=X=X=X=X=X=X=X=X=X=X=X=X=X=X=X=X=X=X!.*.-.-.-.",
"^ ^ ^ G q 6.&X=X=X=X=X=X=X=X=X=X=X=X=X=X=X=X=X=X=X=X=X=X=X=X=X=X=X=X=X=X=X=X=X=X=X=X=X=X=X=X=X=X=X=X=X=X=X=X=X=X=X=X+X2.^ ^ ^ ",
". . o o o k.=X=X=X=X=X=X=X=X=X=X=X=X=X=X=X=X=X=X=X=X=X=X=X=X=X=X=X=X=X=X=X=X=X=X=X=X=X=X=X=X=X=X=X=X=X=X=X=X=X=X=X=X>XM o o o ",
"o + r i 5 P.=X=X=X=X=X=X=X=X=X=X=X=X=X=X=X=X=X=X=X=X=X=X=X=X=X=X=X=X=X=X=X=X=X=X=X=X=X=X=X=X=X=X=X=X=X=X=X=X=X=X=X=X-XN.5 : : ",
"o > O.#.Y .X=X=X=X=X=X=X=X=X=X=X=X=X=X=X=X=X=X=X=X=X=X=X=X=X=X=X=X=X=X=X=X=X=X=X=X=X=X=X=X=X=X=X=X=X=X=X=X=X=X=X=X=X-X+XY E E ",
"o > O.#.2.$X=X=X=X=X=X=X=X=X=X=X=X=X=X=X=X=X=X=X=X=X=X=X=X=X=X=X=X=X=X=X=X=X=X=X=X=X=X=X=X=X=X=X=X=X=X=X=X=X=X=X=X=X=X;Xa.V E ",
"o > O.#.8.%X=X=X=X=X=X=X=X=X=X=X=X=X=X=X=X=X=X=X=X=X=X=X=X=X=X=X=X=X=X=X=X=X=X=X=X=X=X=X=X=X=X=X=X=X=X=X=X=X=X=X=X=X=X-XF.E E ",
"o > O.#.s.&X=X=X=X=X=X=X=X=X=X=X=X=X=X=X=X=X=X=X=X=X=X=X=X=X=X=X=X=X=X=X=X=X=X=X=X=X=X=X=X=X=X=X=X=X=X=X=X=X=X=X=X=X=X-XW.J E ",
"o > +.%.h.=X=X=X=X=X=X=X=X=X=X=X=X=X=X=X=X=X=X=X=X=X=X=X=X=X=X=X=X&X&X&X&X&X%X%X%X%X%X$X$X#XXXXXoX.X.X.X|.|.|. X{.U.U.Y.A.L E ",
"o + a _ z.=X=X=X=X=X=X=X=X=X=X=X=X=X=X=X=X=X=X=X=X=X=X&X}.[.[.[.[.P.P.n.n.E.E.T.T.T.T.R.M.M.x.v.v.H.G.G.G.G.).^.^.^.^.~.z.e 9 ",
"o o o o v =X=X=X=X=X=X=X=X=X=X=X=X=X=X=X=X=X=X=X=X=X=X=X$X#X,X3X3X3X3X3X3X5X5X5X5X5X4X4X4X4X4X7X7X7X7X7X7X7X>X>X>X>X>X>X[.% o ",
"< < < 1 3.&X=X=X=X=X=X=X=X=X=X=X=X=X=X=X=X=X=X=X=X=X=X=X=X=X=X=X=X=X=X=X=X=X=X=X=X=X=X=X=X=X=X=X=X=X=X=X=X=X=X=X=X=X=X=Xm.< < ",
"E E E V 8.%X=X=X=X=X=X=X=X=X=X=X=X=X=X=X=X=X=X=X=X=X=X=X=X=X=X=X=X=X=X=X=X=X=X=X=X=X=X=X=X=X=X=X=X=X=X=X=X=X=X=X=X=X=X=XC.H E ",
"E E E V ,.$X=X=X=X=X=X=X=X=X=X=X=X=X=X=X=X=X=X=X=X=X=X=X=X=X=X=X=X=X=X=X=X=X=X=X=X=X=X=X=X=X=X=X=X=X=X=X=X=X=X=X=X=X=X%X7.C E ",
"E E E E Y .X=X=X=X=X=X=X=X=X=X=X=X=X=X=X=X=X=X=X=X=X=X=X=X=X=X=X=X=X=X=X=X=X=X=X=X=X=X=X=X=X=X=X=X=X=X=X=X=X=X=X=X=X=XXX;.E E ",
"{ { { [ L U.=X=X=X=X=X=X=X=X=X=X=X=X=X=X=X=X=X=X=X=X=X=X=X=X=X=X=X=X=X=X=X=X=X=X=X=X=X=X=X=X=X=X=X=X=X=X=X=X=X=X=X=X=XU.o.{ { ",
"-.-.-.#.Q S.=X=X=X=X=X=X=X=X=X=X=X=X=X=X=X=X=X=X=X=X=X=X=X=X=X=X=X=X=X=X=X=X=X=X=X=X=X=X=X=X=X=X=X=X=X=X=X=X=X=X=X=X=XZ.$.-.-.",
"d d d s 4 3.&X=X=X=X=X=X=X=X=X=X=X=X=X=X=X=X=X=X=X=X=X=X=X=X=X=X=X=X=X=X=X=X=X=X=X=X=X=X=X=X=X=X=X=X=X=X=X=X=X=X=X=XXXx a d d ",
"o o o o o g }.=X=X=X=X=X=X=X=X=X=X=X=X=X=X=X=X=X=X=X=X=X=X=X=X=X=X=X=X=X=X=X=X=X=X=X=X=X=X=X=X=X=X=X=X=X=X=X=X=X=X=Xm.% o o o ",
"o + f a 3 3 L.=X=X=X=X=X=X=X=X=X=X=X=X=X=X=X=X=X=X=X=X=X=X=X=X=X=X=X=X=X=X=X=X=X=X=X=X=X=X=X=X=X=X=X=X=X=X=X=X=X=X=X5.4 3 3 3 ",
"o > +.$.Q N 7.%X=X=X=X=X=X=X=X=X=X=X=X=X=X=X=X=X=X=X=X=X=X=X=X=X=X=X=X=X=X=X=X=X=X=X=X=X=X=X=X=X=X=X=X=X=X=X=X=X=X%X>.V J J J ",
"o > O.#.Q E U {.=X=X=X=X=X=X=X=X=X=X=X=X=X=X=X=X=X=X=X=X=X=X=X=X=X=X=X=X=X=X=X=X=X=X=X=X=X=X=X=X=X=X=X=X=X=X=X=X=XQ.L E E E E ",
"o > O.#.Q E R 0.&X=X=X=X=X=X=X=X=X=X=X=X=X=X=X=X=X=X=X=X=X=X=X=X=X=X=X=X=X=X=X=X=X=X=X=X=X=X=X=X=X=X=X=X=X=X=X=X&Xa.V E E E E ",
"o > O.$.| { { o. X=X=X=X=X=X=X=X=X=X=X=X=X=X=X=X=X=X=X=X=X=X=X=X=X=X=X=X=X=X=X=X=X=X=X=X=X=X=X=X=X=X=X=X=X=X=X=X@X@.{ Q E E E ",
"o > O.-.*.*.*.$.d.%X=X=X=X=X=X=X=X=X=X=X=X=X=X=X=X=X=X=X=X=X=X=X=X=X=X=X=X=X=X=X=X=X=X=X=X=X=X=X=X=X=X=X=X=X=X=Xh.%.$.Q E E E ",
"o + t p p p p p 6 b.=X=X=X=X=X=X=X=X=X=X=X=X=X=X=X=X=X=X=X=X=X=X=X=X=X=X=X=X=X=X=X=X=X=X=X=X=X=X=X=X=X=X=X=X=XoXz p p < < < < ",
"o o o o o o o o o g {.=X=X=X=X=X=X=X=X=X=X=X=X=X=X=X=X=X=X=X=X=X=X=X=X=X=X=X=X=X=X=X=X=X=X=X=X=X=X=X=X=X=X=X=Xb.# o o # o o o ",
"7 7 7 7 7 7 7 2 . = 7.$X=X=X=X=X=X=X=X=X=X=X=X=X=X=X=X=X=X=X=X=X=X=X=X=X=X=X=X=X=X=X=X=X=X=X=X=X=X=X=X=X=X=X$Xl O d ' 8 7 7 7 ",
"E E E E E E P S X ; O.Z.%X=X=X=X=X=X=X=X=X=X=X=X=X=X=X=X=X=X=X=X=X=X=X=X=X=X=X=X=X=X=X=X=X=X=X=X=X=X=X=X=X=XS.= + X.$.! E E E ",
"E E E E E E E S X ; #.@.C.%X=X=X=X=X=X=X=X=X=X=X=X=X=X=X=X=X=X=X=X=X=X=X=X=X=X=X=X=X=X=X=X=X=X=X=X=X=X=X=X XY = + X.$.Q E E E ",
"E E E E E E E S X ; &...K A.%X=X=X=X=X=X=X=X=X=X=X=X=X=X=X=X=X=X=X=X=X=X=X=X=X=X=X=X=X=X=X=X=X=X=X=X=X=XXX>.F = + X.$.Q E E E ",
" . . .{ E E E S X ; &.$. .o.Z.$X=X=X=X=X=X=X=X=X=X=X=X=X=X=X=X=X=X=X=X=X=X=X=X=X=X=X=X=X=X=X=X=X=X=X=XXX0.E R = + X.*... . . .",
"*.*.*.#.Q E E S X ; +.*.*.$.+.s..X=X=X=X=X=X=X=X=X=X=X=X=X=X=X=X=X=X=X=X=X=X=X=X=X=X=X=X=X=X=X=X=X=X|.7.R E F = + X.*.*.*.*.*.",
"i i i r : : : ; . + y i i i i r l m.%X=X=X=X=X=X=X=X=X=X=X=X=X=X=X=X=X=X=X=X=X=X=X=X=X=X=X=X=X=X%Xb.k : : : : X X u i i i i i ",
"o o o o o o o o . . o o o o o o o * b {.&X=X=X=X=X=X=X=X=X=X=X=X=X=X=X=X=X=X=X=X=X=X=X=X=X=X&X[.v * o o o o o . . o o o o o o ",
"o @ ' G 0 q q q q q q q q q q 2 o ; ^ <.l.|.&X=X=X=X=X=X=X=X=X=X=X=X=X=X=X=X=X=X=X=X=X=X%X{.l.k . a ^ D q q q q q q q q q q q ",
"o > +.$.Q J J J J J J J J J P 0 o y *.| H ;.9.Y.#X=X=X=X=X=X=X=X=X=X=X=X=X=X=X=X=X&XXXY.9.I F ; $ ( %.! J J J J J J J J J J J ",
"o > O.#.Q E E E E E E E E E E 0 o r *.| E E H Z :.l.I.|.#X%X&X=X=X=X=X=X&X%X#X{.L.l.:.Z R E E ; $ ( $.! E E E E E E E E E E E ",
"o > O.#.Q E E E E E E E E E E 0 o y *.| E E E E V H K I :.6.9.c.k.c.D.C.9.6.:.I K H V E E E R ; $ ( $.! E E E E E E E E E E E ",
"o > O.$...............{ E E E 0 o y *.#...............[ V C B 4 o w #...| | ..........! E E R ; $ ( $...............| Q E E E ",
"o > O.*.*.*.*.*.*.*.*...E E E 0 o y *.*.*.*.*.*.*.*.*.| E E E 2 o ` -.*.*.*.*.*.*.*.*.[ E E R ; $ ( -.*.*.*.*.*.*.*.$.Q E E E ",
"                                                                                                                              "
};
