/* XPM */
static char *right21708526650[] = {
/* columns rows colors chars-per-pixel */
"64 64 223 2 ",
"   c #0A2B1F",
".  c #1D2F1D",
"X  c #16371E",
"o  c #1C371D",
"O  c #243B19",
"+  c #353D15",
"@  c #0A1F23",
"#  c #022225",
"$  c #0A2124",
"%  c #022E26",
"&  c #0C2E27",
"*  c #022429",
"=  c #0C2628",
"-  c #012F28",
";  c #0D2E28",
":  c #112E27",
">  c #112E28",
",  c #132628",
"<  c #0E3026",
"1  c #013229",
"2  c #0C3128",
"3  c #043027",
"4  c #123127",
"5  c #123128",
"6  c #7A260E",
"7  c #2E471C",
"8  c #384C18",
"9  c #1A4122",
"0  c #505815",
"q  c #7E410A",
"w  c #536519",
"e  c #5D6A0B",
"r  c #666D0C",
"t  c #6D760C",
"y  c #646F13",
"u  c #6D7917",
"i  c #757609",
"p  c #4F5E24",
"a  c #717D26",
"s  c #667D27",
"d  c #8E190E",
"f  c #95150F",
"g  c #9B160E",
"h  c #951D0E",
"j  c #9D1612",
"k  c #9E1B12",
"l  c #941812",
"z  c #871613",
"x  c #AA150C",
"c  c #A5190A",
"v  c #AB180D",
"b  c #A51511",
"n  c #AB1611",
"m  c #A61A12",
"M  c #AB1B11",
"N  c #B11D13",
"B  c #86260B",
"V  c #9D230D",
"C  c #843D08",
"Z  c #883909",
"A  c #9C350C",
"S  c #963A0A",
"D  c #8E2410",
"F  c #9B2413",
"G  c #972413",
"H  c #AE220F",
"J  c #AD2B0C",
"K  c #A2280E",
"L  c #B1220F",
"P  c #A4330B",
"I  c #AB3B0B",
"U  c #A22312",
"Y  c #AC2210",
"T  c #B22311",
"R  c #B82814",
"E  c #A53513",
"W  c #B4360D",
"Q  c #CE241B",
"!  c #C92D1C",
"~  c #D3241A",
"^  c #DC241D",
"/  c #DD2E1B",
"(  c #D52915",
")  c #D1301C",
"_  c #DE301C",
"`  c #DD3E18",
"'  c #C63318",
"]  c #E4241A",
"[  c #E9231B",
"{  c #E52E1A",
"}  c #EB2F1A",
"|  c #E92715",
" . c #F12E1A",
".. c #F3231D",
"X. c #E2311C",
"o. c #ED311B",
"O. c #EA3B14",
"+. c #F3311B",
"@. c #F9301B",
"#. c #864A07",
"$. c #894408",
"%. c #844608",
"&. c #8C5106",
"*. c #954309",
"=. c #AD420C",
"-. c #A44A0C",
";. c #AC4C0D",
":. c #B44B0A",
">. c #B4470D",
",. c #A35409",
"<. c #A8580A",
"1. c #B55E0D",
"2. c #BA550B",
"3. c #B04F16",
"4. c #BA5A14",
"5. c #8C6005",
"6. c #857002",
"7. c #9A7B03",
"8. c #946205",
"9. c #A97C05",
"0. c #A67406",
"q. c #BF781D",
"w. c #B76516",
"e. c #E44911",
"r. c #E85B1A",
"t. c #CA790A",
"y. c #D0700D",
"u. c #CB6D11",
"i. c #CF7E1F",
"p. c #DD7A10",
"a. c #C5640C",
"s. c #E36516",
"d. c #77800D",
"f. c #788112",
"g. c #6C842C",
"h. c #9F8103",
"j. c #989506",
"k. c #BB8006",
"l. c #AC9F04",
"z. c #A39C03",
"x. c #B09C02",
"c. c #BC9A03",
"v. c #9DA511",
"b. c #AFAF0A",
"n. c #B6A901",
"m. c #B1A001",
"M. c #BFB51D",
"N. c #B8B407",
"B. c #868620",
"V. c #92992A",
"C. c #B0A930",
"Z. c #D89B1A",
"A. c #C68E10",
"S. c #ED8415",
"D. c #C2A304",
"F. c #CCA504",
"G. c #C6BE00",
"H. c #CDB013",
"J. c #E4A011",
"K. c #E6B110",
"L. c #E6BC0A",
"P. c #C58721",
"I. c #C78E23",
"U. c #D29C20",
"Y. c #F28025",
"T. c #ED9A26",
"R. c #D8AA2D",
"E. c #EBB220",
"W. c #E1B825",
"Q. c #F2A72E",
"!. c #CBC201",
"~. c #C4C103",
"^. c #D4C301",
"/. c #D2CA00",
"(. c #DCC801",
"). c #D6D300",
"_. c #DDD401",
"`. c #DCDA00",
"'. c #E2CC04",
"]. c #E2D600",
"[. c #E4DA00",
"{. c #EAD903",
"}. c #F3DD02",
"|. c #E7CF14",
" X c #E9D414",
".X c #E5E000",
"XX c #ECE400",
"oX c #EDE900",
"OX c #F2EC00",
"+X c #FDEF00",
"@X c #F3E904",
"#X c #F6F100",
"$X c #FFF200",
"%X c #FFFB00",
"&X c #FEF50E",
"*X c #FFFF0A",
"=X c #EBE311",
"-X c #F9EC1F",
";X c #F2E418",
":X c #FFF611",
">X c #FFFB14",
",X c #FFFE1D",
"<X c #DAD923",
"1X c #C8CB38",
"2X c #DEDD37",
"3X c #C6C82A",
"4X c #EFCD33",
"5X c #F9C936",
"6X c #EDDE38",
"7X c #F6E922",
"8X c #FFFF24",
"9X c #FFFF2C",
"0X c #FFF727",
"qX c #ECE034",
"wX c #F8E53E",
"eX c #F6EA38",
"rX c #F9EA34",
"tX c #FFFD34",
"yX c #FDF73B",
"uX c #FFFE3D",
"iX c #F9F030",
"pX c #EEE427",
"aX c #FFF741",
/* pixels */
"- - - - - - - - - - - - - - - - - - - - - - - - - - - - 1 1 1 1 1 1 1 1 1 1 1 1 - - - - - - 1 - - - - - - - - - - - 3 - - - - - ",
": ; : > : : ; : ; > & % 4 4 : : : ; : ; > : : : 3 2 4 5 > = $ $ $ $ $ $ $ $ = > 1 3 4 4 : : : : ; : ; > > : > : - & : : : : : ; ",
"U U U U U U U F Y G & ; ) { Y F U U U U U U U F & * ~ ( P ;.w.q.P.I.I.P.q.w.>.A # @ ~ { U Y F U U U U U U F U G & ; ) _ Y U U U ",
"H Y Y Y Y H H Y H U & ; { } T H T Y Y Y H Y M g X w T.5XwXaXaXuXuXtXtXtXuXyXaXaX1XV.s.O.v M Y L H T Y H T Y Y Y & ; { } T Y Y Y ",
"H Y Y Y Y Y Y Y H U ; ; / } Y Y Y U Y Y n c :.U.2XuXtX8X&X$X$X+X+X+X+X+X+X+X$X:X8XtXuX6XZ.>.c m Y Y Y Y Y U Y U & : _ } H Y Y Y ",
"Y Y Y T Y Y Y M H U ; < _ } T Y T T T M 2.W.yX9X>X+X+X+X$X$X$X$X$X$X$X$X$X$X$X$X+X+X+X>XtXyXW.2.M M T T Y H Y F & ; _ } Y Y Y Y ",
"} } } } Y Y T Y H Y & ; { +.o.o.+.[ e.E.uX8X&X+X+X$X$X$X$X$X$X$X$X$X$X$X$X$X$X$X$X$X$X$X+X$X9XyXK.e.[ o.T Y L U & ; X.+.} o.o.} ",
"X._ X./ U F U U F G ; < ) X._ / ( S.iX9X$X+X$X$X$X$X$X$X$X$X$X$X$X$X$X$X$X$X$X$X$X$X$X$X$X$X+X$XtXiXp.^ F U Y G & ; ) X._ X._ X.",
"4 : ; ; & & & & & & 3 - : 4 % O H.tX>X+X$X#X$X$X$X$X$X$X$X$X$X$X$X$X$X$X$X$X$X$X$X$X$X$X$X$X$X$X+X:XtXM.o % < 2 3 - 4 < ; < < < ",
"- - < 4 & & & 2 & ; ; < < * 8 <X8X$X$X$X$X$X$X$X$X$X$X$X$X$X$X$X$X$X$X$X$X$X$X$X$X$X$X$X$X$X$X$X$X$X+X8X<X7 * 2 ; ; & & ; & & ; ",
"- : ) / U F U U U U F U k ;.7X,X$X$X$X$X$X$X$X$X$X$X$X$X$X$X$X$X$X$X$X$X$X$X$X$X$X$X$X$X$X$X$X$X$X$X$X+X,X7X;.j K U U U U U U U ",
"% 4 {  .T H Y H H H L n :.7X>X$X$X$X$X$X$X$X$X$X$X$X$X$X$X$X$X$X$X$X$X$X$X$X$X$X$X$X$X$X$X$X$X$X$X$X+X+X+X>X7X:.n H H H H H H H ",
"3 4 X.} Y U H Y Y Y v =.;X>X$X$X$X$X$X$X$X$X$X$X$X$X$X$X$X$X$X$X$X$X$X$X$X$X$X$X$X$X$X$X$X$X$X$X$X$X$X$X$X$X>X;XI m H H H M H U ",
"- 4 { } H H Y L Y Y J  X>X$X$X$X$X$X$X$X$X$X$X$X$X$X$X$X$X$X$X$X$X$X$X$X$X$X$X$X$X$X$X$X$X$X$X$X$X$X$X$X$X$X+X>X|.J Y H H U H H ",
"- 4 X. .o.o.o.o.o.] K.,X+X$X$X$X$X$X$X$X$X$X$X$X$X$X$X$X$X$X$X$X$X$X$X$X$X$X$X$X$X$X$X$X$X$X$X$X$X$X$X$X$X$X$X+X>XJ.] X.T Y H H ",
"- > ) X._ _ _ _ ^ p.>X$X$X$X$X$X$X$X$X$X$X$X$X$X$X$X$X$X$X$X$X$X$X$X$X$X$X$X$X$X$X$X$X$X$X$X$X$X$X$X$X$X$X$X$X$X$X>Xs.^ Y V U F ",
"- - ; : > ; 5 % 7 =X&X+X$X$X$X$X$X$X$X$X$X$X$X$X$X$X$X$X$X$X$X$X$X$X$X$X$X$X$X$X$X$X$X$X$X$X$X$X$X$X$X$X$X$X$X$X+X%X_.: & & & & ",
": > ; ; ; ; > * v.*X+X$X$X$X$X$X$X$X$X$X$X$X$X$X$X$X$X$X$X$X$X$X$X$X$X$X$X$X$X$X$X$X$X$X$X$X$X$X$X$X$X$X$X$X$X$X$X+X*Xu * < ; & ",
"U U U U U U m -.&X+X$X$X$X$X$X$X$X$X$X$X$X$X$X$X$X$X$X$X$X$X$X$X$X$X$X$X$X$X$X$X$X$X$X$X$X$X$X$X$X$X$X$X$X$X$X$X+X$X*X{.P U U U ",
"Y Y H Y Y T n F.*X$X$X$X$X$X$X$X$X$X$X$X$X$X$X$X$X$X$X$X$X$X$X$X$X$X$X$X$X$X$X$X$X$X$X$X$X$X$X$X$X$X$X$X$X$X$X%X%XXXF.a.T M Y Y ",
"Y Y Y Y Y M =.@X$X$X$X$X$X$X$X$X$X$X$X$X$X$X$X$X$X$X$X$X$X$X$X$X$X$X$X$X$X$X$X$X$X$X$X$X$X$X$X$X$X$X+X+X$X%X#X^.i 7 Q [ Y Y Y Y ",
"Y Y Y Y Y b A.*X+X$X$X$X$X$X$X$X$X$X$X$X$X$X$X$X$X$X$X$X$X$X$X$X$X$X$X$X$X$X$X$X$X$X$X$X$X$X$X$X+X$X%X%X.XD.<.D * & X.o.Y Y Y Y ",
"} } } } T U (.$X$X$X$X$X$X$X$X$X$X$X$X$X$X$X$X$X$X$X$X$X$X$X$X$X$X$X$X$X$X$X$X$X$X$X$X$X$X+X$X%X%XOX(.t.P k v U 2 5 X. .o.+.o.o.",
"_ _ X._ m -.#X$X$X$X$X$X$X$X$X$X$X$X$X$X$X$X$X$X$X$X$X$X$X$X$X$X$X$X$X$X$X$X$X$X$X$X$X$X+X%X%X.XD.1.! ~ Y F U F & < ) X._ _ _ _ ",
"5 > : 4 @ f.*X$X$X$X$X$X$X$X$X$X$X$X$X$X$X$X$X$X$X$X$X$X$X$X$X$X$X$X$X$X$X$X$X$X$X$X$X%X#X~.t o $ , 4 4 2 & & & - - > ; 4 < ; < ",
"- - < 5 * b.%XOX$X$X$X$X$X$X$X$X$X$X$X$X$X$X$X$X$X$X$X$X$X$X$X$X$X$X$X$X$X$X+X+X%X%X[.m.0 ; * & 1 1 < ; & & & ; : ; & & & & & ; ",
"& : ) { F ].%X+X$X$X$X$X$X$X$X$X$X$X$X$X$X$X$X$X$X$X$X$X$X$X$X$X$X$X$X$X$X$X%X%X^.0.A d l F Y G & 4 ) / U F U U U U U U U U U U ",
"- : X. .I XX$X$X$X$X$X$X$X$X$X$X$X$X$X$X$X$X$X$X$X$X$X$X$X$X$X$X$X+X+X%X%XOXF.-.k b Y L T H H U & < {  .T H Y Y Y Y H H H H H H ",
"- 4 _ } ;.#X$X$X$X$X$X$X$X$X$X$X$X$X$X$X$X$X$X$X$X$X$X$X$X$X$X+X$X%X%X{.k.A j b Y Y Y Y Y Y H F & 4 _ } Y Y Y Y Y H U H H H v U ",
"- 4 _ [ 1.%X$X$X$X$X$X$X$X$X$X$X$X$X$X$X$X$X$X$X$X$X$X$X$X$X%X%XOXN.u.( b Y T Y Y Y T Y Y Y Y F % : { } T Y Y Y Y L L H U H Y H ",
"- : X...y.%X+X$X$X$X$X$X$X$X$X$X$X$X$X$X$X$X$X$X$X$X$X$X$X%X/.9.O # ^ @.o.o.o.o.} } } { L Y L Y & > X. .} } } } } } } } L H Y Y ",
"- 4 ) ] t.%X+X$X$X$X$X$X$X$X$X$X$X$X$X$X$X$X$X$X$X$X$X$X[.6.6 z & 5 ) _ _ X._ _ _ _ / / Y F F G & 5 ) X._ _ _ _ _ _ X._ U F U U ",
"- 1 5 * u %X+X$X$X$X$X$X$X$X$X$X$X$X$X$X$X$X$X$X$X$X$X#XpXB.. # - 1 2 < < 5 ; > : : < ; & & & & 1 - ; : ; < > ; 5 : ; < & & & & ",
"> ; < * y %X+X$X$X$X$X$X$X$X$X$X$X$X$X$X$X$X$X$X$X$X$X$X&XtX2Xs 4 @ = 2 2 2 ; ; - - : < ; ; ; ; ; : ; ; 2 = ; ; - - : < ; ; & & ",
"U U V k <.%X$X$X$X$X$X$X$X$X$X$X$X$X$X$X$X$X$X$X$X$X$X$X$X$X>XtXqXA.;.c j F Y G & < ) _ K U U U U U U U U U U G & : ) _ U U U F ",
"Y Y H n -.#X$X$X$X$X$X$X$X$X$X$X$X$X$X$X$X$X$X$X$X$X$X$X$X$X$X$X>X8X&XL.u.J n k & 4 X. .T H M H H Y Y H T Y Y Y & ; X. .L H H L ",
"Y Y Y m S oX$X$X$X$X$X$X$X$X$X$X$X$X$X$X$X$X$X$X$X$X$X$X$X$X$X$X$X$X$X%X*X;XZ.3.# # / o.Y U m Y H Y Y Y U Y Y U & < / o.Y Y Y Y ",
"Y T Y T V (.%X$X$X$X$X$X$X$X$X$X$X$X$X$X$X$X$X$X$X$X$X$X$X$X$X$X$X$X$X+X$X$X*X0X3Xa ` | N Y R R Y Y Y Y Y Y Y F & > _ } T Y Y Y ",
"o.o.o.o.b D.%X$X$X$X$X$X$X$X$X$X$X$X$X$X$X$X$X$X$X$X$X$X$X$X$X$X$X$X$X$X$X$X+X$X*X,XrXQ.r.} +.o.o.o.o.o.T H L U & ; X.+.} } } } ",
"_ _ X._ j 9.%X$X$X$X$X$X$X$X$X$X$X$X$X$X$X$X$X$X$X$X$X$X$X$X$X$X$X$X$X$X$X$X$X$X$X+X$X8XyX5Xs.e.~ ~ X.X.U F Y G ; ; ) X._ X.X.X.",
"4 : < 4 # 8 +X$X$X$X$X$X$X$X$X$X$X$X$X$X$X$X$X$X$X$X$X$X$X$X$X$X$X$X$X$X$X$X$X$X$X$X$X+X+X>X9XeXC.p   # = < 2 & 3 - 4 4 < < ; < ",
"- 3 ; : 2 & !.%X+X$X$X$X$X$X$X$X$X$X$X$X$X$X$X$X$X$X$X$X$X$X$X$X$X$X$X$X$X$X$X$X$X$X$X$X$X$X+X$X,XtX1Xg.9 # # & < < ; ; & & & ; ",
"- : ) { Y l 9.%X$X$X$X$X$X$X$X$X$X$X$X$X$X$X$X$X$X$X$X$X$X$X$X$X$X$X$X$X$X$X$X$X$X$X$X$X$X$X$X$X$X$X>X9XeXR.4.V g k U U U U U U ",
"- 4 X. .T M S .X$X$X$X$X$X$X$X$X$X$X$X$X$X$X$X$X$X$X$X$X$X$X$X$X$X$X$X$X$X$X$X$X$X$X$X$X$X$X$X$X$X$X#X$X$X,XtX4Xi.W c v H H H H ",
"- > _ } Y T h c.%X$X$X$X$X$X$X$X$X$X$X$X$X$X$X$X$X$X$X$X$X$X$X$X$X$X$X$X$X$X$X$X$X$X$X$X$X$X$X$X$X$X$X$X$X+X+X>X9XeXR.4.H U H H ",
"- 5 _ } T Y M *.oX$X$X$X$X$X$X$X$X$X$X$X$X$X$X$X$X$X$X$X$X$X$X$X$X$X$X$X$X$X$X$X$X$X$X$X$X$X$X$X$X$X$X$X$X$X$X+X+X+X,X=XP M U H ",
"- 5 {  .o.o.+.~ D.$X$X$X$X$X$X$X$X$X$X$X$X$X$X$X$X$X$X$X$X$X$X$X$X$X$X$X$X$X$X$X$X$X$X$X$X$X$X$X$X$X$X$X$X$X$X$X$X+X%Xt.v L H H ",
"- 5 ) X._ _ _ { I _.%X$X$X$X$X$X$X$X$X$X$X$X$X$X$X$X$X$X$X$X$X$X$X$X$X$X$X$X$X$X$X$X$X$X$X$X$X$X$X$X$X$X$X$X$X$X+X%X}.' Y F U U ",
"- - ; > ; 5 ; 5 * r $X$X$X$X$X$X$X$X$X$X$X$X$X$X$X$X$X$X$X$X$X$X$X$X$X$X$X$X$X$X$X$X$X$X$X$X$X$X$X$X$X$X$X$X$X$X$X$Xw # < ; & & ",
": : ; ; ; ; ; ; 1 # z.%X$X$X$X$X$X$X$X$X$X$X$X$X$X$X$X$X$X$X$X$X$X$X$X$X$X$X$X$X$X$X$X$X$X$X$X$X$X$X$X$X$X$X$X+X%Xj.# 4 < ; ; ; ",
"F U U U U U Y G ; > E ^.%X+X$X$X$X$X$X$X$X$X$X$X$X$X$X$X$X$X$X$X$X$X$X$X$X$X$X$X$X$X$X$X$X$X$X$X$X$X$X$X$X$X+X%XG.. ! X.U m K U ",
"L T Y Y Y Y M U & 4 ^ =.).%X$X$X$X$X$X$X$X$X$X$X$X$X$X$X$X$X$X$X$X$X$X$X$X$X$X$X$X$X$X$X$X$X$X$X$X$X$X$X$X+X%X).o & X.+.L H Y Y ",
"H U Y Y Y Y Y U 2 < X.] #._.%X+X$X$X$X$X$X$X$X$X$X$X$X$X$X$X$X$X$X$X$X$X$X$X$X$X$X$X$X$X$X$X$X$X$X$X$X$X+X%X_.q # 4 / o.Y Y Y U ",
"T L Y T Y Y Y U & < _ +.n #.).%X$X$X$X$X$X$X$X$X$X$X$X$X$X$X$X$X$X$X$X$X$X$X$X$X$X$X$X$X$X$X$X$X$X$X$X$X$X).$.k 2 ; _ } T Y Y T ",
"} } } } Y Y L F & ; X.+.o.] =.!.%X$X$X$X$X$X$X$X$X$X$X$X$X$X$X$X$X$X$X$X$X$X$X$X$X$X$X$X$X$X$X$X$X$X$X%X!.Z n Y 2 < X. .o.o.o.o.",
"/ X.X./ U F Y G & < ) X._ X.^ E m.$X$X$X$X$X$X$X$X$X$X$X$X$X$X$X$X$X$X$X$X$X$X$X$X$X$X$X$X$X$X$X+X$X$Xl.6 k U G & 4 ) X._ X.X.X.",
": : < ; & & & ; - - : ; 4 ; 4 : $ r `.%X$X$X$X$X$X$X$X$X$X$X$X$X$X$X$X$X$X$X$X$X$X$X$X$X$X$X$X$X%X].e # ; 2 & & - - : ; : < & 4 ",
"3 3 ; ; & 2 ; ; ; ; & & & & & & 1 # + z.oX%X$X$X+X$X$X$X$X$X$X$X$X$X$X$X$X$X$X$X$X$X$X+X$X$X%XoXj.O # 4 & & & ; & ; & & & & & & ",
"- : ) { U U U U U U U U U U U G & 5 ! Q #.l..X%X%X$X+X+X$X$X$X$X$X$X$X$X$X$X$X$X$X$X$X$X%X.Xx.q @ % ) X.U U U U U U U U U U U V ",
"- 4 X. .H H Y Y H H H H H H L U % ; { +.n d C h.!.oX%X%X%X%X$X$X$X$X$X$X$X$X$X%X%X%XoX!.7.C f k < : { } T H Y Y H H H H H H H H ",
"- 4 X.} Y Y Y Y U Y Y Y H H H F % 5 { } T T M g B #.7.n./..XOX#X%X%X*X#X#X#X.X/.n.7.#.B g n T U & 4 _ } Y Y Y Y Y Y Y Y Y H Y Y ",
"- 4 /  .T Y Y Y L Y Y H H U M U & 4 _ } T Y H L T M g f B C &.5.r i 0.0.8.&.C B d g M T Y Y Y U & ; _ } T Y Y Y Y Y H Y Y Y H m ",
"- : X. .{ } } } } X.} { Y Y L U & 5 _ +.X.o.} { X.o.o.o.T M n j # # ~ ] ^ ] { } o.o.o.X.T Y Y U & 5 _  .} } { } X.{ } { H U H Y ",
"- 4 _ +.} o.o.o.} +.o.o.Y H H U % 4 _ o.o.o.o.o.o.o.+.X.Y Y J U < 4 X.+.o.+.+.} o.o.o.o.L U Y F & 5 / +.} o.o.o.+.o.o.o.H Y Y Y "
};
