/* XPM */
static char *_18d151cbebe49f2dc0c6f2a0d04d413xUe7j6p9hs5pPjJb[] = {
/* columns rows colors chars-per-pixel */
"64 64 214 2 ",
"   c #1A381D",
".  c #1C361D",
"X  c #25391D",
"o  c #061F22",
"O  c #032326",
"+  c #0B2424",
"@  c #032D27",
"#  c #0C2E27",
"$  c #022429",
"%  c #0B2528",
"&  c #012F29",
"*  c #0D2E28",
"=  c #112E26",
"-  c #112E28",
";  c #0E3026",
":  c #013229",
">  c #0D3129",
",  c #073227",
"<  c #123027",
"1  c #113228",
"2  c #153826",
"3  c #213D22",
"4  c #78310D",
"5  c #2F4517",
"6  c #31481A",
"7  c #3B5717",
"8  c #2F4F21",
"9  c #395220",
"0  c #545D0F",
"q  c #4F5B14",
"w  c #505D14",
"e  c #566516",
"r  c #5E7311",
"t  c #7F7D0D",
"y  c #6B7610",
"u  c #747914",
"i  c #736D0A",
"p  c #415B26",
"a  c #596C24",
"s  c #677D25",
"d  c #9D1A0F",
"f  c #96180E",
"g  c #8D1713",
"h  c #921912",
"j  c #9B1A13",
"k  c #9D1713",
"l  c #A5140C",
"z  c #A21B0E",
"x  c #AD1B0D",
"c  c #AA140C",
"v  c #A41511",
"b  c #AB1710",
"n  c #A21B11",
"m  c #AB1B11",
"M  c #B21D11",
"N  c #B01714",
"B  c #96230E",
"V  c #9A260D",
"C  c #972C0C",
"Z  c #8E3A0C",
"A  c #983B0B",
"S  c #962313",
"D  c #9B2413",
"F  c #AD220F",
"G  c #A92C0B",
"H  c #B1230F",
"J  c #AC330A",
"K  c #B2390D",
"L  c #A22312",
"P  c #AC2210",
"I  c #B12311",
"U  c #A03010",
"Y  c #BA3F10",
"T  c #CF291B",
"R  c #CA281A",
"E  c #DB251E",
"W  c #D42B1A",
"Q  c #DD2D1B",
"!  c #D6271A",
"~  c #CB3119",
"^  c #D1301C",
"/  c #DE301C",
"(  c #E4251A",
")  c #EA241B",
"_  c #E52E1A",
"`  c #EB2F1A",
"'  c #EB2317",
"]  c #F12E1A",
"[  c #F1251C",
"{  c #E2311C",
"}  c #ED311B",
"|  c #E83516",
" . c #F3311C",
".. c #8C4A08",
"X. c #9C420B",
"o. c #985608",
"O. c #A7420B",
"+. c #B6420C",
"@. c #A9580A",
"#. c #BA580A",
"$. c #BE5A17",
"%. c #AB4313",
"&. c #976A05",
"*. c #987B03",
"=. c #987503",
"-. c #A66408",
";. c #AD6908",
":. c #B5690C",
">. c #B86D09",
",. c #BC6C19",
"<. c #A97206",
"1. c #C65E0E",
"2. c #DC4011",
"3. c #CE5410",
"4. c #DF5215",
"5. c #E95118",
"6. c #CC7B0C",
"7. c #C67C06",
"8. c #ED630E",
"9. c #E36F10",
"0. c #C67C21",
"q. c #F07C25",
"w. c #7D9015",
"e. c #8D8E07",
"r. c #9D8302",
"t. c #8F930E",
"y. c #94980A",
"u. c #A78504",
"i. c #B58605",
"p. c #A29B01",
"a. c #A89501",
"s. c #B29403",
"d. c #ACA303",
"f. c #B2A800",
"g. c #BDB801",
"h. c #BAB100",
"j. c #BFB71D",
"k. c #85922F",
"l. c #A1A72B",
"z. c #C88808",
"x. c #CE9211",
"c. c #EB9C15",
"v. c #EA9316",
"b. c #E98C16",
"n. c #C9AD02",
"m. c #C7A903",
"M. c #C1B301",
"N. c #C2BD02",
"B. c #C9B202",
"V. c #DBAA18",
"C. c #EEB50D",
"Z. c #E6BA19",
"A. c #E6AA0A",
"S. c #CE8422",
"D. c #CA9224",
"F. c #D9AA2A",
"G. c #DABE2E",
"H. c #DABC32",
"J. c #E3B52F",
"K. c #F4A42E",
"L. c #C6C300",
"P. c #C9C70A",
"I. c #D2CC03",
"U. c #DBCE00",
"Y. c #D3C402",
"T. c #D5D200",
"R. c #DED100",
"E. c #DCDA00",
"W. c #D4D20F",
"Q. c #E6DA01",
"!. c #EADC01",
"~. c #EDD90C",
"^. c #F4D206",
"/. c #EAD919",
"(. c #F0DC1C",
"). c #EAC712",
"_. c #E3E000",
"`. c #ECE500",
"'. c #EDEA00",
"]. c #F3EA00",
"[. c #FDEF00",
"{. c #F6F200",
"}. c #FFF200",
"|. c #FFFA00",
" X c #FEF20B",
".X c #FFFB0C",
"XX c #FEF314",
"oX c #FFFD15",
"OX c #FEF41D",
"+X c #FEFE1B",
"@X c #F6F215",
"#X c #D8C931",
"$X c #E8D621",
"%X c #E4CC36",
"&X c #E8D439",
"*X c #F7D837",
"=X c #F4D12B",
"-X c #F5E924",
";X c #FFF526",
":X c #FFFE24",
">X c #FFF728",
",X c #FEFD2C",
"<X c #EBE637",
"1X c #F8EC36",
"2X c #FFFB32",
"3X c #FFFD39",
"4X c #FCFC3C",
"5X c #FCF138",
"6X c #FFFF41",
"7X c #FFFF46",
"8X c #FFFE49",
"9X c #FFFF4F",
"0X c #FEF34B",
"qX c #FFFF52",
/* pixels */
"& & & & & & & & & & & & & & & & & & & & & & & & & & & : : : : : & & & & : : : : : & & & & & & & & & & & & & & & & & & & & & & & ",
"= = = = = = = = = = @ @ < < = = = = = = = = - - , , = - + + + + # = = # + + + + $ @ < < = = = = = = = = = = = = & @ = < = = = = ",
"L L L L L L L L L S # * ^ Q L L L L L L L L L S $ O ~ 4.,.D.F.#X%X&X&X%XG.F.x.:.6 < T E L L L L L L L L L L L S # * ^ / L L L L ",
"P P P P P P P P H L # * { ] I F P P P P P m c G a l.*X0XqX9X8X6X4X4X4X4X6X7X8X8X5X#Xc.8.H v m F P P P P P P H L # * { ] I P P P ",
"P P P P P P P P P L # * / ` P F P P P m l +.x.*X8X7X2XOX X[.[.}.}.}.}.}.[.[.[. XOX2X6X4X$Xz.J v m F P P P P P L # * / } P P P P ",
"P P P P P P P P P L # * / ` I F I I b K V.1X7X2XXX[.}.}.}.}.}.}.}.}.}.}.}.}.}.}.}.}.[.XX2X4X-Xz.J N I P P P P L # * / ` I P P P ",
"` ` ` ` I F P P H L # * _  .}  .) _ b.1X6X;X[.}.}.}.}.}.}.}.}.}.}.}.}.}.}.}.}.}.}.}.}.}.}.[.>X4X(.9.( ` I F H L # * {  .` ` ` ` ",
"/ / { Q L D L L L S * < ^ { { ! 5.=X4X>X[.}.}.}.}.}.}.}.}.}.}.}.}.}.}.}.}.}.}.}.}.}.}.}.}.}.}.[.>X,XC.2.j L L S # = ^ { / { { { ",
"= = * * # # # # # # & & 1 < O u -X2X X}.}.}.}.}.}.}.}.}.}.}.}.}.}.}.}.}.}.}.}.}.}.}.}.}.}.}.}.}.}.XX2X/.w $ ; # & & = < ; ; ; ; ",
"& & * * * * * * * * * * * O w.>X;X}.}.}.}.}.}.}.}.}.}.}.}.}.}.}.}.}.}.}.}.}.}.}.}.}.}.}.}.}.}.}.}.}.[.>XOXr $ ; * * # # # # # # ",
"& = ^ Q L L L L L L L L j x.:XOX}.}.}.}.}.}.}.}.}.}.}.}.}.}.}.}.}.}.}.}.}.}.}.}.}.}.}.}.}.}.}.}.}.}.}.}.OX-XO.j L L L L L L L L ",
"& < { ] I F P F F F P b x.:XXX}.}.}.}.}.}.}.}.}.}.}.}.}.}.}.}.}.}.}.}.}.}.}.}.}.}.}.}.}.}.}.}.}.}.}.}.}.[.oX(.K m F F F F F F F ",
"& < / ` P P P P P P v 7.+XXX}.}.}.}.}.}.}.}.}.}.}.}.}.}.}.}.}.}.}.}.}.}.}.}.}.}.}.}.}.}.}.}.}.}.}.}.}.}.}.[.oX/.G m P P P P P P ",
"& < / ` I P P P P b #.@XXX}.}.}.}.}.}.}.}.}.}.}.}.}.}.}.}.}.}.}.}.}.}.}.}.}.}.}.}.}.}.}.}.}.}.}.}.}.}.}.}.}.[.oXZ.x I P P P P P ",
"& < { ] ` ` ` } ` | ~.XX}.}.}.}.}.}.}.}.}.}.}.}.}.}.}.}.}.}.}.}.}.}.}.}.}.}.}.}.}.}.}.}.}.}.}.}.}.}.}.}.}.}.}.[.oXc.( } I F P P ",
"& < ^ { / / / { E A.oX[.}.}.}.}.}.}.}.}.}.}.}.}.}.}.}.}.}.}.}.}.}.}.}.}.}.}.}.}.}.}.}.}.}.}.}.}.}.}.}.}.}.}.}.}.}.oX9.E L D L D ",
"& & * - * * < $ e  X X}.}.}.}.}.}.}.}.}.}.}.}.}.}.}.}.}.}.}.}.}.}.}.}.}.}.}.}.}.}.}.}.}.}.}.}.}.}.}.}.}.}.}.}.}.}.|.I.* > > # # ",
"= = * * * * # < P..X}.}.}.}.}.}.}.}.}.}.}.}.}.}.}.}.}.}.}.}.}.}.}.}.}.}.}.}.}.}.}.}.}.}.}.}.}.}.}.}.}.}.}.}.}.}.}.}. X9 % ; * * ",
"L L L L L L k >..X}.}.}.}.}.}.}.}.}.}.}.}.}.}.}.}.}.}.}.}.}.}.}.}.}.}.}.}.}.}.}.}.}.}.}.}.}.}.}.}.}.}.}.}.}.}.}.}.[.oXZ.z L L L ",
"P P P P P P F U..X}.}.}.}.}.}.}.}.}.}.}.}.}.}.}.}.}.}.}.}.}.}.}.}.}.}.}.}.}.}.}.}.}.}.}.}.}.}.}.}.}.}.}.}.}.}.}.}.}.}.+X#.b P P ",
"P P P P P m #. X}.}.}.}.}.}.}.}.}.}.}.}.}.}.}.}.}.}.}.}.}.}.}.}.}.}.}.}.}.}.}.}.}.}.}.}.}.}.}.}.}.}.}.}.}.}.}.}.}.}.[..XV.z P P ",
"P P P P P v m..X}.}.}.}.}.}.}.}.}.}.}.}.}.}.}.}.}.}.}.}.}.}.}.}.}.}.}.}.}.}.}.}.}.}.}.}.}.}.}.}.}.}.}.}.}.}.}.}.}.}.}.}.@X+.m I ",
"` ` ` ` M G !.}.}.}.}.}.}.}.}.}.}.}.}.}.}.}.}.}.}.}.}.}.}.}.}.}.}.}.}.}.}.}.}.}.}.}.}.}.}.}.}.}.}.}.}.}.}.}.}.}.}.}.}.[..Xv.) } ",
"/ / { / n @.}.}.}.}.}.}.}.}.}.}.}.}.}.}.}.}.}.}.}.}.}.}.}.}.}.}.}.}.}.}.}.}.}.}.}.}.}.}.}.}.}.}.}.}.}.}.}.}.}.}.}.}.|.|.|.^./ { ",
"= = * < $ t.|.}.}.}.}.}.}.}.}.}.}.}.}.}.}.}.}.}.}.}.}.}.}.}.}.}.}.}.}.}.}.}.}.}.}.}.}.}.}.}.}.}.}.}.}.}.}.|.|.|.}.Q.N.y.y 7 < * ",
"& & * ; @ N.|.}.}.}.}.}.}.}.}.}.}.}.}.}.}.}.}.}.}.}.}.}.}.}.}.}.}.}.}.}.}.}.}.}.}.}.}.}.}.}.}.}.|.|.|.{._.Y.d.t q X = O $ $ # # ",
"& = ^ Q U Q.}.}.}.}.}.}.}.}.}.}.}.}.}.}.}.}.}.}.}.}.}.}.}.}.}.}.}.}.}.}.}.}.}.}.}.}.}.|.|.|.}.`.I.d.z.1.A B h g h j L L L L L L ",
"& < { [ O.].}.}.}.}.}.}.}.}.}.}.}.}.}.}.}.}.}.}.}.}.}.}.}.}.}.}.}.}.}.}.}.}.}.|.|.}.'.U.n.i.@.A # % E ) m P I H H F F F F F F F ",
"& < { ) @.}.}.}.}.}.}.}.}.}.}.}.}.}.}.}.}.}.}.}.}.}.}.}.}.}.}.}.}.|.}.}.}.'.R.B.i.-.X.V d v b n # < { } P P P P P P P P P P P P ",
"& < { ) :.|.}.}.}.}.}.}.}.}.}.}.}.}.}.}.}.}.}.}.}.}.}.}.}.}.|.|.].U.m.z.;.O.V d v b m I P P P L # < / ` I P P P P P P P P P P P ",
"& < { [ 6.|.}.}.}.}.}.}.}.}.}.}.}.}.}.}.}.}.}.}.}.}.}.}.}.}.U.&.5 X T ) ( ` ` } } } } _ I P H L # < { ] ` ` ` ` ` ` ` ` I F P P ",
"& < ^ E 6.|.}.}.}.}.}.}.}.}.}.}.}.}.}.}.}.}.}.}.}.}.}.}.!.p.4 g @ * ^ { / / / / / / { / L D L S # < ^ { / / / / / / { / L D L L ",
"& & 1 $ u |.}.}.}.}.}.}.}.}.}.}.}.}.}.}.}.}.}.}.}.}.}.}.-Xj.5 O $ & > 1 1 1 > * = = * * # # # # & & * - * * * * = = * * # # # # ",
"= = < $ y |.}.}.}.}.}.}.}.}.}.}.}.}.}.}.}.}.}.}.}.}.}.}.XX2X<Xs 8 2 + o O % * > : : < ; * * * * = = * * * * * * & & = ; * * * * ",
"L L L k -.|.}.}.}.}.}.}.}.}.}.}.}.}.}.}.}.}.}.}.}.}.}.}.}.[.XX+X}.$XH.D.,.%.G f O O W Q L L L L L L L L L L L S # = ^ / L L L L ",
"P P F b @.{.}.}.}.}.}.}.}.}.}.}.}.}.}.}.}.}.}.}.}.}.}.}.}.}.}.[.}.}.oX:X,X5X*XJ.k.a 5.} x l b m P P P P P P H L # * { ] I P P P ",
"P P P m X.'.}.}.}.}.}.}.}.}.}.}.}.}.}.}.}.}.}.}.}.}.}.}.}.}.}.}.}.}.}.[.[.}..XoX:X,X5X*XJ.S.$.K F l l l m P P L ; < / } P P P P ",
"P P P I C R.}.}.}.}.}.}.}.}.}.}.}.}.}.}.}.}.}.}.}.}.}.}.}.}.}.}.}.}.}.}.}.}.}.[.[.}.}..XoX:X,X1X&XF.S.$.K F c f O # / } I P P P ",
"` ` } ` z B.|.}.}.}.}.}.}.}.}.}.}.}.}.}.}.}.}.}.}.}.}.}.}.}.}.}.}.}.}.}.}.}.}.}.}.}.}.}.[.[.}.}..X+X:X2X1X%XF.0.p 3 Q ' ' ) ` ` ",
"/ / { / j i.|.}.}.}.}.}.}.}.}.}.}.}.}.}.}.}.}.}.}.}.}.}.}.}.}.}.}.}.}.}.}.}.}.}.}.}.}.}.}.}.}.}.}.[.[.}.}..X+X,X2X<X=XK.q.5.{ / ",
"= = * < $ w [.}.}.}.}.}.}.}.}.}.}.}.}.}.}.}.}.}.}.}.}.}.}.}.}.}.}.}.}.}.}.}.}.}.}.}.}.}.}.}.}.}.}.}.}.}.}.}.[.[.}.}..X+X,XW.< * ",
"& & * < # . U.}.}.}.}.}.}.}.}.}.}.}.}.}.}.}.}.}.}.}.}.}.}.}.}.}.}.}.}.}.}.}.}.}.}.}.}.}.}.}.}.}.}.}.}.}.}.}.}.}.}.}.}.[.|.e.$ ; ",
"& = ^ Q L h s.|.}.}.}.}.}.}.}.}.}.}.}.}.}.}.}.}.}.}.}.}.}.}.}.}.}.}.}.}.}.}.}.}.}.}.}.}.}.}.}.}.}.}.}.}.}.}.}.}.}.}.}.}.].X.n L ",
"& < { ] I m o.'.}.}.}.}.}.}.}.}.}.}.}.}.}.}.}.}.}.}.}.}.}.}.}.}.}.}.}.}.}.}.}.}.}.}.}.}.}.}.}.}.}.}.}.}.}.}.}.}.}.}.}.|.n.d H F ",
"& < / ` P P B M.|.}.}.}.}.}.}.}.}.}.}.}.}.}.}.}.}.}.}.}.}.}.}.}.}.}.}.}.}.}.}.}.}.}.}.}.}.}.}.}.}.}.}.}.}.}.}.}.}.}.}.{.@.m P P ",
"& < / ` I P m &.'.}.}.}.}.}.}.}.}.}.}.}.}.}.}.}.}.}.}.}.}.}.}.}.}.}.}.}.}.}.}.}.}.}.}.}.}.}.}.}.}.}.}.}.}.}.}.}.}.}.|.n.d P P P ",
"& < { ] ` } ] ~ M.}.}.}.}.}.}.}.}.}.}.}.}.}.}.}.}.}.}.}.}.}.}.}.}.}.}.}.}.}.}.}.}.}.}.}.}.}.}.}.}.}.}.}.}.}.}.}.}.}.}.3.M F P P ",
"& < ^ { / / / E @._.}.}.}.}.}.}.}.}.}.}.}.}.}.}.}.}.}.}.}.}.}.}.}.}.}.}.}.}.}.}.}.}.}.}.}.}.}.}.}.}.}.}.}.}.}.}.}.|.^.^ L D L L ",
"& & * - * * * 1 % e.}.}.}.}.}.}.}.}.}.}.}.}.}.}.}.}.}.}.}.}.}.}.}.}.}.}.}.}.}.}.}.}.}.}.}.}.}.}.}.}.}.}.}.}.}.}.}.}.e $ ; # # # ",
"= = * * * * * ; &   N.}.}.}.}.}.}.}.}.}.}.}.}.}.}.}.}.}.}.}.}.}.}.}.}.}.}.}.}.}.}.}.}.}.}.}.}.}.}.}.}.}.}.}.}.[.|.t.O < * * * * ",
"L L L L L L L S > % o.T.}.}.}.}.}.}.}.}.}.}.}.}.}.}.}.}.}.}.}.}.}.}.}.}.}.}.}.}.}.}.}.}.}.}.}.}.}.}.}.}.}.}.[.|.g.= ^ / L L L L ",
"P P P P P P H L # < ! ;.E.}.}.}.}.}.}.}.}.}.}.}.}.}.}.}.}.}.}.}.}.}.}.}.}.}.}.}.}.}.}.}.}.}.}.}.}.}.}.}.}.[.|.U.  # { ] I P P P ",
"P P P P P P P L # ; { ! =._.}.}.}.}.}.}.}.}.}.}.}.}.}.}.}.}.}.}.}.}.}.}.}.}.}.}.}.}.}.}.}.}.}.}.}.}.}.}.}.|.R.Z % < Q } P P P P ",
"P P P P P P P L # * / ` n *.E.}.}.}.}.}.}.}.}.}.}.}.}.}.}.}.}.}.}.}.}.}.}.}.}.}.}.}.}.}.}.}.}.}.}.}.}.}.}.E.A j ; * / ` I P P P ",
"` ` ` ` I F H L # * _  .` ! <.T.}.}.}.}.}.}.}.}.}.}.}.}.}.}.}.}.}.}.}.}.}.}.}.}.}.}.}.}.}.}.}.}.}.}.}.}.I.o.x L # * {  .` ` ` ` ",
"/ / { Q L D L S # = ^ { / { T o.N.[.}.}.}.}.}.}.}.}.}.}.}.}.}.}.}.}.}.}.}.}.}.}.}.}.}.}.}.}.}.}.}.}.[.M...j L S # = ^ { / { { { ",
"= = * * # # # # & & = < * ; < % 5 p.!.}.}.}.}.}.}.}.}.}.}.}.}.}.}.}.}.}.}.}.}.}.}.}.}.}.}.}.}.}.}.!.e.  % ; # # & & = < ; ; ; ; ",
"& & * * * * * * * * # # # # # > $ ; i g.'.}.}.}.}.}.}.}.}.}.}.}.}.}.}.}.}.}.}.}.}.}.}.}.}.}.}.'.h.0 + * ; * * * * * # # # # # # ",
"& = ^ Q L L L L L L L L L L L S > * R Y *.N.`.}.}.}.}.}.}.}.}.}.}.}.}.}.}.}.}.}.}.}.}.}.}.`.g.&.. % ^ / L L L L L L L L L L L L ",
"& < { ] I F P F F F F F F P H L # < { ] n Z =.f.T.].}.}.}.}.}.}.}.}.}.}.}.}.}.}.}.}.].T.f.&.C j @ < { ] I F P F F F F F F F F F ",
"& < / ` P P P P P P P P P P P D # < / } P m n C ..*.d.L.E.`.].[.}.}.}.}.[.].`.E.L.d.=...B n M L # < / ` P L P P P P P P P P P P ",
"& < { ` I P I P P P P P P P P L # < / ` I P I I b n V A o.&.r.a.p.d.d.a.a.u.&.o.A V n b P P F L # < / ` I P I P P P P P P P P P ",
"& < / ] _ ` ` ` ` _ ` _ I P P L # < / ] _ _ _ { } } ` ( b n z S # < ~ W ! ! ( ( ` ` } { I P P L # < / ] _ ` ` ` ` _ ` _ I P P P ",
"& < /  .} } } } } } } } I P P L # < /  .} } } } } } } } I P I L # - _  . . . .} } } } } I P P L # < /  .} } } } } } } } I P P P "
};
