/* XPM */
static char *right31708704600[] = {
/* columns rows colors chars-per-pixel */
"64 64 188 2 ",
"   c #00281F",
".  c #22201D",
"X  c #39221E",
"o  c #022D25",
"O  c #0C2E26",
"+  c #002F28",
"@  c #0D2E28",
"#  c #012721",
"$  c #1C2721",
"%  c #112E27",
"&  c #1C2A23",
"*  c #122F28",
"=  c #142621",
"-  c #013027",
";  c #0D3026",
":  c #013029",
">  c #0B3128",
",  c #133027",
"<  c #113028",
"1  c #2A2823",
"2  c #382824",
"3  c #72191B",
"4  c #45231F",
"5  c #5D2423",
"6  c #512625",
"7  c #5D3A38",
"8  c #652423",
"9  c #712523",
"0  c #002B7C",
"q  c #00327F",
"w  c #8D1B0F",
"e  c #9D1E0D",
"r  c #8C1B10",
"t  c #89181C",
"y  c #961B13",
"u  c #9C1A1B",
"i  c #9B1816",
"p  c #A61D0B",
"a  c #AD1D0A",
"s  c #B01E0D",
"d  c #A31A14",
"f  c #AC1D16",
"g  c #AD191C",
"h  c #A8181A",
"j  c #B41D16",
"k  c #BF161D",
"l  c #B21B18",
"z  c #BA1A1C",
"x  c #B6171A",
"c  c #93200F",
"v  c #962311",
"b  c #9C2312",
"n  c #A5220E",
"m  c #AD220F",
"M  c #B1220F",
"N  c #A22312",
"B  c #AC2210",
"V  c #AF2D1F",
"C  c #B12311",
"Z  c #BE2019",
"A  c #B82311",
"S  c #9C1C20",
"D  c #AA2225",
"F  c #AD2C20",
"G  c #BD2B21",
"H  c #B73329",
"J  c #BA3B33",
"K  c #B5393A",
"L  c #C81B1E",
"P  c #D5181F",
"I  c #EC0D15",
"U  c #EC0F18",
"Y  c #EC141C",
"T  c #EC181F",
"R  c #CD2C19",
"E  c #D82B17",
"W  c #D3241D",
"Q  c #D9241C",
"!  c #DD2E1B",
"~  c #D42B18",
"^  c #CE301B",
"/  c #D2301C",
"(  c #DE311C",
")  c #E82D17",
"_  c #E52E1A",
"`  c #EB2F1A",
"'  c #E72914",
"]  c #F12F1A",
"[  c #E2301C",
"{  c #ED301C",
"}  c #F2301B",
"|  c #F8301B",
" . c #C81920",
".. c #D31D22",
"X. c #DC1921",
"o. c #ED1720",
"O. c #E41A23",
"+. c #ED1C24",
"@. c #EF1E28",
"#. c #F31C25",
"$. c #F81A23",
"%. c #FA1F28",
"&. c #C62420",
"*. c #C52727",
"=. c #D42B2C",
"-. c #DE3428",
";. c #E42027",
":. c #ED2027",
">. c #ED222A",
",. c #E4292C",
"<. c #F32129",
"1. c #F9252E",
"2. c #EA332D",
"3. c #ED2C34",
"4. c #F12D35",
"5. c #F22F38",
"6. c #EE343B",
"7. c #E4393D",
"8. c #E53336",
"9. c #F2323B",
"0. c #FB343C",
"q. c #C13A40",
"w. c #EE3941",
"e. c #F63A42",
"r. c #9A4C4D",
"t. c #A7494A",
"y. c #D84643",
"u. c #E74748",
"i. c #F04147",
"p. c #F2424A",
"a. c #F1484E",
"s. c #EE4950",
"d. c #F44C53",
"f. c #FE4C53",
"g. c #E95458",
"h. c #F3545A",
"j. c #F2585E",
"k. c #F25357",
"l. c #F95D61",
"z. c #F5686D",
"x. c #F66F73",
"c. c #F6777B",
"v. c #003381",
"b. c #033B85",
"n. c #083F88",
"m. c #083D86",
"M. c #0C428A",
"N. c #174A8E",
"B. c #235495",
"V. c #3E69A2",
"C. c #597EAF",
"Z. c #4B72A7",
"A. c #F57D82",
"S. c #698AB6",
"D. c #6E8EB9",
"F. c #6588B6",
"G. c #7894BD",
"H. c #F88588",
"J. c #F68E92",
"K. c #F79599",
"L. c #F69195",
"P. c #F79DA1",
"I. c #F9ADB0",
"U. c #F9B5B8",
"Y. c #9EB4D0",
"T. c #90A9CA",
"R. c #A4BCD7",
"E. c #B8C6DB",
"W. c #ADCEE6",
"Q. c #C7CFDF",
"!. c #FAC2C4",
"~. c #FBC7C9",
"^. c #FBCBCD",
"/. c #FCD5D7",
"(. c #FDDBDC",
"). c #FCD7D8",
"_. c #C1CFE1",
"`. c #CCDDEC",
"'. c #D2DCE9",
"]. c #FCDFE0",
"[. c #C6E0F1",
"{. c #DFEEF7",
"}. c #DCF0FA",
"|. c #FCE8E9",
" X c #FEF4F3",
".X c #F5FAFC",
"XX c #FFFEFE",
"oX c #EAEFF5",
/* pixels */
"+ + + + + + + + + + + + + + + + + + + + + + + + + + + + + + + : : : + o + + + + + + + + + + + + + + + + + + + + + + : + + + + + ",
"% @ @ % @ % % @ @ % O - , , @ % % % % @ % % % % @ : , , O O   =   O O O O % * % > - * , % % % % % @ @ % % % % % + O % < % @ @ % ",
"N N N N n b b b B v O @ / ! B b N N N N N N N v o   R ! V H J J *.J H F B e e y - < / ( N N N N N N N N N N N v O @ / ( B N N N ",
"m C B B j B B B m N O @ [ ] C B B m m m B p a B 7 r.h.j.j.d.d.d.k.f.k.h.g.g.y.H &   _ { C B M B m C B B B B A N O O [ ] C B B B ",
"m B B B B B B B m b @ @ ( ` C m f n B n p G y.g.f.0.3.o.T Y Y Y Y Y T o.+.3.e.d.g.t.-.) m B B B B B m N m B B N O @ ( { B B B B ",
"B B B C B B B B m n O ; ! ` C B C C a G y.d.e.#.Y Y +.+.+.+.+.:.+.+.+.+.+.+.Y Y #.e.s.s.G a B B B B C m B B B N O < ! ` C B B B ",
"` ` ` ` B B C B M B O @ [ } { { ) _ u.d.5.o.T +.:.+.+.+.+.+.+.+.+.+.+.+.+.+.+.+.+.Y o.3.d.u._ ` ` ` ] ) B m C N O @ [ } ` { { { ",
"[ ( [ ! N b N N b v @ < / [ ( E 2.s.6.o.o.#.+.+.+.+.+.+.+.+.+.+.+.+.+.+.+.+.+.+.+.+.+.T Y 9.a.2.E ( 2.E N N N v O ; / [ ( [ ( ( ",
", % ; @ > O O O O O + + * > $ K p.+.T +.+.+.+.+.+.+.+.+.+.+.+.+.+.+.+.+.+.+.+.+.+.+.+.+.+.T +.p.K 1 > % O O O O + + % ; ; ; ; < ",
"+ + @ @ O O > O O > @ % O $ q.0.T T +.+.+.+.+.+.+.+.+.+.+.+.+.+.+.+.+.+.+.#.+.+.+.+.+.+.+.+.+.T e.K & @ @ > > ; O @ O O @ O O O ",
"+ % / _ N b N N N N N b b 7.0.T +.+.+.+.+.+.+.+.+.+.+.+.+.+.+.+.+.+.+.+.+.+.+.+.+.+.+.+.+.+.+.+.Y 0.7.~ N N N N n N N N N N b N ",
"+ , [ ] C B B m B B B s 8.3.T +.+.+.+.+.+.+.+.+.+.+.+.+.+.+.+.+.+.+.+.+.+.+.+.+.+.+.+.+.+.+.+.+.+.Y 5.8.M B B m m m m m m m m m ",
"+ , [ ` B B B B m B p =.5.T +.+.+.+.+.+.+.+.+.+.+.+.+.+.+.+.+.+.+.+.+.+.+.+.+.+.+.+.+.+.+.+.+.+.+.+.o.6.=.d B B B B B B B B B B ",
"+ , [ ` C m m B B m &.9.o.+.+.+.+.+.+.+.+.+.+.+.+.+.+.+.+.+.+.+.+.+.+.+.+.+.+.+.+.+.+.+.+.+.+.+.+.+.+.o.5.&.m B B B B B B B B B ",
"+ , [ ] ` ` { { { Q 8.+.+.+.+.+.+.+.+.#.+.+.+.+.+.+.+.+.+.+.+.+.+.+.+.+.+.+.+.+.+.+.+.+.+.+.+.+.+.+.+.+.+.3.! { ` { ` _ M m B B ",
"+ < / _ ( ( ( ( ! ,.>.+.+.+.+.+.+.+.+.+.+.+.+.+.+.+.+.+.+.+.+.+.+.+.+.+.+.+.+.+.+.+.+.+.+.+.+.+.+.+.+.+.+.>.,.E ( ( ( ! B N b b ",
"+ + @ @ % @ % : 8 1.+.+.+.+.+.#.+.+.+.+.+.+.+.+.+.+.+.+.+.+.+.+.+.+.+.+.+.+.+.+.+.+.+.+.+.+.+.+.+.+.+.+.+.+.1.8 : , ; @ O O O O ",
"% % @ @ @ @ O % *.<.+.+.+.+.+.+.+.+.+.+.+.+.+.+.@.:.:.:.+.+.+.+.+.+.+.+.+.+.+.+.+.+.+.+.+.+.@.:.:.:.+.+.+.+.<.*.+ : % @ @ @ O O ",
"N N N N N N b j <.+.+.+.+.+.+.+.+.+.+.+.+.+.:.T U I I I Y +.@.+.+.+.+.+.+.+.+.+.+.+.+.+.:.T I I I I Y :.+.+.o.1.6 - / [ B N N b ",
"m m m B B C n ..:.+.+.+.+.+.+.+.+.+.+.+.+.+.I 3.z.J.K.A.a.Y Y :.+.+.+.+.+.+.+.+.+.+.+.+.I 6.x.L.K.c.w.Y Y :.+.%.D O [ ] B B C B ",
"B B n m m B d ;.+.+.+.+.+.+.+.+.+.+.+.+.+.+.J. XXXXXXXXXXX~.i.U +.+.+.+.+.+.+.+.+.+.T :.P. XXXXXXXXXXXU.6.Y :.+.;.2 / { B B B B ",
"B C B C B B Z :.+.+.+.+.+.+.+.+.+.+.+.+.+.!.XXXXXXXXXX X.XXX.Xj.I :.+.+.+.+.+.+.+.+.3./.XXXXXXXXXX XXXXX Xi.Y +.#.9 ^ { C B B B ",
"{ ` ` ` C m L #.o.+.+.+.#.+.+.+.+.+.+.Y I.XX XXXXXXXXXXXXXXX XXXw.T +.+.+.+.+.+.+.o.~.XX XXXXXXXXXXXXXXXXX|.3.O.<.D E | { { { { ",
"( ( [ ( N v X.:.+.+.+.+.+.+.+.+.+.+.Y j.XXXXXXXXXXXXXX_.D.S.E.XXU.Y :.+.+.+.+.@.I c.XX XXXXXXXXXXXE.F.D.Q.XXK.I <...^ [ ( ( [ ( ",
", % < % > 1 O.+.+.+.+.+.+.+.+.+.+.+.Y I.XXXXXXXXXXXXT.v.q v.q T.XXw.Y +.+.+.+.+.o.^.XXXXXXXXXXXXG.0 v.q q E. X<.#.O.1 > < ; ; < ",
"+ + ; % - 2 +.+.+.+.+.+.+.+.+.+.+.+.@.].XXXXXXXXXXoXM.n.M.M.n.b.{.x.I :.+.+.+.+.3. XXXXXXXXXXX`.b.M.M.M.b.N..Xh.Y +.2 : @ O O O ",
"o * / ! N f +.+.+.+.+.+.+.+.+.+.+.+.3.|.XXXXXXXXXXE.b.M.M.n.M.q W.H.I :.+.+.+.T e.XXXXXXXXXXXXY.v.M.b.M.M.v.`.z.I +.B b N N N N ",
": , [ ] B j @.+.+.+.+.+.+.+.+.+.+.+.<.|.XXXXXXXXXX`.b.M.M.M.M.v.[.c.I #.+.+.+.T 6. XXXXXXXXXXXE.v.M.M.M.M.n.{.j.I @.l B B m m m ",
"+ , [ ` m j +.+.+.+.+.+.+.+.+.+.+.+.Y ~.XXXXXXXXXXXXC.0 b.b.0 Z.XXd.Y +.+.+.+.+.+.(.XXXXXXXXXXXXV.0 n.b.0 S.XX6.+.+.j n B B B B ",
"+ , [ ` B j +.+.+.+.+.+.+.+.+.+.+.+.I c.XX XXXXXXXXX.XG.B.B.S..X(.+.+.+.+.+.+.+.I K.XX XXXXXXXXXoXF.B.B.G.XX!.Y +.+.j m B m B B ",
"+ , [ ] { W o.+.+.+.+.+.+.+.+.+.+.+.+.:.].XXXXXXXXXXXXXX.X.XXXXXz.I :.+.+.+.+.+.T 3. XXXXXXXXXXXXXXX.X.XXXXXs.Y +.+.W ) M m B B ",
"+ , / [ ( W O.+.+.+.+.+.+.+.+.+.+.+.:.Y p. XXX XXXXXXX.X XXXXXK.U +.+.+.+.+.+.+.+.Y j.XXXX XXXXXXX XXXXXXXA.I @.+.+.W ( B b b b ",
"+ : @ % : 5 $.O.+.+.+.+.+.+.+.+.+.+.+.+.Y e./.XXXXXXXXXXXXXXH.Y +.+.+.+.+.+.+.+.+.:.I k.|.XXXXXXXXXXXX Xx.Y +.+.+.$.8 - @ O O O ",
"% @ O @ : 5 $.+.+.+.+.T +.+.+.+.+.+.+.+.+.T +.z.U./.(.~.J.6.I +.+.+.+.+.+.+.+.+.+.+.:.I :.c.U./.(.!.H.3.I +.+.+.+.$.8 - % @ O O ",
"b N N B b f +.+.+.+.+.+.+.+.+.+.+.+.+.+.+.:.+.I I +.+.T I T +.+.+.+.+.+.+.+.+.+.+.+.+.:.+.I I +.+.Y I +.+.+.+.+.+.O.W ( B N b N ",
"B B B B m j +.+.+.+.+.+.+.+.+.+.+.+.+.+.+.+.+.+.+.+.+.+.:.+.+.+.+.+.+.+.+.+.+.+.+.+.+.+.+.:.:.+.+.+.+.+.+.+.+.+.+.+.Q { C B B B ",
"B B B B m j +.+.+.#.+.+.+.+.+.+.+.+.+.+.+.+.+.+.+.+.+.+.+.+.+.+.+.+.+.+.+.+.+.+.+.+.+.+.+.+.+.+.+.+.+.+.+.+.+.+.+.o.Q { B B B B ",
"C B B B n j +.+.+.+.+.+.+.+.+.+.+.+.+.+.+.+.+.+.+.+.+.+.+.+.+.+.+.+.+.+.+.+.+.+.+.+.+.+.+.+.+.+.+.+.+.+.+.+.+.+.+.+.W [ C B B B ",
"` ` ` ` m j +.+.+.+.+.+.+.+.+.+.+.+.+.+.+.+.+.+.+.+.+.+.+.+.+.+.+.+.+.+.+.+.+.+.+.+.+.+.T +.+.+.+.+.+.+.+.+.+.+.+.+.Q } { { ` ` ",
"( ! 2.! n f +.+.+.+.+.+.+.+.+.+.+.+.+.+.+.+.+.+.+.+.+.+.+.+.+.+.+.+.+.+.+.+.+.+.+.#.+.+.+.+.+.+.+.+.+.+.+.+.+.+.+.O.W ( ( [ [ [ ",
", % O % - 5 $.T +.+.+.+.+.+.+.+.+.+.+.+.+.+.+.+.+.+.+.#.+.+.+.+.+.+.+.+.+.+.+.+.+.+.+.+.+.+.+.+.+.+.+.+.+.+.+.+.+.$.8 - % ; ; O ",
"o - O % - 5 #.+.+.+.T +.+.+.+.+.+.+.+.+.+.+.+.+.+.+.+.+.+.+.+.+.+.+.+.+.+.+.+.+.+.+.+.+.+.+.+.+.+.+.+.+.+.+.+.+.+.$.8 - @ O O O ",
"- % / [ n f +.+.+.+.+.+.+.#.+.+.+.+.+.+.+.+.+.+.+.+.+.+.+.+.+.+.+.+.+.+.+.+.+.+.+.+.+.+.+.+.+.+.+.+.+.+.+.+.+.+.+.+.f b N N n N ",
"+ < [ | m j +.+.+.+.+.+.+.+.+.+.+.+.+.+.+.+.+.+.+.+.+.+.+.+.+.+.+.+.+.+.+.+.+.+.+.+.+.+.+.+.+.+.+.+.+.+.+.+.+.+.+.+.z m m m m m ",
"+ , _ ` n l +.+.+.+.+.+.+.+.+.+.+.+.+.+.+.+.+.+.+.+.+.+.+.+.+.+.+.+.+.+.T #.+.+.+.+.+.+.+.+.+.+.+.+.+.+.o.+.+.+.+.+.j n B B B B ",
"+ < ( ) B A +.+.+.+.+.+.+.+.+.+.#.+.+.+.+.+.+.+.+.+.+.+.+.+.+.+.+.+.+.+.+.+.+.+.+.+.+.+.+.+.+.+.+.+.+.+.+.+.+.+.+.+.j m B B B B ",
"+ , 2.` ` W +.+.+.+.+.+.+.+.+.+.+.+.+.+.+.+.+.+.+.+.+.+.+.+.+.+.+.+.+.+.+.+.+.+.+.+.#.+.+.+.+.+.+.+.+.+.+.+.+.+.+.+.W ` M m m B ",
"+ < ^ _ ( W +.+.+.+.+.+.+.+.+.+.+.+.+.+.+.+.+.+.+.+.+.+.+.+.+.+.+.+.+.+.+.+.+.+.+.T +.+.+.+.+.+.+.+.+.+.+.+.+.+.+.+.W ( B b b b ",
"+ + @ % : 5 $.+.+.+.+.+.+.+.+.+.+.+.+.+.+.+.+.+.+.+.+.+.+.+.+.+.+.+.+.+.+.+.+.+.+.+.+.+.+.+.+.+.+.+.+.+.+.+.+.+.+.$.8 - @ O O O ",
"% % @ % + 5 $.+.o.+.+.+.+.+.+.+.+.+.+.+.+.+.+.+.+.+.+.+.+.+.+.+.+.+.+.+.+.+.+.+.+.+.+.+.+.+.+.+.+.+.+.+.+.+.+.+.+.$.8 - < @ O O ",
"b N N N b f +.+.+.+.+.+.+.+.+.+.+.+.+.+.+.+.+.+.+.+.+.+.+.+.+.+.+.+.+.+.+.+.+.+.+.+.+.+.+.+.+.+.+.+.+.+.+.+.+.+.+.O.W ( B N b N ",
"m C B m m l +.+.+.+.+.+.+.+.+.+.+.+.+.+.+.+.+.+.+.+.+.+.+.+.+.+.+.+.+.+.+.+.+.+.+.+.+.+.+.+.+.+.+.+.+.+.+.+.+.+.+.o.Q { C B m B ",
"B B B B B j +.+.+.+.+.+.+.+.+.+.+.+.+.+.+.+.+.+.+.+.+.+.+.+.+.+.+.+.+.+.+.+.+.+.+.+.+.+.+.+.+.+.+.+.+.+.+.+.+.+.+.O.W { B B B B ",
"B B B C B f @.+.+.+.+.+.+.+.+.+.o.+.+.+.+.+.+.+.+.o.+.+.+.+.+.+.+.+.+.+.+.+.+.+.+.+.+.+.+.+.+.+.+.+.+.+.+.+.+.+.+.$.Q [ C B B B ",
"` ` ` ` m j #.+.+.+.+.+.+.+.+.+.+.+.+.+.+.#.+.#.#.+.+.+.+.+.+.+.+.+.+.+.+.#.#.+.$.+.+.+.+.+.+.+.+.+.+.+.+.o.+.#.#.D ! | ` { { { ",
"[ [ [ ! N N ..O.o.#.+.+.+.+.+.+.+.+.+.#.X.h y y h O.#.+.+.+.+.+.+.+.+.o.$.P i u u T #.+.+.+.+.+.+.+.+.+.+.$.P u 2 > / [ [ ( [ ( ",
"* % @ % O > O % & S $.+.+.+.+.+.+.+.#.P 1 o O +   3 O.+.+.+.+.+.+.+.+.#.z . o o + X P +.+.+.+.+.+.+.+.+.#.g = + : - % ; ; ; @ < ",
"+ + ; > > O O @ - % z #.+.+.+.+.+.+.O.4 - @ @ @ O = t o.+.+.+.+.+.+.#.P X + % @ < - 4 T +.+.+.+.+.+.+.#. .$ > < % % O @ @ O O O ",
"+ * / ! N N N N B b y X.+.+.+.+.+.+.L ^ N N N N N N r g +.+.+.+.+.+.O.f b N n b N N c d O.+.+.+.+.O.#.X.y v N N N N N N N N N b ",
"o , _ ] C B B B B B n d O.#.+.+.#.z R ] M M m m m m B r k #.+.+.+.+.z ~ A m B m m M M b l +.+.+.+.:.X.Z m M B B m m m m m M m m ",
"- , [ ` B B B B B m m b d X.#.#. .1 ( ` B B B B B B B n r k +.$.$.g R } B B B B B m B B e l o.#.$.T Z _ C B B B B B B B B m B B ",
"- , _ ` C B B B B M m C N y h h $ > ( ` C B B B B B B C n w i x 3 $ ( ` C B B B B M B B m b i l t 2 / ` C B B B B B B B B B N B ",
"+ , ( ` _ ` { _ _ _ ` _ C n n v o , ( ] [ ` ` _ { _ ` _ C B e v + > [ ` _ ` { _ ` _ [ _ M B m y + > [ ] ` _ _ { ` _ ` _ m B n B ",
"+ , [ } { { { } { { { ` C B M n @ % ( } { { { { { { { { B B C N @ < ( } { { { { { { } { B B M N O < ( } { { { { { { ` ` B B B B "
};
