/* XPM */
static char *right41708704600[] = {
/* columns rows colors chars-per-pixel */
"64 64 190 2 ",
"   c #3F1C1B",
".  c #00281F",
"X  c #29221E",
"o  c #032D25",
"O  c #0C2E26",
"+  c #002F28",
"@  c #0D2E28",
"#  c #112E27",
"$  c #1C2923",
"%  c #122F28",
"&  c #172621",
"*  c #023027",
"=  c #0E3026",
"-  c #013029",
";  c #0A3028",
":  c #133027",
">  c #123128",
",  c #262923",
"<  c #3C2622",
"1  c #332723",
"2  c #5A1E1D",
"3  c #471C1B",
"4  c #7F1B1E",
"5  c #69191B",
"6  c #472623",
"7  c #5D2423",
"8  c #532825",
"9  c #5D3A38",
"0  c #652423",
"q  c #712523",
"w  c #002B7C",
"e  c #00327F",
"r  c #9C1E0D",
"t  c #941D0F",
"y  c #861B17",
"u  c #9E1C12",
"i  c #951A1A",
"p  c #A61D0B",
"a  c #AD1D0A",
"s  c #B01E0D",
"d  c #A31B14",
"f  c #AC1E16",
"g  c #AC161A",
"h  c #AF191E",
"j  c #B41D16",
"k  c #B31A19",
"l  c #BB1B1B",
"z  c #B7171B",
"x  c #97200E",
"c  c #8A2111",
"v  c #942311",
"b  c #9C2312",
"n  c #A5220F",
"m  c #AD220F",
"M  c #B2220F",
"N  c #A22312",
"B  c #AC2210",
"V  c #AF2D1F",
"C  c #B12311",
"Z  c #B62419",
"A  c #B91A20",
"S  c #AB2523",
"D  c #BD2B21",
"F  c #B73329",
"G  c #BA3B33",
"H  c #B5393A",
"J  c #C3191D",
"K  c #CC1A1E",
"L  c #C8171E",
"P  c #D1171F",
"I  c #EC0D15",
"U  c #EC0F18",
"Y  c #EC141C",
"T  c #EC181F",
"R  c #CD2B1A",
"E  c #C82817",
"W  c #D82B17",
"Q  c #D3241C",
"!  c #D9241C",
"~  c #D32C19",
"^  c #DC2E1B",
"/  c #CD311C",
"(  c #D2301C",
")  c #DE311C",
"_  c #E82D17",
"`  c #E52E1A",
"'  c #EC2F1A",
"]  c #E72914",
"[  c #F22F1A",
"{  c #E2301C",
"}  c #ED301B",
"|  c #F3311C",
" . c #F8311C",
".. c #CD1920",
"X. c #C21A20",
"o. c #D51C22",
"O. c #DA1921",
"+. c #ED1720",
"@. c #E31A22",
"#. c #ED1C24",
"$. c #EF1E28",
"%. c #F31C25",
"&. c #F81A23",
"*. c #FA1F28",
"=. c #C62420",
"-. c #C52727",
";. c #D42B2C",
":. c #DE3428",
">. c #E42027",
",. c #ED2027",
"<. c #ED222A",
"1. c #E4292C",
"2. c #F32129",
"3. c #F9252E",
"4. c #EA332D",
"5. c #ED2C34",
"6. c #F12D35",
"7. c #F22F38",
"8. c #EE343B",
"9. c #E4393D",
"0. c #E53336",
"q. c #F2323B",
"w. c #FB343C",
"e. c #C13A40",
"r. c #EE3941",
"t. c #F63A42",
"y. c #9A4C4D",
"u. c #A7494A",
"i. c #D84643",
"p. c #E74748",
"a. c #F04147",
"s. c #F2424A",
"d. c #F1484E",
"f. c #EE4950",
"g. c #F44C53",
"h. c #FE4C53",
"j. c #E95458",
"k. c #F3545A",
"l. c #F2585E",
"z. c #F25357",
"x. c #F95D61",
"c. c #F5686D",
"v. c #F66F73",
"b. c #F6777B",
"n. c #003381",
"m. c #033B85",
"M. c #083F88",
"N. c #083D86",
"B. c #0C428A",
"V. c #174A8E",
"C. c #235495",
"Z. c #3E69A2",
"A. c #597EAF",
"S. c #4B72A7",
"D. c #F57D82",
"F. c #698AB6",
"G. c #6E8EB9",
"H. c #6588B6",
"J. c #7894BD",
"K. c #F88588",
"L. c #F68E92",
"P. c #F79599",
"I. c #F69195",
"U. c #F79DA1",
"Y. c #F9ADB0",
"T. c #F9B5B8",
"R. c #9EB4D0",
"E. c #90A9CA",
"W. c #A4BCD7",
"Q. c #B8C6DB",
"!. c #ADCEE6",
"~. c #C7CFDF",
"^. c #FAC2C4",
"/. c #FBC7C9",
"(. c #FBCBCD",
"). c #FCD5D7",
"_. c #FDDBDC",
"`. c #FCD7D8",
"'. c #C1CFE1",
"]. c #CCDDEC",
"[. c #D2DCE9",
"{. c #FCDFE0",
"}. c #C6E0F1",
"|. c #DFEEF7",
" X c #DCF0FA",
".X c #FCE8E9",
"XX c #FEF4F3",
"oX c #F5FAFC",
"OX c #FFFEFE",
"+X c #EAEFF5",
/* pixels */
"+ + + + + + + + + + - + + + + + + + + + + + - + + + + + + + * - - - + + + + + + - ; + + + + + + + + + + + + + + + + * * * * + + ",
"# @ @ # @ # # # @ # ; o : : # # # # # @ @ # # > ; ; : > # O . & . O & O O # % # o o # > O # # # # @ @ # # # % % o + : : O # O # ",
"N N N N N N b b d v O ; ( ^ B b N N N N N N B v o . R ^ V F G G G G F V N p r t + > ( ) B N N N N N N N N N N v @ # ;.^ N N N N ",
"m C B B C B B B M B O ; { ' C B B B B B B m p d 9 y.z.k.k.g.g.g.h.g.g.k.l.j.i.F $ o ` } B B B B B C B B B B C B O @ { [ M B M B ",
"B B B B B B B B m N O @ ` ' B B B B B p p D i.j.h.t.5.#.T Y Y Y Y Y Y +.#.5.t.g.j.u.:._ m B B B B B B B B B B N O # ) ' B B B B ",
"B B B C B B B B m N O @ ) ' C B C B a D p.g.q.2.Y Y +.#.#.#.#.,.,.#.,.#.#.+.Y Y ,.w.f.f.D a B C B B B B B B B b O O ) ' C B B B ",
"' ' ' ' B B C B M N O @ { | } } _ ` p.g.8.Y Y #.,.#.#.#.#.#.#.#.#.#.#.#.#.#.#.#.#.+.+.5.g.p.` _ [ ' ' ' B B C N O O { | } } } } ",
"{ ) { ^ N b N N N b O > ( { ) W 4.f.8.+.+.#.,.#.#.#.#.#.#.#.#.#.#.#.#.#.#.#.#.#.#.#.#.+.Y 8.f.4.^ ) { ^ N b N b O = ( { ) { ) { ",
": : # ; O O O O O O + + % ; $ H s.,.Y #.#.#.#.#.#.#.#.#.#.#.#.#.#.#.#.#.#.#.#.#.#.#.#.#.,.Y ,.s.H $ ; # ; O O O + + # > = = = = ",
"+ o ; # ; @ ; O ; O O # O $ e.w.T #.#.#.#.#.#.#.#.#.#.#.#.#.#.#.#.#.#.#.#.#.#.#.#.#.#.#.#.#.#.T w.e.$ O @ O O @ # O O O O O O O ",
"+ % ( ^ N N N N N N N b b 9.w.Y #.#.#.#.#.#.#.#.#.#.#.#.#.#.#.#.#.#.#.#.#.#.#.#.#.#.#.#.#.#.%.#.Y w.9.~ N N N b N N N N N N N N ",
"+ : { [ C B B B B B B s 0.5.T #.#.#.#.#.#.#.#.#.#.#.#.#.#.#.#.#.#.#.#.#.#.#.#.#.#.#.#.#.#.#.#.#.#.Y 7.0.C B B B m m m m B m B B ",
"+ : { ' B B B B n B p ;.7.+.#.#.#.#.#.#.#.#.#.+.#.#.#.#.#.#.#.#.#.#.#.#.#.#.#.#.#.#.#.#.#.#.#.#.#.#.+.8.;.p B B B B B B B B B B ",
"+ : { ' C B B B B m =.8.+.#.#.#.#.#.#.#.#.#.#.#.#.#.#.#.#.#.#.#.#.#.#.#.#.#.#.#.#.#.#.#.#.#.#.#.#.#.#.+.7.=.B B B B B B B B n B ",
"+ > ` [ ' ' ' ' } ^ 5.,.#.#.#.#.%.#.#.#.#.#.#.#.#.#.#.#.#.#.#.#.#.#.#.#.#.#.#.#.#.#.#.#.#.#.#.+.#.#.#.#.$.5.^ } } ' ' ` M m B B ",
"+ > ( { ) ) ^ ` ^ 1.<.#.#.#.#.#.#.#.#.#.#.#.#.#.#.#.#.#.#.#.#.#.#.#.#.#.#.#.#.#.#.#.#.#.#.#.#.#.#.#.#.#.#.2.1.~ ) ) ) ^ B b N N ",
"+ + @ @ # @ # + 0 3.#.#.#.#.#.#.#.#.#.#.#.#.#.#.#.#.#.#.#.#.#.#.#.#.#.#.#.#.#.#.#.#.#.#.#.#.#.+.#.#.#.#.#.#.3.0 ; > = = O O O O ",
"@ # @ O @ @ O # -.2.#.#.#.#.#.#.#.#.#.#.#.#.#.#.#.#.,.,.$.#.#.#.#.#.#.#.#.#.#.#.#.#.#.#.#.#.,.#.,.,.,.#.#.#.2.-.+ - : = = O O O ",
"N N N N b N b j 2.#.#.#.#.#.#.#.#.#.#.#.#.#.,.+.I I I I Y #.#.#.#.#.#.#.+.#.#.#.#.#.#.#.,.Y I I I U Y #.#.#.+.3.8 o ;.) B N N b ",
"B B m C B B m o.2.T #.#.#.#.#.#.#.#.#.#.#.#.I 7.c.L.P.D.d.Y Y $.#.#.#.#.#.#.#.#.#.#.#.+.Y q.v.L.P.b.a.Y Y ,.#.*.S o _ } B B C B ",
"B B B m B B f >.#.#.#.#.#.#.#.#.#.#.#.#.T +.L.XXOXOXOXOXOX/.r.Y ,.#.#.#.#.#.#.#.#.#.T ,.U.OXOXOXOXOXOXT.q.Y ,.#.>.1 ( } B B B B ",
"B B B B B B Z #.#.#.#.#.#.#.#.#.#.#.#.+.,.^.OXOXOXOXOXOXoXOXOXl.Y #.#.#.#.#.#.#.,.T 5._.OXOXOXOXOXoXoXOX.Xs.Y #.*.q / | C B B B ",
"} } _ _ C n K %.#.#.#.#.#.#.#.#.#.#.#.Y Y.OXOXOXOXOXOXOXOXOXOXXXt.Y #.#.#.#.#.#.#.+./.OXOXOXOXOXOXOXOXOXOX.X5.T *.S (  .' } } } ",
") ) 4.W B b o.%.#.#.#.#.#.#.#.#.#.,.U l.OXOXOXOXOXOXOX'.G.F.Q.OXT.Y #.#.#.#.#.#.U v.OXOXOXOXOXOXOXQ.H.G.'.OXP.Y #.o.R { { ) { ) ",
"> # = # ; , @.#.#.#.#.#.#.#.%.#.#.,.U T.OXOXOXOXOXOXE.n.e n.e E.OXr.Y ,.#.#.#.#.Y (.OXOXOXOXOXOXJ.w n.e e Q.XX2.+.@., ; > = = = ",
"* * O > - < #.#.#.#.#.#.#.#.#.#.#.#.,._.OXOXOXOXOX+XB.M.B.B.N.m. Xv.I #.#.#.#.T 5.XXOXOXOXOXOX].m.B.B.B.m.V.oXk.Y ,.< * = O O O ",
"o % ( ^ N f $.#.#.#.#.#.#.#.#.#.,.+.5..XOXOXOXOXOXQ.m.B.M.M.B.e !.K.I ,.#.#.#.Y t.OXOXOXOXOXOXR.n.B.m.B.B.n.].c.U $.f b N N N N ",
"- : { [ B j #.#.#.#.#.#.#.#.#.#.#.+.2..XOXOXOXOXOX].m.B.B.B.B.e }.b.I 2.#.#.#.T 8.XXOXOXOXOXOXQ.n.B.B.B.B.M.|.l.U #.j m B m m m ",
"- : { ' B j #.#.#.#.#.#.#.#.#.#.#.,.Y /.OXOXOXOXOXOXA.w m.m.w S.OXg.Y ,.#.#.#.#.#._.OXOXOXOXOXOXZ.w M.m.w F.OX8.Y #.j n B B B B ",
"+ : { ' B j #.#.#.#.#.#.#.#.#.#.#.,.U b.OXOXOXOXOXOXoXJ.C.C.F.oX_.+.#.#.#.#.#.,.U P.OXOXOXOXOXOX+XH.C.C.J.OX^.Y ,.#.j m B B B B ",
"+ : { [ } Q +.#.#.#.#.#.#.#.#.#.#.#.#.,._.OXOXOXOXOXOXOXoXoXOXOXc.U ,.#.#.#.#.#.+.5.XXOXOXOXOXOXOXOXoXoXOXOXf.Y ,.#.! ' M m B B ",
"+ : ( { ) Q @.#.#.#.#.#.#.#.#.#.#.#.#.Y a.XXOXOXOXOXOXoXOXOXOXP.I #.#.#.#.#.#.#.#.U l.OXOXOXXXOXOXOXOXOXOXD.U #.#.#.Q ( B b N b ",
"+ + O % + 7 &.#.#.#.#.#.#.#.#.#.#.#.#.,.Y a.`.OXOXOXOXOXOXOXK.Y #.#.#.#.#.#.#.#.#.,.U z..XOXOXOXOXOXOXXXv.U #.#.#.&.0 * O O O O ",
"# # @ @ + 7 &.#.#.T #.#.#.#.#.#.#.#.#.#.#.Y #.c.T.)._./.L.8.U #.#.#.#.#.#.#.#.#.#.#.,.U ,.b.T.`._.^.K.5.Y #.#.#.#.&.0 - > O @ O ",
"N N N N b f #.#.#.#.#.#.#.#.#.#.#.#.#.#.#.#.#.U U +.#.Y U Y ,.#.#.#.#.#.#.#.#.#.#.#.#.,.T I U +.+.Y U Y ,.#.#.#.#.@.Q ) B N N b ",
"B B C B m k #.#.#.#.#.#.#.#.#.#.#.#.#.#.#.#.#.#.,.#.#.#.,.#.#.#.#.#.#.#.#.#.#.#.#.#.#.#.#.,.,.#.#.,.,.#.#.#.#.#.+.#.! } B B C B ",
"B B B B B f #.#.#.#.#.#.#.#.#.#.#.#.#.#.#.#.#.#.#.#.#.#.#.#.#.#.#.#.#.#.#.#.#.#.#.#.#.#.#.#.#.#.#.#.#.#.#.#.#.#.#.+.Q } B B B B ",
"B C B B B C #.#.#.#.#.#.#.#.#.#.#.#.#.#.#.#.#.#.#.#.#.#.#.#.#.#.#.#.#.#.#.#.#.#.#.#.#.#.#.#.#.#.#.#.#.#.#.#.#.#.#.#.! _ C B B B ",
"' ' ' ' m j #.#.#.%.#.#.#.#.%.#.#.#.#.#.#.#.#.#.#.#.#.#.#.#.#.#.#.#.#.#.#.#.#.#.#.#.T #.#.#.#.#.#.#.#.#.#.#.#.#.#.@.! | ' } } ' ",
"{ ) { ^ n f #.#.#.#.#.#.#.#.#.#.%.#.#.#.#.#.#.#.#.#.#.#.#.#.#.#.#.#.#.#.#.#.#.#.#.#.%.#.#.#.#.#.#.#.#.#.#.#.#.#.#.#.E ^ 4.) { { ",
"% # # > * 7 &.+.#.#.#.T #.#.#.#.#.#.#.#.#.#.#.#.#.#.#.#.#.+.#.#.#.#.#.#.#.#.#.#.#.#.#.#.#.#.#.#.#.#.#.#.#.%.#.#.#.&.0 * # # > = ",
"+ + O > * 7 *.@.#.#.#.#.#.#.#.#.+.#.#.#.#.#.#.#.#.#.#.#.#.#.#.#.#.#.#.#.#.#.#.#.#.#.#.#.#.,.#.#.#.#.#.#.+.#.#.#.#.&.0 + O O O O ",
"+ % ( ^ N f +.#.#.#.#.#.#.#.#.#.#.#.#.#.#.#.#.#.#.#.#.#.#.#.#.#.#.#.#.#.#.#.#.#.#.#.#.#.#.T #.#.#.#.#.#.#.#.#.#.#.#.f b N N n b ",
"+ : } [ B j #.#.#.#.#.#.#.#.#.#.#.#.#.#.#.#.#.#.#.#.#.#.#.#.#.#.#.#.#.#.#.#.#.#.#.#.#.#.#.#.#.#.#.#.#.#.#.#.#.#.#.#.j B C m m m ",
"+ : { ' B j #.#.#.#.#.#.#.#.%.#.#.#.#.#.#.#.#.#.#.#.#.#.#.#.#.#.#.#.#.#.#.#.#.#.#.#.#.#.#.#.#.#.#.#.#.#.#.#.#.#.#.#.j n B B B B ",
"+ % ) ' B Z #.#.#.#.#.#.#.#.#.#.#.#.#.#.#.#.#.#.#.#.#.#.#.#.#.#.#.#.#.#.#.#.#.#.#.#.#.#.,.T #.#.#.#.#.#.#.#.#.#.#.#.j m B B B n ",
"+ : { [ ' Q @.#.#.#.#.#.#.#.#.#.#.#.#.#.#.#.#.#.#.#.#.#.#.#.#.#.#.#.#.#.#.#.#.#.#.#.#.#.%.#.#.#.#.#.#.#.#.#.#.#.%.#.Q ` M m B B ",
"+ : ( ` ) Q #.#.#.#.#.#.#.#.#.#.#.#.#.#.#.#.#.#.#.#.#.#.#.#.#.#.#.#.#.#.#.#.T %.#.#.#.#.#.#.#.#.#.#.#.#.#.#.#.#.#.@.Q ) B b N b ",
"+ + @ # - 7 &.#.#.#.#.#.#.#.#.#.#.#.#.#.#.#.#.#.#.#.#.#.#.#.#.#.#.#.#.#.+.#.#.#.#.#.#.#.#.#.#.#.#.#.#.#.#.#.#.#.#.&.0 * # O O O ",
"# # @ # + 7 &.#.#.#.#.#.#.#.+.#.#.#.#.#.#.#.#.#.#.#.#.#.#.#.#.#.#.#.#.#.#.#.#.#.#.#.#.#.#.#.#.#.#.#.#.#.#.#.#.#.#.&.0 * > O @ @ ",
"b N N N b j #.#.#.#.#.#.#.#.#.#.#.#.#.#.#.#.#.#.#.#.#.#.#.#.#.#.#.#.#.#.#.#.#.#.#.#.#.#.#.#.#.#.+.#.#.#.#.#.#.#.#.#.Q ( B N N N ",
"B C B B B k #.#.#.#.#.#.#.#.#.#.#.#.#.#.#.#.#.#.#.#.#.#.#.#.#.#.#.#.#.#.#.#.#.#.#.#.#.#.#.#.#.#.#.#.#.#.#.#.#.#.#.+.Q } C B B B ",
"B B m n n Z #.#.#.#.#.#.#.#.#.#.#.#.#.#.#.#.#.#.#.#.#.#.#.#.#.#.#.#.#.#.#.#.#.#.#.#.#.#.#.#.#.#.#.#.#.#.#.#.#.#.#.#.! { B B B B ",
"C B C C n j #.#.#.#.#.#.#.#.#.#.#.#.#.#.#.#.#.#.#.#.#.#.#.#.#.#.#.#.#.#.#.#.#.#.#.#.#.#.#.#.#.#.#.#.#.#.#.%.#.#.+.#.Q } C B B B ",
"' ' ' _ m j #.#.#.#.#.#.#.#.#.#.#.#.#.#.#.#.#.+.#.#.%.%.%.#.#.#.#.#.#.#.#.#.#.#.#.#.#.%.%.%.#.#.#.#.#.#.#.#.#.#.#.@.! | ' } } ' ",
") { 1.^ n B #.#.#.#.#.#.#.%.#.#.#.#.#.#.#.#.#.#.%.+.J j l @.%.#.#.#.#.#.#.#.#.#.#.%.@.l l O.%.#.#.#.#.#.#.#.#.#.#.#.! ) { ) { ) ",
": # > # + 8 &.#.#.#.#.#.%.4 A &.#.#.#.#.#.#.#.%.O.2 o O O X g %.#.#.#.#.#.#.#.#.%.K 3 . o & i #.#.#.#.#.#.#.#.#.#.*.8 o % # = > ",
"+ + O # + < +.#.#.#.#.+.y + < O.#.#.#.#.#.#.#.#.2 + O O @ + X l %.#.#.#.#.#.#.#.P 3 + O O ; + i %.#.#.#.#.#.#.#.%.X.# O O @ O O ",
"+ # ( { N u @.#.#.#.#.k c B v d #.#.#.#.#.#.%.k v B N N p N b y P #.#.#.#.#.#.@.i v B N n N B c h &.#.#.#.#.#.#.O.t b N N N b N ",
"* : { ' C n K $.#.+.k b C M C t i &.#.#.@.$...u M B m B m B C v 2 +.%.#.#.#.%.g x C B B m m B b , X.%.#.#.#.%.@.d n C C B m m m ",
"+ : { ' B B d O.@.k r B B B B b # i %.%.&.o.u n B B B B B B B N o 5 @.%.#.%.l t B B B B B B B N + 1 P &.%.%.@.d b B B B B B B B ",
"+ : ` ' C B B u u N C B B B B b o # l ..l u m C B B B m B B B b O O d J K k t f C B B B B B B N O O Z J K J d n M B m m B B m B ",
"+ : ) ' ` ' ' { ` ' ' ` B B B N O > ~ ^ ~ ` ' ` ' ` } ` C B B N o % ~ R E ~ ' ' ' ` ` ` B B C N O > ` ^ E ~ { } { _ } ` m m B B ",
"+ % ) | ' | } [ ' ' ' ' C B B N o > ` | | ' } } } | } { C B B N O # { | } | } ' } } } ' B B B N o # ) [ | | } } } | } } m d B B "
};
