/* XPM */
static char *right31708526650[] = {
/* columns rows colors chars-per-pixel */
"64 64 221 2 ",
"   c #19371D",
".  c #243A1A",
"X  c #032325",
"o  c #0A2324",
"O  c #022E26",
"+  c #0C2E27",
"@  c #012429",
"#  c #0C2528",
"$  c #012F28",
"%  c #0D2E28",
"&  c #112E27",
"*  c #112D28",
"=  c #073125",
"-  c #0E3026",
";  c #013229",
":  c #0D3128",
">  c #123127",
",  c #123228",
"<  c #143C22",
"1  c #77290E",
"2  c #364A18",
"3  c #29481B",
"4  c #204323",
"5  c #435317",
"6  c #425819",
"7  c #515110",
"8  c #526616",
"9  c #757B09",
"0  c #687511",
"q  c #707811",
"w  c #465925",
"e  c #4B6A29",
"r  c #6A7C28",
"t  c #951A0F",
"y  c #9B1C0E",
"u  c #96150E",
"i  c #891913",
"p  c #9C1613",
"a  c #961912",
"s  c #9C1A14",
"d  c #931612",
"f  c #AA160D",
"g  c #AB1C0D",
"h  c #A3180F",
"j  c #B0180F",
"k  c #A41511",
"l  c #AA1511",
"z  c #A51A11",
"x  c #AB1B11",
"c  c #B11D12",
"v  c #B01711",
"b  c #96250D",
"n  c #84350B",
"m  c #8B3B09",
"M  c #88320A",
"N  c #9C390B",
"B  c #972313",
"V  c #9B2413",
"C  c #9D2A11",
"Z  c #9F3E11",
"A  c #8C240C",
"S  c #A3240D",
"D  c #AE220F",
"F  c #AB2808",
"G  c #B1220F",
"H  c #AA380C",
"J  c #B33F0A",
"K  c #A22312",
"L  c #AC2210",
"P  c #A72F10",
"I  c #B12311",
"U  c #BD2D14",
"Y  c #B73F10",
"T  c #CD251C",
"R  c #CA281B",
"E  c #DB251C",
"W  c #DE2E1B",
"Q  c #D22618",
"!  c #CC301C",
"~  c #DE3A13",
"^  c #D1311C",
"/  c #DE301C",
"(  c #D53714",
")  c #E4251A",
"_  c #E8241B",
"`  c #E52E1B",
"'  c #EB2F1A",
"]  c #E62816",
"[  c #F22E1A",
"{  c #F3231D",
"}  c #E2311C",
"|  c #ED301B",
" . c #E73B16",
".. c #F3311B",
"X. c #D52820",
"o. c #9A490A",
"O. c #8A5306",
"+. c #8F5D06",
"@. c #87500A",
"#. c #905107",
"$. c #92510C",
"%. c #8D4608",
"&. c #AF4A0B",
"*. c #A64D0A",
"=. c #AC540B",
"-. c #A5560A",
";. c #BA5C07",
":. c #AD4A13",
">. c #B94D13",
",. c #8D6005",
"<. c #956904",
"1. c #997803",
"2. c #A86408",
"3. c #B26309",
"4. c #BC6A0F",
"5. c #AD7806",
"6. c #B97709",
"7. c #B96A11",
"8. c #C04F0F",
"9. c #D25318",
"0. c #EC4A0E",
"q. c #E35D0D",
"w. c #C1670B",
"e. c #C36C0B",
"r. c #C86A0A",
"t. c #D0730C",
"y. c #C9790B",
"u. c #E6671A",
"i. c #E6670E",
"p. c #EE7C23",
"a. c #77841C",
"s. c #888605",
"d. c #948700",
"f. c #989709",
"g. c #818810",
"h. c #AE8805",
"j. c #A58903",
"k. c #A59101",
"l. c #A59905",
"z. c #B88D05",
"x. c #ABA904",
"c. c #B5AC00",
"v. c #BAA702",
"b. c #BCB400",
"n. c #B5B609",
"m. c #A9A31C",
"M. c #98A432",
"N. c #AEB42F",
"B. c #B7B726",
"V. c #8D912E",
"C. c #C48619",
"Z. c #CD9C1F",
"A. c #C89107",
"S. c #E1900D",
"D. c #E98113",
"F. c #EB9A12",
"G. c #C5A802",
"H. c #CAB903",
"J. c #D7BA07",
"K. c #D5B319",
"L. c #F0A811",
"P. c #E2BB1A",
"I. c #CD9D21",
"U. c #D79226",
"Y. c #D3AA25",
"T. c #D5B128",
"R. c #EEA12C",
"E. c #E1BD22",
"W. c #F5B82C",
"Q. c #CFCB00",
"!. c #CFC700",
"~. c #D4C601",
"^. c #D3CC00",
"/. c #DACD01",
"(. c #D5D102",
"). c #DBD400",
"_. c #DADA00",
"`. c #D7CC19",
"'. c #E5CA0A",
"]. c #E3DB00",
"[. c #E8DB00",
"{. c #E8D303",
"}. c #EECB1B",
"|. c #E7D415",
" X c #E7E300",
".X c #EBE500",
"XX c #ECE900",
"oX c #F3E600",
"OX c #F2EC00",
"+X c #FDEF00",
"@X c #F7EE0C",
"#X c #F7F300",
"$X c #FFF200",
"%X c #FFFA00",
"&X c #FFF30C",
"*X c #FFFC0A",
"=X c #EDE41D",
"-X c #F0E513",
";X c #FFF514",
":X c #FFFD14",
">X c #FBF51C",
",X c #FFFD1D",
"<X c #D7D037",
"1X c #EACF23",
"2X c #F0D220",
"3X c #F3D433",
"4X c #EDD430",
"5X c #F4E527",
"6X c #F4ED20",
"7X c #FEF421",
"8X c #FFFC24",
"9X c #FCF62D",
"0X c #FFFD2B",
"qX c #F8E738",
"wX c #FDF036",
"eX c #FFFE33",
"rX c #FFFF3B",
"tX c #FBF139",
"yX c #E3E236",
"uX c #FFF541",
"iX c #FFFF43",
/* pixels */
"$ $ $ $ $ $ $ $ $ $ ; O O O $ $ $ $ $ $ $ $ ; $ $ $ $ ; ; ; ; ; ; ; ; ; ; ; ; $ = $ $ ; $ $ ; $ $ $ $ $ $ $ $ $ $ $ $ $ $ $ $ $ ",
"& % & & % & & & & % O O > > & & & & & % % & % > = : > & # # o o o o o o o o o # O = > > & + & & % & % & & & & & O O & , & & % & ",
"K K K K K K K V L B + % ^ X.K K K K K K K K K C @ X T ~ &.7.C.I.Y.T.T.Y.I.C.4.*.  X T E S K K K K K K K K K K V % & ^ / L K K K ",
"L L L L G L D L L K + % | [ I I L I L L I x l h 2 a.W.qXuXiXiXiXrXeXrXrXrXiXiXtXyXB.p.0.g f L G D L I L L L I K + % } [ I L L L ",
"L L L L L L L L L K % % / | D L L K L L z F r.T.tXrXeX7X&X$X+X+X+X+X+X+X+X+X$X;X8XeXrXtXP.w.F k x D L L L L L K + % / ' L L L L ",
"I L I L L L L x L S % - / | I L I I c F y.2XrXeX;X+X+X$X$X$X$X$X$X$X$X$X$X$X$X+X+X+X+X;X0XrX1Xe.D x I I L L L K + & / ' I L L L ",
"' ' ' ' L L L L G K % % } ..| | _ _ i.2XrX8X&X+X$X$X$X$X$X$X$X$X$X$X$X$X$X$X$X$X$X$X$X+X+X&X0XrX}.q.) ' L x I K + % } ..' | ' ' ",
"/ } } W K V K K L B % , ^ } } Q ~ L.eX0X+X$X$X$X$X$X$X$X$X$X$X$X$X$X$X$X$X$X$X$X$X$X$X$X+X+X$X$X0X9XF.( s C K V + - ^ } / / } / ",
"& & - % : + + + O % ; $ > > @ 5 |.eX;X+X$X$X$X$X$X$X$X$X$X$X$X$X$X$X$X$X$X$X$X$X$X$X$X$X$X$X$X$X+X;XeX`.2 @ : + $ $ % > - % - - ",
"$ ; % & + + + + % % & - - @ 8 6X8X$X$X$X$X$X$X$X$X$X$X$X$X$X$X$X$X$X$X$X$X$X$X$X$X$X$X$X$X$X$X$X+X$X$X0X=X6 @ : & % + + + + + % ",
"$ & ^ W K V K K K K V K p 6.8X;X$X$X$X$X$X$X$X$X$X$X$X$X$X$X$X$X$X$X$X$X$X$X$X$X$X$X$X$X$X$X$X$X$X$X$X+X,X7X3.p K K K K K K K K ",
"O > ` [ I L L D D D G l w.8X;X$X$X$X$X$X$X$X$X$X$X$X$X$X$X$X$X$X$X$X$X$X$X$X$X$X$X$X$X$X$X$X$X$X$X$X$X$X$X;X>X;.x D D D D D D D ",
"= & } ' L L L L L L l ;.>X;X+X$X$X$X$X$X$X$X$X$X$X$X$X$X$X$X$X$X$X$X$X$X$X$X$X$X$X$X$X$X$X$X$X$X$X$X$X$X$X+X;X=XH x S D L L L z ",
"$ > } ' I L L L L x J -X&X+X$X$X$X$X$X$X$X$X$X$X$X$X$X$X$X$X$X$X$X$X$X$X$X$X$X$X$X$X$X$X$X$X$X$X$X$X$X$X$X$X+X:XP.g I D L L L S ",
"$ & ` [ ' ' | | ' ` '.,X+X$X$X$X$X$X$X$X$X$X$X$X$X$X$X$X$X$X$X$X$X$X$X$X$X$X$X$X$X$X$X$X$X$X$X$X$X$X$X$X$X$X$X+X:XF.) ' I D L L ",
"$ , ^ } / / / / E S.:X+X$X$X$X$X$X$X$X$X$X$X$X$X$X$X$X$X$X$X$X$X$X$X$X$X$X$X$X$X$X$X$X$X$X$X$X$X$X$X$X$X$X$X$X$X$X:Xu.E K K K K ",
"$ $ % & % % , @ 2 ;X&X$X$X$X$X$X$X$X$X$X$X$X$X$X$X$X$X$X$X$X$X$X$X$X$X$X$X$X$X$X$X$X$X$X$X$X$X$X$X$X$X$X$X$X$X$X$X%X(.% + + + + ",
"& & + % % % : # n.*X$X$X$X$X$X$X$X$X$X$X$X$X$X$X$X$X$X$X$X$X$X$X$X$X$X$X$X$X$X$X$X$X$X$X$X$X$X$X$X$X$X$X$X$X$X$X$X+X*X8 @ % % % ",
"K K K K K K s =.&X$X$X$X$X$X$X$X$X$X$X$X$X$X$X$X$X$X$X$X$X$X$X$X$X$X$X$X$X$X$X$X$X$X$X$X$X$X$X$X$X$X$X$X$X$X$X$X$X+X*X}.K K K K ",
"L L L I L I x J.*X+X$X$X$X$X$X$X$X$X$X$X$X$X$X$X$X$X$X$X$X$X$X$X$X$X$X$X$X$X$X$X$X$X$X$X$X$X$X$X$X$X$X$X$X$X$X$X$X$X+X:Xw.l L L ",
"L L L L L x &.@X$X$X$X$X$X$X$X$X$X$X$X$X$X$X$X$X$X$X$X$X$X$X$X$X$X$X$X$X$X$X$X$X$X$X$X$X$X$X$X$X$X$X$X$X$X$X$X$X$X#X$X*X|.g L L ",
"L L L L D k A.%X$X$X$X$X$X$X$X$X$X$X$X$X$X$X$X$X$X$X$X$X$X$X$X$X$X$X$X$X$X$X$X$X$X$X$X$X$X$X$X$X$X$X$X$X$X$X$X#X%X%X#X].H.H c I ",
"| | | ' I K {.%X$X$X$X$X$X$X$X$X$X$X$X$X$X$X$X$X$X$X$X$X$X$X$X$X$X$X$X$X$X$X$X$X$X$X$X$X$X$X$X$X$X$X$X+X$X%X%X$X/.f.w.( E ' | ' ",
"} / } / z -.#X$X$X$X$X$X$X$X$X$X$X$X$X$X$X$X$X$X$X$X$X$X$X$X$X$X$X$X$X$X$X$X$X$X$X$X$X$X$X$X$X$X$X$X%X%XoXH.h.$.> X T ` } } } } ",
"& & & , @ g.%X$X$X$X$X$X$X$X$X$X$X$X$X$X$X$X$X$X$X$X$X$X$X$X$X$X$X$X$X$X$X$X$X$X$X$X+X$X$X$X%X%X$X[.x.0 3 O @ # ; = , % - - % > ",
"$ $ % , @ n.%X#X$X$X$X$X$X$X$X$X$X$X$X$X$X$X$X$X$X$X$X$X$X$X$X$X$X$X$X$X$X$X$X$X$X+X$X%X%XOX/.f.8   % X X + - - - > + + % + + + ",
"O > ^ W C {.%X$X$X$X$X$X$X$X$X$X$X$X$X$X$X$X$X$X$X$X$X$X$X$X$X$X$X$X$X$X+X$X$X$X$X%XXXJ.z.o.C i @ % ^ } L V K K K K K K K K V S ",
"O & } [ H oX$X+X$X$X$X$X$X$X$X$X$X$X$X$X$X$X$X$X$X$X$X$X$X$X$X$X$X+X$X$X%X%X#X].G.5.o.V p l G D - > } [ I D L L D D L D D D D D ",
"$ > } _ =.#X$X$X$X$X$X$X$X$X$X$X$X$X$X$X$X$X$X$X$X$X$X$X$X$X$X$X%X%X%XXX/.z.-.N y k x L L L L K = > / ' L L L L L L L L L L L L ",
"O & } _ 3.%X$X$X$X$X$X$X$X$X$X$X$X$X$X$X$X$X$X$X$X$X$X$X$X$X%X%XoXH.6.8.S p g c I L L L L L L K + > / ' I L L L L L L L x L L L ",
"; > | { t.%X+X$X$X$X$X$X$X$X$X$X$X$X$X$X$X$X$X$X$X$X$X$X$X%X/.<.. + E [ ' | | | ' ' ' ' I D D K + , } [ ' ' ' ' | ' ' ` I D S L ",
"$ & ^ X.y.%X$X$X$X$X$X$X$X$X$X$X$X$X$X$X$X$X$X$X$X$X$X$X[.d.1 i O > ^ } / / / / / / ` ^ L V K B + & ^ } W } / / / / W W L V K K ",
"$ $ , @ q %X$X$X$X$X$X$X$X$X$X$X$X$X$X$X$X$X$X$X$X$X$X$X5Xm.. @ @ ; : % , % % & + > % + + + % + ; $ % & % : & % & , % - % + + + ",
"& % > @ 0 %X+X$X$X$X$X$X$X$X$X$X$X$X$X$X$X$X$X$X$X$X$X$X;XeXyXr 4 + o # % : : % O $ > - + % % % % & % % + + % % $ $ % - % % % + ",
"K V V s -.%X$X$X$X$X$X$X$X$X$X$X$X$X$X$X$X$X$X$X$X$X$X$X$X$X;X:XoXJ.C.:.K p k B % > ^ W S K K K K K K K K K L V % & ^ / L K S V ",
"D G D x *.#X$X$X$X$X$X$X$X$X$X$X$X$X$X$X$X$X$X$X$X$X$X$X$X$X$X$X$X%X:XeX3XU.w.P X X ) [ I D D L D L L D L L L K + % } [ L L G D ",
"L L L x N .X$X$X$X$X$X$X$X$X$X$X$X$X$X$X$X$X$X$X$X$X$X$X$X$X$X$X$X+X$X$X&X,X8X5XN.r 9.{ k g L L L L L L L L L K + & / | L L L L ",
"L L L I C ).%X$X$X$X$X$X$X$X$X$X$X$X$X$X$X$X$X$X$X$X$X$X$X$X$X$X$X$X$X$X$X+X$X$X:X0XwX3XU.>.D f f L I I K L I K + % / ' I L L L ",
"' | | | h G.%X$X$X$X$X$X$X$X$X$X$X$X$X$X$X$X$X$X$X$X$X$X$X$X$X$X$X$X$X$X$X$X$X$X+X+X$X:X8XeX3XR.u. ._ _ x D G K = & } ..' | ' ' ",
"} / } / s 5.%X+X$X$X$X$X$X$X$X$X$X$X$X$X$X$X$X$X$X$X$X$X$X$X$X$X$X$X$X$X$X$X$X$X$X$X+X+X+X+X*X8XeXqXW.p.>.u u i + , ^ } / } / } ",
"> & > > @ 5 +X$X$X$X$X$X$X$X$X$X$X$X$X$X$X$X$X$X$X$X$X$X$X$X$X$X$X$X$X$X$X$X$X$X$X$X$X$X$X$X$X+X$X&X:X0XqX<XV.w = X @ + - - % - ",
"$ $ % - = > ^.$X$X$X$X$X$X$X$X$X$X$X$X$X$X$X$X$X$X$X$X$X$X$X$X$X$X$X$X$X$X$X$X$X$X$X$X$X$X$X$X$X$X$X$X+X$X:X0XeX<XM.e < X + + % ",
"$ & ^ ` K d h.%X+X$X$X$X$X$X$X$X$X$X$X$X$X$X$X$X$X$X$X$X$X$X$X$X$X$X$X$X$X$X$X$X$X$X$X$X$X$X$X$X$X$X$X$X$X+X+X$X*X,X0XqXK.H K K ",
"$ > } [ I g o. X$X$X$X$X$X$X$X$X$X$X$X$X$X$X$X$X$X$X$X$X$X$X$X$X$X$X$X$X$X$X$X$X$X$X$X$X$X$X$X$X$X$X$X$X$X$X$X$X$X$X+X*X/.S L D ",
"$ > } ' L L s v.%X$X$X$X$X$X$X$X$X$X$X$X$X$X$X$X$X$X$X$X$X$X$X$X$X$X$X$X$X$X$X$X$X$X$X$X$X$X$X$X$X$X$X$X$X$X$X$X$X$X$X$X2.k L L ",
"$ & } ' I L g o.XX$X$X$X$X$X$X$X$X$X$X$X$X$X$X$X$X$X$X$X$X$X$X$X$X$X$X$X$X$X$X$X$X$X$X$X$X$X$X$X$X$X$X$X$X$X$X$X$X+X%X~.S L L L ",
"$ > ` [ ' | ..Q G.%X$X$X$X$X$X$X$X$X$X$X$X$X$X$X$X$X$X$X$X$X$X$X$X$X$X$X$X$X$X$X$X$X$X$X$X$X$X$X$X$X$X$X$X$X$X$X$X+X%Xr.v D L L ",
"$ > ^ } ^ / / ` :._.$X$X$X$X$X$X$X$X$X$X$X$X$X$X$X$X$X$X$X$X$X$X$X$X$X$X$X$X$X$X$X$X$X$X$X$X$X$X$X$X$X$X$X$X$X$X+X%X[.! L V K K ",
"$ $ * , % & : , # 9 $X$X$X$X$X$X$X$X$X$X$X$X$X$X$X$X$X$X$X$X$X$X$X$X$X$X$X$X$X$X$X$X$X$X$X$X$X$X$X$X$X$X$X$X$X$X$X$X8 @ - + + + ",
"& & % % + + % % $ + c.$X$X$X$X$X$X$X$X$X$X$X$X$X$X$X$X$X$X$X$X$X$X$X$X$X$X$X$X$X$X$X$X$X$X$X$X$X$X$X$X$X$X$X$X$X%Xf.X > + % % % ",
"K K K V K K L B + * Z ^.%X$X$X$X$X$X$X$X$X$X$X$X$X$X$X$X$X$X$X$X$X$X$X$X$X$X$X$X$X$X$X$X$X$X$X$X$X$X$X$X$X$X+X%Xn.& ! / L K S V ",
"x L I L I L x K O > E =._.$X+X$X$X$X$X$X$X$X$X$X$X$X$X$X$X$X$X$X$X$X$X$X$X$X$X$X$X$X$X$X$X$X$X$X$X$X$X$X$X+X%X).  # } [ L D D D ",
"L L L L L L L K + % } ) O. X$X$X$X$X$X$X$X$X$X$X$X$X$X$X$X$X$X$X$X$X$X$X$X$X$X$X$X$X$X$X$X$X$X$X$X$X$X$X+X$X].@.X > W | L L L L ",
"L L I L L K L V + : / | z +._.%X$X$X$X$X$X$X$X$X$X$X$X$X$X$X$X$X$X$X$X$X$X$X$X$X$X$X$X$X$X$X$X$X$X$X$X$X%X_.#.a : % / | I L L L ",
"| | | ' I L G K + : ` ..[ ) -.Q.$X$X$X$X$X$X$X$X$X$X$X$X$X$X$X$X$X$X$X$X$X$X$X$X$X$X$X$X$X$X$X$X$X$X$X%X!.%.g L = & } [ ' | ' ' ",
"} / } W K V L B + % ^ } / } X.o.b.$X$X$X$X$X$X$X$X$X$X$X$X$X$X$X$X$X$X$X$X$X$X$X$X$X$X$X$X$X$X$X$X$X$Xv.1 V K B + , ^ } / / } } ",
"& & & - : + + + $ $ & % & - > *   s.].$X$X$X$X$X$X$X$X$X$X$X$X$X$X$X$X$X$X$X$X$X$X$X$X$X$X$X$X$X$X{.9 = # - + % $ $ & % & % - - ",
"$ ; % % + + + % & % + + + + + + $ @ 7 x.XX$X$X$X$X$X$X$X$X$X$X$X$X$X$X$X$X$X$X$X$X$X$X$X$X$X%XXXx.2 o > = + + % & % + + + + + % ",
"$ & ^ W K V K K K V K K K K S B + , R U ,.c. X%X$X$X$X$X$X$X+X$X$X$X$X$X$X$X$X$X$X$X$X$X$X Xv.O.= o ^ } K K K K K V K K K K S V ",
"O > ` [ I D L L D D G D L L G K + , } [ x A O.l.(.XX$X%X$X$X$X$X$X$X$X$X$X$X$X$X%X%XXXQ.k.O.A s + > } ..I L L L D D G D D D D G ",
"; > } ' L L L L L L L L L L L V + % } ' L D z t n ,.k.b.(. XOX#X$X$X$X$X$XXX X(.b.k.+.M t x I K + > / ' L L L L L L L L L L L L ",
"$ & } [ I L L L L L L L L L g K + , / ' I D G G c z y b m O.<.1.s.s.j.j.1.<.#.m A y x c L L D K O > ` ' I L L L L L L L L x L L ",
"$ & W [ ` ' ' ' ` } ' ` L L I K O & / | | } | ` } | | } I z z a @ + R W E E ` ' ' | | ` I L L K + & / ' ` ' ` ' ` } ' ` L L S L ",
"$ , / ..| | | | ' ....' L L L K + > / ..| ..| | | | | | G D G K = > } ........' | | | ' L L L V + , / ..| | | ..' ..| ' L L L L "
};
