/* XPM */
static char *_85d55e5d1fb4dbc96184f2f2975fd1277dv6GZ5KS32NcbM[] = {
/* columns rows colors chars-per-pixel */
"64 64 214 2 ",
"   c #18371E",
".  c #25371E",
"X  c #051F26",
"o  c #022324",
"O  c #0B2324",
"+  c #052B26",
"@  c #0C2E27",
"#  c #022429",
"$  c #012F28",
"%  c #0D2E28",
"&  c #082728",
"*  c #112E27",
"=  c #112F28",
"-  c #0E3026",
";  c #013129",
":  c #0D3128",
">  c #013227",
",  c #123127",
"<  c #143823",
"1  c #113128",
"2  c #1E3722",
"3  c #263E23",
"4  c #34491B",
"5  c #2A4417",
"6  c #374C25",
"7  c #2B5026",
"8  c #485B1A",
"9  c #4E6218",
"0  c #576915",
"q  c #656E11",
"w  c #687516",
"e  c #4E6C29",
"r  c #556028",
"t  c #57702D",
"y  c #6D7B30",
"u  c #961E0E",
"i  c #9D190E",
"p  c #9C1612",
"a  c #9E1A12",
"s  c #931812",
"d  c #AD150D",
"f  c #A31C0F",
"g  c #A4140A",
"h  c #A41511",
"j  c #A91511",
"k  c #A11B11",
"l  c #AC1C11",
"z  c #B11D10",
"x  c #9B220E",
"c  c #98280D",
"v  c #9A340C",
"b  c #9D3D0B",
"n  c #923C0C",
"m  c #9B2413",
"M  c #952412",
"N  c #AE220F",
"B  c #AD2F0D",
"V  c #A4280C",
"C  c #B1220F",
"Z  c #A4350D",
"A  c #A43D0C",
"S  c #AD330D",
"D  c #B43A0D",
"F  c #B1330D",
"G  c #A12312",
"H  c #AC2210",
"J  c #A82715",
"K  c #B12310",
"L  c #B92E19",
"P  c #A63510",
"I  c #A93210",
"U  c #CC221A",
"Y  c #C92A1A",
"T  c #D4221C",
"R  c #DC251E",
"E  c #DE2E1B",
"W  c #D52818",
"Q  c #C93916",
"!  c #D1311C",
"~  c #DE301C",
"^  c #D23A16",
"/  c #E4241B",
"(  c #EA251B",
")  c #E52E1B",
"_  c #EB2F1A",
"`  c #EE2813",
"'  c #F12E1A",
"]  c #F7291D",
"[  c #E73614",
"{  c #E2311C",
"}  c #ED311B",
"|  c #F3311B",
" . c #9C430A",
".. c #9F4C09",
"X. c #98580A",
"o. c #A2440B",
"O. c #AE460B",
"+. c #B7460E",
"@. c #AD4412",
"#. c #AE4918",
"$. c #B55C1D",
"%. c #AF580A",
"&. c #A66608",
"*. c #BE6E0C",
"=. c #AB7206",
"-. c #AF7906",
";. c #A77309",
":. c #B57808",
">. c #BD711E",
",. c #BB6A24",
"<. c #BE7022",
"1. c #CE4313",
"2. c #C75313",
"3. c #D15112",
"4. c #D64219",
"5. c #E74919",
"6. c #C8680C",
"7. c #DE6B0F",
"8. c #C9790A",
"9. c #D67110",
"0. c #EA6717",
"q. c #C97B23",
"w. c #F26F21",
"e. c #EB7D2A",
"r. c #7F860D",
"t. c #6B822E",
"y. c #6F8332",
"u. c #9A9509",
"i. c #8A9618",
"p. c #8A8E0A",
"a. c #B78705",
"s. c #BD9504",
"d. c #BD9804",
"f. c #ADA610",
"g. c #9D9824",
"h. c #859830",
"j. c #939B31",
"k. c #A39E24",
"l. c #A3AD39",
"z. c #ACB133",
"x. c #CF8D08",
"c. c #C19E03",
"v. c #C29504",
"b. c #D59409",
"n. c #DB9307",
"m. c #D58B07",
"M. c #EA980B",
"N. c #EA9616",
"B. c #CAAD04",
"V. c #C6A203",
"C. c #D5A607",
"Z. c #CDBA04",
"A. c #C3BF08",
"S. c #D0BA01",
"D. c #DABB02",
"F. c #D6B406",
"G. c #E8B012",
"H. c #D19326",
"J. c #EC9625",
"K. c #EC8527",
"L. c #D0A12A",
"P. c #DAB830",
"I. c #FAAC3A",
"U. c #BDC428",
"Y. c #BEC337",
"T. c #D6C401",
"R. c #DFC702",
"E. c #DBCE00",
"W. c #D2CD07",
"Q. c #DBD200",
"!. c #E4CB02",
"~. c #E2C007",
"^. c #E2D400",
"/. c #E5DC00",
"(. c #ECDF00",
"). c #E9D616",
"_. c #F1C812",
"`. c #EDE400",
"'. c #EFEB00",
"]. c #E7E200",
"[. c #F0E401",
"{. c #F4EB00",
"}. c #FDEE00",
"|. c #F5E80B",
" X c #F6F400",
".X c #FFF200",
"XX c #FFFB00",
"oX c #FFFC0C",
"OX c #FDEB1F",
"+X c #FFFD14",
"@X c #FFFF1D",
"#X c #CECF3A",
"$X c #EED824",
"%X c #F5DE20",
"&X c #E6C932",
"*X c #F8DC33",
"=X c #F5C63B",
"-X c #F9EC22",
";X c #FFFF26",
":X c #FFFF25",
">X c #FFFE2C",
",X c #E9E336",
"<X c #FAEC35",
"1X c #FAEC39",
"2X c #F8E73C",
"3X c #FFFE31",
"4X c #FFFF36",
"5X c #FFF831",
"6X c #FEF43F",
"7X c #FFFD3B",
"8X c #FBF333",
"9X c #EFCE40",
"0X c #F0CE40",
"qX c #FBE842",
/* pixels */
"$ $ $ $ $ $ $ $ $ $ $ $ $ $ $ $ $ $ $ $ $ $ $ $ $ $ $ $ ; ; ; ; ; ; ; ; ; ; ; ; $ $ $ $ $ $ $ $ $ $ $ $ $ $ $ $ $ $ $ $ $ $ $ $ ",
"* * * * * * * * * * + + , , * * * * * * * = * * $ : , , = % O O O O O O O O % = : : , , * * * * * * * * * * * * $ + * , * * * * ",
"G G G G G G G G G m @ % ! E G G G G G G G G G m % & U W V P #.$.<.<.,.,.$.#.I M o o W ~ G G G G G G G G G G G m @ % ! ~ G G G G ",
"H H H H H H H H C G @ % { ' K N H H H H H H z i + 6 e.I.0XqX6X7X4X4X4X4X7X6XqX9Xl.y 5.` d l K N H H H H H H C G @ % { ' K H H H ",
"H H H H H H H H H G @ % ~ _ H H H H H H l g F q.#X6X3X@XoX.X.X.X}.}.}.}..X.X.XoX@X3X6X=Xq.S g l H H H H H H H G @ % ~ } H H H H ",
"H H H H H H H H H G @ % ~ _ K H K K K d D H.2X>X+X.X}.}..X.X.X.X.X.X.X.X.X.X.X.X}.}..X+X3X2XH.D d K K H H H H G @ % ~ _ K H H H ",
"_ _ _ _ K N H H C G @ % ) | _ } | ( [ J.1X;X.X}..X.X.X.X.X.X.X.X.X.X.X.X.X.X.X.X.X.X.X.X}..X;X1XJ.[ ( } K N C G @ % { | _ _ _ _ ",
"~ ~ { E G m G G G m % , ! { { ~ T 0.*X;X.X}..X.X.X.X.X.X.X.X.X.X.X.X.X.X.X.X.X.X.X.X.X.X.X.X}..X;X*X0.U G G G m @ * ! { ~ { { { ",
"* * % % @ @ @ @ @ @ $ $ = , % * k.3XoX}..X.X.X.X.X.X.X.X.X.X.X.X.X.X.X.X.X.X.X.X.X.X.X.X.X.X.X.X}.oX3Xg.@ + - @ $ $ * , - - - - ",
"$ $ % % % % % % % % % % - &   U.;X.X.X.X.X.X.X.X.X.X.X.X.X.X.X.X.X.X.X.X.X.X.X.X.X.X.X.X.X.X.X.X.X.X.X;XU.< % - % % % % @ @ @ @ ",
"$ * ! E G G G G G G G G a A $X@X}..X.X.X.X.X.X.X.X.X.X.X.X.X.X.X.X.X.X.X.X.X.X.X.X.X.X.X.X.X.X.X.X.X.X}.oXD.a G G G G G G G G G ",
"$ , { ' K N H N N N N l D %X+X}..X.X.X.X.X.X.X.X.X.X.X.X.X.X.X.X.X.X.X.X.X.X.X.X.X.X.X.X.X.X.X.X.X.X.X.X}.XXn.j N N N N N N N N ",
"$ , ~ _ H H H H H H l B ).+X}..X.X.X.X.X.X.X.X.X.X.X.X.X.X.X.X.X.X.X.X.X.X.X.X.X.X.X.X.X.X.X.X.X.X.X.X.X.X.XXX6.h H H H H N H H ",
"$ , ~ _ K H H H H K N _.+X}..X.X.X.X.X.X.X.X.X.X.X.X.X.X.X.X.X.X.X.X.X.X.X.X.X.X.X.X.X.X.X.X.X.X.X.X.X.X.X.X.X}.+.l H H N N H H ",
"$ , { ' _ _ _ _ } / N.+X}..X.X.X.X.X.X.X.X.X.X.X.X.X.X.X.X.X.X.X.X.X.X.X.X.X.X.X.X.X.X.X.X.X.X.X.X.X.X.X.X.X}.XX_.( } _ C N H H ",
"$ , ! { ~ ~ ~ { R 0.+X.X.X.X.X.X.X.X.X.X.X.X.X.X.X.X.X.X.X.X.X.X.X.X.X.X.X.X.X.X.X.X.X.X.X.X.X.X.X.X.X.X.X.X.X.X.X0.R ~ G m G G ",
"$ $ % = % % , % 2 ).oX.X.X.X.X.X.X.X.X.X.X.X.X.X.X.X.X.X.X.X.X.X.X.X.X.X.X.X.X.X.X.X.X.X.X.X.X.X.X.X.X.X.X.X.X.XXXW.% % % @ @ @ ",
"* * % % % % , # i.oX}..X.X.X.X.X.X.X.X.X.X.X.X.X.X.X.X.X.X.X.X.X.X.X.X.X.X.X.X.X.X.X.X.X.X.X.X.X.X.X.X.X.X.X.X.X.XXX8 & , % % % ",
"G G G G G G k A |..X.X.X.X.X.X.X.X.X.X.X.X.X.X.X.X.X.X.X.X.X.X.X.X.X.X.X.X.X.X.X.X.X.X.X.X.X.X.X.X.X.X.X.X.X.X.X}.XXM.T J G G G ",
"H H H H H H h b.oX}..X.X.X.X.X.X.X.X.X.X.X.X.X.X.X.X.X.X.X.X.X.X.X.X.X.X.X.X.X.X.X.X.X.X.X.X.X.X.X.X.X.X.X.X.X.X.X.XOX5.z N H H ",
"H H H H H l S |..X.X.X.X.X.X.X.X.X.X.X.X.X.X.X.X.X.X.X.X.X.X.X.X.X.X.X.X.X.X.X.X.X.X.X.X.X.X.X.X.X.X.X.X.X.X.X.X.X}.@XN.d H H H ",
"H H H H H h 8.XX}..X.X.X.X.X.X.X.X.X.X.X.X.X.X.X.X.X.X.X.X.X.X.X.X.X.X.X.X.X.X.X.X.X.X.X.X.X.X.X.X.X.X.X.X.X.X.X.X.X.X-XD l H H ",
"_ _ _ _ K f ~.XX.X.X.X.X.X.X.X.X.X.X.X.X.X.X.X.X.X.X.X.X.X.X.X.X.X.X.X.X.X.X.X.X.X.X.X.X.X.X.X.X.X.X.X.X.X.X.X.X.X.X}.+XN.( } _ ",
"~ ~ { ~ k o.{..X.X.X.X.X.X.X.X.X.X.X.X.X.X.X.X.X.X.X.X.X.X.X.X.X.X.X.X.X.X.X.X.X.X.X.X.X.X.X.X.X.X.X.X.X.X.X.X.X.X.X.XoX%X~ { { ",
"* * % , # w XX.X.X.X.X.X.X.X.X.X.X.X.X.X.X.X.X.X.X.X.X.X.X.X.X.X.X.X.X.X.X.X.X.X.X.X.X.X.X.X.X.X.X.X.X.X.X.X.X.X.X.X.X.X+X9 # , ",
"$ $ % , # f.XX}..X.X.X.X.X.X.X.X.X.X.X.X.X.X.X.X.X.X.X.X.X.X.X.X.X.X.X.X.X.X.X.X.X.X.X.X.X.X.X.X.X.X.X.X.X.X.X.X.X.X.X}.oXi.o - ",
"$ * ! E m !.XX.X.X.X.X.X.X.X.X.X.X.X.X.X.X.X.X.X.X.X.X.X.X.X.X.X.X.X.X.X.X.X.X.X.X.X.X.X.X.X.X.X.X.X.X.X.X.X.X.X.X.X.X.XXX).x G ",
"$ , { ' F `..X.X.X.X.X.X.X.X.X.X.X.X.X.X.X.X.X.X.X.X.X.X.X.X.X.X.X.X.X.X.X.X.X.X.X.X.X.X.X.X.X.X.X.X.XXXXXXXXXXX X{.`.^.T.B.B l ",
"$ , ~ ( O.{..X.X.X.X.X.X.X.X.X.X.X.X.X.X.X.X.X.X.X.X.X.X.X.X.X.X.X.X.X.X.X.X.X.X.X.X.XXXXXXXXXXX.X{./.E.S.V.a.-.&...b c x a H H ",
"$ , { ( %. X.X.X.X.X.X.X.X.X.X.X.X.X.X.X.X.X.X.X.X.X.X.X.X.X}..X.X.XXXXXXXXXXX X'.].^.T.B.d.a.&.8 4 Q ! f a h h j l l K H H H H ",
"$ , { ] 7.XX.X.X.X.X.X.X.X.X.X.X.X.X.X.X.X.X.X.X.X.X.X.X.XXXXXXXXX{.!.D.C.x.8.6.3.1.^ W f p j p # % ) ] } } } } } } } _ K N H H ",
"$ , ! / 9.XX.X.X.X.X.X.X.X.X.X.X.X.X.X.X.X.X.X.X.X.X.X.X{.B.;.X.5   J U U T R R ) ) { { H G G m - , ! { ~ ~ ~ ~ ~ ~ { ~ G m G G ",
"$ $ , # w XX.X.X.X.X.X.X.X.X.X.X.X.X.X.X.X.X.X.X.X.X.X.X[.Z.f.g.y.t r 6 3 < @ o o o o & & % % : ; ; : , , : : % * * % % @ @ @ @ ",
"* * , # 0 XX.X.X.X.X.X.X.X.X.X.X.X.X.X.X.X.X.X.X.X.X.X.X.XXXXXoX:X;X>X8X,X#XY.l.h.t.e 6 7 < @ O O X # O O % % % ; : , - - : % % ",
"G G G p %..X.X.X.X.X.X.X.X.X.X.X.X.X.X.X.X.X.X.X.X.X.X.X.X.X}.}.}.}..X.X.XoX+X+X@X;X>X5X<X,X&XP.L.H.>.$.@.P V u o o U R k a G G ",
"H H N l O.{..X.X.X.X.X.X.X.X.X.X.X.X.X.X.X.X.X.X.X.X.X.X.X.X.X.X.X.X.X.X.X.X.X}.}.}..X.X.XoXoX+X@X:X;X>X8X<X*X&Xz.j.K.w.2.D H H ",
"H H H l Z (..X.X.X.X.X.X.X.X.X.X.X.X.X.X.X.X.X.X.X.X.X.X.X.X.X.X.X.X.X.X.X.X.X.X.X.X.X.X.X.X.X}.}.}.}..X.X.XoXoX+X@X;X>X>XF.f H ",
"H H H K G R.XX.X.X.X.X.X.X.X.X.X.X.X.X.X.X.X.X.X.X.X.X.X.X.X.X.X.X.X.X.X.X.X.X.X.X.X.X.X.X.X.X.X.X.X.X.X.X.X.X.X}.}.}.}.XX:.j K ",
"_ _ } } j V.XX}..X.X.X.X.X.X.X.X.X.X.X.X.X.X.X.X.X.X.X.X.X.X.X.X.X.X.X.X.X.X.X.X.X.X.X.X.X.X.X.X.X.X.X.X.X.X.X.X.X.X.X.X{.3.( } ",
"~ ~ { ~ a :.XX.X.X.X.X.X.X.X.X.X.X.X.X.X.X.X.X.X.X.X.X.X.X.X.X.X.X.X.X.X.X.X.X.X.X.X.X.X.X.X.X.X.X.X.X.X.X.X.X.X.X.X.XXXR.Y { { ",
", , % , # 4 {..X.X.X.X.X.X.X.X.X.X.X.X.X.X.X.X.X.X.X.X.X.X.X.X.X.X.X.X.X.X.X.X.X.X.X.X.X.X.X.X.X.X.X.X.X.X.X.X.X.X.X.XXXr.# , - ",
"$ $ % % % @ A.XX.X.X.X.X.X.X.X.X.X.X.X.X.X.X.X.X.X.X.X.X.X.X.X.X.X.X.X.X.X.X.X.X.X.X.X.X.X.X.X.X.X.X.X.X.X.X.X.X.X.X.X[.4 # - @ ",
"$ * ! E G p :.XX.X.X.X.X.X.X.X.X.X.X.X.X.X.X.X.X.X.X.X.X.X.X.X.X.X.X.X.X.X.X.X.X.X.X.X.X.X.X.X.X.X.X.X.X.X.X.X.X.X.XXXc.s G G G ",
"$ , { ' K l Z (..X.X.X.X.X.X.X.X.X.X.X.X.X.X.X.X.X.X.X.X.X.X.X.X.X.X.X.X.X.X.X.X.X.X.X.X.X.X.X.X.X.X.X.X.X.X.X.X.X.X{.o.l N N N ",
"$ , ~ _ H H h v.XX}..X.X.X.X.X.X.X.X.X.X.X.X.X.X.X.X.X.X.X.X.X.X.X.X.X.X.X.X.X.X.X.X.X.X.X.X.X.X.X.X.X.X.X.X.X.X.XXXd.p H H H H ",
"$ , ~ _ K H l A `..X.X.X.X.X.X.X.X.X.X.X.X.X.X.X.X.X.X.X.X.X.X.X.X.X.X.X.X.X.X.X.X.X.X.X.X.X.X.X.X.X.X.X.X.X.X.X.X`.Z l H H H H ",
"$ , { ' _ _ } / b.XX}..X.X.X.X.X.X.X.X.X.X.X.X.X.X.X.X.X.X.X.X.X.X.X.X.X.X.X.X.X.X.X.X.X.X.X.X.X.X.X.X.X.X.X.X}.XXM./ } K N H H ",
"$ , ! { ~ ~ ~ ) Q ^.XX.X.X.X.X.X.X.X.X.X.X.X.X.X.X.X.X.X.X.X.X.X.X.X.X.X.X.X.X.X.X.X.X.X.X.X.X.X.X.X.X.X.X.X.X.X}.4.) ~ G m G G ",
"$ $ % = % % % , & 0 .X.X.X.X.X.X.X.X.X.X.X.X.X.X.X.X.X.X.X.X.X.X.X.X.X.X.X.X.X.X.X.X.X.X.X.X.X.X.X.X.X.X.X.X}.XXA.& , % @ @ @ @ ",
"* * % % % % % % > # u.XX}..X.X.X.X.X.X.X.X.X.X.X.X.X.X.X.X.X.X.X.X.X.X.X.X.X.X.X.X.X.X.X.X.X.X.X.X.X.X.X.X.X.XXX0 # , - % % % % ",
"G G G G G G G m @ = L D.XX}..X.X.X.X.X.X.X.X.X.X.X.X.X.X.X.X.X.X.X.X.X.X.X.X.X.X.X.X.X.X.X.X.X.X.X.X.X.X.X}.XXC.X , ! ~ G m G G ",
"H H H H H H C G @ , ) ^ E.XX}..X.X.X.X.X.X.X.X.X.X.X.X.X.X.X.X.X.X.X.X.X.X.X.X.X.X.X.X.X.X.X.X.X.X.X.X.X.X.X.X@.& , { ' K H H H ",
"H H H H H H H G @ % ~ ( A Q.XX}..X.X.X.X.X.X.X.X.X.X.X.X.X.X.X.X.X.X.X.X.X.X.X.X.X.X.X.X.X.X.X.X.X.X.X.X}.XXm.p : % ~ } H H H H ",
"H H H H H H H G @ % E } l b E.XX}..X.X.X.X.X.X.X.X.X.X.X.X.X.X.X.X.X.X.X.X.X.X.X.X.X.X.X.X.X.X.X.X.X.X}.XXD.l G @ % ~ _ K H H H ",
"_ _ _ _ K N C G @ % { | } ( ^ D.XX.X.X.X.X.X.X.X.X.X.X.X.X.X.X.X.X.X.X.X.X.X.X.X.X.X.X.X.X.X.X.X.X.X.XXXS.I z G @ % { | _ _ _ _ ",
"~ ~ { E G m G m @ * ! { ~ { ) Y d..XXX.X.X.X.X.X.X.X.X.X.X.X.X.X.X.X.X.X.X.X.X.X.X.X.X.X.X.X.X.X.XXX.Xd.M a G m @ * ! { ~ { { { ",
"* * % % @ @ @ @ $ $ * , - % , * O 0 Q.XX.X.X.X.X.X.X.X.X.X.X.X.X.X.X.X.X.X.X.X.X.X.X.X.X.X.X.X.XXXQ.9 # % : @ @ $ $ * , - - - - ",
"$ $ % % % % % % % % @ @ @ @ @ @ ; # . u.`.XX.X.X.X.X.X.X.X.X.X.X.X.X.X.X.X.X.X.X.X.X.X.X.X.XXX`.p.  & , % % % % % % @ @ @ @ @ @ ",
"$ * ! E G G G G G G G G G G G M @ , Y U b s./.XXXX.X.X.X.X.X.X.X.X.X.X.X.X.X.X.X.X.X.XXXXX/.s.n o % ! E G G G G G G G G G G G G ",
"$ , { ' K N H N N N N N N H C G @ * { | l p v -.S.'.XXXXXX.X.X.X.X.X.X.X.X.X.XXXXXXX`.Z.-.v h k - , { ' K N H N N N N N N N N N ",
"$ , ~ _ H H H H H H H H H H H m @ , ~ _ H H l h u  .=.V.T./.{. X.X.X X X X{./.T.c.=. .u h l K G @ , ~ _ H G H H H H H H H H H H ",
"$ , { _ K H K H H H H H H H H G @ , ~ _ K H K K K l h a x v ..X.0 q *.6.%.o.v x k h l K H H H G @ , ~ _ K H K H H H H H H H H H ",
"$ , ~ ' ) _ _ _ _ ) _ ) K H H G @ , ~ ' ) _ _ ) ) } } { K l l a # & R ( / / _ _ } } } ) K H H G @ , ~ ' ) _ _ _ _ ) _ ) K H H H ",
"$ , ~ | } } } } } } } } K H H G @ , ~ | } } } } } } } } H H N G - , { | } } } } } } } } K H H G @ , ~ | } } } } } } } } K H H H "
};
