/* XPM */
static char *left11708704599[] = {
/* columns rows colors chars-per-pixel */
"64 64 187 2 ",
"   c #00281F",
".  c #3F221F",
"X  c #032D25",
"o  c #0C2E26",
"O  c #002F28",
"+  c #0D2E28",
"@  c #112E27",
"#  c #1C2923",
"$  c #122F28",
"%  c #182721",
"&  c #023027",
"*  c #0D3026",
"=  c #013029",
"-  c #083029",
";  c #133027",
":  c #153127",
">  c #272822",
",  c #332320",
"<  c #3D2723",
"1  c #332A24",
"2  c #7E1B1E",
"3  c #55211F",
"4  c #60211F",
"5  c #522523",
"6  c #5D2422",
"7  c #55302D",
"8  c #642423",
"9  c #702523",
"0  c #002B7C",
"q  c #00327F",
"w  c #9C1E0D",
"e  c #9D1C11",
"r  c #961C11",
"t  c #841D1D",
"y  c #A61D0B",
"u  c #AD1D0A",
"i  c #B01E0D",
"p  c #A21B13",
"a  c #AD1D16",
"s  c #AF1D19",
"d  c #B41D16",
"f  c #B21A19",
"g  c #BB1A1A",
"h  c #B5171A",
"j  c #9F200F",
"k  c #92200E",
"l  c #942311",
"z  c #9C2312",
"x  c #A4210F",
"c  c #AD220F",
"v  c #B1220F",
"b  c #A22312",
"n  c #AC2210",
"m  c #AF2119",
"M  c #AF2D1F",
"N  c #B12311",
"B  c #B72519",
"V  c #B82619",
"C  c #B41920",
"Z  c #AB2523",
"A  c #BD2B21",
"S  c #B73329",
"D  c #BA3B33",
"F  c #B5393A",
"G  c #C41A1C",
"H  c #CC1A1E",
"J  c #D0191F",
"K  c #EC0D15",
"L  c #EC0F18",
"P  c #EC141C",
"I  c #EC181F",
"U  c #CD2E1A",
"Y  c #CF281A",
"T  c #D82B17",
"R  c #D2241C",
"E  c #D9241C",
"W  c #DD2E1B",
"Q  c #D12918",
"!  c #C9311C",
"~  c #D2301C",
"^  c #DE301C",
"/  c #E82D17",
"(  c #E52E1A",
")  c #EC2F1A",
"_  c #E72914",
"`  c #F22F1A",
"'  c #E2301C",
"]  c #EC301B",
"[  c #F2301B",
"{  c #F8301B",
"}  c #CA1920",
"|  c #D41C22",
" . c #DA1921",
".. c #ED1720",
"X. c #E41A23",
"o. c #ED1C24",
"O. c #EF1E28",
"+. c #F31C24",
"@. c #F81A23",
"#. c #F61F28",
"$. c #C62420",
"%. c #C7252A",
"&. c #C02B22",
"*. c #D42B2D",
"=. c #DE3428",
"-. c #E42027",
";. c #ED2027",
":. c #ED222A",
">. c #E4292C",
",. c #F32129",
"<. c #F9252E",
"1. c #EA342D",
"2. c #ED2C34",
"3. c #F12D35",
"4. c #F22F38",
"5. c #EE343B",
"6. c #E4393D",
"7. c #E53336",
"8. c #F2323B",
"9. c #FB343C",
"0. c #C13B40",
"q. c #EE3941",
"w. c #F63A42",
"e. c #9A4C4D",
"r. c #A7494A",
"t. c #D84643",
"y. c #E74748",
"u. c #F04147",
"i. c #F2424A",
"p. c #F1484E",
"a. c #EE4950",
"s. c #F44C53",
"d. c #FE4C53",
"f. c #E95458",
"g. c #F3545A",
"h. c #F2585E",
"j. c #F25357",
"k. c #F95D61",
"l. c #F5686D",
"z. c #F66F73",
"x. c #F6777B",
"c. c #003381",
"v. c #033B85",
"b. c #083F88",
"n. c #083D86",
"m. c #0C428A",
"M. c #174A8E",
"N. c #235495",
"B. c #3E69A2",
"V. c #597EAF",
"C. c #4B72A7",
"Z. c #F57D82",
"A. c #698AB6",
"S. c #6E8EB9",
"D. c #6588B6",
"F. c #7894BD",
"G. c #F88588",
"H. c #F68E92",
"J. c #F79599",
"K. c #F69195",
"L. c #F79DA1",
"P. c #F9ADB0",
"I. c #F9B5B8",
"U. c #9EB4D0",
"Y. c #90A9CA",
"T. c #A4BCD7",
"R. c #B8C6DB",
"E. c #ADCEE6",
"W. c #C7CFDF",
"Q. c #FAC2C4",
"!. c #FBC7C9",
"~. c #FBCBCD",
"^. c #FCD5D7",
"/. c #FDDBDC",
"(. c #FCD7D8",
"). c #C1CFE1",
"_. c #CCDDEC",
"`. c #D2DCE9",
"'. c #FCDFE0",
"]. c #C6E0F1",
"[. c #DFEEF7",
"{. c #DCF0FA",
"}. c #FCE8E9",
"|. c #FEF4F3",
" X c #F5FAFC",
".X c #FFFEFE",
"XX c #EAEFF5",
/* pixels */
"O O O O = O O O O O = O O O O O O O O O O O O O O O O O = = = = = = = = = O O O = O O O O O O O O O O O O O O O O O = O O O O O ",
"@ + + @ @ + + @ + @ X X : : @ @ @ @ @ + + @ @ @ o O : : o o   %   o o * + @ @ @ * = $ : @ @ @ @ @ + + @ @ @ @ @ O O @ : @ + @ @ ",
"b b b b x b b b b z + + ~ W b b b b b b b z b l X X Q W Z S D D D S S Z b w w r = : ~ ^ b b b b b b b b b b b z + + ~ W b b b b ",
"c N n n c v a n v b o + ( ` N c n n n N n i u n 7 e.j.h.g.d.s.p.d.s.d.j.j.f.t.S #   ^ ] v c n c n N n n n n N b + @ ' ` N c n n ",
"n x n b n n n b n x o + ^ ) n n n b n y y A t.j.d.w.3.o.I I I I P I I I ,.2.w.s.f.r.=._ x n n n n y n x n n n b o @ ^ ] c n n n ",
"n N N n n n n n c b o + ^ ) N n N N u A t.s.8.;.I ....o.o.o.o.;.o.o.o.o.o.I P P ,.9.a.a.&.u n n n N N n n b n b o + ^ ) N n n n ",
") ) ) ) N n N n c b o + ' [ ] [ / ( y.s.8...I o.o.o.o.o.o.o.o...o.o.o.o.o.o.o.o.o.I I 3.s.y.( ) [ ] ) / N c v b o + ' [ ) ] ] ] ",
"' ' ' W b z b b b z o ; ~ ' ^ T 1.a.8.....o.o.o.o.o.o.o.o.o.o.o.o.o.o.o.o.o.o.o.o.o...I I 8.p.1.T ^ 1.T b b b z o * ~ ' ^ ^ ' ' ",
"@ @ ; + o o o o + o = = $ * # F i.;.P o.o.o.o.o.+.o.o.o.o.o.o.o.o.o.o.o.o.o.o.o.o.o.o.o.;.I o.i.F # - + o o o o O O ; * * * ; * ",
"= = + + o o o + o o + $ X # 0.9.I +.o.o.o.o.o.o.o.o.o.o.o.o.o.o.o.o.o.o.o.o.o.o.o.o.o.+.o.o.o.I 9.0.# o + o o o @ + o + o o o o ",
"O $ ~ ^ b b b b b b b z j 6.9.I o.o.o.o.o.o.o.o.o.o.o.o.o.o.o.o.o.o.o.o.o.o.o.o.o.o.o.o.o.o.o.o.I 9.6.T b b b b x b b b b b b b ",
"O : ' [ N n n n n n n i 7.3.I o.o.o.o.o.o.o.o.o.o.o.o.o.o.o.o.o.o.o.o.o.o.o.o.o.o.o.o.o.o.o.o.o.o.I 4.7.N n c c x v c c n c c n ",
"O : W ) n n n n n n y *.2.I o.o.o.o.o.o.o.o.o.o.o.o.o.o.o.o.o.o.o.o.o.o.o.o.o.o.o.o.o.o.o.o.o.o.o.;.I 5.*.y m c n n b n n n b c ",
"O : ' ) N n n n n x $.8.o.o.o.o.o.o.o.o.o.o.o.o.o.o.o.o.o.o.o.o.o.o.o.o.o.o.o.o.o.o.o.o.o.o.I o.o.o.o.I 4.$.x c n v v n n n n n ",
"O $ ' ` ) ) ) ) ] ( 2.o.o.o.o.o.o.o.o.o.I o.o.o.o.o.o.o.o.o.o.o.o.o.o.o.o.o.o.o.o.o.o.o.o.o.o.o.o.o.o...O.2.W ] ] ) ) ) N i n n ",
"O ; ~ ' ^ ^ W ( ~ >.:.o.o.o.o.o.o.o.o.o.o.o.o.o.o.o.o.o.o.o.o.o.o.o.o.o.o.o.o.o.o.o.o.o.o.o.o.o.o.o.o.o.o.:.>.T ^ ^ ' W b z b b ",
"O O + @ + + @ = 8 <.o.o.o.o.o.o.o.o.o.o.o.o.o.o.o.o.o.o.o.o.o.o.o.o.o.o.o.o.o...o.o.o.o.o.o.o.o.o.o.o.o.o...<.8 & : + + o o o o ",
"@ @ o + + + o @ %.,.o.o.o.;.;.;.;.o.o.o.o.o.o.o.o.o.o.o.o.o.o.o.o.o.o.o.;.;.:.o.o.o.o.o.o.o.o.o.o.o.o.o.o.o.,.%.& = @ * * + + + ",
"x z b b b b z d ,.o.o.o.;.P K K K K I o.o.o.o.o.o.o.o.+.o.o.o.o.o.o.o.P K K K K ..:.o.o.o.o.o.o.o.o.o.o.o.o.I <.5 = ~ ' b b z b ",
"c n c N n N x | ,.o.o.P L u.x.J.K.z.5.K ..:.o.o.o.o.o.o.o.o.o.o.o.I P p.Z.J.H.l.3.K o.;.o.o.o.o.o.o.o.o.o.o.o.,.Z o ' ` v n v c ",
"b n x n n n n -.o.o.P 5.I..X.X.X.X.X.XL.:.I o.o.o.o.o.o.o.o.o.o.L w.!..X.X.X.X.X|.H...I o.o.o.o.o.o.o.o.o.o.o.o.-.1 ~ ) n n b n ",
"N N N n n x g O.o.P i.|..X.X X.X.X.X.X.X(.2...o.o.o.o.o.o.o.o.P h..X X.X.X.X.X.X.X.XQ.;...o.o.o.o.o.o.o.o.o.o.o.#.9 ~ ` N N n N ",
") ) ) ) v x H ,...2.}..X.X.X.X.X.X.X.X|..X!...o.o.o.o.o.o.o.I q. X.X.X.X.X.X.X.X.X.X.XP.P o.o.o.o.o.o.o.o.o.o.o.#.Z ~ { ] ] ) ) ",
"' ' ' ' b z | ,.K L..X).S.A.R..X.X.X.X.X.X.Xx.K o.o.o.o.o.:.P I..XR.S.S.)..X.X.X.X.X.X.Xh.P o.o.o.o.o.o.o.o.o.o.+.| U ' ^ ' ' ' ",
"; @ * @ = > X.I :.|.T.c.c.c.0 F..X.X.X.X.X.X~.I o.o.o.o.o.P 5..XY.0 c.q c.U..X.X.X.X.X.XI.K ;.o.o.o.o.o.o.o.o.o.o.X.> * ; * * ; ",
"O O * @ = < ;.P j. XM.v.m.m.m.v._..X.X.X.X.X|.2...o.o.o.o.K z.{.v.v.m.m.v.m.XX.X.X.X.X.X'.o.o.;.o.o.o.o.o.o.o.o.o...< = * o o * ",
"X $ ~ W b m o.K l._.v.m.n.b.m.q U..X.X.X.X.X.Xw.I o.o.o.;.K G.E.q m.m.v.m.v.R..X.X.X.X.X}.3...o.o.o.o.+.o.o.o.o.o.o.a z b b z b ",
"O : ' ` n a O.L k.[.v.m.m.m.m.q R..X.X.X.X.X|.5.I o.o.o.,.K x.].q m.m.m.m.v.`..X.X.X.X.X}.:...o.o.o.o.o.o.o.o.o.o.o.d n n v n n ",
"O : ^ ) n d O...5..XA.0 v.v.0 B..X.X.X.X.X.X/.o...o.o.o.o.P a..XC.0 v.n.0 V..X.X.X.X.X.XQ.I o.o.o.o.o.o.o.o.o.o.o.o.d x n n n n ",
"O : ^ ) n d o.o.L Q..XF.N.N.D.XX.X.X.X.X.X.XJ.K :.o.o.o.o.o.o.(. XA.N.N.S. X.X.X.X.X.X.Xx.K ;.o.o.o.o.o.o.o.o.o.o.o.d c n n x b ",
"O : ' ` ] R o.o.P s..X.X X X.X.X.X.X.X.X.X|.2...o.o.o.o.o.;.K l..X.X X X.X.X.X.X.X|..X/.:...o.o.o.o.o.o.o.o.o...o.o.E ] v c N N ",
"O ; ~ ( ^ R o.o.;.K x..X.X.X.X.X.X.X.X.X.Xh.L o.o.o.+.o.o.o.o.P J..X.X.X X.X.X.X.X.X.Xi.P ;.o.o.o.o.o.o.o.o.o.o.o.X.R W b z b b ",
"O O + @ O 8 +.o.o.o.P z.|..X.X.X.X.X.X}.j.K ;.o.o.o.o.o.o.o.o.o.P G..X.X.X.X.X.X.X^.u.L ;.o.o.o.o.o.o.o.o.o.o.o.o.@.8 = * o o o ",
"@ @ + @ O 8 @.o.o.o.o.K 5.G.Q.(.(.I.x.:.P ;.o.o.o.o.o.+.o.o.o.o.o.K q.H.!./.^.I.l.o.P ;.o.o.o.o.o.o.o.o.o.o.o.o.o.@.3 = ; * + o ",
"b z b b z d +.o.o.o.o.;.P K L o...P K ..o.o.o.o.o.o.o.o.o.o.o.o.o.o.I K I o...K L o.;.o.o.o.o.o.o.o.o.o.o.o.o.o.o.X.R ^ b b b b ",
"d n c N x d o.o.o.o.o.o.o.o.;.o.o.;.;.o.o.o.o.o.o.o.o.o.o.o.o.o.o.o.o.;.o.o.o.;.;.o.o.o.o.o.o.o.o.o.o.o.o.o.o.o.o.o.E ] v n n c ",
"x n n n x d +.o.o.o.o.o.o.o.o.o.o.o.o.o.o.o.o.o.o.o.o.o.o.o.o.o.o.o.o.o.o.o.o.o.o.o.o.o.o.o.o.o.o.o.o.o.o.o.o.o.o.o.E ' N n n n ",
"N n n n x d o.o.o.o.o.o.o.o.o.o.o.o.o.o.o.o.o.o.o.o.o.o.o.o.o.o.o.o.o.o.o.o.o...o.o.I o.o.o.o.o.o.o.o.o.o.o.o.o.o.X.E ] N n n n ",
"] ] ] ) v d o.o.o.o.o.o.o.o.o.o.o.o.o.o.o.o.o.o.o.o.o.o.o.o.o.o.o.o.o.o.o.o.o.o.o.o.o.o.o.o.o.o.o.o.o.o.o.o.o.o.o.o.E [ ] ] ] ] ",
"^ ' ' W z d o.o.o.o.o.o.o.o.o.o.o.o.o.o.o.o.o.o.o.o.o.o.o.o.o.o.o.o.o.o.o.o.o.o.o.o.o.o.o.o.o.o.o.+.o.o.o.o.I o...X.R ^ ' ^ ' ' ",
"; @ * @ = 8 @.o.o.o.o.o.o.o.o.o.o.o.o.o.o.o.o.o.o.o.o.o.o.o.o.o.o.o.o.o.o.o.o.o.o.o.o.o.o.o.o.o.o.o.o.o.o.o.o.o.o.#.6 = ; * * ; ",
"O O + @ & 4 @.o.o.o.o.o.o.o.o.o.o.o.o.o.o.o.o.o.o.o.o.o.o.o.o.o.o.o.o.o.o.o.o.o.o.o.o.o.o.o.o.o.o.o.o.o.o.o.o.o.o.@.6 = + o o o ",
"O $ ~ ( b a o.o.o.+.o.o.I o.o.o.o.o.o...+.o.o.o.o.o.o.o.o.o...o.o.o.o.o.o.o.o.o.o.o.o.o.o.o.o.o.o.o.o...o.o.o.o...o.a z b b x z ",
"O : ' ` n d ..o.o.o.o.o.o.o.o.o.o.o.o.o.o.o.o.o.o.o.o.o.o.o.o.o.o.o.o.o.o.o.o.o.o.o.o.o.o.o.o.o.o.o.o.o.o.o.o.o.o.o.d n n c c c ",
"O : ( ) n d ..o.o.o.o.o.o.o.o.o.o.o.o.o.o.o.o.o.o.o.o.o.o.o.o.o.o.o.o.o.o.o.o.o.o.o.o.o.o.o.+.o.o.o.o.o.o.o.o.o.o.o.d x n n x n ",
"O : ^ ] n B o.o.o.o.o.o.o.o.o.o.o.o.o.o.o.o.o.o.+.o.o.o.o.o.o.o.o.o.o.o.o.o.o.o.o.o.o.o.o.o.o.o.o.o.o.o.o.o.o.o.o.o.d c n n n n ",
"O : ' ` ) R o.o.o.o.o.o.o.o.o.o.o.o.o.o.o.o.o.o.o.o.o.o.o.o.o.o.o.o.o.o.+.o.o.o.o.o.o.o.o.o.o.o.o.o.o.o.o.o.o.o.o.X.E ] v c n n ",
"O @ U ' ^ R o.o.o.o.o.o.o.o.o.o.o.o.o.o.o.o.o.o.o.o.o.o.o.o.o.o.o.o.o.o.o.o.o.o.o.o.o.o.o.o.o...o.o.o.o.o.o.o.o.o.o.R ^ b b b b ",
"O O + $ O 8 @.o.o.o.o.o.o.o.o.o.o.o.o.o.o.o.o.o.o.o.o.o.o.o.o.o.o.o.+.o.o.o.o.o.o.o.o.o.o.o.o.o.o.+.o.o.o.o.o.o.o.@.6 = + o o o ",
"@ + + @ O 8 @.o.o.o.o.o.o.o.o.o.o.o.o.o.o.o.o.o.o.o.o.o.o.o.o.o.o.o.o.o.o.o.o.o.o.o.o.o.o.o.o.o.o.o.o.o.o.o.o.o.o.@.6 = @ + + o ",
"b b b b b d o.o.o.o.o.o.o.o.o.o.o.o.o.o.o.o.o.o.o.o.o.o.o.o.o.o.o.o.o.o.o.o.o.o.o.o.o.o.o.o.o.o.o.o.o.o.o.o.o.o.o.o.R ^ b b b z ",
"n n N n x d o.o.o.o.o.o.o.o.o.o.o.o.o.o.o.o.o.o.o.o.o.o.o.o.o.o.o.o.o.o.o.o.o.o...o.o.o.o.o.o.o.o.o.o.o.o.o.o.o.o.X.E ) N c v c ",
"n n n n x d o.o.o.o.o.o.o.o.o.o.o.o.o.o.o.o.o.o.o.o.o.o.o.o.o.o.o.o.o.o.o.o.o.o.o.o.o.o.o.o.o.o.o.o.o.o.o.o.o.o.o.o.E ' N n n b ",
"n n n N x d o.o.o.o.o.o.o.o.o...o.o.o.o.o.o.o.o...o.o.o.o.o.o.+.o.o.o.o.o.o.o.o.o.o.o.o.o.o.o.o.o.o.o.o.o.o.o.o.o.X.E ] N n N N ",
") ) ) / v d o.o.o...o.o.o.+.X. .o.+.o.o.o...o.o.o.o.o.o.o.o.o. . .o.+.o.o.o.o.o.o.o.o.o.o.o.o. .X.+.o.o.o.o.o.o.o.o.E [ ) ) ) ) ",
"' ^ 1.T b m o.o.o.o.o.o.+.H B V a | +.o.o.o.o.o.o.o.o.o.+. .a B V d J +.o.o.o.o.o.o.o.o.+. .a V N G +.o.o.o.o.o.o.X.R ^ ' ^ ' ' ",
": @ o @ O 5 +.o.o.o.o.#.C % o : * . } o.o.o.o.o.o.o.o.+.J > X : : * . | +.o.o.o.o.o.o... ., * : @ o 2 +.o.o.o.o.o.@.5 = * * * * ",
"O O * ; O 5 +.o.o.o.o.} > O o o O = 5 I o.o.o.o.o.o.o.X.. = @ o O O = 4 ..o.o.o.o.o.o.o.3 = + o O O X t o.o.o.o.o...5 = * o o o ",
"O @ ~ ^ x p o.o.o.o. .r z b b l o ; ! G X.o.o.o.o.o.X.p l b b z + @ ~ U g o.o.o.o.o.+.f l b b z o @ ~ U h o.o.o.o.X.e b b b x z ",
"X : ' [ v p  .+.o.X.e n N c v b * ; ' W s o.+.o.+.o.s y N c v b o ; ' ` e H +.o.+.+.g j v n v b o @ ' ` w h o.+.#.H x n c c c c ",
"= ; ^ ) n b h X. .p x n n n n b o + ^ ) p p | X. .a w n b x N b o $ ( ) n e G X. .h e x n n n b o ; ^ / N k f X. .p x n n n n n ",
"O : ( ) N n x e e x n n n n n b o @ ' ] N y e p e p N n n n c b O $ ^ ) N n e p e j n N n n n b o + ' ) N v x e p x N n n n n n ",
"O $ ^ ) ( ] ] ' ) ) ) ( n n n b O : ^ ` ] ] ] ( ] ) ) ( N n n b o $ ^ ) ( ) ] ' ] ] ) ( n n n b X ; ^ ` ) ( ] ' ' ) ) ( N n b c ",
"O : ^ [ ] ` ] ] ] ] ] ) N n n b o $ ^ ] ] ] ] ) ] ] ) ) N n n z * $ ^ [ ] [ ] ] ] ] ] ] N b n b o $ W [ ] ) [ ] [ ] ] ) N n x n "
};
