/* XPM */
static char *left41708704599[] = {
/* columns rows colors chars-per-pixel */
"64 64 189 2 ",
"   c #00281F",
".  c #29221E",
"X  c #3E231F",
"o  c #032D25",
"O  c #0C2E26",
"+  c #002F28",
"@  c #0D2E28",
"#  c #112E27",
"$  c #1C2923",
"%  c #122F28",
"&  c #172621",
"*  c #023027",
"=  c #0E3026",
"-  c #013029",
";  c #0A3028",
":  c #133027",
">  c #123128",
",  c #232621",
"<  c #292A24",
"1  c #382723",
"2  c #441C1B",
"3  c #5A1E1D",
"4  c #69191B",
"5  c #5D2422",
"6  c #522624",
"7  c #55302D",
"8  c #642423",
"9  c #702523",
"0  c #002B7C",
"q  c #00327F",
"w  c #9C1D0C",
"e  c #941D0F",
"r  c #9E1B12",
"t  c #911B1E",
"y  c #981916",
"u  c #891910",
"i  c #A61D0B",
"p  c #AD1D0A",
"a  c #B01E0D",
"s  c #A21B13",
"d  c #AC1D16",
"f  c #AC161A",
"g  c #AF191E",
"h  c #B41D16",
"j  c #B41B19",
"k  c #BA1B1B",
"l  c #B7171B",
"z  c #99210E",
"x  c #852111",
"c  c #942311",
"v  c #9C2312",
"b  c #A5220F",
"n  c #AD220F",
"m  c #B2220F",
"M  c #A22312",
"N  c #AC2210",
"B  c #AF2D1F",
"V  c #B12311",
"C  c #B62419",
"Z  c #B21A20",
"A  c #AB2523",
"S  c #BD2B21",
"D  c #B73329",
"F  c #BA3B33",
"G  c #B5393A",
"H  c #C3191D",
"J  c #CB1A1E",
"K  c #C2171D",
"L  c #D2171F",
"P  c #EC0D15",
"I  c #EC0F18",
"U  c #EC141C",
"Y  c #EC181F",
"T  c #CD2B1A",
"R  c #C82817",
"E  c #D82B17",
"W  c #D2241C",
"Q  c #D9241C",
"!  c #D32C19",
"~  c #DC2E1B",
"^  c #CD311C",
"/  c #D2301C",
"(  c #DE311C",
")  c #E82D17",
"_  c #E52E1A",
"`  c #EC2F1A",
"'  c #E72914",
"]  c #F22F1A",
"[  c #E2301C",
"{  c #ED301B",
"}  c #F3311C",
"|  c #F8311C",
" . c #CD1921",
".. c #C51B21",
"X. c #D51C22",
"o. c #DA1921",
"O. c #ED1720",
"+. c #E41A23",
"@. c #ED1C24",
"#. c #EF1E28",
"$. c #F31C25",
"%. c #F81A23",
"&. c #F61F28",
"*. c #C62420",
"=. c #C52727",
"-. c #D42B2D",
";. c #DE3428",
":. c #E42027",
">. c #ED2027",
",. c #ED222A",
"<. c #E4292C",
"1. c #F32129",
"2. c #F9252E",
"3. c #EA342D",
"4. c #ED2C34",
"5. c #F12D35",
"6. c #F22F38",
"7. c #EE343B",
"8. c #E4393D",
"9. c #E53336",
"0. c #F2323B",
"q. c #FB343C",
"w. c #C13B40",
"e. c #EE3941",
"r. c #F63A42",
"t. c #9A4C4D",
"y. c #A7494A",
"u. c #D84643",
"i. c #E74748",
"p. c #F04147",
"a. c #F2424A",
"s. c #F1484E",
"d. c #EE4950",
"f. c #F44C53",
"g. c #FE4C53",
"h. c #E95458",
"j. c #F3545A",
"k. c #F2585E",
"l. c #F25357",
"z. c #F95D61",
"x. c #F5686D",
"c. c #F66F73",
"v. c #F6777B",
"b. c #003381",
"n. c #033B85",
"m. c #083F88",
"M. c #083D86",
"N. c #0C428A",
"B. c #174A8E",
"V. c #235495",
"C. c #3E69A2",
"Z. c #597EAF",
"A. c #4B72A7",
"S. c #F57D82",
"D. c #698AB6",
"F. c #6E8EB9",
"G. c #6588B6",
"H. c #7894BD",
"J. c #F88588",
"K. c #F68E92",
"L. c #F79599",
"P. c #F69195",
"I. c #F79DA1",
"U. c #F9ADB0",
"Y. c #F9B5B8",
"T. c #9EB4D0",
"R. c #90A9CA",
"E. c #A4BCD7",
"W. c #B8C6DB",
"Q. c #ADCEE6",
"!. c #C7CFDF",
"~. c #FAC2C4",
"^. c #FBC7C9",
"/. c #FBCBCD",
"(. c #FCD5D7",
"). c #FDDBDC",
"_. c #FCD7D8",
"`. c #C1CFE1",
"'. c #CCDDEC",
"]. c #D2DCE9",
"[. c #FCDFE0",
"{. c #C6E0F1",
"}. c #DFEEF7",
"|. c #DCF0FA",
" X c #FCE8E9",
".X c #FEF4F3",
"XX c #F5FAFC",
"oX c #FFFEFE",
"OX c #EAEFF5",
/* pixels */
"+ + + + + + + + + + + + + + + + + + + + + + + + + + + + * * - - - - + + + + + + + + + + + + + + + + + + + + + + + + + + + + + + ",
"# @ @ # @ # # # @ # O * : : @ # # # # @ @ # # # @ - : % = O   &   O & O @ # # # - O % : # # @ # # @ # # # # # # + O % : # # @ # ",
"M M M M M M v v s c O @ / ~ N v M M M M M M M c o o ! ~ A D F F F F D B M i w e * > ^ ( M M M M M M M M M M M v O @ / ( N M M M ",
"n V N N V N N N m N O ; [ ] V N N V N N N p p N 7 t.l.k.j.g.f.f.g.f.f.j.k.h.u.D $   _ } V N n V n N N N N N V M O @ [ ` V N N N ",
"N N N N N N N N n M @ @ ( ` V N N N N i i S u.l.g.r.4.@.U U U U U U U Y @.5.r.f.h.y.;.) n N N N N N b N N N N M O @ ( { N N N N ",
"N N N V N N N N n M O = ~ { V N V m i S i.f.0.>.U O.@.@.@.@.@.>.@.>.@.@.@.+.U U $.r.d.d.S p N V N N N V N N N v O : ~ ` N N N N ",
"` ` ` ` N N V N m M O @ _ } { { ) _ i.f.7.O.U @.#.@.@.@.@.@.@.@.@.@.@.@.@.@.@.@.@.U U 5.f.i._ ) ] ` ` ) N n m M O O [ } { { { { ",
"[ ( [ ~ M v M M M v @ = / [ ( E 3.d.0.U +.@.>.@.@.@.@.@.@.@.@.@.@.@.@.@.@.@.@.@.@.@.$.+.U 7.d.3.E ( 3.E M M M v O = / [ ( ( [ [ ",
"# # # @ ; O ; ; O O + + % ; $ G a.>.U @.@.@.@.@.@.@.@.@.@.@.@.@.@.@.@.@.@.@.@.@.@.@.@.@.@.U >.a.y.> ; # O O O @ + + # : = = @ = ",
"* + = @ O = = ; O O @ # O $ =.q.Y @.@.@.@.@.@.@.@.@.@.@.@.@.@.@.@.@.@.@.@.@.@.@.@.@.@.@.@.@.@.Y q.=.$ @ @ @ ; = @ @ O @ O O O O ",
"+ # / ( M M M M v M M v i 8.r.@.@.@.@.@.@.@.@.@.@.@.@.@.@.@.@.@.@.@.@.@.@.@.@.@.@.@.@.@.@.@.@.@.O.q.8.! M M M M M M M M M M M M ",
"* : [ ] m n N n N N N a 9.6.+.,.@.@.@.@.@.@.@.@.@.@.@.Y $.@.@.@.@.@.@.@.@.@.@.@.@.@.@.@.@.@.@.@.$.U 5.9.m N N n n n n n n n n n ",
"+ : [ ` n b N N N N i -.6.Y @.@.Y @.@.@.@.@.@.@.@.@.@.@.@.@.@.@.@.@.@.@.@.@.@.@.@.@.@.@.@.$.@.@.@.@.+.6.-.s N N N N N N N N N N ",
"+ : _ ` m n N V N n *.0.+.@.@.@.$.@.@.@.@.@.@.@.@.@.@.@.@.@.@.@.@.@.@.$.@.@.@.@.@.@.@.@.@.@.@.@.@.@.$.@.6.*.b V N N N N N N N N ",
"+ : [ ] ) { ` ` { ~ 4.@.@.@.@.@.@.@.@.@.@.@.@.@.@.@.@.@.@.@.@.@.@.@.@.@.@.@.@.@.@.@.@.@.@.@.@.@.@.@.@.@.@.4._ { { ` ` _ m n N N ",
"+ : / [ ( ( <.( E <.,.@.@.@.@.@.@.@.@.@.@.@.@.@.@.@.@.@.@.@.@.@.@.@.@.@.@.@.@.@.@.@.@.@.@.@.@.@.@.@.@.@.@.,.<.! ( ( ( ~ N v v v ",
"+ + @ # @ @ # - 8 2.@.@.@.@.@.@.@.@.@.@.@.@.@.@.@.@.@.@.@.@.@.@.@.@.@.@.@.@.@.@.@.@.@.@.@.@.@.@.@.@.@.@.@.@.2.8 * : @ @ @ O O O ",
"@ # @ @ @ @ @ # =.1.@.@.@.>.,.@.,.@.@.@.@.@.@.@.@.@.@.@.@.@.@.@.@.@.@.@.>.>.@.@.@.@.@.@.@.@.@.@.@.@.@.@.@.@.1.=.+ O @ > @ @ @ O ",
"M M M M v M v h 1.@.@.@.@.U P P P P U #.@.@.@.@.@.@.@.@.@.@.@.@.@.@.@.U I P P P @.@.@.@.@.@.@.@.@.@.@.@.@.@.+.2.6 + ! ( N v M v ",
"n N n N n n n X.1.@.@.U U p.v.L.P.c.7.P @.@.@.@.@.@.@.@.@.@.@.@.,.U U s.S.P.K.x.4.I @.@.@.@.@.@.@.@.@.@.@.$.Y &.A O [ ` N n m n ",
"N N N N N N d :.@.@.U 7.Y.oXoXoXoXoXoXL.,.U @.@.$.@.@.@.@.@.@.@.I r.^.oXoXoXoXoX.XK.@.U $.@.@.@.@.@.@.@.@.@.@.$.:.1 / ` N N N M ",
"N N N N N b C @.@.I a..XoXoXXXoXoXoXoXoX_.4.Y >.@.@.@.@.@.@.,.U k.oXoXoXoXoXoXoXoXoX~.>.@.@.@.@.Y @.@.@.@.@.@.@.1.9 / { V N V V ",
"{ ` { ` V b J &.@.4. XoXoXoXoXoXoXoXoXoXoX^.@.@.@.@.@.@.@.@.U e.XXoXoXoXoXoXoXoXoXoXoXU.U @.@.@.@.@.@.@.@.@.@.@.&.A / | { { { ` ",
"( ( ( ~ N v o.1.P I.oX`.F.D.W.oXoXoXoXoXoXoXc.P ,.@.@.@.@.@.U Y.oXW.D.D.`.oXoXoXoXoXoXoXk.U @.@.@.@.@.@.@.@.@.@.$.X.! [ ( ( [ [ ",
": # : @ ; < +.@.,..XE.b.b.b.0 H.oXoXoXoXoXoX/.U @.@.@.@.>.U 7.oXR.0 b.b.b.R.oXoXoXoXoXoXY.I @.@.@.@.@.@.@.@.@.@.@.+.< = # : = = ",
"+ + O : * 1 #.U l.XXB.n.N.N.N.n.'.oXoXoXoXoX.X4.@.@.@.@.$.P c.|.n.M.N.N.M.N.OXoXoXoXoXoX).@.@.@.@.@.@.@.@.@.@.@.@.@.1 + @ O O O ",
"+ % / ( M N @.P x.{.n.m.M.m.N.q T.oXoXoXoXoXoXe.U @.@.@.>.P J.Q.b.N.N.M.N.n.W.oXoXoXoXoX X4.@.@.@.@.@.@.@.@.@.@.@.@.d v M M b v ",
"+ : _ ] b h #.P z.}.M.m.N.N.N.q W.oXoXoXoXoX.X0.O.@.@.@.>.P v.{.q N.N.N.N.n.].oXoXoXoXoX X,.@.@.@.@.@.@.@.@.@.@.@.@.h n n n n n ",
"+ : [ ` n h @.@.0.oXD.0 n.n.0 C.oXoXoXoXoXoX).@.@.@.@.@.@.U s.oXA.0 n.M.0 Z.oXoXoXoXoXoX~.U @.@.@.@.@.@.@.$.@.@.@.@.h b N N N N ",
"+ : [ ` N h $.@.I ~.oXH.V.V.G.OXoXoXoXoXoXoXL.P >.@.@.@.@.@.+._.XXD.V.V.F.XXoXoXoXoXoXoXv.I @.@.@.@.@.@.@.@.@.@.@.@.h b N N b N ",
"+ : [ ] { W +.@.U f.oXoXXXXXoXoXoXoXoXoXoX.X4.@.$.@.@.@.@.>.I x.oXoXXXXXoXoXoXoXoX.XoX).,.@.@.@.@.@.@.@.@.@.+.@.@.@.W { m n N N ",
"+ : / [ ( W @.@.@.I v.oXoXoXoXoXoXoXoXoXoXk.I @.@.@.@.@.@.@.@.U L.oXoXoXXXoXoXoXoXoXoXa.U @.@.@.@.@.@.@.@.@.@.@.@.@.W ( N v M M ",
"+ + @ # + 8 $.@.@.@.U c..XoXoXoXoXoXoX Xl.I >.@.@.@.@.@.@.@.@.@.U J.oXoXoXoXoXoXoX(.p.I >.@.@.@.@.@.@.@.@.@.@.@.@.%.5 * @ O O O ",
"@ # O O + 8 $.@.@.@.@.P 7.J.~._._.Y.v.,.I >.@.@.@.@.@.@.@.@.@.@.@.P e.P.^.).(.Y.x.@.U >.@.@.@.@.@.@.@.@.@.@.@.@.@.%.5 * : @ O O ",
"M M M N v h $.@.@.@.@.>.U P I @.@.I I Y >.@.@.@.@.@.@.$.@.@.@.@.@.@.U P U @.Y I I @.>.@.@.@.@.@.@.@.@.@.@.@.@.@.@.+.W ( N M M v ",
"N N N N p h @.@.@.@.@.@.@.@.>.@.@.@.>.@.@.@.@.Y @.@.@.@.@.@.@.@.@.@.,.@.@.@.@.@.>.@.@.@.@.@.@.@.@.@.@.@.@.@.@.@.@.+.Q } N n V n ",
"N N N M b h @.@.@.@.@.@.@.@.@.@.@.@.@.@.@.@.@.@.@.@.@.@.@.@.@.@.@.@.@.@.@.@.@.@.@.@.@.@.@.@.@.@.@.@.@.@.@.@.@.@.@.@.Q { N N N N ",
"N V V V N h @.@.@.@.@.@.@.@.@.$.@.@.@.@.@.@.@.@.@.@.@.@.@.@.@.@.@.@.@.@.@.@.@.@.@.@.@.@.@.@.@.@.@.@.@.@.@.$.@.@.@.+.Q [ V N N N ",
"{ { ` ` n h @.@.@.@.@.@.@.@.@.@.@.@.@.@.@.@.@.@.@.@.@.@.@.@.@.@.@.@.@.@.@.@.@.@.@.Y @.@.@.$.@.@.@.@.@.@.@.@.@.@.@.+.Q } { { { ` ",
"( ( <.~ v h @.@.@.@.@.@.@.@.@.@.@.@.@.@.@.@.@.@.@.@.@.@.@.@.@.@.@.@.@.@.@.@.@.@.@.@.@.@.@.@.@.@.@.@.@.@.Y @.@.@.@.@.W ( [ ( [ [ ",
": : : # * 8 %.Y @.@.@.@.@.@.@.@.@.@.@.@.@.@.@.@.@.@.@.@.@.@.@.@.@.@.@.@.@.@.@.@.@.@.@.@.@.@.@.@.@.@.@.@.@.@.@.@.@.%.5 - : = = = ",
"* * @ % * 8 $.+.@.@.@.@.@.@.@.@.@.@.@.@.@.@.@.@.$.@.@.@.@.@.@.Y @.@.@.@.@.@.@.@.@.@.@.@.@.@.@.@.@.@.@.@.@.@.@.@.@.%.5 - @ O O @ ",
"o : / ~ v h $.@.@.@.@.@.@.@.@.Y @.@.@.@.@.@.@.$.@.@.@.@.@.@.@.@.$.@.@.@.@.@.@.@.@.@.@.@.@.@.@.@.@.@.@.@.@.@.@.@.@.@.d v M M M M ",
"* : [ ] n h @.@.@.@.@.@.@.@.@.@.@.@.@.@.@.@.@.@.@.@.@.@.@.@.@.@.@.@.@.@.@.@.@.@.@.@.@.@.@.@.@.@.@.@.@.@.@.@.@.@.@.@.h p N n n n ",
"- : ( ` n h @.@.@.@.@.@.@.@.@.@.@.@.@.@.@.@.@.@.@.@.@.@.@.@.@.@.@.@.@.@.@.@.@.@.@.@.@.@.@.@.@.@.@.@.@.@.@.@.@.@.@.@.h b N N N N ",
"+ : ~ { n h @.@.@.@.@.@.@.@.@.@.@.@.@.@.@.@.@.@.@.@.@.@.@.@.@.@.@.@.@.@.@.@.@.@.$.@.Y @.@.@.@.@.@.@.@.@.@.@.@.@.@.@.h b N N N N ",
"+ : _ ] ` W @.@.@.@.@.@.@.@.@.@.@.@.@.@.@.@.@.@.@.@.@.@.@.@.@.@.@.@.@.@.@.@.@.@.@.@.@.@.@.@.@.@.@.@.@.@.$.@.@.@.@.@.Q { V a n N ",
"+ : ^ _ ( W @.@.@.$.@.@.@.@.Y @.@.@.@.@.@.@.@.@.@.@.@.@.@.@.@.@.@.@.@.@.@.@.@.@.@.@.@.@.@.@.@.@.@.@.@.@.+.@.@.@.@.@.W / N M v v ",
"+ + @ % - 8 %.@.@.@.@.@.@.@.@.@.@.@.@.@.@.@.@.@.@.@.@.@.@.@.@.@.@.@.@.@.@.@.@.@.@.@.@.@.@.@.@.@.@.@.@.@.@.@.@.@.@.%.5 * @ O O O ",
"# # @ # + 8 %.+.@.@.@.@.@.@.@.@.@.@.@.@.@.@.@.@.@.@.@.@.@.@.@.@.@.@.@.@.@.@.@.@.@.@.@.@.@.@.@.@.@.@.@.@.@.@.@.@.+.%.5 * # @ O O ",
"M M M M v h @.@.@.@.@.@.@.@.@.@.@.@.@.@.@.@.@.@.@.@.@.@.@.@.@.@.@.@.@.@.@.@.@.@.@.@.@.@.@.@.@.@.@.@.$.@.@.@.@.@.$.@.W ( N M M M ",
"N V N N n l @.@.@.@.@.@.@.@.@.@.@.@.@.@.@.@.@.@.@.@.$.@.@.@.@.@.@.@.@.@.@.@.@.@.@.@.@.@.@.@.@.@.@.@.@.@.@.@.@.@.$.+.Q ` N N n n ",
"N N b N b C @.@.@.@.@.@.@.@.@.@.@.@.@.@.@.@.@.@.@.@.@.@.@.@.@.@.@.@.@.@.@.@.@.@.@.@.@.@.@.@.@.@.@.@.@.@.@.@.@.@.@.+.Q [ N N N N ",
"N N V m b h @.@.@.@.@.@.@.@.@.@.@.@.@.@.@.@.@.@.@.@.@.@.@.@.@.@.@.@.@.@.@.@.@.@.@.@.@.@.@.@.@.@.@.@.@.@.@.@.@.@.@.@.Q { V N N N ",
"` ) { ) m h @.@.@.@.@.@.@.@.@.@.@.@.@.@.@.@.@.@.+.$.$.$.$.@.@.@.@.@.@.@.@.@.@.@.@.@.@.$.&.$.+.$.@.@.@.@.@.@.Y @.$.+.Q } ` { { { ",
"( <.[ ( M N @.@.@.@.@.@.$.Y $.@.@.@.@.@.@.@.@.@.$.O.H j k +.@.@.@.@.@.@.@.@.@.@.@.$.Y H H L %.+.@.@.@.@.@.@.@.@.@.@.Q ( [ [ ( [ ",
": # @ # + 6 $.@.@.@.@.$.Z , ..&.@.@.@.@.@.@.@.@.o.3 o O o . g $.@.@.@.@.@.@.@.@.%.L 2 o o & t $.@.@.@.@.@.@.@.@.@.$.6 - # = = = ",
"+ + = : + 6 $.@.@.@.$..., - X L @.@.@.@.@.@.@.@.3 o @ @ # + . l $.@.@.@.@.@.@.@.L 2 o = O O o t $.@.@.@.@.@.@.@.$. .# O O O O O ",
"+ % / ~ b s +.$.@.@.o.e c N v s @.@.@.@.@.@.@.l c M v M M N v u J $.@.@.$.+.@.+.y c M M v M N x g $.@.@.@.@.@.@.@.d v N M M M M ",
"+ : [ } N i o.$.@.+.r n V m m c t %.@.@.@.$. .w m n n n n n m c 3 U $.@.@.@.@.d v V N N n n m v ,  .$.@.@.@.#.+.d i N N N n n N ",
"+ : [ ` N M l +.o.r b n N N N v O y $.@.$.o.r b N n N N n N N M o 4 Y >.$.$.k e N N N N N N N M + 1 o.@.$.$.+.r b N N N N N N N ",
"+ : _ ` V N b r r n m n N N N M O @ l J k s b m N V N N N N N v = o s H  .f e V V N N N N N V M O O C K  .K r N N N N N N N N N ",
"+ : ( ] _ ` { _ [ ` [ _ n n N M O > ! ! ! _ ` _ { _ { _ V N N v O : ! R R ! ` ` ` _ _ _ N N N M O : ~ ~ R ! _ ` { _ ` _ n n N N ",
"+ # ( } { { { { } ` { { m d N M O > [ | } } { { { } { [ N N V M O = <.| { } ` ` { { { ` N N N v O # [ ] } } { { { { ` ` N M N N "
};
