/* XPM */
static char *_1708600641[] = {
/* columns rows colors chars-per-pixel */
"64 64 122 2 ",
"   c None",
".  c #DE751D",
"X  c #E37214",
"o  c #E3761C",
"O  c #E5781E",
"+  c #DD7722",
"@  c #DD7925",
"#  c #D77B2E",
"$  c #DB7C2C",
"%  c #D57E35",
"&  c #D87D32",
"*  c #D37F3A",
"=  c #E07720",
"-  c #E57B23",
";  c #E87E27",
":  c #E47E2A",
">  c #E87F28",
",  c #DB8135",
"<  c #D3813C",
"1  c #DE853B",
"2  c #DE883F",
"3  c #E6812C",
"4  c #E8822C",
"5  c #E38334",
"6  c #E98633",
"7  c #EA8837",
"8  c #E38639",
"9  c #E4883B",
"0  c #EA8B3C",
"q  c #BF9B7D",
"w  c #CF8446",
"e  c #CD864B",
"r  c #CD884E",
"t  c #D18343",
"y  c #D88744",
"u  c #DE8A44",
"i  c #D28748",
"p  c #D1884B",
"a  c #DB8D4B",
"s  c #CC8953",
"d  c #CA8E5C",
"f  c #D28D52",
"g  c #D18F58",
"h  c #D59157",
"j  c #DC9355",
"k  c #D2925D",
"l  c #DB955A",
"z  c #DD985E",
"x  c #E38B42",
"c  c #EA8E42",
"v  c #E28F49",
"b  c #EC9145",
"n  c #E5924D",
"m  c #EC954B",
"M  c #EF984F",
"N  c #E19352",
"B  c #EA9751",
"V  c #EE9953",
"C  c #E3995C",
"Z  c #EB9E5D",
"A  c #F09C56",
"S  c #F19E5A",
"D  c #F1A05D",
"F  c #C88F60",
"G  c #C69064",
"H  c #CB9262",
"J  c #C4946D",
"K  c #C9956B",
"L  c #D49663",
"P  c #D89863",
"I  c #D3996A",
"U  c #D89E6D",
"Y  c #C39772",
"T  c #C49975",
"R  c #CA9C75",
"E  c #C19B7B",
"W  c #E39D64",
"Q  c #DCA06F",
"!  c #CEA27E",
"~  c #EDA265",
"^  c #E3A16A",
"/  c #ECA66C",
"(  c #EEA86F",
")  c #F2A463",
"_  c #F3A769",
"`  c #F4AA6C",
"'  c #E2A572",
"]  c #E8A874",
"[  c #EFAF7A",
"{  c #F5AD72",
"}  c #EFB17D",
"|  c #F5B077",
" . c #F6B37B",
".. c #BC9E85",
"X. c #BFA086",
"o. c #BBA28C",
"O. c #BBA593",
"+. c #BEA897",
"@. c #B7A698",
"#. c #B8A698",
"$. c #B6A99F",
"%. c #BAA99B",
"&. c #B6ABA3",
"*. c #B9ADA3",
"=. c #B8AFA8",
"-. c #B8B0A9",
";. c #C29F82",
":. c #C3A083",
">. c #CBA587",
",. c #C5A58B",
"<. c #C1A791",
"1. c #C3A890",
"2. c #E3B187",
"3. c #EDB484",
"4. c #F7B681",
"5. c #F8B782",
"6. c #F7B884",
"7. c #F8BA86",
"8. c #F9BD8C",
"9. c #F9BF90",
"0. c #FAC08F",
"q. c #FAC090",
/* pixels */
"                        3.[                                                                   [ / ~ ~ ]                         ",
"                M M B M m m M B V M b 9 9 0 0 7 0 0 0 0 0 0 0 0 9 0 0 7 0 0 0 0 0 0 0 0 M B M m c 0 0 c m M V                   ",
"            Z c - - - ; 4 4 : : ; - - ; - - - - O 3 - - ; - ; - - - - - 3 - - 3 - - - - ; ; ; 4 4 4 4 4 4 O : m ~               ",
"          V 4 - 6 b V D _ ` ) ) D D D Z D D D D D D D D A D D D D D D D D A D D D D D D Z D ) ) ` { ` _ A c ; - c W             ",
"        c : - c ` 5.7.8.8.8.8.8.8.6.8.7.7.8.8.7.7.0.8.7.8.7.8.7.7.8.7.8.5.7.7.0.7.8.7.8.7.8.8.8.8.8.8.8.7.| A 4 O O             ",
"        9 X > V 7.q.q.q.8.q.q.8.q.q.q.q.q.q.9.q.0.0.0.0.q.0.q.q.q.q.q.q.0.0.0.0.q.q.q.q.q.0.0.q.0.9.q.q.0.8.{ c O O             ",
"        8 X ; V 8.0.q.q.q.q.9.q.q.q.q.q.q.q.q.9.0.0.0.0.q.q.0.q.q.q.q.q.q.0.0.0.q.9.q.q.0.0.0.0.0.0.0.0.0.8.| M O - ]           ",
"        v 5 o c | 8.q.q.q.q.9.q.0.0.9.9.0.q.q.9.0.0.0.0.9.q.0.q.q.q.0.0.q.0.0.0.q.9.q.0.0.0.q.q.0.0.0.0.0.7.` c O O             ",
"          a - 4 ) 5.q.q.9.q.q.q.q.q.q.q.q.9.q.q.q.q.9.9.q.q.9.q.q.q.q.q.q.q.q.q.q.q.q.q.q.q.q.q.q.8.9.7.5._ b ; O -             ",
"          P @ 3 M | q.q.q.q.q.q.q.q.q.q.q.8.9.q.q.8.9.9.9.9.9.9.8.q.8.q.9.9.9.8.9.9.8.9.8.8.q.8.7. .{ ) V 0 - . , h             ",
"          U $ 3 c { q.q.0.q.9.q.0.0.8.4._ D S A A S Z A A S A S A Z S S A A A Z A Z Z A V Z A M m b 7 : - @ & y I               ",
"            $ ; c | q.q.q.q.q.q.0.8.8._ 0 ; - O - - - - - - = - - - - - - - - - - - - ; - - o . . + $ & % r K 1.                ",
"            : 3 b | q.9.9.q.q.q.0.8.7.) 3 o . # % % % * % % * % % % % * % % % * % % % * % < t w e s G Y ..+.                    ",
"          ' & 4 b | q.q.0.q.9.q.0.8.4.D 3 @ % J ..............................X...........o.o.o.O.%.=.                          ",
"          ' : 4 A  .q.q.0.q.9.q.0.0. .V ; $ p O.                                                                                ",
"          ^ : 4 A  .q.9.9.q.q.q.0.7.| m - , h                                                                                   ",
"          W : 4 D  .q.q.q.q.9.q.q.8.` b O 1 k       C j x 9 9 2 8 5 5 , , 5 5 1 1 u N Q                                         ",
"          C - 6 _ 7.q.q.q.q.q.q.0.7.) 0 o : 1 3 - - : : : : 3 : : : : 7 6 3 3 3 ; ; : : - - 9 /                                 ",
"          N - 7 { 7.q.q.q.q.q.q.8.7.D 6 X X o o - 4 0 b m V A S ) ) ) _ ) ) ~ A V M b 7 ; - ; 6 b ~                             ",
"          v o 0  .8.q.q.q.q.q.q.8. .V 4 O 4 0 m A _ {  .4.6.7.7.8.8.q.q.9.9.9.8.6. .| ` S m 0 ; - 9 c                           ",
"        N 2 o 0 5.8.9.q.0.q.9.q.8.7._ A A _ {  .7.8.8.q.9.q.q.q.8.q.q.q.q.9.q.0.q.q.0.8.7.4.{ V 0 > - 4 0                       ",
"        v 3 o b 7.q.q.q.q.q.q.q.q.8.8.8.8.8.8.0.q.q.q.q.q.q.q.q.9.q.q.q.q.q.q.q.q.q.0.q.0.9.8.8.| A 6 - o 7                     ",
"        9 : ; m 7.9.q.9.9.q.q.q.9.9.q.q.q.9.q.q.q.9.9.q.q.9.9.q.q.q.9.9.0.0.q.9.q.q.q.0.0.q.q.q.8. .) c - 3 0                   ",
"        8 - : V 8.q.9.0.0.q.9.q.0.q.9.9.q.q.q.q.q.0.0.q.9.q.q.q.q.q.q.8.9.9.q.q.q.0.0.q.0.0.0.0.q.0.6.` b ; 3 M                 ",
"        6 o 4 A 8.0.0.q.q.q.9.q.0.q.9.9.q.q.q.9.q.q.q.q.8.8.8.7.7.6.4.4. .4.6.7.0.0.0.0.0.0.0.0.0.0.8.8.| b - - m               ",
"        9 X 7 ) 8.0.q.9.9.q.q.q.9.9.q.q.q.q.q.q.q.8.8.6.| { ) A V V b b m M A ) {  .8.8.0.0.q.q.0.0.q.q.7.` 0 O 3 x             ",
"      2.x o 0 ` 8.q.q.q.q.q.9.q.q.q.q.q.q.q.8.8.7. .) M 0 7 3 - - o O o o o - ; 0 M _ 6.8.q.q.0.0.0.q.q.0. .) 7 O ;             ",
"      ' 9 O m { 8.9.9.0.q.q.9.q.0.0.9.9.q.8.4.` V 7 : - @ @ # * t e s s s e t & + - 6 V | 8.0.0.0.0.0.0.0.0.| V 4 - B           ",
"      W 8 o A | 8.q.q.q.q.q.q.q.9.q.q.8.8.{ V 0 - . # < r d J ..o.#.$.&.&.@.o.J p # o ; A | 8.q.0.0.q.q.0.0.6.{ 0 ; 7 n         ",
"      N , ; A  .8.q.q.q.q.q.q.q.q.q.0.5._ b ; o $ w G E @.=.                  =.o.F % o 7 A 6.0.0.0.q.q.0.0.0.4.V 3 ; n         ",
"      v : ; Z 5.8.q.q.q.q.q.9.q.0.8. .A 0 - + < F ..*.                            1.d $ - 0 ` 7.0.0.0.0.0.0.q.7.) 0 - m 3.      ",
"      u 3 - A | 8.q.q.q.q.q.q.q.7.{ M 4 o # s ;.*.                                  R i @ 4 A  .0.0.q.q.0.q.q.8.{ m O x ]       ",
"      P 5 O c ` 8.9.q.q.9.9.8.7.` b : = & d <.                                        L @ - b { 8.0.0.0.0.0.q.8.5.A O 7 C       ",
"        u o - b { 6.7.7.7.7.| ) c - = % H <.                                            o o 0 ` 8.8.0.0.0.0.0.0.8._ - : v       ",
"        I y @ o 6 m S _ ) M 0 - - $ p R                                                 = o 4 ) 5.0.0.0.0.0.0.0.8.` ; : 9       ",
"          R f & X O - - - O . + * H ,.                                                  @ o 4 D 5.8.q.q.0.0.q.q.0.` 4 - 8       ",
"            ,.K s w % & % t r H E                                                       $ - 4 D 5.8.q.q.0.0.0.q.q.{ 5 - $       ",
"                +.:.q Y E ..O.                                                          $ ; 4 D 5.0.0.0.0.0.0.0.0.` 6 - 3       ",
"                                                                                        - - 4 D 5.0.0.0.0.0.q.q.q.` 3 - 5       ",
"                                                                                        X o 6 D 5.0.0.0.0.0.q.q.q.` : - 1       ",
"                                                                                        o o 7 _ 8.8.0.0.0.0.0.q.q._ - - u       ",
"                                                                                      ^ ; - m | 8.0.q.q.0.0.0.q.6.) O $ a       ",
"                                                                                      n > 6 D  .0.0.q.q.0.0.q.8.| A O 5 j       ",
"                                                                                    n 3 > b | 8.0.0.0.0.0.0.q.8._ c o 2 Q       ",
"                / V c 0 V /                                                       Z 8 - 0 _ 7.q.0.0.0.0.0.0.8.6.V 3 - u         ",
"          [ b 6 4 > ; - > : 7 b Z                                               ~ 8 - > S  .8.q.0.0.q.0.0.q.8.| b - $ a         ",
"        Z 0 ; - 6 b M A b 7 - - 7 V                                           Z 7 - 4 A  .8.q.q.0.0.q.q.q.q.5.) 0 - 2 l         ",
"      m 4 O 6 M `  . .5. .` A 7 : 5 b                                     / m 3 - 0 A | 8.8.q.q.0.0.0.0.8.7.` c - = j           ",
"      - O 4 S  .8.q.q.q.q.8.5.` b ; ; 0 V                               b 0 - : b ) 4.8.0.q.q.q.0.0.q.q.8.| V ; @ ,             ",
"      X O 0 ` 7.q.q.q.q.9.q.0.7.` m 4 O 4 b V                     B M 6 - - 6 V { 6.0.q.q.q.q.q.0.0.q.8.7.A 7 o , k             ",
"      X O 0 { 7.8.9.9.0.0.q.8.0.7.| S 0 4 ; ; : 8 c B B V V b 0 6 : ; 3 7 M _  .8.9.q.0.0.0.0.0.0.0.8.4.) 0 O $ f               ",
"      o - 4 S  .9.q.q.q.q.q.9.q.0.8.8. ._ V 0 7 6 6 4 4 4 > 6 6 0 0 M ) { 7.8.9.0.0.q.q.0.0.q.0.0.8. .) 6 - $ h !               ",
"      a $ O 7 S 5.8.q.q.9.q.q.q.9.9.q.8.8.5. .` _ ) S S S D ) _ { | 7.8.9.9.0.9.9.0.q.0.q.q.q.q.8.| A 7 o $ f >.                ",
"        a @ o 7 D  .8.0.q.q.9.q.0.q.q.q.9.9.8.8.8.8.8.7.7.8.8.8.8.8.q.q.q.9.q.q.0.9.q.0.0.0.0.7.{ V 5 o @ f ,.                  ",
"          g # - 6 V { 7.q.q.9.q.0.0.9.9.9.0.q.9.8.9.9.q.8.q.q.q.9.q.0.0.q.9.0.0.0.9.q.0.0.7.| D 0 - . & d                       ",
"            H & o > b _  .8.8.q.9.9.q.q.9.9.q.q.9.9.9.9.q.q.9.q.q.q.9.9.q.q.q.9.0.9.9.8. ._ b 3 o $ t K                         ",
"              H % = = 6 M _ 5.8.9.9.9.q.q.q.q.q.q.q.q.q.q.q.q.q.q.q.q.q.q.8.9.8.0.8.| ) M 6 - . & d :.                          ",
"                Y f % : - 6 b D {  .6.7.8.9.8.8.q.q.q.q.9.q.q.q.9.9.q.8.8.7.5. ._ V 0 4 - @ , w K +.                            ",
"                  <.E d % @ - ; 0 b V ) ` | |  . .5.7.7.6.7.4.4. . .{ ` ) A m 0 3 o . @ < d K <.                                ",
"                      <.Y s * # + o O : 7 0 b m m A A A D A V V M b c 6 ; - O - $ & e F E %.                                    ",
"                          %.X.Y d w # + @ $ $ @ - - : - : - @ - $ @ @ + @ # * r G E O.*.                                        ",
"                                =.%.o...J d s s e t w < < < t t e s d J q ..@.*.                                                ",
"                                        =.&.%.%.#.#.O.o.o.O.O.#.#.%.%.=.                                                        ",
"                                                                                                                                "
};
