/* XPM */
static char *_1708600641[] = {
/* columns rows colors chars-per-pixel */
"64 64 116 2 ",
"   c None",
".  c #DF7116",
"X  c #DF761E",
"o  c #E16E0E",
"O  c #E37315",
"+  c #E3761C",
"@  c #E5781E",
"#  c #DD7722",
"$  c #DD7925",
"%  c #D67B2E",
"&  c #DA7B2B",
"*  c #D57D34",
"=  c #DA7E31",
"-  c #D37F3A",
";  c #E07721",
":  c #E57B23",
">  c #E87F27",
",  c #E57E29",
"<  c #E87F28",
"1  c #DD8134",
"2  c #D4823D",
"3  c #DD863E",
"4  c #DF883F",
"5  c #E6812D",
"6  c #E8822D",
"7  c #E58434",
"8  c #E98633",
"9  c #EA8837",
"0  c #E1863A",
"q  c #E5893D",
"w  c #EA8A3B",
"e  c #BE9B7E",
"r  c #CF8446",
"t  c #CE864B",
"y  c #CD884E",
"u  c #D18444",
"i  c #DE8B45",
"p  c #D4894A",
"a  c #DC8D4C",
"s  c #CD8A53",
"d  c #CC8D59",
"f  c #D48D52",
"g  c #D88F53",
"h  c #CC905E",
"j  c #DD9151",
"k  c #D2925C",
"l  c #DA955C",
"z  c #E58D43",
"x  c #EB8E41",
"c  c #ED9145",
"v  c #E6934E",
"b  c #ED944B",
"n  c #EF984F",
"m  c #E49452",
"M  c #EA9752",
"N  c #EE9953",
"B  c #E79D5F",
"V  c #EB9D5C",
"C  c #F09C56",
"Z  c #F09E5A",
"A  c #F1A05D",
"S  c #C78F61",
"D  c #C59164",
"F  c #CB9364",
"G  c #C3946C",
"H  c #CF9A6F",
"J  c #D19562",
"K  c #D69966",
"L  c #DC9962",
"P  c #C29671",
"I  c #C49975",
"U  c #CA9971",
"Y  c #C49D7C",
"T  c #CA9E78",
"R  c #D79E70",
"E  c #E69E62",
"W  c #DBA06F",
"Q  c #D4A075",
"!  c #DBA67C",
"~  c #ECA265",
"^  c #EBA56A",
"/  c #F2A463",
"(  c #F3A768",
")  c #F4AA6C",
"_  c #E6A874",
"`  c #ECAB74",
"'  c #ECAF7C",
"]  c #F5AE73",
"[  c #F5B076",
"{  c #F6B37C",
"}  c #BE9E84",
"|  c #BDA28B",
" . c #BBA694",
".. c #BDA897",
"X. c #B6AA9F",
"o. c #BDAB9B",
"O. c #B7ADA4",
"+. c #B9AEA4",
"@. c #B7AFA9",
"#. c #B6B1AC",
"$. c #B8B0A8",
"%. c #B6B3B0",
"&. c #C09E82",
"*. c #C4A184",
"=. c #CBA484",
"-. c #C5A68D",
";. c #C8A78B",
":. c #C0A894",
">. c #F7B681",
",. c #F8B782",
"<. c #F7B984",
"1. c #F8BA86",
"2. c #F9BE8C",
"3. c #FABF90",
"4. c #FAC08F",
"5. c #FAC090",
/* pixels */
"                                                                                                                                ",
"                                                                      @ 9 9 6                                                   ",
"                                                                b 9 : O @ @ : @ 6 b V                                           ",
"                                                            V 9 : : 8 b C C N w > : 8 b                                         ",
"                                                        ^ b 5 : 8 n ) { 1.1.,.[ A w > 6 E                                       ",
"                                                      M 7 : 8 n ) ,.2.4.4.4.4.4.,.) w : 8                                       ",
"                                                  V c : : w ( { 2.5.4.5.5.4.4.4.2.{ c : , M                                     ",
"                                                V 7 : 8 n ] 1.4.4.4.4.4.4.4.4.4.1.] z , , v                                     ",
"                                            M w : 6 c ( { 2.4.4.4.4.4.4.5.5.2.1.) b : : z                                       ",
"                                          c 6 : 8 N ] 1.4.4.4.5.5.5.4.5.5.2.1.( c : + = R                                       ",
"                                      V q : 6 w / { 2.4.4.4.4.4.4.5.4.2.2.{ ( w ; # u J                                         ",
"                                    n 6 6 8 C [ 1.4.4.4.4.4.5.5.4.5.2.<.) n 5 @ & f T                                           ",
"                                ^ z 6 : w ( ,.2.4.4.4.5.5.4.4.5.3.2.{ Z w : X 2 F -.                                            ",
"                              ^ w > > b ) 2.2.5.4.4.4.5.5.5.4.2.<.) b , + $ r U                                                 ",
"                            M w : 8 C ] 2.4.4.4.4.4.4.4.5.2.1.] Z w : $ 2 F *.                                                  ",
"                          V 5 : 9 A { 2.4.4.5.5.4.4.5.4.2.{ / x : + = s Y                                                       ",
"                        V 7 : 8 / ,.2.5.5.4.5.5.4.4.2.2.] N 8 @ $ 2 F :.                                                        ",
"                      b 8 @ 9 Z ,.2.4.4.4.4.4.4.5.2.>.( x : ; * s &.                                                            ",
"                    V : @ w / ,.2.5.5.5.4.4.5.5.2.] V 8 : # u U :.                                                              ",
"                    z : 8 Z { 2.2.3.5.5.4.4.4.2.{ n 6 + & t &.                                                                  ",
"                  b : 8 C { 2.4.4.4.4.4.4.2.2.] n > + = d *.                                                                    ",
"                z , : n [ 2.4.4.4.4.4.4.4.2.] n > O $ u d J l v                                                                 ",
"              ^ > : w ) 2.2.5.4.4.5.4.4.2.{ C 6 o o . # $ ; @ + @ @ @ @ : : 6 8 z b V ^                                         ",
"              q : 6 A { 4.4.4.4.4.4.4.4.{ A 6 + O @ : > 8 w c n b b b c c w 9 6 > > > 6 5 w b ~                                 ",
"            5 O > b [ 2.4.4.4.4.4.4.2.2.( c 8 8 w Z ( ] { { ,.,.,.,.,.1.,.<.{ { ] / C c 9 6 : : , 8                             ",
"          ` z @ w / 1.2.5.5.5.4.4.5.2.1.[ ( ) [ { 1.2.4.4.4.5.5.5.4.5.5.5.5.4.4.2.2.1.,.] A n w 6 @ 6 M ]                       ",
"          v 7 > C ] 2.4.4.4.4.4.4.5.5.2.2.,.2.2.4.5.4.4.4.4.4.4.4.4.4.4.4.4.4.4.4.5.5.4.2.2.{ ] C w > > 0 E                     ",
"          7 , 8 / 1.2.4.4.4.4.4.4.5.5.5.4.4.4.4.4.4.4.4.4.4.4.4.4.4.4.4.4.4.4.4.4.4.4.4.4.5.4.2.,.[ A w > 6 b '                 ",
"        ^ 5 > c ] 2.4.4.5.5.5.4.4.5.5.5.4.4.4.5.4.4.4.4.4.4.4.4.5.5.5.5.4.5.4.4.4.4.5.4.4.5.5.5.4.4.<.) n > : z ^               ",
"        B , 6 A { 4.4.4.4.5.4.4.4.5.5.4.4.4.5.2.4.4.4.4.4.2.2.2.2.2.4.2.4.4.4.4.4.4.4.4.4.5.5.4.4.4.4.1.] b > : q M             ",
"      E v + w ] 2.4.4.4.4.4.4.4.4.4.4.4.4.5.4.2.1.,.{ { ] ) ( ( ( ( ) ] { { 1.2.4.4.4.4.4.4.4.4.4.4.4.4.2.] n 6 : 7             ",
"      v 0 + w ,.2.5.4.4.5.5.5.4.4.5.5.4.2.,.[ ( Z b w w 8 8 6 6 6 6 8 w w c n A [ { 2.4.4.5.5.4.4.4.5.5.2.2.] b : > V           ",
"      0 : @ b 1.5.5.4.4.5.5.4.4.4.3.2.>.) C w 6 : + X $ % = * * * * % $ # X @ , w M ( ,.2.5.5.5.5.4.5.5.4.4.,.) 9 : q           ",
"      0 @ 6 C 1.5.4.4.4.4.4.4.2.2.[ / b 8 : ; & * r s S e e e e e e P D d t 2 % $ ; 8 C { 2.2.2.5.4.4.4.4.4.2.{ n 6 : M         ",
"      5 + 6 A 2.5.5.4.4.5.5.4.2.{ n 5 + # = y G } X.#.%.              %.#.O. .e y = + > C [ 2.2.4.4.5.5.4.4.2.1./ 9 @ v '       ",
"      5 @ 9 A 2.5.5.4.4.5.5.4.2.] w . $ r I  .$.                                *.F * ; 5 C { 2.4.4.5.5.4.5.5.2.] b @ z ~       ",
"      7 @ 9 / 1.4.4.4.4.4.4.4.1.) 9 + 2 F                                         :.k = + 9 ( ,.4.4.4.4.4.4.4.4.1.V + 0 m       ",
"      0 O w ( 2.5.5.4.4.4.5.5.<.) 9 + p H                                           ;.p O 6 C { 2.4.5.4.4.4.4.5.2.Z @ , z       ",
"      0 @ 9 / 2.5.5.4.4.5.5.5.1.) 9 + p K                                             g O > b [ 2.4.5.5.4.4.5.5.2./ : , 0       ",
"      , O 8 / 2.5.4.4.4.4.4.5.<.] 9 @ i l                                               O @ w ] 2.2.4.4.4.4.4.4.2.( , , 0       ",
"      7 O 8 Z 2.5.4.4.4.4.4.2.2.] w ; 0 j                                               O @ w ] 2.4.4.4.4.4.4.5.2./ : , 3       ",
"      7 + , N 2.5.5.4.4.5.5.2.2.[ c : , 0                                               o : b [ 2.4.5.5.4.4.5.5.2./ : , 3       ",
"      0 ; : M 2.5.5.4.4.4.5.4.2.{ b > @ ;                                             v O > C { 2.2.4.4.4.4.4.5.2.A @ & i       ",
"      a = @ w ,.2.4.4.4.4.4.4.2.{ Z 6 O :                                             v @ 8 Z ,.4.4.4.4.4.4.2.2.,.C @ 5 j       ",
"      L z + w ] 2.3.4.4.5.5.5.4.1.( w @ 7 _                                         m q : z ) 2.4.4.5.5.4.4.4.2.) c + i L       ",
"      W g + 6 / >.5.4.4.4.5.4.4.2.] C , 5 v                                         q , 6 Z { 2.4.4.5.5.4.4.5.1.Z 8 + a !       ",
"        L $ : x ] 2.4.4.4.4.4.4.2.1.) w : 5 V                                     M , > C ] 2.4.4.4.4.4.4.4.2.{ b , , j         ",
"          1 : 8 A <.2.4.5.5.5.4.5.5.>.( w : 7 M                                 z , : w ] 1.5.4.4.4.5.5.4.4.{ ( 9 ; 1 l         ",
"          g = : c ) 2.2.2.5.5.4.4.5.2.,.A 9 @ 6 b ~                         z 7 > : x / 1.5.5.4.4.4.5.5.4.2.) b : : g           ",
"          Q 3 @ 6 N { 2.5.5.4.4.4.4.5.2.{ ( c 6 : 9 w :               > z w 6 > 8 C ) 1.2.4.4.4.4.4.4.4.2.{ n : X 1             ",
"            j & + 8 Z { 4.5.5.4.4.5.5.4.2.2.] A c 8 : @ : 6 w w w 6 > @ @ 6 9 n ( ,.2.4.5.5.5.4.4.4.4.2.{ N 6 @ 1 k             ",
"              f $ : 9 ( 1.4.5.4.4.5.5.4.5.4.2.2.{ ( C b z w w 9 w w w c C A ] ,.2.2.5.4.4.5.5.4.4.2.2.{ N 5 @ = h               ",
"              =.p & @ w / { 2.4.5.4.4.4.4.4.4.4.2.2.1.,.{ { { ] ] { { { 1.2.2.4.4.4.4.4.5.4.4.4.2.,.] n 5 ; 1 h                 ",
"                =.f & # 6 C ] 2.4.2.5.4.4.4.5.5.4.2.5.2.2.2.4.2.2.5.2.3.4.5.2.4.4.5.4.4.5.2.2.2.{ A w : ; 2 F                   ",
"                  =.h = + 6 c ) { 2.4.4.4.5.4.5.4.4.4.5.5.4.4.5.5.5.5.5.5.5.4.4.5.5.5.5.2.2.,.) b 6 + $ 2 U                     ",
"                      h 1 ; ; 6 C ) { 1.2.4.4.4.4.4.4.4.4.4.4.4.4.4.4.5.5.5.4.5.4.2.2.1.{ ( N 8 : X * s *.                      ",
"                        T s * $ ; 6 x Z ) { { 1.2.4.2.2.4.4.4.4.5.5.4.2.2.2.1.<.{ [ ) C w : + # * s Y                           ",
"                          ..T d - $ @ : 5 w b C / ) ] [ { >.>.>.>.>.{ [ ) ) A N c w 6 : X & - s U :.                            ",
"                              ..Y S r = # + @ ; 6 5 7 9 q w w w w w w 8 7 5 6 : X X X = y G &...                                ",
"                                  +. .} P D s r * = & & & $ $ $ $ & & & & & 2 r s D P &...                                      ",
"                                          $. .| e I P P G S S h D D G P G I e | X.$.                                            ",
"                                                      #.@.O.O.O.O.O.$.%.                                                        ",
"                                                                                                                                ",
"                                                                                                                                "
};
