/* XPM */
static char *down51708526648[] = {
/* columns rows colors chars-per-pixel */
"64 64 214 2 ",
"   c #01231F",
".  c #1B341E",
"X  c #253E1E",
"o  c #001F26",
"O  c #032324",
"+  c #082527",
"@  c #032F27",
"#  c #0C2E27",
"$  c #022429",
"%  c #012F28",
"&  c #0D2E28",
"*  c #0B2728",
"=  c #112E27",
"-  c #112E28",
";  c #102628",
":  c #0D3026",
">  c #0D3028",
",  c #073427",
"<  c #123027",
"1  c #1E3A23",
"2  c #123128",
"3  c #334819",
"4  c #36531A",
"5  c #2D441A",
"6  c #234623",
"7  c #365A27",
"8  c #455518",
"9  c #515E15",
"0  c #5E6912",
"q  c #51621A",
"w  c #5F7219",
"e  c #46641D",
"r  c #636C11",
"t  c #617310",
"y  c #7B7B14",
"u  c #717817",
"i  c #767B0E",
"p  c #415920",
"a  c #66772E",
"s  c #6B7B33",
"d  c #516E2A",
"f  c #9C150E",
"g  c #9B1C0F",
"h  c #91150F",
"j  c #9B1512",
"k  c #9C1A12",
"l  c #941613",
"z  c #8A1C10",
"x  c #A9150C",
"c  c #A61B0C",
"v  c #AB1B0C",
"b  c #A71309",
"n  c #B1150D",
"m  c #A41611",
"M  c #A41C12",
"N  c #AC1B11",
"B  c #A81610",
"V  c #B21C12",
"C  c #9B240E",
"Z  c #9B2F0C",
"A  c #97230E",
"S  c #99380C",
"D  c #952313",
"F  c #9A2413",
"G  c #A2240E",
"H  c #AE220F",
"J  c #A62C0D",
"K  c #B1220F",
"L  c #B12B0B",
"P  c #A4330D",
"I  c #AC330E",
"U  c #B2350D",
"Y  c #B53D0E",
"T  c #A22312",
"R  c #AC2210",
"E  c #B12310",
"W  c #BF3516",
"Q  c #C2261F",
"!  c #CA251B",
"~  c #DC2B17",
"^  c #D4251B",
"/  c #DC251B",
"(  c #DD2E1C",
")  c #D62A16",
"_  c #C73515",
"`  c #D2301C",
"'  c #DF301C",
"]  c #DB3617",
"[  c #E1241B",
"{  c #E9231C",
"}  c #E52E1A",
"|  c #EB2E1A",
" . c #EC2C15",
".. c #F22E1A",
"X. c #E2311C",
"o. c #ED311B",
"O. c #E63616",
"+. c #F2311B",
"@. c #9A480A",
"#. c #AB460C",
"$. c #B44E0D",
"%. c #A45A09",
"&. c #A6580A",
"*. c #B7540D",
"=. c #AD4612",
"-. c #BA4914",
";. c #BC5C1C",
":. c #BE5315",
">. c #A56D07",
",. c #A96408",
"<. c #B1610F",
"1. c #BA601E",
"2. c #B27C06",
"3. c #C44D10",
"4. c #CE5217",
"5. c #E84518",
"6. c #C1680D",
"7. c #C5770D",
"8. c #CC6516",
"9. c #C2741F",
"0. c #E26513",
"q. c #E8771C",
"w. c #C46C22",
"e. c #C17026",
"r. c #E87926",
"t. c #7C800E",
"y. c #718616",
"u. c #6F852E",
"i. c #718332",
"p. c #85840C",
"a. c #848E11",
"s. c #9B9C08",
"d. c #B58705",
"f. c #BD9604",
"g. c #BAAF09",
"h. c #AFAC06",
"j. c #87912F",
"k. c #959D31",
"l. c #868B22",
"z. c #A79821",
"x. c #97A32E",
"c. c #A5AC39",
"v. c #B1B533",
"b. c #B5AD26",
"n. c #DC8D0A",
"m. c #C29A04",
"M. c #CD860D",
"N. c #EA8411",
"B. c #CBA304",
"V. c #C6A803",
"C. c #D8AC04",
"Z. c #CEB403",
"A. c #D2BB02",
"S. c #D6B104",
"D. c #C0A913",
"F. c #DBA815",
"G. c #E9AC07",
"H. c #E0AD13",
"J. c #E1B81D",
"K. c #F7AA0A",
"L. c #CD8324",
"P. c #D48E24",
"I. c #DC9F33",
"U. c #EF8821",
"Y. c #DFA52A",
"T. c #D9BB31",
"R. c #F3B222",
"E. c #F0B130",
"W. c #BFC03C",
"Q. c #C8C303",
"!. c #D3C203",
"~. c #D8C602",
"^. c #DECC00",
"/. c #DAC807",
"(. c #DDD404",
"). c #D8D806",
"_. c #C3C614",
"`. c #E7CB03",
"'. c #E1D600",
"]. c #E5DB00",
"[. c #E8DD00",
"{. c #EBDB0D",
"}. c #F1D708",
"|. c #E7C71B",
" X c #ECE201",
".X c #EEE900",
"XX c #F0E200",
"oX c #F4EB00",
"OX c #FDEE00",
"+X c #F5F100",
"@X c #FFF200",
"#X c #FFFB00",
"$X c #FFF609",
"%X c #FFFC0C",
"&X c #F8E716",
"*X c #FFFE14",
"=X c #FFFF1B",
"-X c #FFF519",
";X c #D1D329",
":X c #F2C821",
">X c #E8CB39",
",X c #F6C933",
"<X c #F4D432",
"1X c #FADD35",
"2X c #FFFE22",
"3X c #FFFF2C",
"4X c #EDE535",
"5X c #F9E838",
"6X c #FCF333",
"7X c #FFFD33",
"8X c #FEF43D",
"9X c #FFFA3B",
"0X c #F7D142",
"qX c #F8E841",
/* pixels */
"% % % % % % % % % % @ @ % % % % % % % % % % % % % @ % % % % % % @ @ @ @ % @ % % % @ % @ % @ % % % % % % % % % % % % @ @ % @ @ @ ",
"= & & - = = & = = & @ @ < < = - - - & - - & = - % @ = = - = & = & & = - & - & - @ @ = < < & = = & = = & - = - = @ @ = < & = & & ",
"T T T T T T T T R D & & ` ( R F T T T T T T R D # & ` X.T T T T T T T T T T T F : : ` ' T T T T T T T T T F R F & & ` ' R T T T ",
"K R R H R R H H R T # & } ..E H R R R R R R H T # < X.+.E E v N N N N B N V E T : < X.o.E R R R v E R R R R R T # & X...R R R R ",
"R H R R R R R M H G & & ' | H R R R R R R R R F : # / { M G P #.#.&.&.$.#.I R l $ $ ( o.R R H R R R R R R R N T # & ' o.R R R R ",
"R R E R R R R R R G # & ' | E H R E R R R R E j O 1 8.n.S.`. XoX@X@X@X@XoXXX`.S.a.q ] { V R R R R R R R R R R T # & ' | E R R R ",
"| | o.| R H R R K T & & } +.o.o.| o.| o.R m G ,.h.(.+X#X#X#X@X@X@X@X@X@X@X@X#X#X#X#XXXG.0.X.{ | +.o.o.| R R E T # & X...| o.o.| ",
"' ' X.( T F T T T F & : ` X.' ' ' X.X.! J 2.^.@X#X@X@X@X@X@X@X@X@X@X@X@X@X@X@X@XOX@X$X#X$X}.N.O.^ ' X.' T F T F # : ` X.' X.' X.",
"< = & & @ # # # # # @ % < & : < < + = i (.#X#X@XOX@X@X@X@X@X@X@X@X@X@X@X@X@X@X@X@X@X@XOX@X#X%X{.y = ; < # # # # @ @ < : < & : : ",
"@ @ : & & # : # # # = & # # : # $ 4 A.#X@X@X@X@X@X@X@X@X@X@X@X@X@X@X@X@X@X@X@X@X@X@X@X@X@XOXOX$X*X_.4 o > # # : & & # & # # # & ",
"@ = ` } T T T T T T T T T T T z t.oX#XOX@X@X@X@X@X@X@X@X@X@X@X@X@X@X@X@X@X@X@X@X@X@X@X@X@X@X@X@XOX%X-XM.M F T T G F T T T T T T ",
"@ < X...E R R H R H N H R v C B.#X@XOX@X@X@X@X@X@X@X@X@X@X@X@X@X@X@X@X@X@X@X@X@X@X@X@X@X@X@X@X@X@XOX@X*XF.H R H H H K v H H H H ",
"@ < X.| R R R R R R R R M Z A.#X@X@X@X@X@X@X@X@X@X@X@X@X@X@X@X@X@X@X@X@X@X@X@X@X@X@X@X@X@X@X@X@X@X@X@XOX=XJ.L c R R R H H R H T ",
"% < ( | R H R R R R R v Z ~.#X@X@X@X@X@X@X@X@X@X@X@X@X@X@X@X@X@X@X@X@X@X@X@X@X@X@X@X@X@X@X@X@X@X@X@X@X@XOX*X|.U R R R R R R R c ",
"% < X...| | | o.o.o.+._ A.#X@X@X@X@X@X@X@X@X@X@X@X@X@X@X@X@X@X@X@X@X@X@X@X@X@X@X@X@X@X@X@X@X@X@X@X@X@X@X@XOX=X:XO.| o.| K H R R ",
"% - ` X.' ' ' ' ' X.Q C.#XOX@X@X@X@X@X@X@X@X@X@X@X@X@X@X@X@X@X@X@X@X@X@X@X@X@X@X@X@X@X@X@X@X@X@X@X@X@X@X@X@XOX=XR.^ X.' T F T T ",
"@ @ & - & & & = 2 + p.#X@X@X@X@X@X@X@X@X@X@X@X@X@X@X@X@X@X@X@X@X@X@X@X@X@X@X@X@X@X@X@X@X@X@X@X@X@X@X@X@X@X@X@XOX3Xl.$ > > & # # ",
"& - # & & & # < O 4 @X@X@X@X@X@X@X@X@X@X@X@X@X@X@X@X@X@X@X@X@X@X@X@X@X@X@X@X@X@X@X@X@X@X@X@X@X@X@X@X@X@X@X@X@X@X@X6X8 + > & & & ",
"T T T T T F R D = !.#X@X@X@X@X@X@X@X@X@X@X@X@X@X@X@X@X@X@X@X@X@X@X@X@X@X@X@X@X@X@X@X@X@X@X@X@X@X@X@X@X@X@X@X@X@X@X*X<X) T T T F ",
"R R R E R R E h p.#XOX@X@X@X@X@X@X@X@X@X@X@X@X@X@X@X@X@X@X@X@X@X@X@X@X@X@X@X@X@X@X@X@X@X@X@X@X@X@X@X@X@X@X@X@X@X@XOX3XU.n H R K ",
"R R R R R T N S ].@X@X@X@X@X@X@X@X@X@X@X@X@X@X@X@X@X@X@X@X@X@X@X@X@X@X@X@X@X@X@X@X@X@X@X@X@X@X@X@X@X@X@X@X@X@X@X@X@X$X5XU M H H ",
"R R R R R R m d.#XOX@X@X@X@X@X@X@X@X@X@X@X@X@X@X@X@X@X@X@X@X@X@X@X@X@X@X@X@X@X@X@X@X@X@X@X@X@X@X@X@X@X@X@X@X@X@X@X@XOX3XP.x E R ",
"o.| o.| K K Z (.#X@X@X@X@X@X@X@X@X@X@X@X@X@X@X@X@X@X@X@X@X@X@X@X@X@X@X@X@X@X@X@X@X@X@X@X@X@X@X@X@X@X@X@X@X@X@X@X@X@X@X$X5XO.o.o.",
"' ' ' ' R l >.#X@X@X@X@X@X@X@X@X@X@X@X@X@X@X@X@X@X@X@X@X@X@X@X@X@X@X@X@X@X@X@X@X@X@X@X@X@X@X@X@X@X@X@X@X@X@X@X@X@X@X@X@X7Xr./ X.",
"< < & & > + g.#X@X@X@X@X@X@X@X@X@X@X@X@X@X@X@X@X@X@X@X@X@X@X@X@X@X@X@X@X@X@X@X@X@X@X@X@X@X@X@X@X@X@X@X@X@X@X@X@X@X@X@XOX=XW.@ < ",
"% @ : < $ 5 oX@X@X@X@X@X@X@X@X@X@X@X@X@X@X@X@X@X@X@X@X@X@X@X@X@X@X@X@X@X@X@X@X@X@X@X@X@X@X@X@X@X@X@X@X@X@X@X@X@X@X@X@XOX@XqX6 + ",
"@ < ` ' k >.@X@X@X@X@X@X@X@X@X@X@X@X@X@X@X@X@X@X@X@X@X@X@X@X@X@X@X@X@X@X@X@X@X@X@X@X@X@X@X@X@X@X@X@X@X@X@X@X@X@X@X@X@X@XOX7X9.f ",
"@ < X.+.M f.#XOX@X@X@X@X@X@X@X@X@X@X@X@X@X@X@X@X@X@X@X@X@X@X@X@X@X@X@X@X@X@X@X@X@X@X@X@X@X@X@X@X@X@X@X@X@X@X@X@X@X@X@X@XOX2XI.b ",
"@ < ' | F A.#X@X@X@X@X@X@X@X@X@X@X@X@X@X@X@X@X@X@X@X@X@X@X@X@X@X@XoX+X@X@X@X@X@X@X@X@X@X@X@X@X@X@X@X@X@X@X@X@X@X@X@X@X@XOX*X>Xc ",
"@ < ' ..P ].@X@X@X@X@X@X@X@X@X@X@X@X@X@X@X@X@X@X@X@X@X@X@X@X@X@X#X!.A.#X@X@X@X@X@X@X@X@X@X@X@X@X@X@X@X@X@X@X@X@X@X@X@X@X@X@XqXU ",
"@ = X...3..X#X@X@X@X@X@X@X@X@X@X@X@X@X@X@X@X@X@X@X@X@X@X@X@X@XOX#XD.7.#X@X@X@X@X@X@X@X@X@X@X@X@X@X@X@X@X@X@X@X@X@X@X@X@X@X@XqX-.",
"% < ` [ *.+X@X@X@X@X@X@X@X@X@X@X@X@X@X@X@X@X@X@X@X@X@X@X@X@X@XOX%Xz.<.#X@X@X@X@X@X@X@X@X@X@X@X@X@X@X@X@X@X@X@X@X@X@X@X@X@X@X9X1.",
"@ @ > $ 0 @X@X@X@X@X@X@X@X@X@X@X@X@X@X@X@X@X@X@X@X@X@X@X@X@X@XOX2Xi.5 @X@X@X@X@X@X@X@X@X@X@X@X@X@X@X@X@X@X@X@X@X@X@X@X@X@XOX9Xs ",
"& & < $ r @X@X@X@X@X@X@X@X@X@X@X@X@X@X@X@X@X@X@X@X@X@X@X@X@X@XOX3Xa X oX@X@X@X@X@X@X@X@X@X@X@X@X@X@X@X@X@X@X@X@X@X@X@X@X@X@X7Xs ",
"T F T k >.#X@X@X@X@X@X@X@X@X@X@X@X@X@X@X@X@X@X@X@X@X@X@X@X@X@X@X3X;.z (.@X@X@X@X@X@X@X@X@X@X@X@X@X@X@X@X@X@X@X@X@X@X@X@X@X@X7Xe.",
"R E H m ,.@X@X@X@X@X@X@X@X@X@X@X@X@X@X@X@X@X@X@X@X@X@X@X@X@X@X@X6X-.f Z.#XOX@X@X@X@X@X@X@X@X@X@X@X@X@X@X@X@X@X@X@X@X@X@X@X@X7Xw.",
"R R R m %.+X@X@X@X@X@X@X@X@X@X@X@X@X@X@X@X@X@X@X@X@X@X@X@X@X@X$X5XU l B.#X@X@X@X@X@X@X@X@X@X@X@X@X@X@X@X@X@X@X@X@X@X@X@X@X@X8X1.",
"R E R N @..X#X@X@X@X@X@X@X@X@X@X@X@X@X@X@X@X@X@X@X@X@X@X@X@XOX$X<XK m f.#X@X@X@X@X@X@X@X@X@X@X@X@X@X@X@X@X@X@X@X@X@X@X@X@X@XqX:.",
"| | o.| P  X@X@X@X@X@X@X@X@X@X@X@X@X@X@X@X@X@X@X@X@X@X@X@X@X@X*X,X .{ 7.#XOX@X@X@X@X@X@X@X@X@X@X@X@X@X@X@X@X@X@X@X@X@X@X@X@XqX5.",
"X.' X.( D ~.#XOX@X@X@X@X@X@X@X@X@X@X@X@X@X@X@X@X@X@X@X@X@X@XOX*XE.~ ( 6.+X@X@X@X@X@X@X@X@X@X@X@X@X@X@X@X@X@X@X@X@X@X@X@X@X%X0XX.",
"- < : < O h.#XOX@X@X@X@X@X@X@X@X@X@X@X@X@X@X@X@X@X@X@X@X@X@XoX=Xk.  * 8 @X@X@X@X@X@X@X@X@X@X@X@X@X@X@X@X@X@X@X@X@X@X@X@XOX=Xc.O ",
"% % : < $ i #XOX@X@X@X@X@X@X@X@X@X@X@X@X@X@X@X@X@X@X@X@X@X@X@X3Xu.o # 5 XX@X@X@X@X@X@X@X@X@X@X@X@X@X@X@X@X@X@X@X@X@X@X@XOX7Xi.O ",
"@ = ` X.k @..X@X@X@X@X@X@X@X@X@X@X@X@X@X@X@X@X@X@X@X@X@X@X@XOX3Xd + ` _ '.@X@X@X@X@X@X@X@X@X@X@X@X@X@X@X@X@X@X@X@X@X@X@X#XqX=.k ",
"@ < X...E A !.#X@X@X@X@X@X@X@X@X@X@X@X@X@X@X@X@X@X@X@X@X@X@X@X6X7 $ o.~ ~.#XOX@X@X@X@X@X@X@X@X@X@X@X@X@X@X@X@X@X@X@X@XOX*X>Xv R ",
"% < X.| E j d.#X@X@X@X@X@X@X@X@X@X@X@X@X@X@X@X@X@X@X@X@X@X@X@X6X6 # X.( Z.#X@X@X@X@X@X@X@X@X@X@X@X@X@X@X@X@X@X@X@X@X@X@X3XL.b R ",
"% = ' | E N S [.@X@X@X@X@X@X@X@X@X@X@X@X@X@X@X@X@X@X@X@X@X@X$X4X, > X.[ m.#XOX@X@X@X@X@X@X@X@X@X@X@X@X@X@X@X@X@X@X@X@X@X8XU R R ",
"% < X...o.o./ B.#X@X@X@X@X@X@X@X@X@X@X@X@X@X@X@X@X@X@X@X@X@X%X>X  2 X.{ M.#XOX@X@X@X@X@X@X@X@X@X@X@X@X@X@X@X@X@X@X@XOX2XY.x R R ",
"% < ` X.' ' } -..X@X@X@X@X@X@X@X@X@X@X@X@X@X@X@X@X@X@X@X@XOX*XT.  1 ` ( 2.@X@X@X@X@X@X@X@X@X@X@X@X@X@X@X@X@X@X@X@X@X@X9X#.k T F ",
"% % & < & & < + s.#X+X@X@X@X@X@X@X@X@X@X@X@X@X@X@X@X@X@X@XOX=Xx.O , 2 $ 9 @X@X@X@X@X@X@X@X@X@X@X@X@X@X@X@X@X@X@X@XOX2Xx.O > : # ",
"= = & & & & & $ 6 [.@X@X@X@X@X@X@X@X@X@X@X@X@X@X@X@X@X@X@XOX2Xj.O < > $ 3 oX@X@X@X@X@X@X@X@X@X@X@X@X@X@X@X@X@X@X@X$X4XX $ < & & ",
"T T T T T T R F o t #X@X@X@X@X@X@X@X@X@X@X@X@X@X@X@X@X@X@X@X3X1.j F T T S [.#X@X@X@X@X@X@X@X@X@X@X@X@X@X@X@X@X@XOX7Xq.^ T T T T ",
"R R R R R R R T & + B.#X@X@X@X@X@X@X@X@X@X@X@X@X@X@X@X@X@X@X3X8.x E R E C ^.@X@X@X@X@X@X@X@X@X@X@X@X@X@X@X@X@XOX2Xb.) +.E R R R ",
"R R R R R R R T # - W ~.#X@X@X@X@X@X@X@X@X@X@X@X@X@X@X@X@X@X6X-.M H R R g A.#XOX@X@X@X@X@X@X@X@X@X@X@X@X@X@XOX%X;X. ( o.K R R T ",
"R R R E R R R T # & ( 5.`.#X@XOX@X@X@X@X@X@X@X@X@X@X@X@X@X@X5XU V R R E j V.#X@X@X@X@X@X@X@X@X@X@X@X@X@X@XOX#X}.6 $ ' | E R E E ",
"| | | | R R K T * > X...o.K.#X#XOX@X@X@X@X@X@X@X@X@X@X@X@X$X1XO.| o.o.o.m f.#X@X@X@X@X@X@X@X@X@X@X@X@XOX@X#XG.F $ 2 } +.| | o.| ",
"X.' X.( T F T F # = ` ' ' [ 0.`.#X#X@XOX@X@X@X@X@X@X@X@X@X%X,X( ' X.X.] j 2.#X@X@X@X@X@X@X@X@X@X@X@XOX#X@XM.k D : < ` X.' X.' X.",
"< = & & : # # & @ @ = : < : * * y.).@X#X@X@X@X@X@X@X@X@X@X*Xv.O < < & < $ 0 #X@X@X@X@X@X@X@X@X@XOX#X$X).e $ & : % % = : < : : & ",
"@ @ : < # # & & & & # # # # : & $ @ 8 g.@X#X@X@X@X@X@X@XoX=Xk.O % @ : < $ 8 OX@XOX@X@X@X@XOX@X#X#X Xu - O : # & : < # # # # # & ",
"@ = ` ( T F T T F T T T T T G F : > Q ! #.V.+X#X@X@X@X@XOX3XL.h > < ` ' T S  X@X@X@XOXOX@X*X-XC.w 1 W / T T T T T F T T T T G T ",
"@ < } ..E H R R K H H H H R K T # < o.+.M k %.A.+X#X@X@XOX3X8.f > 2 X.+.E Z '.#XOXOX$X=X2XJ.-.j $ # o...E R R H H H K H H H H H ",
"@ < X.| R R R R R R R R R R R F @ - X.| R R N k &.m.'.@X#X7X:.k > - ' | V C ~.#X%X*X&XF.$.c B T > < X.| R R R R R R H R H R R R ",
"% < } | E R R R R R R R R R v T # < ( o.E R E E B B P ,.m./.Y M > < X.| E k A.&XH.7.U B N R E T @ - X.| E R R R R R R R R R M H ",
"% < ' | | } } | } | | } R R E T # - ' ..o.} | X.X.o.| / B G H T @ - ( o.| } 5.O.[ [ } X.E R E T # < ( ..| } X.| X.} | } R H H R ",
"% - ' +.o.o.o.o.o.o.o.o.R R R T @ < ' +.o.o.| o.+.| +.| E R R F # < ' +.o.o.| o.o.+.o.o.R R R F # > ' +.o.| +...o.o.| o.R T R H "
};
