/* XPM */
static char *down61708526649[] = {
/* columns rows colors chars-per-pixel */
"64 64 208 2 ",
"   c #00241F",
".  c #203A1E",
"X  c #011F29",
"o  c #042425",
"O  c #032F27",
"+  c #0C2E27",
"@  c #012329",
"#  c #012F28",
"$  c #0D2E28",
"%  c #0A2528",
"&  c #112E27",
"*  c #102F28",
"=  c #152B25",
"-  c #0E3026",
";  c #013029",
":  c #023227",
">  c #133127",
",  c #193622",
"<  c #113128",
"1  c #193A22",
"2  c #23441D",
"3  c #3A4B1C",
"4  c #2A4B22",
"5  c #274422",
"6  c #485717",
"7  c #45631D",
"8  c #536414",
"9  c #6B7214",
"0  c #6C7910",
"q  c #777E19",
"w  c #9A150C",
"e  c #8E1613",
"r  c #941714",
"t  c #9A1612",
"y  c #9C1B13",
"u  c #931B12",
"i  c #AA160F",
"p  c #A7170B",
"a  c #A41511",
"s  c #AA1511",
"d  c #A41B12",
"f  c #AC1B11",
"g  c #B31A10",
"h  c #9B290D",
"j  c #952B0E",
"k  c #9B3C0B",
"l  c #91340D",
"z  c #952312",
"x  c #9B2413",
"c  c #AE230F",
"v  c #B1220F",
"b  c #A3320D",
"n  c #A7380F",
"m  c #B63A0D",
"M  c #B0330F",
"N  c #A12311",
"B  c #AC2210",
"V  c #B22310",
"C  c #CD261E",
"Z  c #D3231B",
"A  c #DB241D",
"S  c #DD2E1C",
"D  c #D32B17",
"F  c #CC3315",
"G  c #D63416",
"H  c #D1301C",
"J  c #DF311C",
"K  c #E3231A",
"L  c #EB241B",
"P  c #E52E1A",
"I  c #EB2F1A",
"U  c #E62816",
"Y  c #F12E1A",
"T  c #F5291D",
"R  c #E2311C",
"E  c #ED311B",
"W  c #E73B17",
"Q  c #F2311B",
"!  c #9B4D0A",
"~  c #9E450A",
"^  c #9A500A",
"/  c #A8490B",
"(  c #B8460C",
")  c #A25009",
"_  c #B9580C",
"`  c #BD4817",
"'  c #BD5113",
"]  c #A96508",
"[  c #B6660C",
"{  c #B96C09",
"}  c #BF7B07",
"|  c #BB621D",
" . c #BD6823",
".. c #C04014",
"X. c #E5481B",
"o. c #EA5917",
"O. c #E15117",
"+. c #C3690C",
"@. c #DB6513",
"#. c #CC7D19",
"$. c #CA7C15",
"%. c #DB7211",
"&. c #C56518",
"*. c #E76518",
"=. c #E87915",
"-. c #F46712",
";. c #CB7527",
":. c #EF6726",
">. c #7D810D",
",. c #7D8317",
"<. c #7E9214",
"1. c #738237",
"2. c #81870D",
"3. c #918C0A",
"4. c #93950C",
"5. c #879213",
"6. c #B78E04",
"7. c #B5880C",
"8. c #BB9504",
"9. c #ABA906",
"0. c #A3A60B",
"q. c #A6A806",
"w. c #B1AA0A",
"e. c #B7B207",
"r. c #989827",
"t. c #838F3A",
"y. c #B3BC24",
"u. c #A8AC37",
"i. c #C88608",
"p. c #D38008",
"a. c #C69706",
"s. c #C68612",
"d. c #DD9E13",
"f. c #D69709",
"g. c #E5870E",
"h. c #CAA505",
"j. c #CAAA05",
"k. c #DFAA06",
"l. c #CEB501",
"z. c #D4BC01",
"x. c #D2B601",
"c. c #DEB013",
"v. c #ECAF0C",
"b. c #E9BE04",
"n. c #E5B718",
"m. c #CE882B",
"M. c #D28B2A",
"N. c #CE8D31",
"B. c #DA9930",
"V. c #E99C23",
"C. c #D6A029",
"Z. c #C9C202",
"A. c #D4C400",
"S. c #D4CB02",
"D. c #DBCC02",
"F. c #DCCB0D",
"G. c #DCD301",
"H. c #C8C911",
"J. c #D6CD15",
"K. c #E5C203",
"L. c #F0CF03",
"P. c #E1D500",
"I. c #E5DB00",
"U. c #ECDD00",
"Y. c #E9D500",
"T. c #F1DD03",
"R. c #F6D016",
"E. c #EBE101",
"W. c #E7E100",
"Q. c #F3E502",
"!. c #F5EC00",
"~. c #FDEF00",
"^. c #F6F000",
"/. c #FFF200",
"(. c #FFFB01",
"). c #FFF60A",
"_. c #FFFC0C",
"`. c #F6FC00",
"'. c #F7E71A",
"]. c #FFFC13",
"[. c #FFFE1B",
"{. c #FBF614",
"}. c #CCCF2C",
"|. c #D4CD2D",
" X c #DECF32",
".X c #D5CE33",
"XX c #DDD636",
"oX c #E5CB39",
"OX c #F4C834",
"+X c #EAD535",
"@X c #F2DE35",
"#X c #FBDD32",
"$X c #F6ED27",
"%X c #FFFE25",
"&X c #FFFE2C",
"*X c #FFF52F",
"=X c #EBE435",
"-X c #F6E334",
";X c #FCEC32",
":X c #FAEA37",
">X c #FDF331",
",X c #FFFC34",
"<X c #FFFC3A",
"1X c #FBF33B",
"2X c #B8BA40",
"3X c #DFDB44",
"4X c #EBE640",
"5X c #FAEA41",
/* pixels */
"# # # # # # # # # # O O # # # # # # # # # # # # # O O O O O ; # # ; # ; # # # # # O # ; # # # # # # # # # # # # # O O O ; # # # ",
"* $ * * * * $ * $ * O O = > * * * * $ * $ * * * O O * < < < $ * * $ * * $ * * * O : = < * * * * $ * $ * * * $ * O O = < - * * $ ",
"N N N N N N N N N x + $ H P B x N N N x N N d x + $ H J N N N x N N h N N x N x + $ H J N N N N N N N N N N N x $ * H J N N N N ",
"c B c c B c c c v N + * P I v c V B c B c c v N + - P Q v c c c v c v c v B c B + * R Y V B B v f c c c B f V N + $ R Y v c c c ",
"B B B B B B B N c N $ $ J I c B c B B B B B c x + - R I f f i s a s a a i a i y + < J E B B B B c c B B B B B N + * J E B B B B ",
"B B V B B B B B c N + $ J I B B B v B B B B c N O @ Z P n / [ } i.i.a.a.i.{ _ n $ @ A I V B B V B B B B B B B N + $ J I V B B B ",
"I I I I B B V f c N + $ P Q E E E I I R V B g u , 8 f.K.Q.^.(.(.(.(.(.(.(.(.`.Q.S.0.%.X.P L I Q E E E I B c v N + $ R Y I E I I ",
"R J R S N x N N N x $ < H R J J R R R J y u / a.G.(.(.(.(.~.~./././.~.~./.~.~.(.(.(.(.Q.v.*.J C R R R S N x N x + $ H R J R R R ",
"* * - * + + + + $ + # # * & + > < > + % 6 e.!.(.(./.~.~./././././././././././././.~.~.(.(.).F.9 & o < $ + + + - O O * + & - - + ",
"# ; + * + + + $ + + & + $ + + + # @ 2 q.~.(./.~.~././././././././././././././././././.~.~.~.(._.H.7 o $ - + + - $ $ + + + + + + ",
"O > H P N x N N N N x N N h N z o 0 Q.(./.~././././././././././././././././././././././././.~.~.(.{.d.G d x x N N x N N N N N N ",
"# > R Y V B B B c c v c c c g j 9.(./.~././././././././././././././././././././././././././././.~./.].R.( f V c c c v c c c c c ",
"# > P I B B B B B B B B B d k D.(.~././././././././././././././././././././././././././././././././.~._.'._ s B B B B c c f c c ",
"# > J I V B B B B B B V s ~ P.(.~././././././././././././././././././././././././././././././././././.~.).%X+.s B B c c c N c N ",
"; = R Y I I E P P R Y L / I.(.~././././././././././././././././././././././././././././././././././././.~.).%X=.K E E P v c c c ",
"; > H R J S J J S R S m G.(.~././././././././././././././././././././././././././././././././././././././.~.^.%X*.A J S B N N x ",
"; # $ * * $ $ * < $ , l.(.^././././././././././././././././././././././././././././././././././././././././.~.).$X3 @ < $ + + + ",
"* * $ $ $ $ $ $ O @ 4.(.~.(./././././././././././././././././././././././././././././././././././././././././.~.[.}.= $ - $ $ + ",
"x N N N N x N x @ 8 /./././././././././././././././././././././././././././././././././././././././././././././.~.&XV.Z N N N x ",
"v B c B v c v x . D.(.~././././././././././././././././././././././././././././././././././././././././././././././.,Xo.g c c v ",
"B B c c c N v e 3.(./././././././././././././././././././././././././././././././././././././././././././././././.~.].OXf c N c ",
"B B B B f c f k E./././././././././././././././././././././././././././././././././././././././././././././././././.~.,X&.i v c ",
"E E E E V v a 6.(.~././././././././././././././././././././././././././././././././././././././././././././././././.~.[.OXU E E ",
"J J R J N y l P.(./././././././././././././././././././././././././././././././././././././././././././././././././././.<X*.S R ",
"* < $ $ - @ 9 (.^././././././././././././././././././././././././././././././././././././././././././././././././././.~.%Xu.@ < ",
"# O - $ - O e.(.~./././././././././././././././././././././././././././././././././././././././././././././././././././.).=X1 + ",
"O = H J d l W./././././././././././././././././././././././././././././././././././././././././././././././././././././.~.<X| w ",
"O > R Q s ] /./././././././././././././././././././././././././././././././././././././././././././././././././././././.~.%XB.p ",
"O < J E a 6.(././././././././././././././././././././././././././././.~./././././././././././././././././././././././././.].oXp ",
"O > J Q y l.(.~././././././././././././././././././././././././.(.E.U.(./././././././././././././././././././././././././.(.5XM ",
"O * R T F G.(././././././././././././././././././././././././.~.(.S.S.(././././././././././././././././././././././././././.1X` ",
"O < H P ` U././././././././././././././././././././././././././.(.J.A.(./././././././././././././././././././././././././.~.<X .",
"# # < % 3 !././././././././././././././././././././././././././.).|.S.(.~././././././././././././././././././././././././.~.,X1.",
"* < - @ 6 ~./././././././././././././././././././././././././.~.)..XA.(.~././././././././././././././././././././././././.~.&Xt.",
"N x N y ^ !./.~././././././././././././././././././././././././.(. XA.(.~././././././././././././././././././././././././.~.&XN.",
"c v c f ^ ^././././././././././././././././././././././././././.(. XA.(././././././././././././././././././././././././././.&XM.",
"B B B d ~ !.(./././././././././././././././././././././././././.(. Xx.(.~././././././././././././././././././././././././.~.,Xm.",
"B B V f ~ E./.~./././././././././././././././././././././././.~.(.oXl.(././././././././././././././././././././././././././.,X;.",
"I I E I b P.(./././././././././././././././././././././././././.(.+Xx.(././././././././././././././././././././././././././.<X:.",
"R R R S z A.(.~././././././././././././././././././././././././.(.+Xl.(.~././././././././././././././././././././././././.(.5XX.",
"* < - < o 9.(.^./././././././././././././././././././././././.~.(.XXe.`.~././././././././././././././././././././././././.(.3X, ",
"# # - < @ >.(./././././././././././././././././././././././././.).XXw.(././././././././././././././././././././././././.~.[.2Xo ",
"# = H R y ! !./././././././././././././././././././././././././.(.@Xj.(./././././././././././././././././././././././.).~.&Xm.w ",
"# > R Q V h D.(./././././././././././././././././././././././.~./.+Xh.(.~./././././././././././././././././././././././.^.<X' i ",
"O < J I V t 8.(.~./././././././././././././././././././././././.(.@Xh.(././././././././././././././././././././././.~.~.].+Xc c ",
"# * J I V f ) ^./.^./././././././././././././././././././././././.@Xa.(./././././././././././././././././././././././.~.&XM.p c ",
"# < R Q E Q D z.(./././././././././././././././././././././././.(.@Xa././././././././././././././././././././././././.(.:Xm d c ",
"O * H R J R A { /././././././././././././././././././././././.~.(.@Xa.(././././././././././././././././././././././.~.%XC.w N x ",
"# # * * $ < $ * Z.(.~././././././././././././././././././././././.=X4./././././././././././././././././././././././.(.:X4 o * + ",
"* * $ $ $ $ < @ 8 /././././././././././././././././././././././.`.=X4././././././././././././././././././././././.~.&Xr.@ - + + ",
"N N N N N N N z o q.(.~./././././././././././././././././././.~.(.-X7./././././././././././././././././././././.~.).#XG B N N x ",
"c B B B B B V B o 2 I.(.~./././././././././././././././././././.(.-X7.~./././././././././././././././././././././.,X*.L B B B V ",
"B B B B B B B N * % [ ^./././././././././././././././././././././.-X7.~./././././././././././././././././././.~.%Xr.Z Q B B B N ",
"B B B V B B B x + < Z i.`./.~./././././././././././././././././.(.;X7.!./././././././././././././././././.~.~._.y.+ J I V B B V ",
"I I I I B B v N + * P T g.(.(.~././././././././././././././././.(.;Xs.Q.(.~././././././././././././././.~.~.(.k.- + R Q E I E E ",
"R J R S N x B z : * H P A @.T.(./.~.~././././././././././././././.;Xs.Q././././././././././.~././././.~.(.(.i.r + > H R J R R R ",
"* < $ - + + + + # # $ $ < % < <.(.(.(.~.~././././././././././././.>X,.Q.(.~./././././././././././././.).W.7 @ * O O > - + - - > ",
"# O $ $ + + + + * $ + + $ - + @ 4 5.D.(.(./.~.~.~././././././././.>Xq E.(.~././././././././.~.~./.(.!.w.5 @ - $ + + + + + + + + ",
"# = H P N x N N N N N N N N N h @ @ H -.b./.(.(./.~.~././././././.>X$.U.(.~././././.~././.(.(.(.!.e.O.C x N N N N N N N N N x N ",
"O > R Y V B B c c c c c c B v N - < P L f ' b.!.^.(.(./.~././././.>X$.U.(./.~.~.~.).(.(./.L.p._ 5 @ P Q V V B B c f c c f c c c ",
"O < R I B B B B c B B B B B B x + * J E B d f b ) h.P.`.(.(./.~.~.*X#.Y./.~.)._.[.$Xc.+.( B s t # < R I B B B B B B c N c N c c ",
"O < R I V B B V B B B c B B f N + < J I V c c c f a b { h.P.!.(.(.&X#.W._.{.'.n.$.m p i d B B N + < R I V B B B B c c c c c N c ",
"# < J I I P P I R I P P B B v N O * R I I I E P P E P A d h / ] 2.0.@.g.=.o.W K K P E R V f V N + < J Y I P P I P P I P c c c c ",
"# < P Q E E E I E E E E V B B N + < S Q E E E Q E E E E V f f t @ @ S T L L I E Q E E E B B B N O * J Q E E E Q E E E E v N c f "
};
