/* XPM */
static char *_1708600640[] = {
/* columns rows colors chars-per-pixel */
"64 64 113 2 ",
"   c None",
".  c #DE751E",
"X  c #E57416",
"o  c #E3761C",
"O  c #E5781E",
"+  c #DE7721",
"@  c #DD7925",
"#  c #D77B2E",
"$  c #DB7B2B",
"%  c #D67D33",
"&  c #DE7F31",
"*  c #D47F38",
"=  c #E07720",
"-  c #E57B23",
";  c #E87E26",
":  c #E47E29",
">  c #E87F29",
",  c #DD8133",
"<  c #D4813C",
"1  c #DC843A",
"2  c #E6812D",
"3  c #E8822D",
"4  c #E48333",
"5  c #E98532",
"6  c #EA8837",
"7  c #E1863B",
"8  c #E4893D",
"9  c #EB8B3C",
"0  c #BF9C7F",
"q  c #CF8445",
"w  c #CD864B",
"e  c #CD884E",
"r  c #D38543",
"t  c #D98744",
"y  c #D78847",
"u  c #DD8A44",
"i  c #D48A4C",
"p  c #DD8D4B",
"a  c #DE904E",
"s  c #CC8B55",
"d  c #CA8E5A",
"f  c #D38F56",
"g  c #D28F58",
"h  c #DC9254",
"j  c #D5935C",
"k  c #D8945C",
"l  c #E58E45",
"z  c #EB8E41",
"x  c #ED9145",
"c  c #E6924C",
"v  c #ED954C",
"b  c #EE984F",
"n  c #E59451",
"m  c #EA9751",
"M  c #E79855",
"N  c #EE9953",
"B  c #E4995B",
"V  c #EC9D5C",
"C  c #F09B55",
"Z  c #F09E59",
"A  c #F1A15E",
"S  c #C68F62",
"D  c #C69165",
"F  c #C4956D",
"G  c #CB9569",
"H  c #D29766",
"J  c #D79964",
"K  c #DB9964",
"L  c #C19773",
"P  c #C09977",
"I  c #CA9B73",
"U  c #C49C7A",
"Y  c #CB9F7A",
"T  c #D19E74",
"R  c #E99F63",
"E  c #CDA27D",
"W  c #D6A074",
"Q  c #DBA374",
"!  c #D1A47E",
"~  c #EDA365",
"^  c #EBA66C",
"/  c #F2A463",
"(  c #F3A768",
")  c #F3A96C",
"_  c #E1A472",
"`  c #E6A976",
"'  c #EBAA73",
"]  c #F5AD72",
"[  c #EFB27F",
"{  c #F5B077",
"}  c #F6B37C",
"|  c #BE9D82",
" . c #BEA087",
".. c #BDA28C",
"X. c #B9A594",
"o. c #BFA996",
"O. c #B9A798",
"+. c #BAAA9D",
"@. c #B7ACA4",
"#. c #BAADA2",
"$. c #B8AFA8",
"%. c #C29F81",
"&. c #C4A284",
"*. c #C8A283",
"=. c #C1A994",
"-. c #F7B681",
";. c #F8B782",
":. c #F7B884",
">. c #F8B986",
",. c #F9BD8C",
"<. c #F9BF90",
"1. c #FAC08F",
"2. c #FAC090",
/* pixels */
"                                                                      -.[                                                       ",
"                                                              9 9 v v v c c v 9 6 l                                             ",
"                                                      N v 5 ; - - - > 3 ; 3 - O O ; 5 x V N                                     ",
"                                                v x 5 : - 5 9 x v N A / / / V b v 9 5 > ; 3 l v                                 ",
"                                            ~ 6 O - 6 x A ] ;.:.>.>.,.,.,.,.,.:.>.:.} / b 6 > O 5 ~                             ",
"                                          v 2 ; 6 C ) } ,.1.2.2.2.1.1.2.1.1.2.1.2.2.,.,.;.] C 9 ; : N                           ",
"                                        2 - 3 v ) ;.,.,.1.2.<.<.2.2.2.<.2.2.2.2.2.2.<.2.<.,.;.) v 3 - 9 m                       ",
"                                    l 2 3 9 / } ,.1.1.1.1.1.2.2.2.2.2.2.2.2.2.2.2.2.2.2.2.2.,.,.} ( 6 ; 6 v                     ",
"                                  v : : x ] >.2.2.2.1.1.2.2.1.1.2.2.2.2.<.<.,.2.2.2.2.2.2.2.2.2.2.>.) 9 - 6 ~                   ",
"                                v 3 - x ] >.,.<.2.2.2.2.2.2.1.1.1.,.,.,.,.,.,.,.2.2.<.2.2.2.2.2.2.2.:.( 9 - 9 ^                 ",
"                              m 3 ; x ) ,.2.2.2.1.2.2.2.,.,.-.] / C b x z v N A ] } ,.,.<.2.2.2.2.2.2.>.) 9 - 9                 ",
"                            R 9 ; x ] ,.2.2.2.2.2.2.1.,.} ) b 9 > - = o . . - : 6 v ( } ,.2.2.2.2.2.2.2.>.( 5 - l               ",
"                            l - 6 ) >.<.2.2.2.2.2.2.,.{ N 5 - + # * q q w q * % = - 4 N ] :.<.<.2.2.2.2.2.;.C ; 5 c             ",
"                          m 3 3 A :.2.<.2.2.2.2.1.:.) x - . % e L | X.O.O.X...P s * @ - z ) >.<.2.2.2.<.2.,.] 9 O :             ",
"                        ^ 3 - x ;.,.2.1.2.2.2.1.:.) 6 - @ s 0 #.                #. .s @ - z ] >.2.2.2.2.2.,.:./ 5 2 N           ",
"                        9 - 6 ) ,.2.2.1.2.2.,.,.) 9 - # d ..                        &.d @ - N } <.<.<.2.2.<.,.} v - 7           ",
"                        O - C } ,.2.2.2.2.2.<.} v - + d =.                            &.i + 5 / >.2.2.2.2.2.1.,.V 2 2 ^         ",
"                      m - 9 ) ,.2.2.2.2.2.,.;.C 2 @ s                                   Y * - x { ,.2.2.2.1.2.,.{ x - v         ",
"                      8 - b } ,.2.2.2.2.,.,.) 9 - r *.                                    g - 2 ~ >.<.2.2.<.1.2.,.Z - 4         ",
"                    M 2 5 / >.2.2.2.2.2.<.;.b - $ G                                       Y $ - v -.,.2.2.2.2.2.1.~ - -         ",
"                    m - x ] <.2.2.2.2.2.>.) 9 @ y                                           $ O 9 ] ,.1.1.1.1.<.2.) 6 o n       ",
"                  ' c - C } 2.2.1.2.2.2.;.Z - , j                                           t @ 2 ) ,.2.1.1.2.2.2.{ v - c       ",
"                  B 7 ; / :.2.2.2.2.2.,.{ x O 1 !                                           k & 2 / :.2.2.2.2.2.2.;.N - l B     ",
"                  l : 3 ] ,.2.<.2.2.2.,.) 6 X t                                             W 1 O C ;.1.2.1.1.<.2.:./ - 4 l     ",
"                  4 - 6 } 2.2.2.1.2.2.:./ 3 o 1                                               1 O v -.2.2.2.2.2.2.>.( 3 : 7     ",
"                  2 O l } 2.2.2.2.2.2.:.A - $ p                                               7 o l { 2.2.<.<.2.2.,.( 3 - &     ",
"                  : O x ;.2.2.<.<.2.2.;.N - 1                                                 , O 9 } 2.2.1.2.<.2.>.) 6 - @     ",
"                  : - b ;.2.2.1.2.2.1.;.N - u                                                 7 O 9 { 2.2.2.2.<.2.,.) 6 - -     ",
"                  4 - C ;.1.2.2.1.2.1.} b O p                                                 7 O 6 } 2.2.<.<.2.2.,.) 5 o -     ",
"                  4 ; C :.1.2.2.2.2.2.} v - p                                                 4 O 6 } 2.2.2.2.2.2.>.) 5 - $     ",
"                  4 - C :.2.2.2.2.2.,.} v - c                                                 4 - 9 } <.2.2.2.2.2.>.( 4 - ,     ",
"                  4 - C ;.2.2.2.1.2.2.} b O p                                                 : O z } <.2.<.2.2.2.>.( 2 : 1     ",
"                  : - b ;.2.2.2.2.2.,.;.N - c                                                 4 o x } ,.2.2.2.2.2.>./ 3 2 u     ",
"                  - O b ;.2.2.2.2.2.2.;.N - u                                                 7 o v } 2.2.1.1.<.2.>./ - , p     ",
"                  : O x ;.2.2.1.1.2.1.;.V - 1                                                 8 O C ;.2.2.1.2.2.2.>.V 2 7 h     ",
"                  4 - z } 2.2.2.2.2.1.;.A ; 4                                               _ 8 ; A :.2.2.<.<.2.2.;.N - 1 K     ",
"                  7 - 6 } 2.2.2.<.2.<.:./ > -                                               k 4 ; ( :.2.2.1.2.<.1.} v o p       ",
"                  p : : { 2.2.2.2.2.,.,.) 3 o                                               8 : 5 ) ,.2.2.2.2.2.1.] 9 o p       ",
"                  h $ - ) ,.2.1.2.2.2.,.) 6 X                                               - o 6 ] ,.2.2.2.2.2.1.) 5 o p       ",
"                  K 1 - / :.2.<.2.2.2.,.] z o 4                                             o - x } ,.2.2.2.2.2.,./ : -         ",
"                  Q u - v } 2.2.2.2.2.1.} b O 9                                           ' : - M :.1.<.2.2.2.<.,.Z o &         ",
"                    p - 9 ] <.2.1.2.2.1.:./ 3 4 n                                         B 2 6 ( ,.2.2.2.2.2.<.;.b o u         ",
"                    h : 4 / ,.2.2.2.2.2.,.] 6 2 l                                         8 ; x { 1.2.2.2.2.2.,.) 9 - h         ",
"                      , - C } 2.2.2.2.2.,.} C 3 4 ^                                     ~ : 3 A >.1.1.<.2.1.1.,.Z 3 $ K         ",
"                      t - x ] 1.2.2.2.2.2.,.] 9 : v                                     l - x { ,.2.2.2.2.2.,.{ v - ,           ",
"                      k o 3 / :.1.2.2.2.2.2.;.b ; - m                                 l - 3 A ,.1.1.2.2.2.2.,.) 7 - p           ",
"                        - - v } ,.2.2.2.2.2.,.) 9 - 2                               l 2 ; v } 2.<.2.1.<.2.<.>.N ; : K           ",
"                        p + 5 / ,.2.2.2.2.2.2.>.) 9 - 4 v                         v 2 ; x ] ,.,.2.2.2.2.2.>.] 9 o $             ",
"                        T $ = x ;.1.1.1.2.2.2.,.:.) 9 ; > c ]                 ~ 9 - 3 x ) ,.1.2.2.<.<.2.,.;.N - $ p             ",
"                          p = 3 ( >.1.<.2.2.2.<.2.:.) x ; ; : 6 l N V V v 9 5 3 - 3 N { ,.1.2.2.<.2.2.2.,.) 3 = r               ",
"                          T 1 - 9 ) ,.2.2.2.2.2.2.,.,.} ( v 5 3 3 3 3 3 2 : 3 9 C ) ;.,.,.2.2.2.2.2.1.,.] x o , H               ",
"                            g # - v { ,.1.2.1.1.2.2.2.,.>.} ) A C v v v v Z ( ] ;.,.1.2.2.2.2.2.2.2.,.{ C : @ f                 ",
"                              i o : C } ,.2.2.2.2.2.2.2.2.1.,.,.;.} } } ;.;.,.,.1.2.,.2.2.2.2.2.2.,.} C 3 o r E                 ",
"                              Y r + 3 v } ,.2.2.2.2.2.2.2.2.2.2.1.2.2.2.2.2.1.2.1.2.2.2.2.1.2.1.,.} v 3 - < Y                   ",
"                                Y r + ; v ] >.,.2.2.2.1.2.2.1.1.2.2.2.2.2.2.1.2.2.2.2.2.1.1.1.;.' C - + < I                     ",
"                                  U r + - z / } 2.2.2.2.2.2.2.2.2.2.2.2.2.2.2.2.2.2.2.2.1.,.{ V 9 - . < I                       ",
"                                    &.i @ + : v ) } ;.,.,.2.2.2.2.2.,.2.2.2.2.2.,.,.,.;.{ / x 2 = # q I                         ",
"                                      =.G < @ - 3 x Z ) { } ;.>.>.,.,.,.:.:.:.;.} ] / N 9 - + @ r G =.                          ",
"                                          %.d < @ . - 2 9 x N A / / ( / / Z C b x 6 : = + $ r D ..                              ",
"                                            +.| D w % + . - - : > 2 2 2 : : - - = . @ < d F  .#.                                ",
"                                                #.X.&.L S s q * % % * * * r q e d D P ..+.                                      ",
"                                                        @.O...| 0 | %.| 0 | | X.+.$.                                            ",
"                                                                                                                                ",
"                                                                                                                                "
};
