/* XPM */
static char *_1708600642[] = {
/* columns rows colors chars-per-pixel */
"64 64 120 2 ",
"   c None",
".  c #DE751E",
"X  c #E16E0E",
"o  c #E37213",
"O  c #E2761D",
"+  c #E5791E",
"@  c #DE7722",
"#  c #DE7925",
"$  c #D77A2D",
"%  c #DA7B2B",
"&  c #D57E35",
"*  c #D47F39",
"=  c #E27720",
"-  c #E57C24",
";  c #E57F29",
":  c #E87F28",
">  c #DC8134",
",  c #D4813D",
"<  c #DB833A",
"1  c #E7812C",
"2  c #E8812C",
"3  c #E58332",
"4  c #E98532",
"5  c #EA8837",
"6  c #E18539",
"7  c #E6893B",
"8  c #EA8B3C",
"9  c #BF9A7C",
"0  c #CF8344",
"q  c #CE864A",
"w  c #CE884E",
"e  c #D28443",
"r  c #D98741",
"t  c #D68947",
"y  c #DF8B44",
"u  c #D48748",
"i  c #D2894C",
"p  c #DC8D4C",
"a  c #CB8A53",
"s  c #C78E5F",
"d  c #CA8D5B",
"f  c #CC905E",
"g  c #DB9254",
"h  c #D6935B",
"j  c #DC965B",
"k  c #E38C44",
"l  c #EB8E41",
"z  c #E38E48",
"x  c #EC9145",
"c  c #E4914B",
"v  c #ED954B",
"b  c #EE984F",
"n  c #EA9651",
"m  c #E79855",
"M  c #EE9953",
"N  c #E59A5B",
"B  c #EA9C5A",
"V  c #F09C55",
"C  c #F19E5A",
"Z  c #F1A15E",
"A  c #C78F61",
"S  c #C88F60",
"D  c #C79266",
"F  c #CC9364",
"G  c #C4946C",
"H  c #C89469",
"J  c #CB996F",
"K  c #D19664",
"L  c #D69865",
"P  c #DB9A64",
"I  c #D49C6D",
"U  c #DA9B68",
"Y  c #C39772",
"T  c #C29876",
"R  c #CF9D75",
"E  c #C39B7A",
"W  c #C99E7A",
"Q  c #D19C71",
"!  c #E79E62",
"~  c #C7A07E",
"^  c #D6A073",
"/  c #DBA274",
"(  c #ECA366",
")  c #EEA66A",
"_  c #F2A464",
"`  c #F3A769",
"'  c #F4AA6C",
"]  c #E4A877",
"[  c #EBAB75",
"{  c #E1AA7D",
"}  c #F5AE73",
"|  c #F5B077",
" . c #F6B37C",
".. c #BF9E83",
"X. c #BEA28B",
"o. c #BCA693",
"O. c #BFA996",
"+. c #B7AA9E",
"@. c #BBA99B",
"#. c #B7ADA4",
"$. c #B9ADA3",
"%. c #B7AFA8",
"&. c #B6B1AC",
"*. c #B9B0A8",
"=. c #C09D80",
"-. c #C4A185",
";. c #C6A68C",
":. c #C9A98E",
">. c #DFAF87",
",. c #C0A996",
"<. c #E3AD80",
"1. c #E7B58B",
"2. c #F7B781",
"3. c #F8B782",
"4. c #F7B883",
"5. c #F8B985",
"6. c #F9BE8C",
"7. c #FABF90",
"8. c #FAC08F",
"9. c #FAC090",
/* pixels */
"                                                                                                                                ",
"                                                                b b n                                                           ",
"                                              v n n v l 8 5 3 2 1 1 1 2 5 8 l c n c                                             ",
"                                      4 x l 5 ; ; 2 1 3 5 8 8 8 8 7 8 8 8 5 4 2 : 2 4 8 l                                       ",
"                                V l : O - 2 8 x M C ` }  .3.6.5.6.6.5.6.3.| | _ V x 8 2 + 2 8 v                                 ",
"                            M 7 - - 4 x V _ } 3.6.6.6.6.8.9.9.9.6.9.9.9.8.6.8.8.5.3.} Z v 4 - - 7 B                             ",
"                        l 5 ; 2 8 V '  .5.6.6.9.6.9.9.7.9.9.9.9.7.9.9.9.7.9.8.9.9.8.6.5. .' M 5 : : x m                         ",
"                    B 3 - : x _  .6.6.6.9.6.8.8.9.9.9.8.9.9.9.8.8.9.9.9.8.9.9.9.8.8.9.8.8.6.3.} V 5 - 2 l                       ",
"                  l ; - 2 b | 6.8.8.9.9.9.9.8.9.9.9.9.9.9.9.7.7.9.9.9.9.9.9.9.9.9.8.9.9.9.9.8.6.2.' l 2 - 7 M                   ",
"                x 1 : 8 _  .6.8.9.9.7.9.9.9.8.6.6.5.5. . .| } } } |  . .4.6.6.7.7.7.9.9.9.9.9.9.6.5.} M 4 - l (                 ",
"              B ; 1 x } 5.6.8.8.8.8.8.8.7.6.5. .' C v l 5 1 - - - - 2 8 v _ } 5.6.9.9.9.9.8.9.9.9.8.6.| Z 5 : 4 (               ",
"            c 2 - l } 5.9.8.8.8.8.8.8.8.5.} B 8 2 - = @ # $ & & & $ % O + ; l C } 5.8.9.9.8.9.9.9.8.8.6.3._ 5 - 8 m             ",
"          B 4 + 5 _ 6.6.9.9.7.9.9.9.6. .Z 8 - + @ & q s G T 9 ..9 9 G s , @ O ; l ' 3.6.8.7.9.9.9.9.7.9.6.3.C 2 + k [           ",
"          - - 2 _  .6.9.9.9.9.9.8.6.| M 1 + % a G =.o.$.            *.$.X.D 0 % - 4 V | 6.6.9.9.9.9.9.9.9.6. .V 2 - 3           ",
"          O - x | 6.8.9.9.8.8.9.8.3.V - . , D X.                          %.-.d & . : v } 5.9.9.9.8.8.9.8.8.6.} l + + (         ",
"        m - 4 Z 2.6.9.9.9.7.7.9.3.' 5 O , f O.                                O.H & @ - v ' 6.9.9.7.7.9.8.8.8. .Z 2 - m         ",
"      c 7 - x } 6.8.9.9.9.9.9.8. .x - # f :.                                      J , - - v  .6.9.9.9.9.9.9.9.6.} l ; 7 c       ",
"      k 1 2 V 5.6.9.8.9.9.8.6.6.' 5 - & Q                                           J e O 2 C  .6.9.9.9.9.8.8.6.3.V 2 : l       ",
"      7 ; ; V 5.6.9.9.9.9.9.6. .Z : ; r                                               F % - 8 ' 6.6.9.9.9.9.9.9.6.Z 5 - c       ",
"      k ; 5 Z 6.9.9.9.9.9.9.6. .V : & g                                                 u ; : C  .8.9.9.9.9.9.9.6._ 8 - c 1.    ",
"      k - 8 _ 6.9.8.8.9.9.9.8.| b - < j                                                 K < - v | 6.9.9.9.8.8.9.6.' x + z <.    ",
"      z - 7 _ 6.9.9.9.9.9.9.6.| V : 6 j                                                 / < - v } 6.9.9.9.9.9.9.6.} v + k ]     ",
"      k - 8 _ 6.9.7.9.9.9.9.6. .V : 3 g                                                 I 6 - v } 6.9.9.9.9.9.9.6.} v + k ]     ",
"      k - 3 Z 6.9.9.9.9.9.9.6.3._ 2 ; 7                                                 ! 6 - b | 6.9.9.9.9.8.9.6.} c - l {     ",
"      k ; 1 B 6.6.8.9.9.9.9.8.6.} l : ; (                                               c ; ; V  .6.9.9.9.9.9.9.6.' x - k <.    ",
"      y 1 - b  .6.8.9.9.9.7.7.9.3.Z 4 - k B                                           v ; ; 5 _ 3.6.7.9.9.9.7.9.6.' 7 - y >.    ",
"      g < - 8 ' 5.9.9.9.9.8.8.9.6.3.V 2 + 5 B                                     7 : + ; l Z 2.6.8.8.9.9.9.8.8.6._ 5 - z       ",
"        g + 2 M  .6.8.9.9.8.8.9.9.6. .Z 5 : - l B                           B l - - 2 8 C | 5.7.8.8.9.9.9.9.8.8.5.V 2 - y       ",
"        P . + 8 ' 5.6.9.9.7.7.9.9.9.6.3.' v 4 : - 4 l m ( ) _     ( ( n 7 2 : - 4 v _  .5.6.9.9.9.7.7.9.9.9.9.6. .V : - p       ",
"          < @ - x } 6.8.9.8.9.9.9.9.9.6.6.5. .Z x 5 2 2 2 - + + O + : 2 2 8 x C } 3.6.6.8.8.9.9.9.8.8.9.9.9.8.6.| x - & y       ",
"          Q , - - v | 6.9.9.9.9.9.9.9.9.8.9.8.5. .} _ V b v x 8 8 x v V _ }  .6.6.9.9.9.9.8.9.9.9.8.8.9.9.9.8.3.' 8 - r j       ",
"            L e @ 1 b } 5.6.9.9.9.9.9.9.8.9.7.9.9.6.6.5.3.3. . . . .5.5.5.6.9.9.7.7.9.9.9.7.9.9.9.7.7.9.9.9.6. .V 2 - j         ",
"              R , # - 7 Z | 6.6.9.9.9.9.9.9.9.9.9.9.9.9.9.9.9.6.8.8.9.9.9.9.9.9.9.9.9.9.9.9.9.9.9.9.9.9.9.8.6.} l + O U         ",
"                W i % O 2 v ' 4.6.9.9.9.9.9.8.9.9.9.9.9.9.9.9.9.8.8.9.9.8.8.9.9.9.9.9.9.9.9.9.9.9.9.8.9.9.7.3._ 4 + -           ",
"                  -.f * @ - 8 v `  .5.7.8.6.6.9.9.9.9.9.9.9.9.7.6.9.9.9.7.6.8.6.6.6.6.8.6.9.9.9.9.7.7.9.9.6.| M - # r           ",
"                      W a * # - 2 8 V '  .5.6.6.6.6.6.9.9.9.9.9.9.9.8.6.6.6.5. .} ' ' | 5.9.9.9.9.9.9.9.9.6._ 5 O > I           ",
"                        O.E s , $ O - 3 8 n C _ } }  .2.5.6.6.6.3.2.| } _ C v l 8 5 v ' 5.6.8.9.9.8.9.9.8.3.v - # p             ",
"                            @.=.H w * % . O : 2 5 8 l x x v v v x l l 5 2 : + o o 4 Z  .6.7.9.9.9.7.9.9.5.' 8 @ r L             ",
"                                  @.9 H d q , & $ % # # # # - @ # # # % # . X X - Z  .6.7.9.9.9.9.9.6.6.| x - # h               ",
"                                        %.+.X.T H A d d a a a a a s d s 0 # o 2 M 2.7.9.9.9.9.9.9.8.6. .C 2 ; <                 ",
"                                                  &.&.%.$.+.@.+.#.#.@.Y , O - v | 6.6.8.9.9.9.9.8.6.5._ 8 O > K                 ",
"                                                                  :.K , - 2 v } 6.6.9.8.9.9.9.9.9.6.' l - - i                   ",
"                                                                  g 3 O 2 V | 6.8.8.9.9.9.8.7.7.6. .v : O u Q                   ",
"                                                              N k ; - 5 C  .6.9.9.9.9.9.9.9.9.6. .C ; = & R                     ",
"                                                            7 5 - 1 l _ 3.6.9.9.9.7.9.9.9.9.6.2.C 5 = < F                       ",
"                                                      B b - - 2 l Z  .6.8.9.9.9.8.8.9.9.8.6.| V 4 O < F                         ",
"                                                ( M 7 ; - : l C | 5.9.9.8.9.9.9.9.9.9.9.6.} V 1 - % F                           ",
"                                          M m 5 ; : : 5 x _ | 5.6.9.9.9.7.9.9.9.7.7.6.5.} v : O < f                             ",
"                                  ) b 3 O + : 2 5 v _ | 5.6.6.8.9.9.9.9.8.9.8.8.8.5.| _ 8 - % u G                               ",
"                          ( x 4 : - - ; 4 8 v _ } 3.6.8.9.9.6.8.8.9.9.9.8.8.8.8.3.' v 2 O $ i ~                                 ",
"                      7 4 2 - 2 4 l V _ '  .3.6.6.9.6.9.9.7.9.7.7.9.9.9.6.6.5.| C 5 - . & d ;.                                  ",
"                  8 + - 2 8 Z ' |  .5.6.6.6.8.9.9.9.9.8.9.9.9.8.9.9.6.6. .' M 8 - @ * a W                                       ",
"                m 1 + 8 C | 5.9.9.9.9.9.9.9.9.9.9.9.9.8.9.9.6.8.6.4.| _ x 3 - . $ q Y ,.                                        ",
"                5 2 2 _  .6.7.9.9.9.7.9.9.9.7.7.9.9.9.6.6.6.6.3.' M 8 1 - @ $ w G ,.                                            ",
"                1 - 8 | 6.9.9.9.9.9.9.9.9.9.9.9.6.6.6.5. .' V 8 1 - @ $ e A T ,.                                                ",
"                3 ; 8 ' 6.8.9.9.9.9.9.9.9.9.6.6.5.| ` V l 4 - O $ , a G -.*.                                                    ",
"                y ; : V } 6.6.6.6.8.6.6.6.2.} C n 8 2 - . # & a G ..@.                                                          ",
"                L > O : 8 C } | | } _ V v 7 3 ; - # $ , a D 9 O.                                                                ",
"                  K , # O - 2 8 3 5 ; - = @ $ * u d G ..$.                                                                      ",
"                    -.f e & $ % $ $ & , i s G ..o.#.                                                                            ",
"                        o.=.Y H H Y ..o.@.%.                                                                                    ",
"                                                                                                                                ",
"                                                                                                                                ",
"                                                                                                                                "
};
