/* XPM */
static char *Right1708195434[] = {
/* columns rows colors chars-per-pixel */
"64 64 191 2 ",
"   c #042F27",
".  c #0A2F27",
"X  c #022F28",
"o  c #092F28",
"O  c #1B2E27",
"+  c #043027",
"@  c #0C3525",
"#  c #0F3827",
"$  c #043029",
"%  c #1E3026",
"&  c #113A26",
"*  c #163622",
"=  c #212F26",
"-  c #233127",
";  c #2E3B21",
":  c #253723",
">  c #7D2616",
",  c #28461E",
"<  c #1D4324",
"1  c #204020",
"2  c #2B4422",
"3  c #304722",
"4  c #455A18",
"5  c #56571A",
"6  c #5E6E12",
"7  c #5F6214",
"8  c #6F7A0F",
"9  c #616015",
"0  c #677613",
"q  c #6A7615",
"w  c #707811",
"e  c #565E23",
"r  c #485424",
"t  c #546D22",
"y  c #597123",
"u  c #6F722D",
"i  c #9D350D",
"p  c #8D2515",
"a  c #8E2B15",
"s  c #932716",
"d  c #982412",
"f  c #952D15",
"g  c #943514",
"h  c #933A13",
"j  c #9E301F",
"k  c #A22C0E",
"l  c #AE2F0F",
"z  c #A4320E",
"x  c #AD330F",
"c  c #A23B0C",
"v  c #AE3A0E",
"b  c #B4360F",
"n  c #B23A0F",
"m  c #A62210",
"M  c #AB2210",
"N  c #AE2B10",
"B  c #B42412",
"V  c #B92612",
"C  c #B52C11",
"Z  c #BB2F1C",
"A  c #AB3519",
"S  c #BF311C",
"D  c #BA3A14",
"F  c #DE2D18",
"G  c #C2301E",
"H  c #CF3816",
"J  c #D43A16",
"K  c #D0301C",
"L  c #E52F1A",
"P  c #E82F1B",
"I  c #E43319",
"U  c #ED301B",
"Y  c #E13918",
"T  c #994515",
"R  c #974812",
"E  c #9D501C",
"W  c #9A5013",
"Q  c #A3430B",
"!  c #AE430D",
"~  c #A34A0B",
"^  c #B6450F",
"/  c #BA490F",
"(  c #AB590A",
")  c #B3520C",
"_  c #BB550D",
"`  c #A04119",
"'  c #B64111",
"]  c #A05B19",
"[  c #BF5613",
"{  c #8B7D0D",
"}  c #817E10",
"|  c #AD6B07",
" . c #AD6A08",
".. c #A7640D",
"X. c #B47D06",
"o. c #B46210",
"O. c #A15B22",
"+. c #C75E0F",
"@. c #CD4514",
"#. c #D64915",
"$. c #C85819",
"%. c #E35215",
"&. c #C66A0B",
"*. c #C7700B",
"=. c #DE730E",
"-. c #C66C19",
";. c #C56917",
":. c #CC7C1C",
">. c #E27A0F",
",. c #E47C11",
"<. c #EA7813",
"1. c #ED711A",
"2. c #E87E1B",
"3. c #CE7428",
"4. c #778825",
"5. c #828E13",
"6. c #B58106",
"7. c #9EA512",
"8. c #AFAD07",
"9. c #ACA609",
"0. c #B8B609",
"q. c #9AA325",
"w. c #96A233",
"e. c #A0A823",
"r. c #ABB22E",
"t. c #B4B934",
"y. c #C28A07",
"u. c #CB870A",
"i. c #C59904",
"p. c #CE821E",
"a. c #CBA803",
"s. c #D4A306",
"d. c #D4AB05",
"f. c #C3B805",
"g. c #DCB504",
"h. c #D4B902",
"j. c #DDBE04",
"k. c #C6AE1D",
"l. c #C7B31E",
"z. c #E7B914",
"x. c #CE8021",
"c. c #D08021",
"v. c #C5B52D",
"b. c #F2A22E",
"n. c #E1B029",
"m. c #EDB22C",
"M. c #C8C204",
"N. c #DDC801",
"B. c #DCC203",
"V. c #E1CC02",
"C. c #E1C502",
"Z. c #E5D501",
"A. c #EBDC01",
"S. c #E5DB02",
"D. c #F1DD06",
"F. c #ECCD1A",
"G. c #EFD21E",
"H. c #EEE101",
"J. c #EBE20E",
"K. c #F2E501",
"L. c #F5E900",
"P. c #FAED00",
"I. c #FFF200",
"U. c #FFF30C",
"Y. c #ECE314",
"T. c #FBEC16",
"R. c #F9E114",
"E. c #FFF314",
"W. c #FEF31B",
"Q. c #C9C926",
"!. c #D3D02B",
"~. c #C8C937",
"^. c #E9C22D",
"/. c #F7CA2D",
"(. c #F4C42F",
"). c #EBC337",
"_. c #F6C935",
"`. c #EFD132",
"'. c #F5DE35",
"]. c #F0D433",
"[. c #FCEE2B",
"{. c #FFF325",
"}. c #FEF32C",
"|. c #E8E23A",
" X c #F5EB31",
".X c #FAEC37",
"XX c #F6E13F",
"oX c #F6E638",
"OX c #FEF232",
"+X c #FEF438",
"@X c #F2D740",
/* pixels */
"X X X X $ $ X X X X X X X X X X X X X X X X X X X X X X $ $ X X X X X X X X X X X X X X X X X X X X X X $ X X X X X X X X X X X ",
"O O O O O O O O O O . o % % O O O O O O O O O O X o O = O % O O O O O O O O O O X o O - O O O O O O O O O O O O $ o % - O O O O ",
"p p p p p p p p p > O O j S d p p p p p s p p p X O A Z f h T E O.O.O.O.E T h a o O j Z s p p p p p s p p p p p o % j Z s p p p ",
"M M M M M M M M M d = = K F B M M M M M M M M M @ r 3.b.).@XXX.XOX}.OXOX.XXX].).w.u $.I B M M M M M M M M M M M X O G L B M M M ",
"M M M M M M M M M d = = K L B M M M M M M M ' p.~.|.}.W.U.I.I.I.I.I.I.I.I.I.I.E.W.}..X_.p.n M m M M M M M M M M X - G L B M M M ",
"V V V V M M M M M d = = K L V V V V B C +.n.oX{.E.I.I.I.I.I.I.I.I.I.I.I.I.I.I.I.I.I.I.U.{.'.n.$.B V V B M M M M o - G L V V V V ",
"P P P F B M M M M d = = K U P P P P Y 2.'.}.U.I.I.I.I.I.I.I.I.I.I.I.I.I.I.I.I.I.I.I.I.I.I.U.}.oX2.I P L B M M M X O G U L P I P ",
"U U U L B M M M M d = - K U U U U 1./.}.I.I.I.I.I.I.I.I.I.I.I.I.I.I.I.I.I.I.I.I.I.I.I.I.I.I.I.I.}./.1.I B M M M o - G U U U U U ",
"$ $ X X X X X X o o   o X X X # e.}.U.I.I.I.I.I.I.I.I.I.I.I.I.I.I.I.I.I.I.I.I.I.I.I.I.I.I.I.I.I.I.U. Xq.& $ $ $ X X X X X o o $ ",
"X o O = O O O O O O O O O O 2 Q.W.I.I.I.I.I.I.I.I.I.I.I.I.I.I.I.I.I.I.I.I.I.I.I.I.I.I.I.I.I.I.I.I.I.I.W.Q.2 O O O O O O O O O O ",
"X % j Z s p p p p p p p p W l.W.I.I.I.I.I.I.I.I.I.I.I.I.I.I.I.I.I.I.I.I.I.I.I.I.I.I.I.I.I.I.I.I.I.I.I.I.W.k.R p p p p p p p p p ",
"X - Z P B M M M m m M M / G.E.I.I.I.I.I.I.I.I.I.I.I.I.I.I.I.I.I.I.I.I.I.I.I.I.I.I.I.I.I.I.I.I.I.I.I.I.I.I.E.G.^ M m m M M M M m ",
"X - G P B M M M M M m ^ F.U.I.I.I.I.I.I.I.I.I.I.I.I.I.I.I.I.I.I.I.I.I.I.I.I.I.I.I.I.I.I.I.I.I.I.I.I.I.I.I.I.U.G.n M M M M M M M ",
"X - G P V B V V V B b z.U.I.I.I.I.I.I.I.I.I.I.I.I.I.I.I.I.I.I.I.I.I.I.I.I.I.I.I.I.I.I.I.I.I.I.I.I.I.I.I.I.I.I.U.z.C B B M M M M ",
"X - G P P P L P P L 2.E.I.I.I.I.I.I.I.I.I.I.I.I.I.I.I.I.I.I.I.I.I.I.I.I.I.I.I.I.I.I.I.I.I.I.I.I.I.I.I.I.I.I.I.I.W.>.I F B M M M ",
"X - G U P U U U P <.R.I.I.I.I.I.I.I.I.I.I.I.I.I.I.I.I.I.I.I.I.I.I.I.I.I.I.I.I.I.I.I.I.I.I.I.I.I.I.I.I.I.I.I.I.I.I.T.<.L B M M M ",
"X X X X X X X X < Y.U.I.I.I.I.I.I.I.I.I.I.I.I.I.I.I.I.I.I.I.I.I.I.I.I.I.I.I.I.I.I.I.I.I.I.I.I.I.I.I.I.I.I.I.I.I.I.K.8.& X X o X ",
"O O O O O O O O 7.U.I.I.I.I.I.I.I.I.I.I.I.I.I.I.I.I.I.I.I.I.I.I.I.I.I.I.I.I.I.I.I.I.I.I.I.I.I.I.I.I.I.I.I.I.I.K.9.4 : O O O O O ",
"p p p p p p s h J.I.I.I.I.I.I.I.I.I.I.I.I.I.I.I.I.I.I.I.I.I.I.I.I.I.I.I.I.I.I.I.I.I.I.I.I.I.I.I.I.I.I.I.P.L.N.6.1 O j Z s p p p ",
"M M M M M M M u.U.I.I.I.I.I.I.I.I.I.I.I.I.I.I.I.I.I.I.I.I.I.I.I.I.I.I.I.I.I.I.I.I.I.I.I.I.I.I.I.I.I.I.L.h. .c m $ - G P B M M M ",
"M M M M M M x D.I.I.I.I.I.I.I.I.I.I.I.I.I.I.I.I.I.I.I.I.I.I.I.I.I.I.I.I.I.I.I.I.I.I.I.I.I.I.I.I.I.H.h. .k m M M X = Z P B M M M ",
"V V V B M M *.U.I.I.I.I.I.I.I.I.I.I.I.I.I.I.I.I.I.I.I.I.I.I.I.I.I.I.I.I.I.I.I.I.I.I.I.I.I.I.I.H.d.) x B M M M M X = G P V V V V ",
"L L L F B x s.I.I.I.I.I.I.I.I.I.I.I.I.I.I.I.I.I.I.I.I.I.I.I.I.I.I.I.I.I.I.I.I.I.I.I.I.I.I.P.S.*.H I P F B M M M X = G U P P I P ",
"U U U L B _ K.I.I.I.I.I.I.I.I.I.I.I.I.I.I.I.I.I.I.I.I.I.I.I.I.I.I.I.I.I.I.I.I.I.I.I.I.P.B.*.J I U U U L B M M M $ - G U U U U U ",
"$ $ $ $ $ 5.I.I.I.I.I.I.I.I.I.I.I.I.I.I.I.I.I.I.I.I.I.I.I.I.I.I.I.I.I.I.I.I.I.I.P.L.M.9 * + + + X X X o X X X o X o X X $ $ $ $ ",
"$ o % O % f.I.I.I.I.I.I.I.I.I.I.I.I.I.I.I.I.I.I.I.I.I.I.I.I.I.I.I.I.I.I.I.I.I.L.f.5 : O O O O O X . O O O O O O O O O O O O O O ",
"X O j Z g V.I.I.I.I.I.I.I.I.I.I.I.I.I.I.I.I.I.I.I.I.I.I.I.I.I.I.I.I.I.I.I.L.N.6.i p p p p p p p X O j Z s p p p p p p p p p p p ",
"X - G P ^ D.I.I.I.I.I.I.I.I.I.I.I.I.I.I.I.I.I.I.I.I.I.I.I.I.I.I.I.I.I.L.h.| c m M M M M m M M M + - G L B m M M M M M M M M M m ",
"X - G P _ L.I.I.I.I.I.I.I.I.I.I.I.I.I.I.I.I.I.I.I.I.I.I.I.I.I.I.I.K.j.&.z m M M M M M M M M M M X - G P B M M M M M M M M M M M ",
"$ - S P &.P.I.I.I.I.I.I.I.I.I.I.I.I.I.I.I.I.I.I.I.I.I.I.I.I.I.H.8.9 D L G V V V B B V B M M M M X - G P V B V V B V V B M M M M ",
"X - G U =.P.I.I.I.I.I.I.I.I.I.I.I.I.I.I.I.I.I.I.I.I.I.I.I.P.Z.6.* - G P P P L L P P L F B M M M X - G U P L L L L L L F B M M M ",
"X - G U <.P.I.I.I.I.I.I.I.I.I.I.I.I.I.I.I.I.I.I.I.I.I.I.V.| i M + - G U U P U P U P U P B M M M X - G P U U U U U U P L B M M M ",
"X X X X 0 I.I.I.I.I.I.I.I.I.I.I.I.I.I.I.I.I.I.I.I.I.I.U.!.y & $ + $ $ $ $ X X X X X X X X X X X X X X X $ X X X X X X X X X X X ",
"O O O O q P.I.I.I.I.I.I.I.I.I.I.I.I.I.I.I.I.I.I.I.I.I.I.U.OX|.4.% O O % O O O O X X O - O O O O O O O O % O O O $ X % % O O O O ",
"p p p p ..P.I.I.I.I.I.I.I.I.I.I.I.I.I.I.I.I.I.I.I.I.I.I.I.I.E. Xv.E h a p p p p o O j Z s p p p p p s p p p p p X O j Z s p p p ",
"M M M M ) L.I.I.I.I.I.I.I.I.I.I.I.I.I.I.I.I.I.I.I.I.I.I.I.I.I.I.E.[.^.-.N M M M X - G L B M M M M M M M M M M M o - G L B M M M ",
"M M M M ! A.I.I.I.I.I.I.I.I.I.I.I.I.I.I.I.I.I.I.I.I.I.I.I.I.I.I.I.I.U.}.^.-.n M $ - G I B M M M M M M M M M M M X - G L B M M M ",
"V V V V x C.I.I.I.I.I.I.I.I.I.I.I.I.I.I.I.I.I.I.I.I.I.I.I.I.I.I.I.I.I.I.U.}.].x.< - G I V V V B V V V B M M M M X - G L V V V V ",
"P P L F N g.I.I.I.I.I.I.I.I.I.I.I.I.I.I.I.I.I.I.I.I.I.I.I.I.I.I.I.I.I.I.I.I.E.+Xt.5 G U I P P L L L L L B M M M o O G U P P I P ",
"U U U P B y.P.I.I.I.I.I.I.I.I.I.I.I.I.I.I.I.I.I.I.I.I.I.I.I.I.I.I.I.I.I.I.I.I.I.U.+X_.1.U U U U U U U P B M M M X - G U U U U U ",
"X $ + X X 4 H.I.I.I.I.I.I.I.I.I.I.I.I.I.I.I.I.I.I.I.I.I.I.I.I.I.I.I.I.I.I.I.I.I.I.I.U.}.~.t # X $ $ $ $ X X X X X X X X X X X o ",
"X . O O O ; 9.I.I.I.I.I.I.I.I.I.I.I.I.I.I.I.I.I.I.I.I.I.I.I.I.I.I.I.I.I.I.I.I.I.I.I.I.I.U.+X|.4.# $ O % O O O O O O O O O O O O ",
"X % j Z s p  .I.I.I.I.I.I.I.I.I.I.I.I.I.I.I.I.I.I.I.I.I.I.I.I.I.I.I.I.I.I.I.I.I.I.I.I.I.I.I.E. Xr.t A S s p p p p p p p p p p p ",
"X - G P B M z S.I.I.I.I.I.I.I.I.I.I.I.I.I.I.I.I.I.I.I.I.I.I.I.I.I.I.I.I.I.I.I.I.I.I.I.I.I.I.I.I.T.oX).1.C M M M m M M M M M M M ",
"X - G L B M M 6.P.I.I.I.I.I.I.I.I.I.I.I.I.I.I.I.I.I.I.I.I.I.I.I.I.I.I.I.I.I.I.I.I.I.I.I.I.I.I.I.I.I.U.[.^.;.b M M m M M M M M M ",
"X - G P V V V n A.I.I.I.I.I.I.I.I.I.I.I.I.I.I.I.I.I.I.I.I.I.I.I.I.I.I.I.I.I.I.I.I.I.I.I.I.I.I.I.I.I.I.I.U.[.`.:.b V B B M M M M ",
"X - G P L L I I s.P.I.I.I.I.I.I.I.I.I.I.I.I.I.I.I.I.I.I.I.I.I.I.I.I.I.I.I.I.I.I.I.I.I.I.I.I.I.I.I.I.I.I.I.I.E.+Xm.%.P F B M M M ",
"X - G U U U U U #.H.I.I.I.I.I.I.I.I.I.I.I.I.I.I.I.I.I.I.I.I.I.I.I.I.I.I.I.I.I.I.I.I.I.I.I.I.I.I.I.I.I.I.I.I.P.I.E.OXz.Y B M M M ",
"X X X X $ $ $ X X 0 S.I.I.I.I.I.I.I.I.I.I.I.I.I.I.I.I.I.I.I.I.I.I.I.I.I.I.I.I.I.I.I.I.I.I.I.I.I.I.I.I.I.I.I.I.I.I.H.0 X X X X X ",
"O O O O O O O O $ o } P.I.I.I.I.I.I.I.I.I.I.I.I.I.I.I.I.I.I.I.I.I.I.I.I.I.I.I.I.I.I.I.I.I.I.I.I.I.I.I.I.I.I.I.I.L.w : - O O O O ",
"p p p p p p p p X O ` g.I.I.I.I.I.I.I.I.I.I.I.I.I.I.I.I.I.I.I.I.I.I.I.I.I.I.I.I.I.I.I.I.I.I.I.I.I.I.I.I.I.I.I.I.0.; j Z s p p p ",
"M M M M M M M M X - S #.B.I.I.I.I.I.I.I.I.I.I.I.I.I.I.I.I.I.I.I.I.I.I.I.I.I.I.I.I.I.I.I.I.I.I.I.I.I.I.I.I.I.I.N., - G P B M M M ",
"M M M M M M M M X = Z L ) V.P.I.I.I.I.I.I.I.I.I.I.I.I.I.I.I.I.I.I.I.I.I.I.I.I.I.I.I.I.I.I.I.I.I.I.I.I.I.I.P.V.~ X = S P B M M M ",
"V V V B M M M M X = G P V ) d.P.I.I.I.I.I.I.I.I.I.I.I.I.I.I.I.I.I.I.I.I.I.I.I.I.I.I.I.I.I.I.I.I.I.I.I.I.P.a.Q M X = G P V V V V ",
"P P L L B M M M X - G U L I @.B.I.I.I.I.I.I.I.I.I.I.I.I.I.I.I.I.I.I.I.I.I.I.I.I.I.I.I.I.I.I.I.I.I.I.I.I.h.Q m M X = G U P P P L ",
"U U U P B M M M X - G U U U U J s.L.I.I.I.I.I.I.I.I.I.I.I.I.I.I.I.I.I.I.I.I.I.I.I.I.I.I.I.I.I.I.I.I.L.i.z M M M X - G U U U U U ",
"$ $ X X X X X o X X o X X X $ X o 6 f.P.I.I.I.I.I.I.I.I.I.I.I.I.I.I.I.I.I.I.I.I.I.I.I.I.I.I.P.I.I.f.6 . X X X o X X o X $ $ $ $ ",
"X o O = O O O O O O O O O O O O X . ; { Z.I.I.I.I.I.I.I.I.I.I.I.I.I.I.I.I.I.I.I.I.I.I.I.I.I.P.Z.8 * O O O O O O O O O O O O O O ",
"X % j Z s p p p p p p p p p p p X O j G ( a.Z.P.I.I.I.I.I.I.I.I.I.I.I.I.I.I.I.I.I.I.I.I.P.Z.a.( @ O j Z s p p p p p p p p p p p ",
"X - Z L B M M M M M M M M M M M X - G L M k Q X.h.H.L.I.I.I.I.I.I.I.I.I.I.I.I.I.I.L.A.h.X.Q k m X - G L B M M M M M M M M M M m ",
"X - G P B M M M M M M M M M M M X - G L B M M m k ~ | i.h.V.A.H.K.L.L.L.K.A.V.h.i.| ~ k m M M M X - G L B M M m M M M M M M M M ",
"X - G P V B V V V V B B M M M M X - G L V V B V B V B M k c Q ~ 4 7 o.+.) ! v N M B B B M M M M X - G L V B V V V V B B M M M M ",
"X - G P P L P P P L P F B M M M X - G U L L L L L P I F B M M M $ - G L L P I L P L L F B M M M o - G P P L L L L L L F B M M M ",
"X - G U U U P U U P P L B M M M X - G U U U U U P U U P B M M M $ - G U P U U P U U P L B M M M X - G U U U U U U U P L B M M M "
};
