/* XPM */
static char *output_onlinepngtools__3_1708260264[] = {
/* columns rows colors chars-per-pixel */
"64 64 189 2 ",
"   c #000807",
".  c #040907",
"X  c #010909",
"o  c #010D0B",
"O  c #010D0C",
"+  c #1E0603",
"@  c #031413",
"#  c #011F1B",
"$  c #220603",
"%  c #2E0904",
"&  c #2F0905",
"*  c #2F0A05",
"=  c #310904",
"-  c #3B0B07",
";  c #01211C",
":  c #02251F",
">  c #05251C",
",  c #012818",
"<  c #192913",
"1  c #02301C",
"2  c #02301D",
"3  c #01351F",
"4  c #372900",
"5  c #382A00",
"6  c #3C2709",
"7  c #363600",
"8  c #3E3405",
"9  c #032422",
"0  c #032522",
"q  c #052623",
"w  c #032724",
"e  c #012F23",
"r  c #022E24",
"t  c #0F2A20",
"y  c #0A2F24",
"u  c #042B2B",
"i  c #022F28",
"p  c #072A2E",
"a  c #032E2C",
"s  c #042F2C",
"d  c #082E2D",
"f  c #122F22",
"g  c #023021",
"h  c #013520",
"j  c #013226",
"k  c #063024",
"l  c #003128",
"z  c #003328",
"x  c #00312C",
"c  c #07322E",
"v  c #003132",
"b  c #410E07",
"n  c #450F05",
"m  c #4A0F07",
"M  c #4D0F0B",
"N  c #4E1D04",
"B  c #531207",
"V  c #541108",
"C  c #56120B",
"Z  c #62150A",
"A  c #6B1C08",
"S  c #78170B",
"D  c #751809",
"F  c #751D0A",
"G  c #761B0D",
"H  c #7F1A0A",
"J  c #7F190C",
"K  c #452403",
"L  c #462602",
"P  c #462603",
"I  c #4F2503",
"U  c #4C2305",
"Y  c #4E2F03",
"T  c #4D2E04",
"R  c #532302",
"E  c #502705",
"W  c #592503",
"Q  c #522800",
"!  c #592F03",
"~  c #5B2806",
"^  c #473003",
"/  c #4C3800",
"(  c #4D3900",
")  c #533203",
"_  c #5A3203",
"`  c #593502",
"'  c #5D3604",
"]  c #583C02",
"[  c #6C2007",
"{  c #6B2308",
"}  c #6F2309",
"|  c #673205",
" . c #693505",
".. c #604700",
"X. c #774F00",
"o. c #605300",
"O. c #705400",
"+. c #765800",
"@. c #716300",
"#. c #82170F",
"$. c #811A0C",
"%. c #841A0C",
"&. c #871B0C",
"*. c #861A0D",
"=. c #8C1C0D",
"-. c #8E1E0C",
";. c #911D0D",
":. c #901D0E",
">. c #9A1F0E",
",. c #8A1516",
"<. c #8D1910",
"1. c #931A11",
"2. c #AB1D0C",
"3. c #A21D13",
"4. c #A41E13",
"5. c #AB1F10",
"6. c #AC1F14",
"7. c #A11919",
"8. c #B31C1C",
"9. c #9F200F",
"0. c #942710",
"q. c #A7200D",
"w. c #A8230D",
"e. c #A9230E",
"r. c #A52312",
"t. c #A62213",
"y. c #AB2210",
"u. c #AE2416",
"i. c #BB2616",
"p. c #B72815",
"a. c #B02319",
"s. c #C32817",
"d. c #C7241F",
"f. c #DC2D1A",
"g. c #DB311F",
"h. c #EB2E1A",
"j. c #EB2A1F",
"k. c #F42D14",
"l. c #F32E1A",
"z. c #EC331A",
"x. c #ED331A",
"c. c #ED301C",
"v. c #F03017",
"b. c #FB3318",
"n. c #EF2B25",
"m. c #F02C26",
"M. c #954C02",
"N. c #855600",
"B. c #AC5301",
"V. c #846200",
"C. c #8E6301",
"Z. c #966401",
"A. c #986D01",
"S. c #9E6E02",
"D. c #9E7101",
"F. c #A27102",
"G. c #AC7D01",
"H. c #D26700",
"J. c #CD7900",
"K. c #8F8401",
"L. c #999101",
"P. c #B78800",
"I. c #B5B500",
"U. c #DB8000",
"Y. c #C39100",
"T. c #C49600",
"R. c #CA9600",
"E. c #CB9700",
"W. c #CD9900",
"Q. c #CA9C00",
"!. c #FF9200",
"~. c #DAA200",
"^. c #DBA300",
"/. c #DEA200",
"(. c #DDA500",
"). c #C5B800",
"_. c #E9AE00",
"`. c #F2AB00",
"'. c #F6AE00",
"]. c #EFB200",
"[. c #EABC00",
"{. c #F2B400",
"}. c #F5B700",
"|. c #FFB200",
" X c #FFBE00",
".X c #D5C700",
"XX c #EFC100",
"oX c #FFD100",
"OX c #FFF100",
/* pixels */
"i i i i i i i i i i i i i i i i i i i i i i l i i i i i x i i i i i i i i i i i i i i i i i k l l l s i l l i l s i i i i l l i ",
"2 2 2 2 2 2 2 2 2 2 y i r i 2 , 2 2 2 2 2 2 2 j i i r r s , 2 2 2 2 2 2 2 2 2 l i i r i s , k , 2 2 3 , 2 2 2 l y j r i u , 2 2 ",
"y.y.y.y.y.y.y.y.y.y.g i v.c.y.y.y.y.y.y.y.y.y.e.s i m.h.5.y.y.y.y.y.y.y.y.y.y.e.s i m.c.y.e.y.y.y.y.y.y.y.y.w.w.s i m.h.5.y.y.y.",
"y.y.y.y.y.y.y.y.y.y.g i v.c.y.y.y.y.y.y.y.y.y.e.s i m.c.y.y.y.y.y.y.y.y.y.y.y.e.s i m.c.6.e.y.y.y.y.y.y.y.y.y.q.c i m.h.5.y.y.y.",
"y.y.y.y.y.y.y.y.y.y.g i v.c.6.y.y.y.y.y.y.y.e.e.s i m.h.y.y.y.y.y.y.y.y.y.y.y.e.s i m.h.y.e.y.y.y.y.y.y.y.y.y.e.s i m.c.5.y.y.y.",
"q.q.q.u.y.y.y.y.y.y.g i v.c.t.e.q.q.q.u.y.y.y.q.s i m.c.a.2.q.q.q.q.q.u.y.y.e.e.s i m.h.a.2.4.e.2.e.e.u.y.y.y.e.a i m.c.a.e.e.2.",
"c.c.c.x.y.y.y.y.y.y.r k v.c.h.c.c.c.c.x.y.y.y.e.s i m.h.c.c.c.c.c.c.c.x.y.y.y.e.s i m.c.h.c.h.c.c.c.c.x.y.y.y.q.a l m.c.c.c.h.h.",
"l.l.l.k.e.e.e.e.e.e.d l b.l.l.l.l.l.l.k.e.e.e.8.h i g.l.l.l.l.l.l.l.l.k.e.e.e.8.h i g.l.l.l.l.l.l.l.l.k.e.e.e.8.h i g.l.l.l.l.l.",
"l l l l a a a a s a t i v l l l l l l x a a a h p i f l l l l l l l l x s s a g p i f l l l l l l l l x s s x , p i f l l l l l ",
"i i i j i i i i i i i i i i i i i i i i i i i i i i i i i i i i l i i i i r i i l i i i i i i i i i l r i l l i i i i i i i i i ",
"i l n.n.6.6.u.6.6.6.6.6.6.6.6.6.i j n.n.6.6.6.6.6.6.6.6.6.6.6.6.l j m.j.6.6.6.u.6.6.6.6.6.6.6.6.i l m.m.6.6.u.u.6.6.6.6.6.6.6.6.",
"i c h.c.y.y.y.y.y.y.y.y.y.y.y.y.r c x.x.y.y.y.y.y.y.y.y.y.y.y.y.s c h.x.e.6.e.y.y.y.y.y.y.y.y.y.i c h.c.y.y.y.y.y.y.y.y.y.y.y.y.",
"i c h.x.y.y.y.y.y.y.y.y.y.y.y.y.i c c.x.y.y.y.y.y.y.y.y.y.y.y.y.i c c.x.y.y.y.y.y.y.y.y.y.y.y.y.i c h.x.y.y.y.y.y.y.y.y.y.y.y.y.",
"i c c.x.y.y.y.y.y.y.y.y.y.y.y.y.i c c.x.y.y.y.y.y.y.y.y.y.y.y.y.i c c.x.y.y.y.y.y.y.y.y.y.y.y.y.i c c.x.y.y.y.y.y.y.y.y.y.y.y.y.",
"l c c.h.z.z.z.z.x.x.x.x.2.y.y.y.i c c.h.z.z.x.x.x.x.c.x.2.y.y.y.i c h.h.x.x.x.x.x.x.x.x.2.y.y.y.l c c.h.x.z.x.x.x.x.x.x.2.y.y.y.",
"s c c.c.c.c.c.c.c.c.c.h.5.y.y.y.l c c.c.c.c.c.c.c.c.c.c.y.y.y.y.i c c.c.c.c.c.c.h.c.c.c.y.y.y.y.s c c.c.c.c.c.c.c.c.h.h.6.y.y.y.",
"r i i i i i i i i i i s r l s r l s l s i r l i i i i i i i l l i i i i s l l l i i i i l k l l s k l i l l l l l l i i i l l l ",
"2 2 2 2 2 2 2 l i i r r s , 2 2 3 , 2 2 2 1 2 l i i i i i , g , 2 2 2 2 2 h , z i i i l p 2 k , , h h , 2 2 , l y l i i p , 2 2 ",
"y.y.y.y.y.y.y.e.s i m.c.y.y.y.y.y.y.y.y.y.y.y.e.s i m.h.y.y.&.*.=.;.4.e.e.y.y.y.s i m.h.2.y.y.y.y.y.y.y.y.y.y.e.d i m.h.5.y.y.y.",
"y.y.y.y.y.y.y.e.s i m.c.6.y.y.y.y.y.y.y.y.y.e.e.s i m.h.5.&.M = = V ;.y.y.y.w.q.s r m.h.y.y.y.e.y.y.y.y.y.y.y.e.c l m.h.5.y.y.y.",
"y.y.y.y.y.y.y.e.s i m.c.2.e.y.y.y.e.y.e.y.y.y.e.i i n.f.<.} ^ 7 7 T F ;.2.e.e.w.s i m.h.5.y.y.e.y.y.e.y.y.y.y.e.s i m.c.5.y.y.y.",
"q.q.q.u.y.y.e.e.s i n.h.a.q.4.y.2.e.e.a.y.y.e.e.c e n.i.M ] L.I.I.K.T C ;.e.y.w.s s m.h.a.y.4.q.e.y.e.a.y.y.y.2.a i m.c.a.e.e.2.",
"c.c.c.x.y.y.y.e.s i m.c.c.c.h.c.h.c.h.c.y.e.y.e.x p d.0.E @..XOXOX).o.~ F ;.4.e.s s m.h.c.c.c.h.h.h.c.x.y.y.y.e.s i m.c.c.c.h.h.",
"l.l.l.k.e.e.e.8.h i g.l.l.l.l.l.l.l.l.k.e.e.e.8.h w Z | S.Q.XXoXoX[.T.Z.E B ;.8.h j g.l.l.l.l.l.l.l.l.k.e.e.e.8.h i g.l.l.l.l.l.",
"l l l x s s u h p i f l l l l l l j l x s a a , d : . / R. X X X X X XP.4 O 0 3 p i f l l l l l l l l x a a a h p i f l l l l l ",
"l i i i i i r i i i i i i i i i l s i i i i i i x :   / T. X X X X X XP.4 O : i i i i i i i i i i i l r i i i i i i i i i i i i ",
"l j m.j.6.6.6.u.6.6.6.6.6.6.6.6.r j m.m.y.6.u.3.1.A K O.~. X X X X X XT...U G 1.4.6.6.u.6.6.6.6.i j n.n.6.6.u.5.6.6.6.6.6.6.6.6.",
"s c h.x.e.6.e.y.y.y.y.y.y.y.y.y.i c h.x.y.y.y.&.m ! A.R.]. X X X X X X_.Y.C.I V =.y.y.y.y.y.y.y.i c h.x.y.y.y.y.y.y.y.y.y.y.y.y.",
"i c c.x.y.y.y.y.y.y.y.y.y.y.y.y.i c c.x.y.y.y.S $ / R. X X X X X X X X X XP.4 & %.y.y.y.y.y.y.y.i c h.x.y.y.y.y.y.y.y.y.y.y.y.y.",
"i c c.x.y.y.y.y.y.y.y.y.y.y.y.y.i c c.x.y.y.y.D $ / R. X X X X X X X X X XP.5 & *.y.y.y.y.y.y.y.i c c.x.y.y.y.y.y.y.y.y.y.y.y.y.",
"i c h.h.x.x.x.x.x.x.x.x.2.y.y.y.i c h.h.c.c.x.t.= / R. X X X X X X X X X XP.5 b p.x.c.x.2.y.y.y.l c c.h.x.x.x.c.x.x.x.x.2.y.y.y.",
"i c c.c.c.c.c.c.h.c.c.c.y.y.y.y.i c c.c.x.c.c.t.= / W. X X X X X X X X X XP.5 b p.c.c.l.5.y.y.y.i c c.c.c.c.c.c.c.h.x.h.6.y.y.y.",
"i l l l i l l l i i i i l k s l i i s l c z r # X / R. X X X X X X X X X XP.5 o 0 i i i i i j l c l s i l i i l s r l i i j l l ",
", 2 2 2 , 2 2 l i i r i p 3 , 2 2 2 2 3 , g , : X / R. X X X X X X X X X XP.4 o > i e i s , , e , h h , 2 2 2 l y l r s p , 1 i ",
"u.y.y.y.u.y.y.w.s r n.c.5.y.y.y.e.y.y.y.e.y.e.S X / W. X X X X X X X X X XP.5 & 9 i m.c.y.y.y.y.y.y.w.y.y.y.y.w.s i m.h.6.y.e.e.",
"y.y.y.y.y.y.w.q.s l n.c.5.y.y.y.y.y.y.y.y.y.e.D X / R. X X X X X X X X X XP.4 & q i m.c.5.y.y.y.y.y.y.y.y.y.y.w.c r n.h.2.y.y.y.",
"y.w.y.w.y.y.y.e.s i m.h.5.y.y.e.y.y.y.y.e.y.y.S X ( W.oX X X X X X X X X XP.4 & q i m.h.e.e.y.y.y.y.y.y.y.y.y.w.s i n.c.y.y.y.y.",
"e.y.2.a.y.y.y.e.s i m.c.a.e.4.2.2.e.4.u.e.6.y.S X / R.|. X X X X X X X X XP.4 & q l n.h.a.2.4.e.y.2.w.u.y.y.y.e.s l n.c.a.2.e.2.",
"l.h.x.x.y.y.y.q.c r m.h.c.c.c.h.v.h.x.x.e.e.e.%.@ 8 G./.}. X X X X X X{.^.D.L n q l m.c.h.h.h.c.z.h.c.c.y.y.y.w.s i m.c.c.c.h.c.",
"l.l.l.k.e.e.e.8.3 s g.l.l.l.l.l.l.l.l.k.e.e.e.7., < ' V.~. X X X X X XW.+._ [ ,.2 i g.l.l.l.l.l.l.l.l.k.w.y.w.8.h i g.l.l.l.l.l.",
"l l l x s s s g p i f l l l l l l l l x a a a h p # X / R. X X X X X XP.4 O 9 h p i f l i l l l l l l x a a a h p i f l l l l l ",
"l l r r l i i l i i i i i i i i i i j r i i i i r :   / R. X|.oX X X XP.5 O 0 r i i i i i i i i i i l r i i i i i i i i i i i i ",
"i l m.m.6.6.6.6.6.6.5.u.6.6.6.6.i l m.n.6.6.6.6.y.#.- ) G./.'.|.|.`.^.F.L m <.u.6.6.6.6.6.6.6.y.i j n.n.6.6.u.5.6.6.6.6.6.6.6.6.",
"i c c.x.y.y.y.y.y.y.y.y.y.y.y.y.i c c.x.y.y.y.y.t.9.J { ` N.J.!.!.J.O. .A *.>.y.y.y.y.y.y.y.u.y.i c h.x.y.y.y.y.y.y.y.y.y.y.y.y.",
"l c c.x.y.y.y.y.y.y.y.y.y.y.y.y.i c x.z.y.y.y.y.y.y.y.H - R B.H.H.M.N Z =.2.y.y.y.y.y.y.y.y.y.y.i c h.x.y.y.y.y.y.y.y.y.y.y.y.y.",
"i c c.x.y.y.y.y.y.y.y.y.y.y.y.y.i c h.x.y.y.y.y.y.y.y.9.$.A W E E 6 0.p.>.y.y.y.y.y.y.y.y.y.y.y.i c c.x.y.y.y.y.y.y.y.y.y.y.y.y.",
"i c c.c.x.c.x.x.z.z.c.x.2.y.y.y.i c c.c.c.x.x.c.x.x.c.x.2.$.- + . @ s.h.x.x.x.x.h.x.x.x.2.y.y.y.l c c.h.z.z.z.x.c.x.x.x.2.y.y.y.",
"i c c.c.c.c.c.h.c.c.c.c.5.y.y.y.i c c.c.c.c.h.x.c.c.c.c.2.>.%.S # 9 f.h.h.c.c.c.c.c.c.c.y.y.y.y.i c c.c.c.c.c.c.c.c.c.c.5.y.y.y.",
"i l s r r l i z c r i i i l l l k l l l s i l c r i i i l l s l i i s l l l i i i i i i l k l l i l l l k l l l c r i i i j j i ",
", h 2 2 2 2 , z y l r i u , 2 k k , 2 2 h , 2 l k i r r s , , h 2 2 2 2 2 g , j i i r i s 2 k , , k 2 2 k , 2 l y l i l p , 1 i ",
"y.y.y.y.a.2.e.e.a i n.c.6.y.e.y.y.y.y.y.y.y.y.e.s i n.h.5.y.y.y.e.y.y.y.y.y.y.e.d r m.h.y.y.y.y.y.y.y.y.y.y.e.e.s i m.h.6.y.e.e.",
"y.y.y.y.e.e.6.e.c i n.h.2.y.y.y.y.y.y.e.y.y.y.e.s l m.c.y.y.y.y.y.y.y.y.y.y.e.e.c r m.h.6.y.y.q.y.y.y.y.y.e.e.e.s i n.h.2.y.y.y.",
"y.y.e.e.y.y.y.e.s i n.c.y.y.y.y.e.e.e.e.y.y.e.e.s i m.h.y.y.e.e.y.y.y.y.y.y.y.e.s i n.h.y.y.y.y.y.y.y.y.y.y.e.e.s i n.c.y.y.y.y.",
"4.e.e.a.y.y.e.e.s l n.c.a.2.q.q.4.e.2.a.y.y.y.q.s i m.h.a.2.4.y.2.e.2.u.y.y.y.e.s i m.c.a.y.4.5.2.e.e.u.y.y.e.4.s l n.c.a.2.e.2.",
"x.h.h.x.y.y.y.e.s i n.c.c.c.c.c.c.c.c.x.y.y.y.e.s i m.h.c.c.c.c.c.c.c.x.y.y.e.e.s s n.h.c.c.h.h.c.c.c.x.y.y.y.e.s i m.c.c.c.h.c.",
"l.l.l.k.e.e.e.8.h i g.l.l.l.l.l.l.l.l.k.e.e.e.8.h i g.l.l.l.l.l.l.l.l.k.e.e.e.8.h l g.l.l.l.l.l.l.l.l.k.e.e.e.8.h i g.l.l.l.l.l.",
"l l l l a a i g p i f l l l l l l l l x a a a h p i f l l l l l l l l x a s a h p i f i l l l l l l l x a a a h p i f l l l l l ",
"i i i j i i i i i i i i i i i i i i i i i i i i i i i i i i i i i l r r l i i i i i i i i i i i i i l r i i i i i i i i i i i i ",
"i j n.n.6.6.u.6.6.6.6.6.6.6.6.6.i j n.n.6.6.6.6.6.6.6.6.6.6.6.6.i j m.n.6.6.6.6.6.6.y.u.6.6.6.6.i j n.n.6.6.u.5.6.6.6.6.6.6.6.6.",
"i c c.c.y.y.y.y.y.y.y.y.y.y.y.y.i c x.x.y.y.y.y.y.y.y.y.y.y.y.y.i c c.x.y.y.y.y.y.y.y.y.y.y.y.y.i c h.x.y.y.y.y.y.y.y.y.y.y.y.y.",
"i c c.x.y.y.y.y.y.y.y.y.y.y.y.y.i c h.x.y.y.y.y.y.y.y.y.y.y.y.y.l c c.x.y.y.y.y.y.y.y.y.y.y.y.y.i c h.x.y.y.y.y.y.y.y.y.y.y.y.y.",
"i c c.x.y.y.y.y.y.y.y.y.y.y.y.y.i c c.x.y.y.y.y.y.y.y.y.y.y.y.y.i c c.x.y.y.y.y.y.y.y.y.y.y.y.y.i c c.x.y.y.y.y.y.y.y.y.y.y.y.y.",
"i c c.h.x.x.x.x.x.x.x.x.2.y.y.y.i c c.h.z.z.z.z.x.x.x.c.2.y.y.y.i c c.c.x.c.x.x.c.x.c.x.2.y.y.y.l c c.h.z.z.z.x.c.x.x.x.2.y.y.y.",
"i c c.c.c.c.c.c.c.h.h.x.6.y.y.y.l c c.c.c.c.c.c.c.c.h.x.5.y.y.y.i c c.c.c.c.c.h.c.c.x.l.5.y.y.y.i c c.c.c.c.c.c.c.c.c.c.5.y.y.y."
};
