/* XPM */
static char *output_onlinepngtools__4_1708260264[] = {
/* columns rows colors chars-per-pixel */
"64 64 172 2 ",
"   c #000807",
".  c #000B07",
"X  c #010B0A",
"o  c #000C0B",
"O  c #1E0603",
"+  c #021311",
"@  c #011F1B",
"#  c #290804",
"$  c #2B0805",
"%  c #310904",
"&  c #380B06",
"*  c #3C0B07",
"=  c #380C06",
"-  c #3A0D06",
";  c #3B0C07",
":  c #3B0B0A",
">  c #012316",
",  c #01231E",
"<  c #00251E",
"1  c #02301D",
"2  c #01351F",
"3  c #3F2C00",
"4  c #3F2F00",
"5  c #363600",
"6  c #3F3400",
"7  c #032220",
"8  c #022520",
"9  c #052522",
"0  c #012F23",
"q  c #022B25",
"w  c #022E24",
"e  c #0F2A20",
"r  c #0A2F24",
"t  c #042B2B",
"y  c #022F28",
"u  c #072A2E",
"i  c #032E2C",
"p  c #042F2C",
"a  c #082E2D",
"s  c #122F22",
"d  c #023021",
"f  c #013520",
"g  c #013226",
"h  c #063024",
"j  c #003128",
"k  c #003328",
"l  c #00312C",
"z  c #07322E",
"x  c #003132",
"c  c #420D06",
"v  c #4E1007",
"b  c #4B1E02",
"n  c #501007",
"m  c #511008",
"M  c #52100C",
"N  c #591309",
"B  c #5E110F",
"V  c #6B1B08",
"C  c #73160B",
"Z  c #7F170F",
"A  c #731E0A",
"S  c #7E190B",
"D  c #7C1A0A",
"F  c #7E190C",
"G  c #422600",
"H  c #402707",
"J  c #492303",
"K  c #422E00",
"L  c #4A2F03",
"P  c #552104",
"I  c #542705",
"U  c #5B2403",
"Y  c #522800",
"T  c #532903",
"R  c #562D04",
"E  c #403000",
"W  c #433200",
"Q  c #423600",
"!  c #4A3003",
"~  c #423F00",
"^  c #523603",
"/  c #5A3304",
"(  c #6C2108",
")  c #732109",
"_  c #722209",
"`  c #664C00",
"'  c #684E00",
"]  c #7B5C00",
"[  c #7D5D00",
"{  c #81170F",
"}  c #80190C",
"|  c #811A0C",
" . c #861B0C",
".. c #861A0D",
"X. c #8B1C0D",
"o. c #8D1C0D",
"O. c #901A0E",
"+. c #911D0E",
"@. c #9C1F0F",
"#. c #9D1F0F",
"$. c #AB1D0C",
"%. c #AB1F10",
"&. c #AC1F10",
"*. c #AC1F14",
"=. c #B31C1C",
"-. c #8C220E",
";. c #8E280E",
":. c #A2200F",
">. c #A7200D",
",. c #A8230D",
"<. c #A9230E",
"1. c #A72412",
"2. c #AB2210",
"3. c #AE2314",
"4. c #AE2416",
"5. c #B62313",
"6. c #B32613",
"7. c #B12414",
"8. c #B22415",
"9. c #BA2616",
"0. c #B02319",
"q. c #B7211C",
"w. c #C32817",
"e. c #D92C1A",
"r. c #DB311F",
"t. c #E12E1B",
"y. c #EB2E1A",
"u. c #EB2A1F",
"i. c #F42D14",
"p. c #F32E1A",
"a. c #EC331A",
"s. c #ED331A",
"d. c #ED301C",
"f. c #F03017",
"g. c #FB3318",
"h. c #EF2B25",
"j. c #F02C26",
"k. c #9E5102",
"l. c #A44E01",
"z. c #936601",
"x. c #986902",
"c. c #BE6D00",
"v. c #A37501",
"b. c #A57701",
"n. c #C16E00",
"m. c #D26700",
"M. c #938901",
"N. c #958C01",
"B. c #BE8500",
"V. c #BF8E00",
"C. c #BE9C00",
"Z. c #B5B500",
"A. c #BEB400",
"S. c #C18700",
"D. c #C19000",
"F. c #C29000",
"G. c #C59300",
"H. c #CB9700",
"J. c #C19E00",
"K. c #D29D00",
"L. c #D59E00",
"P. c #FF9200",
"I. c #DBA300",
"U. c #C1B700",
"Y. c #EBAF00",
"T. c #ECB000",
"R. c #F3B500",
"E. c #F4B600",
"W. c #FFB200",
"Q. c #FFBE00",
"!. c #FFD100",
"~. c #FFF100",
/* pixels */
"y y y y y y y y y y y y y y y y y y y y y y j j j y y y w y y y y y y y y y y y y y y y y y y y y y y y j j p j r y y y y w g p ",
"1 1 1 1 1 1 1 1 1 1 r y w y 1 1 1 1 1 1 1 1 1 j r y w y u 1 1 1 1 1 1 1 1 1 1 j h y w y u 1 1 1 1 1 1 1 1 1 1 g y y y j u 1 1 1 ",
"2.2.2.2.2.2.2.2.2.2.d y f.d.%.2.2.2.2.2.2.2.2.<.p y j.y.&.2.2.2.2.2.2.2.2.2.2.<.p y h.d.2.2.2.2.2.2.2.2.2.2.<.>.p w j.y.&.2.<.<.",
"2.2.2.2.2.2.2.2.2.2.d y f.y.&.2.2.2.2.2.2.2.2.>.p j j.y.2.2.2.2.2.2.2.2.2.2.1.>.p y h.d.%.2.2.2.2.2.2.2.2.2.<.<.j p j.y.&.2.2.&.",
"2.2.2.2.2.2.2.2.2.2.d y f.d.&.2.2.2.2.2.2.2.<.<.p y j.y.2.2.2.2.2.2.2.2.2.2.2.<.p y h.d.2.>.2.2.2.2.2.2.2.2.2.1.i j h.d.&.2.2.2.",
">.>.>.4.2.2.2.2.2.2.d y f.d.1.<.$.<.>.4.2.2.2.>.p y j.y.0.$.$.1.>.$.<.0.2.2.<.<.p y h.d.4.%.%.<.%.$.>.4.2.2.2.>.z j h.d.0.$.>.$.",
"d.d.d.s.2.2.2.2.2.2.w h f.d.y.y.d.d.d.s.2.2.2.<.p y j.y.d.d.d.d.d.d.y.s.2.<.2.<.i y j.d.y.d.y.d.y.d.d.a.2.,.2.,.i y h.d.d.d.d.d.",
"p.p.p.i.<.<.<.<.<.<.a l g.p.p.p.p.p.p.i.<.<.<.=.f y r.p.p.p.p.p.p.p.p.i.<.<.<.=.f y r.p.p.p.p.p.p.p.p.i.,.1.,.=.f y r.p.p.p.p.p.",
"j j j l i i i i p p e y x j j j j j j l i i i f u y s j j j j j j j j l p p i 0 u y s j y j j j j j j l i i i d u y s j j j j j ",
"y j j w y y y y y y y y y y y y y y y y y y y y y y y y y y y y j j y y y y y y j y y y y y y y y y j w y y j y y y y y y y y y ",
"y g h.h.*.*.3.*.*.*.*.*.*.*.*.*.y g h.h.*.*.*.*.*.*.*.*.*.*.*.*.g g j.j.*.*.*.3.*.*.*.*.*.*.*.3.y g h.h.*.*.4.*.*.*.*.*.*.*.*.*.",
"y z y.a.2.2.2.2.2.2.2.2.2.2.2.2.y z s.s.2.2.2.2.2.2.2.2.2.2.2.2.0 z y.s.2.2.2.2.2.2.2.2.2.2.2.2.y z d.s.2.2.2.2.2.2.2.2.2.2.2.2.",
"y z y.s.2.2.2.2.2.2.2.2.2.2.2.2.y z y.s.2.2.2.2.2.2.2.2.2.2.2.2.y z d.s.2.2.2.2.2.2.2.2.2.2.2.2.y z y.s.2.2.2.2.2.2.2.2.2.2.2.2.",
"y z y.s.2.2.2.2.2.2.2.2.2.2.2.2.y z d.s.2.2.2.2.2.2.2.2.2.2.2.2.y z d.s.2.2.2.2.2.2.2.2.2.2.2.2.y z d.s.2.2.2.2.2.2.2.2.2.2.2.2.",
"l z d.y.a.a.a.a.s.s.d.s.$.2.2.2.y z d.y.s.s.s.s.s.s.s.s.$.2.2.2.y z y.y.s.s.s.s.y.s.s.s.$.2.2.2.l z d.y.s.a.s.s.s.s.s.s.$.2.2.2.",
"j z d.d.d.d.d.d.d.d.d.y.%.2.2.2.j z d.d.d.d.d.d.d.d.y.y.&.2.2.2.y z y.d.d.d.d.d.d.d.d.d.2.2.2.2.r z d.d.d.d.d.d.d.d.y.y.%.2.2.2.",
"p y p y y y y y y y y y y y y y y y y y y y y y y y y y y y j y y y y y y y y g y y y y y y y y y y y y j p w j y y w y y w j y ",
"1 1 1 1 1 1 1 g h y 0 y t 1 1 1 1 1 1 1 1 1 1 j r w w y u 1 1 1 1 1 1 1 1 1 1 k r y w y u 1 1 1 1 1 1 1 1 1 1 j y y 0 p u 1 1 1 ",
"<.2.2.2.2.2.<.<.p y h.d.%.2.2.2.2.2.2.2.2.2.2.<.p p j.y.2.%.X.....o.1.>.2.2.2.<.i j h.y.<.2.2.2.2.2.2.2.2.2.<.<.p y j.f.&.2.2.2.",
"2.2.2.2.2.2.<.<.p y h.d.%.2.2.2.2.2.2.2.2.2.2.>.p j j.y.%.X.v $ % v o.2.2.2.<.,.i y h.y.%.2.2.2.2.2.2.2.2.2.2.<.p y j.y.&.2.2.2.",
"2.>.2.2.2.2.2.<.p y h.d.%.2.2.2.<.<.2.2.2.2.2.<.p y h.t.O.) L 5 5 L ) o.1.%.<.>.i y j.y.%.2.2.2.2.2.1.<.2.2.2.<.i y h.d.%.2.2.2.",
">.%.%.4.2.2.<.<.p y h.d.0.>.>.>.%.%.<.0.2.2.<.<.p y h.w.M ! M.Z.Z.N.^ M o.2.<.%.l y j.y.0.2.$.1.1.$.>.4.2.2.<.<.l j h.d.0.$.>.>.",
"d.d.p.p.2.<.2.<.p y h.d.d.d.d.d.y.a.y.s.2.2.<.<.p y h.8.- ~ A.~.~.U.~ - F 2.2.<.p p j.y.d.d.d.y.y.y.d.d.2.2.2.<.p y h.d.d.d.d.d.",
"p.f.p.i.<.<.<.=.f y r.p.p.p.p.p.p.p.p.i.<.<.<.=.f y r.5.* 6 C.!.!.J.Q = } <.<.=.f j r.p.p.p.p.p.p.p.p.i.<.<.<.=.f y r.p.p.p.p.p.",
"j j j l i i i f u y s j j j j j j j j l i i i f u y s < X 4 V.Q.Q.D.E X 7 p p f u y s y j j j j j j j j i i i d u y s j j j j j ",
"l j y y y y y y y y y y y y y y j y y y y y y y y y y , X 6 V.Q.Q.D.E X , y y y y y y y y y y y y y y g y y j y y y y y y y y y ",
"l j j.u.*.*.*.*.*.*.*.*.*.*.*.*.w g j.h.*.*.*.*.*.*.*.{ # K V.Q.Q.D.6 & { *.*.*.*.*.*.3.*.*.*.*.y j h.h.*.*.3.*.*.*.*.*.*.*.*.*.",
"h z d.f.2.2.2.2.2.2.2.2.2.2.2.2.y z y.a.2.2.2.2.2.2.2.} # 4 V.Q.Q.D.4 ; F 2.2.2.2.2.2.2.2.2.2.2.j z d.d.2.2.2.2.2.2.2.2.2.2.2.2.",
"y z d.s.2.2.2.2.2.2.2.2.2.2.2.2.y z d.s.2.2.2.2.2.:.+.A J ` H.Q.Q.K.` I A +.&.>.2.2.2.2.2.2.2.2.y z y.s.2.2.2.2.2.2.2.2.2.2.2.2.",
"y z d.s.2.2.2.2.2.2.2.2.2.2.2.2.y z d.s.2.2.2.2.2.o.m T z.G.T.Q.Q.Y.G.x.T n X.2.2.2.2.2.2.2.2.2.y z d.s.2.2.2.2.2.2.2.2.2.2.2.2.",
"y z d.y.s.s.s.s.s.s.a.a.$.2.2.2.y z d.y.s.s.s.a.s.4.- E V.Q.Q.Q.Q.Q.W.D.6 = 4.s.s.a.s.s.$.2.2.2.l z d.y.a.a.s.s.s.s.s.s.$.2.2.2.",
"y z d.d.d.d.d.d.d.d.d.d.%.2.2.2.y z d.d.d.d.d.d.d.7.- E V.Q.Q.Q.Q.Q.!.D.K & 3.s.d.d.d.y.%.2.2.2.r z d.d.d.d.d.d.d.d.d.y.&.2.2.2.",
"y y y y y y j j y y y p y y y y y y y y y y j j w , X K V.Q.Q.Q.Q.Q.Q.D.K X < y y y y y y y y y y y y y j j j j y y y y y y y y ",
"1 1 1 1 1 1 1 j r y w j t 1 1 1 1 1 1 1 1 1 1 j y , X 4 V.Q.Q.Q.Q.Q.Q.D.E . > g r w w y u 1 1 1 1 1 1 1 1 1 1 j h y w y u 1 1 1 ",
"2.2.2.2.2.2.2.<.p j h.y.%.2.2.2.2.2.2.2.2.2.2.<.j 7 : 6 V.Q.Q.Q.Q.Q.Q.D.K # } <.p p j.d.<.2.2.2.2.2.2.2.2.2.2.,.p y j.d.&.2.2.2.",
"2.2.2.2.2.2.<.<.i y h.y.%.2.2.<.2.2.2.2.2.2.<.>.p , : K V.Q.Q.Q.Q.Q.Q.D.E # S <.p j j.d.&.2.2.2.2.2.2.2.2.2.2.,.p y j.y.%.2.2.2.",
"2.<.<.2.2.2.2.<.i y h.y.%.2.2.1.2.2.2.2.2.2.2.<.p 8 B R v.I.R.Q.Q.R.I.b.R * X.,.p y h.y.&.2.2.2.2.2.2.2.2.2.2.,.i y h.d.%.2.2.2.",
"$.%.%.3.2.2.2.<.z w j.y.4.2.%.%.<.$.<.4.2.2.2.<.p q q.;./ ] K.Q.Q.I.[ / ( } @.,.p y h.y.0.<.$.1.1.$.<.0.2.2.2.,.l y h.d.0.>.>.>.",
"d.d.y.s.2.2.2.<.p y j.y.d.d.d.y.d.d.y.d.2.2.2.<.p y j.8.: 4 V.Q.Q.D.E * S <.<.<.p j j.d.y.y.y.y.y.y.y.s.2.2.2.,.p y h.d.d.d.d.d.",
"p.p.p.i.<.<.2.=.f j r.p.p.p.p.p.p.p.p.i.<.<.<.=.f w r.5.& 4 V.Q.Q.D.6 - S <.<.=.2 p r.p.p.p.p.p.p.p.p.i.%.<.>.=.f y r.p.p.p.p.p.",
"j j j l p p i f u y s y j j j j j j j l p p p d u y s , o 4 V.Q.Q.D.K X 7 i i f u y s j y j j j j j j l i i i d u y s j j j j j ",
"j j y w y y y y y y y y y y y y p j j w y y y j y y y , o 4 V.Q.Q.D.E o 7 y j y y y y y y y y y y y y j y y j y y y y y y y y y ",
"y g j.j.*.*.*.*.*.*.*.3.*.*.*.*.w g j.h.*.*.*.*.*.*.3.{ $ 3 B.W.W.S.K - Z %.*.7.*.*.*.*.*.*.*.3.y g h.u.*.*.3.*.*.*.*.*.*.*.*.*.",
"y z y.s.2.2.2.2.2.2.2.2.2.2.2.2.j z y.s.2.2.2.2.2.2.2.F $ G c.P.P.c.G - Z 2.2.2.2.2.2.2.2.2.2.2.y z d.s.2.2.2.2.2.2.2.2.2.2.2.2.",
"j z y.s.2.2.2.2.2.2.2.2.2.2.2.2.j z d.s.2.2.2.2.2.2.2.X.c b l.m.m.k.P N  .<.2.2.2.2.2.2.2.2.2.2.y z y.s.2.2.2.2.2.2.2.2.2.2.2.2.",
"p x d.s.2.2.2.2.2.2.2.2.2.2.2.2.y z d.s.2.2.2.2.2.2.2.@.} V U T T H -.6.#.2.2.2.2.2.2.2.2.2.2.2.y z d.s.2.2.2.2.2.2.2.2.2.2.2.2.",
"y z d.a.s.d.s.s.s.s.s.s.$.2.2.2.y z d.y.s.s.s.s.s.s.s.s.$.X.c O X + 9.y.s.s.s.s.s.s.s.s.$.2.2.2.l z d.y.s.a.s.s.s.s.s.s.$.2.2.2.",
"y z d.d.d.d.d.y.d.d.d.y.&.2.2.2.y z d.d.d.d.d.y.d.d.y.y.%.#.} C @ 9 e.y.y.y.d.d.y.y.d.d.2.2.2.2.r z d.d.d.d.d.d.d.d.d.y.&.2.2.2.",
"y y y y j j y j y y y y y y y y j y y y y y j y y y y y g y y y y y y y y y j j y y y y y y y y y y y y j j p g y y y y y w g p ",
"1 1 1 1 1 1 1 j r y y j t 1 1 1 1 1 1 1 1 1 1 j h y w y u 1 1 1 1 1 1 1 1 1 1 k r y w y u 1 1 1 1 1 1 1 1 1 1 g y y w y u 1 1 1 ",
"<.<.<.&.2.2.<.<.p y j.d.&.2.<.<.2.2.2.2.2.2.2.<.p y h.y.%.2.2.2.2.2.2.2.2.2.2.<.i j h.d.2.2.2.2.2.2.2.2.2.2.<.<.p y j.y.&.2.<.<.",
"2.6.<.&.2.2.2.<.p y h.y.&.2.2.2.2.2.2.2.2.2.2.<.p y j.d.%.2.2.2.2.2.2.2.2.2.<.<.i y h.y.%.2.2.2.2.2.2.2.2.2.2.<.p y j.y.&.2.2.2.",
"2.2.2.2.2.2.<.<.i j h.d.&.2.2.2.2.2.2.2.2.2.<.<.p y h.d.%.2.2.2.2.<.2.2.2.2.2.>.i y h.y.%.2.2.2.2.2.2.2.2.2.2.<.i y h.d.&.2.2.2.",
"<.$.<.0.2.2.<.>.l j h.d.0.$.$.$.>.>.>.4.2.2.2.>.p y h.d.0.>.>.>.$.<.$.3.2.2.2.<.z y h.d.0.>.>.>.:.$.>.4.2.2.<.>.l j h.d.0.$.>.$.",
"y.y.d.s.2.2.2.%.p y h.d.d.d.d.d.d.d.d.s.2.2.2.<.p y h.d.d.d.d.d.d.d.d.d.2.2.2.<.i y h.d.d.d.d.d.d.d.d.s.2.2.2.<.p y h.d.d.d.d.d.",
"p.p.p.i.<.<.<.=.f y r.p.p.p.p.p.p.p.p.i.<.<.<.=.f y r.p.p.p.p.p.p.p.f.i.<.<.<.=.f y r.p.p.p.p.p.p.p.p.i.<.<.<.=.f y r.p.p.p.p.p.",
"j j j l i i i d u y s j j j j j g g j l p p i 1 u y s j j j j j j j j l p p i 2 u y s j j j j j j j j j i i i d u y s j j j j j ",
"y y j w y y j y y y y y y y y y p j y y y y y y y y y y y y y y j j j w p w y y y y y y y y y y y y y g y y j y y y y y y y y y ",
"y g h.h.*.*.3.*.*.*.*.*.*.*.*.*.w j h.h.*.*.*.*.*.*.*.*.*.*.*.*.y j j.j.*.*.*.*.*.*.*.*.*.*.*.*.y g h.h.*.*.3.*.*.*.*.*.*.*.*.*.",
"y z d.s.2.2.2.2.2.2.2.2.2.2.2.2.g z y.s.2.2.2.2.2.2.2.2.2.2.2.2.y z d.d.2.2.2.2.2.2.2.2.2.2.2.2.y z d.d.2.2.2.2.2.2.2.2.2.2.2.2.",
"y z y.s.2.2.2.2.2.2.2.2.2.2.2.2.y z f.s.2.2.2.2.2.2.2.2.2.2.2.2.j z d.s.2.2.2.2.2.2.2.2.2.2.2.2.y z d.s.2.2.2.2.2.2.2.2.2.2.2.2.",
"y z d.s.2.2.2.2.2.2.2.2.2.2.2.2.y z d.s.2.2.2.2.2.2.2.2.2.2.2.2.y z d.s.2.2.2.2.2.2.2.2.2.2.2.2.y z d.s.2.2.2.2.2.2.2.2.2.2.2.2.",
"l z d.y.s.a.s.s.s.s.s.s.$.2.2.2.p z d.y.a.a.a.a.s.s.s.s.$.2.2.2.y z d.y.s.s.s.s.a.a.s.s.$.2.2.2.y z d.y.a.a.s.s.s.s.s.s.$.2.2.2.",
"r z d.d.d.d.d.d.d.d.d.y.&.2.2.2.j x d.d.d.d.d.d.d.d.d.y.&.2.2.2.y z d.d.d.d.d.y.d.d.d.d.%.2.2.2.y z d.d.d.d.d.d.d.d.d.y.&.2.2.2."
};
