/* XPM */
static char *output_onlinepngtools__5_1708260264[] = {
/* columns rows colors chars-per-pixel */
"64 64 118 2 ",
"   c black",
".  c #070100",
"X  c #000B09",
"o  c #000D0A",
"O  c #020D0C",
"+  c #020F0D",
"@  c #110D00",
"#  c #0F160C",
"$  c #011915",
"%  c #270704",
"&  c #290705",
"*  c #270803",
"=  c #2C0903",
"-  c #280804",
";  c #2D0804",
":  c #370B06",
">  c #390B06",
",  c #3E0C07",
"<  c #321104",
"1  c #012416",
"2  c #04211E",
"3  c #01241E",
"4  c #02301D",
"5  c #01351F",
"6  c #3D2D00",
"7  c #012F23",
"8  c #022E24",
"9  c #0F2A20",
"0  c #0A2F24",
"q  c #042B2B",
"w  c #022F28",
"e  c #072A2E",
"r  c #032E2C",
"t  c #042F2C",
"y  c #082E2D",
"u  c #122F22",
"i  c #023021",
"p  c #013520",
"a  c #013226",
"s  c #063024",
"d  c #003128",
"f  c #003328",
"g  c #00312C",
"h  c #07322E",
"j  c #003132",
"k  c #480E06",
"l  c #5C1209",
"z  c #5F1309",
"x  c #611309",
"c  c #6E160A",
"v  c #7E170F",
"b  c #75180F",
"n  c #7A180A",
"m  c #791A0B",
"M  c #7D190B",
"N  c #7F190C",
"B  c #731711",
"V  c #5C2805",
"C  c #453300",
"Z  c #483200",
"A  c #622205",
"S  c #622405",
"D  c #702909",
"F  c #6C4302",
"G  c #6C4502",
"H  c #6B5505",
"J  c #715400",
"K  c #821A0C",
"L  c #841A0C",
"P  c #8A1D0F",
"I  c #931D0E",
"U  c #961E0E",
"Y  c #991E0E",
"T  c #9C1F0F",
"R  c #AB1D0C",
"E  c #AB1F10",
"W  c #AC1F10",
"Q  c #AC1F14",
"!  c #B31C1C",
"~  c #A7200D",
"^  c #A8230D",
"/  c #A9230E",
"(  c #A72110",
")  c #A72412",
"_  c #AB2210",
"`  c #AC2314",
"'  c #AD2314",
"]  c #AC2514",
"[  c #AE2416",
"{  c #B12213",
"}  c #B02415",
"|  c #B52515",
" . c #B72516",
".. c #B92314",
"X. c #B02319",
"o. c #B6211D",
"O. c #D02A18",
"+. c #D32B19",
"@. c #DB311F",
"#. c #EB2E1A",
"$. c #EB2A1F",
"%. c #F42D14",
"&. c #F32E1A",
"*. c #E23018",
"=. c #EC331A",
"-. c #ED331A",
";. c #ED301C",
":. c #F03017",
">. c #FB3318",
",. c #EF2B25",
"<. c #F02C26",
"1. c #916C00",
"2. c #B48500",
"3. c #BB8A00",
"4. c #BC8C00",
"5. c #C39200",
"6. c #F1B400",
"7. c #FFBE00",
/* pixels */
"w w w w w w w w w w w w w w w w d w w w w w w w w w w w w w w w w w w w w w w w 8 d t w w w w w w w w w d d t d w w w w w 8 d w ",
"4 4 4 4 4 4 4 4 4 4 0 w 8 w 4 4 4 4 4 4 4 4 4 a s w 8 w q 4 4 4 4 4 4 4 4 4 4 d w w 7 8 e 4 4 4 4 4 4 4 4 4 4 a w w 8 a e 4 4 4 ",
"_ _ _ _ _ _ _ _ _ _ i w :.;.E _ _ _ _ _ _ _ _ / t w ,.#.E _ _ _ _ _ _ _ _ _ _ / h 8 ,.;._ _ _ _ _ _ _ _ _ _ ^ ^ t w <.&.E _ _ _ ",
"_ _ _ _ _ _ _ _ _ _ i w :.#.W _ _ _ _ _ _ _ _ / t d ,.;.E _ _ _ _ _ _ _ _ _ ^ ~ r w ,.;.E _ _ _ _ _ _ _ _ _ _ ~ t w <.#.E _ _ _ ",
"_ _ _ _ _ _ _ _ _ _ i w :.;.W _ _ _ _ _ _ _ ^ ~ t w <.#.W _ _ _ _ _ _ _ _ _ _ ^ r w ,.;./ ~ _ _ _ _ / _ _ _ _ / t d ,.;.E / _ _ ",
"~ ~ ~ [ _ _ _ _ _ _ i w :.;.) / ~ / ~ [ _ _ ^ E t w <.;.X./ E _ ~ ~ / } _ _ _ ^ r w ,.;.[ E E _ E E / [ _ _ _ R t d ,.;.X.E E E ",
";.;.;.-._ _ _ _ _ _ 8 s :.;.#.#.;.;.;.-._ _ _ / t w <.#.#.#.;.;.;.;.;.-._ _ _ ^ h w <.;.#.#.#.;.=.#.#.-._ _ _ / t w ,.;.#.#.=.#.",
"&.&.&.%./ / / / / / y g >.&.&.&.&.&.&.%._ ^ / ! p w @.&.&.&.&.&.&.&.&.%.^ _ ^ ! p r @.&.&.&.&.&.#.&.&.%./ / / ! p w @.&.&.&.&.&.",
"d d d g r r r r t t 9 w j d d d d d d g t r r p e w u d d d d d d d d g t r r p e w u d d d d d d d d d r r r 7 e w u d d d d d ",
"w d d 8 w w w w w w w w w w w w w w w w w w w w w w w w w w w w d w w w w w w w w w w w w w w w w w w a w w d w w w w w w w w w ",
"w a ,.,.Q Q ` Q Q Q Q Q Q Q Q Q d d ,.<.Q Q Q Q Q Q Q Q Q Q Q Q a a <.,.Q Q Q Q Q Q Q Q Q Q Q Q w a <.<.Q Q ` ` Q Q Q Q Q Q Q Q ",
"w h #.-._ _ _ _ _ _ _ _ _ _ _ _ 8 h -.-._ _ _ _ _ _ _ _ _ _ _ _ w h #.=._ _ _ _ _ _ _ _ _ _ _ _ w h ;.#._ _ _ _ _ _ _ _ _ _ _ _ ",
"w h #.-._ _ _ _ _ _ _ _ _ _ _ _ 8 h ;.-._ _ _ _ _ _ _ _ _ _ _ _ w h ;.-._ _ _ _ _ _ _ _ _ _ _ _ w h #.-._ _ _ _ _ _ _ _ _ _ _ _ ",
"w h #.-._ _ _ _ _ _ _ _ _ _ _ _ t h ;.;._ _ _ _ _ _ _ _ _ _ _ _ w h ;.-._ _ _ _ _ _ _ _ _ _ _ _ w h #.-._ _ _ _ _ _ _ _ _ _ _ _ ",
"g h ;.#.=.=.=.=.-.-.;.-.R _ _ _ d h ;.#.-.=.-.-.-.-.-.-.R _ _ _ w h #.#.-.-.-.-.-.-.-.-.R _ _ _ d h ;.#.-.=.-.-.-.-.-.-.R _ _ _ ",
"d h ;.;.;.;.;.;.;.;.;.#.E _ _ _ s j ;.;.;.;.;.;.;.;.#.#.E _ _ _ w h ;.;.;.;.;.;.#.;.;.;._ _ _ _ d h ;.;.;.;.;.;.;.;.#.#.W _ _ _ ",
"t w t w w w w w w w w w w w w w w w w w w w w w w w w w w w w w w 8 t d 8 t d d w w w w w w w w t w w w d w w d w w w w w w w w ",
"4 4 4 4 4 4 4 a s w 7 w q 4 4 4 4 4 4 4 4 4 4 d w w 7 w e 4 4 4 4 4 4 4 4 4 4 d w w 8 w q 4 4 4 4 4 4 4 4 4 4 d w w w d q 4 4 4 ",
"/ _ _ _ _ _ / / t w ,.;.E _ _ _ _ _ _ _ _ _ _ / t w <.;.R / E Y T W _ _ _ _ ^ _ w w ,.;.E _ _ _ _ _ / _ _ _ / / t w <.#.W _ / { ",
"_ _ _ _ _ _ / / t w ,.;.E _ _ _ _ _ _ _ _ _ _ ~ t w <.;./ P z k k z U _ _ _ ^ _ t w <.#.E _ _ _ _ _ _ _ _ _ _ / t w <.#.W R / / ",
"_ ~ _ _ _ _ _ / t w ,.;.E _ _ _ / / _ _ _ _ _ / t w <.;.R M -     ; K _ _ _ _ ^ t w <.#._ _ _ _ _ _ _ _ _ _ _ ^ t w <.;.W / / _ ",
"~ E E [ _ _ / / t w ,.;.X.~ ~ ~ E E / X._ _ / / t w ,.#.X.m *     ; M [ _ _ _ ^ t w <.;.X._ W E _ R ^ [ _ _ _ / t d <.;.o./ W W ",
";.;.&.&._ / _ / t w ,.;.;.;.;.;.#.=.#.-._ _ / / t w <.#.;.[ :     > | -._ _ _ _ w w <.#.;.;.#.#.#.;.;.;._ _ _ ^ t w <.#.#.#.-.#.",
"&.:.&.%./ / / ! p w @.&.&.&.&.&.&.&.&.%./ / / ! p w @.&.&.{ >     k ..%._ ^ ^ ! p g @.&.&.&.&.&.&.&.&.%.^ _ ^ ! p w @.&.&.&.&.&.",
"d d d g r r r p e w u d d d d d d d d g r r r p e w u d d 3 X     o 3 g r r r 5 e w u w d d d d d d d d r r r 7 e w u d d d d d ",
"g d w w w w w w w w w w w w w w d w w w w w w w w w w w w 3 X     o 3 w w w w w w w w w w w w w w w w 8 w w d w w w w w w w w w ",
"g d <.$.Q Q Q Q Q Q Q Q Q Q Q Q 8 a <.,.Q Q Q Q Q Q Q Q Q v ;     o o.$.Q Q Q Q Q Q W [ Q Q Q Q w d <.<.Q Q ` ` Q Q Q Q Q Q Q Q ",
"s h ;.:._ _ _ _ _ _ _ _ _ _ _ _ w h #.=._ _ _ _ _ _ _ _ _ N - .   O | -._ _ _ _ _ _ _ _ _ _ _ _ d h #.-._ _ _ _ _ _ _ _ _ _ _ _ ",
"w h ;.-._ _ _ _ _ _ _ _ _ _ _ _ w h ;.-._ _ _ _ _ _ _ _ ( m < @ @ # [ *._ _ _ _ _ _ _ _ _ _ _ _ w h #.;._ _ _ _ _ _ _ _ _ _ _ _ ",
"w h ;.-._ _ _ _ _ _ _ _ _ _ _ _ w h ;.-._ _ _ _ _ _ _ P z V J 1.1.H D P I _ _ _ _ _ _ _ _ _ _ _ w h ;.-._ _ _ _ _ _ _ _ _ _ _ _ ",
"w h ;.#.-.-.-.-.-.-.=.=.R _ _ _ w h ;.#.-.-.-.=.-.-.=._ * C 5.7.7.4.6 > [ =.-.=.-.-.-.-.R _ / _ g h ;.#.=.=.-.-.-.-.-.-.R _ _ _ ",
"w h ;.;.;.;.;.;.;.;.;.;.E _ _ _ w h ;.;.;.;.;.;.;.;.;.` % C 5.7.7.4.6 k } ;.;.;.;.;.#.#.W _ { / d h ;.;.;.;.;.;.;.;.#.#.W _ _ _ ",
"w w w w w w w d w w w w w w w w w w w w w w w w w w 8 3 X C 5.7.7.4.6 o 3 g d w w w w w w w t 8 w w w w d d d d d t 8 w w d w w ",
"4 4 4 4 4 4 4 a w w 8 w e 4 4 4 4 4 4 4 4 4 4 a w w 8 3 X C 5.7.7.4.6 o 1 4 4 a w w 8 w q 4 4 4 4 4 4 4 4 4 4 d w 8 7 w e 4 4 4 ",
"_ _ _ _ _ _ _ / w w ,.;./ _ _ _ _ _ _ _ _ _ _ / w w ,._ & C 5.7.7.4.6 ; L _ / / t w <.;.R _ _ _ _ _ _ _ _ _ _ ^ w w <.&.W _ _ _ ",
"_ _ _ _ _ _ / / t w ,.#.E _ _ _ _ _ _ _ _ _ / / t w ,.[ % C 5.7.7.4.6 - L _ / / t w <.;._ _ _ _ _ _ _ _ _ _ _ ^ y g <.#.E _ _ _ ",
"_ / / _ _ _ _ / t w <.#.E _ _ _ _ _ _ _ _ _ _ / t w <.} = Z 3.6.6.2.6 > L _ _ / t w <.;./ ~ _ _ _ _ / _ _ _ _ ^ t w <.;.E / / _ ",
"/ E E [ _ _ _ / t w <.;.X.~ ~ ~ ~ ~ ~ [ _ _ _ / t w <.O.B A G J J F A b Y _ / / t w ,.#.[ E E / / W E [ _ _ _ ^ t 8 <.;.X.E E E ",
";.#.#.-._ _ _ / t w <.#.;.;.;.;.;.;.;.-._ _ / / t w <.#.;.[ >     , | -.W / _ / t w <.;.#.#.#.;.-.#.#.-._ _ _ ~ t w <.;.;.#.-.#.",
"&.&.&.%./ / _ ! p w @.&.&.&.&.&.&.&.&.%./ / / ! i w @.&.&.{ >     , ..%./ / / ! p r @.&.&.&.&.&.&.&.&.%._ ~ _ ! p w @.&.&.&.&.#.",
"d d d g r r r p e w u d d d d d d d d g r r r p e w u d d 3 o     o 3 g r r r i e w u d w d d d d d d g r r r i e w u d d d d d ",
"t d w 8 w w w w w w w w w w w w w w 8 8 w w w w w w w w w 3 X     o 3 w w w w w a w w w w w w w w w w 8 w w d w w w w w w w w w ",
"8 a <.<.Q Q Q Q Q Q Q Q Q Q Q Q w a <.,.Q Q Q Q Q Q Q Q Q v &     o o.$.Q Q ` [ Q Q Q Q Q Q Q [ w a <.,.Q Q ` Q Q Q Q Q Q Q Q Q ",
"w h ;.-._ _ _ _ _ _ _ _ _ _ _ _ w h ;.-._ _ _ _ _ _ _ _ _ N %     O | -._ _ _ _ _ _ _ _ _ _ _ _ w h ;.-._ _ _ _ _ _ _ _ _ _ _ _ ",
"d h ;.-._ _ _ _ _ _ _ _ _ _ _ _ w h ;.-._ _ _ _ _ _ _ _ _ N -     O | -._ _ _ _ _ _ _ _ _ _ _ _ w h ;.-._ _ _ _ _ _ _ _ _ _ _ _ ",
"w h ;.-._ _ _ _ _ _ _ _ _ _ _ _ w h ;.-._ _ _ _ _ _ _ _ _ N -     O | -._ _ _ _ _ _ _ _ _ _ _ _ w h ;.-._ _ _ _ _ _ _ _ _ _ _ _ ",
"w h ;.#.-.-.-.-.=.=.=.=.R _ _ _ w h ;.#.=.=.-.-.=.=.=.-.R N % .   O | #.-.-.-.-.-.;.-.-.R _ _ _ w h ;.#.=.=.=.-.-.-.-.-.R _ _ _ ",
"w h ;.;.;.;.;.#.;.;.;.;.E _ _ _ w h ;.;.;.;.;.;.;.;.;.;.E U c z $ 2 +.;.;.;.;.;.#.#.;.;._ _ _ _ w h ;.;.;.;.;.;.;.;.;.#.E _ _ _ ",
"w w w w d d d d t 8 w w w 8 d w w w w w w w a w w w w w 8 d w w w w w w w w w w w w w w w w w d w w w w d w w d w w w w w w w w ",
"4 4 4 4 4 4 4 d s w 8 w e 4 4 4 4 4 4 4 4 4 4 a w w 8 w e 4 4 4 4 4 4 4 4 4 4 a w w 8 w q 4 4 i 4 4 4 4 4 4 4 d 0 w 8 w q 4 4 4 ",
"_ _ _ _ _ _ ^ ^ t w <.;.W _ _ _ _ _ _ _ _ _ _ ^ t d ,.#._ _ _ _ _ _ _ _ _ _ _ / w w ,.;.E _ _ _ _ _ _ _ _ _ / / t w ,.;.E _ _ _ ",
"_ _ _ _ _ _ _ _ t w <.#.E _ _ _ _ _ _ _ _ _ _ E t d ,.&._ _ _ _ _ _ _ _ _ _ / / t w <.#.E _ _ _ _ _ _ _ _ _ _ / t w ,.;.E _ _ _ ",
"_ _ _ _ _ _ _ ^ t w ,.;.E _ _ _ / / _ / _ _ / / t w <.#._ _ _ _ _ _ _ _ _ _ _ / t w <.#._ _ _ _ _ _ _ _ _ _ _ / r w ,.;.E / / _ ",
"~ R ~ [ _ _ ^ _ t w ,.;.X.~ ~ ~ E / E [ _ _ _ / t w <.#.X._ R _ R ~ ~ [ _ _ _ / t w <.;.X._ W R ~ ~ ~ [ _ _ / ~ r d ,.;.X.E E E ",
";.;.;.=._ _ _ ~ t w ,.;.;.;.;.;.;.;.;.-._ _ / / t w <.#.#.#.#.;.;.;.;.-._ _ _ / w w <.#.;.;.#.#.;.;.;.-._ _ _ / h 8 ,.;.;.#.-.#.",
"&.&.&.%._ ^ ^ ! p w @.&.&.&.&.&.&.&.&.%./ / / ! p w @.&.&.&.&.&.&.&.&.%./ / / ! p g @.&.&.&.&.&.&.&.&.%./ / / ! p w @.&.&.&.&.&.",
"d d d g r r r p e w u d d d d d d d d g t t r i e w u d d d d d d d d g r r r p e w u w d d d d d d d d r r r i e w u d d d d d ",
"w w w 8 w w w w w w w w w w w w w d w w w w w w w w w w w w w w w d w 8 w w w w w w w w w w w w w w w a w w d w w w w w w w w w ",
"w a ,.,.Q Q Q Q Q Q Q Q Q Q Q Q 8 d ,.,.Q Q Q Q Q Q Q Q Q Q Q Q w a <.,.Q Q Q Q Q Q E [ Q Q Q Q w a <.,.Q Q ` Q Q Q Q Q Q Q Q Q ",
"w h ;.-._ _ _ _ _ _ _ _ _ _ _ _ a h #.-._ _ _ _ _ _ _ _ _ _ _ _ w h ;.-._ _ _ _ _ _ _ _ _ _ _ _ w h ;.;._ _ _ _ _ _ _ _ _ _ _ _ ",
"w h ;.-._ _ _ _ _ _ _ _ _ _ _ _ w h ;.-._ _ _ _ _ _ _ _ _ _ _ _ w h ;.-._ _ _ _ _ _ _ _ _ _ _ _ w h #.-._ _ _ _ _ _ _ _ _ _ _ _ ",
"w h ;.-._ _ _ _ _ _ _ _ _ _ _ _ w h ;.-._ _ _ _ _ _ _ _ _ _ _ _ w h ;.-._ _ _ _ _ _ _ _ _ _ _ _ w h ;.-._ _ _ _ _ _ _ _ _ _ _ _ ",
"w h ;.#.=.=.=.=.=.=.-.-.R _ _ _ w h ;.#.=.=.=.=.=.=.-.-.R _ _ _ w h ;.#.=.=.-.-.-.-.-.-.R _ _ _ d h ;.#.=.=.=.=.-.-.-.-.R _ _ _ ",
"w h ;.;.;.;.;.;.;.;.;.;.E _ _ _ w h ;.;.;.;.;.;.;.;.;.;.E _ _ _ w h ;.;.;.;.;.;.;.;.;.#.W _ _ _ w h ;.;.;.;.;.;.;.;.;.#.E _ _ _ "
};
