/* XPM */
static char *_ef94758960c4d4cdb886ae8dfe9dd2a7mgzOHykJDlLiEpZ[] = {
/* columns rows colors chars-per-pixel */
"64 64 197 2 ",
"   c #1E381F",
".  c #2E3F1E",
"X  c #032E27",
"o  c #022F28",
"O  c #092F28",
"+  c #0A2F27",
"@  c #1B2E27",
"#  c #053027",
"$  c #043029",
"%  c #093428",
"&  c #103523",
"*  c #1E3026",
"=  c #143A24",
"-  c #1A3D21",
";  c #212F26",
":  c #223127",
">  c #2A3A22",
",  c #7D2616",
"<  c #28421D",
"1  c #33441D",
"2  c #3F461C",
"3  c #264722",
"4  c #3D4B24",
"5  c #3A4621",
"6  c #385928",
"7  c #45601B",
"8  c #556614",
"9  c #5F7317",
"0  c #6C6E17",
"q  c #796F13",
"w  c #697D19",
"e  c #61771E",
"r  c #7A791C",
"t  c #424C20",
"y  c #5C7421",
"u  c #7F7C21",
"i  c #9F250E",
"p  c #9F390C",
"a  c #872614",
"s  c #8C2515",
"d  c #842D13",
"f  c #932716",
"g  c #982412",
"h  c #922A13",
"j  c #833312",
"k  c #823F11",
"l  c #9E301F",
"z  c #963912",
"x  c #A12C0E",
"c  c #AD2C0F",
"v  c #A2340D",
"b  c #A33C0C",
"n  c #AD370E",
"m  c #B33C0F",
"M  c #B1320F",
"N  c #A62110",
"B  c #AB2210",
"V  c #AD2910",
"C  c #B42412",
"Z  c #B92612",
"A  c #BB2F1C",
"S  c #B82C11",
"D  c #A63515",
"F  c #BD3511",
"G  c #B93715",
"H  c #DE2D18",
"J  c #D32F17",
"K  c #C2301E",
"L  c #C83E16",
"P  c #D0301C",
"I  c #D43516",
"U  c #E52F1A",
"Y  c #E4341A",
"T  c #ED301B",
"R  c #EB3C1A",
"E  c #E63A18",
"W  c #854B0F",
"Q  c #9E480A",
"!  c #89540F",
"~  c #87580E",
"^  c #86540F",
"/  c #9D4F13",
"(  c #8B4617",
")  c #A5480B",
"_  c #B3430E",
"`  c #B64E0E",
"'  c #BC5D0B",
"]  c #BC4B11",
"[  c #BF471A",
"{  c #A35514",
"}  c #BD521A",
"|  c #BC5615",
" . c #A65509",
".. c #AE6D07",
"X. c #AC670C",
"o. c #B36C09",
"O. c #B77907",
"+. c #CB550F",
"@. c #C54919",
"#. c #DF4D14",
"$. c #C85017",
"%. c #DD5513",
"&. c #E44218",
"*. c #C6680D",
"=. c #D46A0D",
"-. c #C9770B",
";. c #D6770E",
":. c #C66D1D",
">. c #C66717",
",. c #DA6011",
"<. c #CC7B1D",
"1. c #EE6719",
"2. c #CA6C22",
"3. c #77800F",
"4. c #7D860E",
"5. c #758826",
"6. c #80860D",
"7. c #87910E",
"8. c #92970C",
"9. c #9C9D0A",
"0. c #A9A40E",
"q. c #B4AA06",
"w. c #B8A308",
"e. c #BDBA06",
"r. c #BABB18",
"t. c #BCBC30",
"y. c #C59F04",
"u. c #D09509",
"i. c #CE831C",
"p. c #E7920C",
"a. c #F0861B",
"s. c #F19C1B",
"d. c #CCAD03",
"f. c #C5A004",
"g. c #C1BC07",
"h. c #D3B503",
"j. c #D6BA02",
"k. c #DABC03",
"l. c #D1AC1E",
"z. c #EAA30E",
"x. c #E8BC07",
"c. c #E8AE1A",
"v. c #F1A11B",
"b. c #E5BF16",
"n. c #EE8022",
"m. c #DEA62C",
"M. c #C0B12E",
"N. c #C8B731",
"B. c #E7B629",
"V. c #C7C104",
"C. c #DCC302",
"Z. c #D6CE03",
"A. c #D1CE1D",
"S. c #E3CD01",
"D. c #E3D301",
"F. c #E6DB01",
"G. c #EBDD01",
"H. c #F4DE02",
"J. c #F2D005",
"K. c #E9C517",
"L. c #EFD21E",
"P. c #EEE201",
"I. c #F3E600",
"U. c #F6E901",
"Y. c #FAED00",
"T. c #F5E20B",
"R. c #FFF200",
"E. c #FFF30C",
"W. c #EBE315",
"Q. c #F7EA15",
"!. c #FFF314",
"~. c #FFF31C",
"^. c #DDD923",
"/. c #CCCC31",
"(. c #D9D738",
"). c #DED938",
"_. c #E9C32D",
"`. c #F5CD26",
"'. c #F7C72D",
"]. c #ECC936",
"[. c #F7CA3D",
"{. c #EDDE38",
"}. c #F3DD39",
"|. c #F3DA36",
" X c #F7D626",
".X c #FCEE27",
"XX c #FCEF2C",
"oX c #FEF224",
"OX c #FEF32C",
"+X c #EBE537",
"@X c #FBE933",
"#X c #F8EA3A",
"$X c #FFF432",
"%X c #FEF43B",
"&X c #E5DE44",
"*X c #F3D447",
"=X c #F4DC42",
/* pixels */
"o o o o o o o o o o o o o o o o o o o o o o o o o o o o o o o o o o o o o o o o o o o o o o o o o o o o o o o o o o o o o o o o ",
"@ @ @ @ @ @ @ @ @ @ + o : : @ @ @ @ @ @ @ @ @ @ # O @ * @ @ @ @ @ @ @ @ @ @ @ @ # O * : @ @ @ @ @ @ @ @ @ @ @ @ # O * : @ @ @ @ ",
"s s s s s s s s s , @ @ D A g s s s s s s s s a & . ( / ! ~ ~ ^ W k j d a s s s o @ l A f s s s s s s s s s s s o @ l A f s s s ",
"B B B B B B B B B g ; ; P U Z B B B B N x ) ..f.e.Z.F.I.I.U.U.I.I.F.S.j.y...) x o ; K U Z B B B B B B B B B B B o ; K U Z B B B ",
"B B B B B B B B B g ; ; P U Z B B x b O.h.G.U.R.R.R.R.R.R.R.R.R.R.R.R.R.R.U.P.h.3.2 G U Z B B B B B B B B B B B o ; K U Z B B B ",
"Z Z Z Z B B B B B g ; ; P U Z V  .d.D.Y.R.R.R.R.R.R.R.R.R.R.R.R.R.R.R.R.R.R.R.R.Y.D.h.*.V Z Z Z Z Z Z Z B B B B o ; K U Z Z Z Z ",
"U U U H C B B B B g ; ; P T J O.D.R.R.R.R.R.R.R.R.R.R.R.R.R.R.R.R.R.R.R.R.R.R.R.R.R.Y.D.-.I U U U U U H C B B B o ; K T U U U U ",
"T T T U C B B B B g ; : K -.C.Y.R.R.R.R.R.R.R.R.R.R.R.R.R.R.R.R.R.R.R.R.R.R.R.R.R.R.R.R.Y.C.-.U T T T U C B B B $ : K T T T T T ",
"$ $ $ o o o o o o o o = 8.U.R.R.R.R.R.R.R.R.R.R.R.R.R.R.R.R.R.R.R.R.R.R.R.R.R.R.R.R.R.R.R.R.U.9.& $ $ o o o o $ X X # $ $ $ $ $ ",
"o O @ ; @ @ @ @ @ @ 1 V.Y.R.R.R.R.R.R.R.R.R.R.R.R.R.R.R.R.R.R.R.R.R.R.R.R.R.R.R.R.R.R.R.R.R.R.R.Z.< @ ; @ @ @ @ @ @ @ @ @ @ @ @ ",
"o * l A f s s s s W w.U.R.R.R.R.R.R.R.R.R.R.R.R.R.R.R.R.R.R.R.R.R.R.R.R.R.R.R.R.R.R.R.R.R.R.R.R.Y.q.{ A f s s s s s s s s s s s ",
"o : K U Z B B B ) S.Y.R.R.R.R.R.R.R.R.R.R.R.R.R.R.R.R.R.R.R.R.R.R.R.R.R.R.R.R.R.R.R.R.R.R.R.R.R.R.Y.S.+.C B B B B B B B B B B B ",
"o : K U Z B B b C.R.R.R.R.R.R.R.R.R.R.R.R.R.R.R.R.R.R.R.R.R.R.R.R.R.R.R.R.R.R.R.R.R.R.R.R.R.R.R.R.R.R.C.) B B B B B B B B B B B ",
"o : K U Z Z c j.R.R.R.R.R.R.R.R.R.R.R.R.R.R.R.R.R.R.R.R.R.R.R.R.R.R.R.R.R.R.R.R.R.R.R.R.R.R.R.R.R.R.R.R.j.n Z Z Z Z Z Z B B B B ",
"o : K T U I *.Y.R.R.R.R.R.R.R.R.R.R.R.R.R.R.R.R.R.R.R.R.R.R.R.R.R.R.R.R.R.R.R.R.R.R.R.R.R.R.R.R.R.R.R.R.U.-.H U U U U H C B B B ",
"o : K T T ;.P.R.R.R.R.R.R.R.R.R.R.R.R.R.R.R.R.R.R.R.R.R.R.R.R.R.R.R.R.R.R.R.R.R.R.R.R.R.R.R.R.R.R.R.R.R.R.G.-.T T T T U Z B B B ",
"o o o o = r.%XE.R.R.R.R.R.R.R.R.R.R.R.R.R.R.R.R.R.R.R.R.R.R.R.R.R.R.R.R.R.R.R.R.R.R.R.R.R.R.R.R.R.R.R.R.R.R.G.- o o o o o o o o ",
"@ @ @ @ @ @ 5 M.%X!.R.R.R.R.R.R.R.R.R.R.R.R.R.R.R.R.R.R.R.R.R.R.R.R.R.R.R.R.R.R.R.R.R.R.R.R.R.R.R.R.R.R.R.R.R.9.X O * : @ @ @ @ ",
"s s s s s s s v 5.).XXE.R.R.R.R.R.R.R.R.R.R.R.R.R.R.R.R.R.R.R.R.R.R.R.R.R.R.R.R.R.R.R.R.R.R.R.R.R.R.R.R.R.R.R.F.3 @ l A f s s s ",
"B B B B B B B B o 5 2.'.XXE.R.R.R.R.R.R.R.R.R.R.R.R.R.R.R.R.R.R.R.R.R.R.R.R.R.R.R.R.R.R.R.R.R.R.R.R.R.R.R.R.R.R.8.; K U Z B B B ",
"B B B B B B B B o ; K E :._.@X!.R.R.R.R.R.R.R.R.R.R.R.R.R.R.R.R.R.R.R.R.R.R.R.R.R.R.R.R.R.R.R.R.R.R.R.R.R.R.R.R.G.> K U Z B B B ",
"Z Z Z Z B B B B o ; K U Z F $.B.@X!.E.R.R.R.R.R.R.R.R.R.R.R.R.R.R.R.R.R.R.R.R.R.R.R.R.R.R.R.R.R.R.R.R.R.R.R.R.R.R.q K U Z Z Z Z ",
"U U U H C B B B o ; K T U U U Y a.#X$XE.R.R.R.R.R.R.R.R.R.R.R.R.R.R.R.R.R.R.R.R.R.R.R.R.R.R.R.R.R.R.R.R.R.R.R.R.R.w.L T U U U U ",
"T T T U C B B B $ : K T T T T T T R 1.'.$XE.R.R.R.R.R.R.R.R.R.R.R.R.R.R.R.R.R.R.R.R.R.R.R.R.R.R.R.R.R.R.R.R.R.R.R.G.,.T T T T T ",
"$ $ $ o o o o $ X X # $ $ $ $ $ $ $ $ % y (.%XE.R.R.R.R.R.R.R.R.R.R.R.R.R.R.R.R.R.R.R.R.R.R.R.R.R.R.R.R.R.R.R.R.R.Y.7.o $ $ $ $ ",
"o O @ ; @ @ @ @ @ @ @ @ @ @ @ @ o O @ ; @ * t N.%XE.R.R.R.R.R.R.R.R.R.R.R.R.R.R.R.R.R.R.R.R.R.R.R.R.R.R.R.R.R.R.R.R.g.: @ @ @ @ ",
"o * l A f s s s s s s s s s s s o * l A f s s b i.|.XXE.R.R.R.R.R.R.R.R.R.R.R.R.R.R.R.R.R.R.R.R.R.R.R.R.R.R.R.R.R.R.S.z s s s s ",
"o : K U Z B B B B B B B B B B B o : K U Z B B B B m >._.OXE.R.R.R.R.R.R.R.R.R.R.R.R.R.R.R.R.R.R.R.R.R.R.R.R.R.R.R.R.H._ B B B B ",
"o : K U Z B B B B B B B B B B B o : K U Z B B B B B B c :.].@X!.R.R.R.R.R.R.R.R.R.R.R.R.R.R.R.R.R.R.R.R.R.R.R.R.R.R.U.` B B B B ",
"o : K U Z Z Z Z Z Z Z Z B B B B o : K U Z Z Z Z Z Z Z Z B M } B.#X!.R.R.R.R.R.R.R.R.R.R.R.R.R.R.R.R.R.R.R.R.R.R.R.R.Y.' B B B B ",
"o : K T U U U U U U U H C B B B o : K T U U U U U U U H C B B c 5.#X$XE.R.R.R.R.R.R.R.R.R.R.R.R.R.R.R.R.R.R.R.R.R.R.Y.=.C B B B ",
"o : K T T T T T T T T U Z B B B o : K T T T T T T T T U Z B B B o > :.`.E.R.R.R.R.R.R.R.R.R.R.R.R.R.R.R.R.R.R.R.R.R.Y.;.C B B B ",
"o o o o o o o o o o o o o o o o o o o o o o o o o o o o o o o o X - 8 Z.R.R.R.R.R.R.R.R.R.R.R.R.R.R.R.R.R.R.R.R.R.R.Y.9 o o o o ",
"@ @ @ @ @ @ @ @ # O * : @ @ @ @ @ @ @ @ @ @ @ @ # O * : @ @ @ > 6.G.Y.R.R.R.R.R.R.R.R.R.R.R.R.R.R.R.R.R.R.R.R.R.R.R.Y.0 @ @ @ @ ",
"s s s s s s s s o @ l A f s s s s s s s s s s s o @ l A f j ! q.P.R.R.R.R.R.R.R.R.R.R.R.R.R.R.R.R.R.R.R.R.R.R.R.R.R.Y.>.f s s s ",
"B B B B B B B B o ; K U Z B B B B B B B B B B B o ; A I o.k.I.R.R.R.R.R.R.R.R.R.R.R.R.R.R.R.R.R.R.R.R.R.R.R.R.R.R.R.U.%.Z B B B ",
"B B B B B B B B o ; K U Z B B B B B B B B B B B o 1 X.k.U.R.R.R.R.R.R.R.R.R.R.R.R.R.R.R.R.R.R.R.R.R.R.R.R.R.R.R.R.R.H.#.Z B B B ",
"Z Z Z Z B B B B o ; K U Z Z Z Z Z Z Z Z B B N p 4.Z.I.R.R.R.R.R.R.R.R.R.R.R.R.R.R.R.R.R.R.R.R.R.R.R.R.R.R.R.R.R.R.R.J.&.Z Z Z Z ",
"U U U H C B B B o ; K T U U U U U U U H C i Q d.I.R.R.R.R.R.R.R.R.R.R.R.R.R.R.R.R.R.R.R.R.R.R.R.R.R.R.R.R.R.R.R.R.R.x.Y U U U U ",
"T T T U C B B B $ : K T T T T T T T T I o.C.U.R.R.R.R.R.R.R.R.R.R.R.R.R.R.R.R.R.R.R.R.R.R.R.R.R.R.R.R.R.R.R.R.R.R.E.p.T T T T T ",
"$ $ $ o o o o $ X X # $ $ $ $ $ o & 8 V.U.R.R.R.R.R.R.R.R.R.R.R.R.R.R.R.R.R.R.R.R.R.R.R.R.R.R.R.R.R.R.R.R.R.R.R.R.P.7 o $ $ $ $ ",
"o O @ ; @ @ @ @ @ @ @ @ @ @ @   3.F.Y.R.R.R.R.R.R.R.R.R.R.R.R.R.R.R.R.R.R.R.R.R.R.R.R.R.R.R.R.R.R.R.R.R.R.R.R.R.R.0.> @ @ @ @ @ ",
"o * l A f s s s s s s s s j W q.P.R.R.R.R.R.R.R.R.R.R.R.R.R.R.R.R.R.R.R.R.R.R.R.R.R.R.R.R.R.R.R.R.R.R.R.R.R.R.R.E.o.s s s s s s ",
"o : K U Z B B B B B B v ..j.P.R.R.R.R.R.R.R.R.R.R.R.R.R.R.R.R.R.R.R.R.R.R.R.R.R.R.R.R.R.R.R.R.R.R.R.R.R.R.R.R.R.T.c B B B B B B ",
"o : K U Z B B B N b X.h.I.R.R.R.R.R.R.R.R.R.R.R.R.R.R.R.R.R.R.R.R.R.R.R.R.R.R.R.R.R.R.R.R.R.R.R.R.R.R.R.R.R.R.E.u.B B B B B B B ",
"o : K U Z Z C v O.S.I.R.R.R.R.R.R.R.R.R.R.R.R.R.R.R.R.R.R.R.R.R.R.R.R.R.R.R.R.R.R.R.R.R.R.R.R.R.R.R.R.R.R.R.R.T.F Z Z Z B B B B ",
"o : K T U J ] d.I.R.R.R.R.R.R.R.R.R.R.R.R.R.R.R.R.R.R.R.R.R.R.R.R.R.R.R.R.R.R.R.R.R.R.R.R.R.R.R.R.R.R.R.R.R.E.z.U U U H C B B B ",
"o : K T R x.U.R.R.R.R.R.R.R.R.R.R.R.R.R.R.R.R.R.R.R.R.R.R.R.R.R.R.R.R.R.R.R.R.R.R.R.R.R.R.R.R.R.R.R.R.R.R.E.Q.R T T T U Z B B B ",
"o o o o o w Q.R.R.R.R.R.R.R.R.R.R.R.R.R.R.R.R.R.R.R.R.R.R.R.R.R.R.R.R.R.R.R.R.R.R.R.R.R.R.R.R.R.R.R.R.R.R.W.w o o o o o o o o o ",
"@ @ @ @ @ : 0 ~.R.R.R.R.R.R.R.R.R.R.R.R.R.R.R.R.R.R.R.R.R.R.R.R.R.R.R.R.R.R.R.R.R.R.R.R.R.R.R.R.R.R.R.R.Q.r @ @ # O * : @ @ @ @ ",
"s s s s s s h K.E.R.R.R.R.R.R.R.R.R.R.R.R.R.R.R.R.R.R.R.R.R.R.R.R.R.R.R.R.R.R.R.R.R.R.R.R.R.R.R.R.R.R.E.b.z s s o @ l A f s s s ",
"B B B B B B B m A.E.R.R.R.R.R.R.R.R.R.R.R.R.R.R.R.R.R.R.R.R.R.R.R.R.R.R.R.R.R.R.R.R.R.R.R.R.R.R.R.R.E.K._ B B B o ; K U Z B B B ",
"B B B B B B B B 3 ^.!.R.R.R.R.R.R.R.R.R.R.R.R.R.R.R.R.R.R.R.R.R.R.R.R.R.R.R.R.R.R.R.R.R.R.R.R.R.R.!.L.` B B B B o ; K U Z B B B ",
"Z Z Z Z B B B B o 4 l.~.R.R.R.R.R.R.R.R.R.R.R.R.R.R.R.R.R.R.R.R.R.R.R.R.R.R.R.R.R.R.R.R.R.R.R.R.~.c.$.Z B B B B o ; K U Z Z Z Z ",
"U U U H C B B B o ; [ `.~.R.R.R.R.R.R.R.R.R.R.R.R.R.R.R.R.R.R.R.R.R.R.R.R.R.R.R.R.R.R.R.R.R.R.~. X&.U H C B B B o ; K T U U U U ",
"T T T U C B B B $ : K R s.OXE.R.R.R.R.R.R.R.R.R.R.R.R.R.R.R.R.R.R.R.R.R.R.R.R.R.R.R.R.R.R.E.$Xv.R T T U C B B B $ : K T T T T T ",
"$ $ $ o o o o $ X X # $ # y /.oXE.R.R.R.R.R.R.R.R.R.R.R.R.R.R.R.R.R.R.R.R.R.R.R.R.R.R.E.oX/.e $ $ $ $ o o o o $ X X # $ $ $ $ $ ",
"o O @ ; @ @ @ @ @ @ @ @ @ @ @ r +XOXE.R.R.R.R.R.R.R.R.R.R.R.R.R.R.R.R.R.R.R.R.R.R.E.OX{.u : @ @ o O @ ; @ @ @ @ @ @ @ @ @ @ @ @ ",
"o * l A f s s s s s s s s s s h 6 t.}.~.E.R.R.R.R.R.R.R.R.R.R.R.R.R.R.R.R.R.R.E.~.}.B.| h s s s o * l A f s s s s s s s s s s s ",
"o : K U Z B B B B B B B B B B B o > @.n.B.#XOX~.E.R.R.R.R.R.R.R.R.R.R.E.~.OX#X_.<.m c B B B B B o : K U Z B B B B B B B B B B B ",
"o : K U Z B B B B B B B B B B B o : K U S ] :.m.].*X=X@X.XoXoX.X+X&X*X[.m.:.] V B B B B B B B B o : K U Z B B B B B B B B B B B ",
"o : K U Z Z Z Z Z Z Z Z B B B B o : K U Z Z Z Z S F L @.} } } } 6 4 @.Y Z Z Z Z Z Z Z Z B B B B o : K U Z Z Z Z Z Z Z Z B B B B ",
"o : K T U U U U U U U H C B B B o : K T U U U U U U U H C B B B o : K T U U U U U U U H C B B B o : K T U U U U U U U H C B B B ",
"o : K T T T T T T T T U Z B B B o : K T T T T T T T T U Z B B B o : K T T T T T T T T U Z B B B o : K T T T T T T T T U Z B B B "
};
