/* XPM */
static char *left31708526649[] = {
/* columns rows colors chars-per-pixel */
"64 64 219 2 ",
"   c #0B291D",
".  c #1D3D1D",
"X  c #293C1A",
"o  c #22391D",
"O  c #323B17",
"+  c #021E27",
"@  c #032425",
"#  c #092526",
"$  c #022F27",
"%  c #0C2E27",
"&  c #022429",
"*  c #0D2629",
"=  c #012F29",
"-  c #0D2E28",
";  c #112E27",
":  c #122E28",
">  c #0E3027",
",  c #023129",
"<  c #0D3128",
"1  c #053027",
"2  c #123127",
"3  c #113028",
"4  c #1B3525",
"5  c #1E411E",
"6  c #2C491A",
"7  c #364B1B",
"8  c #3C5111",
"9  c #274122",
"0  c #3A4F23",
"q  c #4E580F",
"w  c #52590E",
"e  c #535914",
"r  c #625F0C",
"t  c #586718",
"y  c #5E711E",
"u  c #72770B",
"i  c #797E13",
"p  c #667B13",
"a  c #406227",
"s  c #617229",
"d  c #8B1E0F",
"f  c #9C160F",
"g  c #941E0E",
"h  c #9E1B0E",
"j  c #851713",
"k  c #951612",
"l  c #9C1611",
"z  c #931A12",
"x  c #9B1A11",
"c  c #A6150C",
"v  c #AB150E",
"b  c #AA1B0C",
"n  c #A31C0F",
"m  c #A41510",
"M  c #AA1511",
"N  c #A31C12",
"B  c #AD1B11",
"V  c #B01D12",
"C  c #83240E",
"Z  c #822A0D",
"A  c #8A230F",
"S  c #91240E",
"D  c #9A280D",
"F  c #9C3D0D",
"G  c #9B2413",
"H  c #9B2712",
"J  c #9E3811",
"K  c #89390A",
"L  c #A4250E",
"P  c #AE220F",
"I  c #AD2C0B",
"U  c #B1220F",
"Y  c #B1290C",
"T  c #A2350C",
"R  c #B6380B",
"E  c #A22312",
"W  c #AC2210",
"Q  c #B22310",
"!  c #BC2518",
"~  c #AE3613",
"^  c #B23D11",
"/  c #CD2B1A",
"(  c #C7261A",
")  c #D3271D",
"_  c #DD241C",
"`  c #DD2E1C",
"'  c #D72B17",
"]  c #C43C14",
"[  c #D1311C",
"{  c #DE301C",
"}  c #E3241D",
"|  c #EA231B",
" . c #E52D1A",
".. c #EB2F1A",
"X. c #E62415",
"o. c #F12E1B",
"O. c #E2311C",
"+. c #ED311B",
"@. c #E83513",
"#. c #F3311B",
"$. c #8E4908",
"%. c #96420C",
"&. c #8B5107",
"*. c #B74808",
"=. c #A65809",
"-. c #B75D0A",
";. c #BA4413",
":. c #B95515",
">. c #8F6005",
",. c #946606",
"<. c #9C7D04",
"1. c #A96709",
"2. c #BD640A",
"3. c #A57806",
"4. c #BC710A",
"5. c #BE6C11",
"6. c #DC560F",
"7. c #C64911",
"8. c #D45210",
"9. c #CE5A1A",
"0. c #EC5F0E",
"q. c #EB4811",
"w. c #E25D15",
"e. c #C3660C",
"r. c #D1600F",
"t. c #C97D0D",
"y. c #C5750A",
"u. c #CD7E17",
"i. c #CE6B13",
"p. c #E27910",
"a. c #E57122",
"s. c #7E8407",
"d. c #7D842C",
"f. c #8E8C04",
"g. c #9D9709",
"h. c #889014",
"j. c #989411",
"k. c #A18004",
"l. c #B38605",
"z. c #AC9A01",
"x. c #AA9503",
"c. c #BB9204",
"v. c #9BA008",
"b. c #A9AC0F",
"n. c #B4A501",
"m. c #BAA901",
"M. c #BFB602",
"N. c #AEB419",
"B. c #899A31",
"V. c #B1B535",
"C. c #CA890B",
"Z. c #C09B04",
"A. c #D0821A",
"S. c #DB9C12",
"D. c #CBAC03",
"F. c #C3AF04",
"G. c #D8A809",
"H. c #C4BB00",
"J. c #C9B601",
"K. c #D4B902",
"L. c #DAB70A",
"P. c #DEB11E",
"I. c #EDB20E",
"U. c #F1AE19",
"Y. c #D59326",
"T. c #DAA328",
"R. c #E3B423",
"E. c #E9BC31",
"W. c #F5AA2D",
"Q. c #CBC102",
"!. c #CFCA02",
"~. c #C8C507",
"^. c #D4C500",
"/. c #DBCD00",
"(. c #D6C801",
"). c #D7D201",
"_. c #DDD900",
"`. c #CBC11A",
"'. c #E2D400",
"]. c #E3DB00",
"[. c #E9DD00",
"{. c #E4DE0A",
"}. c #F4DA16",
"|. c #ECCE12",
" X c #E4E200",
".X c #EAE400",
"XX c #ECE800",
"oX c #F2E500",
"OX c #F2EB02",
"+X c #FDEF00",
"@X c #F6F101",
"#X c #FFF200",
"$X c #FFFA00",
"%X c #FEF30C",
"&X c #FEFB0B",
"*X c #E9E110",
"=X c #F7EC1E",
"-X c #F4E816",
";X c #FEF414",
":X c #FFFD15",
">X c #FFF51B",
",X c #FFFD1B",
"<X c #CED038",
"1X c #EBCA2A",
"2X c #EED829",
"3X c #ECCD33",
"4X c #F2D934",
"5X c #F6EB26",
"6X c #FFFD24",
"7X c #FFFE2C",
"8X c #FFF72C",
"9X c #EFE037",
"0X c #F5EB34",
"qX c #F7E739",
"wX c #FFFE33",
"eX c #FFFE3C",
"rX c #FCF535",
"tX c #FFFE45",
"yX c #FCF543",
/* pixels */
"= = = = = = = = = , $ $ = $ = = , = = = = , = = = , = = $ = = = = , , = = = = , $ = , $ = = = = = = = = = , = = = = $ $ = = = = ",
"; - - ; ; ; - ; ; - $ = 2 2 ; ; ; ; - ; ; - ; ; 1 1 2 4 ; : ; : : : ; ; 3 3 > ; $ , ; 2 ; ; ; ; - ; - ; ; - - ; $ $ ; 2 ; ; ; - ",
"E E E E E E E G W G % - [  .E E E E E E E E E G # & ( ( A C Z Z Z Z A d z l N G < 2 [ ` E E E E E E E E E E E G - > [ { W E E E ",
"W U W W W Q b W W E % -  .o.Q W W W P W Q B b d X q 3.x.n.M.H.H.J.H.m.x.<.>.$.C & #  .#.Q W P W P Q W W B W Q E - ; O.o.W W W P ",
"P W W W W W W W P E - - { ..W W W W W m S K ,.n.(.oX@X#X$X$X#X$X$X$X$X@X#XOX_.H.f.w ~ _ V W L P W W P W W W W E % - { +.W W W W ",
"W W Q W W W W W P E % > { +.W W Q B g &.x.).@X$X#X%X#X#X#X#X#X#X#X#X#X#X#X#X#X$X#XoXH.<.K N Q U W W Q W W W W E % ; { ..Q W W W ",
"..+.....W W W W U E % -  .#.+.o./ =.n. X$X#X#X#X#X#X#X#X#X#X#X#X#X#X#X#X#X#X#X#X#X#X$X@X!.3.~ ' o.+.....W P P E % - O.o...+.+.+.",
"O.{ O.` E G E E E G - 3 [ O.) ^ x. X$X#X#X#X#X#X#X#X#X#X#X#X#X#X#X#X#X#X#X#X#X#X#X#X#X#X$X@X~.1.( [ O.{ E G E G % > [ O.{ { O.{ ",
"; 2 - > % % % % % % $ $ - # r !.#X#X#X#X#X#X#X#X#X#X#X#X#X#X#X#X#X#X#X#X#X#X#X#X#X#X#X#X+X#X#XXXx.O # 3 % % % % $ $ ; - - > > 2 ",
"$ $ - - % < % < % % - - # s.oX$X#X#X#X#X#X#X#X#X#X#X#X#X#X#X#X#X#X#X#X#X#X#X#X#X#X#X#X#X#X#X#X#X$XQ.8 # > % % < - - % % - - % % ",
"$ ; [  .E G E E G E W Z z.#X#X#X#X#X#X#X#X#X#X#X#X#X#X#X#X#X#X#X#X#X#X#X#X#X#X#X#X#X#X#X#X#X#X#X#X$X].,.z E E E L G E E E E G L ",
"$ 2 O.o.Q W W W W V S m.$X#X#X#X#X#X#X#X#X#X#X#X#X#X#X#X#X#X#X#X#X#X#X#X#X#X#X#X#X#X#X#X#X#X#X#X#XOX#X].,.N Q P P P U P U b P P ",
"= 2 O...W W W W W g m.#X#X#X#X#X#X#X#X#X#X#X#X#X#X#X#X#X#X#X#X#X#X#X#X#X#X#X#X#X#X#X#X#X#X#X#X#X#X#X#X#X X>.l P W W W W W W W W ",
"$ 2  ...Q W W Q m l.$X#X#X#X#X#X#X#X#X#X#X#X#X#X#X#X#X#X#X#X#X#X#X#X#X#X#X#X#X#X#X#X#X#X#X#X#X#X#X#X#X#X$X_.&.B W W W W W W W W ",
", 2 O.#.....+.| 2.@X#X#X#X#X#X#X#X#X#X#X#X#X#X#X#X#X#X#X#X#X#X#X#X#X#X#X#X#X#X#X#X#X#X#X#X#X#X#X#X#X#X#X#X#X!.;...+... .Q P W W ",
"= 2 / O.` O.` ;. X$X+X#X#X#X#X#X#X#X#X#X#X#X#X#X#X#X#X#X#X#X#X#X#X#X#X#X#X#X#X#X#X#X#X#X#X#X#X#X#X#X#X#X#X+X$Xm.! O. .[ W L G G ",
", = - ; - < ; H.$X+X#X#X#X#X#X#X#X#X#X#X#X#X#X#X#X#X#X#X#X#X#X#X#X#X#X#X#X#X#X#X#X#X#X#X#X#X#X#X#X#X#X#X#X#X#X#Xu & > - % % % % ",
"; ; % % 3 & t $X+X#X#X#X#X#X#X#X#X#X#X#X#X#X#X#X#X#X#X#X#X#X#X#X#X#X#X#X#X#X#X#X#X#X#X#X#X#X#X#X#X#X#X#X#X#X#X#X'.o % ; % - % % ",
"E E E E E z J.$X#X#X#X#X#X#X#X#X#X#X#X#X#X#X#X#X#X#X#X#X#X#X#X#X#X#X#X#X#X#X#X#X#X#X#X#X#X#X#X#X#X#X#X#X#X#X#X#X$Xg.! O.E N E G ",
"W W W Q M -.@X#X#X#X#X#X#X#X#X#X#X#X#X#X#X#X#X#X#X#X#X#X#X#X#X#X#X#X#X#X#X#X#X#X#X#X#X#X#X#X#X#X#X#X#X#X#X#X#X#X#X X7.o.Q W Q W ",
"W W W W G J.$X#X#X#X#X#X#X#X#X#X#X#X#X#X#X#X#X#X#X#X#X#X#X#X#X#X#X#X#X#X#X#X#X#X#X#X#X#X#X#X#X#X#X#X#X#X#X#X#X#X#X$Xc._ Y N P W ",
"W W W B -.:X,X#X+XOX#X#X#X#X#X#X#X#X#X#X#X#X#X#X#X#X#X#X#X#X#X#X#X#X#X#X#X#X#X#X#X#X#X#X#X#X#X#X#X#X#X#X#X#X#X#X#X#X_.;.! P W W ",
"+...+. .R A.E.0X7X,X%X#X+X#X#X#X#X#X#X#X#X#X#X#X#X#X#X#X#X#X#X#X#X#X#X#X#X#X#X#X#X#X#X#X#X#X#X#X#X#X#X#X#X#X#X#X#X#X@X4.| +.+...",
"{ { { { W f h J y V.9XwX6X&X#XOX+X#X#X#X#X#X#X#X#X#X#X#X#X#X#X#X#X#X#X#X#X#X#X#X#X#X#X#X#X#X#X#X#X#X#X#X#X#X#X#X#X#X$XD./ O.O.O.",
"2 ; 2 - > < < # & @ 2 a B.<XrX6X:X$X#X+X#X#X#X#X#X#X#X#X#X#X#X#X#X#X#X#X#X#X#X#X#X#X#X#X#X#X#X#X#X#X#X#X#X#X#X#X#X#X$X[.X # > > ",
"= = - 2 - - % < 2 2 1 @   % 0 d.V.0X7X6X&X#X+X+X#X#X#X#X#X#X#X#X#X#X#X#X#X#X#X#X#X#X#X#X#X#X#X#X#X#X#X#X#X#X#X#X#X#X#X#Xt & > % ",
"$ ; [ ` W G E G G E L L E E x j @ 9 a.W.4XwX6X&X#X#X+X#X#X#X#X#X#X#X#X#X#X#X#X#X#X#X#X#X#X#X#X#X#X#X#X#X#X#X#X#X#X#X+X$Xl.x E E ",
"$ 2 O.o.Q W W W U W P P U P U E % - } X.I :.Y.3XrX,X&X#X+X+X#X#X#X#X#X#X#X#X#X#X#X#X#X#X#X#X#X#X#X#X#X#X#X#X#X#X#X#X+X$XD.h U P ",
"$ 2 ` ..W W W W W W P W W W P E $ 2 O.+.W c c P ;.u.R.0X7X,X%X#X+X+X#X#X#X#X#X#X#X#X#X#X#X#X#X#X#X#X#X#X#X#X#X#X#X#X#X$X(.D W W ",
"$ 2 O.+.Q W Q W W W P P W W P G % 2 O.o.Q W Q W B m b ~ e.T.2X>X$X$X#X#X#X#X#X#X#X#X#X#X#X#X#X#X#X#X#X#X#X#X#X#X#X#X#X#X].D B W ",
"= 2  .o.........+.+.+. .W P U E % ; O.o.+.+.......+.+. .M v Y :.h.~.8X6X#X#X#X#X#X#X#X#X#X#X#X#X#X#X#X#X#X#X#X#X#X#X#X#XXXT B P ",
"= 2 [ O.{ { { O.{ { { ` E G E G $ ; [ O.{ { { { ` { O.{ W H E z & - 9.1XeX>X#X#X#X#X#X#X#X#X#X#X#X#X#X#X#X#X#X#X#X#X#X#XOX%.E E ",
"= = - - ; - - - 3 ; > - % % % % = = - - > - 3 > ; ; ; % % < % < , , *   g.-X#X#X#X#X#X#X#X#X#X#X#X#X#X#X#X#X#X#X#X#X#X#X+X7 & > ",
"; ; - % - - - % = = ; > % - - > ; ; - % - - - > $ $ > > < > > ; * & 1 u !.+X#X#X#X#X#X#X#X#X#X#X#X#X#X#X#X#X#X#X#X#X#X#XOX7 & 2 ",
"E G E E E E E G - ; [ ` E E E E E G E E E E E G % 2 [ O.W k k A $.<.^.#X$X#X#X#X#X#X#X#X#X#X#X#X#X#X#X#X#X#X#X#X#X#X#X#XoXF E E ",
"W Q Q W W W W W % > O.o.Q W W W W Q Q W W W U E 1 # _ _ J =.c.(.#X$X$X#X#X#X#X#X#X#X#X#X#X#X#X#X#X#X#X#X#X#X#X#X#X#X#X#X[.T Q W ",
"W W W W W W W E % - { +.W W W W W W W E P W B k % 7 4.D.].@X$X$X#X+X+X#X#X#X#X#X#X#X#X#X#X#X#X#X#X#X#X#X#X#X#X#X#X#X#X$X'.D W W ",
"W Q W W W W W G % - { ..Q W W W Q Q V B m D %.c.Q.oX$X$X#X#X#X#X#X#X#X#X#X#X#X#X#X#X#X#X#X#X#X#X#X#X#X#X#X#X#X#X#X#X#X$XK.B Q W ",
"........U U U G < > { #...#.o...} ) ] e.c._.@X$X$X#X#X+X#X#X#X#X#X#X#X#X#X#X#X#X#X#X#X#X#X#X#X#X#X#X#X#X#X#X#X#X#X#X+X$XS.| +.+.",
"{ { O.` E G E G % 2 [  .) ) / 7.y.K.].#X$X$X#X+X#X#X#X#X#X#X#X#X#X#X#X#X#X#X#X#X#X#X#X#X#X#X#X#X#X#X#X#X#X#X#X#X#X#X+X$Xt._ O.O.",
"; ; - > - > > > $ & @ o e j.Q.XX$X$X#X#X#X#X#X#X#X#X#X#X#X#X#X#X#X#X#X#X#X#X#X#X#X#X#X#X#X#X#X#X#X#X#X#X#X#X#X#X#X#X#X+X0 & 2 > ",
"= , - > - # @ @ 5 t g.).+X$X$X#X+X#X#X#X#X#X#X#X#X#X#X#X#X#X#X#X#X#X#X#X#X#X#X#X#X#X#X#X#X#X#X#X#X#X#X#X#X#X#X#X#X+X$X~.# % < < ",
"= ; [ O.H %.3.F.].#X$X#X#X#X+X#X#X#X#X#X#X#X#X#X#X#X#X#X#X#X#X#X#X#X#X#X#X#X#X#X#X#X#X#X#X#X#X#X#X#X#X#X#X#X#X#X#X+X$Xc.x E E G ",
"$ 2 +.| 2.@X$X$X$X#X#X+X+X#X#X#X#X#X#X#X#X#X#X#X#X#X#X#X#X#X#X#X#X#X#X#X#X#X#X#X#X#X#X#X#X#X#X#X#X#X#X#X#X#X#X#X#X#X%X*.b U P P ",
"= 3 { ..I }.&X+X#X#X#X#X#X#X#X#X#X#X#X#X#X#X#X#X#X#X#X#X#X#X#X#X#X#X#X#X#X#X#X#X#X#X#X#X#X#X#X#X#X#X#X#X#X#X#X#X#X$XL.n W W W W ",
"= : { +.M t.:X+X#X#X#X#X#X#X#X#X#X#X#X#X#X#X#X#X#X#X#X#X#X#X#X#X#X#X#X#X#X#X#X#X#X#X#X#X#X#X#X#X#X#X#X#X#X#X#X#X#X&X2.b W W W W ",
"= 2 O.#.+.@.}.$X+X#X#X#X#X#X#X#X#X#X#X#X#X#X#X#X#X#X#X#X#X#X#X#X#X#X#X#X#X#X#X#X#X#X#X#X#X#X#X#X#X#X#X#X#X#X#X#X&X|. ...U U W W ",
"= 2 [ O.{ _ p.$X+X#X#X#X#X#X#X#X#X#X#X#X#X#X#X#X#X#X#X#X#X#X#X#X#X#X#X#X#X#X#X#X#X#X#X#X#X#X#X#X#X#X#X#X#X#X#X#X&X8.} { E G E G ",
"= = : 3 > - 4 {.%X#X#X#X#X#X#X#X#X#X#X#X#X#X#X#X#X#X#X#X#X#X#X#X#X#X#X#X#X#X#X#X#X#X#X#X#X#X#X#X#X#X#X#X#X#X+X:Xb.# 2 > % % % % ",
"; ; - - > > & y :X#X#X#X#X#X#X#X#X#X#X#X#X#X#X#X#X#X#X#X#X#X#X#X#X#X#X#X#X#X#X#X#X#X#X#X#X#X#X#X#X#X#X#X#X#X%X*X5 = 2 > % - % % ",
"E E G E E E W j j.,X#X#X#X#X#X#X#X#X#X#X#X#X#X#X#X#X#X#X#X#X#X#X#X#X#X#X#X#X#X#X#X#X#X#X#X#X#X#X#X#X#X#X#X%X>X1.& 2 [ { W E G E ",
"W W Q W W W Q E % N.:X#X#X#X#X#X#X#X#X#X#X#X#X#X#X#X#X#X#X#X#X#X#X#X#X#X#X#X#X#X#X#X#X#X#X#X#X#X#X#X#X#X#X,XC.l > - O.o.W W Q W ",
"W W W W W W W E & 5 -X>X+X#X#X#X#X#X#X#X#X#X#X#X#X#X#X#X#X#X#X#X#X#X#X#X#X#X#X#X#X#X#X#X#X#X#X#X#X#X#X+X7XG.B G < - ` +.W W W W ",
"W W W Q E W B E < # r.=X>X#X#X#X#X#X#X#X#X#X#X#X#X#X#X#X#X#X#X#X#X#X#X#X#X#X#X#X#X#X#X#X#X#X#X#X#X#X#X6XL.L W E % - { +.Q W W W ",
"........Q W Q G < < } 0.5X6X+X#X#X#X#X#X#X#X#X#X#X#X#X#X#X#X#X#X#X#X#X#X#X#X#X#X#X#X#X#X#X#X#X#X+X%X7XI.U B Q E % -  .#.+.....+.",
"O.{ O.` E G W G < 3 [ _ 8.}.7X#X#X#X#X#X#X#X#X#X#X#X#X#X#X#X#X#X#X#X#X#X#X#X#X#X#X#X#X#X#X#X#X#X>X7XS.' W G E G % - [ O.{ { O.{ ",
"2 ; 2 - % % % % , = ; 2 * . N.7X5X#X#X#X#X#X#X#X#X#X#X#X#X#X#X#X#X#X#X#X#X#X#X#X#X#X#X#X#X+X%X8X5Xp # 3 < % % % $ $ - ; > - > 2 ",
"$ $ - 3 < % % % - - % % < # & s.5XwX;X+X+X#X#X#X#X#X#X#X#X#X#X#X#X#X#X#X#X#X#X#X#X#X#X+X+X6XwX`.6 & > > % % % % % - % % % % % % ",
"$ ; [ ` E G E E E E E E E E E j 6 b.rXwX;X#X#X#X#X#X#X#X#X#X#X#X#X#X#X#X#X#X#X#X+X+X+X6XeX2Xy.S & 4 [ ` E G E E L E E E E E G L ",
"$ 2  .o.Q W W W P P P P W W Q E = @ 6.U.0XeX8X%X+X+X+X+X#X#X#X#X#X#X#X#X#X+X+X+X>XwXtX2Xt.I v E < <  .o.Q P W P P P P P W P P P ",
"= 2  ...W W W W E W W W W W W G < 3 _ | *.C.1XrXtXwX6X>X%X%X#X#X#X#X%X>X6XwXeXtX0XP.e.I m B Q G < > { ..W W W W E W W W W W W W ",
"= 2 { +.Q W W W Q W W W W W Q E % ; O.+.B v I *.A.P.4XqXyXyXtXtXtXtXyXyX4X3XS.e.R v v b W W W E < > O...Q W W W Q W W W B P W W ",
"= 2 { o. .+. ...+. ... .W W W E % > O... .+.+.} } } @.q.;.e.e.5.y y w.q.@.X.} }  .O.+.O.Q W Q E % ; { o. .+. ...+. ... .W W W W ",
"= ; { #.+.+.+.+.+.+...+.Q W W E % 3 ` #.+...+.+.#.+...| B m M k + & _ o.+.+.o.o.+.+.+.+.P W W E $ 3 { #.+.+.+.+.+.+.....W W W L "
};
