/* XPM */
static char *left21708526649[] = {
/* columns rows colors chars-per-pixel */
"64 64 222 2 ",
"   c #122E1D",
".  c #1A361C",
"X  c #283918",
"o  c #022226",
"O  c #0B2524",
"+  c #012F27",
"@  c #0C2E27",
"#  c #012329",
"$  c #092329",
"%  c #012F28",
"&  c #0D2E28",
"*  c #112627",
"=  c #112E27",
"-  c #122D28",
";  c #0E3026",
":  c #013129",
">  c #0D3028",
",  c #033027",
"<  c #123127",
"1  c #133128",
"2  c #1C3822",
"3  c #7A1B11",
"4  c #7B330B",
"5  c #1E411C",
"6  c #34441A",
"7  c #344716",
"8  c #3D541A",
"9  c #294115",
"0  c #475718",
"q  c #565B14",
"w  c #7E410A",
"e  c #7F5108",
"r  c #50651C",
"t  c #6D780E",
"y  c #757E0E",
"u  c #697514",
"i  c #4D5C24",
"p  c #4C6125",
"a  c #5C6C23",
"s  c #6A7E2A",
"d  c #707C25",
"f  c #88190F",
"g  c #9A150E",
"h  c #94170E",
"j  c #8E1511",
"k  c #951612",
"l  c #9B1611",
"z  c #951A13",
"x  c #9B1A13",
"c  c #A5140C",
"v  c #AA140C",
"b  c #A7190C",
"n  c #AC1E0A",
"m  c #AC1D07",
"M  c #A51611",
"N  c #AB1711",
"B  c #A31B12",
"V  c #AB1A11",
"C  c #B21C12",
"Z  c #B21711",
"A  c #89240D",
"S  c #98280D",
"D  c #863B09",
"F  c #88340A",
"G  c #9C340C",
"H  c #9D380B",
"J  c #8D2010",
"K  c #952312",
"L  c #9B2413",
"P  c #AE220F",
"I  c #A92A08",
"U  c #B1230F",
"Y  c #A53C0D",
"T  c #AC370C",
"R  c #B3340B",
"E  c #A22312",
"W  c #AC2210",
"Q  c #AE2914",
"!  c #B22311",
"~  c #BA2418",
"^  c #B82013",
"/  c #CC2719",
"(  c #DE2216",
")  c #D3241C",
"_  c #DB241C",
"`  c #D42C1D",
"'  c #DD2E1B",
"]  c #DD2D15",
"[  c #C93F15",
"{  c #D1301C",
"}  c #DE301C",
"|  c #DA3B14",
" . c #E4241B",
".. c #EA261C",
"X. c #E42D1C",
"o. c #EB2F1A",
"O. c #EA2116",
"+. c #F12E1A",
"@. c #F3221C",
"#. c #E2311C",
"$. c #EC311B",
"%. c #E83B14",
"&. c #F2311B",
"*. c #F8301C",
"=. c #8A4607",
"-. c #95570B",
";. c #994B0D",
":. c #A34B0B",
">. c #AF4109",
",. c #B44B0A",
"<. c #BA4C0C",
"1. c #A95E08",
"2. c #BB540A",
"3. c #BD590E",
"4. c #BB4E13",
"5. c #BF5B12",
"6. c #8A6A05",
"7. c #8A7305",
"8. c #9E7B03",
"9. c #966609",
"0. c #A86A08",
"q. c #B07806",
"w. c #D44514",
"e. c #DA5816",
"r. c #E84F11",
"t. c #EB4C17",
"y. c #C5660F",
"u. c #C96E0B",
"i. c #C6790B",
"p. c #C56A13",
"a. c #CC781A",
"s. c #EB7B14",
"d. c #C77F21",
"f. c #7C810B",
"g. c #6C831B",
"h. c #878309",
"j. c #9D8003",
"k. c #989B06",
"l. c #BF8609",
"z. c #AE9A02",
"x. c #A89803",
"c. c #B99F02",
"v. c #9FA016",
"b. c #AAA005",
"n. c #A9A908",
"m. c #BAA900",
"M. c #B8A203",
"N. c #B3B013",
"B. c #B9B525",
"V. c #A9A632",
"C. c #D8840B",
"Z. c #C19904",
"A. c #C8871F",
"S. c #D69A19",
"D. c #C1A302",
"F. c #C8BE00",
"G. c #CBB204",
"H. c #D1A509",
"J. c #E4AA0A",
"K. c #E1B81C",
"L. c #E3BC0A",
"P. c #CA8720",
"I. c #D28E22",
"U. c #D39421",
"Y. c #F19E22",
"T. c #F38425",
"R. c #DDAA2C",
"E. c #E9AB2F",
"W. c #E1B925",
"Q. c #CBC200",
"!. c #C7C303",
"~. c #D8C301",
"^. c #D5CA00",
"/. c #D6C803",
"(. c #D6D300",
"). c #DBD500",
"_. c #DFDA00",
"`. c #E7CF01",
"'. c #E5DB01",
"]. c #E7D704",
"[. c #E9CF14",
"{. c #EFD40C",
"}. c #EBE200",
"|. c #EEEA00",
" X c #E4E000",
".X c #F3E601",
"XX c #F3EC00",
"oX c #FDEF00",
"OX c #F6E904",
"+X c #F6F200",
"@X c #FFF200",
"#X c #FFFB00",
"$X c #FFF60E",
"%X c #FFFE0B",
"&X c #F6F10C",
"*X c #EDE216",
"=X c #F5E312",
"-X c #F4E81B",
";X c #FFF611",
":X c #FFFB14",
">X c #FFFE1D",
",X c #D2CF38",
"<X c #DFDD36",
"1X c #C6CA37",
"2X c #F9D921",
"3X c #E7C434",
"4X c #FBCE35",
"5X c #F1DD35",
"6X c #E9C525",
"7X c #F3EB21",
"8X c #F6E721",
"9X c #FFFF23",
"0X c #FFFF2C",
"qX c #FEF727",
"wX c #FBEB38",
"eX c #F5E838",
"rX c #FFFD34",
"tX c #FDF73A",
"yX c #FFFE3C",
"uX c #F7F030",
"iX c #EDE427",
"pX c #FDF741",
/* pixels */
"% % % % % % % % % % % % + + % % % % : % % % % % , + % : + : : + : : : % % : % % + + + + + % % % % % % : % % % % % + + % % % : % ",
"= & & = = = & = & = @ + 1 = = = = = & = & < 1 1 % % * O $ $ $ $ $ $ O - - 1 < = + + = 1 = = = = = & = & = = & = + + = < = = = & ",
"E E E E E E E E E L & & ` ' E E E E E E E x k 3 . 6 -.9.7.7.7.7.6.e 4 4 f z B L & > { } E L E E E E E E E E E K & = { ' E E E E ",
"P ! W W P W P P U E @ & #.+.! P ! ! n g J =.8.m./.'.XX@X@X@X#X@X@XXX X^.m.j.=.3 o + $.&.^ P P P P P W P W W ^ E & = #.+.U W W W ",
"P E W W W E W E W E @ & } $.P P B f D j.!.|.#X#X@X@X@X@X@X@X@X@X@X@X@X@X#X#X|.!.h.7 ^ ..P W W W W W W W W E W E @ < } $.! W W E ",
"W ! ! W W W W W W E @ & } &.^ h =.z. X#X#X@X@X@X@X@X@X@X@X@X@X@X@X@X@X@X@X@X@X#X#X}.M.;.h U Q Q W W W W W W W E @ & } o.! W W ! ",
"o.o.$.o.! P W V U E & < #. .Y x.}.#X@XoXoX@X@X@X@X@X@X@X@X@X@X@X@X@X@X@X@X@X@XoXoX@X#X|.z.Y _ &.o.o.+.o.! W ^ E + = X.&.$.$.o.+.",
"X.} #.' E E E E E L > & ! 0.(.#X@X@X@X@X@X@X@X@X@X@X@X@X@X@X@X@X@X@X@X@X@X@X@X@X@X@X@X@X#X(.0.~ ' #.#.' E L E K & = { #.} } } X.",
"= < = > @ @ @ @ @ > %   x.+X#X@X@X@X@X@X@X@X@X@X@X@X@X@X@X@X@X@X@X@X@X@X@X@X@X@X@X@X@X@X@X#X+Xx.X @ < > @ @ @ & + + & = @ ; < @ ",
"+ + & & @ > @ > < o X F.#X@XoX@X@X@X@X@X@X@X@X@X@X@X@X@X@X@X@X@X@X@X@X@X@X@X@X@X@X@X@X@X@X@X@X#XF.9 o < @ @ @ > & & @ @ @ & @ @ ",
"+ = { } E L E E x 4 ).#X@X@X@X@X@X@X@X@X@X@X@X@X@X@X@X@X@X@X@X@X@X@X@X@X@X@X@X@X@X@X@X@X@X@X@X@X#X).;.) E E E L E E E E E E E E ",
"+ 1 X.+.U P U V =.).#X@X@X@X@X@X@X@X@X@X@X@X@X@X@X@X@X@X@X@X@X@X@X@X@X@X@X@X@X@X@X@X@X@X@X@X@X@X@X@X'.:.V P P P P P P P P P P P ",
"+ = #.o.W W V F (.#XoX@X@X@X@X@X@X@X@X@X@X@X@X@X@X@X@X@X@X@X@X@X@X@X@X@X@X@X@X@X@X@X@X@X@X@X@X@X@X@X#X(.D V W W W W E P P W E P ",
"+ 1 X.o.U C A Q.#XoX@X@X@X@X@X@X@X@X@X@X@X@X@X@X@X@X@X@X@X@X@X@X@X@X@X@X@X@X@X@X@X@X@X@X@X@X@X@X@X@XoX#XQ.A ! W W P U P P W E n ",
"+ 1 #.+.$.) Z.#XoX@X@X@X@X@X@X@X@X@X@X@X@X@X@X@X@X@X@X@X@X@X@X@X@X@X@X@X@X@X@X@X@X@X@X@X@X@X@X@X@X@X@XoX#XM./ &.o.o.$.o.U P P W ",
"+ 1 { #._ y.+X@XoX@X@X@X@X@X@X@X@X@X@X@X@X@X@X@X@X@X@X@X@X@X@X@X@X@X@X@X@X@X@X@X@X@X@X@X@X@X@X@X@X@X@X@X@X@X0.) } } X.' E L E E ",
"% % > & 2 '.#X@X@X@X@X@X@X@X@X@X@X@X@X@X@X@X@X@X@X@X@X@X@X@X@X@X@X@X@X@X@X@X@X@X@X@X@X@X@X@X@X@X@X@X@X@X@X@X_.X @ = > & & & @ @ ",
"= = < # t @XoX@X@X@X@X@X@X@X@X@X@X@X@X@X@X@X@X@X@X@X@X@X@X@X@X@X@X@X@X@X@X@X@X@X@X@X@X@X@X@X@X@X@X@X@X@X@XoX#Xk.# : & < & & & & ",
"L E B G *X9X@XoX@X@X@X@X@X@X@X@X@X@X@X@X@X@X@X@X@X@X@X@X@X@X@X@X@X@X@X@X@X@X@X@X@X@X@X@X@X@X@X@X@X@X@X@X@X@X@XOX7 @ { } E E E L ",
"U W W U 5.R.eX0X$X@X@X@X@X@X@X@X@X@X@X@X@X@X@X@X@X@X@X@X@X@X@X@X@X@X@X@X@X@X@X@X@X@X@X@X@X@X@X@X@X@X@X@X@X@X@X#Xk.o #.+.U P P U ",
"W W W W c b T P.,XrX>X@XoX@X@X@X@X@X@X@X@X@X@X@X@X@X@X@X@X@X@X@X@X@X@X@X@X@X@X@X@X@X@X@X@X@X@X@X@X@X@X@X@X@X@X@X.X6 ` $.P P E P ",
"W W W W W W V g @ p E.wX0X:X@XoX@X@X@X@X@X@X@X@X@X@X@X@X@X@X@X@X@X@X@X@X@X@X@X@X@X@X@X@X@X@X@X@X@X@X@X@X@X@X@X@X@Xh./ $.! P W W ",
"o.o.+.o.! W U E > o ( t.T.4XrX9X@X+X@X@X@X@X@X@X@X@X@X@X@X@X@X@X@X@X@X@X@X@X@X@X@X@X@X@X@X@X@X@X@X@X@X@X@X@X@XoX#XQ./ *.o.o.o.$.",
"} #.#.' E L E L & - ` X.( ] e.E.eX0X:X@X@X@X@X@X@X@X@X@X@X@X@X@X@X@X@X@X@X@X@X@X@X@X@X@X@X@X@X@X@X@X@X@X@X@X@X@X@XXX4.X.#.#.#.#.",
"- = < & @ @ @ @ % + = < > < O O 2 s 1XtX>X@X@XoX@X@X@X@X@X@X@X@X@X@X@X@X@X@X@X@X@X@X@X@X@X@X@X@X@X@X@X@X@X@X@X@X@X#Xf.o < > ; ; ",
": % > & & & @ @ & & @ @ & & > > % # O i V.eX>X%X@XoX@X@X@X@X@X@X@X@X@X@X@X@X@X@X@X@X@X@X@X@X@X@X@X@X@X@X@X@X@X@X@X#Xn.o > > @ @ ",
"+ = { X.E E E E L E E L E E E L ; < { ` h T a.6XqX%X@X@X@X@X@X@X@X@X@X@X@X@X@X@X@X@X@X@X@X@X@X@X@X@X@X@X@X@X@X@XoX#X/.J W E L E ",
"+ 1 #.+.! P W U U U P P ! n U E @ < #.&.! B c n 4.S.=X%X#X@XoX@X@X@X@X@X@X@X@X@X@X@X@X@X@X@X@X@X@X@X@X@X@X@X@X@X@X@X}.Y n P P P ",
"+ 1 #.o.W E W E P W W W W E W L + < } o.W W W W b c Q p.`.&X9X:XoXoX@X@X@X@X@X@X@X@X@X@X@X@X@X@X@X@X@X@X@X@X@X@X@X@XXX:.M Q P E ",
"+ = #.o.! ! ! W P P W P P P P E @ < #.o.! W ! W ! W W c N ,.S.5XrX:XoX@X@X@X@X@X@X@X@X@X@X@X@X@X@X@X@X@X@X@X@X@X@X@X@X1.M W P P ",
"+ 1 X.+.o.o.$.o.o.o.o.X.! P U E + < X.+.o.o.o.o.$.$.$.$.^ b v I s <XyX:X@X@X@X@X@X@X@X@X@X@X@X@X@X@X@X@X@X@X@X@X@X@X#Xu.Z P W W ",
"+ 1 { #.' X.} } ' ' #.} E L E L @ = { #.} } } #.} } } ' E L W K o 2 l.iX#X@X@X@X@X@X@X@X@X@X@X@X@X@X@X@X@X@X@X@X@X@X#Xi.B L E E ",
"% % & = & & & & = = & & @ & & & % % & = > = & < = = > & > > > & o   y ].@X@X@X@X@X@X@X@X@X@X@X@X@X@X@X@X@X@X@X@X@X@X#Xu o > @ @ ",
"= & & & & & & @ + + < > @ & & & = = & & & & & > + + > < & $ o . y /.#X@XoX@X@X@X@X@X@X@X@X@X@X@X@X@X@X@X@X@X@X@X@X@X#Xu # > & & ",
"E E E E E E W K @ & { } E L E E E L E E E E E L > < ` ) J 0.G.XX#X@X@X@X@X@X@X@X@X@X@X@X@X@X@X@X@X@X@X@X@X@X@X@X@X@X#X5.B L E E ",
"W P W P P P U E @ > X.+.! P W W ! W W W W W U E o o [ C.`.#X#X@X@X@X@X@X@X@X@X@X@X@X@X@X@X@X@X@X@X@X@X@X@X@X@X@X@X@X+Xe.C P P P ",
"W W W W W W W L @ @ } o.W W W W W P E P W V B f 0 n.XX#X#X@X@X@X@X@X@X@X@X@X@X@X@X@X@X@X@X@X@X@X@X@X@X@X@X@X@X@X@X@X}.w.C P E P ",
"W W W W W W W L @ & } o.! Q W W W ! ! V l G q.~.@X#X@X@X@X@X@X@X@X@X@X@X@X@X@X@X@X@X@X@X@X@X@X@X@X@X@X@X@X@X@X@X@X#X].] ^ P W W ",
"o.o.o.o.U P U E @ = #.&.$.$.$.$.....` y.c.'.#X#X@X@X@X@X@X@X@X@X@X@X@X@X@X@X@X@X@X@X@X@X@X@X@X@X@X@X@X@X@X@X@X@XoX#XJ.X.$.$.$.$.",
"#.} #.' W L E L @ = { #.#.} ` / [ i.F.XX#X@X@X@X@X@X@X@X@X@X@X@X@X@X@X@X@X@X@X@X@X@X@X@X@X@X@X@X@X@X@X@X@X@X@X@X@X#XC._ #.#.#.#.",
"- < & & ; @ @ @ : : 1 & $ = q x.'.#X#X@X@X@X@X@X@X@X@X@X@X@X@X@X@X@X@X@X@X@X@X@X@X@X@X@X@X@X@X@X@X@X@X@X@X@X@X@X@X@X8 $ < ; ; ; ",
": % > = @ ; ; > 1 O o 5 y Q.@X#X@XoX@X@X@X@X@X@X@X@X@X@X@X@X@X@X@X@X@X@X@X@X@X@X@X@X@X@X@X@X@X@X@X@X@X@X@X@X@XoX%X/.@ > > @ @ @ ",
"% = ` #.E E x h A -.M.}.#X#X@XoX@X@X@X@X@X@X@X@X@X@X@X@X@X@X@X@X@X@X@X@X@X@X@X@X@X@X@X@X@X@X@X@X@X@X@X@X@X@X@X@X%Xl.l E E E E L ",
"+ 1 #.+.n g Y q.~.@X#X@XoXoX@X@X@X@X@X@X@X@X@X@X@X@X@X@X@X@X@X@X@X@X@X@X@X@X@X@X@X@X@X@X@X@X@X@X@X@X@X@X@X@X@X@XXXY V W P P P U ",
"+ 1 #.#.1.D.}.#X#X@XoXoX@X@X@X@X@X@X@X@X@X@X@X@X@X@X@X@X@X@X@X@X@X@X@X@X@X@X@X@X@X@X@X@X@X@X@X@X@X@X@X@X@X@XoX%XH.B W P P W W E ",
"+ 1 } %.{.%X@X@X@X@X@X@X@X@X@X@X@X@X@X@X@X@X@X@X@X@X@X@X@X@X@X@X@X@X@X@X@X@X@X@X@X@X@X@X@X@X@X@X@X@X@X@X@X@X@X&X,.V W W P W E n ",
"+ < #.@.s.#X@X@X@X@X@X@X@X@X@X@X@X@X@X@X@X@X@X@X@X@X@X@X@X@X@X@X@X@X@X@X@X@X@X@X@X@X@X@X@X@X@X@X@X@X@X@X@XoX$XJ. .$.o.o.U P W U ",
"+ < { #.` {.#X@X@X@X@X@X@X@X@X@X@X@X@X@X@X@X@X@X@X@X@X@X@X@X@X@X@X@X@X@X@X@X@X@X@X@X@X@X@X@X@X@X@X@X@X@X@X$X=Xw.X.} X.' E L E E ",
"% % & < o r :X@X@X@X@X@X@X@X@X@X@X@X@X@X@X@X@X@X@X@X@X@X@X@X@X@X@X@X@X@X@X@X@X@X@X@X@X@X@X@X@X@X@X@X@X@X@X:Xu # 1 1 & & @ @ @ @ ",
"= & & & & o v.:X@X@X@X@X@X@X@X@X@X@X@X@X@X@X@X@X@X@X@X@X@X@X@X@X@X@X@X@X@X@X@X@X@X@X@X@X@X@X@X@X@X@X@XoX:XN.# > : : = > > & & @ ",
"E E E E E E S [.>XoX@X@X@X@X@X@X@X@X@X@X@X@X@X@X@X@X@X@X@X@X@X@X@X@X@X@X@X@X@X@X@X@X@X@X@X@X@X@X@X@XoX:X[.G E L & = { } W L E E ",
"P W W P P U C Y *X:XoX@X@X@X@X@X@X@X@X@X@X@X@X@X@X@X@X@X@X@X@X@X@X@X@X@X@X@X@X@X@X@X@X@X@X@X@X@X@XoX:X-X>.V ! E @ > #.+.P P P P ",
"W W W W E W ! z 0 7X:XoX@X@X@X@X@X@X@X@X@X@X@X@X@X@X@X@X@X@X@X@X@X@X@X@X@X@X@X@X@X@X@X@X@X@X@X@X@X:X7X,.M Q W E @ = } $.P E P P ",
"W W ! W W W ! E # 8 8X>XoX@X@X@X@X@X@X@X@X@X@X@X@X@X@X@X@X@X@X@X@X@X@X@X@X@X@X@X@X@X@X@X@X@X@XoX>X7X2.N P P W E @ & } o.! W W W ",
"o.o.$.o.! P U E > o w.2X9XoX@X@X@X@X@X@X@X@X@X@X@X@X@X@X@X@X@X@X@X@X@X@X@X@X@X@X@X@X@X@X@X@X@X9X2Xr...$.P P U E @ & #.+.o.o.o.o.",
"#.} #.' E L E K & < ) | K.rX;XoX@X@X@X@X@X@X@X@X@X@X@X@X@X@X@X@X@X@X@X@X@X@X@X@X@X@X@X@XoX;X0XK.| _ #.} E L E L @ & { #.#.#.#.#.",
"= = = & @ @ @ @ : % < = O u uX0X@X@X@X@X@X@X@X@X@X@X@X@X@X@X@X@X@X@X@X@X@X@X@X@X@X@X@X@X0XuXg.O - < < & @ @ @ @ + + & < & ; ; ; ",
"+ + > > @ & @ & & & @ @ > o 9 B.tX0X@X@X@X@X@X@X@X@X@X@X@X@X@X@X@X@X@X@X@X@X@XoX@X@X0XtXB.7 o > + + & > @ @ @ & & & @ @ @ @ @ @ ",
"+ = ` #.E L L E E E E E E E x f 0 B.tXrX:X@XoXoX@X@X@X@X@X@X@X@X@X@X@X@XoX@XoX:XrXtXW.3.h K W L @ = ` } E L E E E E E E E E E E ",
"+ 1 #.+.U P W P P P W P ! W ! E o O e.Y.5XpXrX9X:X@XoXoXoXoXoX@X@X@X@X$X9XrXpX5XS.<.b V U U W E @ < #.+.! P W P P P P P P P P P ",
"+ 1 X.o.W W E P P W E P W W W L > < ' O.I 3.U.3XpXpXyXyXrXrXrXrXyXpXpXpX3XU.5.I b b W W V W W E + < ' o.W P E W W W W P P W n E ",
"+ 1 #.o.! P U ! W W U P W W W E & < } $.^ V v n P <.y.a.A.I.I.P.s a t.%.m v b C ! U W W W W W E @ = #.o.! P U P P W P P P W W W ",
"+ 1 } +.X.$.X.o.#.o.o.X.! E W E + = #.o.X.$.$.X.X... .( v c v g o o ' +.#.$.$.$.o.X.#.X.W W ! E & = ' +.X.$.o.$.#.X.$.X.W P W W ",
"% 1 ' &.$.&.$.+.$.$.$.$.! W ! E & < } &.$.$.&.$.$.$.&.o.Q P P E > < #.&.$.$.$.$.$.$.&.$.W W W E + < } &.o.$.$.$.$.$.$.$.! V W E "
};
