/* XPM */
static char *left41708526649[] = {
/* columns rows colors chars-per-pixel */
"64 64 224 2 ",
"   c #1F3C18",
".  c #25371A",
"X  c #031F29",
"o  c #012327",
"O  c #092427",
"+  c #032C26",
"@  c #0C2E27",
"#  c #022429",
"$  c #0E2628",
"%  c #012F28",
"&  c #0C2E28",
"*  c #112E27",
"=  c #112C28",
"-  c #142B28",
";  c #063127",
":  c #0E3027",
">  c #013129",
",  c #0E3128",
"<  c #123027",
"1  c #113128",
"2  c #1E3B22",
"3  c #233A21",
"4  c #2D441C",
"5  c #23431C",
"6  c #33481A",
"7  c #3C531A",
"8  c #224221",
"9  c #5F5D0D",
"0  c #405013",
"q  c #5C640E",
"w  c #556A14",
"e  c #4E661C",
"r  c #626C11",
"t  c #667917",
"y  c #6E7709",
"u  c #455825",
"i  c #506327",
"p  c #687826",
"a  c #757D2B",
"s  c #8F160F",
"d  c #9D1D0F",
"f  c #921B0E",
"g  c #8F1B13",
"h  c #9B1612",
"j  c #931B11",
"k  c #9E1C11",
"l  c #971712",
"z  c #AA150C",
"x  c #A61B0D",
"c  c #AA190B",
"v  c #A5140E",
"b  c #A41611",
"n  c #AB1611",
"m  c #A31B11",
"M  c #AC1C11",
"N  c #B21D11",
"B  c #8A270F",
"V  c #93240F",
"C  c #9A230D",
"Z  c #992A0D",
"A  c #8A380C",
"S  c #9B340D",
"D  c #943B0C",
"F  c #9C2313",
"G  c #972414",
"H  c #AE230F",
"J  c #A6290D",
"K  c #B1220F",
"L  c #B22B0B",
"P  c #A6370C",
"I  c #B83C0A",
"U  c #A22312",
"Y  c #AC2210",
"T  c #B22310",
"R  c #B73A12",
"E  c #CB2B1A",
"W  c #C42A1A",
"Q  c #DD241D",
"!  c #D3291D",
"~  c #DD2D1B",
"^  c #D2301C",
"/  c #DE301C",
"(  c #D53516",
")  c #E32316",
"_  c #E4241B",
"`  c #E52E1B",
"'  c #EB2F1A",
"]  c #E92718",
"[  c #F22E1A",
"{  c #F3261D",
"}  c #E2311C",
"|  c #ED311B",
" . c #E73814",
".. c #F2311B",
"X. c #874B0A",
"o. c #86430A",
"O. c #875208",
"+. c #925C07",
"@. c #98450C",
"#. c #A14E09",
"$. c #B24609",
"%. c #A8580A",
"&. c #BB570A",
"*. c #B84111",
"=. c #B14713",
"-. c #BC5515",
";. c #976F04",
":. c #946705",
">. c #A87A06",
",. c #B87C07",
"<. c #AD630A",
"1. c #DF4E0F",
"2. c #C7580F",
"3. c #C25C10",
"4. c #D24E13",
"5. c #EB5811",
"6. c #C4650F",
"7. c #D3700F",
"8. c #C3631A",
"9. c #C66A12",
"0. c #D96311",
"q. c #C17513",
"w. c #C3730B",
"e. c #E96914",
"r. c #E5731B",
"t. c #CC7E20",
"y. c #7C8910",
"u. c #9D8303",
"i. c #968D04",
"p. c #8F910A",
"a. c #8B9314",
"s. c #A58603",
"d. c #A79002",
"f. c #A69E03",
"g. c #BC9C03",
"h. c #B19F03",
"j. c #B18905",
"k. c #AEA300",
"l. c #A6A70A",
"z. c #B5AD02",
"x. c #B8A202",
"c. c #BDB300",
"v. c #BEBA00",
"b. c #BABE10",
"n. c #A7A531",
"m. c #C38608",
"M. c #C69507",
"N. c #D7940C",
"B. c #D08713",
"V. c #C4A302",
"C. c #C6AB02",
"Z. c #CBB402",
"A. c #C3BC00",
"S. c #C6B703",
"D. c #D4B404",
"F. c #D3BD02",
"G. c #DEB50C",
"H. c #DAA612",
"J. c #DEB312",
"K. c #DBAB08",
"L. c #F2BC0D",
"P. c #E7B515",
"I. c #D08A24",
"U. c #D89824",
"Y. c #EA8A28",
"T. c #DEA82A",
"R. c #E3B72A",
"E. c #F5B12F",
"W. c #CCC502",
"Q. c #C8C500",
"!. c #D4C501",
"~. c #D3CC00",
"^. c #DBC801",
"/. c #D5D300",
"(. c #DCD300",
"). c #DFDB00",
"_. c #E2D700",
"`. c #E4DA00",
"'. c #E9DD00",
"]. c #E5DD0C",
"[. c #F6C41C",
"{. c #EFDE15",
"}. c #E9C515",
"|. c #E6E400",
" X c #EBE400",
".X c #F4E701",
"XX c #F3EB01",
"oX c #FDEF00",
"OX c #FFEF09",
"+X c #F5E90C",
"@X c #F5F200",
"#X c #FFF200",
"$X c #FFFB01",
"%X c #FEF10B",
"&X c #FFFB0B",
"*X c #F7F30D",
"=X c #FEF314",
"-X c #FFFE16",
";X c #FFF31B",
":X c #FFFE1B",
">X c #F5EC1A",
",X c #C6C823",
"<X c #D8CB34",
"1X c #F2DD2E",
"2X c #EDCD35",
"3X c #EFD733",
"4X c #F2DA34",
"5X c #E9CF27",
"6X c #F7ED26",
"7X c #FFF524",
"8X c #FFFD25",
"9X c #FDF72C",
"0X c #FFFD2C",
"qX c #FBED34",
"wX c #F4EC35",
"eX c #FFFB32",
"rX c #FFFE3B",
"tX c #FBF437",
"yX c #E7E43A",
"uX c #F7EA44",
"iX c #FFFF42",
"pX c #FFFE4B",
"aX c #FAF54F",
"sX c #FEFF52",
/* pixels */
"% % % > % % % > % % ; % % % % % % % > % % % % % ; % % % + > > > > > > > > % % % % + > % % % > % % % % % % % % % % % + > + % > % ",
"* & & = 1 = & * * & + ; < < * * * 1 & * & * * * ; ; < - = = $ $ $ $ $ $ = = = = ; + * < * * * * & * & = & * = * ; + * 1 : & & * ",
"U U U U U U U F Y G & & ^ ` Y F U U U U U U U G % O W W A A X.O.O.O.O.o.A B V j # & ^ / U U U U U U U U U U Y G & & ^ / Y U U U ",
"H K Y H Y T c Y Y U @ & } ' T H Y Y Y Y K M M V 6 q s.x.c.W./.(.(.(./.~.A.z.d.;.7   ! { T K H Y H Y K Y Y Y Y U @ , } [ Y Y H H ",
"Y Y Y Y Y Y Y Y H U & : ~ | H Y Y Y Y M h A :.k.!.'.XX@X$X#X#X#X#X$X#X#X#X#X@X X(.c.s.%.V m Y J Y Y Y Y Y Y Y U @ & / | Y Y Y Y ",
"Y Y T Y Y Y Y Y H U @ & / ' Y H T T m D s.Q.|.#X#X#X#X#X#X#X#X#X#X#X#X#X#X#X#X#X#X@XXX~.k.+.Z M T Y H T Y Y Y F @ & / ' T Y Y Y ",
"' ' ' ' Y Y Y Y H Y & * } ..| ..] R s.Q.XX#X#X#X#X#X#X#X#X#X#X#X#X#X#X#X#X#X#X#X#X#X#X#X#X).k.%.! ' ..` Y H H Y @ : ` ..| ' ' | ",
"} / } / U F U U U G & 1 ^ } ~ E <.v.XX#X#X#X#X#X#X#X#X#X#X#X#X#X#X#X#X#X#X#X#X#X#X#X#X#X#X#X#X/.d.*.! / U F U G @ & ^ } / } / } ",
"* 1 1 & @ @ @ & @ @ > % 1 O . i.`.#X#X#X@X#X#X#X#X#X#X#X#X#X#X#X#X#X#X#X#X#X#X#X#X#X#X#X#X#X#X#XXXv.9 $ & @ @ @ > + & 1 : : @ < ",
"> + & : : @ : & @ @ = 1 + 4 z.oX#X#X#X#X#X#X#X#X#X#X#X#X#X#X#X#X#X#X#X#X#X#X#X#X#X#X#X#X#X#X#X#X#X#X(.y @ & @ @ & & @ @ & @ @ @ ",
"+ < ^ ~ U F U F F U U m A W.#X#X#X#X#X#X#X#X#X#X#X#X#X#X#X#X#X#X#X#X#X#X#X#X#X#X#X#X#X#X#X#X#X#X#X#X#X Xu.B Y F U U U U U U U U ",
"+ < ` [ T H Y H H H c Z D.$X#X#X#X#X#X#X#X#X#X#X#X#X#X#X#X#X#X#X#X#X#X#X#X#X#X#X#X#X#X#X#X#X#X#X#X#X@X#X Xs.C N H H H H H H H H ",
"> 1 } ' Y H Y Y H M V S.$X#X#X#X#X#X#X#X#X#X#X#X#X#X#X#X#X#X#X#X#X#X#X#X#X#X#X#X#X#X#X#X#X#X#X#X#X#X#X#X#X Xu.G Y Y Y Y H x Y Y ",
"+ 1 ~ ' Y H Y Y T d V.$X#X#X#X#X#X#X#X#X#X#X#X#X#X#X#X#X#X#X#X#X#X#X#X#X#X#X#X#X#X#X#X#X#X#X#X#X#X#X#X#X#X#X|.;.x T Y Y H Y U Y ",
"+ < } [ | | | | Q m.$X#X#X#X#X#X#X#X#X#X#X#X#X#X#X#X#X#X#X#X#X#X#X#X#X#X#X#X#X#X#X#X#X#X#X#X#X#X#X#X#X#X#X#X$X/.%.] | ` K H H Y ",
"> < ^ } / / / Q 3.XX#X#X#X#X#X#X#X#X#X#X#X#X#X#X#X#X#X#X#X#X#X#X#X#X#X#X#X#X#X#X#X#X#X#X#X#X#X#X#X#X#X#X#X#X#X#XS.R ` ^ Y U U F ",
"% % & * = : & 3 (.$X#X#X#X#X#X#X#X#X#X#X#X#X#X#X#X#X#X#X#X#X#X#X#X#X#X#X#X#X#X#X#X#X#X#X#X#X#X#X#X#X#X#X#X#X#X#X#Xp.O , : @ @ @ ",
"* * & & & 1 X t $XoX#X#X#X#X#X#X#X#X#X#X#X#X#X#X#X#X#X#X#X#X#X#X#X#X#X#X#X#X#X#X#X#X#X#X#X#X#X#X#X#X#X#X#X#X#X#X#X_.7 O , : & @ ",
"U U U U F Y g Z.$XoX#X#X#X#X#X#X#X#X#X#X#X#X#X#X#X#X#X#X#X#X#X#X#X#X#X#X#X#X#X#X#X#X#X#X#X#X#X#X#X#X#X#X#X#X#X#X#X#Xx.W Y U F U ",
"Y Y H Y H n <.@X#X#X#X#X#X#X#X#X#X#X#X#X#X#X#X#X#X#X#X#X#X#X#X#X#X#X#X#X#X#X#X#X#X#X#X#X#X#X#X#X#X#X#X#X#X#X#X#X#X#X|.&.N H H H ",
"Y Y J H H d F.$XoX#X#X#X#X#X#X#X#X#X#X#X#X#X#X#X#X#X#X#X#X#X#X#X#X#X#X#X#X#X#X#X#X#X#X#X#X#X#X#X#X#X#X#X#X#X#X#X#X#X$Xg.k Y Y Y ",
"Y T Y K n %.@X#X#X#X#X#X#X#X#X#X#X#X#X#X#X#X#X#X#X#X#X#X#X#X#X#X#X#X#X#X#X#X#X#X#X#X#X#X#X#X#X#X#X#X#X#X#X#X#X#X#X#X#X`.D N Y Y ",
"' ' ' ' b V.$X#X#X#X#X#X#X#X#X#X#X#X#X#X#X#X#X#X#X#X#X#X#X#X#X#X#X#X#X#X#X#X#X#X#X#X#X#X#X#X#X#X#X#X#X#X#X#X#X#X#X#X#X@X,._ ..| ",
"/ / / ~ P +X$XoXoXoXoX#X#X#X#X#X#X#X#X#X#X#X#X#X#X#X#X#X#X#X#X#X#X#X#X#X#X#X#X#X#X#X#X#X#X#X#X#X#X#X#X#X#X#X#X#X#X#X#X$XZ.E } / ",
"* * 1 O 7 ,XyXeX8X:X-X#X#XoX#X#X#X#X#X#X#X#X#X#X#X#X#X#X#X#X#X#X#X#X#X#X#X#X#X#X#X#X#X#X#X#X#X#X#X#X#X#X#X#X#X#X#X#X#X#X`.4 & * ",
"% > , , @ O 2 u a n.<XwXeX0X:X&X#XoXoXoXoX#X#X#X#X#X#X#X#X#X#X#X#X#X#X#X#X#X#X#X#X#X#X#X#X#X#X#X#X#X#X#X#X#X#X#X#X#X#X#X#Xw o & ",
"+ < ^ ~ Y F F j s s d P -.q.T.2XwXeX8X:X&X#X#X#XoXoX#X#X#X#X#X#X#X#X#X#X#X#X#X#X#X#X#X#X#X#X#X#X#X#X#X#X#X#X#X#X#X#X#X#X$Xj.j U ",
"> < } [ T Y T Y K K K N x v c C 8 i Y.E.3XtXeX8X-X&X#XoXoXoXoX#X#X#X#X#X#X#X#X#X#X#X#X#X#X#X#X#X#X#X#X#X#X#X#X#X#X#X#X#X$XC.x K ",
"+ < } ' Y Y Y Y H Y H Y Y Y T U O + Q ] H I -.I.R.3XtX0X8X-X&X#XoX#X#X#X#X#X#X#X#X#X#X#X#X#X#X#X#X#X#X#X#X#X#X#X#X#X#X#X$X!.C Y ",
"% < } ' Y Y Y T Y Y K H H U H U @ 1 / | T x c z c H *.8.I.R.4XtX8X&X$X#X#X#X#X#X#X#X#X#X#X#X#X#X#X#X#X#X#X#X#X#X#X#X#X#X$X_.Z M ",
"% < } ..' | ' ' | | | ` T Y K U @ 1 } [ ' | | | | ' ] _ c c L =.p a.P.qX8X%X#X#X#X#X#X#X#X#X#X#X#X#X#X#X#X#X#X#X#X#X#X#X#X XP N ",
"> * ^ ` / ~ } / / / / ~ U U U G @ , ^ } / ~ / / / / } / J U U j # # ! 1.5XtX;X#X#X#X#X#X#X#X#X#X#X#X#X#X#X#X#X#X#X#X#X#X#XXXD h ",
"% % & * , & = 1 * 1 : : @ @ & & % > , = & 1 & 1 * * : $ @ @ & @ > > 1 # . z.+X#X#X#X#X#X#X#X#X#X#X#X#X#X#X#X#X#X#X#X#X#X#X.X6 # ",
"* * & & & : & & > + : : : & & & & = & & & & & * + > : = : , & & $ O o   f.'.#X#X#X#X#X#X#X#X#X#X#X#X#X#X#X#X#X#X#X#X#X#X#XXX4 O ",
"F U U U U U U G @ & ! / U F U U U U U U U U U G : , ! Q l j V D +.>.k.'.$X#X#X#X#X#X#X#X#X#X#X#X#X#X#X#X#X#X#X#X#X#X#X#X#X XD m ",
"Y H Y T Y Y K U & & } [ T H T Y Y Y L T T c N h o * 4.6.,.V.!.`.+X$X$X#X#X#X#X#X#X#X#X#X#X#X#X#X#X#X#X#X#X#X#X#X#X#X#X#X$X`.J T ",
"Y Y Y Y Y Y Y U @ : / ' Y Y Y Y M n b h C S #.>.l.W. X@X$X$X#X#X#XoXoX#X#X#X#X#X#X#X#X#X#X#X#X#X#X#X#X#X#X#X#X#X#X#X#X#X$X^.U Y ",
"Y T Y Y Y Y H F : 1 } [ N n b k S #.>.g.F. X@X$X$X$X#XoXoX#X#X#X#X#X#X#X#X#X#X#X#X#X#X#X#X#X#X#X#X#X#X#X#X#X#X#X#X#X#X#X$XD.m T ",
"' | ' ' T Y T k o o W ( &.w.M.F.`.XX#X$X$X@X#XoXoX#X#X#X#X#X#X#X#X#X#X#X#X#X#X#X#X#X#X#X#X#X#X#X#X#X#X#X#X#X#X#X#X#X#X#X$XN.] ..",
"/ / } ~ m g Z @.r p.D.`.XX$X$X$X#X#X#X#XoX#X#X#X#X#X#X#X#X#X#X#X#X#X#X#X#X#X#X#X#X#X#X#X#X#X#X#X#X#X#X#X#X#X#X#X#X#X#X#X$X7.Q / ",
"1 * 1 + 0 S.(.XX#X$X$X$X#X#XoX#X#X#X#X#X#X#X#X#X#X#X#X#X#X#X#X#X#X#X#X#X#X#X#X#X#X#X#X#X#X#X#X#X#X#X#X#X#X#X#X#X#X#X#X#X+X4 O 1 ",
"> + : O 8 =X$X#XoX#X#X#X#X#X#X#X#X#X#X#X#X#X#X#X#X#X#X#X#X#X#X#X#X#X#X#X#X#X#X#X#X#X#X#X#X#X#X#X#X#X#X#X#X#X#X#X#X#X#X$XQ.& @ @ ",
"% < ^ } h H.&X#X#X#X#X#X#X#X#X#X#X#X#X#X#X#X#X#X#X#X#X#X#X#X#X#X#X#X#X#X#X#X#X#X#X#X#X#X#X#X#X#X#X#X#X#X#X#X#X#X#X#XoX$Xm.h U F ",
"+ 1 } ..M &.:X#X#X#X#X#X#X#X#X#X#X#X#X#X#X#X#X#X#X#X#X#X#X#X#X#X#X#X#X#X#X#X#X#X#X#X#X#X#X#X#X#X#X#X#X#X#X#X#X#X#X#X#X+X=.M L Y ",
"% < / ' Y Y }.&X#X#X#X#X#X#X#X#X#X#X#X#X#X#X#X#X#X#X#X#X#X#X#X#X#X#X#X#X#X#X#X#X#X#X#X#X#X#X#X#X#X#X#X#X#X#X#X#X#X#X$XF.m Y Y Y ",
"% < / ' T n 9.8X#X#X#XoX#X#X#X#X#X#X#X#X#X#X#X#X#X#X#X#X#X#X#X#X#X#X#X#X#X#X#X#X#X#X#X#X#X#X#X#X#X#X#X#X#X#X#X#X#X#X*X&.n Y Y Y ",
"% < } [ ' ' ` L.&X#X#X#X#X#X#X#X#X#X#X#X#X#X#X#X#X#X#X#X#X#X#X#X#X#X#X#X#X#X#X#X#X#X#X#X#X#X#X#X#X#X#X#X#X#X#X#X#X&X}.) T K H Y ",
"% < ^ } ~ / Q r.$X#X#X#X#X#X#X#X#X#X#X#X#X#X#X#X#X#X#X#X#X#X#X#X#X#X#X#X#X#X#X#X#X#X#X#X#X#X#X#X#X#X#X#X#X#X#X#X%X*X0._ U C U G ",
"% > , = & 1 & 2 ].#XoX#X#X#X#X#X#X#X#X#X#X#X#X#X#X#X#X#X#X#X#X#X#X#X#X#X#X#X#X#X#X#X#X#X#X#X#X#X#X#X#X#X#X#X#X#X-Xl.+ & & @ @ @ ",
"= = & & & & 1 # e :X#X#X#X#X#X#X#X#X#X#X#X#X#X#X#X#X#X#X#X#X#X#X#X#X#X#X#X#X#X#X#X#X#X#X#X#X#X#X#X#X#X#X#X#XoX;X].8 & 1 & & & & ",
"U U U U U U U G # a.-X#X#X#X#X#X#X#X#X#X#X#X#X#X#X#X#X#X#X#X#X#X#X#X#X#X#X#X#X#X#X#X#X#X#X#X#X#X#X#X#X#X#X#X%X=Xw # ^ / U U U U ",
"Y Y Y Y Y Y T Y & O J.:XoX#X#X#X#X#X#X#X#X#X#X#X#X#X#X#X#X#X#X#X#X#X#X#X#X#X#X#X#X#X#X#X#X#X#X#X#X#X#X#X#XOX:XM.# , } ..K Y H H ",
"Y Y Y Y Y Y Y F : & / [.:X#X#X#X#X#X#X#X#X#X#X#X#X#X#X#X#X#X#X#X#X#X#X#X#X#X#X#X#X#X#X#X#X#X#X#X#X#X#X#XOX8XK.F & & ~ | Y Y Y Y ",
"Y Y T Y Y Y Y F @ : ~  .5X;XoX#X#X#X#X#X#X#X#X#X#X#X#X#X#X#X#X#X#X#X#X#X#X#X#X#X#X#X#X#X#X#X#X#X#X#XoXOX0XG.H U : 1 / ' T T Y Y ",
"| ' ' ' Y H K Y @ & } { 1.>X9X#X#X#X#X#X#X#X#X#X#X#X#X#X#X#X#X#X#X#X#X#X#X#X#X#X#X#X#X#X#X#X#X#X#X#X=X0XG.H N U @ & } ..' | | ' ",
"} / } / U F U G @ : ^ } ` 2.{.0XOX#X#X#X#X#X#X#X#X#X#X#X#X#X#X#X#X#X#X#X#X#X#X#X#X#X#X#X#X#X#XoX#X7XeXH.U k U G @ : ^ } / / } / ",
"* * * : @ + & @ + > * & 1 $ 5 b.0X7X#X#X#X#X#X#X#X#X#X#X#X#X#X#X#X#X#X#X#X#X#X#X#X#X#X#X#X#XoX=XrX9Xy.O & : & @ + > * & 1 @ < : ",
"+ > & * , @ : & & & @ @ & : + @ y.6XeX;XoX#X#X#X#X#X#X#X#X#X#X#X#X#X#X#X#X#X#X#X#X#X#X#XoXOX0XrX,X8 X : ; @ : & @ @ @ @ @ @ @ @ ",
"> * ^ ~ U U U U U U U U U U Y V # 6 P.9XrX;XoX#X#X#X#X#X#X#X#X#X#X#X#X#X#X#X#X#X#X#XoX%XeXpX1Xq.@ O ^ / U U U U U U U U U U U U ",
"> < } [ T Y Y H H H H H Y Y H U : O ~ 5.J.tXrXeX;XOXoXoX#X#X#X#X#X#X#X#XoX#X#XoX%X7XiXpX4XB.L l @ 1 ` [ T Y Y H H H H H H H H H ",
"+ < } ' Y Y Y Y Y H Y Y Y Y Y F @ 1 } ] x $.N.5XtXpXrXeX7X=X%XoXOXOXOX;X;X9XrXpXpXuXR.9.L b Y U + 1 ~ ' Y Y Y Y Y H Y Y H Y Y Y ",
"> * } ' T Y Y Y Y Y Y Y Y Y M U @ * / | K n b L &.B.R.4XuXpXsXsXsXsXsXsXaXuX2XU.9.I c z M Y Y U @ 1 } ' T Y Y Y Y Y Y Y x Y Y Y ",
"% < ~ ..' ' ` ' } ' ' ` Y Y H U + 1 / ..| | | ` _ ) ]  .I &.6.9.p p r.e.5. .' ) _ ` | } Y Y T U @ * / [ ` ' ' ' ` } ' ` H H Y Y ",
"> < ~ ..| | | ' | | | ' T Y Y U @ 1 / | | | ..| | | | ' M b z l X # Q { { ' ..| | | | | Y Y Y U + 1 / ..| | | ' ..| | ' Y U Y Y "
};
