/* XPM */
static char *left61708526649[] = {
/* columns rows colors chars-per-pixel */
"63 64 215 2 ",
"   c None",
".  c #042E27",
"X  c #0B2E27",
"o  c #012F28",
"O  c #092F28",
"+  c #122F27",
"@  c #1B2D26",
"#  c #0C3324",
"$  c #023129",
"%  c #083028",
"&  c #123027",
"*  c #1C3224",
"=  c #183C23",
"-  c #232D24",
";  c #2D2F25",
":  c #322C22",
">  c #3B2C22",
",  c #243026",
"<  c #333225",
"1  c #4B2A1E",
"2  c #46291F",
"3  c #5C291C",
"4  c #5A271C",
"5  c #662719",
"6  c #6A271A",
"7  c #6F291A",
"8  c #7A2617",
"9  c #772618",
"0  c #7A2719",
"q  c #712D18",
"w  c #7B351A",
"e  c #693818",
"r  c #4C2E23",
"t  c #412720",
"y  c #572F23",
"u  c #463024",
"i  c #523023",
"p  c #513D21",
"a  c #632E23",
"s  c #7A2E21",
"d  c #762D20",
"f  c #7A3021",
"g  c #703021",
"h  c #623422",
"j  c #2B461E",
"k  c #38531C",
"l  c #324720",
"z  c #2D5122",
"x  c #305021",
"c  c #45401E",
"v  c #45581C",
"b  c #545B18",
"n  c #674F16",
"m  c #5C6214",
"M  c #5B711A",
"N  c #766F12",
"B  c #697A16",
"V  c #707112",
"C  c #5E6320",
"Z  c #706523",
"A  c #A51F10",
"S  c #AA1F10",
"D  c #842516",
"F  c #8B2515",
"G  c #892918",
"H  c #9A2313",
"J  c #962E1F",
"K  c #9B2F1E",
"L  c #912515",
"P  c #903616",
"I  c #A3240F",
"U  c #AD220F",
"Y  c #AB2C0E",
"T  c #AC350F",
"R  c #A5390C",
"E  c #B2390E",
"W  c #A32311",
"Q  c #AB2210",
"!  c #A92D1C",
"~  c #B52412",
"^  c #BB2512",
"/  c #B22E1F",
"(  c #B92C16",
")  c #A2301F",
"_  c #AF301E",
"`  c #B2301F",
"'  c #BA3419",
"]  c #8C2F20",
"[  c #933020",
"{  c #A13020",
"}  c #C12713",
"|  c #CB2916",
" . c #C22E1D",
".. c #C92716",
"X. c #D32A16",
"o. c #D62C19",
"O. c #DB2C18",
"+. c #C5301D",
"@. c #CA311C",
"#. c #D6301D",
"$. c #DA301D",
"%. c #D73915",
"&. c #E42D19",
"*. c #EB2F1B",
"=. c #F12E1C",
"-. c #E5301B",
";. c #ED301C",
":. c #EC3B1A",
">. c #F1301B",
",. c #904E17",
"<. c #A94B0B",
"1. c #B5480C",
"2. c #AC580A",
"3. c #BD5E0D",
"4. c #AA4010",
"5. c #A15E14",
"6. c #B84711",
"7. c #946C17",
"8. c #BA670A",
"9. c #AD7508",
"0. c #B67808",
"q. c #B0630C",
"w. c #D84315",
"e. c #CD5910",
"r. c #D45C13",
"t. c #C75311",
"y. c #EA4918",
"u. c #ED5E1B",
"i. c #C7740C",
"p. c #C67311",
"a. c #F07321",
"s. c #73871F",
"d. c #7F8A22",
"f. c #83890E",
"g. c #96920D",
"h. c #AE8F07",
"j. c #B68205",
"k. c #BA840B",
"l. c #BB9507",
"z. c #A19609",
"x. c #97A115",
"c. c #A4A60B",
"v. c #B5AA09",
"b. c #BBB808",
"n. c #B7AD16",
"m. c #BFB016",
"M. c #9EA523",
"N. c #A5AA2B",
"B. c #AFB221",
"V. c #B1A927",
"C. c #C68107",
"Z. c #CE9C07",
"A. c #D69D07",
"S. c #D18A17",
"D. c #D48908",
"F. c #E79D0C",
"G. c #F4970C",
"H. c #E8890D",
"J. c #CBAB02",
"K. c #C4A805",
"L. c #D6A905",
"P. c #CBBB07",
"I. c #DBB205",
"U. c #D4B705",
"Y. c #C9A41C",
"T. c #C8AA19",
"R. c #C8A819",
"E. c #DBA519",
"W. c #CCB411",
"Q. c #CAB815",
"!. c #D8B117",
"~. c #E1B416",
"^. c #D89824",
"/. c #F28D2A",
"(. c #CAA623",
"). c #D5A824",
"_. c #F4A22D",
"`. c #F6B833",
"'. c #DDC301",
"]. c #DDC902",
"[. c #D6C902",
"{. c #DCD302",
"}. c #E3CC01",
"|. c #E8CA03",
" X c #E4D301",
".X c #E9D303",
"XX c #E5DD02",
"oX c #ECDD00",
"OX c #F0DF01",
"+X c #F0CF0F",
"@X c #ECE001",
"#X c #ECE30E",
"$X c #F2E500",
"%X c #F6EA00",
"&X c #FAED00",
"*X c #F9E405",
"=X c #FFF200",
"-X c #FFF40A",
";X c #F6E617",
":X c #FFF414",
">X c #FFF51B",
",X c #C6C421",
"<X c #F3DB2D",
"1X c #F8C738",
"2X c #F8DA37",
"3X c #E7C528",
"4X c #F6E926",
"5X c #FAEE24",
"6X c #F1EA2F",
"7X c #FEF323",
"8X c #FFF42A",
"9X c #FCE938",
"0X c #FEF233",
"qX c #EBE529",
"wX c #F8EF43",
/* pixels */
"o o o o o o o o o o o o o o o o o o o o o o o o o o o o o o o o o o o o o o o o o o o $ o o o o o o o o o o o o o o $ $ $ o o ",
"@ @ @ @ @ @ @ @ @ + O O , , @ @ @ @ @ @ @ @ @ + o + , - @ @ @ @ @ @ @ @ @ @ @ X $ @ , @ @ @ @ @ @ @ @ @ @ @ @ O O @ , @ @ @ @ ",
"H H H H H H H H H 0 O < @. .H H H H H L H H H 3 o y #.( H H H H H H H H H H H > o ] O.Y H H H H H H H H H H L @ + { o.W H H H ",
"Q Q Q Q Q Q Q Q Q F O > *.&.Q S Q Q U U Q Q Q 7 o a *.X.Q Q S I Q Q Q Q Q Q ~ t $ [ >.} Q Q Q Q Q Q Q Q Q Q W - + +.;.^ Q Q Q ",
"Q Q S Q Q Q Q Q Q F O > &.O.Q Q U U U U I U U 5 o a *.| A A W A A I W I Q U U 2 o J ;.} W Q Q Q Q Q Q Q Q Q W - + +.;.~ Q Q Q ",
"~ ~ ~ ~ Q Q Q Q Q G O < &.O.^ ^ ~ ~ ~ ~ S U S 5 & n e.8.0.0.j.j.0.9.2.<.R H A t o J >...~ ~ ~ ~ ~ ~ ( Q Q Q H - X +.*.^ ~ ~ ~ ",
";.*.*.&.~ Q Q ~ ~ F O > &.;.*.;.-.*.*.| I R q.h.b.{.oX%X&X=X&X=X&X&X%X@X[.J.j.n & J =.*.*.*.*.*.;.*.&.^ Q Q W - + +.=.*.;.*.*.",
"+.+.+.' L F F F F 7 O < ' +.+.+.+.+.@.t.l.'.$X=X=X=X=X=X=X=X=X=X=X=X=X=X=X=X&X@XP.k.t.+.+. . ...+.+.+.H F F D , + { +.+.+.+.+.",
"+ + + # + X + X X X o O + + + X * m v.oX=X=X=X=X=X=X=X=X=X=X=X=X=X=X=X=X=X=X=X=X=X&X Xz.v + + + + + + + + X X . $ + & + + # + ",
"o O ; ; - - - - - - - , - - - k c.@X=X=X=X=X=X=X=X=X=X=X=X=X=X=X=X=X=X=X=X=X=X=X=X=X=X=X{.f.j . $ , ; - - - - - - - - - , - - ",
"o , @.o.W W W H A W W W I H 9. X&X=X=X=X=X=X=X=X=X&X=X=X=X=X=X=X=X=X=X=X=X=X=X=X=X=X=X=X=X&XP.m + ) &.Q I H H W W W W W W W W ",
"o , o.&.~ U Q Q S Q Q S R K.$X=X=X=X=X=X=X=X=X=X=X=X=X=X=X=X=X=X=X=X=X=X=X=X=X=X=X=X=X=X=X=X=XXXd.' *.^ U U Q Q Q Q Q Q Q Q Q ",
"o , #.&.~ Q Q Q Q Q U 1.U.=X=X=X=X=X=X=X=X=X=X=X=X=X=X=X=X=X=X=X=X=X=X=X=X=X=X=X=X=X=X=X=X=X=X=X%XZ.%.~ I U U Q W Q Q U Q Q Q ",
"o , #.&.} ^ ~ ^ ^ ^ E I.=X=X=X=X=X=X=X=X=X=X=X=X=X=X=X=X=X=X=X=X=X=X=X=X=X=X=X=X=X=X=X=X=X=X=X=X=X&XI.E ^ ~ ^ ^ ^ ^ ^ U Q Q Q ",
"$ , #.>.*.*.*.*.*.;.G.=X=X=X=X=X=X=X=X=X=X=X=X=X=X=X=X=X=X=X=X=X=X=X=X=X=X=X=X=X=X=X=X=X=X=X=X=X=X=X&XL.%.;.>.*.*.;.&.^ Q Q Q ",
"$ @ { ` ` ` ` / / r.*X=X=X=X=X=X=X=X=X=X=X=X=X=X=X=X=X=X=X=X=X=X=X=X=X=X=X=X=X=X=X=X=X=X=X=X=X=X=X=X=X=XL.' / ` ` ` _ G D D 8 ",
"o o O O O O O O = b.-X=X=X=X=X=X=X=X=X=X=X=X=X=X=X=X=X=X=X=X=X=X=X=X=X&X=X=X=X=X=X=X=X=X=X=X=X=X=X=X=X=X%Xf.& . X X % % % O O ",
": : : : : : : - M &X=X=X=X=X=X=X=X=X=X=X=X=X=X=X=X=X=X=X=X=X=X=X=X=X=X=X=X=X=X=X=X=X=X=X=X&X=X=X=X=X=X=X=X@XB . O : > : : : ; ",
"W Q W W W Q S D c.=X=X=X=X=X=X=X=X=X=X=X=X=X=X=X=X=X=X&X=X=X=X=X=X=X=X=X=X=X=X=X=X=X=X=X=X=X=X=X=X=X=X=X=X=X[.j + ' &.~ A W W ",
"Q Q Q Q Q Q Q R XX=X=X=X=X=X=X=X=X=X=X=X=X=X=X=X=X=X=X=X=X=X=X=X=X=X=X=X=X=X=X=X=X=X=X=X=X=X=X=X=X=X=X=X=X=X=Xg.*  .*.~ Q Q Q ",
"Q Q Q Q Q Q Q D.=X=X=X=X=X=X=X=X=X=X=X=X=X=X=X=X=X=X=X=X=X=X=X=X=X=X=X=X=X=X=X=X=X=X=X=X=X=X=X=X=X=X=X=X=X=X=XXXb  .*.~ Q Q Q ",
"^ } } ^ Q Q E +X=X=X=X=X=X=X&X=X=X=X=X=X=X=X=X=X=X=X=X=X=X=X=X=X=X=X=X=X=X=X=X=X=X=X=X=X=X=X=X=X=X=X=X=X=X=X=X=Xv.+.;...^ } } ",
">.>.>.&.~ W i.=X=X=X=X=X=X=X=X=X=X=X=X=X=X=X=X=X=X=X=X=X=X=X=X=X=X=X=X=X=X=X=X=X=X=X=X=X=X=X=X=X=X=X=X=X=X=X=X=XoXr.=.>.>.>.>.",
") { ) K 9 P }.=X=X=X=X=X=X=X=X=X=X=X=X=X=X=X=X=X=X=X=X=X=X=X=X=X=X=X=X=X=X=X=X=X=X=X=X=X=X=X=X=X=X=X=X=X=X=X=X=X=XZ.) { { { { ",
"% O o o o j XX=X=X=X=X=X=X=X=X=X=X=X=X=X=X=X=X=X=X=X=X=X=X=X=X=X=X=X=X=X=X=X=X=X=X=X=X=X=X=X=X=X=X=X=X=X=X=X=X=X=X[.j o o . o ",
"$ # r i > N &X=X=X=X=X=X=X=X=X=X=X=X=X=X=X=X=X=X=X=X=X=X=X=X=X=X=X=X=X=X=X=X=X=X=X=X=X=X=X=X=X=X=X=X=X=X=X=X=X=X=X&XN > > > > ",
"$ , #.&.Y U.=X=X=X=X=X=X=X=X=X=X=X=X&X=X=X=X=X=X=X=X=X=X=X=X=X=X=X=X=X=X=X=X=X=X=X=X=X=X=X=X=X=X=X=X=X=X=X=X=X=X=X=XK.I U U S ",
"$ , o.O.2.oX=X=X=X=X=X=X=X=X=X=X=X=X=X=X=X=X=X=X=X=X=X=X=X=X=X=X=X=X=X=X=X=X=X=X=X=X=X=X=X=X=X=X=X=X=X=X=X=X=X=X=X=X|.Y S U U ",
"o , #.$.C.=X=X=X=X=X=X=X=X=X=X=X=X=X=X=X=X=X=X=X=X=X=X=X=X=X=X=X=X=X=X=X=X=X=X=X=X=X=X=X=X=X=X=X=X=X=X=X=X=X=X=X=X=X@X<.A Q Q ",
"o , #.-.U.=X=X=X=X=X=X=X=X=X=X=X=X=X=X=X=X=X=X=X=X=X=X=X=X=X=X=X=X=X=X=X=X=X=X=X=X=X=X=X=X=X=X=X=X=X=X=X=X=X=X=X=X=X&X8.S U Q ",
"o , O.w.}.=X=X=X=X=X=X=X=X=X=X=X=X=X=X=X=X=X=X=X=X=X=X=X=X=X=X=X=X=X=X=X=X=X=X=X=X=X=X=X&X=X=X=X=X=X=X=X=X=X=X=X=X=X=XC.S Q Q ",
"o + s 5.$X=X=X=X=X=X=X=X=X=X=X=X=X=X=X=X=X=X=X=X&X=X=X=X=X=X=X=X=X=X&X=X=X=X=X=X=X=X=X=X=X=X=X=X=X=X=X=X=X=X=X=X=X=X=Xl.5 5 5 ",
"o . o V &X=X=X=X=X=X=X=X=X=X=X=X=X&X=X=X=X=X=X=X=X=X=X&X=X=X=X-X=X=X=X=X=X=X=X=X=X=X=X=X=X=X=X=X&X=X=X=X=X=X=X=X=X=X=Xc.$ o o ",
"r r t g.:X>X:X>X>X:X>X>X>X>X>X>X>X>X7X7X7X5X7X7X5X5X5X5X5X4X4X4X4X;X*X%X=X=X=X=X=X=X=X=X=X=X=X=X=X=X=X=X=X=X=X=X=X=X=Xv.i 1 1 ",
"S S Q 0.T.).).(.N.V.).).(.(.Y.Y.Y.Y.R.R.R.T.T.m.n.m.W.W.W.W.W.P.Q.[.P.[.$X=X=X=X=X=X=X=X=X=X=X=X=X=X=X=X=X=X=X=X=X=X=XI.I U U ",
"U S Q 8.J.J.J.P.b.P.U.'.'.}.]. X X X XoXoXoX$X@X$X@X%X%X%X%X&X&X=X&X%X&X=X=X=X=X=X=X=X=X=X=X=X=X=X=X=X=X=X=X=X=X=X=X=XI.Y U U ",
"S S S p.-X=X=X=X=X=X=X=X=X=X=X=X=X=X=X=X=X=X=X=X-X=X=X=X=X=X=X=X=X=X=X=X=X=X=X=X=X=X=X=X=X=X=X=X=X=X=X=X=X=X=X=X=X=X=XL.I U Q ",
"X.| ..r.;X=X=X=X=X=X=X=X=X=X=X=X=X=X=X=X=X=X=X=X=X=X=X=X&X=X=X=X=X=X=X=X=X=X=X=X=X=X=X=X=X=X=X=X=X=X=X=X=X=X=X=X=X=X=XA...| ..",
"=.=.=.y.;X=X=X=X=X=X=X=X=X=X=X=X=X=X=X=X=X=X=X=X=X=X=X=X=X=X=X=X=X=X=X=X=X=X=X=X=X=X=X=X=X=X=X=X=X=X=X=X=X=X=X=X=X=X=XH.=.>.=.",
"s s s w Q.-X=X=X=X=X=X=X=X=X=X=X=X=X=X=X=X=X=X=X=X=X=X=X=X=X=X=X=X=X=X=X=X=X=X=X=X=X=X=X=X=X=X=X=X=X=X=X=X=X=X=X=X=X&X7.s f f ",
"o o o o d.>X&X=X=X=X=X=X=X=X=X=X=X=X=X=X=X=X=X=X=X=X=X=X=X=X=X=X=X=X=X=X=X=X=X=X=X=X=X=X=X=X=X=X=X=X=X=X=X=X=X=X=X=X@Xx o o o ",
". & g q n ;X=X=X=X=X&X=X=X=X=X=X=X=X=X=X=X=X=X=X=X=X=X=X=X=X=X=X=X=X=X=X=X=X=X=X=X=X=X=X=X=X=X=X=X=X=X=X=X=X=X=X=X=X].e 3 3 3 ",
"o , $.*.~ ~.-X=X=X=X=X=X=X=X=X=X=X=X=X=X=X=X=X=X=X=X=X=X=X=X=X=X=X=X=X=X=X=X=X=X=X=X=X=X=X=X=X=X=X=X=X=X=X=X=X=X=X-XL.U U Q Q ",
"o , #.&.~ i.&X=X=X=X=X=X=X=X=X=X=X=X=X=X=X=X=X=X=X=X=X=X=X=X=X=X=X=X=X=X=X=X=X=X=X=X=X=X=X=X&X=X=X=X=X=X=X=X=X=X=X&X8.S Q Q Q ",
"$ , #.&.Q 1.*X=X=X=X=X=X=X=X=X=X=X=X=X=X=X=X=X=X=X=X=X=X=X=X=X=X=X=X=X=X=X=X=X=X=X=X=X=X=X=X=X=X=X=X=X=X=X=X=X=X=X.XT U Q Q Q ",
"o , #.;.X.%.+X=X=X=X=X=X=X=X=X=X=X=X=X=X=X=X=X=X=X=X=X=X=X=X=X=X=X=X=X=X=X=X=X=X=X=X=X=X=X=X=X=X=X=X=X=X=X=X=X=X-XF.| ~ Q Q Q ",
"o , O.=.=.*.G.=X=X=X=X=X=X=X=X=X=X=X=X=X=X=X=X=X=X=X=X=X=X=X=X=X=X=X=X=X=X&X=X=X=X=X=X=X=X=X=X=X=X=X=X=X=X=X=X=X*Xu.*.~ Q Q Q ",
"o X y a a a 7.&X=X=X=X=X=X=X=X=X=X=X&X=X=X=X=X=X=X=X=X=X=X=X=X=X=X=X=X=X=X=X=X=X=X=X=X=X=X=X=X=X=X=X=X=X=X=X=X=Xn.y a 1 2 1 2 ",
"O o o o o o z @X=X=X=X=X=X=X=X=X=X=X=X=X=X=X=X=X=X=X=X=X=X=X=X=X=X=X=X=X=X=X=X=X=X=X=X=X=X=X=X=X=X=X=X=X=X=X=X#Xk $ o $ o o o ",
"6 6 6 6 6 6 q I.-X=X=X=X=X=X=X=X=X=X=X=X=X=X=X=X=X=X=X=X=X=X=X=X=X=X=X=X=X=X=X=X=X=X=X=X=X=X=X=X=X=X=X=X=X=X:Xx.& f J 7 5 6 6 ",
"~ Q Q Q ~ S S 3.$X=X=X=X=X=X=X=X=X=X=X=X=X=X=X=X=X=X=X=X=X=X=X=X=X=X=X=X=X=X=X=X=X=X=X=X=X=X=X=X=X=X=X=X=X-X+Xl + +.*.^ Q Q Q ",
"Q Q Q Q Q Q Q L v.=X=X=X=X=X=X=X=X=X=X=X=X=X=X=X=X=X=X=X=X=X=X=X=X=X=X=X=X=X=X=X=X=X=X=X=X=X=X=X=X=X=X=X=X;Xq.- + +.;.~ Q Q Q ",
"Q Q Q Q Q Q Q D v @X=X=X=X=X=X=X=X=X=X=X=X=X=X=X=X=X=X=X=X=X=X=X=X=X=X=X=X=X=X=X=X=X=X=X=X=X=X=X=X=X=X-X:XD.H - + +.*.~ Q Q Q ",
"o.o.o.X.Q Q Q F % B =X=X=X=X=X=X=X=X=X=X=X=X=X=X=X=X=X=X=X=X=X=X=X=X=X=X=X=X=X=X=X=X=X=X=X=X=X=X=X=X=X:XE.Y A - + +.;.O.o.o.o.",
"*.;.;.&.~ Q Q F % < F.=X=X=X=X=X=X=X=X=X=X=X=X=X=X=X=X=X=X=X=X=X=X=X=X=X=X=X=X=X=X=X=X=X=X=X=X=X=X=X>X!.T S H - + +.*.>.;.>.*.",
"i i i r > > > ; % + p b.-X=X=X=X=X=X=X=X=X=X=X=X=X=X=X=X=X=X=X=X=X=X=X=X=X=X=X=X=X=X=X=X=X=X=X=X=X>XB.c > > > X O u i i i i i ",
"o o o O o o o o % $ o z ,X>X-X=X=X=X=X=X=X=X=X=X=X=X=X=X=X=X=X=X=X=X=X=X=X=X=X=X=X=X=X=X=X=X=X-X7XM.= o o o o O o o o o o o o ",
"o * [ K 8 9 9 0 9 9 9 9 P E.7X-X=X=X=X=X=X=X=X=X=X=X=X=X=X=X=X=X=X=X=X=X=X=X=X=X=X=X=X=X=X=X:XqXd.] ) G 9 9 9 0 9 9 9 0 9 9 9 ",
"o - $.&.~ U U U Q Q ~ Q U Y p.<X>X=X=X=X=X=X=X=X=X=X=X=X=X=X=X=X=X=X=X=X=X=X=X=X=X=X=X=X-X8X3XC % _ =.^ U U U U Q Q U U U U U ",
"$ , o.&.~ U Q Q Q Q Q Q Q Q ~ ,.N.6X>X=X=X=X=X=X=X=X=X=X=X=X=X=X=X=X=X=X=X=X=X=X=X=X-X>X<XS.T : % ` *.^ U U Q Q Q Q Q Q Q U U ",
"o , #.&.~ Q Q Q Q Q Q Q Q Q Q 8 % Z `.9X>X-X=X=X=X=X=X=X=X=X=X=X=X=X=X=X=X=X=X=X-X8X2X^.6.U W : % ` ;.^ Q Q Q Q Q Q U Q Q Q Q ",
"o , #.*.O.O.O.O.O.O.O.X.~ S Q 8 o r -.u._.2X0X8X:X-X=X=X=X=X=X=X=X=X=X-X-X:X8X9X1X/.y.~ S U Q : % _ >.O.O.O.O.O.O.O.X.~ Q Q Q ",
"o , #.;.;.;.;.>.;.;.>.O.Q Q ~ 8 O r *.*.*.y.a._.1XwX0X0X8X8X8X8X8X8X0XwX2X`./.u.:.*.*.} Q Q Q : $ ` >.;.;.;.;.;.;.;.*.~ Q Q Q ",
"                                                          9XwXwXwX                                                            "
};
