/* XPM */
static char *Down1708195446[] = {
/* columns rows colors chars-per-pixel */
"64 64 209 2 ",
"   c #1A3B1F",
".  c #042F27",
"X  c #0A2F27",
"o  c #032F28",
"O  c #092F28",
"+  c #1B2E27",
"@  c #172D25",
"#  c #053027",
"$  c #0C3526",
"%  c #043029",
"&  c #0F3926",
"*  c #133722",
"=  c #1E3026",
"-  c #153922",
";  c #1D3F21",
":  c #212F26",
">  c #223127",
",  c #283623",
"<  c #323C22",
"1  c #7D2616",
"2  c #22421F",
"3  c #28461E",
"4  c #34471C",
"5  c #1C4224",
"6  c #274823",
"7  c #3A5B34",
"8  c #484D19",
"9  c #465718",
"0  c #545A16",
"q  c #505517",
"w  c #46601C",
"e  c #566813",
"r  c #6C770F",
"t  c #756E11",
"y  c #6E7D14",
"u  c #61741B",
"i  c #697A19",
"p  c #777715",
"a  c #414C20",
"s  c #495525",
"d  c #505926",
"f  c #505C33",
"g  c #5F7621",
"h  c #6C732E",
"j  c #9E280E",
"k  c #8C2515",
"l  c #822A13",
"z  c #932716",
"x  c #982412",
"c  c #962C18",
"v  c #8A3511",
"b  c #973313",
"n  c #9E301F",
"m  c #973A1A",
"M  c #A42A0F",
"N  c #AD2C0F",
"B  c #A2260F",
"V  c #AC330E",
"C  c #AA3D0D",
"Z  c #A1310D",
"A  c #B33B0F",
"S  c #AB2210",
"D  c #AC2C10",
"F  c #B42412",
"G  c #B92612",
"H  c #BB2F1C",
"J  c #AB301F",
"K  c #BA311D",
"L  c #B33714",
"P  c #DE2D18",
"I  c #C2301E",
"U  c #CE3916",
"Y  c #DB3417",
"T  c #D1311B",
"R  c #D73817",
"E  c #E52F1A",
"W  c #E7341A",
"Q  c #ED301B",
"!  c #ED391B",
"~  c #E53818",
"^  c #94570C",
"/  c #A5460B",
"(  c #AA4D0B",
")  c #B5430E",
"_  c #B64D0D",
"`  c #AC5C0A",
"'  c #A4510A",
"]  c #B45A0A",
"[  c #B95B0B",
"{  c #A9411A",
"}  c #A54B15",
"|  c #BD4E10",
" . c #BA491C",
".. c #BD4319",
"X. c #A15014",
"o. c #B75411",
"O. c #97740B",
"+. c #AD6C07",
"@. c #AB6909",
"#. c #BB650A",
"$. c #BE6C09",
"%. c #B36809",
"&. c #AE7506",
"*. c #B77809",
"=. c #BC5021",
"-. c #A65526",
";. c #867D20",
":. c #B07022",
">. c #C24213",
",. c #D64714",
"<. c #CB5E12",
"1. c #E14216",
"2. c #E94518",
"3. c #ED4B19",
"4. c #E34E16",
"5. c #EE5E1B",
"6. c #CC710D",
"7. c #C56A15",
"8. c #C66717",
"9. c #CB791F",
"0. c #D47111",
"q. c #E8641B",
"w. c #E86D20",
"e. c #7F860C",
"r. c #87900F",
"t. c #95990A",
"y. c #B68206",
"u. c #9EA00A",
"i. c #9CA313",
"p. c #ACAB07",
"a. c #A7A40B",
"s. c #B9B505",
"d. c #BBB010",
"f. c #96A121",
"g. c #ABB22A",
"h. c #B1B62C",
"j. c #A0AA34",
"k. c #ACB230",
"l. c #B4B933",
"z. c #CA8509",
"x. c #C99E04",
"c. c #CF8517",
"v. c #D69811",
"b. c #EA9A0D",
"n. c #F0861B",
"m. c #CEAE03",
"M. c #D3A605",
"N. c #C2BD06",
"B. c #CDBF03",
"V. c #D6B405",
"C. c #D5BB02",
"Z. c #DCBB03",
"A. c #D8B104",
"S. c #DCA818",
"D. c #E1BD04",
"F. c #EDAF1B",
"G. c #F18424",
"H. c #F18923",
"J. c #DDA62C",
"K. c #E7BF29",
"L. c #E8BF2C",
"P. c #F6BC2E",
"I. c #CAC204",
"U. c #D9C702",
"Y. c #C6C61A",
"T. c #E4CD02",
"R. c #E5CB03",
"E. c #E5D301",
"W. c #E6DB01",
"Q. c #EBDD01",
"!. c #F3DF02",
"~. c #F1CC19",
"^. c #F4C318",
"/. c #F0D41E",
"(. c #EEE201",
"). c #EAE10D",
"_. c #F3E600",
"`. c #F6E900",
"'. c #FAED00",
"]. c #F7E40A",
"[. c #FFF200",
"{. c #FFF30C",
"}. c #EDE415",
"|. c #F6EB15",
" X c #FFF314",
".X c #FFF31C",
"XX c #D0CF2F",
"oX c #C2C431",
"OX c #D3D130",
"+X c #EACA27",
"@X c #F0C32B",
"#X c #F4D824",
"$X c #EAC834",
"%X c #F9CC3E",
"&X c #FADB37",
"*X c #F0DF38",
"=X c #F0D535",
"-X c #FDEF2D",
";X c #FFF323",
":X c #FDF22B",
">X c #F9E437",
",X c #F4EB31",
"<X c #FBEA35",
"1X c #FAE33A",
"2X c #F7EA3C",
"3X c #FFF432",
"4X c #FEF43B",
"5X c #F4DC43",
"6X c #FBDC46",
/* pixels */
"o o o o % o o o o o o o o o o o . . . o o o o o o o o o o o o o o o o o o o o o o o o o o o o o o o o o % % o o o o o o o o o o ",
"+ + + + + + + + + + X O > = + + + + + + + + + + o O + : + + + + + + + + + + + + o O > > + + + + + + + + + + + + % O + > + + + + ",
"k k k k k k k k k 1 + + J H z k k k k k k z k k o + J H z k k k k k k k k k k k o + n H z k k k k k k k k k k k o + n K z k k k ",
"S S S S S S S S S x : : T E F S S S S S S S S S o + H E F S S S S S S S S S S S o > I E F S S S S S S S S S S S o > I E G S S S ",
"S S S S S S S S S x : : T P F S S S S S S S S S o , ..,.| [ #.$.7.#.[ _ ) A D S % > I E F S S S S S S S S S S S o > I E F S S S ",
"G G G G S S S S S x : : T P G G G G G G S B V ` r.N.T.!.`.[.[.'.[.'.'.`.!.T.R.z.9 < I W G G G F G G G G S S S S o > I W G G G G ",
"E Q E P F S S S S x : : T Q E E E E E E D %.x.W.'.[.[.[.[.[.[.[.[.[.[.[.[.[.'.{.).p.0.W E E E W E E E E F S S S o : I Q E E E E ",
"Q Q Q E F S S S S x : > T Q Q Q Q E ,.v.Q.'.[.[.[.[.[.[.[.[.[.[.[.[.[.[.[.[.[.'.[.[.[.].b.2.Q Q Q Q Q E F S S S o > I Q Q Q Q Q ",
"o o o o o o o o O O o o o o o o ; u.W.[.[.[.[.[.[.[.[.[.[.[.[.[.[.[.[.[.[.[.[.[.[.[.[.[.{.).i.5 o o o o o o o o o o o o o o o o ",
"o O + > + + + @ + + @ + + + @ p (.[.[.[.[.[.[.[.[.[.[.[.[.[.[.[.[.[.[.[.[.[.[.[.[.[.[.[.[.[.{.}.i O + > + + + + + + + + + + + + ",
"o > n H z k k k k k k k k v O.W.[.[.[.[.[.[.[.[.[.[.[.[.[.[.[.[.[.[.[.[.[.[.[.[.[.[.[.[.[.[.[.{.}.p { K z k k k k k k k k k k k ",
"o > I E F S S S S S S S / C.`.[.[.[.[.[.[.[.[.[.[.[.[.[.[.[.[.[.[.[.[.[.[.[.[.[.[.[.[.[.[.[.[.[.[..X^.4.F S S S S S S S S S S S ",
"o > I E G S S S S S S ( U.'.[.[.[.[.[.[.[.[.[.[.[.[.[.[.[.[.[.[.[.[.[.[.[.[.[.[.[.[.[.[.[.[.[.[.[.[. X~.| S S S S S S S S S S S ",
"o > I E G G G G F F ( T.'.[.[.[.[.[.[.[.[.[.[.[.[.[.[.[.[.[.[.[.[.[.[.[.[.[.[.[.[.[.[.[.[.[.[.[.[.[.[.{./.| F G G G G F S S S S ",
"o > I E E E E E E >.m.'.[.[.[.[.[.[.[.[.[.[.[.[.[.[.[.[.[.[.[.[.[.[.[.[.[.[.[.[.[.[.[.[.[.[.[.[.[.[.[.[. XF.1.E E E E P F S S S ",
"o > I Q Q Q E Q R R.'.[.[.[.[.[.[.[.[.[.[.[.[.[.[.[.[.[.[.[.[.[.[.[.[.[.[.[.[.[.[.[.[.[.[.[.[.[.[.[.[.[.[.;X#XQ Q Q Q E F S S S ",
"o o o o o o o o t.[.[.[.[.[.[.[.[.[.[.[.[.[.[.[.[.[.[.[.[.[.[.[.[.[.[.[.[.[.[.[.[.[.[.[.[.[.[.[.[.[.[.[.[.[..Xf.% o % % % o o o ",
"+ + + + + + + t '.[.[.[.[.[.[.[.[.[.[.[.[.[.[.[.[.[.[.[.[.[.[.[.[.[.[.[.[.[.[.[.[.[.[.[.[.[.[.[.[.[.[.[.[.[.[.3Xu X + > + + + + ",
"z k k k k k l B.[.[.[.[.[.[.[.[.[.[.[.[.[.[.[.[.[.[.[.[.[.[.[.[.[.[.[.[.[.[.[.[.[.[.[.[.[.[.[.[.[.[.[.[.[.[.[.{.XX> n H z k k k ",
"S S S S S B &.'.[.[.[.[.[.[.[.[.[.[.[.[.[.[.[.[.[.[.[.[.[.[.[.[.[.[.[.[.[.[.[.[.[.[.[.[.[.[.[.[.[.[.[.[.[.[.[.[.;Xr.I E F S S S ",
"S S S S S ` E.[.[.[.[.[.[.[.[.[.[.[.[.[.[.[.[.[.[.[.[.[.[.[.[.[.[.[.[.[.[.[.[.[.[.[.[.[.[.[.[.[.[.[.[.[.[.[.[.[.[.*Xq.E F S S S ",
"G G G G M m.'.[.[.[.[.[.[.[.[.[.[.[.[.[.[.[.[.[.[.[.[.[.[.[.[.[.[.[.[.[.[.[.[.[.[.[.[.[.[.[.[.[.[.[.[.[.[.[.[.[.[.:XP.! G G G G ",
"E E E P C E.[.[.[.[.[.[.[.[.[.[.[.[.[.[.[.[.[.[.[.[.[.[.[.[.[.[.[.[.[.[.[.[.[.[.[.[.[.[.[.[.[.[.[.[.[.[.[.[.[.[.[.{.1X3.E E E E ",
"Q Q ! P *.'.[.[.[.[.[.[.[.[.[.[.[.[.[.[.[.[.[.[.[.[.[.[.[.[.[.[.[.[.[.[.[.[.[.[.[.[.[.[.[.[.[.[.[.[.[.[.[.[.[.[.[.[.:XG.Q Q Q Q ",
"% % % * s.[.[.[.[.[.[.[.[.[.[.[.[.[.[.[.[.[.[.[.[.[.[.[.[.[.[.[.[.[.[.[.[.[.[.[.[.[.[.[.[.[.[.[.[.[.[.[.[.[.[.[.[.[.{.oX$ % % % ",
"o O + 9 (.[.[.[.[.[.[.[.[.[.[.[.[.[.[.[.[.[.[.[.[.[.[.[.[.[.[.[.[.[.[.[.[.[.[.[.[.[.[.[.[.[.[.[.[.[.[.[.[.[.[.[.[.[.[.2Xs @ @ + ",
"o + n *.`.[.[.[.[.[.[.[.[.[.[.[.[.[.[.[.[.[.[.[.[.[.[.[.[.[.[.[.[.[.[.[.[.[.[.[.[.[.[.[.[.[.[.[.[.[.[.[.[.[.[.[.[.[.[.:X:.k k k ",
"o > H M.'.[.[.[.[.[.[.[.[.[.[.[.[.[.[.[.[.[.[.[.[.[.[.[.[.[.[.[.[.[.[.[.[.[.[.[.[.[.[.[.[.[.[.[.[.[.[.[.[.[.[.[.[.[.[..XJ.S S S ",
"o > L D.[.[.[.[.[.[.[.[.[.[.[.[.[.[.[.[.[.[.[.[.[.[.[.[.[.[.[.+XU.[.[.[.[.[.[.[.[.[.[.[.[.[.[.[.[.[.[.[.[.[.[.[.[.[.[.{.$XD S S ",
"o > { T.[.[.[.[.[.[.[.[.[.[.[.[.[.[.[.[.[.[.[.[.[.[.[.[.[.[.3X8.e '.[.[.[.[.[.[.[.[.[.[.[.[.[.[.[.[.[.[.[.[.[.[.[.[.[.[.5XL S S ",
"o > { Q.[.[.[.[.[.[.[.[.[.[.[.[.[.[.[.[.[.[.[.[.[.[.[.[.[. X2XN & (.[.[.[.[.[.[.[.[.[.[.[.[.[.[.[.[.[.[.[.[.[.[.[.[.[.[.5XL S S ",
"o + X.(.[.[.[.[.[.[.[.[.[.[.[.[.[.[.[.[.[.[.[.[.[.[.[.[.[.3Xc.S # e._.[.[.[.[.[.[.[.[.[.[.[.[.[.[.[.[.[.[.[.[.[.[.[.[.[.2X .S S ",
"% # 4 `.[.[.[.[.[.[.[.[.[.[.[.[.[.[.[.[.[.[.[.[.[.[.[.[. Xh.* o %   p.[.[.[.[.[.[.[.[.[.[.[.[.[.[.[.[.[.[.[.[.[.[.[.[.[.,X7 # % ",
"+ = e `.[.[.[.[.[.[.[.[.[.[.[.[.[.[.[.[.[.[.[.[.[.[.[.[.,Xd + @ + * q (.[.[.[.[.[.[.[.[.[.[.[.[.[.[.[.[.[.[.[.[.[.[.[.[.:Xf * = ",
"k k ^ `.[.[.[.[.[.[.[.[.[.[.[.[.[.[.[.[.[.[.[.[.[.[.[. X$Xb k z k k v Z.[.[.[.[.[.[.[.[.[.[.[.[.[.[.[.[.[.[.[.[.[.[.[.[.:X-.k k ",
"S S ' `.[.[.[.[.[.[.[.[.[.[.[.[.[.[.[.[.[.[.[.[.[.[.[.:X7.S S S S S S +._.[.[.[.[.[.[.[.[.[.[.[.[.[.[.[.[.[.[.[.[.[.[.[.<X=.S S ",
"S S / (.[.[.[.[.[.[.[.[.[.[.[.[.[.[.[.[.[.[.[.[.[.[.{.@XL S S S S S S Z C.'.[.[.[.[.[.[.[.[.[.[.[.[.[.[.[.[.[.[.[.[.[.[.<X .S S ",
"F G C Q.[.[.[.[.[.[.[.[.[.[.[.[.[.[.[.[.[.[.[.[.[.[.-Xw.G G G G G G G F @._.[.[.[.[.[.[.[.[.[.[.[.[.[.[.[.[.[.[.[.[.[.[.5X>.G G ",
"E Q U E.[.[.[.[.[.[.[.[.[.[.[.[.[.[.[.[.[.[.[.[.[.{.&X3.E E E W E E E P C T.[.[.[.[.[.[.[.[.[.[.[.[.[.[.[.[.[.[.[.[.[.[.6X2.E E ",
"Q Q Y D.[.[.[.[.[.[.[.[.[.[.[.[.[.[.[.[.[.[.[.[.[.4XH.Q Q Q Q Q Q Q Q W S y._.[.[.[.[.[.[.[.[.[.[.[.[.[.[.[.[.[.[.[.[.{.%X! Q Q ",
"% % # a.[.[.[.[.[.[.[.[.[.[.[.[.[.[.[.[.[.[.[.[.{.l.5 % % % % % % % % o o 2 s.[.[.[.[.[.[.[.[.[.[.[.[.[.[.[.[.[.[.[.[.;Xj.o % % ",
"% O = t `.[.[.[.[.[.[.[.[.[.[.[.[.[.[.[.[.[.[.[.4X8 = @ + + + @ o X + : + @ 8 _.[.[.[.[.[.[.[.[.[.[.[.[.[.[.[.[.[.[.[.:Xh @ + + ",
"o = n o.Q.[.[.[.[.[.[.[.[.[.[.[.[.[.[.[.[.[.[.{.=Xk k k k k k k o : n K z k k U.[.[.[.[.[.[.[.[.[.[.[.[.[.[.[.[.[.[.[.2XX.k k k ",
"o > K R C.[.[.[.[.[.[.[.[.[.[.[.[.[.[.[.[.[.[.3X7.S S S S S S S o > I E F S S @.`.[.[.[.[.[.[.[.[.[.[.[.[.[.[.[.[.[.{.@XN S S S ",
"o > I E *.`.[.[.[.[.[.[.[.[.[.[.[.[.[.[.[.[.{.+XS S S S S S S S o > I E F S S j C.[.[.[.[.[.[.[.[.[.[.[.[.[.[.[.[.[..X9.S S S S ",
"o > I E ) E.[.[.[.[.[.[.[.[.[.[.[.[.[.[.[.[.3X<.G F G F S S S S o > I E G F G G ` '.[.[.[.[.[.[.[.[.[.[.[.[.[.[.[.[.>X..S S S S ",
"o > I W Y A.[.[.[.[.[.[.[.[.[.[.[.[.[.[.[..X2XW E E E P F S S S o > I Q E E E E U (.'.[.[.[.[.[.[.[.[.[.[.[.[.[.[.:XP.P F S S S ",
"o > I Q E <.E.[.[.[.[.[.[.[.[.[.[.[.[.[.[.<Xn.Q Q Q Q E F S S S o > I Q Q Q Q Q Q 6.(.[.[.[.[.[.[.[.[.[.[.[.[.[.[.1X5.E F S S S ",
"o o o o o # r '.[.[.[.[.[.[.[.[.[.[.[.[. Xg.$ o o o o o o o o o o o o o o o % % o * p.'.[.[.[.[.[.[.[.[.[.[.[.[.:Xu % o o % o o ",
"+ + + + + + + I.[.[.[.[.[.[.[.[.[.[.[.[.,Xs + + % O + > + + + + + + + + + + + + . O q _.[.[.[.[.[.[.[.[.[.[.[. XOXO + > + + + + ",
"k k k k k k k @._.[.[.[.[.[.[.[.[.[.[.{.$Xb k k % + n H z k k k k k k k k k k k o + m Z.[.[.[.[.[.[.[.[.[.[.[.3Xg + n H z k k k ",
"S S S S S S S B t.'.[.[.[.[.[.[.[.[.[.-X8.S S S o : I E G S S S S S S S S S S S o : H 6._.[.[.[.[.[.[.[.[.[..Xv.$ = I W F S S S ",
"S S S S S S S S   B.`.[.[.[.[.[.[.[. XL.D S S S o > I E F S S S S S S S S S S S o : I R Z.[.[.[.[.[.[.[.[..X+XV o > I E F S S S ",
"G G G G S S S S . 4 d.'.[.[.[.[.[.[.-X8.S S S S o : I E G G G G G G G G S S S S o : I E #._.[.[.[.[.[.[. XS.A S O : I E G G G G ",
"E E E E F S S S o + X.E.[.[.[.[.[. X&X,.F S S S o > I Q E E E Q E E E P G S S S o : I W U T.[.[.[.[.[.{.#X) S S o > I Q E E W E ",
"Q Q Q E F S S S o : I ,.U.[.[.[.'.4XG.W F S S S o > I Q Q Q Q Q Q Q Q E G S S S o : I Q E z._.[.[.[.{.~.) S S S o > I Q Q Q Q Q ",
"o o o o o o . . . . . o 3 N.`.[. Xk.5 o o o o % o o o o % % o o % % o o o o o o . . . . . 2 p.'.'..XY.6 o o o o o o o o o o O % ",
"o O + @ + + @ @ + @ + @ + , t Q.4X6 = = + + + @ + + + + + + + + % O + > + + + + + @ + + + + 8 _.|.u > : + + + + + + + @ + + + + ",
"o > J H z k k k k k k k k k z *.d.> n H z k k k k k k k k k k k o = n H z k k k k k k k k k k V.i > n H z k k k k k k k k k k k ",
"o > I E F S S S S S S S S S S S & > I E G S S S S S S S S S S S o > I E F S S S S S S S S S B N % > I E F S S S S S S S S S S S ",
"o > I E G S S S S S S S S S S S o > I E F S S S S S S S S S S S o > I E F S S S S S S S S S S S % > I E F S S S S S S S S S S S ",
"o > I E G G G G G G F F S S S S o > I E G G G F G F G F S S S S o > I E G G G G G G G F S S S S % > I E G F G G G G F F S S S S ",
"o > I E E E E E E E E P F S S S o > I Q E E E E E E E P F S S S o > I E E E E E E E E P F S S S o > I Q E E E E E E E P F S S S ",
"o > I Q Q Q E Q Q Q Q E F S S S o : I Q Q Q Q Q Q Q Q E G S S S o > I Q Q Q Q Q Q E Q E F S S S o > I Q Q Q Q Q Q Q Q E F S S S "
};
