/* XPM */
static char *down31708526648[] = {
/* columns rows colors chars-per-pixel */
"64 64 217 2 ",
"   c #0D301E",
".  c #1E331E",
"X  c #12311E",
"o  c #293D1A",
"O  c #213617",
"+  c #333F16",
"@  c #021F29",
"#  c #022325",
"$  c #092525",
"%  c #042D24",
"&  c #0C2E27",
"*  c #032429",
"=  c #012F28",
"-  c #0D2E28",
";  c #0A2328",
":  c #112E27",
">  c #102F28",
",  c #0E3026",
"<  c #043229",
"1  c #0D3028",
"2  c #073522",
"3  c #123027",
"4  c #1A3321",
"5  c #113128",
"6  c #193228",
"7  c #2B421E",
"8  c #29441A",
"9  c #344C19",
"0  c #374E14",
"q  c #2A4621",
"w  c #3C4F23",
"e  c #3F5F27",
"r  c #535C0E",
"t  c #475717",
"y  c #5A6715",
"u  c #666A0B",
"i  c #70750E",
"p  c #686C10",
"a  c #687C17",
"s  c #767A13",
"d  c #5C7029",
"f  c #9B150E",
"g  c #941D0E",
"h  c #9E1A0F",
"j  c #8E1C10",
"k  c #871816",
"l  c #9C1611",
"z  c #9D1A12",
"x  c #961812",
"c  c #A9150D",
"v  c #A51A0D",
"b  c #AB1B0A",
"n  c #A6160B",
"m  c #B11F0A",
"M  c #A51611",
"N  c #AA1611",
"B  c #A41A12",
"V  c #AC1A11",
"C  c #B01E11",
"Z  c #B21712",
"A  c #8A2A0C",
"S  c #9E210D",
"D  c #95290D",
"F  c #97350C",
"G  c #942315",
"H  c #9B2413",
"J  c #973313",
"K  c #A2240C",
"L  c #AD220F",
"P  c #A1290D",
"I  c #B1220F",
"U  c #A7360B",
"Y  c #B2350B",
"T  c #A22312",
"R  c #AC2210",
"E  c #B12310",
"W  c #BA2919",
"Q  c #B83711",
"!  c #CC251C",
"~  c #C92819",
"^  c #D2241A",
"/  c #DD251D",
"(  c #DD2E1B",
")  c #D5281A",
"_  c #D1301C",
"`  c #DE301C",
"'  c #E4251B",
"]  c #EC231B",
"[  c #E52E1B",
"{  c #EB2F1A",
"}  c #EA2A15",
"|  c #F12F1A",
" . c #E2311C",
".. c #ED301B",
"X. c #E53813",
"o. c #F3311B",
"O. c #8A4F07",
"+. c #8B4009",
"@. c #9A450A",
"#. c #8C5B05",
"$. c #B44308",
"%. c #B54006",
"&. c #A45409",
"*. c #A95B0A",
"=. c #BD5F07",
"-. c #AD4412",
";. c #BA4710",
":. c #BD5313",
">. c #BE5C10",
",. c #AE480D",
"<. c #8F6806",
"1. c #986807",
"2. c #A56209",
"3. c #AD620C",
"4. c #A77906",
"5. c #B77310",
"6. c #C85A0E",
"7. c #DF411A",
"8. c #DC5113",
"9. c #E15412",
"0. c #C7780C",
"q. c #DB720E",
"w. c #CB7F16",
"e. c #D06B0C",
"r. c #E8760E",
"t. c #E96919",
"y. c #74800E",
"u. c #7D8E18",
"i. c #75822C",
"p. c #888307",
"a. c #9A8903",
"s. c #8E910B",
"d. c #9C9B05",
"f. c #878F1D",
"g. c #8D9013",
"h. c #A28A02",
"j. c #BB9803",
"k. c #AE9003",
"l. c #9DA915",
"z. c #A7A407",
"x. c #B5AB00",
"c. c #B7AA00",
"v. c #BBB503",
"b. c #B0B61A",
"n. c #80842B",
"m. c #879A31",
"M. c #B0B433",
"N. c #C58609",
"B. c #C99E13",
"V. c #D99F1E",
"C. c #D88C0C",
"Z. c #EF8519",
"A. c #C8A803",
"S. c #C4BC00",
"D. c #CCB102",
"F. c #D9B906",
"G. c #E2BE08",
"H. c #F0BE13",
"J. c #E0B61C",
"K. c #CD8D21",
"L. c #D39225",
"P. c #DBA325",
"I. c #C8BE35",
"U. c #F0AA2F",
"Y. c #E2B729",
"T. c #C7C302",
"R. c #CBC601",
"E. c #D5C301",
"W. c #D3C900",
"Q. c #D9C805",
"!. c #DDD300",
"~. c #D7D700",
"^. c #D6D012",
"/. c #D4C617",
"(. c #E9CD0D",
"). c #E1D400",
"_. c #E3DB00",
"`. c #EBDE00",
"'. c #E7CE13",
"]. c #F1C71D",
"[. c #EBD313",
"{. c #F0D817",
"}. c #E5E200",
"|. c #EBE300",
" X c #ECEA00",
".X c #F4E601",
"XX c #F2ED01",
"oX c #FDEF00",
"OX c #F6F200",
"+X c #FFF200",
"@X c #FFFA00",
"#X c #FFF10A",
"$X c #FFFB0B",
"%X c #EFE217",
"&X c #FEF313",
"*X c #FFFC14",
"=X c #FEF519",
"-X c #FFFE1B",
";X c #C4C42A",
":X c #CCD038",
">X c #D5D238",
",X c #E6C92F",
"<X c #F0D424",
"1X c #EACB32",
"2X c #E1DE38",
"3X c #F6DB35",
"4X c #F1C325",
"5X c #FFFD24",
"6X c #FFFE2C",
"7X c #FCF32C",
"8X c #EAE033",
"9X c #F5EB39",
"0X c #FFFE33",
"qX c #FFFF3B",
"wX c #FCF437",
"eX c #F9E928",
"rX c #FEFE43",
/* pixels */
"= = = = = = = = = = = = = = = = = = = = = = = = = = = = = = = = = = = = = = = = = & = = = = = = = = = = = = = = = % = % < % < < ",
"> > > - > > > > - > < % 6 : > > > > > > > - > > % < : 3 5 5 - > > 5 - - > > > > = = > 3 > > : > : - : > : > - : = = : 5 - - - - ",
"T T T T T T T H K G & , _ ( R H T T H T T T R G & 5 _  .T T R T T T T R T T T H - - _ ` K T T T T T T T T T T G - > _ ` R T T T ",
"L R L L R R L V C R & - [ | I L R E R R L L L T , 1 ' ] M h S K P K K K v M N z = 1  ...E E R R R L L V R R E R - > [ | R R L L ",
"R L R R R R R R R T & , ` { L L R R R R R R V l # 4 :.0.j.D.E.Q.).).).Q.F.A.N.3.q - / ] R R K R L R R R R R R T & > ` ..R R R R ",
"R R E R R R R R R K & - ` { E R E R R E V l F 1.z.!. X@X@X@X@X@X@X@X+X@X@X@X@X@X.XT.C.8.R Z E R R R E R R T R H & - ` { E R R R ",
"{ { ..{ R R R R E R & , [ o.......o.| ~ @.k.!.@X@X@X+XoX+X+X+XoXoX+X+X+XoXoXOX+X+X@X@XXXG.q. .] ......{ E L I T & -  .| { ....{ ",
"[ `  .( T H T T T G - 5 _  .`  .` ! ;.j.|.@X+X+X+X+X+X+X+X+X+X+X+X+X+X+X+X+X+X+X+X+X+X+X$X$X(.r.( )  .` T H R G - , _  .` `  .` ",
"5 5 5 - & & & & & & = = > 3 3 $ . p._.@X+X+X+X+X+X+X+X+X+X+X+X+X+X+X+X+X+X+X+X+X+X+X+X+XoX+X$X$XT.t * 3 , % 1 1 = % - 5 - , 3 , ",
"= % - > 1 , - - & & - - & 5 # 0 S.+X+X+X+X+X+X+X+X+X+X+X+X+X+X+X+X+X+X+X+X+X+X+X+X+X+X+X+X+XoXoX*X&Xu.- & 1 & 1 - , & & - & & & ",
"= : _ ( T H H T H T T T R j <.}.@X+X+X+X+X+X+X+X+X+X+X+X+X+X+X+X+X+X+X+X+X+X+X+X+X+X+X+X+X+X+X+XoX#X*XF.U z T T T T T T T T K T ",
"= 4 [ | E L R L E L L C g h.XX+XoX+X+X+X+X+X+X+X+X+X+X+X+X+X+X+X+X+X+X+X+X+X+X+X+X+X+X+X+X+X+X+X+X+X+X-X[.Y N E L L L L L L L L ",
"= :  .{ R R R R R R R g a.OX+XoX+X+X+X+X+X+X+X+X+X+X+X+X+X+X+X+X+X+X+X+X+X+X+X+X+X+X+X+X+X+X+X+X+X+X+XoX-X{.$.B R R R R R B L R ",
"= 3 [ { E R R R R E g a.OX+X+X+X+X+X+X+X+X+X+X+X+X+X+X+X+X+X+X+X+X+X+X+X+X+X+X+X+X+X+X+X+X+X+X+X+X+X+X+XoX-X%X$.V R R R R R R K ",
"= :  .| { { ....o.^ 4. X+X+X+X+X+X+X+X+X+X+X+X+X+X+X+X+X+X+X+X+X+X+X+X+X+X+X+X+X+X+X+X+X+X+X+X+X+X+X+X+X+X+X5X{.7.} ..[ E L R R ",
"= 3 _  .` ` ` ` ^ 2.}.+X+X+X+X+X+X+X+X+X+X+X+X+X+X+X+X+X+X+X+X+X+X+X+X+X+X+X+X+X+X+X+X+X+X+X+X+X+X+X+X+X+X+XoX6XH.( ` ( R T T T ",
"= < - > > - 5 - 9 E.+XOX+X+X+X+X+X+X+X+X+X+X+X+X+X+X+X+X+X+X+X+X+X+X+X+X+X+X+X+X+X+X+X+X+X+X+X+X+X+X+X+X+X+X+XoX0Xg.* , & & & & ",
"> - - - - - - $ d.+X+X+X+X+X+X+X+X+X+X+X+X+X+X+X+X+X+X+X+X+X+X+X+X+X+X+X+X+X+X+X+X+X+X+X+X+X+X+X+X+X+X+X+X+X+X+X=X7Xt - 1 - - & ",
"T T T T T K h #.|.+X+X+X+X+X+X+X+X+X+X+X+X+X+X+X+X+X+X+X+X+X+X+X+X+X+X+X+X+X+X+X+X+X+X+X+X+X+X+X+X+X+X+X+X+X+X+XoX6X].) R T T T ",
"R R L R R I A v.@X+X+X+X+X+X+X+X+X+X+X+X+X+X+X+X+X+X+X+X+X+X+X+X+X+X+X+X+X+X+X+X+X+X+X+X+X+X+X+X+X+X+X+X+X+X+X+X+X#X0Xr.N L R R ",
"R R R K E l <.XX+X+X+X+X+X+X+X+X+X+X+X+X+X+X+X+X+X+X+X+X+X+X+X+X+X+X+X+X+X+X+X+X+X+X+X+X+X+X+X+X+X+X+X+X+X+X+X+X+XoX6X<XL V K R ",
"R E R L E A v.@X+X+X+X+X+X+X+X+X+X+X+X+X+X+X+X+X+X+X+X+X+X+X+X+X+X+X+X+X+X+X+X+X+X+X+X+X+X+X+X+X+X+X+X+X+X+X+X+X+X+XoXqX0.N E R ",
"..{ ..{ B #.|.+X+X+X+X+X+X+X+X+X+X+X+X+X+X+X+X+X+X+X+X+X+X+X+X+X+X+X+X+X+X+X+X+X+X+X+X+X+X+X+X+X+X+X+X+X+X+X+X+X+X+XoX0X4X} ....",
" .`  . .j k.@X+X+X+X+X+X+X+X+X+X+X+X+X+X+X+X+X+X+X+X+X+X+X+X+X+X+X+X+X+X+X+X+X+X+X+X+X+X+X+X+X+X+X+X+X+X+X+X+X+X+X+X+X&XwX8.[  .",
"5 > 5 & o Q.+X+X+X+X+X+X+X+X+X+X+X+X+X+X+X+X+X+X+X+X+X+X+X+X+X+X+X+X+X+X+X+X+X+X+X+X+X+X+X+X+X+X+X+X+X+X+X+X+X+X+X+X+XoXqXf.* 3 ",
"= = 5 # r .X+X+X+X+X+X+X+X+X+X+X+X+X+X+X+X+X+X+X+X+X+X+X+X+X+X+X+X+X+X+X+X+X+X+X+X+X+X+X+X+X+X+X+X+X+X+X+X+X+X+X+X+X#XoX0X;X% 1 ",
"% 3 _ ~ a.+XOX+X+X+X+X+X+X+X+X+X+X+X+X+X+X+X+X+X+X+X+X+X+X+X+X+X+X+X+X+X+X+X+X+X+X+X+X+X+X+X+X+X+X+X+X+X+X+X+X+X+X+X+X+X=X9XU B ",
"< 3 ..~ x.@X+X+X+X+X+X+X+X+X+X+X+X+X+X+X+X+X+X+X+X+X+X+X+X+X+X+X=XoX+X+X+X+X+X+X+X+X+X+X+X+X+X+X+X+X+X+X+X+X+X+X+X+X+X+X+XrX6.v ",
"< 5 [ Q T.+X+X+X+X+X+X+X+X+X+X+X+X+X+X+X+X+X+X+X+X+X+X+X+X+X+X*X8Xx.+X+X+X+X+X+X+X+X+X+X+X+X+X+X+X+X+X+X+X+X+X+X+X+X+X+X+XrXK.n ",
"= 5 [ ,.~.+X+X+X+X+X+X+X+X+X+X+X+X+X+X+X+X+X+X+X+X+X+X+X+X+XOX0Xu.O _.+X+X+X+X+X+X+X+X+X+X+X+X+X+X+X+X+X+X+X+X+X+X+X+X+XoXqXL.n ",
"= 3 [ *.}.+X+X+X+X+X+X+X+X+X+X+X+X+X+X+X+X+X+X+X+X+X+X+X+XoX*X,X2 @ 4.@X+X+X+X+X+X+X+X+X+X+X+X+X+X+X+X+X+X+X+X+X+X+X+X+X+X0XY.b ",
"% 3 ! 2. X+X+X+X+X+X+X+X+X+X+X+X+X+X+X+X+X+X+X+X+X+X+X+X+X+X$X5.@ 6 J _.+XoX+X+X+X+X+X+X+X+X+X+X+X+X+X+X+X+X+X+X+X+X+X+X+X5X,Xh ",
"= < * u oX+X+X+X+X+X+X+X+X+X+X+X+X+X+X+X+X+X+X+X+X+X+X+X+X+XOXq = = # v.@X+X+X+X+X+X+X+X+X+X+X+X+X+X+X+X+X+X+X+X+X+X+X+X+X5X>X  ",
"- > # u oX+X+X+X+X+X+X+X+X+X+X+X+X+X+X+X+X+X+X+X+X+X+X+XOX$X/.$ > 3 * i @XOX+X+X+X+X+X+X+X+X+X+X+X+X+X+X+X+X+X+X+X+X+X+XoX6X>XX ",
"T T z <. X+X+X+X+X+X+X+X+X+X+X+X+X+X+X+X+X+X+X+X+X+X+X+XoX-XK.l T T B F }.+X+X+X+X+X+X+X+X+X+X+X+X+X+X+X+X+X+X+X+X+X+X+XoX5X1XK ",
"L E N #. X+X+X+X+X+X+X+X+X+X+X+X+X+X+X+X+X+X+X+X+X+X+X+XoX6X:.v E R E S F.@X+X+X+X+X+X+X+X+X+X+X+X+X+X+X+X+X+X+X+X+X+X+X+X6X,Xb ",
"R R B O.}.+X+X+X+X+X+X+X+X+X+X+X+X+X+X+X+X+X+X+X+X+X+X+X$X3XL R R R R f k.@X+X+X+X+X+X+X+X+X+X+X+X+X+X+X+X+X+X+X+X+X+X+XoX0XY.n ",
"R R E +.~.@X+X+X+X+X+X+X+X+X+X+X+X+X+X+X+X+X+X+X+X+X+XoX-XP.n E R R E V &.XX+X+X+X+X+X+X+X+X+X+X+X+X+X+X+X+X+X+X+X+X+X+XoXqXV.c ",
"....| Q T.+X+X+X+X+X+X+X+X+X+X+X+X+X+X+X+X+X+X+X+X+X+XoX5Xt.} ........{ P !.+X+X+X+X+X+X+X+X+X+X+X+X+X+X+X+X+X+X+X+X+X+XoXqXZ.] ",
"` ` ..W x.+X+X+X+X+X+X+X+X+X+X+X+X+X+X+X+X+X+X+X+X+X+X+XeX7.[  .` `  . .x j.@X+X+X+X+X+X+X+X+X+X+X+X+X+X+X+X+X+X+X+X+XoX#XqXt./ ",
"> 5 5 $ p.+X+X+X+X+X+X+X+X+X+X+X+X+X+X+X+X+X+X+X+X+XoX*XM.& 5 , 5 , , 5 * y @X+X+X+X+X+X+X+X+X+X+X+X+X+X+X+X+X+X+X+X+X+X=X9Xo * ",
"= = 5 $ r |.+X+X+X+X+X+X+X+X+X+X+X+X+X+X+X+X+X+X+X+XoX6Xi.# , 1 % < , 5 * q |.+X+X+X+X+X+X+X+X+X+X+X+X+X+X+X+X+X+X+X+XoX0X;X% 1 ",
"= : _ [ A R.@X+X+X+X+X+X+X+X+X+X+X+X+X+X+X+X+X+X+X+X+XwX,.z T H - : _ ` R g D.@X+X+X+X+X+X+X+X+X+X+X+X+X+X+X+X+X+X+X+XoXqXN.l T ",
"= 3  .o.g h.+X+X+X+X+X+X+X+X+X+X+X+X+X+X+X+X+X+X+XoX$X1Xb L I T & 5  .{ E v 4.@X+X+X+X+X+X+X+X+X+X+X+X+X+X+X+X+X+X+XoX&XwX$.V L ",
"= 3 ` ..V O.}.+XoX+X+X+X+X+X+X+X+X+X+X+X+X+X+X+X+XoX5XL.n R R T & >  .{ R B @.XX+X+X+X+X+X+X+X+X+X+X+X+X+X+X+X+X+X+X+X0XJ.n R R ",
"= 3 ` { E D x.@X+X+X+X+X+X+X+X+X+X+X+X+X+X+X+X+X+XoX0X:.B R R T & 5 ` { E I S Q.@XoX+X+X+X+X+X+X+X+X+X+X+X+X+X+X+X+X#XwX=.M T R ",
"= 3  .o...' 3. X+X+X+X+X+X+X+X+X+X+X+X+X+X+X+X+XoX$X3XX.E L I T % 5  .| ....' N.@X+X+X+X+X+X+X+X+X+X+X+X+X+X+X+X+XoX6X].m R R E ",
"= 3 _  .`  .W x.@X+X+X+X+X+X+X+X+X+X+X+X+X+X+X+XoX-XU./ T H K G & 5 _ [ ` ` / >.OX+X+X+X+X+X+X+X+X+X+X+X+X+X+X+X+X#XwXq.B H T T ",
"= = > > > 5 ; t |.+XoX+X+X+X+X+X+X+X+X+X+X+X+X+XoX0Xd # , - & & = < - > 1 3 1 4 !.+X+X+X+X+X+X+X+X+X+X+X+X+X+X+XoX0Xb.$ 1 1 & & ",
"> > - - - - 1 $ s.+X+X+X+X+X+X+X+X+X+X+X+X+X+X+X+X9Xq & - - - - - > - - 1 1 1 # z.@XOX+X+X+X+X+X+X+X+X+X+X+X+X+X=XeX9 * 3 1 - & ",
"T T K T T T T G O S.+X+X+X+X+X+X+X+X+X+X+X+X+XoX*XI.W [ R H H T T T R H T T R k p @X+X+X+X+X+X+X+X+X+X+X+X+X+XoX6Xs W  .R T T T ",
"L R R R R E E T $ 0 _.@X+X+X+X+X+X+X+X+X+X+X+XoX5Xi.^ o.E I R R R R R R R R E z 7 `.+X+X+X+X+X+X+X+X+X+X+X+XoX6Xl.$  .| R R R R ",
"R R R R R R R T , ; 1. X+X+X+X+X+X+X+X+X+X+X+X+XwXw ) ..R R R R L R R R R R L H $ v.@XOX+X+X+X+X+X+X+X+X+XoX6X/., -  .{ R R R R ",
"R R E R R R V H 1 3 ! 4. X+XOX+X+X+X+X+X+X+XOX$X:XX ` ..E R E R R R R R R R R T # s @X+X+X+X+X+X+X+X+X+XoX5X[.F * , ` { E R R R ",
"{ { ..{ R R E T & ,  ./ 4.OX+X+X+X+X+X+X+X+XoX5Xm.#  .| ......{ { { { { E I I T * 9 oX+X+X+X+X+X+X+X+X+X-X[.Y B , 5  .| { ......",
"[ `  .( T H T H & - _ ..! 3.`.@XoX+X+X+X+X+X+XwXe $ _  .` `  .`  .`  .( T H T H , % E.@XoX+X+X+X+XoX+X-XB.D B H & 5 _  .` `  .` ",
"> > , - 1 & & & % < > , 3 $ 8 W.$XoXoX+X+X+X#X2X2 = > - , , , , > : : - , & & & < * s.@XOX+X+XoXOX$X=Xa # & 1 & % < 5 5 , - 3 , ",
"= < - , & & & & - - & & - , * 4 d.OX@X+X+XoX5XM.# 5 - & & & & & = < - > & 1 & & 5 * r +X+X+XoX$X@X^.w * - 1 & & - - & - & & & & ",
"= : _ [ T H T T T H T T T T T G * y G.XX@XoX0X5.f K T T T T R G & > _ ( T T S T T T D ).+X$X*X(.a 4 ~ ` T T T T S T T T T T K T ",
"= 4 [ | E R R L L L I L L R I T & * ^ 6.D.OX7XY V L L L L L C T & >  .| E L R L L L h A.*X[.0.H * 5 ..{ E L R L L L L R R L R L ",
"= 3  .{ R R R R R R R R R R R H & 3  .] z &.N.L R R L T R R R T & 3  .{ R R R R R L B *.0.L N T , 5  .{ R R R R R R R R R V L R ",
"= : [ { E R R R L R R R R R R T & 3 ` ..E N n I R R E I R R R H = 1 [ { E E R R R L L V M V R T % 5 [ { E L R R R R R R R R R K ",
"= 3 ` { [ { { { [  .{ [ R R E T % 3 ` o.......[ ..[ ..[ E R R T & 3 ` { { [ [ ..[ .... .L R R T & 3 ` { [ { { {  .{ { [ R R R R ",
"= >  .o...........o.{ { E R R T & 5 ` ..............o. .R R R T & > ` o.................E K E T = 3 ` o...............{ R R R R "
};
