/* XPM */
static char *down41708526649[] = {
/* columns rows colors chars-per-pixel */
"64 64 217 2 ",
"   c #0F301F",
".  c #1B341E",
"X  c #243C1B",
"o  c #041D22",
"O  c #012325",
"+  c #032D26",
"@  c #0C2E27",
"#  c #022529",
"$  c #012F28",
"%  c #0C2E28",
"&  c #0A2627",
"*  c #112E27",
"=  c #122F28",
"-  c #0E3126",
";  c #053329",
":  c #0D3128",
">  c #123127",
",  c #1B3721",
"<  c #113028",
"1  c #173920",
"2  c #28421D",
"3  c #3A4D19",
"4  c #39551B",
"5  c #1F4120",
"6  c #244123",
"7  c #5F5D0F",
"8  c #414F14",
"9  c #4B5511",
"0  c #475817",
"q  c #5D6613",
"w  c #6F790F",
"e  c #485F27",
"r  c #66762B",
"t  c #9D1C0D",
"y  c #9A170D",
"u  c #9B1511",
"i  c #951912",
"p  c #9D1912",
"a  c #861814",
"s  c #AB150C",
"d  c #A91B0F",
"f  c #A4180D",
"g  c #A41611",
"h  c #AA1610",
"j  c #A31C12",
"k  c #AC1C11",
"l  c #B21C12",
"z  c #B1160B",
"x  c #9C230E",
"c  c #932B0E",
"v  c #99270E",
"b  c #8A370C",
"n  c #92330B",
"m  c #973A0A",
"M  c #8D2310",
"N  c #962312",
"B  c #9A2413",
"V  c #AD220F",
"C  c #A9270C",
"Z  c #B1220F",
"A  c #B12E0A",
"S  c #A13E0B",
"D  c #B43B07",
"F  c #B13A0F",
"G  c #A22312",
"H  c #AC2210",
"J  c #B12311",
"K  c #BF241F",
"L  c #C72A1B",
"P  c #D2271A",
"I  c #DC261B",
"U  c #DD2E1B",
"Y  c #D82A1A",
"T  c #C83615",
"R  c #D1301C",
"E  c #DE301C",
"W  c #DA3516",
"Q  c #E2231C",
"!  c #EA241A",
"~  c #E42E1B",
"^  c #EB2F1A",
"/  c #F12F1A",
"(  c #E2311C",
")  c #ED301B",
"_  c #E93816",
"`  c #F2301B",
"'  c #F9321B",
"]  c #D42520",
"[  c #8D4709",
"{  c #995D07",
"}  c #8F5806",
"|  c #AB480C",
" . c #B6460D",
".. c #B84A0A",
"X. c #A45309",
"o. c #A5580C",
"O. c #BD5C0B",
"+. c #B45C0C",
"@. c #AD4412",
"#. c #B74913",
"$. c #976C06",
"%. c #977604",
"&. c #AD6A07",
"*. c #AA6708",
"=. c #A37905",
"-. c #B57906",
";. c #B97310",
":. c #B76D07",
">. c #C0570D",
",. c #C05D18",
"<. c #D95E11",
"1. c #E44916",
"2. c #E85C1D",
"3. c #CA6A0C",
"4. c #C06010",
"5. c #C97313",
"6. c #C07814",
"7. c #EF6B21",
"8. c #7C8511",
"9. c #86890C",
"0. c #9F8C02",
"q. c #969309",
"w. c #898A15",
"e. c #A98C03",
"r. c #BB8406",
"t. c #B78905",
"y. c #B78906",
"u. c #AB9C01",
"i. c #A59705",
"p. c #9BA011",
"a. c #AEA501",
"s. c #B2A600",
"d. c #B3AC02",
"f. c #B9AF00",
"g. c #BAB500",
"h. c #BEB901",
"j. c #B6B90C",
"k. c #848F26",
"l. c #879427",
"z. c #9BA331",
"x. c #93A224",
"c. c #B2B534",
"v. c #CA810A",
"b. c #D9970B",
"n. c #C98014",
"m. c #C9841A",
"M. c #D18B12",
"N. c #CB9307",
"B. c #C4A204",
"V. c #C8AC03",
"C. c #C9BC01",
"Z. c #C6B900",
"A. c #D7B90A",
"S. c #D6A90E",
"D. c #E6B210",
"F. c #C98423",
"G. c #D48D25",
"H. c #EF9E22",
"J. c #EB8225",
"K. c #F0AA2D",
"L. c #E6B627",
"P. c #E2BB30",
"I. c #E0AA2B",
"U. c #CCC401",
"Y. c #C9C900",
"T. c #D7C402",
"R. c #D4CC00",
"E. c #DBCD00",
"W. c #D7D400",
"Q. c #DCD300",
"!. c #DCD900",
"~. c #D9D719",
"^. c #E4DB01",
"/. c #E9DD00",
"(. c #E7D506",
"). c #F1C019",
"_. c #EAD714",
"`. c #F4DF1D",
"'. c #EBE400",
"]. c #E9E600",
"[. c #F3E400",
"{. c #F4EC00",
"}. c #FDEF00",
"|. c #F6EC0A",
" X c #F5F100",
".X c #FFF200",
"XX c #FFFB01",
"oX c #FFF20C",
"OX c #FFFB0B",
"+X c #F4F10B",
"@X c #F5EC19",
"#X c #FFF213",
"$X c #FFFD16",
"%X c #FFF41B",
"&X c #FFFD1C",
"*X c #DBD737",
"=X c #F3CC33",
"-X c #EDD032",
";X c #F5D936",
":X c #E7CA21",
">X c #F4E626",
",X c #FFF624",
"<X c #FFFF25",
"1X c #FFFD2B",
"2X c #FFF42C",
"3X c #FAE735",
"4X c #F5EC33",
"5X c #FDF334",
"6X c #FFFC32",
"7X c #FFF53A",
"8X c #FFFD3D",
"9X c #F2DC42",
"0X c #F8ED47",
"qX c #FFFF44",
"wX c #FFFD4D",
"eX c #FBF547",
"rX c #FFFD51",
/* pixels */
"$ $ $ ; $ $ $ $ $ $ + $ ; + ; $ $ $ $ $ $ $ ; $ $ ; $ $ + ; $ $ $ $ $ ; $ + ; $ $ $ + + ; $ ; $ $ $ $ $ $ $ $ $ $ $ $ $ $ + $ ; ",
"* % % % * * % * * % ; + = = * % = = % = * % * < + $ * * < < - < < < < < < < < % ; ; < < * % * * % * * % * % % * + $ * * < * % % ",
"G G G G G G G B H N % % R U H B G G G G G G H N : < R ~ j p u u u u u u u t j N : < R E G G G G G G G G G G G N % < R E G G G G ",
"Z H V V H J H H H G @ % ~ / Z V H J H H k H Z G # # P W S X.*.-.r.r.r.-.:.+.| G # # Q / Z V V H V J H H H H J H % * ( / Z V V V ",
"k C H H H H H H V G % % E ^ V H H G H H H k g M 3 w V.E.]. XXXXXXXXXXXXXXX.X{.^.j.9.<._ s j H C d H H H H H H G @ < U ) V H H H ",
"H H H J G H H H V G % - U ) J C J H J J p m =.Z.[.XXXX.X.X X.X.X.X.X.X.X.X.X.X.XXXXX X(.N. .k l J H H J H H H B @ % E ^ J H H H ",
"^ ^ ^ ^ J H H k Z G @ % ~ ' ^ ^ ) ^ I  .e.Q..XXX.X.X.X.X.X.X.X.X.X.X.X.X.X.X X.X X}..XXXOX|.D.<.~ ^ ` ^ H V Z G @ % ( ` ^ ) ^ ^ ",
"( ( ( U G G G G H N % % R ( ( ( P T t.W.XX.X.X}..X.X.X.X.X.X.X.X.X.X.X.X.X.X.X.X.X.X.X.X.X.XOX+XD.1.P U G B H N % % R ( E ( ( ( ",
"> < * - : @ @ @ @ $ + $ < > - & 7 Z. XXX.X X.X.X.X.X.X.X.X.X.X.X.X.X.X.X.X.X.X.X.X.X.X.X.X.X.X.X$X|.9.@ + - @ @ $ $ % > - - @ > ",
"+ $ % % @ @ @ @ - % * % - &   8.'..X.X.X.X.X.X.X.X.X.X.X.X.X.X.X.X.X.X.X.X.X.X.X.X.X.X.X.X.X.X.X}.oX#Xj.6 # - % * - @ @ @ @ @ @ ",
"$ > R ~ G B G G G G G G j b s.}..X.X.X.X.X.X.X.X.X.X.X.X.X.X.X.X.X.X.X.X.X.X.X.X.X.X.X.X.X.X.X.X.X.XoX&X_.| u G G G G G G G G G ",
"+ > ~ / J H H V V V H k b f. X.X.X.X.X.X.X.X.X.X.X.X.X.X.X.X.X.X.X.X.X.X.X.X.X.X.X.X.X.X.X.X.X.X.X.X.X}.&X|.O.h V V V V V V V V ",
"$ > ( ^ H H H H V V d b g..X.X.X.X.X.X.X.X.X.X.X.X.X.X.X.X.X.X.X.X.X.X.X.X.X.X.X.X.X.X.X.X.X.X.X.X.X.X.X.X,X@XO.g H H H C k H H ",
"$ < ( ^ H H H H H l n d.}..X}..X.X.X.X.X.X.X.X.X.X.X.X.X.X.X.X.X.X.X.X.X.X.X.X.X.X.X.X.X.X.X.X.X.X.X.X.X.X}.,X@X..k H H k C H H ",
"+ > ( / ^ ) ) ) ) T i.{..X.X.X.X.X.X.X.X.X.X.X.X.X.X.X.X.X.X.X.X.X.X.X.X.X.X.X.X.X.X.X.X.X.X.X.X.X.X.X.X.X.X}.1X@X_ ^ ^ Z Z H H ",
"$ = R ( U E E E P =.]..X.X.X.X.X.X.X.X.X.X.X.X.X.X.X.X.X.X.X.X.X.X.X.X.X.X.X.X.X.X.X.X.X.X.X.X.X.X.X.X.X.X.X.X X6X).Y U H B G B ",
"$ $ % * % < < & 9 E..X.X.X.X.X.X.X.X.X.X.X.X.X.X.X.X.X.X.X.X.X.X.X.X.X.X.X.X.X.X.X.X.X.X.X.X.X.X.X.X.X.X.X.X.X.X#X6Xw.# : @ @ @ ",
"* < % % % % @ . a.}..X.X.X.X.X.X.X.X.X.X.X.X.X.X.X.X.X.X.X.X.X.X.X.X.X.X.X.X.X.X.X.X.X.X.X.X.X.X.X.X.X.X.X.X.X.X}.,X4X3 + - % % ",
"G B G G G G i $.'..X.X.X.X.X.X.X.X.X.X.X.X.X.X.X.X.X.X.X.X.X.X.X.X.X.X.X.X.X.X.X.X.X.X.X.X.X.X.X.X.X.X.X.X.X.X.X.X}.8XL.j G G G ",
"V V Z V V V n g..X}..X.X.X.X.X.X.X.X.X.X.X.X.X.X.X.X.X.X.X.X.X.X.X.X.X.X.X.X.X.X.X.X.X.X.X.X.X.X.X.X.X.X.X.X.X.X.X.X%X7X>.h H H ",
"H H H V V t $.]..X.X.X.X.X.X.X.X.X.X.X.X.X.X.X.X.X.X.X.X.X.X.X.X.X.X.X.X.X.X.X.X.X.X.X.X.X.X.X.X.X.X.X.X.X.X.X.X.X.X.XqXL.d V G ",
"H H H H H c f..X.X.X.X.X.X.X.X.X.X.X.X.X.X.X.X.X.X.X.X.X.X.X.X.X.X.X.X.X.X.X.X.X.X.X.X.X.X.X.X.X.X.X.X.X.X.X.X.X.X.X.X%XeX..k Z ",
") ) ^ ^ k } !..X.X.X.X.X.X.X.X.X.X.X.X.X.X.X.X.X.X.X.X.X.X.X.X.X.X.X.X.X.X.X.X.X.X.X.X.X.X.X.X.X.X.X.X.X.X.X.X.X.X.X.X}.wXH.! ) ",
"( E ( U N 0. X.X.X.X.X.X.X.X.X.X.X.X.X.X.X.X.X.X.X.X.X.X.X.X.X.X.X.X.X.X.X.X.X.X.X.X.X.X.X.X.X.X.X.X.X.X.X.X.X.X.X.X.X X6X;X_ ( ",
"< < < @ X Z..X.X.X.X.X.X.X.X.X.X.X.X.X.X.X.X.X.X.X.X.X.X.X.X.X.X.X.X.X.X.X.X.X.X.X.X.X.X.X.X.X.X.X.X.X.X.X.X.X.X.X.X.X.X%XeXe & ",
"+ $ - # 9 (..X X.X.X.X.X.X.X.X.X.X.X.X.X.X.X.X.X.X.X.X.X.X.X.X.X.X.X.X.X.X.X.X.X.X.X.X.X.X.X.X.X.X.X.X.X.X.X.X.X.X.X.X.X}.wXk.O ",
"+ > R P %.'..X.X.X.X.X.X.X.X.X.X.X.X.X.X.X.X.X.X.X.X.X.X.X.X.X.X.X.X.X.X.X.X.X.X.X.X.X.X.X.X.X.X.X.X.X.X.X.X.X.X.X.X.X.X XqXP.t ",
"$ < ) U i.{..X.X.X.X.X.X.X.X.X.X.X.X.X.X.X.X.X.X.X.X.X.X.X.X.X.X2X_.{..X.X.X.X.X.X.X.X.X.X.X.X.X.X.X.X.X.X.X.X.X.X.X.X.X.X1X;XA ",
"$ > ~ T d..X.X.X.X.X.X.X.X.X.X.X.X.X.X.X.X.X.X.X.X.X.X.X.X.X.XoX7X9.U.XX.X.X.X.X.X.X.X.X.X.X.X.X.X.X.X.X.X.X.X.X.X.X.X.X.X%X0X .",
"$ > ( T h..X.X.X.X.X.X.X.X.X.X.X.X.X.X.X.X.X.X.X.X.X.X.X.X.X{.1Xx.o $.|..X.X.X.X.X.X.X.X.X.X.X.X.X.X.X.X.X.X.X.X.X.X.X.X.X#XrX4.",
"$ 1 ~ #.Y.XX.X.X.X.X.X.X.X.X.X.X.X.X.X.X.X.X.X.X.X.X.X.X.X.XXX>X- = J Z.XX X.X.X.X.X.X.X.X.X.X.X.X.X.X.X.X.X.X.X.X.X.X.X.XoXrX5.",
"$ > P | Y..X.X.X.X.X.X.X.X.X.X.X.X.X.X.X.X.X.X.X.X.X.X.X.X.XXXA.# , L r.XX.X.X.X.X.X.X.X.X.X.X.X.X.X.X.X.X.X.X.X.X.X.X.X.XoXrXm.",
"$ ; & 8 Q..X.X.X.X.X.X.X.X.X.X.X.X.X.X.X.X.X.X.X.X.X.X.X.X}.OXl.# ; # q .X.X.X.X.X.X.X.X.X.X.X.X.X.X.X.X.X.X.X.X.X.X.X.X.X.XrXk.",
"* < + 3 E..X.X.X.X.X.X.X.X.X.X.X.X.X.X.X.X.X.X.X.X.X.X.X.X}.1Xr O > # 3 /..X.X.X.X.X.X.X.X.X.X.X.X.X.X.X.X.X.X.X.X.X.X.X.X.XrXk.",
"B G j [ R..X.X.X.X.X.X.X.X.X.X.X.X.X.X.X.X.X.X.X.X.X.X.X.X.X4X| p G H c E..X.X.X.X.X.X.X.X.X.X.X.X.X.X.X.X.X.X.X.X.X.X.X.X.XrXn.",
"V Z l b Y.XX.X.X.X.X.X.X.X.X.X.X.X.X.X.X.X.X.X.X.X.X.X.X}.OX;XV J H H p V.XX X.X.X.X.X.X.X.X.X.X.X.X.X.X.X.X.X.X.X.X.X.X.XoXwX5.",
"H H k n h..X.X.X.X.X.X.X.X.X.X.X.X.X.X.X.X.X.X.X.X.X.X.X}.$XP.f H H H u t.XX}. X.X.X.X.X.X.X.X.X.X.X.X.X.X.X.X.X.X.X.X.X.X#XeXO.",
"H J H v a..X.X.X.X.X.X.X.X.X.X.X.X.X.X.X.X.X.X.X.X.X.X.X}.<XG.s H J H k *..X.X.X.X.X.X.X.X.X.X.X.X.X.X.X.X.X.X.X.X.X.X.X.X,X0X .",
"^ ^ ` P e. X.X.X.X.X.X.X.X.X.X.X.X.X.X.X.X.X.X.X.X.X.X.X.X6X7.! ) ) ) ! | ]..X.X.X.X.X.X.X.X.X.X.X.X.X.X.X.X.X.X.X.X.X.X}.6X=X_ ",
"( ( ( Y $.]..X.X.X.X.X.X.X.X.X.X.X.X.X.X.X.X.X.X.X.X.X.X.X5X1.U ( E ( U c E..X.X.X.X.X.X.X.X.X.X.X.X.X.X.X.X.X.X.X.X.X.X}.qXD.I ",
"* * > # 8 E..X.X.X.X.X.X.X.X.X.X.X.X.X.X.X.X.X.X.X.X.X}.OX*X. - > - - - O d.XX.X.X.X.X.X.X.X.X.X.X.X.X.X.X.X.X.X.X.X.X.X}.qX8.# ",
"$ ; % % . g..X.X.X.X.X.X.X.X.X.X.X.X.X.X.X.X.X.X.X.X.X}.$Xc.O - ; ; % < O 9.XX X.X.X.X.X.X.X.X.X.X.X.X.X.X.X.X.X.X.X.X.X%X7X4 # ",
"$ = R ( N %.{..X.X.X.X.X.X.X.X.X.X.X.X.X.X.X.X.X.X.X.X}.<XF.p B @ > R E j o..X.X.X.X.X.X.X.X.X.X.X.X.X.X.X.X.X.X.X.X.X}.8X:Xp G ",
"+ < ( ` l [ W.XX.X.X.X.X.X.X.X.X.X.X.X.X.X.X.X.X.X.X.X.X6X,.s G @ < ( ` J m ]..X.X.X.X.X.X.X.X.X.X.X.X.X.X.X.X.X.X.X.XoX8Xv.h H ",
"; > E ) J x u..X.X.X.X.X.X.X.X.X.X.X.X.X.X.X.X.X.X.X.X.X3XF k G @ - U ^ H v E.XX.X.X.X.X.X.X.X.X.X.X.X.X.X.X.X.X.X.X.X,X>XD j H ",
"$ < E ) J k } ]..X.X.X.X.X.X.X.X.X.X.X.X.X.X.X.X.X.X}.OX-XC H G @ * ( ^ Z p B.XX}..X.X.X.X.X.X.X.X.X.X.X.X.X.X.X.X.X}.8Xb.j H H ",
"+ < ( ` ^ / T s..X.X.X.X.X.X.X.X.X.X.X.X.X.X.X.X.X.X}.$XI.s J G + < ( / ` Q v.XX}..X.X.X.X.X.X.X.X.X.X.X.X.X.X.X.X.X,X>X .k H H ",
"$ < ] ( U ( I o.!..X.X.X.X.X.X.X.X.X.X.X.X.X.X.X.X.X}.<XF.y G N @ < R ( E I 4. X.X.X.X.X.X.X.X.X.X.X.X.X.X.X.X.X.X}.6Xb.g G B G ",
"; + % - * % < % q.}..X.X.X.X.X.X.X.X.X.X.X.X.X.X.X.X}.6Xe # % @ ; $ % * * & 2 /..X.X.X.X.X.X.X.X.X.X.X.X.X.X.X.X}.6X~., + - @ @ ",
"% * % % % % % & X C..X.X.X.X.X.X.X.X.X.X.X.X.X.X.X.X.X4X6 + * % % * % % % = * T.XX.X.X.X.X.X.X.X.X.X.X.X.X.X.X.X%X,Xq # < % % % ",
"G G G G G G H B O 9 ].XX.X.X.X.X.X.X.X.X.X.X.X.X.X}.OX-XG G G G G G G G G G i s.XX.X.X.X.X.X.X.X.X.X.X.X.X.X.XoX1Xq.L ( G G G G ",
"V H H H H H H G : # %.]..X.X.X.X.X.X.X.X.X.X.X.X.X}.&XK.z H H H H H H H J J g -.XX.X.X.X.X.X.X.X.X.X.X.X.X.X.X1Xj.@ ] ' J H H H ",
"H H H H H H H G @ = L y.{..X X.X.X.X.X.X.X.X.X.X.X}.<XJ.s H H H H H H H H H g X. X.X.X.X.X.X.X.X.X.X.X.X.X.X<XA.1 % E ^ H H H H ",
"H H H J H H H B @ - ( I &. X.X X.X.X.X.X.X.X.X.X.X.X6X2.l H H J H J H H H H k m /..X.X.X.X.X.X.X.X.X.X.X}.<XM.x + - E ^ J J H H ",
"^ ^ ^ ^ H H Z G @ % U ' I 3.{.XX}..X.X.X.X.X.X.X.X.X3X_ ^ ) ^ ) ^ ) ^ ^ J V H N T.XX.X.X.X.X}..X.X.X}..X<Xn.s G @ % ( ' ^ ^ ^ ^ ",
"( E ( U G B H N @ < R ( ( I +./.XX.X.X.X.X.X.X.X}.$X=XU ( ( ( ( ( ( ( Y G G G a i.XX X.X.X.X.X.X.X}.OX%X;.y G B @ * R ( ( E ( ( ",
"* < < % @ @ @ @ + ; * - - < & 2 h.XXXX X.X.X.X.X X&Xz.O > % - * * < < % - @ - O w XX}..X.X.X}.}.XXOX~.4 O - : % $ $ * * - % < - ",
"$ $ % % @ @ @ % % @ - & % @ - # # 9.[..XXX.X}. X.X1Xr O - @ @ @ $ $ % * @ @ - # 8 }..X.X}.}.OX$X/.p., # - @ @ % * % @ % @ @ @ @ ",
"$ > R U G G G G G B G G G G G B + & R 3.T.XXXX.X}.5X#.p G G G N @ * R U H B B H n ^..X.XOX$X@X6.< # R ( G G G G G G G G G G G G ",
"+ , ~ / J H J H V V Z V V V Z G : > ( ! x &.T.}.XX3XA H Z H H H @ - ( / H V V H G C.OX$X_.5.Z u $ , ( / J H H H H H H V V V V V ",
"+ > ( ^ H H H C H H H H V G V G $ < ( ) J g t X.B.S.H H H H C G @ * ( ^ H H H H p y.D.O.V g H G @ * E ^ H H H H H H H H H H H H ",
"$ * ~ ^ J V H H H V H V V V H G @ * ( ^ J J J k g C J H H H k B @ < E ^ J H J H J H d s H H H G @ < ( ^ J H H H H H C V C k H H ",
"$ > E ^ ~ ^ ~ ^ ~ ( ^ ~ H H H G @ - ( ^ ~ ) ) ( ) ~ ) ~ J H H G $ < E / ~ ^ ~ ^ ^ ~ ) ~ J C H G @ < E ^ ~ ^ ~ ^ ~ ^ ) ~ V H H H ",
"$ > E ` ) ` ) ) ) ` ) ) J H H G @ < U ` ) ) ) ) ) ) ) ) J H H G @ * E ` ) ) ) ) ) ) ) ^ H H H G @ < U ` ) ` ) ) ) ^ ) ) H H j H "
};
