/* XPM */
static char *down21708526648[] = {
/* columns rows colors chars-per-pixel */
"64 64 216 2 ",
"   c #1B2D1C",
".  c #1B381D",
"X  c #092A1E",
"o  c #283C18",
"O  c #021F26",
"+  c #022225",
"@  c #0C2423",
"#  c #032F27",
"$  c #0C2E27",
"%  c #012429",
"&  c #0B2628",
"*  c #012F29",
"=  c #0D2E28",
"-  c #112E27",
";  c #122628",
":  c #102F28",
">  c #1A2C28",
",  c #0E3126",
"<  c #023128",
"1  c #0E3128",
"2  c #123027",
"3  c #123128",
"4  c #1B3227",
"5  c #7C360A",
"6  c #1F411C",
"7  c #2A441C",
"8  c #384E1B",
"9  c #274221",
"0  c #434F11",
"q  c #485B15",
"w  c #5D6C0D",
"e  c #4D641D",
"r  c #6F750C",
"t  c #747C0E",
"y  c #7B7606",
"u  c #647411",
"i  c #4A5D25",
"p  c #707D26",
"a  c #8A180F",
"s  c #9C150E",
"d  c #92160E",
"f  c #8E1511",
"g  c #9D1512",
"h  c #921911",
"j  c #9D1B13",
"k  c #921612",
"l  c #A5150D",
"z  c #AA150D",
"x  c #A4180E",
"c  c #AB1D08",
"v  c #A41611",
"b  c #AA1611",
"n  c #A41B12",
"m  c #AB1B11",
"M  c #B11711",
"N  c #B01C11",
"B  c #80290D",
"V  c #9C220D",
"C  c #9A270C",
"Z  c #893C09",
"A  c #94370C",
"S  c #9B2313",
"D  c #972414",
"F  c #AE220F",
"G  c #A92B0E",
"H  c #A7270B",
"J  c #B1220F",
"K  c #A6340C",
"L  c #B33A0A",
"P  c #A22312",
"I  c #AC2210",
"U  c #B22310",
"Y  c #B82A16",
"T  c #A63213",
"R  c #BE3E15",
"E  c #CE2B1E",
"W  c #C8241B",
"Q  c #D3231A",
"!  c #DB241B",
"~  c #DD2E1C",
"^  c #D82617",
"/  c #C73517",
"(  c #D1301C",
")  c #DE301C",
"_  c #DA3D15",
"`  c #EB261B",
"'  c #E52E1B",
"]  c #EB2F1A",
"[  c #E62417",
"{  c #F12E1A",
"}  c #E2311C",
"|  c #ED301B",
" . c #F2311B",
".. c #FB321C",
"X. c #864607",
"o. c #874508",
"O. c #9B450F",
"+. c #98480C",
"@. c #905409",
"#. c #A1440E",
"$. c #AA4C0C",
"%. c #A44A0C",
"&. c #B64C0A",
"*. c #B94A0A",
"=. c #A0520A",
"-. c #AB5E09",
";. c #A65D07",
":. c #B8570B",
">. c #BC4B10",
",. c #B85712",
"<. c #8F6105",
"1. c #936806",
"2. c #947304",
"3. c #A96408",
"4. c #AB7E05",
"5. c #B27007",
"6. c #BA7E08",
"7. c #B16A08",
"8. c #CD4113",
"9. c #DF4815",
"0. c #C05714",
"q. c #DD5D14",
"w. c #E14D10",
"e. c #E65616",
"r. c #C8770C",
"t. c #C46813",
"y. c #CC7B1D",
"u. c #C2761B",
"i. c #EA6215",
"p. c #F07F23",
"a. c #7A810C",
"s. c #6C831B",
"d. c #75852C",
"f. c #9F8003",
"g. c #999506",
"h. c #969B1F",
"j. c #A08303",
"k. c #AE9C01",
"l. c #A29904",
"z. c #B79D02",
"x. c #B0831A",
"c. c #9CA016",
"v. c #A3A005",
"b. c #ACAA06",
"n. c #B7A902",
"m. c #B0A510",
"M. c #B9B618",
"N. c #B7B407",
"B. c #808C2B",
"V. c #8D962C",
"C. c #ADB124",
"Z. c #A1A932",
"A. c #C39E04",
"S. c #D0871F",
"D. c #D4991F",
"F. c #D88B0D",
"G. c #C6A404",
"H. c #C5BE00",
"J. c #D4B00F",
"K. c #E9AD10",
"L. c #CD8E22",
"P. c #D19522",
"I. c #DCA62B",
"U. c #C0B523",
"Y. c #EBA72A",
"T. c #F3BC28",
"R. c #CBC301",
"E. c #C7C100",
"W. c #D2C101",
"Q. c #D2CA00",
"!. c #D9C903",
"~. c #DCD300",
"^. c #DBD800",
"/. c #D1D117",
"(. c #E2CF02",
"). c #E2D500",
"_. c #E6DB01",
"`. c #ECDB04",
"'. c #EED51F",
"]. c #F6D615",
"[. c #E3E000",
"{. c #EAE400",
"}. c #EAE800",
"|. c #F3E601",
" X c #F2EC00",
".X c #FDEF00",
"XX c #F2EA08",
"oX c #F6F000",
"OX c #FFF200",
"+X c #FFFB01",
"@X c #FDF40E",
"#X c #FFFF0B",
"$X c #ECE311",
"%X c #F5E61A",
"&X c #FFF611",
"*X c #FFFB14",
"=X c #FFFE1D",
"-X c #C7C831",
";X c #EBCB33",
":X c #E8C434",
">X c #E5DF38",
",X c #F4DC35",
"<X c #F6DB22",
"1X c #F6EC21",
"2X c #F1E722",
"3X c #FFFF23",
"4X c #FFFF2C",
"5X c #FEF627",
"6X c #E5E035",
"7X c #F7EE30",
"8X c #F7E839",
"9X c #FFFD34",
"0X c #FFFE3C",
"qX c #FBF73A",
"wX c #ECE427",
"eX c #FDF741",
/* pixels */
"* * * * * * * * * * # < * * * < * * * * * * * < * # * * < * * * * * < < * * * * * # * * * * * * * * * * * * * * * * * * # * * * ",
": : : = : : = : : : # * 2 - : : : = = : : : = 2 * # - 2 2 2 = : : : 2 , = - = - # < - 2 - - : : = : - : - : = - # # - : , : : = ",
"P P P P P P P S x S , = ( ~ I S P P P P P V I D $ = ( ) P P P P P P P P P P I D $ = ( ) P P P P P V P P P P I D = : ( ) P P P P ",
"F F F F I F F I J P $ , ' { J F U I I U N F F P , 3 ] { m b b v z b b b m I U P = 1 } { U I I U I F F N I I I P $ = ' { J F F F ",
"I I I I I I I I F P $ = ) ] F F I I I P F F I j % + / 8.%.;.7.5.5.7.-.$.K P n g % 1 ) | U P I I I I I I I I I P $ : } | F I I I ",
"I I I I I I I m F P $ = ) ] U F U I I U m s j +.t b.!.{.oXOX+X+X+X+X+XoX|.).J.6.8 = ! | Y U I I I I I I I I I S $ = ) ] U I I I ",
"] ] ] ] I I U I J P $ = }  .| | |  .` Q A j.W. X+X+X+XOXOXOXOXOXOX.XOXOXOX+X+X+X.XQ.F.9.[ ' | | ] |  .] I F J I $ = } { | ] ] ] ",
"' ) } ) P S P P P S = 2 ( } ) } ~ W >.G.{.+X+XOXOX.X.XOXOXOXOXOXOXOXOXOXOXOX.X.XOX+X#XXXK.w.Q ! } } } ~ P S P D $ = ( } ) ) } } ",
"- : = = $ $ $ $ $ $ # # , = 2 + o l.}.+XOXOXOXOXOXOXOXOXOXOXOXOXOXOXOXOXOXOXOXOXOXOX.XOX#X@Xm.7 + 2 2 = $ $ $ $ * * = - , $ , 2 ",
"# * , , $ $ $ $ $ $ = , , = + w ~.+XOXOXOXOXOXOXOXOXOXOXOXOXOXOXOXOXOXOXOXOXOXOXOXOXOXOX.XOX#X$Xu % = 1 $ $ $ 1 - $ $ $ $ $ $ $ ",
"# 2 ( ' P S P P P S P P n B k.+X+XOXOXOXOXOXOXOXOXOXOXOXOXOXOXOXOXOXOXOXOXOXOXOXOXOXOXOXOXOXOX@X=XM./ ' P P P P P P P P P P V P ",
"* 2 ' { U I I F F F J z Z R.+XOXOXOXOXOXOXOXOXOXOXOXOXOXOXOXOXOXOXOXOXOXOXOXOXOXOXOXOXOXOXOXOXOXOX*X].w.N I I I F F F F F F F F ",
"* 2 } ] I I I I I I g X.~.+X.XOXOXOXOXOXOXOXOXOXOXOXOXOXOXOXOXOXOXOXOXOXOXOXOXOXOXOXOXOXOXOXOXOXOX.X*X%X:.v I I I I I F F I P F ",
"* 2 ' ] U I I I U b X.^.OXOXOXOXOXOXOXOXOXOXOXOXOXOXOXOXOXOXOXOXOXOXOXOXOXOXOXOXOXOXOXOXOXOXOXOXOXOXOX*X%X&.b U I F I F F I n F ",
"* - } { | ] ] | ' #.~.+X.XOXOXOXOXOXOXOXOXOXOXOXOXOXOXOXOXOXOXOXOXOXOXOXOXOXOXOXOXOXOXOXOXOXOXOXOXOXOX.X*X1Xw.` | } ] ] J F F F ",
"< 2 ( } ~ ) ) ' T R.+XOXOXOXOXOXOXOXOXOXOXOXOXOXOXOXOXOXOXOXOXOXOXOXOXOXOXOXOXOXOXOXOXOXOXOXOXOXOXOXOXOX.X=X<X_ ~ } } ) P P P S ",
"* * = - = - 1 @ v.+XOXOXOXOXOXOXOXOXOXOXOXOXOXOXOXOXOXOXOXOXOXOXOXOXOXOXOXOXOXOXOXOXOXOXOXOXOXOXOXOXOXOXOX.X3XM.$ 1 , , $ $ $ $ ",
": : = $ = = O u OXOXOXOXOXOXOXOXOXOXOXOXOXOXOXOXOXOXOXOXOXOXOXOXOXOXOXOXOXOXOXOXOXOXOXOXOXOXOXOXOXOXOXOXOXOX.X9Xs.% 2 , = = = $ ",
"P P P P P n 5 ).OXOXOXOXOXOXOXOXOXOXOXOXOXOXOXOXOXOXOXOXOXOXOXOXOXOXOXOXOXOXOXOXOXOXOXOXOXOXOXOXOXOXOXOXOXOXOX&X7X8 W } I P P S ",
"F F F I J d k.+X.XOXOXOXOXOXOXOXOXOXOXOXOXOXOXOXOXOXOXOXOXOXOXOXOXOXOXOXOXOXOXOXOXOXOXOXOXOXOXOXOXOXOXOXOXOXOX.X4XU.^  .I F I J ",
"I I F F b X.{.OXOXOXOXOXOXOXOXOXOXOXOXOXOXOXOXOXOXOXOXOXOXOXOXOXOXOXOXOXOXOXOXOXOXOXOXOXOXOXOXOXOXOXOXOXOXOXOXOXOX9Xi.` I I I I ",
"I I I U a n.+X.XOXOXOXOXOXOXOXOXOXOXOXOXOXOXOXOXOXOXOXOXOXOXOXOXOXOXOXOXOXOXOXOXOXOXOXOXOXOXOXOXOXOXOXOXOXOXOXOX.X3XT.[ U I I I ",
"| ] | ' Z [.OXOXOXOXOXOXOXOXOXOXOXOXOXOXOXOXOXOXOXOXOXOXOXOXOXOXOXOXOXOXOXOXOXOXOXOXOXOXOXOXOXOXOXOXOXOXOXOXOXOXOXOXqXe.` | | | ",
") ) } W f.+XOXOXOXOXOXOXOXOXOXOXOXOXOXOXOXOXOXOXOXOXOXOXOXOXOXOXOXOXOXOXOXOXOXOXOXOXOXOXOXOXOXOXOXOXOXOXOXOXOXOXOX.X4XY.! } } ) ",
"2 2 =   R.+XOXOXOXOXOXOXOXOXOXOXOXOXOXOXOXOXOXOXOXOXOXOXOXOXOXOXOXOXOXOXOXOXOXOXOXOXOXOXOXOXOXOXOXOXOXOXOXOXOXOXOXOX&X>X. = = : ",
"* < % 0  XOXOXOXOXOXOXOXOXOXOXOXOXOXOXOXOXOXOXOXOXOXOXOXOXOXOXOXOXOXOXOXOXOXOXOXOXOXOXOXOXOXOXOXOXOXOXOXOXOXOXOXOXOX.X0Xe % , $ ",
"# 4 Y 4.OXOXOXOXOXOXOXOXOXOXOXOXOXOXOXOXOXOXOXOXOXOXOXOXOXOXOXOXOXOXOXOXOXOXOXOXOXOXOXOXOXOXOXOXOXOXOXOXOXOXOXOXOX@X.X9XP.s P P ",
"# > Y n.+XOXOXOXOXOXOXOXOXOXOXOXOXOXOXOXOXOXOXOXOXOXOXOXOXOXOXOX+XOXOXOXOXOXOXOXOXOXOXOXOXOXOXOXOXOXOXOXOXOXOXOXOXOX.X3X:Xc I F ",
"* > T Q.+XOXOXOXOXOXOXOXOXOXOXOXOXOXOXOXOXOXOXOXOXOXOXOXOXOX@XwX).OXOXOXOXOXOXOXOXOXOXOXOXOXOXOXOXOXOXOXOXOXOXOXOXOXOX&X8XG I I ",
"< > O._.OXOXOXOXOXOXOXOXOXOXOXOXOXOXOXOXOXOXOXOXOXOXOXOXOXOX9Xx.y +XOXOXOXOXOXOXOXOXOXOXOXOXOXOXOXOXOXOXOXOXOXOXOXOXOXOXeX*.b I ",
"< ; @.XXOXOXOXOXOXOXOXOXOXOXOXOXOXOXOXOXOXOXOXOXOXOXOXOXOX*X,XC   Q.+XOXOXOXOXOXOXOXOXOXOXOXOXOXOXOXOXOXOXOXOXOXOXOXOXOXeXt.x U ",
"< & 1.OXOXOXOXOXOXOXOXOXOXOXOXOXOXOXOXOXOXOXOXOXOXOXOXOX.X9Xu.h + t +XOXOXOXOXOXOXOXOXOXOXOXOXOXOXOXOXOXOXOXOXOXOXOXOXOX0Xu.s P ",
"< + r OXOXOXOXOXOXOXOXOXOXOXOXOXOXOXOXOXOXOXOXOXOXOXOXOX*X>X. $ # .  XOXOXOXOXOXOXOXOXOXOXOXOXOXOXOXOXOXOXOXOXOXOXOXOX.X0Xd.% 2 ",
"2 + r +XOXOXOXOXOXOXOXOXOXOXOXOXOXOXOXOXOXOXOXOXOXOXOX+X3Xh.% 3 2 O N.+X.XOXOXOXOXOXOXOXOXOXOXOXOXOXOXOXOXOXOXOXOXOXOX.X9XV.% 2 ",
"P h 2.OXOXOXOXOXOXOXOXOXOXOXOXOXOXOXOXOXOXOXOXOXOXOXOXOX.X%.j P P g 3.+X.XOXOXOXOXOXOXOXOXOXOXOXOXOXOXOXOXOXOXOXOXOXOX.X9XL.s P ",
"U v 2.OXOXOXOXOXOXOXOXOXOXOXOXOXOXOXOXOXOXOXOXOXOXOXOX+XK.m I I U J V ).+XOXOXOXOXOXOXOXOXOXOXOXOXOXOXOXOXOXOXOXOXOXOXOX9XS.z G ",
"I j <.OXOXOXOXOXOXOXOXOXOXOXOXOXOXOXOXOXOXOXOXOXOXOX.X#Xr.v I I I I s 6.+XOXOXOXOXOXOXOXOXOXOXOXOXOXOXOXOXOXOXOXOXOXOX.X0Xy.l I ",
"U m @. XOXOXOXOXOXOXOXOXOXOXOXOXOXOXOXOXOXOXOXOXOX.XOX$XY m I I I I N K  XOXOXOXOXOXOXOXOXOXOXOXOXOXOXOXOXOXOXOXOXOXOXOX0Xt.b I ",
"| ] #.^.OXOXOXOXOXOXOXOXOXOXOXOXOXOXOXOXOXOXOXOXOX.X#XK.[ | ] ] | |  .! G.+X.XOXOXOXOXOXOXOXOXOXOXOXOXOXOXOXOXOXOXOXOXOXeXe.` | ",
") | T Q.+XOXOXOXOXOXOXOXOXOXOXOXOXOXOXOXOXOXOXOXOXOX7Xe.' } } ) ) ) } ! =.+XOXOXOXOXOXOXOXOXOXOXOXOXOXOXOXOXOXOXOXOXOX&X8X_ } } ",
"3 2 + b.+XOXOXOXOXOXOXOXOXOXOXOXOXOXOXOXOXOXOXOX.X+X-X@ , , , 2 2 2 , , $ E.+X.XOXOXOXOXOXOXOXOXOXOXOXOXOXOXOXOXOXOX.X=X-X@ 1 , ",
"< < % 2.+XOXOXOXOXOXOXOXOXOXOXOXOXOXOXOXOXOXOXOX.X*Xp + , $ $ $ # < , 2 % r +X.XOXOXOXOXOXOXOXOXOXOXOXOXOXOXOXOXOXOXOX9XV.+ , , ",
"* 2 E =.}.OXOXOXOXOXOXOXOXOXOXOXOXOXOXOXOXOXOXOX@X7XK n P P P S = - ( ) I A _.OXOXOXOXOXOXOXOXOXOXOXOXOXOXOXOXOXOXOXOXeX,.j P S ",
"* 2 ] Y E.+XOXOXOXOXOXOXOXOXOXOXOXOXOXOXOXOXOXOX=XI.l I F I J P $ : } ] U x z.+X.XOXOXOXOXOXOXOXOXOXOXOXOXOXOXOXOX.X=X,XH I F J ",
"< 2 } Q f.+XOXOXOXOXOXOXOXOXOXOXOXOXOXOXOXOXOX.X9X0.z F F P N P $ , ) ] I b =.oXOXOXOXOXOXOXOXOXOXOXOXOXOXOXOXOXOX.X3XD.z F H I ",
"< 3 } ` Z [.OXOXOXOXOXOXOXOXOXOXOXOXOXOXOXOXOX*X;XM N F F F F S $ : } ] U I S R.+X.XOXOXOXOXOXOXOXOXOXOXOXOXOXOXOXOXqX*.m F I I ",
"* 2 } ..W z.+X.XOXOXOXOXOXOXOXOXOXOXOXOXOXOX.X4XS.` | ] J I J P $ 2 ' { | | [ r.+XOXOXOXOXOXOXOXOXOXOXOXOXOXOXOX.X4X:X[ J J I I ",
"* 2 ( } ! +.}.OXOXOXOXOXOXOXOXOXOXOXOXOXOXOX@X8X_ ~ } ( I S P D # : ( } ) ) ' R _.OXOXOXOXOXOXOXOXOXOXOXOXOXOXOX.X9Xe.! P S P S ",
"* * = : 3 + g.+X.XOXOXOXOXOXOXOXOXOXOXOXOX.X=XZ.+ 2 , , $ $ $ $ * * = = - = 3 % l.+X.XOXOXOXOXOXOXOXOXOXOXOXOX.X4XC.+ 2 , $ $ $ ",
": : = = = $ o ).OX.XOXOXOXOXOXOXOXOXOXOXOX.X9Xi % # : , = = $ $ : : = $ = = , % q OXOXOXOXOXOXOXOXOXOXOXOXOXOX*X7X7 # 2 , = $ $ ",
"P S P P P P k <.+XOXOXOXOXOXOXOXOXOXOXOXOX*X;XV = - ( ~ P P P S P S P P P P I D : R.+X.XOXOXOXOXOXOXOXOXOXOXoX9Xu % ( ) P n P S ",
"F F F F I J U a l.+X.XOXOXOXOXOXOXOXOXOX.X9Xy.x , = }  .U F F F F J U I I I J P % a.+X.XOXOXOXOXOXOXOXOXOX.X4XJ.% 3 }  .U I I U ",
"F F I I I I J D   H.+X.XOXOXOXOXOXOXOXOX@X8XL P , $ ) ] F F F I m F I I I I I S # o {.OXOXOXOXOXOXOXOXOX.X=X'.K $ , ~ | I I I I ",
"I I I U I I I S % o ~.+X.XOXOXOXOXOXOX.X=XI.z P $ , ) ] I F U F I U I I I I I S $ % n.+X.XOXOXOXOXOXOX.X*X2XL j $ : ) ] U I I I ",
"] ] ] ] I I U I , $ O.).+X.XOXOXOXOXOX.X9X0.z P $ = } { | | | | | | | ' U I U P 1 ; ,.OXOXOXOXOXOXOX.X*X1X&.b G $ = }  .] | | | ",
") } } ~ P S P D $ 2 W O.~.+X.XOXOXOXOX#X;XV P D $ = ( } ) ) } ) ) ) } ~ I S P D $ 3 Y !.+X.XOXOXOX.X*X%X%.g P S = = ( } ) } ) } ",
"- 2 , = $ $ $ $ * * 2 & o E.+XOXOXOX.X4Xd.+ , $ * * : = , = , , : - - , $ $ $ $ * # % a.+XOXOX.XOX*X/.7 % , $ = * # : - , $ , 2 ",
"* * = = $ , $ = = = $ = %   g.+X+XOXoX8X9 # , $ - = = $ $ $ $ $ # # $ : $ , $ $ : 2 # o {.OX.XOX*Xh.. # 2 $ $ = $ $ $ $ $ $ $ $ ",
"* 2 ( ' P S P P P P P P P S f ;._.OX3XY.x P P P P V P P V P I D $ : ( ~ P P P S P S P h G.#X+X`.e + ( } P P S P P P P P P P V P ",
"* 2 } { U F I F F F F F J I U h 2 t $Xi.M F I F F F F J F I J P $ , } { J F F J F J I v ;.`.r.D % 2 } ] J F I F F F F F F F F F ",
"* 2 ' ] I I I I I I F P I I I P # % _ | I I P F F F I I I I I P $ 3 ) ] I I I I I I I I G G b P , 2 ) ] I I I I I F I I F I I P ",
"# 2 } ] U F I I I F F F I I I P , 3 ' ' U F J F I I I I I I m S # - } ] U F I I F J F I I m U P $ , } ] U F I I I I I F I I F N ",
"* - ) { ] ' ' ] ' ] ] ' I I I P # - )  .} ] ] ' ' ] | ' U I I P $ - ~  .' ] ' ] ] ' ' ' U I I P $ 2 ~  .' | ] ] ' } ] ' J F F P ",
"# 2 )  .| | | | | | | | U I I P $ 2 ) { | |  .| | ]  .} I I U S $ - )  .| | | | | | | ] I I I P # 2 ~  .| | | ] |  .| ] I P F F "
};
